  0
SECTION
  2
HEADER
  9
$ACADVER
  1
AC1009
  9
$EXTMIN
 10
0.0
 20
0.0
 30
0.0
  9
$EXTMAX
 10
1000.0
 20
1000.0
 30
0.0
  9
$FILLMODE
 70
 0
  9
$SPLFRAME
 70
 1
  0
ENDSEC
  0
SECTION
  2
TABLES
  0
TABLE
  2
LAYER
 70
1
  0
LAYER
  2
0
 70
     0
 62
     7
  6
CONTINUOUS
  0
ENDTAB
  0
ENDSEC
  0
SECTION
  2
ENTITIES
  0
LINE
  8
0
 62
     0
 10
19.9953
 20
101.502
 30
0.0
 11
6.09505
 21
101.502
 31
0.0
  0
LINE
  8
0
 62
     0
 10
6.09505
 20
101.502
 30
0.0
 11
6.09505
 21
6.25217
 31
0.0
  0
LINE
  8
0
 62
     0
 10
6.09505
 20
6.25217
 30
0.0
 11
310.896
 21
6.25217
 31
0.0
  0
LINE
  8
0
 62
     0
 10
310.896
 20
6.25217
 30
0.0
 11
310.896
 21
101.502
 31
0.0
  0
LINE
  8
0
 62
     0
 10
310.896
 20
101.502
 30
0.0
 11
30.9948
 21
101.502
 31
0.0
  0
LINE
  8
0
 62
     0
 10
30.9948
 20
101.502
 30
0.0
 11
30.9948
 21
107.502
 31
0.0
  0
LINE
  8
0
 62
     0
 10
30.9948
 20
107.502
 30
0.0
 11
314.897
 21
107.502
 31
0.0
  0
LINE
  8
0
 62
     0
 10
314.897
 20
107.502
 30
0.0
 11
315.053
 21
107.495
 31
0.0
  0
LINE
  8
0
 62
     0
 10
315.053
 20
107.495
 30
0.0
 11
315.208
 21
107.477
 31
0.0
  0
LINE
  8
0
 62
     0
 10
315.208
 20
107.477
 30
0.0
 11
315.363
 21
107.447
 31
0.0
  0
LINE
  8
0
 62
     0
 10
315.363
 20
107.447
 30
0.0
 11
315.514
 21
107.404
 31
0.0
  0
LINE
  8
0
 62
     0
 10
315.514
 20
107.404
 30
0.0
 11
315.662
 21
107.349
 31
0.0
  0
LINE
  8
0
 62
     0
 10
315.662
 20
107.349
 30
0.0
 11
315.803
 21
107.284
 31
0.0
  0
LINE
  8
0
 62
     0
 10
315.803
 20
107.284
 30
0.0
 11
315.94
 21
107.207
 31
0.0
  0
LINE
  8
0
 62
     0
 10
315.94
 20
107.207
 30
0.0
 11
316.071
 21
107.12
 31
0.0
  0
LINE
  8
0
 62
     0
 10
316.071
 20
107.12
 30
0.0
 11
316.195
 21
107.023
 31
0.0
  0
LINE
  8
0
 62
     0
 10
316.195
 20
107.023
 30
0.0
 11
316.311
 21
106.916
 31
0.0
  0
LINE
  8
0
 62
     0
 10
316.311
 20
106.916
 30
0.0
 11
316.417
 21
106.801
 31
0.0
  0
LINE
  8
0
 62
     0
 10
316.417
 20
106.801
 30
0.0
 11
316.515
 21
106.678
 31
0.0
  0
LINE
  8
0
 62
     0
 10
316.515
 20
106.678
 30
0.0
 11
316.601
 21
106.547
 31
0.0
  0
LINE
  8
0
 62
     0
 10
316.601
 20
106.547
 30
0.0
 11
316.679
 21
106.409
 31
0.0
  0
LINE
  8
0
 62
     0
 10
316.679
 20
106.409
 30
0.0
 11
316.743
 21
106.267
 31
0.0
  0
LINE
  8
0
 62
     0
 10
316.743
 20
106.267
 30
0.0
 11
316.799
 21
106.121
 31
0.0
  0
LINE
  8
0
 62
     0
 10
316.799
 20
106.121
 30
0.0
 11
316.84
 21
105.968
 31
0.0
  0
LINE
  8
0
 62
     0
 10
316.84
 20
105.968
 30
0.0
 11
316.872
 21
105.815
 31
0.0
  0
LINE
  8
0
 62
     0
 10
316.872
 20
105.815
 30
0.0
 11
316.89
 21
105.658
 31
0.0
  0
LINE
  8
0
 62
     0
 10
316.89
 20
105.658
 30
0.0
 11
316.896
 21
105.501
 31
0.0
  0
LINE
  8
0
 62
     0
 10
316.896
 20
105.501
 30
0.0
 11
316.896
 21
2.25171
 31
0.0
  0
LINE
  8
0
 62
     0
 10
316.896
 20
2.25171
 30
0.0
 11
316.89
 21
2.09462
 31
0.0
  0
LINE
  8
0
 62
     0
 10
316.89
 20
2.09462
 30
0.0
 11
316.872
 21
1.9389
 31
0.0
  0
LINE
  8
0
 62
     0
 10
316.872
 20
1.9389
 30
0.0
 11
316.84
 21
1.78456
 31
0.0
  0
LINE
  8
0
 62
     0
 10
316.84
 20
1.78456
 30
0.0
 11
316.799
 21
1.63298
 31
0.0
  0
LINE
  8
0
 62
     0
 10
316.799
 20
1.63298
 30
0.0
 11
316.743
 21
1.48553
 31
0.0
  0
LINE
  8
0
 62
     0
 10
316.743
 20
1.48553
 30
0.0
 11
316.679
 21
1.34359
 31
0.0
  0
LINE
  8
0
 62
     0
 10
316.679
 20
1.34359
 30
0.0
 11
316.601
 21
1.20716
 31
0.0
  0
LINE
  8
0
 62
     0
 10
316.601
 20
1.20716
 30
0.0
 11
316.515
 21
1.07625
 31
0.0
  0
LINE
  8
0
 62
     0
 10
316.515
 20
1.07625
 30
0.0
 11
316.417
 21
0.952225
 31
0.0
  0
LINE
  8
0
 62
     0
 10
316.417
 20
0.952225
 30
0.0
 11
316.311
 21
0.836468
 31
0.0
  0
LINE
  8
0
 62
     0
 10
316.311
 20
0.836468
 30
0.0
 11
316.195
 21
0.730359
 31
0.0
  0
LINE
  8
0
 62
     0
 10
316.195
 20
0.730359
 30
0.0
 11
316.071
 21
0.63252
 31
0.0
  0
LINE
  8
0
 62
     0
 10
316.071
 20
0.63252
 30
0.0
 11
315.94
 21
0.545705
 31
0.0
  0
LINE
  8
0
 62
     0
 10
315.94
 20
0.545705
 30
0.0
 11
315.803
 21
0.468535
 31
0.0
  0
LINE
  8
0
 62
     0
 10
315.803
 20
0.468535
 30
0.0
 11
315.662
 21
0.403765
 31
0.0
  0
LINE
  8
0
 62
     0
 10
315.662
 20
0.403765
 30
0.0
 11
315.514
 21
0.348644
 31
0.0
  0
LINE
  8
0
 62
     0
 10
315.514
 20
0.348644
 30
0.0
 11
315.363
 21
0.307303
 31
0.0
  0
LINE
  8
0
 62
     0
 10
315.363
 20
0.307303
 30
0.0
 11
315.208
 21
0.275608
 31
0.0
  0
LINE
  8
0
 62
     0
 10
315.208
 20
0.275608
 30
0.0
 11
315.053
 21
0.257693
 31
0.0
  0
LINE
  8
0
 62
     0
 10
315.053
 20
0.257693
 30
0.0
 11
314.897
 21
0.252181
 31
0.0
  0
LINE
  8
0
 62
     0
 10
314.897
 20
0.252181
 30
0.0
 11
2.096
 21
0.252181
 31
0.0
  0
LINE
  8
0
 62
     0
 10
2.096
 20
0.252181
 30
0.0
 11
1.9389
 21
0.257693
 31
0.0
  0
LINE
  8
0
 62
     0
 10
1.9389
 20
0.257693
 30
0.0
 11
1.7818
 21
0.275608
 31
0.0
  0
LINE
  8
0
 62
     0
 10
1.7818
 20
0.275608
 30
0.0
 11
1.62884
 21
0.307303
 31
0.0
  0
LINE
  8
0
 62
     0
 10
1.62884
 20
0.307303
 30
0.0
 11
1.47588
 21
0.348644
 31
0.0
  0
LINE
  8
0
 62
     0
 10
1.47588
 20
0.348644
 30
0.0
 11
1.32981
 21
0.403765
 31
0.0
  0
LINE
  8
0
 62
     0
 10
1.32981
 20
0.403765
 30
0.0
 11
1.18787
 21
0.468535
 31
0.0
  0
LINE
  8
0
 62
     0
 10
1.18787
 20
0.468535
 30
0.0
 11
1.05006
 21
0.545705
 31
0.0
  0
LINE
  8
0
 62
     0
 10
1.05006
 20
0.545705
 30
0.0
 11
0.919152
 21
0.63252
 31
0.0
  0
LINE
  8
0
 62
     0
 10
0.919152
 20
0.63252
 30
0.0
 11
0.796505
 21
0.730359
 31
0.0
  0
LINE
  8
0
 62
     0
 10
0.796505
 20
0.730359
 30
0.0
 11
0.680752
 21
0.836468
 31
0.0
  0
LINE
  8
0
 62
     0
 10
0.680752
 20
0.836468
 30
0.0
 11
0.574643
 21
0.952225
 31
0.0
  0
LINE
  8
0
 62
     0
 10
0.574643
 20
0.952225
 30
0.0
 11
0.4768
 21
1.07625
 31
0.0
  0
LINE
  8
0
 62
     0
 10
0.4768
 20
1.07625
 30
0.0
 11
0.389985
 21
1.20716
 31
0.0
  0
LINE
  8
0
 62
     0
 10
0.389985
 20
1.20716
 30
0.0
 11
0.312815
 21
1.34359
 31
0.0
  0
LINE
  8
0
 62
     0
 10
0.312815
 20
1.34359
 30
0.0
 11
0.248047
 21
1.48553
 31
0.0
  0
LINE
  8
0
 62
     0
 10
0.248047
 20
1.48553
 30
0.0
 11
0.192925
 21
1.63298
 31
0.0
  0
LINE
  8
0
 62
     0
 10
0.192925
 20
1.63298
 30
0.0
 11
0.150206
 21
1.78456
 31
0.0
  0
LINE
  8
0
 62
     0
 10
0.150206
 20
1.78456
 30
0.0
 11
0.119889
 21
1.9389
 31
0.0
  0
LINE
  8
0
 62
     0
 10
0.119889
 20
1.9389
 30
0.0
 11
0.101975
 21
2.09462
 31
0.0
  0
LINE
  8
0
 62
     0
 10
0.101975
 20
2.09462
 30
0.0
 11
0.0950846
 21
2.25034
 31
0.0
  0
LINE
  8
0
 62
     0
 10
0.0950846
 20
2.25034
 30
0.0
 11
0.0950846
 21
105.501
 31
0.0
  0
LINE
  8
0
 62
     0
 10
0.0950846
 20
105.501
 30
0.0
 11
0.101975
 21
105.658
 31
0.0
  0
LINE
  8
0
 62
     0
 10
0.101975
 20
105.658
 30
0.0
 11
0.119889
 21
105.815
 31
0.0
  0
LINE
  8
0
 62
     0
 10
0.119889
 20
105.815
 30
0.0
 11
0.150206
 21
105.968
 31
0.0
  0
LINE
  8
0
 62
     0
 10
0.150206
 20
105.968
 30
0.0
 11
0.192925
 21
106.121
 31
0.0
  0
LINE
  8
0
 62
     0
 10
0.192925
 20
106.121
 30
0.0
 11
0.248047
 21
106.267
 31
0.0
  0
LINE
  8
0
 62
     0
 10
0.248047
 20
106.267
 30
0.0
 11
0.312815
 21
106.409
 31
0.0
  0
LINE
  8
0
 62
     0
 10
0.312815
 20
106.409
 30
0.0
 11
0.389985
 21
106.547
 31
0.0
  0
LINE
  8
0
 62
     0
 10
0.389985
 20
106.547
 30
0.0
 11
0.4768
 21
106.678
 31
0.0
  0
LINE
  8
0
 62
     0
 10
0.4768
 20
106.678
 30
0.0
 11
0.574643
 21
106.801
 31
0.0
  0
LINE
  8
0
 62
     0
 10
0.574643
 20
106.801
 30
0.0
 11
0.680752
 21
106.916
 31
0.0
  0
LINE
  8
0
 62
     0
 10
0.680752
 20
106.916
 30
0.0
 11
0.796505
 21
107.023
 31
0.0
  0
LINE
  8
0
 62
     0
 10
0.796505
 20
107.023
 30
0.0
 11
0.919152
 21
107.12
 31
0.0
  0
LINE
  8
0
 62
     0
 10
0.919152
 20
107.12
 30
0.0
 11
1.05006
 21
107.207
 31
0.0
  0
LINE
  8
0
 62
     0
 10
1.05006
 20
107.207
 30
0.0
 11
1.18787
 21
107.284
 31
0.0
  0
LINE
  8
0
 62
     0
 10
1.18787
 20
107.284
 30
0.0
 11
1.32981
 21
107.349
 31
0.0
  0
LINE
  8
0
 62
     0
 10
1.32981
 20
107.349
 30
0.0
 11
1.47588
 21
107.404
 31
0.0
  0
LINE
  8
0
 62
     0
 10
1.47588
 20
107.404
 30
0.0
 11
1.62884
 21
107.447
 31
0.0
  0
LINE
  8
0
 62
     0
 10
1.62884
 20
107.447
 30
0.0
 11
1.7818
 21
107.477
 31
0.0
  0
LINE
  8
0
 62
     0
 10
1.7818
 20
107.477
 30
0.0
 11
1.9389
 21
107.495
 31
0.0
  0
LINE
  8
0
 62
     0
 10
1.9389
 20
107.495
 30
0.0
 11
2.096
 21
107.502
 31
0.0
  0
LINE
  8
0
 62
     0
 10
2.096
 20
107.502
 30
0.0
 11
19.9953
 21
107.502
 31
0.0
  0
LINE
  8
0
 62
     0
 10
19.9953
 20
107.502
 30
0.0
 11
19.9953
 21
101.502
 31
0.0
  0
LINE
  8
0
 62
     0
 10
2.76986
 20
4.24988
 30
0.0
 11
2.47771
 21
4.10104
 31
0.0
  0
LINE
  8
0
 62
     0
 10
2.47771
 20
4.10104
 30
0.0
 11
2.24482
 21
3.86814
 31
0.0
  0
LINE
  8
0
 62
     0
 10
2.24482
 20
3.86814
 30
0.0
 11
2.096
 21
3.576
 31
0.0
  0
LINE
  8
0
 62
     0
 10
2.096
 20
3.576
 30
0.0
 11
2.04501
 21
3.25079
 31
0.0
  0
LINE
  8
0
 62
     0
 10
2.04501
 20
3.25079
 30
0.0
 11
2.096
 21
2.92695
 31
0.0
  0
LINE
  8
0
 62
     0
 10
2.096
 20
2.92695
 30
0.0
 11
2.24482
 21
2.63343
 31
0.0
  0
LINE
  8
0
 62
     0
 10
2.24482
 20
2.63343
 30
0.0
 11
2.47771
 21
2.40192
 31
0.0
  0
LINE
  8
0
 62
     0
 10
2.47771
 20
2.40192
 30
0.0
 11
2.76986
 21
2.25309
 31
0.0
  0
LINE
  8
0
 62
     0
 10
2.76986
 20
2.25309
 30
0.0
 11
3.09507
 21
2.20073
 31
0.0
  0
LINE
  8
0
 62
     0
 10
3.09507
 20
2.20073
 30
0.0
 11
3.41891
 21
2.25309
 31
0.0
  0
LINE
  8
0
 62
     0
 10
3.41891
 20
2.25309
 30
0.0
 11
3.71242
 21
2.40192
 31
0.0
  0
LINE
  8
0
 62
     0
 10
3.71242
 20
2.40192
 30
0.0
 11
3.94395
 21
2.63343
 31
0.0
  0
LINE
  8
0
 62
     0
 10
3.94395
 20
2.63343
 30
0.0
 11
4.09416
 21
2.92695
 31
0.0
  0
LINE
  8
0
 62
     0
 10
4.09416
 20
2.92695
 30
0.0
 11
4.14514
 21
3.25079
 31
0.0
  0
LINE
  8
0
 62
     0
 10
4.14514
 20
3.25079
 30
0.0
 11
4.09416
 21
3.576
 31
0.0
  0
LINE
  8
0
 62
     0
 10
4.09416
 20
3.576
 30
0.0
 11
3.94395
 21
3.86814
 31
0.0
  0
LINE
  8
0
 62
     0
 10
3.94395
 20
3.86814
 30
0.0
 11
3.71242
 21
4.10104
 31
0.0
  0
LINE
  8
0
 62
     0
 10
3.71242
 20
4.10104
 30
0.0
 11
3.41891
 21
4.24988
 31
0.0
  0
LINE
  8
0
 62
     0
 10
3.41891
 20
4.24988
 30
0.0
 11
3.09507
 21
4.30085
 31
0.0
  0
LINE
  8
0
 62
     0
 10
3.09507
 20
4.30085
 30
0.0
 11
2.76986
 21
4.24988
 31
0.0
  0
LINE
  8
0
 62
     0
 10
158.171
 20
4.24988
 30
0.0
 11
157.879
 21
4.10104
 31
0.0
  0
LINE
  8
0
 62
     0
 10
157.879
 20
4.10104
 30
0.0
 11
157.646
 21
3.86814
 31
0.0
  0
LINE
  8
0
 62
     0
 10
157.646
 20
3.86814
 30
0.0
 11
157.496
 21
3.576
 31
0.0
  0
LINE
  8
0
 62
     0
 10
157.496
 20
3.576
 30
0.0
 11
157.445
 21
3.25079
 31
0.0
  0
LINE
  8
0
 62
     0
 10
157.445
 20
3.25079
 30
0.0
 11
157.496
 21
2.92695
 31
0.0
  0
LINE
  8
0
 62
     0
 10
157.496
 20
2.92695
 30
0.0
 11
157.646
 21
2.63343
 31
0.0
  0
LINE
  8
0
 62
     0
 10
157.646
 20
2.63343
 30
0.0
 11
157.879
 21
2.40192
 31
0.0
  0
LINE
  8
0
 62
     0
 10
157.879
 20
2.40192
 30
0.0
 11
158.171
 21
2.25309
 31
0.0
  0
LINE
  8
0
 62
     0
 10
158.171
 20
2.25309
 30
0.0
 11
158.495
 21
2.20073
 31
0.0
  0
LINE
  8
0
 62
     0
 10
158.495
 20
2.20073
 30
0.0
 11
158.819
 21
2.25309
 31
0.0
  0
LINE
  8
0
 62
     0
 10
158.819
 20
2.25309
 30
0.0
 11
159.112
 21
2.40192
 31
0.0
  0
LINE
  8
0
 62
     0
 10
159.112
 20
2.40192
 30
0.0
 11
159.344
 21
2.63343
 31
0.0
  0
LINE
  8
0
 62
     0
 10
159.344
 20
2.63343
 30
0.0
 11
159.494
 21
2.92695
 31
0.0
  0
LINE
  8
0
 62
     0
 10
159.494
 20
2.92695
 30
0.0
 11
159.545
 21
3.25079
 31
0.0
  0
LINE
  8
0
 62
     0
 10
159.545
 20
3.25079
 30
0.0
 11
159.494
 21
3.576
 31
0.0
  0
LINE
  8
0
 62
     0
 10
159.494
 20
3.576
 30
0.0
 11
159.344
 21
3.86814
 31
0.0
  0
LINE
  8
0
 62
     0
 10
159.344
 20
3.86814
 30
0.0
 11
159.112
 21
4.10104
 31
0.0
  0
LINE
  8
0
 62
     0
 10
159.112
 20
4.10104
 30
0.0
 11
158.819
 21
4.24988
 31
0.0
  0
LINE
  8
0
 62
     0
 10
158.819
 20
4.24988
 30
0.0
 11
158.495
 21
4.30085
 31
0.0
  0
LINE
  8
0
 62
     0
 10
158.495
 20
4.30085
 30
0.0
 11
158.171
 21
4.24988
 31
0.0
  0
LINE
  8
0
 62
     0
 10
313.571
 20
4.24988
 30
0.0
 11
313.279
 21
4.10104
 31
0.0
  0
LINE
  8
0
 62
     0
 10
313.279
 20
4.10104
 30
0.0
 11
313.046
 21
3.86814
 31
0.0
  0
LINE
  8
0
 62
     0
 10
313.046
 20
3.86814
 30
0.0
 11
312.897
 21
3.576
 31
0.0
  0
LINE
  8
0
 62
     0
 10
312.897
 20
3.576
 30
0.0
 11
312.847
 21
3.25079
 31
0.0
  0
LINE
  8
0
 62
     0
 10
312.847
 20
3.25079
 30
0.0
 11
312.897
 21
2.92695
 31
0.0
  0
LINE
  8
0
 62
     0
 10
312.897
 20
2.92695
 30
0.0
 11
313.046
 21
2.63343
 31
0.0
  0
LINE
  8
0
 62
     0
 10
313.046
 20
2.63343
 30
0.0
 11
313.279
 21
2.40192
 31
0.0
  0
LINE
  8
0
 62
     0
 10
313.279
 20
2.40192
 30
0.0
 11
313.571
 21
2.25309
 31
0.0
  0
LINE
  8
0
 62
     0
 10
313.571
 20
2.25309
 30
0.0
 11
313.896
 21
2.20073
 31
0.0
  0
LINE
  8
0
 62
     0
 10
313.896
 20
2.20073
 30
0.0
 11
314.22
 21
2.25309
 31
0.0
  0
LINE
  8
0
 62
     0
 10
314.22
 20
2.25309
 30
0.0
 11
314.514
 21
2.40192
 31
0.0
  0
LINE
  8
0
 62
     0
 10
314.514
 20
2.40192
 30
0.0
 11
314.745
 21
2.63343
 31
0.0
  0
LINE
  8
0
 62
     0
 10
314.745
 20
2.63343
 30
0.0
 11
314.894
 21
2.92695
 31
0.0
  0
LINE
  8
0
 62
     0
 10
314.894
 20
2.92695
 30
0.0
 11
314.947
 21
3.25079
 31
0.0
  0
LINE
  8
0
 62
     0
 10
314.947
 20
3.25079
 30
0.0
 11
314.894
 21
3.576
 31
0.0
  0
LINE
  8
0
 62
     0
 10
314.894
 20
3.576
 30
0.0
 11
314.745
 21
3.86814
 31
0.0
  0
LINE
  8
0
 62
     0
 10
314.745
 20
3.86814
 30
0.0
 11
314.514
 21
4.10104
 31
0.0
  0
LINE
  8
0
 62
     0
 10
314.514
 20
4.10104
 30
0.0
 11
314.22
 21
4.24988
 31
0.0
  0
LINE
  8
0
 62
     0
 10
314.22
 20
4.24988
 30
0.0
 11
313.896
 21
4.30085
 31
0.0
  0
LINE
  8
0
 62
     0
 10
313.896
 20
4.30085
 30
0.0
 11
313.571
 21
4.24988
 31
0.0
  0
LINE
  8
0
 62
     0
 10
2.76986
 20
105.501
 30
0.0
 11
2.47771
 21
105.352
 31
0.0
  0
LINE
  8
0
 62
     0
 10
2.47771
 20
105.352
 30
0.0
 11
2.24482
 21
105.12
 31
0.0
  0
LINE
  8
0
 62
     0
 10
2.24482
 20
105.12
 30
0.0
 11
2.096
 21
104.827
 31
0.0
  0
LINE
  8
0
 62
     0
 10
2.096
 20
104.827
 30
0.0
 11
2.04501
 21
104.502
 31
0.0
  0
LINE
  8
0
 62
     0
 10
2.04501
 20
104.502
 30
0.0
 11
2.096
 21
104.178
 31
0.0
  0
LINE
  8
0
 62
     0
 10
2.096
 20
104.178
 30
0.0
 11
2.24482
 21
103.885
 31
0.0
  0
LINE
  8
0
 62
     0
 10
2.24482
 20
103.885
 30
0.0
 11
2.47771
 21
103.653
 31
0.0
  0
LINE
  8
0
 62
     0
 10
2.47771
 20
103.653
 30
0.0
 11
2.76986
 21
103.503
 31
0.0
  0
LINE
  8
0
 62
     0
 10
2.76986
 20
103.503
 30
0.0
 11
3.09507
 21
103.452
 31
0.0
  0
LINE
  8
0
 62
     0
 10
3.09507
 20
103.452
 30
0.0
 11
3.41891
 21
103.503
 31
0.0
  0
LINE
  8
0
 62
     0
 10
3.41891
 20
103.503
 30
0.0
 11
3.71242
 21
103.653
 31
0.0
  0
LINE
  8
0
 62
     0
 10
3.71242
 20
103.653
 30
0.0
 11
3.94395
 21
103.885
 31
0.0
  0
LINE
  8
0
 62
     0
 10
3.94395
 20
103.885
 30
0.0
 11
4.09416
 21
104.178
 31
0.0
  0
LINE
  8
0
 62
     0
 10
4.09416
 20
104.178
 30
0.0
 11
4.14514
 21
104.502
 31
0.0
  0
LINE
  8
0
 62
     0
 10
4.14514
 20
104.502
 30
0.0
 11
4.09416
 21
104.827
 31
0.0
  0
LINE
  8
0
 62
     0
 10
4.09416
 20
104.827
 30
0.0
 11
3.94395
 21
105.12
 31
0.0
  0
LINE
  8
0
 62
     0
 10
3.94395
 20
105.12
 30
0.0
 11
3.71242
 21
105.352
 31
0.0
  0
LINE
  8
0
 62
     0
 10
3.71242
 20
105.352
 30
0.0
 11
3.41891
 21
105.501
 31
0.0
  0
LINE
  8
0
 62
     0
 10
3.41891
 20
105.501
 30
0.0
 11
3.09507
 21
105.552
 31
0.0
  0
LINE
  8
0
 62
     0
 10
3.09507
 20
105.552
 30
0.0
 11
2.76986
 21
105.501
 31
0.0
  0
LINE
  8
0
 62
     0
 10
313.571
 20
105.501
 30
0.0
 11
313.279
 21
105.352
 31
0.0
  0
LINE
  8
0
 62
     0
 10
313.279
 20
105.352
 30
0.0
 11
313.046
 21
105.12
 31
0.0
  0
LINE
  8
0
 62
     0
 10
313.046
 20
105.12
 30
0.0
 11
312.897
 21
104.827
 31
0.0
  0
LINE
  8
0
 62
     0
 10
312.897
 20
104.827
 30
0.0
 11
312.847
 21
104.502
 31
0.0
  0
LINE
  8
0
 62
     0
 10
312.847
 20
104.502
 30
0.0
 11
312.897
 21
104.178
 31
0.0
  0
LINE
  8
0
 62
     0
 10
312.897
 20
104.178
 30
0.0
 11
313.046
 21
103.885
 31
0.0
  0
LINE
  8
0
 62
     0
 10
313.046
 20
103.885
 30
0.0
 11
313.279
 21
103.653
 31
0.0
  0
LINE
  8
0
 62
     0
 10
313.279
 20
103.653
 30
0.0
 11
313.571
 21
103.503
 31
0.0
  0
LINE
  8
0
 62
     0
 10
313.571
 20
103.503
 30
0.0
 11
313.896
 21
103.452
 31
0.0
  0
LINE
  8
0
 62
     0
 10
313.896
 20
103.452
 30
0.0
 11
314.22
 21
103.503
 31
0.0
  0
LINE
  8
0
 62
     0
 10
314.22
 20
103.503
 30
0.0
 11
314.514
 21
103.653
 31
0.0
  0
LINE
  8
0
 62
     0
 10
314.514
 20
103.653
 30
0.0
 11
314.745
 21
103.885
 31
0.0
  0
LINE
  8
0
 62
     0
 10
314.745
 20
103.885
 30
0.0
 11
314.894
 21
104.178
 31
0.0
  0
LINE
  8
0
 62
     0
 10
314.894
 20
104.178
 30
0.0
 11
314.947
 21
104.502
 31
0.0
  0
LINE
  8
0
 62
     0
 10
314.947
 20
104.502
 30
0.0
 11
314.894
 21
104.827
 31
0.0
  0
LINE
  8
0
 62
     0
 10
314.894
 20
104.827
 30
0.0
 11
314.745
 21
105.12
 31
0.0
  0
LINE
  8
0
 62
     0
 10
314.745
 20
105.12
 30
0.0
 11
314.514
 21
105.352
 31
0.0
  0
LINE
  8
0
 62
     0
 10
314.514
 20
105.352
 30
0.0
 11
314.22
 21
105.501
 31
0.0
  0
LINE
  8
0
 62
     0
 10
314.22
 20
105.501
 30
0.0
 11
313.896
 21
105.552
 31
0.0
  0
LINE
  8
0
 62
     0
 10
313.896
 20
105.552
 30
0.0
 11
313.571
 21
105.501
 31
0.0
  0
LINE
  8
0
 62
     0
 10
158.171
 20
105.501
 30
0.0
 11
157.879
 21
105.352
 31
0.0
  0
LINE
  8
0
 62
     0
 10
157.879
 20
105.352
 30
0.0
 11
157.646
 21
105.12
 31
0.0
  0
LINE
  8
0
 62
     0
 10
157.646
 20
105.12
 30
0.0
 11
157.496
 21
104.827
 31
0.0
  0
LINE
  8
0
 62
     0
 10
157.496
 20
104.827
 30
0.0
 11
157.445
 21
104.502
 31
0.0
  0
LINE
  8
0
 62
     0
 10
157.445
 20
104.502
 30
0.0
 11
157.496
 21
104.178
 31
0.0
  0
LINE
  8
0
 62
     0
 10
157.496
 20
104.178
 30
0.0
 11
157.646
 21
103.885
 31
0.0
  0
LINE
  8
0
 62
     0
 10
157.646
 20
103.885
 30
0.0
 11
157.879
 21
103.653
 31
0.0
  0
LINE
  8
0
 62
     0
 10
157.879
 20
103.653
 30
0.0
 11
158.171
 21
103.503
 31
0.0
  0
LINE
  8
0
 62
     0
 10
158.171
 20
103.503
 30
0.0
 11
158.495
 21
103.452
 31
0.0
  0
LINE
  8
0
 62
     0
 10
158.495
 20
103.452
 30
0.0
 11
158.819
 21
103.503
 31
0.0
  0
LINE
  8
0
 62
     0
 10
158.819
 20
103.503
 30
0.0
 11
159.112
 21
103.653
 31
0.0
  0
LINE
  8
0
 62
     0
 10
159.112
 20
103.653
 30
0.0
 11
159.344
 21
103.885
 31
0.0
  0
LINE
  8
0
 62
     0
 10
159.344
 20
103.885
 30
0.0
 11
159.494
 21
104.178
 31
0.0
  0
LINE
  8
0
 62
     0
 10
159.494
 20
104.178
 30
0.0
 11
159.545
 21
104.502
 31
0.0
  0
LINE
  8
0
 62
     0
 10
159.545
 20
104.502
 30
0.0
 11
159.494
 21
104.827
 31
0.0
  0
LINE
  8
0
 62
     0
 10
159.494
 20
104.827
 30
0.0
 11
159.344
 21
105.12
 31
0.0
  0
LINE
  8
0
 62
     0
 10
159.344
 20
105.12
 30
0.0
 11
159.112
 21
105.352
 31
0.0
  0
LINE
  8
0
 62
     0
 10
159.112
 20
105.352
 30
0.0
 11
158.819
 21
105.501
 31
0.0
  0
LINE
  8
0
 62
     0
 10
158.819
 20
105.501
 30
0.0
 11
158.495
 21
105.552
 31
0.0
  0
LINE
  8
0
 62
     0
 10
158.495
 20
105.552
 30
0.0
 11
158.171
 21
105.501
 31
0.0
  0
ENDSEC
  0
EOF
