  0
SECTION
  2
HEADER
  9
$ACADVER
  1
AC1009
  9
$EXTMIN
 10
0.0
 20
0.0
 30
0.0
  9
$EXTMAX
 10
1000.0
 20
1000.0
 30
0.0
  9
$FILLMODE
 70
 0
  9
$SPLFRAME
 70
 1
  0
ENDSEC
  0
SECTION
  2
TABLES
  0
TABLE
  2
LAYER
 70
1
  0
LAYER
  2
0
 70
     0
 62
     7
  6
CONTINUOUS
  0
ENDTAB
  0
ENDSEC
  0
SECTION
  2
ENTITIES
  0
LINE
  8
0
 62
     0
 10
315.047
 20
107.502
 30
0.0
 11
315.203
 21
107.495
 31
0.0
  0
LINE
  8
0
 62
     0
 10
315.203
 20
107.495
 30
0.0
 11
315.359
 21
107.477
 31
0.0
  0
LINE
  8
0
 62
     0
 10
315.359
 20
107.477
 30
0.0
 11
315.513
 21
107.447
 31
0.0
  0
LINE
  8
0
 62
     0
 10
315.513
 20
107.447
 30
0.0
 11
315.664
 21
107.404
 31
0.0
  0
LINE
  8
0
 62
     0
 10
315.664
 20
107.404
 30
0.0
 11
315.812
 21
107.349
 31
0.0
  0
LINE
  8
0
 62
     0
 10
315.812
 20
107.349
 30
0.0
 11
315.954
 21
107.284
 31
0.0
  0
LINE
  8
0
 62
     0
 10
315.954
 20
107.284
 30
0.0
 11
316.09
 21
107.207
 31
0.0
  0
LINE
  8
0
 62
     0
 10
316.09
 20
107.207
 30
0.0
 11
316.221
 21
107.12
 31
0.0
  0
LINE
  8
0
 62
     0
 10
316.221
 20
107.12
 30
0.0
 11
316.344
 21
107.023
 31
0.0
  0
LINE
  8
0
 62
     0
 10
316.344
 20
107.023
 30
0.0
 11
316.461
 21
106.916
 31
0.0
  0
LINE
  8
0
 62
     0
 10
316.461
 20
106.916
 30
0.0
 11
316.567
 21
106.801
 31
0.0
  0
LINE
  8
0
 62
     0
 10
316.567
 20
106.801
 30
0.0
 11
316.665
 21
106.678
 31
0.0
  0
LINE
  8
0
 62
     0
 10
316.665
 20
106.678
 30
0.0
 11
316.752
 21
106.547
 31
0.0
  0
LINE
  8
0
 62
     0
 10
316.752
 20
106.547
 30
0.0
 11
316.829
 21
106.409
 31
0.0
  0
LINE
  8
0
 62
     0
 10
316.829
 20
106.409
 30
0.0
 11
316.894
 21
106.267
 31
0.0
  0
LINE
  8
0
 62
     0
 10
316.894
 20
106.267
 30
0.0
 11
316.949
 21
106.121
 31
0.0
  0
LINE
  8
0
 62
     0
 10
316.949
 20
106.121
 30
0.0
 11
316.99
 21
105.968
 31
0.0
  0
LINE
  8
0
 62
     0
 10
316.99
 20
105.968
 30
0.0
 11
317.022
 21
105.815
 31
0.0
  0
LINE
  8
0
 62
     0
 10
317.022
 20
105.815
 30
0.0
 11
317.04
 21
105.658
 31
0.0
  0
LINE
  8
0
 62
     0
 10
317.04
 20
105.658
 30
0.0
 11
317.047
 21
105.501
 31
0.0
  0
LINE
  8
0
 62
     0
 10
317.047
 20
105.501
 30
0.0
 11
317.047
 21
2.10013
 31
0.0
  0
LINE
  8
0
 62
     0
 10
317.047
 20
2.10013
 30
0.0
 11
317.04
 21
1.94441
 31
0.0
  0
LINE
  8
0
 62
     0
 10
317.04
 20
1.94441
 30
0.0
 11
317.022
 21
1.78869
 31
0.0
  0
LINE
  8
0
 62
     0
 10
317.022
 20
1.78869
 30
0.0
 11
316.99
 21
1.63435
 31
0.0
  0
LINE
  8
0
 62
     0
 10
316.99
 20
1.63435
 30
0.0
 11
316.949
 21
1.48277
 31
0.0
  0
LINE
  8
0
 62
     0
 10
316.949
 20
1.48277
 30
0.0
 11
316.894
 21
1.33532
 31
0.0
  0
LINE
  8
0
 62
     0
 10
316.894
 20
1.33532
 30
0.0
 11
316.829
 21
1.19338
 31
0.0
  0
LINE
  8
0
 62
     0
 10
316.829
 20
1.19338
 30
0.0
 11
316.752
 21
1.05695
 31
0.0
  0
LINE
  8
0
 62
     0
 10
316.752
 20
1.05695
 30
0.0
 11
316.665
 21
0.926042
 31
0.0
  0
LINE
  8
0
 62
     0
 10
316.665
 20
0.926042
 30
0.0
 11
316.567
 21
0.803395
 31
0.0
  0
LINE
  8
0
 62
     0
 10
316.567
 20
0.803395
 30
0.0
 11
316.461
 21
0.686262
 31
0.0
  0
LINE
  8
0
 62
     0
 10
316.461
 20
0.686262
 30
0.0
 11
316.344
 21
0.580154
 31
0.0
  0
LINE
  8
0
 62
     0
 10
316.344
 20
0.580154
 30
0.0
 11
316.221
 21
0.482314
 31
0.0
  0
LINE
  8
0
 62
     0
 10
316.221
 20
0.482314
 30
0.0
 11
316.09
 21
0.395496
 31
0.0
  0
LINE
  8
0
 62
     0
 10
316.09
 20
0.395496
 30
0.0
 11
315.954
 21
0.318327
 31
0.0
  0
LINE
  8
0
 62
     0
 10
315.954
 20
0.318327
 30
0.0
 11
315.812
 21
0.253559
 31
0.0
  0
LINE
  8
0
 62
     0
 10
315.812
 20
0.253559
 30
0.0
 11
315.664
 21
0.198438
 31
0.0
  0
LINE
  8
0
 62
     0
 10
315.664
 20
0.198438
 30
0.0
 11
315.513
 21
0.157097
 31
0.0
  0
LINE
  8
0
 62
     0
 10
315.513
 20
0.157097
 30
0.0
 11
315.359
 21
0.125402
 31
0.0
  0
LINE
  8
0
 62
     0
 10
315.359
 20
0.125402
 30
0.0
 11
315.203
 21
0.107487
 31
0.0
  0
LINE
  8
0
 62
     0
 10
315.203
 20
0.107487
 30
0.0
 11
315.046
 21
0.101975
 31
0.0
  0
LINE
  8
0
 62
     0
 10
315.046
 20
0.101975
 30
0.0
 11
2.096
 21
0.100597
 31
0.0
  0
LINE
  8
0
 62
     0
 10
2.096
 20
0.100597
 30
0.0
 11
1.9389
 21
0.107487
 31
0.0
  0
LINE
  8
0
 62
     0
 10
1.9389
 20
0.107487
 30
0.0
 11
1.7818
 21
0.125402
 31
0.0
  0
LINE
  8
0
 62
     0
 10
1.7818
 20
0.125402
 30
0.0
 11
1.62884
 21
0.157097
 31
0.0
  0
LINE
  8
0
 62
     0
 10
1.62884
 20
0.157097
 30
0.0
 11
1.47588
 21
0.198438
 31
0.0
  0
LINE
  8
0
 62
     0
 10
1.47588
 20
0.198438
 30
0.0
 11
1.32981
 21
0.253559
 31
0.0
  0
LINE
  8
0
 62
     0
 10
1.32981
 20
0.253559
 30
0.0
 11
1.18787
 21
0.318327
 31
0.0
  0
LINE
  8
0
 62
     0
 10
1.18787
 20
0.318327
 30
0.0
 11
1.05006
 21
0.395496
 31
0.0
  0
LINE
  8
0
 62
     0
 10
1.05006
 20
0.395496
 30
0.0
 11
0.919152
 21
0.482314
 31
0.0
  0
LINE
  8
0
 62
     0
 10
0.919152
 20
0.482314
 30
0.0
 11
0.796505
 21
0.580154
 31
0.0
  0
LINE
  8
0
 62
     0
 10
0.796505
 20
0.580154
 30
0.0
 11
0.680752
 21
0.686262
 31
0.0
  0
LINE
  8
0
 62
     0
 10
0.680752
 20
0.686262
 30
0.0
 11
0.574643
 21
0.803395
 31
0.0
  0
LINE
  8
0
 62
     0
 10
0.574643
 20
0.803395
 30
0.0
 11
0.4768
 21
0.926042
 31
0.0
  0
LINE
  8
0
 62
     0
 10
0.4768
 20
0.926042
 30
0.0
 11
0.389985
 21
1.05695
 31
0.0
  0
LINE
  8
0
 62
     0
 10
0.389985
 20
1.05695
 30
0.0
 11
0.312815
 21
1.19338
 31
0.0
  0
LINE
  8
0
 62
     0
 10
0.312815
 20
1.19338
 30
0.0
 11
0.248047
 21
1.33532
 31
0.0
  0
LINE
  8
0
 62
     0
 10
0.248047
 20
1.33532
 30
0.0
 11
0.192925
 21
1.48277
 31
0.0
  0
LINE
  8
0
 62
     0
 10
0.192925
 20
1.48277
 30
0.0
 11
0.150206
 21
1.63435
 31
0.0
  0
LINE
  8
0
 62
     0
 10
0.150206
 20
1.63435
 30
0.0
 11
0.119889
 21
1.78869
 31
0.0
  0
LINE
  8
0
 62
     0
 10
0.119889
 20
1.78869
 30
0.0
 11
0.101975
 21
1.94441
 31
0.0
  0
LINE
  8
0
 62
     0
 10
0.101975
 20
1.94441
 30
0.0
 11
0.0950846
 21
2.10013
 31
0.0
  0
LINE
  8
0
 62
     0
 10
0.0950846
 20
2.10013
 30
0.0
 11
0.0950846
 21
105.501
 31
0.0
  0
LINE
  8
0
 62
     0
 10
0.0950846
 20
105.501
 30
0.0
 11
0.101975
 21
105.658
 31
0.0
  0
LINE
  8
0
 62
     0
 10
0.101975
 20
105.658
 30
0.0
 11
0.119889
 21
105.815
 31
0.0
  0
LINE
  8
0
 62
     0
 10
0.119889
 20
105.815
 30
0.0
 11
0.150206
 21
105.968
 31
0.0
  0
LINE
  8
0
 62
     0
 10
0.150206
 20
105.968
 30
0.0
 11
0.192925
 21
106.121
 31
0.0
  0
LINE
  8
0
 62
     0
 10
0.192925
 20
106.121
 30
0.0
 11
0.248047
 21
106.267
 31
0.0
  0
LINE
  8
0
 62
     0
 10
0.248047
 20
106.267
 30
0.0
 11
0.312815
 21
106.409
 31
0.0
  0
LINE
  8
0
 62
     0
 10
0.312815
 20
106.409
 30
0.0
 11
0.389985
 21
106.547
 31
0.0
  0
LINE
  8
0
 62
     0
 10
0.389985
 20
106.547
 30
0.0
 11
0.4768
 21
106.678
 31
0.0
  0
LINE
  8
0
 62
     0
 10
0.4768
 20
106.678
 30
0.0
 11
0.574643
 21
106.801
 31
0.0
  0
LINE
  8
0
 62
     0
 10
0.574643
 20
106.801
 30
0.0
 11
0.680752
 21
106.916
 31
0.0
  0
LINE
  8
0
 62
     0
 10
0.680752
 20
106.916
 30
0.0
 11
0.796505
 21
107.023
 31
0.0
  0
LINE
  8
0
 62
     0
 10
0.796505
 20
107.023
 30
0.0
 11
0.919152
 21
107.12
 31
0.0
  0
LINE
  8
0
 62
     0
 10
0.919152
 20
107.12
 30
0.0
 11
1.05006
 21
107.207
 31
0.0
  0
LINE
  8
0
 62
     0
 10
1.05006
 20
107.207
 30
0.0
 11
1.18787
 21
107.284
 31
0.0
  0
LINE
  8
0
 62
     0
 10
1.18787
 20
107.284
 30
0.0
 11
1.32981
 21
107.349
 31
0.0
  0
LINE
  8
0
 62
     0
 10
1.32981
 20
107.349
 30
0.0
 11
1.47588
 21
107.404
 31
0.0
  0
LINE
  8
0
 62
     0
 10
1.47588
 20
107.404
 30
0.0
 11
1.62884
 21
107.447
 31
0.0
  0
LINE
  8
0
 62
     0
 10
1.62884
 20
107.447
 30
0.0
 11
1.7818
 21
107.477
 31
0.0
  0
LINE
  8
0
 62
     0
 10
1.7818
 20
107.477
 30
0.0
 11
1.9389
 21
107.495
 31
0.0
  0
LINE
  8
0
 62
     0
 10
1.9389
 20
107.495
 30
0.0
 11
2.096
 21
107.502
 31
0.0
  0
LINE
  8
0
 62
     0
 10
2.096
 20
107.502
 30
0.0
 11
315.047
 21
107.502
 31
0.0
  0
LINE
  8
0
 62
     0
 10
2.86907
 20
4.10379
 30
0.0
 11
2.59623
 21
3.96462
 31
0.0
  0
LINE
  8
0
 62
     0
 10
2.59623
 20
3.96462
 30
0.0
 11
2.38125
 21
3.74964
 31
0.0
  0
LINE
  8
0
 62
     0
 10
2.38125
 20
3.74964
 30
0.0
 11
2.24207
 21
3.47817
 31
0.0
  0
LINE
  8
0
 62
     0
 10
2.24207
 20
3.47817
 30
0.0
 11
2.19384
 21
3.17638
 31
0.0
  0
LINE
  8
0
 62
     0
 10
2.19384
 20
3.17638
 30
0.0
 11
2.24207
 21
2.87459
 31
0.0
  0
LINE
  8
0
 62
     0
 10
2.24207
 20
2.87459
 30
0.0
 11
2.38125
 21
2.60312
 31
0.0
  0
LINE
  8
0
 62
     0
 10
2.38125
 20
2.60312
 30
0.0
 11
2.59623
 21
2.38814
 31
0.0
  0
LINE
  8
0
 62
     0
 10
2.59623
 20
2.38814
 30
0.0
 11
2.86907
 21
2.24896
 31
0.0
  0
LINE
  8
0
 62
     0
 10
2.86907
 20
2.24896
 30
0.0
 11
3.16949
 21
2.20211
 31
0.0
  0
LINE
  8
0
 62
     0
 10
3.16949
 20
2.20211
 30
0.0
 11
3.47128
 21
2.24896
 31
0.0
  0
LINE
  8
0
 62
     0
 10
3.47128
 20
2.24896
 30
0.0
 11
3.74414
 21
2.38814
 31
0.0
  0
LINE
  8
0
 62
     0
 10
3.74414
 20
2.38814
 30
0.0
 11
3.95912
 21
2.60312
 31
0.0
  0
LINE
  8
0
 62
     0
 10
3.95912
 20
2.60312
 30
0.0
 11
4.09691
 21
2.87459
 31
0.0
  0
LINE
  8
0
 62
     0
 10
4.09691
 20
2.87459
 30
0.0
 11
4.14514
 21
3.17638
 31
0.0
  0
LINE
  8
0
 62
     0
 10
4.14514
 20
3.17638
 30
0.0
 11
4.09691
 21
3.47817
 31
0.0
  0
LINE
  8
0
 62
     0
 10
4.09691
 20
3.47817
 30
0.0
 11
3.95912
 21
3.74964
 31
0.0
  0
LINE
  8
0
 62
     0
 10
3.95912
 20
3.74964
 30
0.0
 11
3.74414
 21
3.96462
 31
0.0
  0
LINE
  8
0
 62
     0
 10
3.74414
 20
3.96462
 30
0.0
 11
3.47128
 21
4.10379
 31
0.0
  0
LINE
  8
0
 62
     0
 10
3.47128
 20
4.10379
 30
0.0
 11
3.16949
 21
4.15064
 31
0.0
  0
LINE
  8
0
 62
     0
 10
3.16949
 20
4.15064
 30
0.0
 11
2.86907
 21
4.10379
 31
0.0
  0
LINE
  8
0
 62
     0
 10
158.269
 20
4.10379
 30
0.0
 11
157.998
 21
3.96462
 31
0.0
  0
LINE
  8
0
 62
     0
 10
157.998
 20
3.96462
 30
0.0
 11
157.781
 21
3.74964
 31
0.0
  0
LINE
  8
0
 62
     0
 10
157.781
 20
3.74964
 30
0.0
 11
157.643
 21
3.47817
 31
0.0
  0
LINE
  8
0
 62
     0
 10
157.643
 20
3.47817
 30
0.0
 11
157.595
 21
3.17638
 31
0.0
  0
LINE
  8
0
 62
     0
 10
157.595
 20
3.17638
 30
0.0
 11
157.643
 21
2.87459
 31
0.0
  0
LINE
  8
0
 62
     0
 10
157.643
 20
2.87459
 30
0.0
 11
157.781
 21
2.60312
 31
0.0
  0
LINE
  8
0
 62
     0
 10
157.781
 20
2.60312
 30
0.0
 11
157.998
 21
2.38814
 31
0.0
  0
LINE
  8
0
 62
     0
 10
157.998
 20
2.38814
 30
0.0
 11
158.269
 21
2.24896
 31
0.0
  0
LINE
  8
0
 62
     0
 10
158.269
 20
2.24896
 30
0.0
 11
158.571
 21
2.20211
 31
0.0
  0
LINE
  8
0
 62
     0
 10
158.571
 20
2.20211
 30
0.0
 11
158.871
 21
2.24896
 31
0.0
  0
LINE
  8
0
 62
     0
 10
158.871
 20
2.24896
 30
0.0
 11
159.144
 21
2.38814
 31
0.0
  0
LINE
  8
0
 62
     0
 10
159.144
 20
2.38814
 30
0.0
 11
159.359
 21
2.60312
 31
0.0
  0
LINE
  8
0
 62
     0
 10
159.359
 20
2.60312
 30
0.0
 11
159.497
 21
2.87459
 31
0.0
  0
LINE
  8
0
 62
     0
 10
159.497
 20
2.87459
 30
0.0
 11
159.545
 21
3.17638
 31
0.0
  0
LINE
  8
0
 62
     0
 10
159.545
 20
3.17638
 30
0.0
 11
159.497
 21
3.47817
 31
0.0
  0
LINE
  8
0
 62
     0
 10
159.497
 20
3.47817
 30
0.0
 11
159.359
 21
3.74964
 31
0.0
  0
LINE
  8
0
 62
     0
 10
159.359
 20
3.74964
 30
0.0
 11
159.144
 21
3.96462
 31
0.0
  0
LINE
  8
0
 62
     0
 10
159.144
 20
3.96462
 30
0.0
 11
158.871
 21
4.10379
 31
0.0
  0
LINE
  8
0
 62
     0
 10
158.871
 20
4.10379
 30
0.0
 11
158.571
 21
4.15064
 31
0.0
  0
LINE
  8
0
 62
     0
 10
158.571
 20
4.15064
 30
0.0
 11
158.269
 21
4.10379
 31
0.0
  0
LINE
  8
0
 62
     0
 10
313.669
 20
4.10379
 30
0.0
 11
313.398
 21
3.96462
 31
0.0
  0
LINE
  8
0
 62
     0
 10
313.398
 20
3.96462
 30
0.0
 11
313.183
 21
3.74964
 31
0.0
  0
LINE
  8
0
 62
     0
 10
313.183
 20
3.74964
 30
0.0
 11
313.043
 21
3.47817
 31
0.0
  0
LINE
  8
0
 62
     0
 10
313.043
 20
3.47817
 30
0.0
 11
312.996
 21
3.17638
 31
0.0
  0
LINE
  8
0
 62
     0
 10
312.996
 20
3.17638
 30
0.0
 11
313.043
 21
2.87459
 31
0.0
  0
LINE
  8
0
 62
     0
 10
313.043
 20
2.87459
 30
0.0
 11
313.183
 21
2.60312
 31
0.0
  0
LINE
  8
0
 62
     0
 10
313.183
 20
2.60312
 30
0.0
 11
313.398
 21
2.38814
 31
0.0
  0
LINE
  8
0
 62
     0
 10
313.398
 20
2.38814
 30
0.0
 11
313.669
 21
2.24896
 31
0.0
  0
LINE
  8
0
 62
     0
 10
313.669
 20
2.24896
 30
0.0
 11
313.971
 21
2.20211
 31
0.0
  0
LINE
  8
0
 62
     0
 10
313.971
 20
2.20211
 30
0.0
 11
314.273
 21
2.24896
 31
0.0
  0
LINE
  8
0
 62
     0
 10
314.273
 20
2.24896
 30
0.0
 11
314.544
 21
2.38814
 31
0.0
  0
LINE
  8
0
 62
     0
 10
314.544
 20
2.38814
 30
0.0
 11
314.759
 21
2.60312
 31
0.0
  0
LINE
  8
0
 62
     0
 10
314.759
 20
2.60312
 30
0.0
 11
314.898
 21
2.87459
 31
0.0
  0
LINE
  8
0
 62
     0
 10
314.898
 20
2.87459
 30
0.0
 11
314.947
 21
3.17638
 31
0.0
  0
LINE
  8
0
 62
     0
 10
314.947
 20
3.17638
 30
0.0
 11
314.898
 21
3.47817
 31
0.0
  0
LINE
  8
0
 62
     0
 10
314.898
 20
3.47817
 30
0.0
 11
314.759
 21
3.74964
 31
0.0
  0
LINE
  8
0
 62
     0
 10
314.759
 20
3.74964
 30
0.0
 11
314.544
 21
3.96462
 31
0.0
  0
LINE
  8
0
 62
     0
 10
314.544
 20
3.96462
 30
0.0
 11
314.273
 21
4.10379
 31
0.0
  0
LINE
  8
0
 62
     0
 10
314.273
 20
4.10379
 30
0.0
 11
313.971
 21
4.15064
 31
0.0
  0
LINE
  8
0
 62
     0
 10
313.971
 20
4.15064
 30
0.0
 11
313.669
 21
4.10379
 31
0.0
  0
LINE
  8
0
 62
     0
 10
130.213
 20
22.6274
 30
0.0
 11
130.213
 21
21.6269
 31
0.0
  0
LINE
  8
0
 62
     0
 10
130.213
 20
21.6269
 30
0.0
 11
129.413
 21
21.6269
 31
0.0
  0
LINE
  8
0
 62
     0
 10
129.413
 20
21.6269
 30
0.0
 11
129.413
 21
18.6765
 31
0.0
  0
LINE
  8
0
 62
     0
 10
129.413
 20
18.6765
 30
0.0
 11
130.213
 21
18.6765
 31
0.0
  0
LINE
  8
0
 62
     0
 10
130.213
 20
18.6765
 30
0.0
 11
130.213
 21
17.9269
 31
0.0
  0
LINE
  8
0
 62
     0
 10
130.213
 20
17.9269
 30
0.0
 11
90.4378
 21
17.9269
 31
0.0
  0
LINE
  8
0
 62
     0
 10
90.4378
 20
17.9269
 30
0.0
 11
90.4378
 21
21.157
 31
0.0
  0
LINE
  8
0
 62
     0
 10
90.4378
 20
21.157
 30
0.0
 11
88.7141
 21
21.157
 31
0.0
  0
LINE
  8
0
 62
     0
 10
88.7141
 20
21.157
 30
0.0
 11
88.7141
 21
22.0762
 31
0.0
  0
LINE
  8
0
 62
     0
 10
88.7141
 20
22.0762
 30
0.0
 11
85.5638
 21
22.0762
 31
0.0
  0
LINE
  8
0
 62
     0
 10
85.5638
 20
22.0762
 30
0.0
 11
85.5638
 21
21.157
 31
0.0
  0
LINE
  8
0
 62
     0
 10
85.5638
 20
21.157
 30
0.0
 11
83.8383
 21
21.157
 31
0.0
  0
LINE
  8
0
 62
     0
 10
83.8383
 20
21.157
 30
0.0
 11
83.8383
 21
17.9269
 31
0.0
  0
LINE
  8
0
 62
     0
 10
83.8383
 20
17.9269
 30
0.0
 11
83.0132
 21
17.9269
 31
0.0
  0
LINE
  8
0
 62
     0
 10
83.0132
 20
17.9269
 30
0.0
 11
83.0132
 21
15.2769
 31
0.0
  0
LINE
  8
0
 62
     0
 10
83.0132
 20
15.2769
 30
0.0
 11
83.8383
 21
15.2769
 31
0.0
  0
LINE
  8
0
 62
     0
 10
83.8383
 20
15.2769
 30
0.0
 11
83.8383
 21
9.00825
 31
0.0
  0
LINE
  8
0
 62
     0
 10
83.8383
 20
9.00825
 30
0.0
 11
85.5638
 21
9.00825
 31
0.0
  0
LINE
  8
0
 62
     0
 10
85.5638
 20
9.00825
 30
0.0
 11
85.5638
 21
8.02707
 31
0.0
  0
LINE
  8
0
 62
     0
 10
85.5638
 20
8.02707
 30
0.0
 11
88.7141
 21
8.02707
 31
0.0
  0
LINE
  8
0
 62
     0
 10
88.7141
 20
8.02707
 30
0.0
 11
88.7141
 21
9.00825
 31
0.0
  0
LINE
  8
0
 62
     0
 10
88.7141
 20
9.00825
 30
0.0
 11
90.4378
 21
9.00825
 31
0.0
  0
LINE
  8
0
 62
     0
 10
90.4378
 20
9.00825
 30
0.0
 11
90.4378
 21
13.4772
 31
0.0
  0
LINE
  8
0
 62
     0
 10
90.4378
 20
13.4772
 30
0.0
 11
130.213
 21
13.4772
 31
0.0
  0
LINE
  8
0
 62
     0
 10
130.213
 20
13.4772
 30
0.0
 11
130.213
 21
12.7276
 31
0.0
  0
LINE
  8
0
 62
     0
 10
130.213
 20
12.7276
 30
0.0
 11
129.413
 21
12.7276
 31
0.0
  0
LINE
  8
0
 62
     0
 10
129.413
 20
12.7276
 30
0.0
 11
129.413
 21
9.77717
 31
0.0
  0
LINE
  8
0
 62
     0
 10
129.413
 20
9.77717
 30
0.0
 11
130.213
 21
9.77717
 31
0.0
  0
LINE
  8
0
 62
     0
 10
130.213
 20
9.77717
 30
0.0
 11
130.213
 21
8.77672
 31
0.0
  0
LINE
  8
0
 62
     0
 10
130.213
 20
8.77672
 30
0.0
 11
144.063
 21
8.77672
 31
0.0
  0
LINE
  8
0
 62
     0
 10
144.063
 20
8.77672
 30
0.0
 11
144.063
 21
9.77717
 31
0.0
  0
LINE
  8
0
 62
     0
 10
144.063
 20
9.77717
 30
0.0
 11
144.864
 21
9.77717
 31
0.0
  0
LINE
  8
0
 62
     0
 10
144.864
 20
9.77717
 30
0.0
 11
144.864
 21
12.7276
 31
0.0
  0
LINE
  8
0
 62
     0
 10
144.864
 20
12.7276
 30
0.0
 11
144.063
 21
12.7276
 31
0.0
  0
LINE
  8
0
 62
     0
 10
144.063
 20
12.7276
 30
0.0
 11
144.063
 21
13.4772
 31
0.0
  0
LINE
  8
0
 62
     0
 10
144.063
 20
13.4772
 30
0.0
 11
183.838
 21
13.4772
 31
0.0
  0
LINE
  8
0
 62
     0
 10
183.838
 20
13.4772
 30
0.0
 11
183.838
 21
9.00825
 31
0.0
  0
LINE
  8
0
 62
     0
 10
183.838
 20
9.00825
 30
0.0
 11
185.564
 21
9.00825
 31
0.0
  0
LINE
  8
0
 62
     0
 10
185.564
 20
9.00825
 30
0.0
 11
185.564
 21
8.02707
 31
0.0
  0
LINE
  8
0
 62
     0
 10
185.564
 20
8.02707
 30
0.0
 11
188.714
 21
8.02707
 31
0.0
  0
LINE
  8
0
 62
     0
 10
188.714
 20
8.02707
 30
0.0
 11
188.714
 21
9.00825
 31
0.0
  0
LINE
  8
0
 62
     0
 10
188.714
 20
9.00825
 30
0.0
 11
190.438
 21
9.00825
 31
0.0
  0
LINE
  8
0
 62
     0
 10
190.438
 20
9.00825
 30
0.0
 11
190.438
 21
15.2769
 31
0.0
  0
LINE
  8
0
 62
     0
 10
190.438
 20
15.2769
 30
0.0
 11
191.263
 21
15.2769
 31
0.0
  0
LINE
  8
0
 62
     0
 10
191.263
 20
15.2769
 30
0.0
 11
191.263
 21
17.9269
 31
0.0
  0
LINE
  8
0
 62
     0
 10
191.263
 20
17.9269
 30
0.0
 11
190.438
 21
17.9269
 31
0.0
  0
LINE
  8
0
 62
     0
 10
190.438
 20
17.9269
 30
0.0
 11
190.438
 21
21.157
 31
0.0
  0
LINE
  8
0
 62
     0
 10
190.438
 20
21.157
 30
0.0
 11
188.714
 21
21.157
 31
0.0
  0
LINE
  8
0
 62
     0
 10
188.714
 20
21.157
 30
0.0
 11
188.714
 21
22.0762
 31
0.0
  0
LINE
  8
0
 62
     0
 10
188.714
 20
22.0762
 30
0.0
 11
185.564
 21
22.0762
 31
0.0
  0
LINE
  8
0
 62
     0
 10
185.564
 20
22.0762
 30
0.0
 11
185.564
 21
21.157
 31
0.0
  0
LINE
  8
0
 62
     0
 10
185.564
 20
21.157
 30
0.0
 11
183.838
 21
21.157
 31
0.0
  0
LINE
  8
0
 62
     0
 10
183.838
 20
21.157
 30
0.0
 11
183.838
 21
17.9269
 31
0.0
  0
LINE
  8
0
 62
     0
 10
183.838
 20
17.9269
 30
0.0
 11
144.063
 21
17.9269
 31
0.0
  0
LINE
  8
0
 62
     0
 10
144.063
 20
17.9269
 30
0.0
 11
144.063
 21
18.6765
 31
0.0
  0
LINE
  8
0
 62
     0
 10
144.063
 20
18.6765
 30
0.0
 11
144.864
 21
18.6765
 31
0.0
  0
LINE
  8
0
 62
     0
 10
144.864
 20
18.6765
 30
0.0
 11
144.864
 21
21.6269
 31
0.0
  0
LINE
  8
0
 62
     0
 10
144.864
 20
21.6269
 30
0.0
 11
144.063
 21
21.6269
 31
0.0
  0
LINE
  8
0
 62
     0
 10
144.063
 20
21.6269
 30
0.0
 11
144.063
 21
22.6274
 31
0.0
  0
LINE
  8
0
 62
     0
 10
144.063
 20
22.6274
 30
0.0
 11
130.213
 21
22.6274
 31
0.0
  0
LINE
  8
0
 62
     0
 10
294.52
 20
22.6274
 30
0.0
 11
294.52
 21
21.6269
 31
0.0
  0
LINE
  8
0
 62
     0
 10
294.52
 20
21.6269
 30
0.0
 11
293.721
 21
21.6269
 31
0.0
  0
LINE
  8
0
 62
     0
 10
293.721
 20
21.6269
 30
0.0
 11
293.721
 21
18.6765
 31
0.0
  0
LINE
  8
0
 62
     0
 10
293.721
 20
18.6765
 30
0.0
 11
294.52
 21
18.6765
 31
0.0
  0
LINE
  8
0
 62
     0
 10
294.52
 20
18.6765
 30
0.0
 11
294.52
 21
12.7276
 31
0.0
  0
LINE
  8
0
 62
     0
 10
294.52
 20
12.7276
 30
0.0
 11
293.721
 21
12.7276
 31
0.0
  0
LINE
  8
0
 62
     0
 10
293.721
 20
12.7276
 30
0.0
 11
293.721
 21
9.77717
 31
0.0
  0
LINE
  8
0
 62
     0
 10
293.721
 20
9.77717
 30
0.0
 11
294.52
 21
9.77717
 31
0.0
  0
LINE
  8
0
 62
     0
 10
294.52
 20
9.77717
 30
0.0
 11
294.52
 21
8.77672
 31
0.0
  0
LINE
  8
0
 62
     0
 10
294.52
 20
8.77672
 30
0.0
 11
308.37
 21
8.77672
 31
0.0
  0
LINE
  8
0
 62
     0
 10
308.37
 20
8.77672
 30
0.0
 11
308.37
 21
9.77717
 31
0.0
  0
LINE
  8
0
 62
     0
 10
308.37
 20
9.77717
 30
0.0
 11
309.171
 21
9.77717
 31
0.0
  0
LINE
  8
0
 62
     0
 10
309.171
 20
9.77717
 30
0.0
 11
309.171
 21
12.7276
 31
0.0
  0
LINE
  8
0
 62
     0
 10
309.171
 20
12.7276
 30
0.0
 11
308.37
 21
12.7276
 31
0.0
  0
LINE
  8
0
 62
     0
 10
308.37
 20
12.7276
 30
0.0
 11
308.37
 21
18.6765
 31
0.0
  0
LINE
  8
0
 62
     0
 10
308.37
 20
18.6765
 30
0.0
 11
309.171
 21
18.6765
 31
0.0
  0
LINE
  8
0
 62
     0
 10
309.171
 20
18.6765
 30
0.0
 11
309.171
 21
21.6269
 31
0.0
  0
LINE
  8
0
 62
     0
 10
309.171
 20
21.6269
 30
0.0
 11
308.37
 21
21.6269
 31
0.0
  0
LINE
  8
0
 62
     0
 10
308.37
 20
21.6269
 30
0.0
 11
308.37
 21
22.6274
 31
0.0
  0
LINE
  8
0
 62
     0
 10
308.37
 20
22.6274
 30
0.0
 11
294.52
 21
22.6274
 31
0.0
  0
LINE
  8
0
 62
     0
 10
275.47
 20
22.6274
 30
0.0
 11
275.47
 21
21.6269
 31
0.0
  0
LINE
  8
0
 62
     0
 10
275.47
 20
21.6269
 30
0.0
 11
274.671
 21
21.6269
 31
0.0
  0
LINE
  8
0
 62
     0
 10
274.671
 20
21.6269
 30
0.0
 11
274.671
 21
18.6765
 31
0.0
  0
LINE
  8
0
 62
     0
 10
274.671
 20
18.6765
 30
0.0
 11
275.47
 21
18.6765
 31
0.0
  0
LINE
  8
0
 62
     0
 10
275.47
 20
18.6765
 30
0.0
 11
275.47
 21
12.7276
 31
0.0
  0
LINE
  8
0
 62
     0
 10
275.47
 20
12.7276
 30
0.0
 11
274.671
 21
12.7276
 31
0.0
  0
LINE
  8
0
 62
     0
 10
274.671
 20
12.7276
 30
0.0
 11
274.671
 21
9.77717
 31
0.0
  0
LINE
  8
0
 62
     0
 10
274.671
 20
9.77717
 30
0.0
 11
275.47
 21
9.77717
 31
0.0
  0
LINE
  8
0
 62
     0
 10
275.47
 20
9.77717
 30
0.0
 11
275.47
 21
8.77672
 31
0.0
  0
LINE
  8
0
 62
     0
 10
275.47
 20
8.77672
 30
0.0
 11
289.32
 21
8.77672
 31
0.0
  0
LINE
  8
0
 62
     0
 10
289.32
 20
8.77672
 30
0.0
 11
289.32
 21
9.77717
 31
0.0
  0
LINE
  8
0
 62
     0
 10
289.32
 20
9.77717
 30
0.0
 11
290.121
 21
9.77717
 31
0.0
  0
LINE
  8
0
 62
     0
 10
290.121
 20
9.77717
 30
0.0
 11
290.121
 21
12.7276
 31
0.0
  0
LINE
  8
0
 62
     0
 10
290.121
 20
12.7276
 30
0.0
 11
289.32
 21
12.7276
 31
0.0
  0
LINE
  8
0
 62
     0
 10
289.32
 20
12.7276
 30
0.0
 11
289.32
 21
18.6765
 31
0.0
  0
LINE
  8
0
 62
     0
 10
289.32
 20
18.6765
 30
0.0
 11
290.121
 21
18.6765
 31
0.0
  0
LINE
  8
0
 62
     0
 10
290.121
 20
18.6765
 30
0.0
 11
290.121
 21
21.6269
 31
0.0
  0
LINE
  8
0
 62
     0
 10
290.121
 20
21.6269
 30
0.0
 11
289.32
 21
21.6269
 31
0.0
  0
LINE
  8
0
 62
     0
 10
289.32
 20
21.6269
 30
0.0
 11
289.32
 21
22.6274
 31
0.0
  0
LINE
  8
0
 62
     0
 10
289.32
 20
22.6274
 30
0.0
 11
275.47
 21
22.6274
 31
0.0
  0
LINE
  8
0
 62
     0
 10
256.42
 20
22.6274
 30
0.0
 11
256.42
 21
21.6269
 31
0.0
  0
LINE
  8
0
 62
     0
 10
256.42
 20
21.6269
 30
0.0
 11
255.619
 21
21.6269
 31
0.0
  0
LINE
  8
0
 62
     0
 10
255.619
 20
21.6269
 30
0.0
 11
255.619
 21
18.6765
 31
0.0
  0
LINE
  8
0
 62
     0
 10
255.619
 20
18.6765
 30
0.0
 11
256.42
 21
18.6765
 31
0.0
  0
LINE
  8
0
 62
     0
 10
256.42
 20
18.6765
 30
0.0
 11
256.42
 21
12.7276
 31
0.0
  0
LINE
  8
0
 62
     0
 10
256.42
 20
12.7276
 30
0.0
 11
255.619
 21
12.7276
 31
0.0
  0
LINE
  8
0
 62
     0
 10
255.619
 20
12.7276
 30
0.0
 11
255.619
 21
9.77717
 31
0.0
  0
LINE
  8
0
 62
     0
 10
255.619
 20
9.77717
 30
0.0
 11
256.42
 21
9.77717
 31
0.0
  0
LINE
  8
0
 62
     0
 10
256.42
 20
9.77717
 30
0.0
 11
256.42
 21
8.77672
 31
0.0
  0
LINE
  8
0
 62
     0
 10
256.42
 20
8.77672
 30
0.0
 11
270.27
 21
8.77672
 31
0.0
  0
LINE
  8
0
 62
     0
 10
270.27
 20
8.77672
 30
0.0
 11
270.27
 21
9.77717
 31
0.0
  0
LINE
  8
0
 62
     0
 10
270.27
 20
9.77717
 30
0.0
 11
271.071
 21
9.77717
 31
0.0
  0
LINE
  8
0
 62
     0
 10
271.071
 20
9.77717
 30
0.0
 11
271.071
 21
12.7276
 31
0.0
  0
LINE
  8
0
 62
     0
 10
271.071
 20
12.7276
 30
0.0
 11
270.27
 21
12.7276
 31
0.0
  0
LINE
  8
0
 62
     0
 10
270.27
 20
12.7276
 30
0.0
 11
270.27
 21
18.6765
 31
0.0
  0
LINE
  8
0
 62
     0
 10
270.27
 20
18.6765
 30
0.0
 11
271.071
 21
18.6765
 31
0.0
  0
LINE
  8
0
 62
     0
 10
271.071
 20
18.6765
 30
0.0
 11
271.071
 21
21.6269
 31
0.0
  0
LINE
  8
0
 62
     0
 10
271.071
 20
21.6269
 30
0.0
 11
270.27
 21
21.6269
 31
0.0
  0
LINE
  8
0
 62
     0
 10
270.27
 20
21.6269
 30
0.0
 11
270.27
 21
22.6274
 31
0.0
  0
LINE
  8
0
 62
     0
 10
270.27
 20
22.6274
 30
0.0
 11
256.42
 21
22.6274
 31
0.0
  0
LINE
  8
0
 62
     0
 10
225.463
 20
22.6274
 30
0.0
 11
225.463
 21
21.6269
 31
0.0
  0
LINE
  8
0
 62
     0
 10
225.463
 20
21.6269
 30
0.0
 11
224.663
 21
21.6269
 31
0.0
  0
LINE
  8
0
 62
     0
 10
224.663
 20
21.6269
 30
0.0
 11
224.663
 21
18.6765
 31
0.0
  0
LINE
  8
0
 62
     0
 10
224.663
 20
18.6765
 30
0.0
 11
225.463
 21
18.6765
 31
0.0
  0
LINE
  8
0
 62
     0
 10
225.463
 20
18.6765
 30
0.0
 11
225.463
 21
12.7276
 31
0.0
  0
LINE
  8
0
 62
     0
 10
225.463
 20
12.7276
 30
0.0
 11
224.663
 21
12.7276
 31
0.0
  0
LINE
  8
0
 62
     0
 10
224.663
 20
12.7276
 30
0.0
 11
224.663
 21
9.77717
 31
0.0
  0
LINE
  8
0
 62
     0
 10
224.663
 20
9.77717
 30
0.0
 11
225.463
 21
9.77717
 31
0.0
  0
LINE
  8
0
 62
     0
 10
225.463
 20
9.77717
 30
0.0
 11
225.463
 21
8.77672
 31
0.0
  0
LINE
  8
0
 62
     0
 10
225.463
 20
8.77672
 30
0.0
 11
239.313
 21
8.77672
 31
0.0
  0
LINE
  8
0
 62
     0
 10
239.313
 20
8.77672
 30
0.0
 11
239.313
 21
9.77717
 31
0.0
  0
LINE
  8
0
 62
     0
 10
239.313
 20
9.77717
 30
0.0
 11
240.114
 21
9.77717
 31
0.0
  0
LINE
  8
0
 62
     0
 10
240.114
 20
9.77717
 30
0.0
 11
240.114
 21
12.7276
 31
0.0
  0
LINE
  8
0
 62
     0
 10
240.114
 20
12.7276
 30
0.0
 11
239.313
 21
12.7276
 31
0.0
  0
LINE
  8
0
 62
     0
 10
239.313
 20
12.7276
 30
0.0
 11
239.313
 21
18.6765
 31
0.0
  0
LINE
  8
0
 62
     0
 10
239.313
 20
18.6765
 30
0.0
 11
240.114
 21
18.6765
 31
0.0
  0
LINE
  8
0
 62
     0
 10
240.114
 20
18.6765
 30
0.0
 11
240.114
 21
21.6269
 31
0.0
  0
LINE
  8
0
 62
     0
 10
240.114
 20
21.6269
 30
0.0
 11
239.313
 21
21.6269
 31
0.0
  0
LINE
  8
0
 62
     0
 10
239.313
 20
21.6269
 30
0.0
 11
239.313
 21
22.6274
 31
0.0
  0
LINE
  8
0
 62
     0
 10
239.313
 20
22.6274
 30
0.0
 11
225.463
 21
22.6274
 31
0.0
  0
LINE
  8
0
 62
     0
 10
201.651
 20
22.6274
 30
0.0
 11
201.651
 21
21.6269
 31
0.0
  0
LINE
  8
0
 62
     0
 10
201.651
 20
21.6269
 30
0.0
 11
200.852
 21
21.6269
 31
0.0
  0
LINE
  8
0
 62
     0
 10
200.852
 20
21.6269
 30
0.0
 11
200.852
 21
18.6765
 31
0.0
  0
LINE
  8
0
 62
     0
 10
200.852
 20
18.6765
 30
0.0
 11
201.651
 21
18.6765
 31
0.0
  0
LINE
  8
0
 62
     0
 10
201.651
 20
18.6765
 30
0.0
 11
201.651
 21
12.7276
 31
0.0
  0
LINE
  8
0
 62
     0
 10
201.651
 20
12.7276
 30
0.0
 11
200.852
 21
12.7276
 31
0.0
  0
LINE
  8
0
 62
     0
 10
200.852
 20
12.7276
 30
0.0
 11
200.852
 21
9.77717
 31
0.0
  0
LINE
  8
0
 62
     0
 10
200.852
 20
9.77717
 30
0.0
 11
201.651
 21
9.77717
 31
0.0
  0
LINE
  8
0
 62
     0
 10
201.651
 20
9.77717
 30
0.0
 11
201.651
 21
8.77672
 31
0.0
  0
LINE
  8
0
 62
     0
 10
201.651
 20
8.77672
 30
0.0
 11
215.502
 21
8.77672
 31
0.0
  0
LINE
  8
0
 62
     0
 10
215.502
 20
8.77672
 30
0.0
 11
215.502
 21
9.77717
 31
0.0
  0
LINE
  8
0
 62
     0
 10
215.502
 20
9.77717
 30
0.0
 11
216.301
 21
9.77717
 31
0.0
  0
LINE
  8
0
 62
     0
 10
216.301
 20
9.77717
 30
0.0
 11
216.301
 21
12.7276
 31
0.0
  0
LINE
  8
0
 62
     0
 10
216.301
 20
12.7276
 30
0.0
 11
215.502
 21
12.7276
 31
0.0
  0
LINE
  8
0
 62
     0
 10
215.502
 20
12.7276
 30
0.0
 11
215.502
 21
18.6765
 31
0.0
  0
LINE
  8
0
 62
     0
 10
215.502
 20
18.6765
 30
0.0
 11
216.301
 21
18.6765
 31
0.0
  0
LINE
  8
0
 62
     0
 10
216.301
 20
18.6765
 30
0.0
 11
216.301
 21
21.6269
 31
0.0
  0
LINE
  8
0
 62
     0
 10
216.301
 20
21.6269
 30
0.0
 11
215.502
 21
21.6269
 31
0.0
  0
LINE
  8
0
 62
     0
 10
215.502
 20
21.6269
 30
0.0
 11
215.502
 21
22.6274
 31
0.0
  0
LINE
  8
0
 62
     0
 10
215.502
 20
22.6274
 30
0.0
 11
201.651
 21
22.6274
 31
0.0
  0
LINE
  8
0
 62
     0
 10
58.776
 20
22.6274
 30
0.0
 11
58.776
 21
21.6269
 31
0.0
  0
LINE
  8
0
 62
     0
 10
58.776
 20
21.6269
 30
0.0
 11
57.9769
 21
21.6269
 31
0.0
  0
LINE
  8
0
 62
     0
 10
57.9769
 20
21.6269
 30
0.0
 11
57.9769
 21
18.6765
 31
0.0
  0
LINE
  8
0
 62
     0
 10
57.9769
 20
18.6765
 30
0.0
 11
58.776
 21
18.6765
 31
0.0
  0
LINE
  8
0
 62
     0
 10
58.776
 20
18.6765
 30
0.0
 11
58.776
 21
12.7276
 31
0.0
  0
LINE
  8
0
 62
     0
 10
58.776
 20
12.7276
 30
0.0
 11
57.9769
 21
12.7276
 31
0.0
  0
LINE
  8
0
 62
     0
 10
57.9769
 20
12.7276
 30
0.0
 11
57.9769
 21
9.77717
 31
0.0
  0
LINE
  8
0
 62
     0
 10
57.9769
 20
9.77717
 30
0.0
 11
58.776
 21
9.77717
 31
0.0
  0
LINE
  8
0
 62
     0
 10
58.776
 20
9.77717
 30
0.0
 11
58.776
 21
8.77672
 31
0.0
  0
LINE
  8
0
 62
     0
 10
58.776
 20
8.77672
 30
0.0
 11
72.6267
 21
8.77672
 31
0.0
  0
LINE
  8
0
 62
     0
 10
72.6267
 20
8.77672
 30
0.0
 11
72.6267
 21
9.77717
 31
0.0
  0
LINE
  8
0
 62
     0
 10
72.6267
 20
9.77717
 30
0.0
 11
73.4261
 21
9.77717
 31
0.0
  0
LINE
  8
0
 62
     0
 10
73.4261
 20
9.77717
 30
0.0
 11
73.4261
 21
12.7276
 31
0.0
  0
LINE
  8
0
 62
     0
 10
73.4261
 20
12.7276
 30
0.0
 11
72.6267
 21
12.7276
 31
0.0
  0
LINE
  8
0
 62
     0
 10
72.6267
 20
12.7276
 30
0.0
 11
72.6267
 21
18.6765
 31
0.0
  0
LINE
  8
0
 62
     0
 10
72.6267
 20
18.6765
 30
0.0
 11
73.4261
 21
18.6765
 31
0.0
  0
LINE
  8
0
 62
     0
 10
73.4261
 20
18.6765
 30
0.0
 11
73.4261
 21
21.6269
 31
0.0
  0
LINE
  8
0
 62
     0
 10
73.4261
 20
21.6269
 30
0.0
 11
72.6267
 21
21.6269
 31
0.0
  0
LINE
  8
0
 62
     0
 10
72.6267
 20
21.6269
 30
0.0
 11
72.6267
 21
22.6274
 31
0.0
  0
LINE
  8
0
 62
     0
 10
72.6267
 20
22.6274
 30
0.0
 11
58.776
 21
22.6274
 31
0.0
  0
LINE
  8
0
 62
     0
 10
34.9636
 20
22.6274
 30
0.0
 11
34.9636
 21
21.6269
 31
0.0
  0
LINE
  8
0
 62
     0
 10
34.9636
 20
21.6269
 30
0.0
 11
34.1629
 21
21.6269
 31
0.0
  0
LINE
  8
0
 62
     0
 10
34.1629
 20
21.6269
 30
0.0
 11
34.1629
 21
18.6765
 31
0.0
  0
LINE
  8
0
 62
     0
 10
34.1629
 20
18.6765
 30
0.0
 11
34.9636
 21
18.6765
 31
0.0
  0
LINE
  8
0
 62
     0
 10
34.9636
 20
18.6765
 30
0.0
 11
34.9636
 21
12.7276
 31
0.0
  0
LINE
  8
0
 62
     0
 10
34.9636
 20
12.7276
 30
0.0
 11
34.1629
 21
12.7276
 31
0.0
  0
LINE
  8
0
 62
     0
 10
34.1629
 20
12.7276
 30
0.0
 11
34.1629
 21
9.77717
 31
0.0
  0
LINE
  8
0
 62
     0
 10
34.1629
 20
9.77717
 30
0.0
 11
34.9636
 21
9.77717
 31
0.0
  0
LINE
  8
0
 62
     0
 10
34.9636
 20
9.77717
 30
0.0
 11
34.9636
 21
8.77672
 31
0.0
  0
LINE
  8
0
 62
     0
 10
34.9636
 20
8.77672
 30
0.0
 11
48.8128
 21
8.77672
 31
0.0
  0
LINE
  8
0
 62
     0
 10
48.8128
 20
8.77672
 30
0.0
 11
48.8128
 21
9.77717
 31
0.0
  0
LINE
  8
0
 62
     0
 10
48.8128
 20
9.77717
 30
0.0
 11
49.6136
 21
9.77717
 31
0.0
  0
LINE
  8
0
 62
     0
 10
49.6136
 20
9.77717
 30
0.0
 11
49.6136
 21
12.7276
 31
0.0
  0
LINE
  8
0
 62
     0
 10
49.6136
 20
12.7276
 30
0.0
 11
48.8128
 21
12.7276
 31
0.0
  0
LINE
  8
0
 62
     0
 10
48.8128
 20
12.7276
 30
0.0
 11
48.8128
 21
18.6765
 31
0.0
  0
LINE
  8
0
 62
     0
 10
48.8128
 20
18.6765
 30
0.0
 11
49.6136
 21
18.6765
 31
0.0
  0
LINE
  8
0
 62
     0
 10
49.6136
 20
18.6765
 30
0.0
 11
49.6136
 21
21.6269
 31
0.0
  0
LINE
  8
0
 62
     0
 10
49.6136
 20
21.6269
 30
0.0
 11
48.8128
 21
21.6269
 31
0.0
  0
LINE
  8
0
 62
     0
 10
48.8128
 20
21.6269
 30
0.0
 11
48.8128
 21
22.6274
 31
0.0
  0
LINE
  8
0
 62
     0
 10
48.8128
 20
22.6274
 30
0.0
 11
34.9636
 21
22.6274
 31
0.0
  0
LINE
  8
0
 62
     0
 10
11.1511
 20
22.6274
 30
0.0
 11
11.1511
 21
21.6269
 31
0.0
  0
LINE
  8
0
 62
     0
 10
11.1511
 20
21.6269
 30
0.0
 11
10.3518
 21
21.6269
 31
0.0
  0
LINE
  8
0
 62
     0
 10
10.3518
 20
21.6269
 30
0.0
 11
10.3518
 21
18.6765
 31
0.0
  0
LINE
  8
0
 62
     0
 10
10.3518
 20
18.6765
 30
0.0
 11
11.1511
 21
18.6765
 31
0.0
  0
LINE
  8
0
 62
     0
 10
11.1511
 20
18.6765
 30
0.0
 11
11.1511
 21
12.7276
 31
0.0
  0
LINE
  8
0
 62
     0
 10
11.1511
 20
12.7276
 30
0.0
 11
10.3518
 21
12.7276
 31
0.0
  0
LINE
  8
0
 62
     0
 10
10.3518
 20
12.7276
 30
0.0
 11
10.3518
 21
9.77717
 31
0.0
  0
LINE
  8
0
 62
     0
 10
10.3518
 20
9.77717
 30
0.0
 11
11.1511
 21
9.77717
 31
0.0
  0
LINE
  8
0
 62
     0
 10
11.1511
 20
9.77717
 30
0.0
 11
11.1511
 21
8.77672
 31
0.0
  0
LINE
  8
0
 62
     0
 10
11.1511
 20
8.77672
 30
0.0
 11
25.0017
 21
8.77672
 31
0.0
  0
LINE
  8
0
 62
     0
 10
25.0017
 20
8.77672
 30
0.0
 11
25.0017
 21
9.77717
 31
0.0
  0
LINE
  8
0
 62
     0
 10
25.0017
 20
9.77717
 30
0.0
 11
25.801
 21
9.77717
 31
0.0
  0
LINE
  8
0
 62
     0
 10
25.801
 20
9.77717
 30
0.0
 11
25.801
 21
12.7276
 31
0.0
  0
LINE
  8
0
 62
     0
 10
25.801
 20
12.7276
 30
0.0
 11
25.0017
 21
12.7276
 31
0.0
  0
LINE
  8
0
 62
     0
 10
25.0017
 20
12.7276
 30
0.0
 11
25.0017
 21
18.6765
 31
0.0
  0
LINE
  8
0
 62
     0
 10
25.0017
 20
18.6765
 30
0.0
 11
25.801
 21
18.6765
 31
0.0
  0
LINE
  8
0
 62
     0
 10
25.801
 20
18.6765
 30
0.0
 11
25.801
 21
21.6269
 31
0.0
  0
LINE
  8
0
 62
     0
 10
25.801
 20
21.6269
 30
0.0
 11
25.0017
 21
21.6269
 31
0.0
  0
LINE
  8
0
 62
     0
 10
25.0017
 20
21.6269
 30
0.0
 11
25.0017
 21
22.6274
 31
0.0
  0
LINE
  8
0
 62
     0
 10
25.0017
 20
22.6274
 30
0.0
 11
11.1511
 21
22.6274
 31
0.0
  0
LINE
  8
0
 62
     0
 10
20.6761
 20
41.6775
 30
0.0
 11
20.6761
 21
40.677
 31
0.0
  0
LINE
  8
0
 62
     0
 10
20.6761
 20
40.677
 30
0.0
 11
19.8768
 21
40.677
 31
0.0
  0
LINE
  8
0
 62
     0
 10
19.8768
 20
40.677
 30
0.0
 11
19.8768
 21
37.7264
 31
0.0
  0
LINE
  8
0
 62
     0
 10
19.8768
 20
37.7264
 30
0.0
 11
20.6761
 21
37.7264
 31
0.0
  0
LINE
  8
0
 62
     0
 10
20.6761
 20
37.7264
 30
0.0
 11
20.6761
 21
36.9768
 31
0.0
  0
LINE
  8
0
 62
     0
 10
20.6761
 20
36.9768
 30
0.0
 11
19.0018
 21
36.9768
 31
0.0
  0
LINE
  8
0
 62
     0
 10
19.0018
 20
36.9768
 30
0.0
 11
19.0018
 21
40.2071
 31
0.0
  0
LINE
  8
0
 62
     0
 10
19.0018
 20
40.2071
 30
0.0
 11
17.2765
 21
40.2071
 31
0.0
  0
LINE
  8
0
 62
     0
 10
17.2765
 20
40.2071
 30
0.0
 11
17.2765
 21
41.1261
 31
0.0
  0
LINE
  8
0
 62
     0
 10
17.2765
 20
41.1261
 30
0.0
 11
14.1263
 21
41.1261
 31
0.0
  0
LINE
  8
0
 62
     0
 10
14.1263
 20
41.1261
 30
0.0
 11
14.1263
 21
40.2071
 31
0.0
  0
LINE
  8
0
 62
     0
 10
14.1263
 20
40.2071
 30
0.0
 11
12.401
 21
40.2071
 31
0.0
  0
LINE
  8
0
 62
     0
 10
12.401
 20
40.2071
 30
0.0
 11
12.401
 21
36.9768
 31
0.0
  0
LINE
  8
0
 62
     0
 10
12.401
 20
36.9768
 30
0.0
 11
11.5769
 21
36.9768
 31
0.0
  0
LINE
  8
0
 62
     0
 10
11.5769
 20
36.9768
 30
0.0
 11
11.5769
 21
34.3269
 31
0.0
  0
LINE
  8
0
 62
     0
 10
11.5769
 20
34.3269
 30
0.0
 11
12.401
 21
34.3269
 31
0.0
  0
LINE
  8
0
 62
     0
 10
12.401
 20
34.3269
 30
0.0
 11
12.401
 21
28.0569
 31
0.0
  0
LINE
  8
0
 62
     0
 10
12.401
 20
28.0569
 30
0.0
 11
14.1263
 21
28.0569
 31
0.0
  0
LINE
  8
0
 62
     0
 10
14.1263
 20
28.0569
 30
0.0
 11
14.1263
 21
27.0771
 31
0.0
  0
LINE
  8
0
 62
     0
 10
14.1263
 20
27.0771
 30
0.0
 11
17.2765
 21
27.0771
 31
0.0
  0
LINE
  8
0
 62
     0
 10
17.2765
 20
27.0771
 30
0.0
 11
17.2765
 21
28.0569
 31
0.0
  0
LINE
  8
0
 62
     0
 10
17.2765
 20
28.0569
 30
0.0
 11
19.0018
 21
28.0569
 31
0.0
  0
LINE
  8
0
 62
     0
 10
19.0018
 20
28.0569
 30
0.0
 11
19.0018
 21
32.5272
 31
0.0
  0
LINE
  8
0
 62
     0
 10
19.0018
 20
32.5272
 30
0.0
 11
20.6761
 21
32.5272
 31
0.0
  0
LINE
  8
0
 62
     0
 10
20.6761
 20
32.5272
 30
0.0
 11
20.6761
 21
31.7762
 31
0.0
  0
LINE
  8
0
 62
     0
 10
20.6761
 20
31.7762
 30
0.0
 11
19.8768
 21
31.7762
 31
0.0
  0
LINE
  8
0
 62
     0
 10
19.8768
 20
31.7762
 30
0.0
 11
19.8768
 21
28.8272
 31
0.0
  0
LINE
  8
0
 62
     0
 10
19.8768
 20
28.8272
 30
0.0
 11
20.6761
 21
28.8272
 31
0.0
  0
LINE
  8
0
 62
     0
 10
20.6761
 20
28.8272
 30
0.0
 11
20.6761
 21
27.8267
 31
0.0
  0
LINE
  8
0
 62
     0
 10
20.6761
 20
27.8267
 30
0.0
 11
34.5267
 21
27.8267
 31
0.0
  0
LINE
  8
0
 62
     0
 10
34.5267
 20
27.8267
 30
0.0
 11
34.5267
 21
28.8272
 31
0.0
  0
LINE
  8
0
 62
     0
 10
34.5267
 20
28.8272
 30
0.0
 11
35.3261
 21
28.8272
 31
0.0
  0
LINE
  8
0
 62
     0
 10
35.3261
 20
28.8272
 30
0.0
 11
35.3261
 21
31.7762
 31
0.0
  0
LINE
  8
0
 62
     0
 10
35.3261
 20
31.7762
 30
0.0
 11
34.5267
 21
31.7762
 31
0.0
  0
LINE
  8
0
 62
     0
 10
34.5267
 20
31.7762
 30
0.0
 11
34.5267
 21
32.5272
 31
0.0
  0
LINE
  8
0
 62
     0
 10
34.5267
 20
32.5272
 30
0.0
 11
36.201
 21
32.5272
 31
0.0
  0
LINE
  8
0
 62
     0
 10
36.201
 20
32.5272
 30
0.0
 11
36.201
 21
28.0569
 31
0.0
  0
LINE
  8
0
 62
     0
 10
36.201
 20
28.0569
 30
0.0
 11
37.9264
 21
28.0569
 31
0.0
  0
LINE
  8
0
 62
     0
 10
37.9264
 20
28.0569
 30
0.0
 11
37.9264
 21
27.0771
 31
0.0
  0
LINE
  8
0
 62
     0
 10
37.9264
 20
27.0771
 30
0.0
 11
41.0767
 21
27.0771
 31
0.0
  0
LINE
  8
0
 62
     0
 10
41.0767
 20
27.0771
 30
0.0
 11
41.0767
 21
28.0569
 31
0.0
  0
LINE
  8
0
 62
     0
 10
41.0767
 20
28.0569
 30
0.0
 11
42.8018
 21
28.0569
 31
0.0
  0
LINE
  8
0
 62
     0
 10
42.8018
 20
28.0569
 30
0.0
 11
42.8018
 21
34.3269
 31
0.0
  0
LINE
  8
0
 62
     0
 10
42.8018
 20
34.3269
 30
0.0
 11
43.6259
 21
34.3269
 31
0.0
  0
LINE
  8
0
 62
     0
 10
43.6259
 20
34.3269
 30
0.0
 11
43.6259
 21
36.9768
 31
0.0
  0
LINE
  8
0
 62
     0
 10
43.6259
 20
36.9768
 30
0.0
 11
42.8018
 21
36.9768
 31
0.0
  0
LINE
  8
0
 62
     0
 10
42.8018
 20
36.9768
 30
0.0
 11
42.8018
 21
40.2071
 31
0.0
  0
LINE
  8
0
 62
     0
 10
42.8018
 20
40.2071
 30
0.0
 11
41.0767
 21
40.2071
 31
0.0
  0
LINE
  8
0
 62
     0
 10
41.0767
 20
40.2071
 30
0.0
 11
41.0767
 21
41.1261
 31
0.0
  0
LINE
  8
0
 62
     0
 10
41.0767
 20
41.1261
 30
0.0
 11
37.9264
 21
41.1261
 31
0.0
  0
LINE
  8
0
 62
     0
 10
37.9264
 20
41.1261
 30
0.0
 11
37.9264
 21
40.2071
 31
0.0
  0
LINE
  8
0
 62
     0
 10
37.9264
 20
40.2071
 30
0.0
 11
36.201
 21
40.2071
 31
0.0
  0
LINE
  8
0
 62
     0
 10
36.201
 20
40.2071
 30
0.0
 11
36.201
 21
36.9768
 31
0.0
  0
LINE
  8
0
 62
     0
 10
36.201
 20
36.9768
 30
0.0
 11
34.5267
 21
36.9768
 31
0.0
  0
LINE
  8
0
 62
     0
 10
34.5267
 20
36.9768
 30
0.0
 11
34.5267
 21
37.7264
 31
0.0
  0
LINE
  8
0
 62
     0
 10
34.5267
 20
37.7264
 30
0.0
 11
35.3261
 21
37.7264
 31
0.0
  0
LINE
  8
0
 62
     0
 10
35.3261
 20
37.7264
 30
0.0
 11
35.3261
 21
40.677
 31
0.0
  0
LINE
  8
0
 62
     0
 10
35.3261
 20
40.677
 30
0.0
 11
34.5267
 21
40.677
 31
0.0
  0
LINE
  8
0
 62
     0
 10
34.5267
 20
40.677
 30
0.0
 11
34.5267
 21
41.6775
 31
0.0
  0
LINE
  8
0
 62
     0
 10
34.5267
 20
41.6775
 30
0.0
 11
20.6761
 21
41.6775
 31
0.0
  0
LINE
  8
0
 62
     0
 10
294.52
 20
41.6775
 30
0.0
 11
294.52
 21
40.677
 31
0.0
  0
LINE
  8
0
 62
     0
 10
294.52
 20
40.677
 30
0.0
 11
293.721
 21
40.677
 31
0.0
  0
LINE
  8
0
 62
     0
 10
293.721
 20
40.677
 30
0.0
 11
293.721
 21
37.7264
 31
0.0
  0
LINE
  8
0
 62
     0
 10
293.721
 20
37.7264
 30
0.0
 11
294.52
 21
37.7264
 31
0.0
  0
LINE
  8
0
 62
     0
 10
294.52
 20
37.7264
 30
0.0
 11
294.52
 21
31.7762
 31
0.0
  0
LINE
  8
0
 62
     0
 10
294.52
 20
31.7762
 30
0.0
 11
293.721
 21
31.7762
 31
0.0
  0
LINE
  8
0
 62
     0
 10
293.721
 20
31.7762
 30
0.0
 11
293.721
 21
28.8272
 31
0.0
  0
LINE
  8
0
 62
     0
 10
293.721
 20
28.8272
 30
0.0
 11
294.52
 21
28.8272
 31
0.0
  0
LINE
  8
0
 62
     0
 10
294.52
 20
28.8272
 30
0.0
 11
294.52
 21
27.8267
 31
0.0
  0
LINE
  8
0
 62
     0
 10
294.52
 20
27.8267
 30
0.0
 11
308.37
 21
27.8267
 31
0.0
  0
LINE
  8
0
 62
     0
 10
308.37
 20
27.8267
 30
0.0
 11
308.37
 21
28.8272
 31
0.0
  0
LINE
  8
0
 62
     0
 10
308.37
 20
28.8272
 30
0.0
 11
309.171
 21
28.8272
 31
0.0
  0
LINE
  8
0
 62
     0
 10
309.171
 20
28.8272
 30
0.0
 11
309.171
 21
31.7762
 31
0.0
  0
LINE
  8
0
 62
     0
 10
309.171
 20
31.7762
 30
0.0
 11
308.37
 21
31.7762
 31
0.0
  0
LINE
  8
0
 62
     0
 10
308.37
 20
31.7762
 30
0.0
 11
308.37
 21
37.7264
 31
0.0
  0
LINE
  8
0
 62
     0
 10
308.37
 20
37.7264
 30
0.0
 11
309.171
 21
37.7264
 31
0.0
  0
LINE
  8
0
 62
     0
 10
309.171
 20
37.7264
 30
0.0
 11
309.171
 21
40.677
 31
0.0
  0
LINE
  8
0
 62
     0
 10
309.171
 20
40.677
 30
0.0
 11
308.37
 21
40.677
 31
0.0
  0
LINE
  8
0
 62
     0
 10
308.37
 20
40.677
 30
0.0
 11
308.37
 21
41.6775
 31
0.0
  0
LINE
  8
0
 62
     0
 10
308.37
 20
41.6775
 30
0.0
 11
294.52
 21
41.6775
 31
0.0
  0
LINE
  8
0
 62
     0
 10
275.47
 20
41.6775
 30
0.0
 11
275.47
 21
40.677
 31
0.0
  0
LINE
  8
0
 62
     0
 10
275.47
 20
40.677
 30
0.0
 11
274.671
 21
40.677
 31
0.0
  0
LINE
  8
0
 62
     0
 10
274.671
 20
40.677
 30
0.0
 11
274.671
 21
37.7264
 31
0.0
  0
LINE
  8
0
 62
     0
 10
274.671
 20
37.7264
 30
0.0
 11
275.47
 21
37.7264
 31
0.0
  0
LINE
  8
0
 62
     0
 10
275.47
 20
37.7264
 30
0.0
 11
275.47
 21
31.7762
 31
0.0
  0
LINE
  8
0
 62
     0
 10
275.47
 20
31.7762
 30
0.0
 11
274.671
 21
31.7762
 31
0.0
  0
LINE
  8
0
 62
     0
 10
274.671
 20
31.7762
 30
0.0
 11
274.671
 21
28.8272
 31
0.0
  0
LINE
  8
0
 62
     0
 10
274.671
 20
28.8272
 30
0.0
 11
275.47
 21
28.8272
 31
0.0
  0
LINE
  8
0
 62
     0
 10
275.47
 20
28.8272
 30
0.0
 11
275.47
 21
27.8267
 31
0.0
  0
LINE
  8
0
 62
     0
 10
275.47
 20
27.8267
 30
0.0
 11
289.32
 21
27.8267
 31
0.0
  0
LINE
  8
0
 62
     0
 10
289.32
 20
27.8267
 30
0.0
 11
289.32
 21
28.8272
 31
0.0
  0
LINE
  8
0
 62
     0
 10
289.32
 20
28.8272
 30
0.0
 11
290.121
 21
28.8272
 31
0.0
  0
LINE
  8
0
 62
     0
 10
290.121
 20
28.8272
 30
0.0
 11
290.121
 21
31.7762
 31
0.0
  0
LINE
  8
0
 62
     0
 10
290.121
 20
31.7762
 30
0.0
 11
289.32
 21
31.7762
 31
0.0
  0
LINE
  8
0
 62
     0
 10
289.32
 20
31.7762
 30
0.0
 11
289.32
 21
37.7264
 31
0.0
  0
LINE
  8
0
 62
     0
 10
289.32
 20
37.7264
 30
0.0
 11
290.121
 21
37.7264
 31
0.0
  0
LINE
  8
0
 62
     0
 10
290.121
 20
37.7264
 30
0.0
 11
290.121
 21
40.677
 31
0.0
  0
LINE
  8
0
 62
     0
 10
290.121
 20
40.677
 30
0.0
 11
289.32
 21
40.677
 31
0.0
  0
LINE
  8
0
 62
     0
 10
289.32
 20
40.677
 30
0.0
 11
289.32
 21
41.6775
 31
0.0
  0
LINE
  8
0
 62
     0
 10
289.32
 20
41.6775
 30
0.0
 11
275.47
 21
41.6775
 31
0.0
  0
LINE
  8
0
 62
     0
 10
249.276
 20
41.6775
 30
0.0
 11
249.276
 21
40.677
 31
0.0
  0
LINE
  8
0
 62
     0
 10
249.276
 20
40.677
 30
0.0
 11
248.477
 21
40.677
 31
0.0
  0
LINE
  8
0
 62
     0
 10
248.477
 20
40.677
 30
0.0
 11
248.477
 21
37.7264
 31
0.0
  0
LINE
  8
0
 62
     0
 10
248.477
 20
37.7264
 30
0.0
 11
249.276
 21
37.7264
 31
0.0
  0
LINE
  8
0
 62
     0
 10
249.276
 20
37.7264
 30
0.0
 11
249.276
 21
31.7762
 31
0.0
  0
LINE
  8
0
 62
     0
 10
249.276
 20
31.7762
 30
0.0
 11
248.477
 21
31.7762
 31
0.0
  0
LINE
  8
0
 62
     0
 10
248.477
 20
31.7762
 30
0.0
 11
248.477
 21
28.8272
 31
0.0
  0
LINE
  8
0
 62
     0
 10
248.477
 20
28.8272
 30
0.0
 11
249.276
 21
28.8272
 31
0.0
  0
LINE
  8
0
 62
     0
 10
249.276
 20
28.8272
 30
0.0
 11
249.276
 21
27.8267
 31
0.0
  0
LINE
  8
0
 62
     0
 10
249.276
 20
27.8267
 30
0.0
 11
263.127
 21
27.8267
 31
0.0
  0
LINE
  8
0
 62
     0
 10
263.127
 20
27.8267
 30
0.0
 11
263.127
 21
28.8272
 31
0.0
  0
LINE
  8
0
 62
     0
 10
263.127
 20
28.8272
 30
0.0
 11
263.926
 21
28.8272
 31
0.0
  0
LINE
  8
0
 62
     0
 10
263.926
 20
28.8272
 30
0.0
 11
263.926
 21
31.7762
 31
0.0
  0
LINE
  8
0
 62
     0
 10
263.926
 20
31.7762
 30
0.0
 11
263.127
 21
31.7762
 31
0.0
  0
LINE
  8
0
 62
     0
 10
263.127
 20
31.7762
 30
0.0
 11
263.127
 21
37.7264
 31
0.0
  0
LINE
  8
0
 62
     0
 10
263.127
 20
37.7264
 30
0.0
 11
263.926
 21
37.7264
 31
0.0
  0
LINE
  8
0
 62
     0
 10
263.926
 20
37.7264
 30
0.0
 11
263.926
 21
40.677
 31
0.0
  0
LINE
  8
0
 62
     0
 10
263.926
 20
40.677
 30
0.0
 11
263.127
 21
40.677
 31
0.0
  0
LINE
  8
0
 62
     0
 10
263.127
 20
40.677
 30
0.0
 11
263.127
 21
41.6775
 31
0.0
  0
LINE
  8
0
 62
     0
 10
263.127
 20
41.6775
 30
0.0
 11
249.276
 21
41.6775
 31
0.0
  0
LINE
  8
0
 62
     0
 10
223.082
 20
41.6775
 30
0.0
 11
223.082
 21
40.677
 31
0.0
  0
LINE
  8
0
 62
     0
 10
223.082
 20
40.677
 30
0.0
 11
222.283
 21
40.677
 31
0.0
  0
LINE
  8
0
 62
     0
 10
222.283
 20
40.677
 30
0.0
 11
222.283
 21
37.7264
 31
0.0
  0
LINE
  8
0
 62
     0
 10
222.283
 20
37.7264
 30
0.0
 11
223.082
 21
37.7264
 31
0.0
  0
LINE
  8
0
 62
     0
 10
223.082
 20
37.7264
 30
0.0
 11
223.082
 21
31.7762
 31
0.0
  0
LINE
  8
0
 62
     0
 10
223.082
 20
31.7762
 30
0.0
 11
222.283
 21
31.7762
 31
0.0
  0
LINE
  8
0
 62
     0
 10
222.283
 20
31.7762
 30
0.0
 11
222.283
 21
28.8272
 31
0.0
  0
LINE
  8
0
 62
     0
 10
222.283
 20
28.8272
 30
0.0
 11
223.082
 21
28.8272
 31
0.0
  0
LINE
  8
0
 62
     0
 10
223.082
 20
28.8272
 30
0.0
 11
223.082
 21
27.8267
 31
0.0
  0
LINE
  8
0
 62
     0
 10
223.082
 20
27.8267
 30
0.0
 11
236.933
 21
27.8267
 31
0.0
  0
LINE
  8
0
 62
     0
 10
236.933
 20
27.8267
 30
0.0
 11
236.933
 21
28.8272
 31
0.0
  0
LINE
  8
0
 62
     0
 10
236.933
 20
28.8272
 30
0.0
 11
237.732
 21
28.8272
 31
0.0
  0
LINE
  8
0
 62
     0
 10
237.732
 20
28.8272
 30
0.0
 11
237.732
 21
31.7762
 31
0.0
  0
LINE
  8
0
 62
     0
 10
237.732
 20
31.7762
 30
0.0
 11
236.933
 21
31.7762
 31
0.0
  0
LINE
  8
0
 62
     0
 10
236.933
 20
31.7762
 30
0.0
 11
236.933
 21
37.7264
 31
0.0
  0
LINE
  8
0
 62
     0
 10
236.933
 20
37.7264
 30
0.0
 11
237.732
 21
37.7264
 31
0.0
  0
LINE
  8
0
 62
     0
 10
237.732
 20
37.7264
 30
0.0
 11
237.732
 21
40.677
 31
0.0
  0
LINE
  8
0
 62
     0
 10
237.732
 20
40.677
 30
0.0
 11
236.933
 21
40.677
 31
0.0
  0
LINE
  8
0
 62
     0
 10
236.933
 20
40.677
 30
0.0
 11
236.933
 21
41.6775
 31
0.0
  0
LINE
  8
0
 62
     0
 10
236.933
 20
41.6775
 30
0.0
 11
223.082
 21
41.6775
 31
0.0
  0
LINE
  8
0
 62
     0
 10
204.032
 20
41.6775
 30
0.0
 11
204.032
 21
40.677
 31
0.0
  0
LINE
  8
0
 62
     0
 10
204.032
 20
40.677
 30
0.0
 11
203.233
 21
40.677
 31
0.0
  0
LINE
  8
0
 62
     0
 10
203.233
 20
40.677
 30
0.0
 11
203.233
 21
37.7264
 31
0.0
  0
LINE
  8
0
 62
     0
 10
203.233
 20
37.7264
 30
0.0
 11
204.032
 21
37.7264
 31
0.0
  0
LINE
  8
0
 62
     0
 10
204.032
 20
37.7264
 30
0.0
 11
204.032
 21
31.7762
 31
0.0
  0
LINE
  8
0
 62
     0
 10
204.032
 20
31.7762
 30
0.0
 11
203.233
 21
31.7762
 31
0.0
  0
LINE
  8
0
 62
     0
 10
203.233
 20
31.7762
 30
0.0
 11
203.233
 21
28.8272
 31
0.0
  0
LINE
  8
0
 62
     0
 10
203.233
 20
28.8272
 30
0.0
 11
204.032
 21
28.8272
 31
0.0
  0
LINE
  8
0
 62
     0
 10
204.032
 20
28.8272
 30
0.0
 11
204.032
 21
27.8267
 31
0.0
  0
LINE
  8
0
 62
     0
 10
204.032
 20
27.8267
 30
0.0
 11
217.883
 21
27.8267
 31
0.0
  0
LINE
  8
0
 62
     0
 10
217.883
 20
27.8267
 30
0.0
 11
217.883
 21
28.8272
 31
0.0
  0
LINE
  8
0
 62
     0
 10
217.883
 20
28.8272
 30
0.0
 11
218.682
 21
28.8272
 31
0.0
  0
LINE
  8
0
 62
     0
 10
218.682
 20
28.8272
 30
0.0
 11
218.682
 21
31.7762
 31
0.0
  0
LINE
  8
0
 62
     0
 10
218.682
 20
31.7762
 30
0.0
 11
217.883
 21
31.7762
 31
0.0
  0
LINE
  8
0
 62
     0
 10
217.883
 20
31.7762
 30
0.0
 11
217.883
 21
37.7264
 31
0.0
  0
LINE
  8
0
 62
     0
 10
217.883
 20
37.7264
 30
0.0
 11
218.682
 21
37.7264
 31
0.0
  0
LINE
  8
0
 62
     0
 10
218.682
 20
37.7264
 30
0.0
 11
218.682
 21
40.677
 31
0.0
  0
LINE
  8
0
 62
     0
 10
218.682
 20
40.677
 30
0.0
 11
217.883
 21
40.677
 31
0.0
  0
LINE
  8
0
 62
     0
 10
217.883
 20
40.677
 30
0.0
 11
217.883
 21
41.6775
 31
0.0
  0
LINE
  8
0
 62
     0
 10
217.883
 20
41.6775
 30
0.0
 11
204.032
 21
41.6775
 31
0.0
  0
LINE
  8
0
 62
     0
 10
184.982
 20
41.6775
 30
0.0
 11
184.982
 21
40.677
 31
0.0
  0
LINE
  8
0
 62
     0
 10
184.982
 20
40.677
 30
0.0
 11
184.183
 21
40.677
 31
0.0
  0
LINE
  8
0
 62
     0
 10
184.183
 20
40.677
 30
0.0
 11
184.183
 21
37.7264
 31
0.0
  0
LINE
  8
0
 62
     0
 10
184.183
 20
37.7264
 30
0.0
 11
184.982
 21
37.7264
 31
0.0
  0
LINE
  8
0
 62
     0
 10
184.982
 20
37.7264
 30
0.0
 11
184.982
 21
31.7762
 31
0.0
  0
LINE
  8
0
 62
     0
 10
184.982
 20
31.7762
 30
0.0
 11
184.183
 21
31.7762
 31
0.0
  0
LINE
  8
0
 62
     0
 10
184.183
 20
31.7762
 30
0.0
 11
184.183
 21
28.8272
 31
0.0
  0
LINE
  8
0
 62
     0
 10
184.183
 20
28.8272
 30
0.0
 11
184.982
 21
28.8272
 31
0.0
  0
LINE
  8
0
 62
     0
 10
184.982
 20
28.8272
 30
0.0
 11
184.982
 21
27.8267
 31
0.0
  0
LINE
  8
0
 62
     0
 10
184.982
 20
27.8267
 30
0.0
 11
198.833
 21
27.8267
 31
0.0
  0
LINE
  8
0
 62
     0
 10
198.833
 20
27.8267
 30
0.0
 11
198.833
 21
28.8272
 31
0.0
  0
LINE
  8
0
 62
     0
 10
198.833
 20
28.8272
 30
0.0
 11
199.632
 21
28.8272
 31
0.0
  0
LINE
  8
0
 62
     0
 10
199.632
 20
28.8272
 30
0.0
 11
199.632
 21
31.7762
 31
0.0
  0
LINE
  8
0
 62
     0
 10
199.632
 20
31.7762
 30
0.0
 11
198.833
 21
31.7762
 31
0.0
  0
LINE
  8
0
 62
     0
 10
198.833
 20
31.7762
 30
0.0
 11
198.833
 21
37.7264
 31
0.0
  0
LINE
  8
0
 62
     0
 10
198.833
 20
37.7264
 30
0.0
 11
199.632
 21
37.7264
 31
0.0
  0
LINE
  8
0
 62
     0
 10
199.632
 20
37.7264
 30
0.0
 11
199.632
 21
40.677
 31
0.0
  0
LINE
  8
0
 62
     0
 10
199.632
 20
40.677
 30
0.0
 11
198.833
 21
40.677
 31
0.0
  0
LINE
  8
0
 62
     0
 10
198.833
 20
40.677
 30
0.0
 11
198.833
 21
41.6775
 31
0.0
  0
LINE
  8
0
 62
     0
 10
198.833
 20
41.6775
 30
0.0
 11
184.982
 21
41.6775
 31
0.0
  0
LINE
  8
0
 62
     0
 10
165.932
 20
41.6775
 30
0.0
 11
165.932
 21
40.677
 31
0.0
  0
LINE
  8
0
 62
     0
 10
165.932
 20
40.677
 30
0.0
 11
165.133
 21
40.677
 31
0.0
  0
LINE
  8
0
 62
     0
 10
165.133
 20
40.677
 30
0.0
 11
165.133
 21
37.7264
 31
0.0
  0
LINE
  8
0
 62
     0
 10
165.133
 20
37.7264
 30
0.0
 11
165.932
 21
37.7264
 31
0.0
  0
LINE
  8
0
 62
     0
 10
165.932
 20
37.7264
 30
0.0
 11
165.932
 21
31.7762
 31
0.0
  0
LINE
  8
0
 62
     0
 10
165.932
 20
31.7762
 30
0.0
 11
165.133
 21
31.7762
 31
0.0
  0
LINE
  8
0
 62
     0
 10
165.133
 20
31.7762
 30
0.0
 11
165.133
 21
28.8272
 31
0.0
  0
LINE
  8
0
 62
     0
 10
165.133
 20
28.8272
 30
0.0
 11
165.932
 21
28.8272
 31
0.0
  0
LINE
  8
0
 62
     0
 10
165.932
 20
28.8272
 30
0.0
 11
165.932
 21
27.8267
 31
0.0
  0
LINE
  8
0
 62
     0
 10
165.932
 20
27.8267
 30
0.0
 11
179.783
 21
27.8267
 31
0.0
  0
LINE
  8
0
 62
     0
 10
179.783
 20
27.8267
 30
0.0
 11
179.783
 21
28.8272
 31
0.0
  0
LINE
  8
0
 62
     0
 10
179.783
 20
28.8272
 30
0.0
 11
180.582
 21
28.8272
 31
0.0
  0
LINE
  8
0
 62
     0
 10
180.582
 20
28.8272
 30
0.0
 11
180.582
 21
31.7762
 31
0.0
  0
LINE
  8
0
 62
     0
 10
180.582
 20
31.7762
 30
0.0
 11
179.783
 21
31.7762
 31
0.0
  0
LINE
  8
0
 62
     0
 10
179.783
 20
31.7762
 30
0.0
 11
179.783
 21
37.7264
 31
0.0
  0
LINE
  8
0
 62
     0
 10
179.783
 20
37.7264
 30
0.0
 11
180.582
 21
37.7264
 31
0.0
  0
LINE
  8
0
 62
     0
 10
180.582
 20
37.7264
 30
0.0
 11
180.582
 21
40.677
 31
0.0
  0
LINE
  8
0
 62
     0
 10
180.582
 20
40.677
 30
0.0
 11
179.783
 21
40.677
 31
0.0
  0
LINE
  8
0
 62
     0
 10
179.783
 20
40.677
 30
0.0
 11
179.783
 21
41.6775
 31
0.0
  0
LINE
  8
0
 62
     0
 10
179.783
 20
41.6775
 30
0.0
 11
165.932
 21
41.6775
 31
0.0
  0
LINE
  8
0
 62
     0
 10
146.882
 20
41.6775
 30
0.0
 11
146.882
 21
40.677
 31
0.0
  0
LINE
  8
0
 62
     0
 10
146.882
 20
40.677
 30
0.0
 11
146.083
 21
40.677
 31
0.0
  0
LINE
  8
0
 62
     0
 10
146.083
 20
40.677
 30
0.0
 11
146.083
 21
37.7264
 31
0.0
  0
LINE
  8
0
 62
     0
 10
146.083
 20
37.7264
 30
0.0
 11
146.882
 21
37.7264
 31
0.0
  0
LINE
  8
0
 62
     0
 10
146.882
 20
37.7264
 30
0.0
 11
146.882
 21
31.7762
 31
0.0
  0
LINE
  8
0
 62
     0
 10
146.882
 20
31.7762
 30
0.0
 11
146.083
 21
31.7762
 31
0.0
  0
LINE
  8
0
 62
     0
 10
146.083
 20
31.7762
 30
0.0
 11
146.083
 21
28.8272
 31
0.0
  0
LINE
  8
0
 62
     0
 10
146.083
 20
28.8272
 30
0.0
 11
146.882
 21
28.8272
 31
0.0
  0
LINE
  8
0
 62
     0
 10
146.882
 20
28.8272
 30
0.0
 11
146.882
 21
27.8267
 31
0.0
  0
LINE
  8
0
 62
     0
 10
146.882
 20
27.8267
 30
0.0
 11
160.733
 21
27.8267
 31
0.0
  0
LINE
  8
0
 62
     0
 10
160.733
 20
27.8267
 30
0.0
 11
160.733
 21
28.8272
 31
0.0
  0
LINE
  8
0
 62
     0
 10
160.733
 20
28.8272
 30
0.0
 11
161.532
 21
28.8272
 31
0.0
  0
LINE
  8
0
 62
     0
 10
161.532
 20
28.8272
 30
0.0
 11
161.532
 21
31.7762
 31
0.0
  0
LINE
  8
0
 62
     0
 10
161.532
 20
31.7762
 30
0.0
 11
160.733
 21
31.7762
 31
0.0
  0
LINE
  8
0
 62
     0
 10
160.733
 20
31.7762
 30
0.0
 11
160.733
 21
37.7264
 31
0.0
  0
LINE
  8
0
 62
     0
 10
160.733
 20
37.7264
 30
0.0
 11
161.532
 21
37.7264
 31
0.0
  0
LINE
  8
0
 62
     0
 10
161.532
 20
37.7264
 30
0.0
 11
161.532
 21
40.677
 31
0.0
  0
LINE
  8
0
 62
     0
 10
161.532
 20
40.677
 30
0.0
 11
160.733
 21
40.677
 31
0.0
  0
LINE
  8
0
 62
     0
 10
160.733
 20
40.677
 30
0.0
 11
160.733
 21
41.6775
 31
0.0
  0
LINE
  8
0
 62
     0
 10
160.733
 20
41.6775
 30
0.0
 11
146.882
 21
41.6775
 31
0.0
  0
LINE
  8
0
 62
     0
 10
127.832
 20
41.6775
 30
0.0
 11
127.832
 21
40.677
 31
0.0
  0
LINE
  8
0
 62
     0
 10
127.832
 20
40.677
 30
0.0
 11
127.033
 21
40.677
 31
0.0
  0
LINE
  8
0
 62
     0
 10
127.033
 20
40.677
 30
0.0
 11
127.033
 21
37.7264
 31
0.0
  0
LINE
  8
0
 62
     0
 10
127.033
 20
37.7264
 30
0.0
 11
127.832
 21
37.7264
 31
0.0
  0
LINE
  8
0
 62
     0
 10
127.832
 20
37.7264
 30
0.0
 11
127.832
 21
31.7762
 31
0.0
  0
LINE
  8
0
 62
     0
 10
127.832
 20
31.7762
 30
0.0
 11
127.033
 21
31.7762
 31
0.0
  0
LINE
  8
0
 62
     0
 10
127.033
 20
31.7762
 30
0.0
 11
127.033
 21
28.8272
 31
0.0
  0
LINE
  8
0
 62
     0
 10
127.033
 20
28.8272
 30
0.0
 11
127.832
 21
28.8272
 31
0.0
  0
LINE
  8
0
 62
     0
 10
127.832
 20
28.8272
 30
0.0
 11
127.832
 21
27.8267
 31
0.0
  0
LINE
  8
0
 62
     0
 10
127.832
 20
27.8267
 30
0.0
 11
141.683
 21
27.8267
 31
0.0
  0
LINE
  8
0
 62
     0
 10
141.683
 20
27.8267
 30
0.0
 11
141.683
 21
28.8272
 31
0.0
  0
LINE
  8
0
 62
     0
 10
141.683
 20
28.8272
 30
0.0
 11
142.482
 21
28.8272
 31
0.0
  0
LINE
  8
0
 62
     0
 10
142.482
 20
28.8272
 30
0.0
 11
142.482
 21
31.7762
 31
0.0
  0
LINE
  8
0
 62
     0
 10
142.482
 20
31.7762
 30
0.0
 11
141.683
 21
31.7762
 31
0.0
  0
LINE
  8
0
 62
     0
 10
141.683
 20
31.7762
 30
0.0
 11
141.683
 21
37.7264
 31
0.0
  0
LINE
  8
0
 62
     0
 10
141.683
 20
37.7264
 30
0.0
 11
142.482
 21
37.7264
 31
0.0
  0
LINE
  8
0
 62
     0
 10
142.482
 20
37.7264
 30
0.0
 11
142.482
 21
40.677
 31
0.0
  0
LINE
  8
0
 62
     0
 10
142.482
 20
40.677
 30
0.0
 11
141.683
 21
40.677
 31
0.0
  0
LINE
  8
0
 62
     0
 10
141.683
 20
40.677
 30
0.0
 11
141.683
 21
41.6775
 31
0.0
  0
LINE
  8
0
 62
     0
 10
141.683
 20
41.6775
 30
0.0
 11
127.832
 21
41.6775
 31
0.0
  0
LINE
  8
0
 62
     0
 10
108.782
 20
41.6775
 30
0.0
 11
108.782
 21
40.677
 31
0.0
  0
LINE
  8
0
 62
     0
 10
108.782
 20
40.677
 30
0.0
 11
107.983
 21
40.677
 31
0.0
  0
LINE
  8
0
 62
     0
 10
107.983
 20
40.677
 30
0.0
 11
107.983
 21
37.7264
 31
0.0
  0
LINE
  8
0
 62
     0
 10
107.983
 20
37.7264
 30
0.0
 11
108.782
 21
37.7264
 31
0.0
  0
LINE
  8
0
 62
     0
 10
108.782
 20
37.7264
 30
0.0
 11
108.782
 21
31.7762
 31
0.0
  0
LINE
  8
0
 62
     0
 10
108.782
 20
31.7762
 30
0.0
 11
107.983
 21
31.7762
 31
0.0
  0
LINE
  8
0
 62
     0
 10
107.983
 20
31.7762
 30
0.0
 11
107.983
 21
28.8272
 31
0.0
  0
LINE
  8
0
 62
     0
 10
107.983
 20
28.8272
 30
0.0
 11
108.782
 21
28.8272
 31
0.0
  0
LINE
  8
0
 62
     0
 10
108.782
 20
28.8272
 30
0.0
 11
108.782
 21
27.8267
 31
0.0
  0
LINE
  8
0
 62
     0
 10
108.782
 20
27.8267
 30
0.0
 11
122.633
 21
27.8267
 31
0.0
  0
LINE
  8
0
 62
     0
 10
122.633
 20
27.8267
 30
0.0
 11
122.633
 21
28.8272
 31
0.0
  0
LINE
  8
0
 62
     0
 10
122.633
 20
28.8272
 30
0.0
 11
123.431
 21
28.8272
 31
0.0
  0
LINE
  8
0
 62
     0
 10
123.431
 20
28.8272
 30
0.0
 11
123.431
 21
31.7762
 31
0.0
  0
LINE
  8
0
 62
     0
 10
123.431
 20
31.7762
 30
0.0
 11
122.633
 21
31.7762
 31
0.0
  0
LINE
  8
0
 62
     0
 10
122.633
 20
31.7762
 30
0.0
 11
122.633
 21
37.7264
 31
0.0
  0
LINE
  8
0
 62
     0
 10
122.633
 20
37.7264
 30
0.0
 11
123.431
 21
37.7264
 31
0.0
  0
LINE
  8
0
 62
     0
 10
123.431
 20
37.7264
 30
0.0
 11
123.431
 21
40.677
 31
0.0
  0
LINE
  8
0
 62
     0
 10
123.431
 20
40.677
 30
0.0
 11
122.633
 21
40.677
 31
0.0
  0
LINE
  8
0
 62
     0
 10
122.633
 20
40.677
 30
0.0
 11
122.633
 21
41.6775
 31
0.0
  0
LINE
  8
0
 62
     0
 10
122.633
 20
41.6775
 30
0.0
 11
108.782
 21
41.6775
 31
0.0
  0
LINE
  8
0
 62
     0
 10
89.7322
 20
41.6775
 30
0.0
 11
89.7322
 21
40.677
 31
0.0
  0
LINE
  8
0
 62
     0
 10
89.7322
 20
40.677
 30
0.0
 11
88.9332
 21
40.677
 31
0.0
  0
LINE
  8
0
 62
     0
 10
88.9332
 20
40.677
 30
0.0
 11
88.9332
 21
37.7264
 31
0.0
  0
LINE
  8
0
 62
     0
 10
88.9332
 20
37.7264
 30
0.0
 11
89.7322
 21
37.7264
 31
0.0
  0
LINE
  8
0
 62
     0
 10
89.7322
 20
37.7264
 30
0.0
 11
89.7322
 21
31.7762
 31
0.0
  0
LINE
  8
0
 62
     0
 10
89.7322
 20
31.7762
 30
0.0
 11
88.9332
 21
31.7762
 31
0.0
  0
LINE
  8
0
 62
     0
 10
88.9332
 20
31.7762
 30
0.0
 11
88.9332
 21
28.8272
 31
0.0
  0
LINE
  8
0
 62
     0
 10
88.9332
 20
28.8272
 30
0.0
 11
89.7322
 21
28.8272
 31
0.0
  0
LINE
  8
0
 62
     0
 10
89.7322
 20
28.8272
 30
0.0
 11
89.7322
 21
27.8267
 31
0.0
  0
LINE
  8
0
 62
     0
 10
89.7322
 20
27.8267
 30
0.0
 11
103.583
 21
27.8267
 31
0.0
  0
LINE
  8
0
 62
     0
 10
103.583
 20
27.8267
 30
0.0
 11
103.583
 21
28.8272
 31
0.0
  0
LINE
  8
0
 62
     0
 10
103.583
 20
28.8272
 30
0.0
 11
104.382
 21
28.8272
 31
0.0
  0
LINE
  8
0
 62
     0
 10
104.382
 20
28.8272
 30
0.0
 11
104.382
 21
31.7762
 31
0.0
  0
LINE
  8
0
 62
     0
 10
104.382
 20
31.7762
 30
0.0
 11
103.583
 21
31.7762
 31
0.0
  0
LINE
  8
0
 62
     0
 10
103.583
 20
31.7762
 30
0.0
 11
103.583
 21
37.7264
 31
0.0
  0
LINE
  8
0
 62
     0
 10
103.583
 20
37.7264
 30
0.0
 11
104.382
 21
37.7264
 31
0.0
  0
LINE
  8
0
 62
     0
 10
104.382
 20
37.7264
 30
0.0
 11
104.382
 21
40.677
 31
0.0
  0
LINE
  8
0
 62
     0
 10
104.382
 20
40.677
 30
0.0
 11
103.583
 21
40.677
 31
0.0
  0
LINE
  8
0
 62
     0
 10
103.583
 20
40.677
 30
0.0
 11
103.583
 21
41.6775
 31
0.0
  0
LINE
  8
0
 62
     0
 10
103.583
 20
41.6775
 30
0.0
 11
89.7322
 21
41.6775
 31
0.0
  0
LINE
  8
0
 62
     0
 10
70.6822
 20
41.6775
 30
0.0
 11
70.6822
 21
40.677
 31
0.0
  0
LINE
  8
0
 62
     0
 10
70.6822
 20
40.677
 30
0.0
 11
69.8832
 21
40.677
 31
0.0
  0
LINE
  8
0
 62
     0
 10
69.8832
 20
40.677
 30
0.0
 11
69.8832
 21
37.7264
 31
0.0
  0
LINE
  8
0
 62
     0
 10
69.8832
 20
37.7264
 30
0.0
 11
70.6822
 21
37.7264
 31
0.0
  0
LINE
  8
0
 62
     0
 10
70.6822
 20
37.7264
 30
0.0
 11
70.6822
 21
31.7762
 31
0.0
  0
LINE
  8
0
 62
     0
 10
70.6822
 20
31.7762
 30
0.0
 11
69.8832
 21
31.7762
 31
0.0
  0
LINE
  8
0
 62
     0
 10
69.8832
 20
31.7762
 30
0.0
 11
69.8832
 21
28.8272
 31
0.0
  0
LINE
  8
0
 62
     0
 10
69.8832
 20
28.8272
 30
0.0
 11
70.6822
 21
28.8272
 31
0.0
  0
LINE
  8
0
 62
     0
 10
70.6822
 20
28.8272
 30
0.0
 11
70.6822
 21
27.8267
 31
0.0
  0
LINE
  8
0
 62
     0
 10
70.6822
 20
27.8267
 30
0.0
 11
84.533
 21
27.8267
 31
0.0
  0
LINE
  8
0
 62
     0
 10
84.533
 20
27.8267
 30
0.0
 11
84.533
 21
28.8272
 31
0.0
  0
LINE
  8
0
 62
     0
 10
84.533
 20
28.8272
 30
0.0
 11
85.3324
 21
28.8272
 31
0.0
  0
LINE
  8
0
 62
     0
 10
85.3324
 20
28.8272
 30
0.0
 11
85.3324
 21
31.7762
 31
0.0
  0
LINE
  8
0
 62
     0
 10
85.3324
 20
31.7762
 30
0.0
 11
84.533
 21
31.7762
 31
0.0
  0
LINE
  8
0
 62
     0
 10
84.533
 20
31.7762
 30
0.0
 11
84.533
 21
37.7264
 31
0.0
  0
LINE
  8
0
 62
     0
 10
84.533
 20
37.7264
 30
0.0
 11
85.3324
 21
37.7264
 31
0.0
  0
LINE
  8
0
 62
     0
 10
85.3324
 20
37.7264
 30
0.0
 11
85.3324
 21
40.677
 31
0.0
  0
LINE
  8
0
 62
     0
 10
85.3324
 20
40.677
 30
0.0
 11
84.533
 21
40.677
 31
0.0
  0
LINE
  8
0
 62
     0
 10
84.533
 20
40.677
 30
0.0
 11
84.533
 21
41.6775
 31
0.0
  0
LINE
  8
0
 62
     0
 10
84.533
 20
41.6775
 30
0.0
 11
70.6822
 21
41.6775
 31
0.0
  0
LINE
  8
0
 62
     0
 10
51.6322
 20
41.6775
 30
0.0
 11
51.6322
 21
40.677
 31
0.0
  0
LINE
  8
0
 62
     0
 10
51.6322
 20
40.677
 30
0.0
 11
50.8332
 21
40.677
 31
0.0
  0
LINE
  8
0
 62
     0
 10
50.8332
 20
40.677
 30
0.0
 11
50.8332
 21
37.7264
 31
0.0
  0
LINE
  8
0
 62
     0
 10
50.8332
 20
37.7264
 30
0.0
 11
51.6322
 21
37.7264
 31
0.0
  0
LINE
  8
0
 62
     0
 10
51.6322
 20
37.7264
 30
0.0
 11
51.6322
 21
31.7762
 31
0.0
  0
LINE
  8
0
 62
     0
 10
51.6322
 20
31.7762
 30
0.0
 11
50.8332
 21
31.7762
 31
0.0
  0
LINE
  8
0
 62
     0
 10
50.8332
 20
31.7762
 30
0.0
 11
50.8332
 21
28.8272
 31
0.0
  0
LINE
  8
0
 62
     0
 10
50.8332
 20
28.8272
 30
0.0
 11
51.6322
 21
28.8272
 31
0.0
  0
LINE
  8
0
 62
     0
 10
51.6322
 20
28.8272
 30
0.0
 11
51.6322
 21
27.8267
 31
0.0
  0
LINE
  8
0
 62
     0
 10
51.6322
 20
27.8267
 30
0.0
 11
65.483
 21
27.8267
 31
0.0
  0
LINE
  8
0
 62
     0
 10
65.483
 20
27.8267
 30
0.0
 11
65.483
 21
28.8272
 31
0.0
  0
LINE
  8
0
 62
     0
 10
65.483
 20
28.8272
 30
0.0
 11
66.2824
 21
28.8272
 31
0.0
  0
LINE
  8
0
 62
     0
 10
66.2824
 20
28.8272
 30
0.0
 11
66.2824
 21
31.7762
 31
0.0
  0
LINE
  8
0
 62
     0
 10
66.2824
 20
31.7762
 30
0.0
 11
65.483
 21
31.7762
 31
0.0
  0
LINE
  8
0
 62
     0
 10
65.483
 20
31.7762
 30
0.0
 11
65.483
 21
37.7264
 31
0.0
  0
LINE
  8
0
 62
     0
 10
65.483
 20
37.7264
 30
0.0
 11
66.2824
 21
37.7264
 31
0.0
  0
LINE
  8
0
 62
     0
 10
66.2824
 20
37.7264
 30
0.0
 11
66.2824
 21
40.677
 31
0.0
  0
LINE
  8
0
 62
     0
 10
66.2824
 20
40.677
 30
0.0
 11
65.483
 21
40.677
 31
0.0
  0
LINE
  8
0
 62
     0
 10
65.483
 20
40.677
 30
0.0
 11
65.483
 21
41.6775
 31
0.0
  0
LINE
  8
0
 62
     0
 10
65.483
 20
41.6775
 30
0.0
 11
51.6322
 21
41.6775
 31
0.0
  0
LINE
  8
0
 62
     0
 10
263.563
 20
60.7275
 30
0.0
 11
263.563
 21
59.727
 31
0.0
  0
LINE
  8
0
 62
     0
 10
263.563
 20
59.727
 30
0.0
 11
262.763
 21
59.727
 31
0.0
  0
LINE
  8
0
 62
     0
 10
262.763
 20
59.727
 30
0.0
 11
262.763
 21
56.7764
 31
0.0
  0
LINE
  8
0
 62
     0
 10
262.763
 20
56.7764
 30
0.0
 11
263.563
 21
56.7764
 31
0.0
  0
LINE
  8
0
 62
     0
 10
263.563
 20
56.7764
 30
0.0
 11
263.563
 21
56.0268
 31
0.0
  0
LINE
  8
0
 62
     0
 10
263.563
 20
56.0268
 30
0.0
 11
261.888
 21
56.0268
 31
0.0
  0
LINE
  8
0
 62
     0
 10
261.888
 20
56.0268
 30
0.0
 11
261.888
 21
59.2571
 31
0.0
  0
LINE
  8
0
 62
     0
 10
261.888
 20
59.2571
 30
0.0
 11
260.164
 21
59.2571
 31
0.0
  0
LINE
  8
0
 62
     0
 10
260.164
 20
59.2571
 30
0.0
 11
260.164
 21
60.1761
 31
0.0
  0
LINE
  8
0
 62
     0
 10
260.164
 20
60.1761
 30
0.0
 11
257.014
 21
60.1761
 31
0.0
  0
LINE
  8
0
 62
     0
 10
257.014
 20
60.1761
 30
0.0
 11
257.014
 21
59.2571
 31
0.0
  0
LINE
  8
0
 62
     0
 10
257.014
 20
59.2571
 30
0.0
 11
255.287
 21
59.2571
 31
0.0
  0
LINE
  8
0
 62
     0
 10
255.287
 20
59.2571
 30
0.0
 11
255.287
 21
56.0268
 31
0.0
  0
LINE
  8
0
 62
     0
 10
255.287
 20
56.0268
 30
0.0
 11
254.463
 21
56.0268
 31
0.0
  0
LINE
  8
0
 62
     0
 10
254.463
 20
56.0268
 30
0.0
 11
254.463
 21
53.377
 31
0.0
  0
LINE
  8
0
 62
     0
 10
254.463
 20
53.377
 30
0.0
 11
255.287
 21
53.377
 31
0.0
  0
LINE
  8
0
 62
     0
 10
255.287
 20
53.377
 30
0.0
 11
255.287
 21
47.1082
 31
0.0
  0
LINE
  8
0
 62
     0
 10
255.287
 20
47.1082
 30
0.0
 11
257.014
 21
47.1082
 31
0.0
  0
LINE
  8
0
 62
     0
 10
257.014
 20
47.1082
 30
0.0
 11
257.014
 21
46.1271
 31
0.0
  0
LINE
  8
0
 62
     0
 10
257.014
 20
46.1271
 30
0.0
 11
260.164
 21
46.1271
 31
0.0
  0
LINE
  8
0
 62
     0
 10
260.164
 20
46.1271
 30
0.0
 11
260.164
 21
47.1082
 31
0.0
  0
LINE
  8
0
 62
     0
 10
260.164
 20
47.1082
 30
0.0
 11
261.888
 21
47.1082
 31
0.0
  0
LINE
  8
0
 62
     0
 10
261.888
 20
47.1082
 30
0.0
 11
261.888
 21
51.5772
 31
0.0
  0
LINE
  8
0
 62
     0
 10
261.888
 20
51.5772
 30
0.0
 11
263.563
 21
51.5772
 31
0.0
  0
LINE
  8
0
 62
     0
 10
263.563
 20
51.5772
 30
0.0
 11
263.563
 21
50.8261
 31
0.0
  0
LINE
  8
0
 62
     0
 10
263.563
 20
50.8261
 30
0.0
 11
262.763
 21
50.8261
 31
0.0
  0
LINE
  8
0
 62
     0
 10
262.763
 20
50.8261
 30
0.0
 11
262.763
 21
47.8772
 31
0.0
  0
LINE
  8
0
 62
     0
 10
262.763
 20
47.8772
 30
0.0
 11
263.563
 21
47.8772
 31
0.0
  0
LINE
  8
0
 62
     0
 10
263.563
 20
47.8772
 30
0.0
 11
263.563
 21
46.8768
 31
0.0
  0
LINE
  8
0
 62
     0
 10
263.563
 20
46.8768
 30
0.0
 11
277.413
 21
46.8768
 31
0.0
  0
LINE
  8
0
 62
     0
 10
277.413
 20
46.8768
 30
0.0
 11
277.413
 21
47.8772
 31
0.0
  0
LINE
  8
0
 62
     0
 10
277.413
 20
47.8772
 30
0.0
 11
278.214
 21
47.8772
 31
0.0
  0
LINE
  8
0
 62
     0
 10
278.214
 20
47.8772
 30
0.0
 11
278.214
 21
50.8261
 31
0.0
  0
LINE
  8
0
 62
     0
 10
278.214
 20
50.8261
 30
0.0
 11
277.413
 21
50.8261
 31
0.0
  0
LINE
  8
0
 62
     0
 10
277.413
 20
50.8261
 30
0.0
 11
277.413
 21
51.5772
 31
0.0
  0
LINE
  8
0
 62
     0
 10
277.413
 20
51.5772
 30
0.0
 11
279.088
 21
51.5772
 31
0.0
  0
LINE
  8
0
 62
     0
 10
279.088
 20
51.5772
 30
0.0
 11
279.088
 21
47.1082
 31
0.0
  0
LINE
  8
0
 62
     0
 10
279.088
 20
47.1082
 30
0.0
 11
280.814
 21
47.1082
 31
0.0
  0
LINE
  8
0
 62
     0
 10
280.814
 20
47.1082
 30
0.0
 11
280.814
 21
46.1271
 31
0.0
  0
LINE
  8
0
 62
     0
 10
280.814
 20
46.1271
 30
0.0
 11
283.964
 21
46.1271
 31
0.0
  0
LINE
  8
0
 62
     0
 10
283.964
 20
46.1271
 30
0.0
 11
283.964
 21
47.1082
 31
0.0
  0
LINE
  8
0
 62
     0
 10
283.964
 20
47.1082
 30
0.0
 11
285.688
 21
47.1082
 31
0.0
  0
LINE
  8
0
 62
     0
 10
285.688
 20
47.1082
 30
0.0
 11
285.688
 21
53.377
 31
0.0
  0
LINE
  8
0
 62
     0
 10
285.688
 20
53.377
 30
0.0
 11
286.513
 21
53.377
 31
0.0
  0
LINE
  8
0
 62
     0
 10
286.513
 20
53.377
 30
0.0
 11
286.513
 21
56.0268
 31
0.0
  0
LINE
  8
0
 62
     0
 10
286.513
 20
56.0268
 30
0.0
 11
285.688
 21
56.0268
 31
0.0
  0
LINE
  8
0
 62
     0
 10
285.688
 20
56.0268
 30
0.0
 11
285.688
 21
59.2571
 31
0.0
  0
LINE
  8
0
 62
     0
 10
285.688
 20
59.2571
 30
0.0
 11
283.964
 21
59.2571
 31
0.0
  0
LINE
  8
0
 62
     0
 10
283.964
 20
59.2571
 30
0.0
 11
283.964
 21
60.1761
 31
0.0
  0
LINE
  8
0
 62
     0
 10
283.964
 20
60.1761
 30
0.0
 11
280.814
 21
60.1761
 31
0.0
  0
LINE
  8
0
 62
     0
 10
280.814
 20
60.1761
 30
0.0
 11
280.814
 21
59.2571
 31
0.0
  0
LINE
  8
0
 62
     0
 10
280.814
 20
59.2571
 30
0.0
 11
279.088
 21
59.2571
 31
0.0
  0
LINE
  8
0
 62
     0
 10
279.088
 20
59.2571
 30
0.0
 11
279.088
 21
56.0268
 31
0.0
  0
LINE
  8
0
 62
     0
 10
279.088
 20
56.0268
 30
0.0
 11
277.413
 21
56.0268
 31
0.0
  0
LINE
  8
0
 62
     0
 10
277.413
 20
56.0268
 30
0.0
 11
277.413
 21
56.7764
 31
0.0
  0
LINE
  8
0
 62
     0
 10
277.413
 20
56.7764
 30
0.0
 11
278.214
 21
56.7764
 31
0.0
  0
LINE
  8
0
 62
     0
 10
278.214
 20
56.7764
 30
0.0
 11
278.214
 21
59.727
 31
0.0
  0
LINE
  8
0
 62
     0
 10
278.214
 20
59.727
 30
0.0
 11
277.413
 21
59.727
 31
0.0
  0
LINE
  8
0
 62
     0
 10
277.413
 20
59.727
 30
0.0
 11
277.413
 21
60.7275
 31
0.0
  0
LINE
  8
0
 62
     0
 10
277.413
 20
60.7275
 30
0.0
 11
263.563
 21
60.7275
 31
0.0
  0
LINE
  8
0
 62
     0
 10
294.52
 20
60.7275
 30
0.0
 11
294.52
 21
59.727
 31
0.0
  0
LINE
  8
0
 62
     0
 10
294.52
 20
59.727
 30
0.0
 11
293.721
 21
59.727
 31
0.0
  0
LINE
  8
0
 62
     0
 10
293.721
 20
59.727
 30
0.0
 11
293.721
 21
56.7764
 31
0.0
  0
LINE
  8
0
 62
     0
 10
293.721
 20
56.7764
 30
0.0
 11
294.52
 21
56.7764
 31
0.0
  0
LINE
  8
0
 62
     0
 10
294.52
 20
56.7764
 30
0.0
 11
294.52
 21
50.8261
 31
0.0
  0
LINE
  8
0
 62
     0
 10
294.52
 20
50.8261
 30
0.0
 11
293.721
 21
50.8261
 31
0.0
  0
LINE
  8
0
 62
     0
 10
293.721
 20
50.8261
 30
0.0
 11
293.721
 21
47.8772
 31
0.0
  0
LINE
  8
0
 62
     0
 10
293.721
 20
47.8772
 30
0.0
 11
294.52
 21
47.8772
 31
0.0
  0
LINE
  8
0
 62
     0
 10
294.52
 20
47.8772
 30
0.0
 11
294.52
 21
46.8768
 31
0.0
  0
LINE
  8
0
 62
     0
 10
294.52
 20
46.8768
 30
0.0
 11
308.37
 21
46.8768
 31
0.0
  0
LINE
  8
0
 62
     0
 10
308.37
 20
46.8768
 30
0.0
 11
308.37
 21
47.8772
 31
0.0
  0
LINE
  8
0
 62
     0
 10
308.37
 20
47.8772
 30
0.0
 11
309.171
 21
47.8772
 31
0.0
  0
LINE
  8
0
 62
     0
 10
309.171
 20
47.8772
 30
0.0
 11
309.171
 21
50.8261
 31
0.0
  0
LINE
  8
0
 62
     0
 10
309.171
 20
50.8261
 30
0.0
 11
308.37
 21
50.8261
 31
0.0
  0
LINE
  8
0
 62
     0
 10
308.37
 20
50.8261
 30
0.0
 11
308.37
 21
56.7764
 31
0.0
  0
LINE
  8
0
 62
     0
 10
308.37
 20
56.7764
 30
0.0
 11
309.171
 21
56.7764
 31
0.0
  0
LINE
  8
0
 62
     0
 10
309.171
 20
56.7764
 30
0.0
 11
309.171
 21
59.727
 31
0.0
  0
LINE
  8
0
 62
     0
 10
309.171
 20
59.727
 30
0.0
 11
308.37
 21
59.727
 31
0.0
  0
LINE
  8
0
 62
     0
 10
308.37
 20
59.727
 30
0.0
 11
308.37
 21
60.7275
 31
0.0
  0
LINE
  8
0
 62
     0
 10
308.37
 20
60.7275
 30
0.0
 11
294.52
 21
60.7275
 31
0.0
  0
LINE
  8
0
 62
     0
 10
232.607
 20
60.7275
 30
0.0
 11
232.607
 21
59.727
 31
0.0
  0
LINE
  8
0
 62
     0
 10
232.607
 20
59.727
 30
0.0
 11
231.808
 21
59.727
 31
0.0
  0
LINE
  8
0
 62
     0
 10
231.808
 20
59.727
 30
0.0
 11
231.808
 21
56.7764
 31
0.0
  0
LINE
  8
0
 62
     0
 10
231.808
 20
56.7764
 30
0.0
 11
232.607
 21
56.7764
 31
0.0
  0
LINE
  8
0
 62
     0
 10
232.607
 20
56.7764
 30
0.0
 11
232.607
 21
50.8261
 31
0.0
  0
LINE
  8
0
 62
     0
 10
232.607
 20
50.8261
 30
0.0
 11
231.808
 21
50.8261
 31
0.0
  0
LINE
  8
0
 62
     0
 10
231.808
 20
50.8261
 30
0.0
 11
231.808
 21
47.8772
 31
0.0
  0
LINE
  8
0
 62
     0
 10
231.808
 20
47.8772
 30
0.0
 11
232.607
 21
47.8772
 31
0.0
  0
LINE
  8
0
 62
     0
 10
232.607
 20
47.8772
 30
0.0
 11
232.607
 21
46.8768
 31
0.0
  0
LINE
  8
0
 62
     0
 10
232.607
 20
46.8768
 30
0.0
 11
246.458
 21
46.8768
 31
0.0
  0
LINE
  8
0
 62
     0
 10
246.458
 20
46.8768
 30
0.0
 11
246.458
 21
47.8772
 31
0.0
  0
LINE
  8
0
 62
     0
 10
246.458
 20
47.8772
 30
0.0
 11
247.257
 21
47.8772
 31
0.0
  0
LINE
  8
0
 62
     0
 10
247.257
 20
47.8772
 30
0.0
 11
247.257
 21
50.8261
 31
0.0
  0
LINE
  8
0
 62
     0
 10
247.257
 20
50.8261
 30
0.0
 11
246.458
 21
50.8261
 31
0.0
  0
LINE
  8
0
 62
     0
 10
246.458
 20
50.8261
 30
0.0
 11
246.458
 21
56.7764
 31
0.0
  0
LINE
  8
0
 62
     0
 10
246.458
 20
56.7764
 30
0.0
 11
247.257
 21
56.7764
 31
0.0
  0
LINE
  8
0
 62
     0
 10
247.257
 20
56.7764
 30
0.0
 11
247.257
 21
59.727
 31
0.0
  0
LINE
  8
0
 62
     0
 10
247.257
 20
59.727
 30
0.0
 11
246.458
 21
59.727
 31
0.0
  0
LINE
  8
0
 62
     0
 10
246.458
 20
59.727
 30
0.0
 11
246.458
 21
60.7275
 31
0.0
  0
LINE
  8
0
 62
     0
 10
246.458
 20
60.7275
 30
0.0
 11
232.607
 21
60.7275
 31
0.0
  0
LINE
  8
0
 62
     0
 10
213.557
 20
60.7275
 30
0.0
 11
213.557
 21
59.727
 31
0.0
  0
LINE
  8
0
 62
     0
 10
213.557
 20
59.727
 30
0.0
 11
212.758
 21
59.727
 31
0.0
  0
LINE
  8
0
 62
     0
 10
212.758
 20
59.727
 30
0.0
 11
212.758
 21
56.7764
 31
0.0
  0
LINE
  8
0
 62
     0
 10
212.758
 20
56.7764
 30
0.0
 11
213.557
 21
56.7764
 31
0.0
  0
LINE
  8
0
 62
     0
 10
213.557
 20
56.7764
 30
0.0
 11
213.557
 21
50.8261
 31
0.0
  0
LINE
  8
0
 62
     0
 10
213.557
 20
50.8261
 30
0.0
 11
212.758
 21
50.8261
 31
0.0
  0
LINE
  8
0
 62
     0
 10
212.758
 20
50.8261
 30
0.0
 11
212.758
 21
47.8772
 31
0.0
  0
LINE
  8
0
 62
     0
 10
212.758
 20
47.8772
 30
0.0
 11
213.557
 21
47.8772
 31
0.0
  0
LINE
  8
0
 62
     0
 10
213.557
 20
47.8772
 30
0.0
 11
213.557
 21
46.8768
 31
0.0
  0
LINE
  8
0
 62
     0
 10
213.557
 20
46.8768
 30
0.0
 11
227.408
 21
46.8768
 31
0.0
  0
LINE
  8
0
 62
     0
 10
227.408
 20
46.8768
 30
0.0
 11
227.408
 21
47.8772
 31
0.0
  0
LINE
  8
0
 62
     0
 10
227.408
 20
47.8772
 30
0.0
 11
228.207
 21
47.8772
 31
0.0
  0
LINE
  8
0
 62
     0
 10
228.207
 20
47.8772
 30
0.0
 11
228.207
 21
50.8261
 31
0.0
  0
LINE
  8
0
 62
     0
 10
228.207
 20
50.8261
 30
0.0
 11
227.408
 21
50.8261
 31
0.0
  0
LINE
  8
0
 62
     0
 10
227.408
 20
50.8261
 30
0.0
 11
227.408
 21
56.7764
 31
0.0
  0
LINE
  8
0
 62
     0
 10
227.408
 20
56.7764
 30
0.0
 11
228.207
 21
56.7764
 31
0.0
  0
LINE
  8
0
 62
     0
 10
228.207
 20
56.7764
 30
0.0
 11
228.207
 21
59.727
 31
0.0
  0
LINE
  8
0
 62
     0
 10
228.207
 20
59.727
 30
0.0
 11
227.408
 21
59.727
 31
0.0
  0
LINE
  8
0
 62
     0
 10
227.408
 20
59.727
 30
0.0
 11
227.408
 21
60.7275
 31
0.0
  0
LINE
  8
0
 62
     0
 10
227.408
 20
60.7275
 30
0.0
 11
213.557
 21
60.7275
 31
0.0
  0
LINE
  8
0
 62
     0
 10
194.507
 20
60.7275
 30
0.0
 11
194.507
 21
59.727
 31
0.0
  0
LINE
  8
0
 62
     0
 10
194.507
 20
59.727
 30
0.0
 11
193.708
 21
59.727
 31
0.0
  0
LINE
  8
0
 62
     0
 10
193.708
 20
59.727
 30
0.0
 11
193.708
 21
56.7764
 31
0.0
  0
LINE
  8
0
 62
     0
 10
193.708
 20
56.7764
 30
0.0
 11
194.507
 21
56.7764
 31
0.0
  0
LINE
  8
0
 62
     0
 10
194.507
 20
56.7764
 30
0.0
 11
194.507
 21
50.8261
 31
0.0
  0
LINE
  8
0
 62
     0
 10
194.507
 20
50.8261
 30
0.0
 11
193.708
 21
50.8261
 31
0.0
  0
LINE
  8
0
 62
     0
 10
193.708
 20
50.8261
 30
0.0
 11
193.708
 21
47.8772
 31
0.0
  0
LINE
  8
0
 62
     0
 10
193.708
 20
47.8772
 30
0.0
 11
194.507
 21
47.8772
 31
0.0
  0
LINE
  8
0
 62
     0
 10
194.507
 20
47.8772
 30
0.0
 11
194.507
 21
46.8768
 31
0.0
  0
LINE
  8
0
 62
     0
 10
194.507
 20
46.8768
 30
0.0
 11
208.358
 21
46.8768
 31
0.0
  0
LINE
  8
0
 62
     0
 10
208.358
 20
46.8768
 30
0.0
 11
208.358
 21
47.8772
 31
0.0
  0
LINE
  8
0
 62
     0
 10
208.358
 20
47.8772
 30
0.0
 11
209.157
 21
47.8772
 31
0.0
  0
LINE
  8
0
 62
     0
 10
209.157
 20
47.8772
 30
0.0
 11
209.157
 21
50.8261
 31
0.0
  0
LINE
  8
0
 62
     0
 10
209.157
 20
50.8261
 30
0.0
 11
208.358
 21
50.8261
 31
0.0
  0
LINE
  8
0
 62
     0
 10
208.358
 20
50.8261
 30
0.0
 11
208.358
 21
56.7764
 31
0.0
  0
LINE
  8
0
 62
     0
 10
208.358
 20
56.7764
 30
0.0
 11
209.157
 21
56.7764
 31
0.0
  0
LINE
  8
0
 62
     0
 10
209.157
 20
56.7764
 30
0.0
 11
209.157
 21
59.727
 31
0.0
  0
LINE
  8
0
 62
     0
 10
209.157
 20
59.727
 30
0.0
 11
208.358
 21
59.727
 31
0.0
  0
LINE
  8
0
 62
     0
 10
208.358
 20
59.727
 30
0.0
 11
208.358
 21
60.7275
 31
0.0
  0
LINE
  8
0
 62
     0
 10
208.358
 20
60.7275
 30
0.0
 11
194.507
 21
60.7275
 31
0.0
  0
LINE
  8
0
 62
     0
 10
175.457
 20
60.7275
 30
0.0
 11
175.457
 21
59.727
 31
0.0
  0
LINE
  8
0
 62
     0
 10
175.457
 20
59.727
 30
0.0
 11
174.658
 21
59.727
 31
0.0
  0
LINE
  8
0
 62
     0
 10
174.658
 20
59.727
 30
0.0
 11
174.658
 21
56.7764
 31
0.0
  0
LINE
  8
0
 62
     0
 10
174.658
 20
56.7764
 30
0.0
 11
175.457
 21
56.7764
 31
0.0
  0
LINE
  8
0
 62
     0
 10
175.457
 20
56.7764
 30
0.0
 11
175.457
 21
50.8261
 31
0.0
  0
LINE
  8
0
 62
     0
 10
175.457
 20
50.8261
 30
0.0
 11
174.658
 21
50.8261
 31
0.0
  0
LINE
  8
0
 62
     0
 10
174.658
 20
50.8261
 30
0.0
 11
174.658
 21
47.8772
 31
0.0
  0
LINE
  8
0
 62
     0
 10
174.658
 20
47.8772
 30
0.0
 11
175.457
 21
47.8772
 31
0.0
  0
LINE
  8
0
 62
     0
 10
175.457
 20
47.8772
 30
0.0
 11
175.457
 21
46.8768
 31
0.0
  0
LINE
  8
0
 62
     0
 10
175.457
 20
46.8768
 30
0.0
 11
189.308
 21
46.8768
 31
0.0
  0
LINE
  8
0
 62
     0
 10
189.308
 20
46.8768
 30
0.0
 11
189.308
 21
47.8772
 31
0.0
  0
LINE
  8
0
 62
     0
 10
189.308
 20
47.8772
 30
0.0
 11
190.107
 21
47.8772
 31
0.0
  0
LINE
  8
0
 62
     0
 10
190.107
 20
47.8772
 30
0.0
 11
190.107
 21
50.8261
 31
0.0
  0
LINE
  8
0
 62
     0
 10
190.107
 20
50.8261
 30
0.0
 11
189.308
 21
50.8261
 31
0.0
  0
LINE
  8
0
 62
     0
 10
189.308
 20
50.8261
 30
0.0
 11
189.308
 21
56.7764
 31
0.0
  0
LINE
  8
0
 62
     0
 10
189.308
 20
56.7764
 30
0.0
 11
190.107
 21
56.7764
 31
0.0
  0
LINE
  8
0
 62
     0
 10
190.107
 20
56.7764
 30
0.0
 11
190.107
 21
59.727
 31
0.0
  0
LINE
  8
0
 62
     0
 10
190.107
 20
59.727
 30
0.0
 11
189.308
 21
59.727
 31
0.0
  0
LINE
  8
0
 62
     0
 10
189.308
 20
59.727
 30
0.0
 11
189.308
 21
60.7275
 31
0.0
  0
LINE
  8
0
 62
     0
 10
189.308
 20
60.7275
 30
0.0
 11
175.457
 21
60.7275
 31
0.0
  0
LINE
  8
0
 62
     0
 10
156.407
 20
60.7275
 30
0.0
 11
156.407
 21
59.727
 31
0.0
  0
LINE
  8
0
 62
     0
 10
156.407
 20
59.727
 30
0.0
 11
155.608
 21
59.727
 31
0.0
  0
LINE
  8
0
 62
     0
 10
155.608
 20
59.727
 30
0.0
 11
155.608
 21
56.7764
 31
0.0
  0
LINE
  8
0
 62
     0
 10
155.608
 20
56.7764
 30
0.0
 11
156.407
 21
56.7764
 31
0.0
  0
LINE
  8
0
 62
     0
 10
156.407
 20
56.7764
 30
0.0
 11
156.407
 21
50.8261
 31
0.0
  0
LINE
  8
0
 62
     0
 10
156.407
 20
50.8261
 30
0.0
 11
155.608
 21
50.8261
 31
0.0
  0
LINE
  8
0
 62
     0
 10
155.608
 20
50.8261
 30
0.0
 11
155.608
 21
47.8772
 31
0.0
  0
LINE
  8
0
 62
     0
 10
155.608
 20
47.8772
 30
0.0
 11
156.407
 21
47.8772
 31
0.0
  0
LINE
  8
0
 62
     0
 10
156.407
 20
47.8772
 30
0.0
 11
156.407
 21
46.8768
 31
0.0
  0
LINE
  8
0
 62
     0
 10
156.407
 20
46.8768
 30
0.0
 11
170.258
 21
46.8768
 31
0.0
  0
LINE
  8
0
 62
     0
 10
170.258
 20
46.8768
 30
0.0
 11
170.258
 21
47.8772
 31
0.0
  0
LINE
  8
0
 62
     0
 10
170.258
 20
47.8772
 30
0.0
 11
171.057
 21
47.8772
 31
0.0
  0
LINE
  8
0
 62
     0
 10
171.057
 20
47.8772
 30
0.0
 11
171.057
 21
50.8261
 31
0.0
  0
LINE
  8
0
 62
     0
 10
171.057
 20
50.8261
 30
0.0
 11
170.258
 21
50.8261
 31
0.0
  0
LINE
  8
0
 62
     0
 10
170.258
 20
50.8261
 30
0.0
 11
170.258
 21
56.7764
 31
0.0
  0
LINE
  8
0
 62
     0
 10
170.258
 20
56.7764
 30
0.0
 11
171.057
 21
56.7764
 31
0.0
  0
LINE
  8
0
 62
     0
 10
171.057
 20
56.7764
 30
0.0
 11
171.057
 21
59.727
 31
0.0
  0
LINE
  8
0
 62
     0
 10
171.057
 20
59.727
 30
0.0
 11
170.258
 21
59.727
 31
0.0
  0
LINE
  8
0
 62
     0
 10
170.258
 20
59.727
 30
0.0
 11
170.258
 21
60.7275
 31
0.0
  0
LINE
  8
0
 62
     0
 10
170.258
 20
60.7275
 30
0.0
 11
156.407
 21
60.7275
 31
0.0
  0
LINE
  8
0
 62
     0
 10
137.357
 20
60.7275
 30
0.0
 11
137.357
 21
59.727
 31
0.0
  0
LINE
  8
0
 62
     0
 10
137.357
 20
59.727
 30
0.0
 11
136.558
 21
59.727
 31
0.0
  0
LINE
  8
0
 62
     0
 10
136.558
 20
59.727
 30
0.0
 11
136.558
 21
56.7764
 31
0.0
  0
LINE
  8
0
 62
     0
 10
136.558
 20
56.7764
 30
0.0
 11
137.357
 21
56.7764
 31
0.0
  0
LINE
  8
0
 62
     0
 10
137.357
 20
56.7764
 30
0.0
 11
137.357
 21
50.8261
 31
0.0
  0
LINE
  8
0
 62
     0
 10
137.357
 20
50.8261
 30
0.0
 11
136.558
 21
50.8261
 31
0.0
  0
LINE
  8
0
 62
     0
 10
136.558
 20
50.8261
 30
0.0
 11
136.558
 21
47.8772
 31
0.0
  0
LINE
  8
0
 62
     0
 10
136.558
 20
47.8772
 30
0.0
 11
137.357
 21
47.8772
 31
0.0
  0
LINE
  8
0
 62
     0
 10
137.357
 20
47.8772
 30
0.0
 11
137.357
 21
46.8768
 31
0.0
  0
LINE
  8
0
 62
     0
 10
137.357
 20
46.8768
 30
0.0
 11
151.208
 21
46.8768
 31
0.0
  0
LINE
  8
0
 62
     0
 10
151.208
 20
46.8768
 30
0.0
 11
151.208
 21
47.8772
 31
0.0
  0
LINE
  8
0
 62
     0
 10
151.208
 20
47.8772
 30
0.0
 11
152.007
 21
47.8772
 31
0.0
  0
LINE
  8
0
 62
     0
 10
152.007
 20
47.8772
 30
0.0
 11
152.007
 21
50.8261
 31
0.0
  0
LINE
  8
0
 62
     0
 10
152.007
 20
50.8261
 30
0.0
 11
151.208
 21
50.8261
 31
0.0
  0
LINE
  8
0
 62
     0
 10
151.208
 20
50.8261
 30
0.0
 11
151.208
 21
56.7764
 31
0.0
  0
LINE
  8
0
 62
     0
 10
151.208
 20
56.7764
 30
0.0
 11
152.007
 21
56.7764
 31
0.0
  0
LINE
  8
0
 62
     0
 10
152.007
 20
56.7764
 30
0.0
 11
152.007
 21
59.727
 31
0.0
  0
LINE
  8
0
 62
     0
 10
152.007
 20
59.727
 30
0.0
 11
151.208
 21
59.727
 31
0.0
  0
LINE
  8
0
 62
     0
 10
151.208
 20
59.727
 30
0.0
 11
151.208
 21
60.7275
 31
0.0
  0
LINE
  8
0
 62
     0
 10
151.208
 20
60.7275
 30
0.0
 11
137.357
 21
60.7275
 31
0.0
  0
LINE
  8
0
 62
     0
 10
118.307
 20
60.7275
 30
0.0
 11
118.307
 21
59.727
 31
0.0
  0
LINE
  8
0
 62
     0
 10
118.307
 20
59.727
 30
0.0
 11
117.508
 21
59.727
 31
0.0
  0
LINE
  8
0
 62
     0
 10
117.508
 20
59.727
 30
0.0
 11
117.508
 21
56.7764
 31
0.0
  0
LINE
  8
0
 62
     0
 10
117.508
 20
56.7764
 30
0.0
 11
118.307
 21
56.7764
 31
0.0
  0
LINE
  8
0
 62
     0
 10
118.307
 20
56.7764
 30
0.0
 11
118.307
 21
50.8261
 31
0.0
  0
LINE
  8
0
 62
     0
 10
118.307
 20
50.8261
 30
0.0
 11
117.508
 21
50.8261
 31
0.0
  0
LINE
  8
0
 62
     0
 10
117.508
 20
50.8261
 30
0.0
 11
117.508
 21
47.8772
 31
0.0
  0
LINE
  8
0
 62
     0
 10
117.508
 20
47.8772
 30
0.0
 11
118.307
 21
47.8772
 31
0.0
  0
LINE
  8
0
 62
     0
 10
118.307
 20
47.8772
 30
0.0
 11
118.307
 21
46.8768
 31
0.0
  0
LINE
  8
0
 62
     0
 10
118.307
 20
46.8768
 30
0.0
 11
132.158
 21
46.8768
 31
0.0
  0
LINE
  8
0
 62
     0
 10
132.158
 20
46.8768
 30
0.0
 11
132.158
 21
47.8772
 31
0.0
  0
LINE
  8
0
 62
     0
 10
132.158
 20
47.8772
 30
0.0
 11
132.957
 21
47.8772
 31
0.0
  0
LINE
  8
0
 62
     0
 10
132.957
 20
47.8772
 30
0.0
 11
132.957
 21
50.8261
 31
0.0
  0
LINE
  8
0
 62
     0
 10
132.957
 20
50.8261
 30
0.0
 11
132.158
 21
50.8261
 31
0.0
  0
LINE
  8
0
 62
     0
 10
132.158
 20
50.8261
 30
0.0
 11
132.158
 21
56.7764
 31
0.0
  0
LINE
  8
0
 62
     0
 10
132.158
 20
56.7764
 30
0.0
 11
132.957
 21
56.7764
 31
0.0
  0
LINE
  8
0
 62
     0
 10
132.957
 20
56.7764
 30
0.0
 11
132.957
 21
59.727
 31
0.0
  0
LINE
  8
0
 62
     0
 10
132.957
 20
59.727
 30
0.0
 11
132.158
 21
59.727
 31
0.0
  0
LINE
  8
0
 62
     0
 10
132.158
 20
59.727
 30
0.0
 11
132.158
 21
60.7275
 31
0.0
  0
LINE
  8
0
 62
     0
 10
132.158
 20
60.7275
 30
0.0
 11
118.307
 21
60.7275
 31
0.0
  0
LINE
  8
0
 62
     0
 10
99.2572
 20
60.7275
 30
0.0
 11
99.2572
 21
59.727
 31
0.0
  0
LINE
  8
0
 62
     0
 10
99.2572
 20
59.727
 30
0.0
 11
98.4582
 21
59.727
 31
0.0
  0
LINE
  8
0
 62
     0
 10
98.4582
 20
59.727
 30
0.0
 11
98.4582
 21
56.7764
 31
0.0
  0
LINE
  8
0
 62
     0
 10
98.4582
 20
56.7764
 30
0.0
 11
99.2572
 21
56.7764
 31
0.0
  0
LINE
  8
0
 62
     0
 10
99.2572
 20
56.7764
 30
0.0
 11
99.2572
 21
50.8261
 31
0.0
  0
LINE
  8
0
 62
     0
 10
99.2572
 20
50.8261
 30
0.0
 11
98.4582
 21
50.8261
 31
0.0
  0
LINE
  8
0
 62
     0
 10
98.4582
 20
50.8261
 30
0.0
 11
98.4582
 21
47.8772
 31
0.0
  0
LINE
  8
0
 62
     0
 10
98.4582
 20
47.8772
 30
0.0
 11
99.2572
 21
47.8772
 31
0.0
  0
LINE
  8
0
 62
     0
 10
99.2572
 20
47.8772
 30
0.0
 11
99.2572
 21
46.8768
 31
0.0
  0
LINE
  8
0
 62
     0
 10
99.2572
 20
46.8768
 30
0.0
 11
113.108
 21
46.8768
 31
0.0
  0
LINE
  8
0
 62
     0
 10
113.108
 20
46.8768
 30
0.0
 11
113.108
 21
47.8772
 31
0.0
  0
LINE
  8
0
 62
     0
 10
113.108
 20
47.8772
 30
0.0
 11
113.907
 21
47.8772
 31
0.0
  0
LINE
  8
0
 62
     0
 10
113.907
 20
47.8772
 30
0.0
 11
113.907
 21
50.8261
 31
0.0
  0
LINE
  8
0
 62
     0
 10
113.907
 20
50.8261
 30
0.0
 11
113.108
 21
50.8261
 31
0.0
  0
LINE
  8
0
 62
     0
 10
113.108
 20
50.8261
 30
0.0
 11
113.108
 21
56.7764
 31
0.0
  0
LINE
  8
0
 62
     0
 10
113.108
 20
56.7764
 30
0.0
 11
113.907
 21
56.7764
 31
0.0
  0
LINE
  8
0
 62
     0
 10
113.907
 20
56.7764
 30
0.0
 11
113.907
 21
59.727
 31
0.0
  0
LINE
  8
0
 62
     0
 10
113.907
 20
59.727
 30
0.0
 11
113.108
 21
59.727
 31
0.0
  0
LINE
  8
0
 62
     0
 10
113.108
 20
59.727
 30
0.0
 11
113.108
 21
60.7275
 31
0.0
  0
LINE
  8
0
 62
     0
 10
113.108
 20
60.7275
 30
0.0
 11
99.2572
 21
60.7275
 31
0.0
  0
LINE
  8
0
 62
     0
 10
80.2072
 20
60.7275
 30
0.0
 11
80.2072
 21
59.727
 31
0.0
  0
LINE
  8
0
 62
     0
 10
80.2072
 20
59.727
 30
0.0
 11
79.4082
 21
59.727
 31
0.0
  0
LINE
  8
0
 62
     0
 10
79.4082
 20
59.727
 30
0.0
 11
79.4082
 21
56.7764
 31
0.0
  0
LINE
  8
0
 62
     0
 10
79.4082
 20
56.7764
 30
0.0
 11
80.2072
 21
56.7764
 31
0.0
  0
LINE
  8
0
 62
     0
 10
80.2072
 20
56.7764
 30
0.0
 11
80.2072
 21
50.8261
 31
0.0
  0
LINE
  8
0
 62
     0
 10
80.2072
 20
50.8261
 30
0.0
 11
79.4082
 21
50.8261
 31
0.0
  0
LINE
  8
0
 62
     0
 10
79.4082
 20
50.8261
 30
0.0
 11
79.4082
 21
47.8772
 31
0.0
  0
LINE
  8
0
 62
     0
 10
79.4082
 20
47.8772
 30
0.0
 11
80.2072
 21
47.8772
 31
0.0
  0
LINE
  8
0
 62
     0
 10
80.2072
 20
47.8772
 30
0.0
 11
80.2072
 21
46.8768
 31
0.0
  0
LINE
  8
0
 62
     0
 10
80.2072
 20
46.8768
 30
0.0
 11
94.058
 21
46.8768
 31
0.0
  0
LINE
  8
0
 62
     0
 10
94.058
 20
46.8768
 30
0.0
 11
94.058
 21
47.8772
 31
0.0
  0
LINE
  8
0
 62
     0
 10
94.058
 20
47.8772
 30
0.0
 11
94.8574
 21
47.8772
 31
0.0
  0
LINE
  8
0
 62
     0
 10
94.8574
 20
47.8772
 30
0.0
 11
94.8574
 21
50.8261
 31
0.0
  0
LINE
  8
0
 62
     0
 10
94.8574
 20
50.8261
 30
0.0
 11
94.058
 21
50.8261
 31
0.0
  0
LINE
  8
0
 62
     0
 10
94.058
 20
50.8261
 30
0.0
 11
94.058
 21
56.7764
 31
0.0
  0
LINE
  8
0
 62
     0
 10
94.058
 20
56.7764
 30
0.0
 11
94.8574
 21
56.7764
 31
0.0
  0
LINE
  8
0
 62
     0
 10
94.8574
 20
56.7764
 30
0.0
 11
94.8574
 21
59.727
 31
0.0
  0
LINE
  8
0
 62
     0
 10
94.8574
 20
59.727
 30
0.0
 11
94.058
 21
59.727
 31
0.0
  0
LINE
  8
0
 62
     0
 10
94.058
 20
59.727
 30
0.0
 11
94.058
 21
60.7275
 31
0.0
  0
LINE
  8
0
 62
     0
 10
94.058
 20
60.7275
 30
0.0
 11
80.2072
 21
60.7275
 31
0.0
  0
LINE
  8
0
 62
     0
 10
61.1572
 20
60.7275
 30
0.0
 11
61.1572
 21
59.727
 31
0.0
  0
LINE
  8
0
 62
     0
 10
61.1572
 20
59.727
 30
0.0
 11
60.3582
 21
59.727
 31
0.0
  0
LINE
  8
0
 62
     0
 10
60.3582
 20
59.727
 30
0.0
 11
60.3582
 21
56.7764
 31
0.0
  0
LINE
  8
0
 62
     0
 10
60.3582
 20
56.7764
 30
0.0
 11
61.1572
 21
56.7764
 31
0.0
  0
LINE
  8
0
 62
     0
 10
61.1572
 20
56.7764
 30
0.0
 11
61.1572
 21
50.8261
 31
0.0
  0
LINE
  8
0
 62
     0
 10
61.1572
 20
50.8261
 30
0.0
 11
60.3582
 21
50.8261
 31
0.0
  0
LINE
  8
0
 62
     0
 10
60.3582
 20
50.8261
 30
0.0
 11
60.3582
 21
47.8772
 31
0.0
  0
LINE
  8
0
 62
     0
 10
60.3582
 20
47.8772
 30
0.0
 11
61.1572
 21
47.8772
 31
0.0
  0
LINE
  8
0
 62
     0
 10
61.1572
 20
47.8772
 30
0.0
 11
61.1572
 21
46.8768
 31
0.0
  0
LINE
  8
0
 62
     0
 10
61.1572
 20
46.8768
 30
0.0
 11
75.008
 21
46.8768
 31
0.0
  0
LINE
  8
0
 62
     0
 10
75.008
 20
46.8768
 30
0.0
 11
75.008
 21
47.8772
 31
0.0
  0
LINE
  8
0
 62
     0
 10
75.008
 20
47.8772
 30
0.0
 11
75.8074
 21
47.8772
 31
0.0
  0
LINE
  8
0
 62
     0
 10
75.8074
 20
47.8772
 30
0.0
 11
75.8074
 21
50.8261
 31
0.0
  0
LINE
  8
0
 62
     0
 10
75.8074
 20
50.8261
 30
0.0
 11
75.008
 21
50.8261
 31
0.0
  0
LINE
  8
0
 62
     0
 10
75.008
 20
50.8261
 30
0.0
 11
75.008
 21
56.7764
 31
0.0
  0
LINE
  8
0
 62
     0
 10
75.008
 20
56.7764
 30
0.0
 11
75.8074
 21
56.7764
 31
0.0
  0
LINE
  8
0
 62
     0
 10
75.8074
 20
56.7764
 30
0.0
 11
75.8074
 21
59.727
 31
0.0
  0
LINE
  8
0
 62
     0
 10
75.8074
 20
59.727
 30
0.0
 11
75.008
 21
59.727
 31
0.0
  0
LINE
  8
0
 62
     0
 10
75.008
 20
59.727
 30
0.0
 11
75.008
 21
60.7275
 31
0.0
  0
LINE
  8
0
 62
     0
 10
75.008
 20
60.7275
 30
0.0
 11
61.1572
 21
60.7275
 31
0.0
  0
LINE
  8
0
 62
     0
 10
42.1072
 20
60.7275
 30
0.0
 11
42.1072
 21
59.727
 31
0.0
  0
LINE
  8
0
 62
     0
 10
42.1072
 20
59.727
 30
0.0
 11
41.3082
 21
59.727
 31
0.0
  0
LINE
  8
0
 62
     0
 10
41.3082
 20
59.727
 30
0.0
 11
41.3082
 21
56.7764
 31
0.0
  0
LINE
  8
0
 62
     0
 10
41.3082
 20
56.7764
 30
0.0
 11
42.1072
 21
56.7764
 31
0.0
  0
LINE
  8
0
 62
     0
 10
42.1072
 20
56.7764
 30
0.0
 11
42.1072
 21
50.8261
 31
0.0
  0
LINE
  8
0
 62
     0
 10
42.1072
 20
50.8261
 30
0.0
 11
41.3082
 21
50.8261
 31
0.0
  0
LINE
  8
0
 62
     0
 10
41.3082
 20
50.8261
 30
0.0
 11
41.3082
 21
47.8772
 31
0.0
  0
LINE
  8
0
 62
     0
 10
41.3082
 20
47.8772
 30
0.0
 11
42.1072
 21
47.8772
 31
0.0
  0
LINE
  8
0
 62
     0
 10
42.1072
 20
47.8772
 30
0.0
 11
42.1072
 21
46.8768
 31
0.0
  0
LINE
  8
0
 62
     0
 10
42.1072
 20
46.8768
 30
0.0
 11
55.958
 21
46.8768
 31
0.0
  0
LINE
  8
0
 62
     0
 10
55.958
 20
46.8768
 30
0.0
 11
55.958
 21
47.8772
 31
0.0
  0
LINE
  8
0
 62
     0
 10
55.958
 20
47.8772
 30
0.0
 11
56.7574
 21
47.8772
 31
0.0
  0
LINE
  8
0
 62
     0
 10
56.7574
 20
47.8772
 30
0.0
 11
56.7574
 21
50.8261
 31
0.0
  0
LINE
  8
0
 62
     0
 10
56.7574
 20
50.8261
 30
0.0
 11
55.958
 21
50.8261
 31
0.0
  0
LINE
  8
0
 62
     0
 10
55.958
 20
50.8261
 30
0.0
 11
55.958
 21
56.7764
 31
0.0
  0
LINE
  8
0
 62
     0
 10
55.958
 20
56.7764
 30
0.0
 11
56.7574
 21
56.7764
 31
0.0
  0
LINE
  8
0
 62
     0
 10
56.7574
 20
56.7764
 30
0.0
 11
56.7574
 21
59.727
 31
0.0
  0
LINE
  8
0
 62
     0
 10
56.7574
 20
59.727
 30
0.0
 11
55.958
 21
59.727
 31
0.0
  0
LINE
  8
0
 62
     0
 10
55.958
 20
59.727
 30
0.0
 11
55.958
 21
60.7275
 31
0.0
  0
LINE
  8
0
 62
     0
 10
55.958
 20
60.7275
 30
0.0
 11
42.1072
 21
60.7275
 31
0.0
  0
LINE
  8
0
 62
     0
 10
15.9136
 20
60.7275
 30
0.0
 11
15.9136
 21
59.727
 31
0.0
  0
LINE
  8
0
 62
     0
 10
15.9136
 20
59.727
 30
0.0
 11
15.1129
 21
59.727
 31
0.0
  0
LINE
  8
0
 62
     0
 10
15.1129
 20
59.727
 30
0.0
 11
15.1129
 21
56.7764
 31
0.0
  0
LINE
  8
0
 62
     0
 10
15.1129
 20
56.7764
 30
0.0
 11
15.9136
 21
56.7764
 31
0.0
  0
LINE
  8
0
 62
     0
 10
15.9136
 20
56.7764
 30
0.0
 11
15.9136
 21
50.8261
 31
0.0
  0
LINE
  8
0
 62
     0
 10
15.9136
 20
50.8261
 30
0.0
 11
15.1129
 21
50.8261
 31
0.0
  0
LINE
  8
0
 62
     0
 10
15.1129
 20
50.8261
 30
0.0
 11
15.1129
 21
47.8772
 31
0.0
  0
LINE
  8
0
 62
     0
 10
15.1129
 20
47.8772
 30
0.0
 11
15.9136
 21
47.8772
 31
0.0
  0
LINE
  8
0
 62
     0
 10
15.9136
 20
47.8772
 30
0.0
 11
15.9136
 21
46.8768
 31
0.0
  0
LINE
  8
0
 62
     0
 10
15.9136
 20
46.8768
 30
0.0
 11
29.7629
 21
46.8768
 31
0.0
  0
LINE
  8
0
 62
     0
 10
29.7629
 20
46.8768
 30
0.0
 11
29.7629
 21
47.8772
 31
0.0
  0
LINE
  8
0
 62
     0
 10
29.7629
 20
47.8772
 30
0.0
 11
30.5635
 21
47.8772
 31
0.0
  0
LINE
  8
0
 62
     0
 10
30.5635
 20
47.8772
 30
0.0
 11
30.5635
 21
50.8261
 31
0.0
  0
LINE
  8
0
 62
     0
 10
30.5635
 20
50.8261
 30
0.0
 11
29.7629
 21
50.8261
 31
0.0
  0
LINE
  8
0
 62
     0
 10
29.7629
 20
50.8261
 30
0.0
 11
29.7629
 21
56.7764
 31
0.0
  0
LINE
  8
0
 62
     0
 10
29.7629
 20
56.7764
 30
0.0
 11
30.5635
 21
56.7764
 31
0.0
  0
LINE
  8
0
 62
     0
 10
30.5635
 20
56.7764
 30
0.0
 11
30.5635
 21
59.727
 31
0.0
  0
LINE
  8
0
 62
     0
 10
30.5635
 20
59.727
 30
0.0
 11
29.7629
 21
59.727
 31
0.0
  0
LINE
  8
0
 62
     0
 10
29.7629
 20
59.727
 30
0.0
 11
29.7629
 21
60.7275
 31
0.0
  0
LINE
  8
0
 62
     0
 10
29.7629
 20
60.7275
 30
0.0
 11
15.9136
 21
60.7275
 31
0.0
  0
LINE
  8
0
 62
     0
 10
294.52
 20
79.7775
 30
0.0
 11
294.52
 21
78.777
 31
0.0
  0
LINE
  8
0
 62
     0
 10
294.52
 20
78.777
 30
0.0
 11
293.721
 21
78.777
 31
0.0
  0
LINE
  8
0
 62
     0
 10
293.721
 20
78.777
 30
0.0
 11
293.721
 21
75.8264
 31
0.0
  0
LINE
  8
0
 62
     0
 10
293.721
 20
75.8264
 30
0.0
 11
294.52
 21
75.8264
 31
0.0
  0
LINE
  8
0
 62
     0
 10
294.52
 20
75.8264
 30
0.0
 11
294.52
 21
69.8761
 31
0.0
  0
LINE
  8
0
 62
     0
 10
294.52
 20
69.8761
 30
0.0
 11
293.721
 21
69.8761
 31
0.0
  0
LINE
  8
0
 62
     0
 10
293.721
 20
69.8761
 30
0.0
 11
293.721
 21
66.9272
 31
0.0
  0
LINE
  8
0
 62
     0
 10
293.721
 20
66.9272
 30
0.0
 11
294.52
 21
66.9272
 31
0.0
  0
LINE
  8
0
 62
     0
 10
294.52
 20
66.9272
 30
0.0
 11
294.52
 21
65.9268
 31
0.0
  0
LINE
  8
0
 62
     0
 10
294.52
 20
65.9268
 30
0.0
 11
308.37
 21
65.9268
 31
0.0
  0
LINE
  8
0
 62
     0
 10
308.37
 20
65.9268
 30
0.0
 11
308.37
 21
66.9272
 31
0.0
  0
LINE
  8
0
 62
     0
 10
308.37
 20
66.9272
 30
0.0
 11
309.171
 21
66.9272
 31
0.0
  0
LINE
  8
0
 62
     0
 10
309.171
 20
66.9272
 30
0.0
 11
309.171
 21
69.8761
 31
0.0
  0
LINE
  8
0
 62
     0
 10
309.171
 20
69.8761
 30
0.0
 11
308.37
 21
69.8761
 31
0.0
  0
LINE
  8
0
 62
     0
 10
308.37
 20
69.8761
 30
0.0
 11
308.37
 21
75.8264
 31
0.0
  0
LINE
  8
0
 62
     0
 10
308.37
 20
75.8264
 30
0.0
 11
309.171
 21
75.8264
 31
0.0
  0
LINE
  8
0
 62
     0
 10
309.171
 20
75.8264
 30
0.0
 11
309.171
 21
78.777
 31
0.0
  0
LINE
  8
0
 62
     0
 10
309.171
 20
78.777
 30
0.0
 11
308.37
 21
78.777
 31
0.0
  0
LINE
  8
0
 62
     0
 10
308.37
 20
78.777
 30
0.0
 11
308.37
 21
79.7775
 31
0.0
  0
LINE
  8
0
 62
     0
 10
308.37
 20
79.7775
 30
0.0
 11
294.52
 21
79.7775
 31
0.0
  0
LINE
  8
0
 62
     0
 10
270.707
 20
79.7775
 30
0.0
 11
270.707
 21
78.777
 31
0.0
  0
LINE
  8
0
 62
     0
 10
270.707
 20
78.777
 30
0.0
 11
269.908
 21
78.777
 31
0.0
  0
LINE
  8
0
 62
     0
 10
269.908
 20
78.777
 30
0.0
 11
269.908
 21
75.8264
 31
0.0
  0
LINE
  8
0
 62
     0
 10
269.908
 20
75.8264
 30
0.0
 11
270.707
 21
75.8264
 31
0.0
  0
LINE
  8
0
 62
     0
 10
270.707
 20
75.8264
 30
0.0
 11
270.707
 21
69.8761
 31
0.0
  0
LINE
  8
0
 62
     0
 10
270.707
 20
69.8761
 30
0.0
 11
269.908
 21
69.8761
 31
0.0
  0
LINE
  8
0
 62
     0
 10
269.908
 20
69.8761
 30
0.0
 11
269.908
 21
66.9272
 31
0.0
  0
LINE
  8
0
 62
     0
 10
269.908
 20
66.9272
 30
0.0
 11
270.707
 21
66.9272
 31
0.0
  0
LINE
  8
0
 62
     0
 10
270.707
 20
66.9272
 30
0.0
 11
270.707
 21
65.9268
 31
0.0
  0
LINE
  8
0
 62
     0
 10
270.707
 20
65.9268
 30
0.0
 11
284.558
 21
65.9268
 31
0.0
  0
LINE
  8
0
 62
     0
 10
284.558
 20
65.9268
 30
0.0
 11
284.558
 21
66.9272
 31
0.0
  0
LINE
  8
0
 62
     0
 10
284.558
 20
66.9272
 30
0.0
 11
285.357
 21
66.9272
 31
0.0
  0
LINE
  8
0
 62
     0
 10
285.357
 20
66.9272
 30
0.0
 11
285.357
 21
69.8761
 31
0.0
  0
LINE
  8
0
 62
     0
 10
285.357
 20
69.8761
 30
0.0
 11
284.558
 21
69.8761
 31
0.0
  0
LINE
  8
0
 62
     0
 10
284.558
 20
69.8761
 30
0.0
 11
284.558
 21
75.8264
 31
0.0
  0
LINE
  8
0
 62
     0
 10
284.558
 20
75.8264
 30
0.0
 11
285.357
 21
75.8264
 31
0.0
  0
LINE
  8
0
 62
     0
 10
285.357
 20
75.8264
 30
0.0
 11
285.357
 21
78.777
 31
0.0
  0
LINE
  8
0
 62
     0
 10
285.357
 20
78.777
 30
0.0
 11
284.558
 21
78.777
 31
0.0
  0
LINE
  8
0
 62
     0
 10
284.558
 20
78.777
 30
0.0
 11
284.558
 21
79.7775
 31
0.0
  0
LINE
  8
0
 62
     0
 10
284.558
 20
79.7775
 30
0.0
 11
270.707
 21
79.7775
 31
0.0
  0
LINE
  8
0
 62
     0
 10
246.895
 20
79.7775
 30
0.0
 11
246.895
 21
78.777
 31
0.0
  0
LINE
  8
0
 62
     0
 10
246.895
 20
78.777
 30
0.0
 11
246.096
 21
78.777
 31
0.0
  0
LINE
  8
0
 62
     0
 10
246.096
 20
78.777
 30
0.0
 11
246.096
 21
75.8264
 31
0.0
  0
LINE
  8
0
 62
     0
 10
246.096
 20
75.8264
 30
0.0
 11
246.895
 21
75.8264
 31
0.0
  0
LINE
  8
0
 62
     0
 10
246.895
 20
75.8264
 30
0.0
 11
246.895
 21
69.8761
 31
0.0
  0
LINE
  8
0
 62
     0
 10
246.895
 20
69.8761
 30
0.0
 11
246.096
 21
69.8761
 31
0.0
  0
LINE
  8
0
 62
     0
 10
246.096
 20
69.8761
 30
0.0
 11
246.096
 21
66.9272
 31
0.0
  0
LINE
  8
0
 62
     0
 10
246.096
 20
66.9272
 30
0.0
 11
246.895
 21
66.9272
 31
0.0
  0
LINE
  8
0
 62
     0
 10
246.895
 20
66.9272
 30
0.0
 11
246.895
 21
65.9268
 31
0.0
  0
LINE
  8
0
 62
     0
 10
246.895
 20
65.9268
 30
0.0
 11
260.745
 21
65.9268
 31
0.0
  0
LINE
  8
0
 62
     0
 10
260.745
 20
65.9268
 30
0.0
 11
260.745
 21
66.9272
 31
0.0
  0
LINE
  8
0
 62
     0
 10
260.745
 20
66.9272
 30
0.0
 11
261.546
 21
66.9272
 31
0.0
  0
LINE
  8
0
 62
     0
 10
261.546
 20
66.9272
 30
0.0
 11
261.546
 21
69.8761
 31
0.0
  0
LINE
  8
0
 62
     0
 10
261.546
 20
69.8761
 30
0.0
 11
260.745
 21
69.8761
 31
0.0
  0
LINE
  8
0
 62
     0
 10
260.745
 20
69.8761
 30
0.0
 11
260.745
 21
75.8264
 31
0.0
  0
LINE
  8
0
 62
     0
 10
260.745
 20
75.8264
 30
0.0
 11
261.546
 21
75.8264
 31
0.0
  0
LINE
  8
0
 62
     0
 10
261.546
 20
75.8264
 30
0.0
 11
261.546
 21
78.777
 31
0.0
  0
LINE
  8
0
 62
     0
 10
261.546
 20
78.777
 30
0.0
 11
260.745
 21
78.777
 31
0.0
  0
LINE
  8
0
 62
     0
 10
260.745
 20
78.777
 30
0.0
 11
260.745
 21
79.7775
 31
0.0
  0
LINE
  8
0
 62
     0
 10
260.745
 20
79.7775
 30
0.0
 11
246.895
 21
79.7775
 31
0.0
  0
LINE
  8
0
 62
     0
 10
227.845
 20
79.7775
 30
0.0
 11
227.845
 21
78.777
 31
0.0
  0
LINE
  8
0
 62
     0
 10
227.845
 20
78.777
 30
0.0
 11
227.046
 21
78.777
 31
0.0
  0
LINE
  8
0
 62
     0
 10
227.046
 20
78.777
 30
0.0
 11
227.046
 21
75.8264
 31
0.0
  0
LINE
  8
0
 62
     0
 10
227.046
 20
75.8264
 30
0.0
 11
227.845
 21
75.8264
 31
0.0
  0
LINE
  8
0
 62
     0
 10
227.845
 20
75.8264
 30
0.0
 11
227.845
 21
69.8761
 31
0.0
  0
LINE
  8
0
 62
     0
 10
227.845
 20
69.8761
 30
0.0
 11
227.046
 21
69.8761
 31
0.0
  0
LINE
  8
0
 62
     0
 10
227.046
 20
69.8761
 30
0.0
 11
227.046
 21
66.9272
 31
0.0
  0
LINE
  8
0
 62
     0
 10
227.046
 20
66.9272
 30
0.0
 11
227.845
 21
66.9272
 31
0.0
  0
LINE
  8
0
 62
     0
 10
227.845
 20
66.9272
 30
0.0
 11
227.845
 21
65.9268
 31
0.0
  0
LINE
  8
0
 62
     0
 10
227.845
 20
65.9268
 30
0.0
 11
241.695
 21
65.9268
 31
0.0
  0
LINE
  8
0
 62
     0
 10
241.695
 20
65.9268
 30
0.0
 11
241.695
 21
66.9272
 31
0.0
  0
LINE
  8
0
 62
     0
 10
241.695
 20
66.9272
 30
0.0
 11
242.496
 21
66.9272
 31
0.0
  0
LINE
  8
0
 62
     0
 10
242.496
 20
66.9272
 30
0.0
 11
242.496
 21
69.8761
 31
0.0
  0
LINE
  8
0
 62
     0
 10
242.496
 20
69.8761
 30
0.0
 11
241.695
 21
69.8761
 31
0.0
  0
LINE
  8
0
 62
     0
 10
241.695
 20
69.8761
 30
0.0
 11
241.695
 21
75.8264
 31
0.0
  0
LINE
  8
0
 62
     0
 10
241.695
 20
75.8264
 30
0.0
 11
242.496
 21
75.8264
 31
0.0
  0
LINE
  8
0
 62
     0
 10
242.496
 20
75.8264
 30
0.0
 11
242.496
 21
78.777
 31
0.0
  0
LINE
  8
0
 62
     0
 10
242.496
 20
78.777
 30
0.0
 11
241.695
 21
78.777
 31
0.0
  0
LINE
  8
0
 62
     0
 10
241.695
 20
78.777
 30
0.0
 11
241.695
 21
79.7775
 31
0.0
  0
LINE
  8
0
 62
     0
 10
241.695
 20
79.7775
 30
0.0
 11
227.845
 21
79.7775
 31
0.0
  0
LINE
  8
0
 62
     0
 10
208.795
 20
79.7775
 30
0.0
 11
208.795
 21
78.777
 31
0.0
  0
LINE
  8
0
 62
     0
 10
208.795
 20
78.777
 30
0.0
 11
207.996
 21
78.777
 31
0.0
  0
LINE
  8
0
 62
     0
 10
207.996
 20
78.777
 30
0.0
 11
207.996
 21
75.8264
 31
0.0
  0
LINE
  8
0
 62
     0
 10
207.996
 20
75.8264
 30
0.0
 11
208.795
 21
75.8264
 31
0.0
  0
LINE
  8
0
 62
     0
 10
208.795
 20
75.8264
 30
0.0
 11
208.795
 21
69.8761
 31
0.0
  0
LINE
  8
0
 62
     0
 10
208.795
 20
69.8761
 30
0.0
 11
207.996
 21
69.8761
 31
0.0
  0
LINE
  8
0
 62
     0
 10
207.996
 20
69.8761
 30
0.0
 11
207.996
 21
66.9272
 31
0.0
  0
LINE
  8
0
 62
     0
 10
207.996
 20
66.9272
 30
0.0
 11
208.795
 21
66.9272
 31
0.0
  0
LINE
  8
0
 62
     0
 10
208.795
 20
66.9272
 30
0.0
 11
208.795
 21
65.9268
 31
0.0
  0
LINE
  8
0
 62
     0
 10
208.795
 20
65.9268
 30
0.0
 11
222.645
 21
65.9268
 31
0.0
  0
LINE
  8
0
 62
     0
 10
222.645
 20
65.9268
 30
0.0
 11
222.645
 21
66.9272
 31
0.0
  0
LINE
  8
0
 62
     0
 10
222.645
 20
66.9272
 30
0.0
 11
223.446
 21
66.9272
 31
0.0
  0
LINE
  8
0
 62
     0
 10
223.446
 20
66.9272
 30
0.0
 11
223.446
 21
69.8761
 31
0.0
  0
LINE
  8
0
 62
     0
 10
223.446
 20
69.8761
 30
0.0
 11
222.645
 21
69.8761
 31
0.0
  0
LINE
  8
0
 62
     0
 10
222.645
 20
69.8761
 30
0.0
 11
222.645
 21
75.8264
 31
0.0
  0
LINE
  8
0
 62
     0
 10
222.645
 20
75.8264
 30
0.0
 11
223.446
 21
75.8264
 31
0.0
  0
LINE
  8
0
 62
     0
 10
223.446
 20
75.8264
 30
0.0
 11
223.446
 21
78.777
 31
0.0
  0
LINE
  8
0
 62
     0
 10
223.446
 20
78.777
 30
0.0
 11
222.645
 21
78.777
 31
0.0
  0
LINE
  8
0
 62
     0
 10
222.645
 20
78.777
 30
0.0
 11
222.645
 21
79.7775
 31
0.0
  0
LINE
  8
0
 62
     0
 10
222.645
 20
79.7775
 30
0.0
 11
208.795
 21
79.7775
 31
0.0
  0
LINE
  8
0
 62
     0
 10
189.745
 20
79.7775
 30
0.0
 11
189.745
 21
78.777
 31
0.0
  0
LINE
  8
0
 62
     0
 10
189.745
 20
78.777
 30
0.0
 11
188.946
 21
78.777
 31
0.0
  0
LINE
  8
0
 62
     0
 10
188.946
 20
78.777
 30
0.0
 11
188.946
 21
75.8264
 31
0.0
  0
LINE
  8
0
 62
     0
 10
188.946
 20
75.8264
 30
0.0
 11
189.745
 21
75.8264
 31
0.0
  0
LINE
  8
0
 62
     0
 10
189.745
 20
75.8264
 30
0.0
 11
189.745
 21
69.8761
 31
0.0
  0
LINE
  8
0
 62
     0
 10
189.745
 20
69.8761
 30
0.0
 11
188.946
 21
69.8761
 31
0.0
  0
LINE
  8
0
 62
     0
 10
188.946
 20
69.8761
 30
0.0
 11
188.946
 21
66.9272
 31
0.0
  0
LINE
  8
0
 62
     0
 10
188.946
 20
66.9272
 30
0.0
 11
189.745
 21
66.9272
 31
0.0
  0
LINE
  8
0
 62
     0
 10
189.745
 20
66.9272
 30
0.0
 11
189.745
 21
65.9268
 31
0.0
  0
LINE
  8
0
 62
     0
 10
189.745
 20
65.9268
 30
0.0
 11
203.595
 21
65.9268
 31
0.0
  0
LINE
  8
0
 62
     0
 10
203.595
 20
65.9268
 30
0.0
 11
203.595
 21
66.9272
 31
0.0
  0
LINE
  8
0
 62
     0
 10
203.595
 20
66.9272
 30
0.0
 11
204.396
 21
66.9272
 31
0.0
  0
LINE
  8
0
 62
     0
 10
204.396
 20
66.9272
 30
0.0
 11
204.396
 21
69.8761
 31
0.0
  0
LINE
  8
0
 62
     0
 10
204.396
 20
69.8761
 30
0.0
 11
203.595
 21
69.8761
 31
0.0
  0
LINE
  8
0
 62
     0
 10
203.595
 20
69.8761
 30
0.0
 11
203.595
 21
75.8264
 31
0.0
  0
LINE
  8
0
 62
     0
 10
203.595
 20
75.8264
 30
0.0
 11
204.396
 21
75.8264
 31
0.0
  0
LINE
  8
0
 62
     0
 10
204.396
 20
75.8264
 30
0.0
 11
204.396
 21
78.777
 31
0.0
  0
LINE
  8
0
 62
     0
 10
204.396
 20
78.777
 30
0.0
 11
203.595
 21
78.777
 31
0.0
  0
LINE
  8
0
 62
     0
 10
203.595
 20
78.777
 30
0.0
 11
203.595
 21
79.7775
 31
0.0
  0
LINE
  8
0
 62
     0
 10
203.595
 20
79.7775
 30
0.0
 11
189.745
 21
79.7775
 31
0.0
  0
LINE
  8
0
 62
     0
 10
170.695
 20
79.7775
 30
0.0
 11
170.695
 21
78.777
 31
0.0
  0
LINE
  8
0
 62
     0
 10
170.695
 20
78.777
 30
0.0
 11
169.896
 21
78.777
 31
0.0
  0
LINE
  8
0
 62
     0
 10
169.896
 20
78.777
 30
0.0
 11
169.896
 21
75.8264
 31
0.0
  0
LINE
  8
0
 62
     0
 10
169.896
 20
75.8264
 30
0.0
 11
170.695
 21
75.8264
 31
0.0
  0
LINE
  8
0
 62
     0
 10
170.695
 20
75.8264
 30
0.0
 11
170.695
 21
69.8761
 31
0.0
  0
LINE
  8
0
 62
     0
 10
170.695
 20
69.8761
 30
0.0
 11
169.896
 21
69.8761
 31
0.0
  0
LINE
  8
0
 62
     0
 10
169.896
 20
69.8761
 30
0.0
 11
169.896
 21
66.9272
 31
0.0
  0
LINE
  8
0
 62
     0
 10
169.896
 20
66.9272
 30
0.0
 11
170.695
 21
66.9272
 31
0.0
  0
LINE
  8
0
 62
     0
 10
170.695
 20
66.9272
 30
0.0
 11
170.695
 21
65.9268
 31
0.0
  0
LINE
  8
0
 62
     0
 10
170.695
 20
65.9268
 30
0.0
 11
184.545
 21
65.9268
 31
0.0
  0
LINE
  8
0
 62
     0
 10
184.545
 20
65.9268
 30
0.0
 11
184.545
 21
66.9272
 31
0.0
  0
LINE
  8
0
 62
     0
 10
184.545
 20
66.9272
 30
0.0
 11
185.346
 21
66.9272
 31
0.0
  0
LINE
  8
0
 62
     0
 10
185.346
 20
66.9272
 30
0.0
 11
185.346
 21
69.8761
 31
0.0
  0
LINE
  8
0
 62
     0
 10
185.346
 20
69.8761
 30
0.0
 11
184.545
 21
69.8761
 31
0.0
  0
LINE
  8
0
 62
     0
 10
184.545
 20
69.8761
 30
0.0
 11
184.545
 21
75.8264
 31
0.0
  0
LINE
  8
0
 62
     0
 10
184.545
 20
75.8264
 30
0.0
 11
185.346
 21
75.8264
 31
0.0
  0
LINE
  8
0
 62
     0
 10
185.346
 20
75.8264
 30
0.0
 11
185.346
 21
78.777
 31
0.0
  0
LINE
  8
0
 62
     0
 10
185.346
 20
78.777
 30
0.0
 11
184.545
 21
78.777
 31
0.0
  0
LINE
  8
0
 62
     0
 10
184.545
 20
78.777
 30
0.0
 11
184.545
 21
79.7775
 31
0.0
  0
LINE
  8
0
 62
     0
 10
184.545
 20
79.7775
 30
0.0
 11
170.695
 21
79.7775
 31
0.0
  0
LINE
  8
0
 62
     0
 10
151.645
 20
79.7775
 30
0.0
 11
151.645
 21
78.777
 31
0.0
  0
LINE
  8
0
 62
     0
 10
151.645
 20
78.777
 30
0.0
 11
150.846
 21
78.777
 31
0.0
  0
LINE
  8
0
 62
     0
 10
150.846
 20
78.777
 30
0.0
 11
150.846
 21
75.8264
 31
0.0
  0
LINE
  8
0
 62
     0
 10
150.846
 20
75.8264
 30
0.0
 11
151.645
 21
75.8264
 31
0.0
  0
LINE
  8
0
 62
     0
 10
151.645
 20
75.8264
 30
0.0
 11
151.645
 21
69.8761
 31
0.0
  0
LINE
  8
0
 62
     0
 10
151.645
 20
69.8761
 30
0.0
 11
150.846
 21
69.8761
 31
0.0
  0
LINE
  8
0
 62
     0
 10
150.846
 20
69.8761
 30
0.0
 11
150.846
 21
66.9272
 31
0.0
  0
LINE
  8
0
 62
     0
 10
150.846
 20
66.9272
 30
0.0
 11
151.645
 21
66.9272
 31
0.0
  0
LINE
  8
0
 62
     0
 10
151.645
 20
66.9272
 30
0.0
 11
151.645
 21
65.9268
 31
0.0
  0
LINE
  8
0
 62
     0
 10
151.645
 20
65.9268
 30
0.0
 11
165.495
 21
65.9268
 31
0.0
  0
LINE
  8
0
 62
     0
 10
165.495
 20
65.9268
 30
0.0
 11
165.495
 21
66.9272
 31
0.0
  0
LINE
  8
0
 62
     0
 10
165.495
 20
66.9272
 30
0.0
 11
166.296
 21
66.9272
 31
0.0
  0
LINE
  8
0
 62
     0
 10
166.296
 20
66.9272
 30
0.0
 11
166.296
 21
69.8761
 31
0.0
  0
LINE
  8
0
 62
     0
 10
166.296
 20
69.8761
 30
0.0
 11
165.495
 21
69.8761
 31
0.0
  0
LINE
  8
0
 62
     0
 10
165.495
 20
69.8761
 30
0.0
 11
165.495
 21
75.8264
 31
0.0
  0
LINE
  8
0
 62
     0
 10
165.495
 20
75.8264
 30
0.0
 11
166.296
 21
75.8264
 31
0.0
  0
LINE
  8
0
 62
     0
 10
166.296
 20
75.8264
 30
0.0
 11
166.296
 21
78.777
 31
0.0
  0
LINE
  8
0
 62
     0
 10
166.296
 20
78.777
 30
0.0
 11
165.495
 21
78.777
 31
0.0
  0
LINE
  8
0
 62
     0
 10
165.495
 20
78.777
 30
0.0
 11
165.495
 21
79.7775
 31
0.0
  0
LINE
  8
0
 62
     0
 10
165.495
 20
79.7775
 30
0.0
 11
151.645
 21
79.7775
 31
0.0
  0
LINE
  8
0
 62
     0
 10
132.595
 20
79.7775
 30
0.0
 11
132.595
 21
78.777
 31
0.0
  0
LINE
  8
0
 62
     0
 10
132.595
 20
78.777
 30
0.0
 11
131.796
 21
78.777
 31
0.0
  0
LINE
  8
0
 62
     0
 10
131.796
 20
78.777
 30
0.0
 11
131.796
 21
75.8264
 31
0.0
  0
LINE
  8
0
 62
     0
 10
131.796
 20
75.8264
 30
0.0
 11
132.595
 21
75.8264
 31
0.0
  0
LINE
  8
0
 62
     0
 10
132.595
 20
75.8264
 30
0.0
 11
132.595
 21
69.8761
 31
0.0
  0
LINE
  8
0
 62
     0
 10
132.595
 20
69.8761
 30
0.0
 11
131.796
 21
69.8761
 31
0.0
  0
LINE
  8
0
 62
     0
 10
131.796
 20
69.8761
 30
0.0
 11
131.796
 21
66.9272
 31
0.0
  0
LINE
  8
0
 62
     0
 10
131.796
 20
66.9272
 30
0.0
 11
132.595
 21
66.9272
 31
0.0
  0
LINE
  8
0
 62
     0
 10
132.595
 20
66.9272
 30
0.0
 11
132.595
 21
65.9268
 31
0.0
  0
LINE
  8
0
 62
     0
 10
132.595
 20
65.9268
 30
0.0
 11
146.445
 21
65.9268
 31
0.0
  0
LINE
  8
0
 62
     0
 10
146.445
 20
65.9268
 30
0.0
 11
146.445
 21
66.9272
 31
0.0
  0
LINE
  8
0
 62
     0
 10
146.445
 20
66.9272
 30
0.0
 11
147.245
 21
66.9272
 31
0.0
  0
LINE
  8
0
 62
     0
 10
147.245
 20
66.9272
 30
0.0
 11
147.245
 21
69.8761
 31
0.0
  0
LINE
  8
0
 62
     0
 10
147.245
 20
69.8761
 30
0.0
 11
146.445
 21
69.8761
 31
0.0
  0
LINE
  8
0
 62
     0
 10
146.445
 20
69.8761
 30
0.0
 11
146.445
 21
75.8264
 31
0.0
  0
LINE
  8
0
 62
     0
 10
146.445
 20
75.8264
 30
0.0
 11
147.245
 21
75.8264
 31
0.0
  0
LINE
  8
0
 62
     0
 10
147.245
 20
75.8264
 30
0.0
 11
147.245
 21
78.777
 31
0.0
  0
LINE
  8
0
 62
     0
 10
147.245
 20
78.777
 30
0.0
 11
146.445
 21
78.777
 31
0.0
  0
LINE
  8
0
 62
     0
 10
146.445
 20
78.777
 30
0.0
 11
146.445
 21
79.7775
 31
0.0
  0
LINE
  8
0
 62
     0
 10
146.445
 20
79.7775
 30
0.0
 11
132.595
 21
79.7775
 31
0.0
  0
LINE
  8
0
 62
     0
 10
113.545
 20
79.7775
 30
0.0
 11
113.545
 21
78.777
 31
0.0
  0
LINE
  8
0
 62
     0
 10
113.545
 20
78.777
 30
0.0
 11
112.744
 21
78.777
 31
0.0
  0
LINE
  8
0
 62
     0
 10
112.744
 20
78.777
 30
0.0
 11
112.744
 21
75.8264
 31
0.0
  0
LINE
  8
0
 62
     0
 10
112.744
 20
75.8264
 30
0.0
 11
113.545
 21
75.8264
 31
0.0
  0
LINE
  8
0
 62
     0
 10
113.545
 20
75.8264
 30
0.0
 11
113.545
 21
69.8761
 31
0.0
  0
LINE
  8
0
 62
     0
 10
113.545
 20
69.8761
 30
0.0
 11
112.744
 21
69.8761
 31
0.0
  0
LINE
  8
0
 62
     0
 10
112.744
 20
69.8761
 30
0.0
 11
112.744
 21
66.9272
 31
0.0
  0
LINE
  8
0
 62
     0
 10
112.744
 20
66.9272
 30
0.0
 11
113.545
 21
66.9272
 31
0.0
  0
LINE
  8
0
 62
     0
 10
113.545
 20
66.9272
 30
0.0
 11
113.545
 21
65.9268
 31
0.0
  0
LINE
  8
0
 62
     0
 10
113.545
 20
65.9268
 30
0.0
 11
127.394
 21
65.9268
 31
0.0
  0
LINE
  8
0
 62
     0
 10
127.394
 20
65.9268
 30
0.0
 11
127.394
 21
66.9272
 31
0.0
  0
LINE
  8
0
 62
     0
 10
127.394
 20
66.9272
 30
0.0
 11
128.196
 21
66.9272
 31
0.0
  0
LINE
  8
0
 62
     0
 10
128.196
 20
66.9272
 30
0.0
 11
128.196
 21
69.8761
 31
0.0
  0
LINE
  8
0
 62
     0
 10
128.196
 20
69.8761
 30
0.0
 11
127.394
 21
69.8761
 31
0.0
  0
LINE
  8
0
 62
     0
 10
127.394
 20
69.8761
 30
0.0
 11
127.394
 21
75.8264
 31
0.0
  0
LINE
  8
0
 62
     0
 10
127.394
 20
75.8264
 30
0.0
 11
128.196
 21
75.8264
 31
0.0
  0
LINE
  8
0
 62
     0
 10
128.196
 20
75.8264
 30
0.0
 11
128.196
 21
78.777
 31
0.0
  0
LINE
  8
0
 62
     0
 10
128.196
 20
78.777
 30
0.0
 11
127.394
 21
78.777
 31
0.0
  0
LINE
  8
0
 62
     0
 10
127.394
 20
78.777
 30
0.0
 11
127.394
 21
79.7775
 31
0.0
  0
LINE
  8
0
 62
     0
 10
127.394
 20
79.7775
 30
0.0
 11
113.545
 21
79.7775
 31
0.0
  0
LINE
  8
0
 62
     0
 10
94.4947
 20
79.7775
 30
0.0
 11
94.4947
 21
78.777
 31
0.0
  0
LINE
  8
0
 62
     0
 10
94.4947
 20
78.777
 30
0.0
 11
93.6957
 21
78.777
 31
0.0
  0
LINE
  8
0
 62
     0
 10
93.6957
 20
78.777
 30
0.0
 11
93.6957
 21
75.8264
 31
0.0
  0
LINE
  8
0
 62
     0
 10
93.6957
 20
75.8264
 30
0.0
 11
94.4947
 21
75.8264
 31
0.0
  0
LINE
  8
0
 62
     0
 10
94.4947
 20
75.8264
 30
0.0
 11
94.4947
 21
69.8761
 31
0.0
  0
LINE
  8
0
 62
     0
 10
94.4947
 20
69.8761
 30
0.0
 11
93.6957
 21
69.8761
 31
0.0
  0
LINE
  8
0
 62
     0
 10
93.6957
 20
69.8761
 30
0.0
 11
93.6957
 21
66.9272
 31
0.0
  0
LINE
  8
0
 62
     0
 10
93.6957
 20
66.9272
 30
0.0
 11
94.4947
 21
66.9272
 31
0.0
  0
LINE
  8
0
 62
     0
 10
94.4947
 20
66.9272
 30
0.0
 11
94.4947
 21
65.9268
 31
0.0
  0
LINE
  8
0
 62
     0
 10
94.4947
 20
65.9268
 30
0.0
 11
108.344
 21
65.9268
 31
0.0
  0
LINE
  8
0
 62
     0
 10
108.344
 20
65.9268
 30
0.0
 11
108.344
 21
66.9272
 31
0.0
  0
LINE
  8
0
 62
     0
 10
108.344
 20
66.9272
 30
0.0
 11
109.145
 21
66.9272
 31
0.0
  0
LINE
  8
0
 62
     0
 10
109.145
 20
66.9272
 30
0.0
 11
109.145
 21
69.8761
 31
0.0
  0
LINE
  8
0
 62
     0
 10
109.145
 20
69.8761
 30
0.0
 11
108.344
 21
69.8761
 31
0.0
  0
LINE
  8
0
 62
     0
 10
108.344
 20
69.8761
 30
0.0
 11
108.344
 21
75.8264
 31
0.0
  0
LINE
  8
0
 62
     0
 10
108.344
 20
75.8264
 30
0.0
 11
109.145
 21
75.8264
 31
0.0
  0
LINE
  8
0
 62
     0
 10
109.145
 20
75.8264
 30
0.0
 11
109.145
 21
78.777
 31
0.0
  0
LINE
  8
0
 62
     0
 10
109.145
 20
78.777
 30
0.0
 11
108.344
 21
78.777
 31
0.0
  0
LINE
  8
0
 62
     0
 10
108.344
 20
78.777
 30
0.0
 11
108.344
 21
79.7775
 31
0.0
  0
LINE
  8
0
 62
     0
 10
108.344
 20
79.7775
 30
0.0
 11
94.4947
 21
79.7775
 31
0.0
  0
LINE
  8
0
 62
     0
 10
75.4447
 20
79.7775
 30
0.0
 11
75.4447
 21
78.777
 31
0.0
  0
LINE
  8
0
 62
     0
 10
75.4447
 20
78.777
 30
0.0
 11
74.6457
 21
78.777
 31
0.0
  0
LINE
  8
0
 62
     0
 10
74.6457
 20
78.777
 30
0.0
 11
74.6457
 21
75.8264
 31
0.0
  0
LINE
  8
0
 62
     0
 10
74.6457
 20
75.8264
 30
0.0
 11
75.4447
 21
75.8264
 31
0.0
  0
LINE
  8
0
 62
     0
 10
75.4447
 20
75.8264
 30
0.0
 11
75.4447
 21
69.8761
 31
0.0
  0
LINE
  8
0
 62
     0
 10
75.4447
 20
69.8761
 30
0.0
 11
74.6457
 21
69.8761
 31
0.0
  0
LINE
  8
0
 62
     0
 10
74.6457
 20
69.8761
 30
0.0
 11
74.6457
 21
66.9272
 31
0.0
  0
LINE
  8
0
 62
     0
 10
74.6457
 20
66.9272
 30
0.0
 11
75.4447
 21
66.9272
 31
0.0
  0
LINE
  8
0
 62
     0
 10
75.4447
 20
66.9272
 30
0.0
 11
75.4447
 21
65.9268
 31
0.0
  0
LINE
  8
0
 62
     0
 10
75.4447
 20
65.9268
 30
0.0
 11
89.2941
 21
65.9268
 31
0.0
  0
LINE
  8
0
 62
     0
 10
89.2941
 20
65.9268
 30
0.0
 11
89.2941
 21
66.9272
 31
0.0
  0
LINE
  8
0
 62
     0
 10
89.2941
 20
66.9272
 30
0.0
 11
90.0949
 21
66.9272
 31
0.0
  0
LINE
  8
0
 62
     0
 10
90.0949
 20
66.9272
 30
0.0
 11
90.0949
 21
69.8761
 31
0.0
  0
LINE
  8
0
 62
     0
 10
90.0949
 20
69.8761
 30
0.0
 11
89.2941
 21
69.8761
 31
0.0
  0
LINE
  8
0
 62
     0
 10
89.2941
 20
69.8761
 30
0.0
 11
89.2941
 21
75.8264
 31
0.0
  0
LINE
  8
0
 62
     0
 10
89.2941
 20
75.8264
 30
0.0
 11
90.0949
 21
75.8264
 31
0.0
  0
LINE
  8
0
 62
     0
 10
90.0949
 20
75.8264
 30
0.0
 11
90.0949
 21
78.777
 31
0.0
  0
LINE
  8
0
 62
     0
 10
90.0949
 20
78.777
 30
0.0
 11
89.2941
 21
78.777
 31
0.0
  0
LINE
  8
0
 62
     0
 10
89.2941
 20
78.777
 30
0.0
 11
89.2941
 21
79.7775
 31
0.0
  0
LINE
  8
0
 62
     0
 10
89.2941
 20
79.7775
 30
0.0
 11
75.4447
 21
79.7775
 31
0.0
  0
LINE
  8
0
 62
     0
 10
56.3947
 20
79.7775
 30
0.0
 11
56.3947
 21
78.777
 31
0.0
  0
LINE
  8
0
 62
     0
 10
56.3947
 20
78.777
 30
0.0
 11
55.5942
 21
78.777
 31
0.0
  0
LINE
  8
0
 62
     0
 10
55.5942
 20
78.777
 30
0.0
 11
55.5942
 21
75.8264
 31
0.0
  0
LINE
  8
0
 62
     0
 10
55.5942
 20
75.8264
 30
0.0
 11
56.3947
 21
75.8264
 31
0.0
  0
LINE
  8
0
 62
     0
 10
56.3947
 20
75.8264
 30
0.0
 11
56.3947
 21
69.8761
 31
0.0
  0
LINE
  8
0
 62
     0
 10
56.3947
 20
69.8761
 30
0.0
 11
55.5942
 21
69.8761
 31
0.0
  0
LINE
  8
0
 62
     0
 10
55.5942
 20
69.8761
 30
0.0
 11
55.5942
 21
66.9272
 31
0.0
  0
LINE
  8
0
 62
     0
 10
55.5942
 20
66.9272
 30
0.0
 11
56.3947
 21
66.9272
 31
0.0
  0
LINE
  8
0
 62
     0
 10
56.3947
 20
66.9272
 30
0.0
 11
56.3947
 21
65.9268
 31
0.0
  0
LINE
  8
0
 62
     0
 10
56.3947
 20
65.9268
 30
0.0
 11
70.2441
 21
65.9268
 31
0.0
  0
LINE
  8
0
 62
     0
 10
70.2441
 20
65.9268
 30
0.0
 11
70.2441
 21
66.9272
 31
0.0
  0
LINE
  8
0
 62
     0
 10
70.2441
 20
66.9272
 30
0.0
 11
71.0449
 21
66.9272
 31
0.0
  0
LINE
  8
0
 62
     0
 10
71.0449
 20
66.9272
 30
0.0
 11
71.0449
 21
69.8761
 31
0.0
  0
LINE
  8
0
 62
     0
 10
71.0449
 20
69.8761
 30
0.0
 11
70.2441
 21
69.8761
 31
0.0
  0
LINE
  8
0
 62
     0
 10
70.2441
 20
69.8761
 30
0.0
 11
70.2441
 21
75.8264
 31
0.0
  0
LINE
  8
0
 62
     0
 10
70.2441
 20
75.8264
 30
0.0
 11
71.0449
 21
75.8264
 31
0.0
  0
LINE
  8
0
 62
     0
 10
71.0449
 20
75.8264
 30
0.0
 11
71.0449
 21
78.777
 31
0.0
  0
LINE
  8
0
 62
     0
 10
71.0449
 20
78.777
 30
0.0
 11
70.2441
 21
78.777
 31
0.0
  0
LINE
  8
0
 62
     0
 10
70.2441
 20
78.777
 30
0.0
 11
70.2441
 21
79.7775
 31
0.0
  0
LINE
  8
0
 62
     0
 10
70.2441
 20
79.7775
 30
0.0
 11
56.3947
 21
79.7775
 31
0.0
  0
LINE
  8
0
 62
     0
 10
37.3447
 20
79.7775
 30
0.0
 11
37.3447
 21
78.777
 31
0.0
  0
LINE
  8
0
 62
     0
 10
37.3447
 20
78.777
 30
0.0
 11
36.5442
 21
78.777
 31
0.0
  0
LINE
  8
0
 62
     0
 10
36.5442
 20
78.777
 30
0.0
 11
36.5442
 21
75.8264
 31
0.0
  0
LINE
  8
0
 62
     0
 10
36.5442
 20
75.8264
 30
0.0
 11
37.3447
 21
75.8264
 31
0.0
  0
LINE
  8
0
 62
     0
 10
37.3447
 20
75.8264
 30
0.0
 11
37.3447
 21
69.8761
 31
0.0
  0
LINE
  8
0
 62
     0
 10
37.3447
 20
69.8761
 30
0.0
 11
36.5442
 21
69.8761
 31
0.0
  0
LINE
  8
0
 62
     0
 10
36.5442
 20
69.8761
 30
0.0
 11
36.5442
 21
66.9272
 31
0.0
  0
LINE
  8
0
 62
     0
 10
36.5442
 20
66.9272
 30
0.0
 11
37.3447
 21
66.9272
 31
0.0
  0
LINE
  8
0
 62
     0
 10
37.3447
 20
66.9272
 30
0.0
 11
37.3447
 21
65.9268
 31
0.0
  0
LINE
  8
0
 62
     0
 10
37.3447
 20
65.9268
 30
0.0
 11
51.1941
 21
65.9268
 31
0.0
  0
LINE
  8
0
 62
     0
 10
51.1941
 20
65.9268
 30
0.0
 11
51.1941
 21
66.9272
 31
0.0
  0
LINE
  8
0
 62
     0
 10
51.1941
 20
66.9272
 30
0.0
 11
51.9963
 21
66.9272
 31
0.0
  0
LINE
  8
0
 62
     0
 10
51.9963
 20
66.9272
 30
0.0
 11
51.9963
 21
69.8761
 31
0.0
  0
LINE
  8
0
 62
     0
 10
51.9963
 20
69.8761
 30
0.0
 11
51.1941
 21
69.8761
 31
0.0
  0
LINE
  8
0
 62
     0
 10
51.1941
 20
69.8761
 30
0.0
 11
51.1941
 21
75.8264
 31
0.0
  0
LINE
  8
0
 62
     0
 10
51.1941
 20
75.8264
 30
0.0
 11
51.9963
 21
75.8264
 31
0.0
  0
LINE
  8
0
 62
     0
 10
51.9963
 20
75.8264
 30
0.0
 11
51.9963
 21
78.777
 31
0.0
  0
LINE
  8
0
 62
     0
 10
51.9963
 20
78.777
 30
0.0
 11
51.1941
 21
78.777
 31
0.0
  0
LINE
  8
0
 62
     0
 10
51.1941
 20
78.777
 30
0.0
 11
51.1941
 21
79.7775
 31
0.0
  0
LINE
  8
0
 62
     0
 10
51.1941
 20
79.7775
 30
0.0
 11
37.3447
 21
79.7775
 31
0.0
  0
LINE
  8
0
 62
     0
 10
13.5323
 20
79.7775
 30
0.0
 11
13.5323
 21
78.777
 31
0.0
  0
LINE
  8
0
 62
     0
 10
13.5323
 20
78.777
 30
0.0
 11
12.7331
 21
78.777
 31
0.0
  0
LINE
  8
0
 62
     0
 10
12.7331
 20
78.777
 30
0.0
 11
12.7331
 21
75.8264
 31
0.0
  0
LINE
  8
0
 62
     0
 10
12.7331
 20
75.8264
 30
0.0
 11
13.5323
 21
75.8264
 31
0.0
  0
LINE
  8
0
 62
     0
 10
13.5323
 20
75.8264
 30
0.0
 11
13.5323
 21
69.8761
 31
0.0
  0
LINE
  8
0
 62
     0
 10
13.5323
 20
69.8761
 30
0.0
 11
12.7331
 21
69.8761
 31
0.0
  0
LINE
  8
0
 62
     0
 10
12.7331
 20
69.8761
 30
0.0
 11
12.7331
 21
66.9272
 31
0.0
  0
LINE
  8
0
 62
     0
 10
12.7331
 20
66.9272
 30
0.0
 11
13.5323
 21
66.9272
 31
0.0
  0
LINE
  8
0
 62
     0
 10
13.5323
 20
66.9272
 30
0.0
 11
13.5323
 21
65.9268
 31
0.0
  0
LINE
  8
0
 62
     0
 10
13.5323
 20
65.9268
 30
0.0
 11
27.383
 21
65.9268
 31
0.0
  0
LINE
  8
0
 62
     0
 10
27.383
 20
65.9268
 30
0.0
 11
27.383
 21
66.9272
 31
0.0
  0
LINE
  8
0
 62
     0
 10
27.383
 20
66.9272
 30
0.0
 11
28.1823
 21
66.9272
 31
0.0
  0
LINE
  8
0
 62
     0
 10
28.1823
 20
66.9272
 30
0.0
 11
28.1823
 21
69.8761
 31
0.0
  0
LINE
  8
0
 62
     0
 10
28.1823
 20
69.8761
 30
0.0
 11
27.383
 21
69.8761
 31
0.0
  0
LINE
  8
0
 62
     0
 10
27.383
 20
69.8761
 30
0.0
 11
27.383
 21
75.8264
 31
0.0
  0
LINE
  8
0
 62
     0
 10
27.383
 20
75.8264
 30
0.0
 11
28.1823
 21
75.8264
 31
0.0
  0
LINE
  8
0
 62
     0
 10
28.1823
 20
75.8264
 30
0.0
 11
28.1823
 21
78.777
 31
0.0
  0
LINE
  8
0
 62
     0
 10
28.1823
 20
78.777
 30
0.0
 11
27.383
 21
78.777
 31
0.0
  0
LINE
  8
0
 62
     0
 10
27.383
 20
78.777
 30
0.0
 11
27.383
 21
79.7775
 31
0.0
  0
LINE
  8
0
 62
     0
 10
27.383
 20
79.7775
 30
0.0
 11
13.5323
 21
79.7775
 31
0.0
  0
LINE
  8
0
 62
     0
 10
265.945
 20
98.8275
 30
0.0
 11
265.945
 21
97.827
 31
0.0
  0
LINE
  8
0
 62
     0
 10
265.945
 20
97.827
 30
0.0
 11
265.146
 21
97.827
 31
0.0
  0
LINE
  8
0
 62
     0
 10
265.146
 20
97.827
 30
0.0
 11
265.146
 21
94.8764
 31
0.0
  0
LINE
  8
0
 62
     0
 10
265.146
 20
94.8764
 30
0.0
 11
265.945
 21
94.8764
 31
0.0
  0
LINE
  8
0
 62
     0
 10
265.945
 20
94.8764
 30
0.0
 11
265.945
 21
94.1268
 31
0.0
  0
LINE
  8
0
 62
     0
 10
265.945
 20
94.1268
 30
0.0
 11
264.27
 21
94.1268
 31
0.0
  0
LINE
  8
0
 62
     0
 10
264.27
 20
94.1268
 30
0.0
 11
264.27
 21
97.3571
 31
0.0
  0
LINE
  8
0
 62
     0
 10
264.27
 20
97.3571
 30
0.0
 11
262.545
 21
97.3571
 31
0.0
  0
LINE
  8
0
 62
     0
 10
262.545
 20
97.3571
 30
0.0
 11
262.545
 21
98.2761
 31
0.0
  0
LINE
  8
0
 62
     0
 10
262.545
 20
98.2761
 30
0.0
 11
259.395
 21
98.2761
 31
0.0
  0
LINE
  8
0
 62
     0
 10
259.395
 20
98.2761
 30
0.0
 11
259.395
 21
97.3571
 31
0.0
  0
LINE
  8
0
 62
     0
 10
259.395
 20
97.3571
 30
0.0
 11
257.671
 21
97.3571
 31
0.0
  0
LINE
  8
0
 62
     0
 10
257.671
 20
97.3571
 30
0.0
 11
257.671
 21
94.1268
 31
0.0
  0
LINE
  8
0
 62
     0
 10
257.671
 20
94.1268
 30
0.0
 11
256.845
 21
94.1268
 31
0.0
  0
LINE
  8
0
 62
     0
 10
256.845
 20
94.1268
 30
0.0
 11
256.845
 21
91.477
 31
0.0
  0
LINE
  8
0
 62
     0
 10
256.845
 20
91.477
 30
0.0
 11
257.671
 21
91.477
 31
0.0
  0
LINE
  8
0
 62
     0
 10
257.671
 20
91.477
 30
0.0
 11
257.671
 21
85.2068
 31
0.0
  0
LINE
  8
0
 62
     0
 10
257.671
 20
85.2068
 30
0.0
 11
259.395
 21
85.2068
 31
0.0
  0
LINE
  8
0
 62
     0
 10
259.395
 20
85.2068
 30
0.0
 11
259.395
 21
84.2271
 31
0.0
  0
LINE
  8
0
 62
     0
 10
259.395
 20
84.2271
 30
0.0
 11
262.545
 21
84.2271
 31
0.0
  0
LINE
  8
0
 62
     0
 10
262.545
 20
84.2271
 30
0.0
 11
262.545
 21
85.2068
 31
0.0
  0
LINE
  8
0
 62
     0
 10
262.545
 20
85.2068
 30
0.0
 11
264.27
 21
85.2068
 31
0.0
  0
LINE
  8
0
 62
     0
 10
264.27
 20
85.2068
 30
0.0
 11
264.27
 21
89.6772
 31
0.0
  0
LINE
  8
0
 62
     0
 10
264.27
 20
89.6772
 30
0.0
 11
265.945
 21
89.6772
 31
0.0
  0
LINE
  8
0
 62
     0
 10
265.945
 20
89.6772
 30
0.0
 11
265.945
 21
88.9261
 31
0.0
  0
LINE
  8
0
 62
     0
 10
265.945
 20
88.9261
 30
0.0
 11
265.146
 21
88.9261
 31
0.0
  0
LINE
  8
0
 62
     0
 10
265.146
 20
88.9261
 30
0.0
 11
265.146
 21
85.9772
 31
0.0
  0
LINE
  8
0
 62
     0
 10
265.146
 20
85.9772
 30
0.0
 11
265.945
 21
85.9772
 31
0.0
  0
LINE
  8
0
 62
     0
 10
265.945
 20
85.9772
 30
0.0
 11
265.945
 21
84.9768
 31
0.0
  0
LINE
  8
0
 62
     0
 10
265.945
 20
84.9768
 30
0.0
 11
279.795
 21
84.9768
 31
0.0
  0
LINE
  8
0
 62
     0
 10
279.795
 20
84.9768
 30
0.0
 11
279.795
 21
85.9772
 31
0.0
  0
LINE
  8
0
 62
     0
 10
279.795
 20
85.9772
 30
0.0
 11
280.596
 21
85.9772
 31
0.0
  0
LINE
  8
0
 62
     0
 10
280.596
 20
85.9772
 30
0.0
 11
280.596
 21
88.9261
 31
0.0
  0
LINE
  8
0
 62
     0
 10
280.596
 20
88.9261
 30
0.0
 11
279.795
 21
88.9261
 31
0.0
  0
LINE
  8
0
 62
     0
 10
279.795
 20
88.9261
 30
0.0
 11
279.795
 21
89.6772
 31
0.0
  0
LINE
  8
0
 62
     0
 10
279.795
 20
89.6772
 30
0.0
 11
281.47
 21
89.6772
 31
0.0
  0
LINE
  8
0
 62
     0
 10
281.47
 20
89.6772
 30
0.0
 11
281.47
 21
85.2068
 31
0.0
  0
LINE
  8
0
 62
     0
 10
281.47
 20
85.2068
 30
0.0
 11
283.195
 21
85.2068
 31
0.0
  0
LINE
  8
0
 62
     0
 10
283.195
 20
85.2068
 30
0.0
 11
283.195
 21
84.2271
 31
0.0
  0
LINE
  8
0
 62
     0
 10
283.195
 20
84.2271
 30
0.0
 11
286.345
 21
84.2271
 31
0.0
  0
LINE
  8
0
 62
     0
 10
286.345
 20
84.2271
 30
0.0
 11
286.345
 21
85.2068
 31
0.0
  0
LINE
  8
0
 62
     0
 10
286.345
 20
85.2068
 30
0.0
 11
288.071
 21
85.2068
 31
0.0
  0
LINE
  8
0
 62
     0
 10
288.071
 20
85.2068
 30
0.0
 11
288.071
 21
91.477
 31
0.0
  0
LINE
  8
0
 62
     0
 10
288.071
 20
91.477
 30
0.0
 11
288.896
 21
91.477
 31
0.0
  0
LINE
  8
0
 62
     0
 10
288.896
 20
91.477
 30
0.0
 11
288.896
 21
94.1268
 31
0.0
  0
LINE
  8
0
 62
     0
 10
288.896
 20
94.1268
 30
0.0
 11
288.071
 21
94.1268
 31
0.0
  0
LINE
  8
0
 62
     0
 10
288.071
 20
94.1268
 30
0.0
 11
288.071
 21
97.3571
 31
0.0
  0
LINE
  8
0
 62
     0
 10
288.071
 20
97.3571
 30
0.0
 11
286.345
 21
97.3571
 31
0.0
  0
LINE
  8
0
 62
     0
 10
286.345
 20
97.3571
 30
0.0
 11
286.345
 21
98.2761
 31
0.0
  0
LINE
  8
0
 62
     0
 10
286.345
 20
98.2761
 30
0.0
 11
283.195
 21
98.2761
 31
0.0
  0
LINE
  8
0
 62
     0
 10
283.195
 20
98.2761
 30
0.0
 11
283.195
 21
97.3571
 31
0.0
  0
LINE
  8
0
 62
     0
 10
283.195
 20
97.3571
 30
0.0
 11
281.47
 21
97.3571
 31
0.0
  0
LINE
  8
0
 62
     0
 10
281.47
 20
97.3571
 30
0.0
 11
281.47
 21
94.1268
 31
0.0
  0
LINE
  8
0
 62
     0
 10
281.47
 20
94.1268
 30
0.0
 11
279.795
 21
94.1268
 31
0.0
  0
LINE
  8
0
 62
     0
 10
279.795
 20
94.1268
 30
0.0
 11
279.795
 21
94.8764
 31
0.0
  0
LINE
  8
0
 62
     0
 10
279.795
 20
94.8764
 30
0.0
 11
280.596
 21
94.8764
 31
0.0
  0
LINE
  8
0
 62
     0
 10
280.596
 20
94.8764
 30
0.0
 11
280.596
 21
97.827
 31
0.0
  0
LINE
  8
0
 62
     0
 10
280.596
 20
97.827
 30
0.0
 11
279.795
 21
97.827
 31
0.0
  0
LINE
  8
0
 62
     0
 10
279.795
 20
97.827
 30
0.0
 11
279.795
 21
98.8275
 31
0.0
  0
LINE
  8
0
 62
     0
 10
279.795
 20
98.8275
 30
0.0
 11
265.945
 21
98.8275
 31
0.0
  0
LINE
  8
0
 62
     0
 10
294.52
 20
98.8275
 30
0.0
 11
294.52
 21
97.827
 31
0.0
  0
LINE
  8
0
 62
     0
 10
294.52
 20
97.827
 30
0.0
 11
293.719
 21
97.827
 31
0.0
  0
LINE
  8
0
 62
     0
 10
293.719
 20
97.827
 30
0.0
 11
293.719
 21
94.8764
 31
0.0
  0
LINE
  8
0
 62
     0
 10
293.719
 20
94.8764
 30
0.0
 11
294.52
 21
94.8764
 31
0.0
  0
LINE
  8
0
 62
     0
 10
294.52
 20
94.8764
 30
0.0
 11
294.52
 21
88.9261
 31
0.0
  0
LINE
  8
0
 62
     0
 10
294.52
 20
88.9261
 30
0.0
 11
293.719
 21
88.9261
 31
0.0
  0
LINE
  8
0
 62
     0
 10
293.719
 20
88.9261
 30
0.0
 11
293.719
 21
85.9772
 31
0.0
  0
LINE
  8
0
 62
     0
 10
293.719
 20
85.9772
 30
0.0
 11
294.52
 21
85.9772
 31
0.0
  0
LINE
  8
0
 62
     0
 10
294.52
 20
85.9772
 30
0.0
 11
294.52
 21
84.9768
 31
0.0
  0
LINE
  8
0
 62
     0
 10
294.52
 20
84.9768
 30
0.0
 11
308.37
 21
84.9768
 31
0.0
  0
LINE
  8
0
 62
     0
 10
308.37
 20
84.9768
 30
0.0
 11
308.37
 21
85.9772
 31
0.0
  0
LINE
  8
0
 62
     0
 10
308.37
 20
85.9772
 30
0.0
 11
309.171
 21
85.9772
 31
0.0
  0
LINE
  8
0
 62
     0
 10
309.171
 20
85.9772
 30
0.0
 11
309.171
 21
88.9261
 31
0.0
  0
LINE
  8
0
 62
     0
 10
309.171
 20
88.9261
 30
0.0
 11
308.37
 21
88.9261
 31
0.0
  0
LINE
  8
0
 62
     0
 10
308.37
 20
88.9261
 30
0.0
 11
308.37
 21
94.8764
 31
0.0
  0
LINE
  8
0
 62
     0
 10
308.37
 20
94.8764
 30
0.0
 11
309.171
 21
94.8764
 31
0.0
  0
LINE
  8
0
 62
     0
 10
309.171
 20
94.8764
 30
0.0
 11
309.171
 21
97.827
 31
0.0
  0
LINE
  8
0
 62
     0
 10
309.171
 20
97.827
 30
0.0
 11
308.37
 21
97.827
 31
0.0
  0
LINE
  8
0
 62
     0
 10
308.37
 20
97.827
 30
0.0
 11
308.37
 21
98.8275
 31
0.0
  0
LINE
  8
0
 62
     0
 10
308.37
 20
98.8275
 30
0.0
 11
294.52
 21
98.8275
 31
0.0
  0
LINE
  8
0
 62
     0
 10
237.37
 20
98.8275
 30
0.0
 11
237.37
 21
97.827
 31
0.0
  0
LINE
  8
0
 62
     0
 10
237.37
 20
97.827
 30
0.0
 11
236.571
 21
97.827
 31
0.0
  0
LINE
  8
0
 62
     0
 10
236.571
 20
97.827
 30
0.0
 11
236.571
 21
94.8764
 31
0.0
  0
LINE
  8
0
 62
     0
 10
236.571
 20
94.8764
 30
0.0
 11
237.37
 21
94.8764
 31
0.0
  0
LINE
  8
0
 62
     0
 10
237.37
 20
94.8764
 30
0.0
 11
237.37
 21
88.9261
 31
0.0
  0
LINE
  8
0
 62
     0
 10
237.37
 20
88.9261
 30
0.0
 11
236.571
 21
88.9261
 31
0.0
  0
LINE
  8
0
 62
     0
 10
236.571
 20
88.9261
 30
0.0
 11
236.571
 21
85.9772
 31
0.0
  0
LINE
  8
0
 62
     0
 10
236.571
 20
85.9772
 30
0.0
 11
237.37
 21
85.9772
 31
0.0
  0
LINE
  8
0
 62
     0
 10
237.37
 20
85.9772
 30
0.0
 11
237.37
 21
84.9768
 31
0.0
  0
LINE
  8
0
 62
     0
 10
237.37
 20
84.9768
 30
0.0
 11
251.22
 21
84.9768
 31
0.0
  0
LINE
  8
0
 62
     0
 10
251.22
 20
84.9768
 30
0.0
 11
251.22
 21
85.9772
 31
0.0
  0
LINE
  8
0
 62
     0
 10
251.22
 20
85.9772
 30
0.0
 11
252.021
 21
85.9772
 31
0.0
  0
LINE
  8
0
 62
     0
 10
252.021
 20
85.9772
 30
0.0
 11
252.021
 21
88.9261
 31
0.0
  0
LINE
  8
0
 62
     0
 10
252.021
 20
88.9261
 30
0.0
 11
251.22
 21
88.9261
 31
0.0
  0
LINE
  8
0
 62
     0
 10
251.22
 20
88.9261
 30
0.0
 11
251.22
 21
94.8764
 31
0.0
  0
LINE
  8
0
 62
     0
 10
251.22
 20
94.8764
 30
0.0
 11
252.021
 21
94.8764
 31
0.0
  0
LINE
  8
0
 62
     0
 10
252.021
 20
94.8764
 30
0.0
 11
252.021
 21
97.827
 31
0.0
  0
LINE
  8
0
 62
     0
 10
252.021
 20
97.827
 30
0.0
 11
251.22
 21
97.827
 31
0.0
  0
LINE
  8
0
 62
     0
 10
251.22
 20
97.827
 30
0.0
 11
251.22
 21
98.8275
 31
0.0
  0
LINE
  8
0
 62
     0
 10
251.22
 20
98.8275
 30
0.0
 11
237.37
 21
98.8275
 31
0.0
  0
LINE
  8
0
 62
     0
 10
218.32
 20
98.8275
 30
0.0
 11
218.32
 21
97.827
 31
0.0
  0
LINE
  8
0
 62
     0
 10
218.32
 20
97.827
 30
0.0
 11
217.521
 21
97.827
 31
0.0
  0
LINE
  8
0
 62
     0
 10
217.521
 20
97.827
 30
0.0
 11
217.521
 21
94.8764
 31
0.0
  0
LINE
  8
0
 62
     0
 10
217.521
 20
94.8764
 30
0.0
 11
218.32
 21
94.8764
 31
0.0
  0
LINE
  8
0
 62
     0
 10
218.32
 20
94.8764
 30
0.0
 11
218.32
 21
88.9261
 31
0.0
  0
LINE
  8
0
 62
     0
 10
218.32
 20
88.9261
 30
0.0
 11
217.521
 21
88.9261
 31
0.0
  0
LINE
  8
0
 62
     0
 10
217.521
 20
88.9261
 30
0.0
 11
217.521
 21
85.9772
 31
0.0
  0
LINE
  8
0
 62
     0
 10
217.521
 20
85.9772
 30
0.0
 11
218.32
 21
85.9772
 31
0.0
  0
LINE
  8
0
 62
     0
 10
218.32
 20
85.9772
 30
0.0
 11
218.32
 21
84.9768
 31
0.0
  0
LINE
  8
0
 62
     0
 10
218.32
 20
84.9768
 30
0.0
 11
232.17
 21
84.9768
 31
0.0
  0
LINE
  8
0
 62
     0
 10
232.17
 20
84.9768
 30
0.0
 11
232.17
 21
85.9772
 31
0.0
  0
LINE
  8
0
 62
     0
 10
232.17
 20
85.9772
 30
0.0
 11
232.971
 21
85.9772
 31
0.0
  0
LINE
  8
0
 62
     0
 10
232.971
 20
85.9772
 30
0.0
 11
232.971
 21
88.9261
 31
0.0
  0
LINE
  8
0
 62
     0
 10
232.971
 20
88.9261
 30
0.0
 11
232.17
 21
88.9261
 31
0.0
  0
LINE
  8
0
 62
     0
 10
232.17
 20
88.9261
 30
0.0
 11
232.17
 21
94.8764
 31
0.0
  0
LINE
  8
0
 62
     0
 10
232.17
 20
94.8764
 30
0.0
 11
232.971
 21
94.8764
 31
0.0
  0
LINE
  8
0
 62
     0
 10
232.971
 20
94.8764
 30
0.0
 11
232.971
 21
97.827
 31
0.0
  0
LINE
  8
0
 62
     0
 10
232.971
 20
97.827
 30
0.0
 11
232.17
 21
97.827
 31
0.0
  0
LINE
  8
0
 62
     0
 10
232.17
 20
97.827
 30
0.0
 11
232.17
 21
98.8275
 31
0.0
  0
LINE
  8
0
 62
     0
 10
232.17
 20
98.8275
 30
0.0
 11
218.32
 21
98.8275
 31
0.0
  0
LINE
  8
0
 62
     0
 10
199.27
 20
98.8275
 30
0.0
 11
199.27
 21
97.827
 31
0.0
  0
LINE
  8
0
 62
     0
 10
199.27
 20
97.827
 30
0.0
 11
198.471
 21
97.827
 31
0.0
  0
LINE
  8
0
 62
     0
 10
198.471
 20
97.827
 30
0.0
 11
198.471
 21
94.8764
 31
0.0
  0
LINE
  8
0
 62
     0
 10
198.471
 20
94.8764
 30
0.0
 11
199.27
 21
94.8764
 31
0.0
  0
LINE
  8
0
 62
     0
 10
199.27
 20
94.8764
 30
0.0
 11
199.27
 21
88.9261
 31
0.0
  0
LINE
  8
0
 62
     0
 10
199.27
 20
88.9261
 30
0.0
 11
198.471
 21
88.9261
 31
0.0
  0
LINE
  8
0
 62
     0
 10
198.471
 20
88.9261
 30
0.0
 11
198.471
 21
85.9772
 31
0.0
  0
LINE
  8
0
 62
     0
 10
198.471
 20
85.9772
 30
0.0
 11
199.27
 21
85.9772
 31
0.0
  0
LINE
  8
0
 62
     0
 10
199.27
 20
85.9772
 30
0.0
 11
199.27
 21
84.9768
 31
0.0
  0
LINE
  8
0
 62
     0
 10
199.27
 20
84.9768
 30
0.0
 11
213.12
 21
84.9768
 31
0.0
  0
LINE
  8
0
 62
     0
 10
213.12
 20
84.9768
 30
0.0
 11
213.12
 21
85.9772
 31
0.0
  0
LINE
  8
0
 62
     0
 10
213.12
 20
85.9772
 30
0.0
 11
213.921
 21
85.9772
 31
0.0
  0
LINE
  8
0
 62
     0
 10
213.921
 20
85.9772
 30
0.0
 11
213.921
 21
88.9261
 31
0.0
  0
LINE
  8
0
 62
     0
 10
213.921
 20
88.9261
 30
0.0
 11
213.12
 21
88.9261
 31
0.0
  0
LINE
  8
0
 62
     0
 10
213.12
 20
88.9261
 30
0.0
 11
213.12
 21
94.8764
 31
0.0
  0
LINE
  8
0
 62
     0
 10
213.12
 20
94.8764
 30
0.0
 11
213.921
 21
94.8764
 31
0.0
  0
LINE
  8
0
 62
     0
 10
213.921
 20
94.8764
 30
0.0
 11
213.921
 21
97.827
 31
0.0
  0
LINE
  8
0
 62
     0
 10
213.921
 20
97.827
 30
0.0
 11
213.12
 21
97.827
 31
0.0
  0
LINE
  8
0
 62
     0
 10
213.12
 20
97.827
 30
0.0
 11
213.12
 21
98.8275
 31
0.0
  0
LINE
  8
0
 62
     0
 10
213.12
 20
98.8275
 30
0.0
 11
199.27
 21
98.8275
 31
0.0
  0
LINE
  8
0
 62
     0
 10
180.22
 20
98.8275
 30
0.0
 11
180.22
 21
97.827
 31
0.0
  0
LINE
  8
0
 62
     0
 10
180.22
 20
97.827
 30
0.0
 11
179.421
 21
97.827
 31
0.0
  0
LINE
  8
0
 62
     0
 10
179.421
 20
97.827
 30
0.0
 11
179.421
 21
94.8764
 31
0.0
  0
LINE
  8
0
 62
     0
 10
179.421
 20
94.8764
 30
0.0
 11
180.22
 21
94.8764
 31
0.0
  0
LINE
  8
0
 62
     0
 10
180.22
 20
94.8764
 30
0.0
 11
180.22
 21
88.9261
 31
0.0
  0
LINE
  8
0
 62
     0
 10
180.22
 20
88.9261
 30
0.0
 11
179.421
 21
88.9261
 31
0.0
  0
LINE
  8
0
 62
     0
 10
179.421
 20
88.9261
 30
0.0
 11
179.421
 21
85.9772
 31
0.0
  0
LINE
  8
0
 62
     0
 10
179.421
 20
85.9772
 30
0.0
 11
180.22
 21
85.9772
 31
0.0
  0
LINE
  8
0
 62
     0
 10
180.22
 20
85.9772
 30
0.0
 11
180.22
 21
84.9768
 31
0.0
  0
LINE
  8
0
 62
     0
 10
180.22
 20
84.9768
 30
0.0
 11
194.07
 21
84.9768
 31
0.0
  0
LINE
  8
0
 62
     0
 10
194.07
 20
84.9768
 30
0.0
 11
194.07
 21
85.9772
 31
0.0
  0
LINE
  8
0
 62
     0
 10
194.07
 20
85.9772
 30
0.0
 11
194.871
 21
85.9772
 31
0.0
  0
LINE
  8
0
 62
     0
 10
194.871
 20
85.9772
 30
0.0
 11
194.871
 21
88.9261
 31
0.0
  0
LINE
  8
0
 62
     0
 10
194.871
 20
88.9261
 30
0.0
 11
194.07
 21
88.9261
 31
0.0
  0
LINE
  8
0
 62
     0
 10
194.07
 20
88.9261
 30
0.0
 11
194.07
 21
94.8764
 31
0.0
  0
LINE
  8
0
 62
     0
 10
194.07
 20
94.8764
 30
0.0
 11
194.871
 21
94.8764
 31
0.0
  0
LINE
  8
0
 62
     0
 10
194.871
 20
94.8764
 30
0.0
 11
194.871
 21
97.827
 31
0.0
  0
LINE
  8
0
 62
     0
 10
194.871
 20
97.827
 30
0.0
 11
194.07
 21
97.827
 31
0.0
  0
LINE
  8
0
 62
     0
 10
194.07
 20
97.827
 30
0.0
 11
194.07
 21
98.8275
 31
0.0
  0
LINE
  8
0
 62
     0
 10
194.07
 20
98.8275
 30
0.0
 11
180.22
 21
98.8275
 31
0.0
  0
LINE
  8
0
 62
     0
 10
161.17
 20
98.8275
 30
0.0
 11
161.17
 21
97.827
 31
0.0
  0
LINE
  8
0
 62
     0
 10
161.17
 20
97.827
 30
0.0
 11
160.371
 21
97.827
 31
0.0
  0
LINE
  8
0
 62
     0
 10
160.371
 20
97.827
 30
0.0
 11
160.371
 21
94.8764
 31
0.0
  0
LINE
  8
0
 62
     0
 10
160.371
 20
94.8764
 30
0.0
 11
161.17
 21
94.8764
 31
0.0
  0
LINE
  8
0
 62
     0
 10
161.17
 20
94.8764
 30
0.0
 11
161.17
 21
88.9261
 31
0.0
  0
LINE
  8
0
 62
     0
 10
161.17
 20
88.9261
 30
0.0
 11
160.371
 21
88.9261
 31
0.0
  0
LINE
  8
0
 62
     0
 10
160.371
 20
88.9261
 30
0.0
 11
160.371
 21
85.9772
 31
0.0
  0
LINE
  8
0
 62
     0
 10
160.371
 20
85.9772
 30
0.0
 11
161.17
 21
85.9772
 31
0.0
  0
LINE
  8
0
 62
     0
 10
161.17
 20
85.9772
 30
0.0
 11
161.17
 21
84.9768
 31
0.0
  0
LINE
  8
0
 62
     0
 10
161.17
 20
84.9768
 30
0.0
 11
175.02
 21
84.9768
 31
0.0
  0
LINE
  8
0
 62
     0
 10
175.02
 20
84.9768
 30
0.0
 11
175.02
 21
85.9772
 31
0.0
  0
LINE
  8
0
 62
     0
 10
175.02
 20
85.9772
 30
0.0
 11
175.821
 21
85.9772
 31
0.0
  0
LINE
  8
0
 62
     0
 10
175.821
 20
85.9772
 30
0.0
 11
175.821
 21
88.9261
 31
0.0
  0
LINE
  8
0
 62
     0
 10
175.821
 20
88.9261
 30
0.0
 11
175.02
 21
88.9261
 31
0.0
  0
LINE
  8
0
 62
     0
 10
175.02
 20
88.9261
 30
0.0
 11
175.02
 21
94.8764
 31
0.0
  0
LINE
  8
0
 62
     0
 10
175.02
 20
94.8764
 30
0.0
 11
175.821
 21
94.8764
 31
0.0
  0
LINE
  8
0
 62
     0
 10
175.821
 20
94.8764
 30
0.0
 11
175.821
 21
97.827
 31
0.0
  0
LINE
  8
0
 62
     0
 10
175.821
 20
97.827
 30
0.0
 11
175.02
 21
97.827
 31
0.0
  0
LINE
  8
0
 62
     0
 10
175.02
 20
97.827
 30
0.0
 11
175.02
 21
98.8275
 31
0.0
  0
LINE
  8
0
 62
     0
 10
175.02
 20
98.8275
 30
0.0
 11
161.17
 21
98.8275
 31
0.0
  0
LINE
  8
0
 62
     0
 10
142.12
 20
98.8275
 30
0.0
 11
142.12
 21
97.827
 31
0.0
  0
LINE
  8
0
 62
     0
 10
142.12
 20
97.827
 30
0.0
 11
141.321
 21
97.827
 31
0.0
  0
LINE
  8
0
 62
     0
 10
141.321
 20
97.827
 30
0.0
 11
141.321
 21
94.8764
 31
0.0
  0
LINE
  8
0
 62
     0
 10
141.321
 20
94.8764
 30
0.0
 11
142.12
 21
94.8764
 31
0.0
  0
LINE
  8
0
 62
     0
 10
142.12
 20
94.8764
 30
0.0
 11
142.12
 21
88.9261
 31
0.0
  0
LINE
  8
0
 62
     0
 10
142.12
 20
88.9261
 30
0.0
 11
141.321
 21
88.9261
 31
0.0
  0
LINE
  8
0
 62
     0
 10
141.321
 20
88.9261
 30
0.0
 11
141.321
 21
85.9772
 31
0.0
  0
LINE
  8
0
 62
     0
 10
141.321
 20
85.9772
 30
0.0
 11
142.12
 21
85.9772
 31
0.0
  0
LINE
  8
0
 62
     0
 10
142.12
 20
85.9772
 30
0.0
 11
142.12
 21
84.9768
 31
0.0
  0
LINE
  8
0
 62
     0
 10
142.12
 20
84.9768
 30
0.0
 11
155.97
 21
84.9768
 31
0.0
  0
LINE
  8
0
 62
     0
 10
155.97
 20
84.9768
 30
0.0
 11
155.97
 21
85.9772
 31
0.0
  0
LINE
  8
0
 62
     0
 10
155.97
 20
85.9772
 30
0.0
 11
156.771
 21
85.9772
 31
0.0
  0
LINE
  8
0
 62
     0
 10
156.771
 20
85.9772
 30
0.0
 11
156.771
 21
88.9261
 31
0.0
  0
LINE
  8
0
 62
     0
 10
156.771
 20
88.9261
 30
0.0
 11
155.97
 21
88.9261
 31
0.0
  0
LINE
  8
0
 62
     0
 10
155.97
 20
88.9261
 30
0.0
 11
155.97
 21
94.8764
 31
0.0
  0
LINE
  8
0
 62
     0
 10
155.97
 20
94.8764
 30
0.0
 11
156.771
 21
94.8764
 31
0.0
  0
LINE
  8
0
 62
     0
 10
156.771
 20
94.8764
 30
0.0
 11
156.771
 21
97.827
 31
0.0
  0
LINE
  8
0
 62
     0
 10
156.771
 20
97.827
 30
0.0
 11
155.97
 21
97.827
 31
0.0
  0
LINE
  8
0
 62
     0
 10
155.97
 20
97.827
 30
0.0
 11
155.97
 21
98.8275
 31
0.0
  0
LINE
  8
0
 62
     0
 10
155.97
 20
98.8275
 30
0.0
 11
142.12
 21
98.8275
 31
0.0
  0
LINE
  8
0
 62
     0
 10
123.07
 20
98.8275
 30
0.0
 11
123.07
 21
97.827
 31
0.0
  0
LINE
  8
0
 62
     0
 10
123.07
 20
97.827
 30
0.0
 11
122.271
 21
97.827
 31
0.0
  0
LINE
  8
0
 62
     0
 10
122.271
 20
97.827
 30
0.0
 11
122.271
 21
94.8764
 31
0.0
  0
LINE
  8
0
 62
     0
 10
122.271
 20
94.8764
 30
0.0
 11
123.07
 21
94.8764
 31
0.0
  0
LINE
  8
0
 62
     0
 10
123.07
 20
94.8764
 30
0.0
 11
123.07
 21
88.9261
 31
0.0
  0
LINE
  8
0
 62
     0
 10
123.07
 20
88.9261
 30
0.0
 11
122.271
 21
88.9261
 31
0.0
  0
LINE
  8
0
 62
     0
 10
122.271
 20
88.9261
 30
0.0
 11
122.271
 21
85.9772
 31
0.0
  0
LINE
  8
0
 62
     0
 10
122.271
 20
85.9772
 30
0.0
 11
123.07
 21
85.9772
 31
0.0
  0
LINE
  8
0
 62
     0
 10
123.07
 20
85.9772
 30
0.0
 11
123.07
 21
84.9768
 31
0.0
  0
LINE
  8
0
 62
     0
 10
123.07
 20
84.9768
 30
0.0
 11
136.92
 21
84.9768
 31
0.0
  0
LINE
  8
0
 62
     0
 10
136.92
 20
84.9768
 30
0.0
 11
136.92
 21
85.9772
 31
0.0
  0
LINE
  8
0
 62
     0
 10
136.92
 20
85.9772
 30
0.0
 11
137.721
 21
85.9772
 31
0.0
  0
LINE
  8
0
 62
     0
 10
137.721
 20
85.9772
 30
0.0
 11
137.721
 21
88.9261
 31
0.0
  0
LINE
  8
0
 62
     0
 10
137.721
 20
88.9261
 30
0.0
 11
136.92
 21
88.9261
 31
0.0
  0
LINE
  8
0
 62
     0
 10
136.92
 20
88.9261
 30
0.0
 11
136.92
 21
94.8764
 31
0.0
  0
LINE
  8
0
 62
     0
 10
136.92
 20
94.8764
 30
0.0
 11
137.721
 21
94.8764
 31
0.0
  0
LINE
  8
0
 62
     0
 10
137.721
 20
94.8764
 30
0.0
 11
137.721
 21
97.827
 31
0.0
  0
LINE
  8
0
 62
     0
 10
137.721
 20
97.827
 30
0.0
 11
136.92
 21
97.827
 31
0.0
  0
LINE
  8
0
 62
     0
 10
136.92
 20
97.827
 30
0.0
 11
136.92
 21
98.8275
 31
0.0
  0
LINE
  8
0
 62
     0
 10
136.92
 20
98.8275
 30
0.0
 11
123.07
 21
98.8275
 31
0.0
  0
LINE
  8
0
 62
     0
 10
104.02
 20
98.8275
 30
0.0
 11
104.02
 21
97.827
 31
0.0
  0
LINE
  8
0
 62
     0
 10
104.02
 20
97.827
 30
0.0
 11
103.221
 21
97.827
 31
0.0
  0
LINE
  8
0
 62
     0
 10
103.221
 20
97.827
 30
0.0
 11
103.221
 21
94.8764
 31
0.0
  0
LINE
  8
0
 62
     0
 10
103.221
 20
94.8764
 30
0.0
 11
104.02
 21
94.8764
 31
0.0
  0
LINE
  8
0
 62
     0
 10
104.02
 20
94.8764
 30
0.0
 11
104.02
 21
88.9261
 31
0.0
  0
LINE
  8
0
 62
     0
 10
104.02
 20
88.9261
 30
0.0
 11
103.221
 21
88.9261
 31
0.0
  0
LINE
  8
0
 62
     0
 10
103.221
 20
88.9261
 30
0.0
 11
103.221
 21
85.9772
 31
0.0
  0
LINE
  8
0
 62
     0
 10
103.221
 20
85.9772
 30
0.0
 11
104.02
 21
85.9772
 31
0.0
  0
LINE
  8
0
 62
     0
 10
104.02
 20
85.9772
 30
0.0
 11
104.02
 21
84.9768
 31
0.0
  0
LINE
  8
0
 62
     0
 10
104.02
 20
84.9768
 30
0.0
 11
117.869
 21
84.9768
 31
0.0
  0
LINE
  8
0
 62
     0
 10
117.869
 20
84.9768
 30
0.0
 11
117.869
 21
85.9772
 31
0.0
  0
LINE
  8
0
 62
     0
 10
117.869
 20
85.9772
 30
0.0
 11
118.67
 21
85.9772
 31
0.0
  0
LINE
  8
0
 62
     0
 10
118.67
 20
85.9772
 30
0.0
 11
118.67
 21
88.9261
 31
0.0
  0
LINE
  8
0
 62
     0
 10
118.67
 20
88.9261
 30
0.0
 11
117.869
 21
88.9261
 31
0.0
  0
LINE
  8
0
 62
     0
 10
117.869
 20
88.9261
 30
0.0
 11
117.869
 21
94.8764
 31
0.0
  0
LINE
  8
0
 62
     0
 10
117.869
 20
94.8764
 30
0.0
 11
118.67
 21
94.8764
 31
0.0
  0
LINE
  8
0
 62
     0
 10
118.67
 20
94.8764
 30
0.0
 11
118.67
 21
97.827
 31
0.0
  0
LINE
  8
0
 62
     0
 10
118.67
 20
97.827
 30
0.0
 11
117.869
 21
97.827
 31
0.0
  0
LINE
  8
0
 62
     0
 10
117.869
 20
97.827
 30
0.0
 11
117.869
 21
98.8275
 31
0.0
  0
LINE
  8
0
 62
     0
 10
117.869
 20
98.8275
 30
0.0
 11
104.02
 21
98.8275
 31
0.0
  0
LINE
  8
0
 62
     0
 10
84.9697
 20
98.8275
 30
0.0
 11
84.9697
 21
97.827
 31
0.0
  0
LINE
  8
0
 62
     0
 10
84.9697
 20
97.827
 30
0.0
 11
84.1707
 21
97.827
 31
0.0
  0
LINE
  8
0
 62
     0
 10
84.1707
 20
97.827
 30
0.0
 11
84.1707
 21
94.8764
 31
0.0
  0
LINE
  8
0
 62
     0
 10
84.1707
 20
94.8764
 30
0.0
 11
84.9697
 21
94.8764
 31
0.0
  0
LINE
  8
0
 62
     0
 10
84.9697
 20
94.8764
 30
0.0
 11
84.9697
 21
88.9261
 31
0.0
  0
LINE
  8
0
 62
     0
 10
84.9697
 20
88.9261
 30
0.0
 11
84.1707
 21
88.9261
 31
0.0
  0
LINE
  8
0
 62
     0
 10
84.1707
 20
88.9261
 30
0.0
 11
84.1707
 21
85.9772
 31
0.0
  0
LINE
  8
0
 62
     0
 10
84.1707
 20
85.9772
 30
0.0
 11
84.9697
 21
85.9772
 31
0.0
  0
LINE
  8
0
 62
     0
 10
84.9697
 20
85.9772
 30
0.0
 11
84.9697
 21
84.9768
 31
0.0
  0
LINE
  8
0
 62
     0
 10
84.9697
 20
84.9768
 30
0.0
 11
98.8205
 21
84.9768
 31
0.0
  0
LINE
  8
0
 62
     0
 10
98.8205
 20
84.9768
 30
0.0
 11
98.8205
 21
85.9772
 31
0.0
  0
LINE
  8
0
 62
     0
 10
98.8205
 20
85.9772
 30
0.0
 11
99.6199
 21
85.9772
 31
0.0
  0
LINE
  8
0
 62
     0
 10
99.6199
 20
85.9772
 30
0.0
 11
99.6199
 21
88.9261
 31
0.0
  0
LINE
  8
0
 62
     0
 10
99.6199
 20
88.9261
 30
0.0
 11
98.8205
 21
88.9261
 31
0.0
  0
LINE
  8
0
 62
     0
 10
98.8205
 20
88.9261
 30
0.0
 11
98.8205
 21
94.8764
 31
0.0
  0
LINE
  8
0
 62
     0
 10
98.8205
 20
94.8764
 30
0.0
 11
99.6199
 21
94.8764
 31
0.0
  0
LINE
  8
0
 62
     0
 10
99.6199
 20
94.8764
 30
0.0
 11
99.6199
 21
97.827
 31
0.0
  0
LINE
  8
0
 62
     0
 10
99.6199
 20
97.827
 30
0.0
 11
98.8205
 21
97.827
 31
0.0
  0
LINE
  8
0
 62
     0
 10
98.8205
 20
97.827
 30
0.0
 11
98.8205
 21
98.8275
 31
0.0
  0
LINE
  8
0
 62
     0
 10
98.8205
 20
98.8275
 30
0.0
 11
84.9697
 21
98.8275
 31
0.0
  0
LINE
  8
0
 62
     0
 10
65.9197
 20
98.8275
 30
0.0
 11
65.9197
 21
97.827
 31
0.0
  0
LINE
  8
0
 62
     0
 10
65.9197
 20
97.827
 30
0.0
 11
65.1207
 21
97.827
 31
0.0
  0
LINE
  8
0
 62
     0
 10
65.1207
 20
97.827
 30
0.0
 11
65.1207
 21
94.8764
 31
0.0
  0
LINE
  8
0
 62
     0
 10
65.1207
 20
94.8764
 30
0.0
 11
65.9197
 21
94.8764
 31
0.0
  0
LINE
  8
0
 62
     0
 10
65.9197
 20
94.8764
 30
0.0
 11
65.9197
 21
88.9261
 31
0.0
  0
LINE
  8
0
 62
     0
 10
65.9197
 20
88.9261
 30
0.0
 11
65.1207
 21
88.9261
 31
0.0
  0
LINE
  8
0
 62
     0
 10
65.1207
 20
88.9261
 30
0.0
 11
65.1207
 21
85.9772
 31
0.0
  0
LINE
  8
0
 62
     0
 10
65.1207
 20
85.9772
 30
0.0
 11
65.9197
 21
85.9772
 31
0.0
  0
LINE
  8
0
 62
     0
 10
65.9197
 20
85.9772
 30
0.0
 11
65.9197
 21
84.9768
 31
0.0
  0
LINE
  8
0
 62
     0
 10
65.9197
 20
84.9768
 30
0.0
 11
79.7705
 21
84.9768
 31
0.0
  0
LINE
  8
0
 62
     0
 10
79.7705
 20
84.9768
 30
0.0
 11
79.7705
 21
85.9772
 31
0.0
  0
LINE
  8
0
 62
     0
 10
79.7705
 20
85.9772
 30
0.0
 11
80.5713
 21
85.9772
 31
0.0
  0
LINE
  8
0
 62
     0
 10
80.5713
 20
85.9772
 30
0.0
 11
80.5713
 21
88.9261
 31
0.0
  0
LINE
  8
0
 62
     0
 10
80.5713
 20
88.9261
 30
0.0
 11
79.7705
 21
88.9261
 31
0.0
  0
LINE
  8
0
 62
     0
 10
79.7705
 20
88.9261
 30
0.0
 11
79.7705
 21
94.8764
 31
0.0
  0
LINE
  8
0
 62
     0
 10
79.7705
 20
94.8764
 30
0.0
 11
80.5713
 21
94.8764
 31
0.0
  0
LINE
  8
0
 62
     0
 10
80.5713
 20
94.8764
 30
0.0
 11
80.5713
 21
97.827
 31
0.0
  0
LINE
  8
0
 62
     0
 10
80.5713
 20
97.827
 30
0.0
 11
79.7705
 21
97.827
 31
0.0
  0
LINE
  8
0
 62
     0
 10
79.7705
 20
97.827
 30
0.0
 11
79.7705
 21
98.8275
 31
0.0
  0
LINE
  8
0
 62
     0
 10
79.7705
 20
98.8275
 30
0.0
 11
65.9197
 21
98.8275
 31
0.0
  0
LINE
  8
0
 62
     0
 10
46.8697
 20
98.8275
 30
0.0
 11
46.8697
 21
97.827
 31
0.0
  0
LINE
  8
0
 62
     0
 10
46.8697
 20
97.827
 30
0.0
 11
46.0707
 21
97.827
 31
0.0
  0
LINE
  8
0
 62
     0
 10
46.0707
 20
97.827
 30
0.0
 11
46.0707
 21
94.8764
 31
0.0
  0
LINE
  8
0
 62
     0
 10
46.0707
 20
94.8764
 30
0.0
 11
46.8697
 21
94.8764
 31
0.0
  0
LINE
  8
0
 62
     0
 10
46.8697
 20
94.8764
 30
0.0
 11
46.8697
 21
88.9261
 31
0.0
  0
LINE
  8
0
 62
     0
 10
46.8697
 20
88.9261
 30
0.0
 11
46.0707
 21
88.9261
 31
0.0
  0
LINE
  8
0
 62
     0
 10
46.0707
 20
88.9261
 30
0.0
 11
46.0707
 21
85.9772
 31
0.0
  0
LINE
  8
0
 62
     0
 10
46.0707
 20
85.9772
 30
0.0
 11
46.8697
 21
85.9772
 31
0.0
  0
LINE
  8
0
 62
     0
 10
46.8697
 20
85.9772
 30
0.0
 11
46.8697
 21
84.9768
 31
0.0
  0
LINE
  8
0
 62
     0
 10
46.8697
 20
84.9768
 30
0.0
 11
60.7205
 21
84.9768
 31
0.0
  0
LINE
  8
0
 62
     0
 10
60.7205
 20
84.9768
 30
0.0
 11
60.7205
 21
85.9772
 31
0.0
  0
LINE
  8
0
 62
     0
 10
60.7205
 20
85.9772
 30
0.0
 11
61.5213
 21
85.9772
 31
0.0
  0
LINE
  8
0
 62
     0
 10
61.5213
 20
85.9772
 30
0.0
 11
61.5213
 21
88.9261
 31
0.0
  0
LINE
  8
0
 62
     0
 10
61.5213
 20
88.9261
 30
0.0
 11
60.7205
 21
88.9261
 31
0.0
  0
LINE
  8
0
 62
     0
 10
60.7205
 20
88.9261
 30
0.0
 11
60.7205
 21
94.8764
 31
0.0
  0
LINE
  8
0
 62
     0
 10
60.7205
 20
94.8764
 30
0.0
 11
61.5213
 21
94.8764
 31
0.0
  0
LINE
  8
0
 62
     0
 10
61.5213
 20
94.8764
 30
0.0
 11
61.5213
 21
97.827
 31
0.0
  0
LINE
  8
0
 62
     0
 10
61.5213
 20
97.827
 30
0.0
 11
60.7205
 21
97.827
 31
0.0
  0
LINE
  8
0
 62
     0
 10
60.7205
 20
97.827
 30
0.0
 11
60.7205
 21
98.8275
 31
0.0
  0
LINE
  8
0
 62
     0
 10
60.7205
 20
98.8275
 30
0.0
 11
46.8697
 21
98.8275
 31
0.0
  0
LINE
  8
0
 62
     0
 10
27.8198
 20
98.8275
 30
0.0
 11
27.8198
 21
97.827
 31
0.0
  0
LINE
  8
0
 62
     0
 10
27.8198
 20
97.827
 30
0.0
 11
27.0206
 21
97.827
 31
0.0
  0
LINE
  8
0
 62
     0
 10
27.0206
 20
97.827
 30
0.0
 11
27.0206
 21
94.8764
 31
0.0
  0
LINE
  8
0
 62
     0
 10
27.0206
 20
94.8764
 30
0.0
 11
27.8198
 21
94.8764
 31
0.0
  0
LINE
  8
0
 62
     0
 10
27.8198
 20
94.8764
 30
0.0
 11
27.8198
 21
88.9261
 31
0.0
  0
LINE
  8
0
 62
     0
 10
27.8198
 20
88.9261
 30
0.0
 11
27.0206
 21
88.9261
 31
0.0
  0
LINE
  8
0
 62
     0
 10
27.0206
 20
88.9261
 30
0.0
 11
27.0206
 21
85.9772
 31
0.0
  0
LINE
  8
0
 62
     0
 10
27.0206
 20
85.9772
 30
0.0
 11
27.8198
 21
85.9772
 31
0.0
  0
LINE
  8
0
 62
     0
 10
27.8198
 20
85.9772
 30
0.0
 11
27.8198
 21
84.9768
 31
0.0
  0
LINE
  8
0
 62
     0
 10
27.8198
 20
84.9768
 30
0.0
 11
41.6705
 21
84.9768
 31
0.0
  0
LINE
  8
0
 62
     0
 10
41.6705
 20
84.9768
 30
0.0
 11
41.6705
 21
85.9772
 31
0.0
  0
LINE
  8
0
 62
     0
 10
41.6705
 20
85.9772
 30
0.0
 11
42.4713
 21
85.9772
 31
0.0
  0
LINE
  8
0
 62
     0
 10
42.4713
 20
85.9772
 30
0.0
 11
42.4713
 21
88.9261
 31
0.0
  0
LINE
  8
0
 62
     0
 10
42.4713
 20
88.9261
 30
0.0
 11
41.6705
 21
88.9261
 31
0.0
  0
LINE
  8
0
 62
     0
 10
41.6705
 20
88.9261
 30
0.0
 11
41.6705
 21
94.8764
 31
0.0
  0
LINE
  8
0
 62
     0
 10
41.6705
 20
94.8764
 30
0.0
 11
42.4713
 21
94.8764
 31
0.0
  0
LINE
  8
0
 62
     0
 10
42.4713
 20
94.8764
 30
0.0
 11
42.4713
 21
97.827
 31
0.0
  0
LINE
  8
0
 62
     0
 10
42.4713
 20
97.827
 30
0.0
 11
41.6705
 21
97.827
 31
0.0
  0
LINE
  8
0
 62
     0
 10
41.6705
 20
97.827
 30
0.0
 11
41.6705
 21
98.8275
 31
0.0
  0
LINE
  8
0
 62
     0
 10
41.6705
 20
98.8275
 30
0.0
 11
27.8198
 21
98.8275
 31
0.0
  0
LINE
  8
0
 62
     0
 10
8.76984
 20
98.8275
 30
0.0
 11
8.76984
 21
97.827
 31
0.0
  0
LINE
  8
0
 62
     0
 10
8.76984
 20
97.827
 30
0.0
 11
7.97059
 21
97.827
 31
0.0
  0
LINE
  8
0
 62
     0
 10
7.97059
 20
97.827
 30
0.0
 11
7.97059
 21
94.8764
 31
0.0
  0
LINE
  8
0
 62
     0
 10
7.97059
 20
94.8764
 30
0.0
 11
8.76984
 21
94.8764
 31
0.0
  0
LINE
  8
0
 62
     0
 10
8.76984
 20
94.8764
 30
0.0
 11
8.76984
 21
88.9261
 31
0.0
  0
LINE
  8
0
 62
     0
 10
8.76984
 20
88.9261
 30
0.0
 11
7.97059
 21
88.9261
 31
0.0
  0
LINE
  8
0
 62
     0
 10
7.97059
 20
88.9261
 30
0.0
 11
7.97059
 21
85.9772
 31
0.0
  0
LINE
  8
0
 62
     0
 10
7.97059
 20
85.9772
 30
0.0
 11
8.76984
 21
85.9772
 31
0.0
  0
LINE
  8
0
 62
     0
 10
8.76984
 20
85.9772
 30
0.0
 11
8.76984
 21
84.9768
 31
0.0
  0
LINE
  8
0
 62
     0
 10
8.76984
 20
84.9768
 30
0.0
 11
22.6205
 21
84.9768
 31
0.0
  0
LINE
  8
0
 62
     0
 10
22.6205
 20
84.9768
 30
0.0
 11
22.6205
 21
85.9772
 31
0.0
  0
LINE
  8
0
 62
     0
 10
22.6205
 20
85.9772
 30
0.0
 11
23.4211
 21
85.9772
 31
0.0
  0
LINE
  8
0
 62
     0
 10
23.4211
 20
85.9772
 30
0.0
 11
23.4211
 21
88.9261
 31
0.0
  0
LINE
  8
0
 62
     0
 10
23.4211
 20
88.9261
 30
0.0
 11
22.6205
 21
88.9261
 31
0.0
  0
LINE
  8
0
 62
     0
 10
22.6205
 20
88.9261
 30
0.0
 11
22.6205
 21
94.8764
 31
0.0
  0
LINE
  8
0
 62
     0
 10
22.6205
 20
94.8764
 30
0.0
 11
23.4211
 21
94.8764
 31
0.0
  0
LINE
  8
0
 62
     0
 10
23.4211
 20
94.8764
 30
0.0
 11
23.4211
 21
97.827
 31
0.0
  0
LINE
  8
0
 62
     0
 10
23.4211
 20
97.827
 30
0.0
 11
22.6205
 21
97.827
 31
0.0
  0
LINE
  8
0
 62
     0
 10
22.6205
 20
97.827
 30
0.0
 11
22.6205
 21
98.8275
 31
0.0
  0
LINE
  8
0
 62
     0
 10
22.6205
 20
98.8275
 30
0.0
 11
8.76984
 21
98.8275
 31
0.0
  0
LINE
  8
0
 62
     0
 10
2.86907
 20
105.355
 30
0.0
 11
2.59623
 21
105.216
 31
0.0
  0
LINE
  8
0
 62
     0
 10
2.59623
 20
105.216
 30
0.0
 11
2.38125
 21
105.001
 31
0.0
  0
LINE
  8
0
 62
     0
 10
2.38125
 20
105.001
 30
0.0
 11
2.24207
 21
104.728
 31
0.0
  0
LINE
  8
0
 62
     0
 10
2.24207
 20
104.728
 30
0.0
 11
2.19384
 21
104.428
 31
0.0
  0
LINE
  8
0
 62
     0
 10
2.19384
 20
104.428
 30
0.0
 11
2.24207
 21
104.126
 31
0.0
  0
LINE
  8
0
 62
     0
 10
2.24207
 20
104.126
 30
0.0
 11
2.38125
 21
103.853
 31
0.0
  0
LINE
  8
0
 62
     0
 10
2.38125
 20
103.853
 30
0.0
 11
2.59623
 21
103.638
 31
0.0
  0
LINE
  8
0
 62
     0
 10
2.59623
 20
103.638
 30
0.0
 11
2.86907
 21
103.5
 31
0.0
  0
LINE
  8
0
 62
     0
 10
2.86907
 20
103.5
 30
0.0
 11
3.16949
 21
103.452
 31
0.0
  0
LINE
  8
0
 62
     0
 10
3.16949
 20
103.452
 30
0.0
 11
3.47128
 21
103.5
 31
0.0
  0
LINE
  8
0
 62
     0
 10
3.47128
 20
103.5
 30
0.0
 11
3.74414
 21
103.638
 31
0.0
  0
LINE
  8
0
 62
     0
 10
3.74414
 20
103.638
 30
0.0
 11
3.95912
 21
103.853
 31
0.0
  0
LINE
  8
0
 62
     0
 10
3.95912
 20
103.853
 30
0.0
 11
4.09691
 21
104.126
 31
0.0
  0
LINE
  8
0
 62
     0
 10
4.09691
 20
104.126
 30
0.0
 11
4.14514
 21
104.428
 31
0.0
  0
LINE
  8
0
 62
     0
 10
4.14514
 20
104.428
 30
0.0
 11
4.09691
 21
104.728
 31
0.0
  0
LINE
  8
0
 62
     0
 10
4.09691
 20
104.728
 30
0.0
 11
3.95912
 21
105.001
 31
0.0
  0
LINE
  8
0
 62
     0
 10
3.95912
 20
105.001
 30
0.0
 11
3.74414
 21
105.216
 31
0.0
  0
LINE
  8
0
 62
     0
 10
3.74414
 20
105.216
 30
0.0
 11
3.47128
 21
105.355
 31
0.0
  0
LINE
  8
0
 62
     0
 10
3.47128
 20
105.355
 30
0.0
 11
3.16949
 21
105.402
 31
0.0
  0
LINE
  8
0
 62
     0
 10
3.16949
 20
105.402
 30
0.0
 11
2.86907
 21
105.355
 31
0.0
  0
LINE
  8
0
 62
     0
 10
313.669
 20
105.355
 30
0.0
 11
313.398
 21
105.216
 31
0.0
  0
LINE
  8
0
 62
     0
 10
313.398
 20
105.216
 30
0.0
 11
313.183
 21
105.001
 31
0.0
  0
LINE
  8
0
 62
     0
 10
313.183
 20
105.001
 30
0.0
 11
313.043
 21
104.728
 31
0.0
  0
LINE
  8
0
 62
     0
 10
313.043
 20
104.728
 30
0.0
 11
312.996
 21
104.428
 31
0.0
  0
LINE
  8
0
 62
     0
 10
312.996
 20
104.428
 30
0.0
 11
313.043
 21
104.126
 31
0.0
  0
LINE
  8
0
 62
     0
 10
313.043
 20
104.126
 30
0.0
 11
313.183
 21
103.853
 31
0.0
  0
LINE
  8
0
 62
     0
 10
313.183
 20
103.853
 30
0.0
 11
313.398
 21
103.638
 31
0.0
  0
LINE
  8
0
 62
     0
 10
313.398
 20
103.638
 30
0.0
 11
313.669
 21
103.5
 31
0.0
  0
LINE
  8
0
 62
     0
 10
313.669
 20
103.5
 30
0.0
 11
313.971
 21
103.452
 31
0.0
  0
LINE
  8
0
 62
     0
 10
313.971
 20
103.452
 30
0.0
 11
314.273
 21
103.5
 31
0.0
  0
LINE
  8
0
 62
     0
 10
314.273
 20
103.5
 30
0.0
 11
314.544
 21
103.638
 31
0.0
  0
LINE
  8
0
 62
     0
 10
314.544
 20
103.638
 30
0.0
 11
314.759
 21
103.853
 31
0.0
  0
LINE
  8
0
 62
     0
 10
314.759
 20
103.853
 30
0.0
 11
314.898
 21
104.126
 31
0.0
  0
LINE
  8
0
 62
     0
 10
314.898
 20
104.126
 30
0.0
 11
314.947
 21
104.428
 31
0.0
  0
LINE
  8
0
 62
     0
 10
314.947
 20
104.428
 30
0.0
 11
314.898
 21
104.728
 31
0.0
  0
LINE
  8
0
 62
     0
 10
314.898
 20
104.728
 30
0.0
 11
314.759
 21
105.001
 31
0.0
  0
LINE
  8
0
 62
     0
 10
314.759
 20
105.001
 30
0.0
 11
314.544
 21
105.216
 31
0.0
  0
LINE
  8
0
 62
     0
 10
314.544
 20
105.216
 30
0.0
 11
314.273
 21
105.355
 31
0.0
  0
LINE
  8
0
 62
     0
 10
314.273
 20
105.355
 30
0.0
 11
313.971
 21
105.402
 31
0.0
  0
LINE
  8
0
 62
     0
 10
313.971
 20
105.402
 30
0.0
 11
313.669
 21
105.355
 31
0.0
  0
LINE
  8
0
 62
     0
 10
158.269
 20
105.355
 30
0.0
 11
157.998
 21
105.216
 31
0.0
  0
LINE
  8
0
 62
     0
 10
157.998
 20
105.216
 30
0.0
 11
157.781
 21
105.001
 31
0.0
  0
LINE
  8
0
 62
     0
 10
157.781
 20
105.001
 30
0.0
 11
157.643
 21
104.728
 31
0.0
  0
LINE
  8
0
 62
     0
 10
157.643
 20
104.728
 30
0.0
 11
157.595
 21
104.428
 31
0.0
  0
LINE
  8
0
 62
     0
 10
157.595
 20
104.428
 30
0.0
 11
157.643
 21
104.126
 31
0.0
  0
LINE
  8
0
 62
     0
 10
157.643
 20
104.126
 30
0.0
 11
157.781
 21
103.853
 31
0.0
  0
LINE
  8
0
 62
     0
 10
157.781
 20
103.853
 30
0.0
 11
157.998
 21
103.638
 31
0.0
  0
LINE
  8
0
 62
     0
 10
157.998
 20
103.638
 30
0.0
 11
158.269
 21
103.5
 31
0.0
  0
LINE
  8
0
 62
     0
 10
158.269
 20
103.5
 30
0.0
 11
158.571
 21
103.452
 31
0.0
  0
LINE
  8
0
 62
     0
 10
158.571
 20
103.452
 30
0.0
 11
158.871
 21
103.5
 31
0.0
  0
LINE
  8
0
 62
     0
 10
158.871
 20
103.5
 30
0.0
 11
159.144
 21
103.638
 31
0.0
  0
LINE
  8
0
 62
     0
 10
159.144
 20
103.638
 30
0.0
 11
159.359
 21
103.853
 31
0.0
  0
LINE
  8
0
 62
     0
 10
159.359
 20
103.853
 30
0.0
 11
159.497
 21
104.126
 31
0.0
  0
LINE
  8
0
 62
     0
 10
159.497
 20
104.126
 30
0.0
 11
159.545
 21
104.428
 31
0.0
  0
LINE
  8
0
 62
     0
 10
159.545
 20
104.428
 30
0.0
 11
159.497
 21
104.728
 31
0.0
  0
LINE
  8
0
 62
     0
 10
159.497
 20
104.728
 30
0.0
 11
159.359
 21
105.001
 31
0.0
  0
LINE
  8
0
 62
     0
 10
159.359
 20
105.001
 30
0.0
 11
159.144
 21
105.216
 31
0.0
  0
LINE
  8
0
 62
     0
 10
159.144
 20
105.216
 30
0.0
 11
158.871
 21
105.355
 31
0.0
  0
LINE
  8
0
 62
     0
 10
158.871
 20
105.355
 30
0.0
 11
158.571
 21
105.402
 31
0.0
  0
LINE
  8
0
 62
     0
 10
158.571
 20
105.402
 30
0.0
 11
158.269
 21
105.355
 31
0.0
  0
ENDSEC
  0
EOF
