  0
SECTION
  2
HEADER
  9
$ACADVER
  1
AC1009
  9
$EXTMIN
 10
0.0
 20
0.0
 30
0.0
  9
$EXTMAX
 10
1000.0
 20
1000.0
 30
0.0
  9
$FILLMODE
 70
 0
  9
$SPLFRAME
 70
 1
  0
ENDSEC
  0
SECTION
  2
TABLES
  0
TABLE
  2
LAYER
 70
1
  0
LAYER
  2
0
 70
     0
 62
     7
  6
CONTINUOUS
  0
ENDTAB
  0
ENDSEC
  0
SECTION
  2
ENTITIES
  0
LINE
  8
0
 62
     0
 10
314.897
 20
107.502
 30
0.0
 11
315.053
 21
107.495
 31
0.0
  0
LINE
  8
0
 62
     0
 10
315.053
 20
107.495
 30
0.0
 11
315.208
 21
107.477
 31
0.0
  0
LINE
  8
0
 62
     0
 10
315.208
 20
107.477
 30
0.0
 11
315.363
 21
107.447
 31
0.0
  0
LINE
  8
0
 62
     0
 10
315.363
 20
107.447
 30
0.0
 11
315.514
 21
107.404
 31
0.0
  0
LINE
  8
0
 62
     0
 10
315.514
 20
107.404
 30
0.0
 11
315.662
 21
107.349
 31
0.0
  0
LINE
  8
0
 62
     0
 10
315.662
 20
107.349
 30
0.0
 11
315.803
 21
107.284
 31
0.0
  0
LINE
  8
0
 62
     0
 10
315.803
 20
107.284
 30
0.0
 11
315.94
 21
107.207
 31
0.0
  0
LINE
  8
0
 62
     0
 10
315.94
 20
107.207
 30
0.0
 11
316.071
 21
107.12
 31
0.0
  0
LINE
  8
0
 62
     0
 10
316.071
 20
107.12
 30
0.0
 11
316.195
 21
107.023
 31
0.0
  0
LINE
  8
0
 62
     0
 10
316.195
 20
107.023
 30
0.0
 11
316.311
 21
106.916
 31
0.0
  0
LINE
  8
0
 62
     0
 10
316.311
 20
106.916
 30
0.0
 11
316.417
 21
106.801
 31
0.0
  0
LINE
  8
0
 62
     0
 10
316.417
 20
106.801
 30
0.0
 11
316.515
 21
106.678
 31
0.0
  0
LINE
  8
0
 62
     0
 10
316.515
 20
106.678
 30
0.0
 11
316.601
 21
106.547
 31
0.0
  0
LINE
  8
0
 62
     0
 10
316.601
 20
106.547
 30
0.0
 11
316.679
 21
106.409
 31
0.0
  0
LINE
  8
0
 62
     0
 10
316.679
 20
106.409
 30
0.0
 11
316.743
 21
106.267
 31
0.0
  0
LINE
  8
0
 62
     0
 10
316.743
 20
106.267
 30
0.0
 11
316.799
 21
106.121
 31
0.0
  0
LINE
  8
0
 62
     0
 10
316.799
 20
106.121
 30
0.0
 11
316.84
 21
105.968
 31
0.0
  0
LINE
  8
0
 62
     0
 10
316.84
 20
105.968
 30
0.0
 11
316.872
 21
105.815
 31
0.0
  0
LINE
  8
0
 62
     0
 10
316.872
 20
105.815
 30
0.0
 11
316.89
 21
105.658
 31
0.0
  0
LINE
  8
0
 62
     0
 10
316.89
 20
105.658
 30
0.0
 11
316.896
 21
105.501
 31
0.0
  0
LINE
  8
0
 62
     0
 10
316.896
 20
105.501
 30
0.0
 11
316.896
 21
2.25171
 31
0.0
  0
LINE
  8
0
 62
     0
 10
316.896
 20
2.25171
 30
0.0
 11
316.89
 21
2.09462
 31
0.0
  0
LINE
  8
0
 62
     0
 10
316.89
 20
2.09462
 30
0.0
 11
316.872
 21
1.9389
 31
0.0
  0
LINE
  8
0
 62
     0
 10
316.872
 20
1.9389
 30
0.0
 11
316.84
 21
1.78456
 31
0.0
  0
LINE
  8
0
 62
     0
 10
316.84
 20
1.78456
 30
0.0
 11
316.799
 21
1.63298
 31
0.0
  0
LINE
  8
0
 62
     0
 10
316.799
 20
1.63298
 30
0.0
 11
316.743
 21
1.48553
 31
0.0
  0
LINE
  8
0
 62
     0
 10
316.743
 20
1.48553
 30
0.0
 11
316.679
 21
1.34359
 31
0.0
  0
LINE
  8
0
 62
     0
 10
316.679
 20
1.34359
 30
0.0
 11
316.601
 21
1.20716
 31
0.0
  0
LINE
  8
0
 62
     0
 10
316.601
 20
1.20716
 30
0.0
 11
316.515
 21
1.07625
 31
0.0
  0
LINE
  8
0
 62
     0
 10
316.515
 20
1.07625
 30
0.0
 11
316.417
 21
0.952225
 31
0.0
  0
LINE
  8
0
 62
     0
 10
316.417
 20
0.952225
 30
0.0
 11
316.311
 21
0.836468
 31
0.0
  0
LINE
  8
0
 62
     0
 10
316.311
 20
0.836468
 30
0.0
 11
316.195
 21
0.730359
 31
0.0
  0
LINE
  8
0
 62
     0
 10
316.195
 20
0.730359
 30
0.0
 11
316.071
 21
0.63252
 31
0.0
  0
LINE
  8
0
 62
     0
 10
316.071
 20
0.63252
 30
0.0
 11
315.94
 21
0.545705
 31
0.0
  0
LINE
  8
0
 62
     0
 10
315.94
 20
0.545705
 30
0.0
 11
315.803
 21
0.468535
 31
0.0
  0
LINE
  8
0
 62
     0
 10
315.803
 20
0.468535
 30
0.0
 11
315.662
 21
0.403765
 31
0.0
  0
LINE
  8
0
 62
     0
 10
315.662
 20
0.403765
 30
0.0
 11
315.514
 21
0.348644
 31
0.0
  0
LINE
  8
0
 62
     0
 10
315.514
 20
0.348644
 30
0.0
 11
315.363
 21
0.307303
 31
0.0
  0
LINE
  8
0
 62
     0
 10
315.363
 20
0.307303
 30
0.0
 11
315.208
 21
0.275608
 31
0.0
  0
LINE
  8
0
 62
     0
 10
315.208
 20
0.275608
 30
0.0
 11
315.053
 21
0.257693
 31
0.0
  0
LINE
  8
0
 62
     0
 10
315.053
 20
0.257693
 30
0.0
 11
314.897
 21
0.252181
 31
0.0
  0
LINE
  8
0
 62
     0
 10
314.897
 20
0.252181
 30
0.0
 11
2.096
 21
0.252181
 31
0.0
  0
LINE
  8
0
 62
     0
 10
2.096
 20
0.252181
 30
0.0
 11
1.9389
 21
0.257693
 31
0.0
  0
LINE
  8
0
 62
     0
 10
1.9389
 20
0.257693
 30
0.0
 11
1.7818
 21
0.275608
 31
0.0
  0
LINE
  8
0
 62
     0
 10
1.7818
 20
0.275608
 30
0.0
 11
1.62884
 21
0.307303
 31
0.0
  0
LINE
  8
0
 62
     0
 10
1.62884
 20
0.307303
 30
0.0
 11
1.47588
 21
0.348644
 31
0.0
  0
LINE
  8
0
 62
     0
 10
1.47588
 20
0.348644
 30
0.0
 11
1.32981
 21
0.403765
 31
0.0
  0
LINE
  8
0
 62
     0
 10
1.32981
 20
0.403765
 30
0.0
 11
1.18787
 21
0.468535
 31
0.0
  0
LINE
  8
0
 62
     0
 10
1.18787
 20
0.468535
 30
0.0
 11
1.05006
 21
0.545705
 31
0.0
  0
LINE
  8
0
 62
     0
 10
1.05006
 20
0.545705
 30
0.0
 11
0.919152
 21
0.63252
 31
0.0
  0
LINE
  8
0
 62
     0
 10
0.919152
 20
0.63252
 30
0.0
 11
0.796505
 21
0.730359
 31
0.0
  0
LINE
  8
0
 62
     0
 10
0.796505
 20
0.730359
 30
0.0
 11
0.680752
 21
0.836468
 31
0.0
  0
LINE
  8
0
 62
     0
 10
0.680752
 20
0.836468
 30
0.0
 11
0.574643
 21
0.952225
 31
0.0
  0
LINE
  8
0
 62
     0
 10
0.574643
 20
0.952225
 30
0.0
 11
0.4768
 21
1.07625
 31
0.0
  0
LINE
  8
0
 62
     0
 10
0.4768
 20
1.07625
 30
0.0
 11
0.389985
 21
1.20716
 31
0.0
  0
LINE
  8
0
 62
     0
 10
0.389985
 20
1.20716
 30
0.0
 11
0.312815
 21
1.34359
 31
0.0
  0
LINE
  8
0
 62
     0
 10
0.312815
 20
1.34359
 30
0.0
 11
0.248047
 21
1.48553
 31
0.0
  0
LINE
  8
0
 62
     0
 10
0.248047
 20
1.48553
 30
0.0
 11
0.192925
 21
1.63298
 31
0.0
  0
LINE
  8
0
 62
     0
 10
0.192925
 20
1.63298
 30
0.0
 11
0.150206
 21
1.78456
 31
0.0
  0
LINE
  8
0
 62
     0
 10
0.150206
 20
1.78456
 30
0.0
 11
0.119889
 21
1.9389
 31
0.0
  0
LINE
  8
0
 62
     0
 10
0.119889
 20
1.9389
 30
0.0
 11
0.101975
 21
2.09462
 31
0.0
  0
LINE
  8
0
 62
     0
 10
0.101975
 20
2.09462
 30
0.0
 11
0.0950846
 21
2.25034
 31
0.0
  0
LINE
  8
0
 62
     0
 10
0.0950846
 20
2.25034
 30
0.0
 11
0.0950846
 21
105.501
 31
0.0
  0
LINE
  8
0
 62
     0
 10
0.0950846
 20
105.501
 30
0.0
 11
0.101975
 21
105.658
 31
0.0
  0
LINE
  8
0
 62
     0
 10
0.101975
 20
105.658
 30
0.0
 11
0.119889
 21
105.815
 31
0.0
  0
LINE
  8
0
 62
     0
 10
0.119889
 20
105.815
 30
0.0
 11
0.150206
 21
105.968
 31
0.0
  0
LINE
  8
0
 62
     0
 10
0.150206
 20
105.968
 30
0.0
 11
0.192925
 21
106.121
 31
0.0
  0
LINE
  8
0
 62
     0
 10
0.192925
 20
106.121
 30
0.0
 11
0.248047
 21
106.267
 31
0.0
  0
LINE
  8
0
 62
     0
 10
0.248047
 20
106.267
 30
0.0
 11
0.312815
 21
106.409
 31
0.0
  0
LINE
  8
0
 62
     0
 10
0.312815
 20
106.409
 30
0.0
 11
0.389985
 21
106.547
 31
0.0
  0
LINE
  8
0
 62
     0
 10
0.389985
 20
106.547
 30
0.0
 11
0.4768
 21
106.678
 31
0.0
  0
LINE
  8
0
 62
     0
 10
0.4768
 20
106.678
 30
0.0
 11
0.574643
 21
106.801
 31
0.0
  0
LINE
  8
0
 62
     0
 10
0.574643
 20
106.801
 30
0.0
 11
0.680752
 21
106.916
 31
0.0
  0
LINE
  8
0
 62
     0
 10
0.680752
 20
106.916
 30
0.0
 11
0.796505
 21
107.023
 31
0.0
  0
LINE
  8
0
 62
     0
 10
0.796505
 20
107.023
 30
0.0
 11
0.919152
 21
107.12
 31
0.0
  0
LINE
  8
0
 62
     0
 10
0.919152
 20
107.12
 30
0.0
 11
1.05006
 21
107.207
 31
0.0
  0
LINE
  8
0
 62
     0
 10
1.05006
 20
107.207
 30
0.0
 11
1.18787
 21
107.284
 31
0.0
  0
LINE
  8
0
 62
     0
 10
1.18787
 20
107.284
 30
0.0
 11
1.32981
 21
107.349
 31
0.0
  0
LINE
  8
0
 62
     0
 10
1.32981
 20
107.349
 30
0.0
 11
1.47588
 21
107.404
 31
0.0
  0
LINE
  8
0
 62
     0
 10
1.47588
 20
107.404
 30
0.0
 11
1.62884
 21
107.447
 31
0.0
  0
LINE
  8
0
 62
     0
 10
1.62884
 20
107.447
 30
0.0
 11
1.7818
 21
107.477
 31
0.0
  0
LINE
  8
0
 62
     0
 10
1.7818
 20
107.477
 30
0.0
 11
1.9389
 21
107.495
 31
0.0
  0
LINE
  8
0
 62
     0
 10
1.9389
 20
107.495
 30
0.0
 11
2.096
 21
107.502
 31
0.0
  0
LINE
  8
0
 62
     0
 10
2.096
 20
107.502
 30
0.0
 11
314.897
 21
107.502
 31
0.0
  0
LINE
  8
0
 62
     0
 10
2.76986
 20
4.24988
 30
0.0
 11
2.47771
 21
4.10104
 31
0.0
  0
LINE
  8
0
 62
     0
 10
2.47771
 20
4.10104
 30
0.0
 11
2.24482
 21
3.86814
 31
0.0
  0
LINE
  8
0
 62
     0
 10
2.24482
 20
3.86814
 30
0.0
 11
2.096
 21
3.576
 31
0.0
  0
LINE
  8
0
 62
     0
 10
2.096
 20
3.576
 30
0.0
 11
2.04501
 21
3.25079
 31
0.0
  0
LINE
  8
0
 62
     0
 10
2.04501
 20
3.25079
 30
0.0
 11
2.096
 21
2.92695
 31
0.0
  0
LINE
  8
0
 62
     0
 10
2.096
 20
2.92695
 30
0.0
 11
2.24482
 21
2.63343
 31
0.0
  0
LINE
  8
0
 62
     0
 10
2.24482
 20
2.63343
 30
0.0
 11
2.47771
 21
2.40192
 31
0.0
  0
LINE
  8
0
 62
     0
 10
2.47771
 20
2.40192
 30
0.0
 11
2.76986
 21
2.25309
 31
0.0
  0
LINE
  8
0
 62
     0
 10
2.76986
 20
2.25309
 30
0.0
 11
3.09507
 21
2.20073
 31
0.0
  0
LINE
  8
0
 62
     0
 10
3.09507
 20
2.20073
 30
0.0
 11
3.41891
 21
2.25309
 31
0.0
  0
LINE
  8
0
 62
     0
 10
3.41891
 20
2.25309
 30
0.0
 11
3.71242
 21
2.40192
 31
0.0
  0
LINE
  8
0
 62
     0
 10
3.71242
 20
2.40192
 30
0.0
 11
3.94395
 21
2.63343
 31
0.0
  0
LINE
  8
0
 62
     0
 10
3.94395
 20
2.63343
 30
0.0
 11
4.09416
 21
2.92695
 31
0.0
  0
LINE
  8
0
 62
     0
 10
4.09416
 20
2.92695
 30
0.0
 11
4.14514
 21
3.25079
 31
0.0
  0
LINE
  8
0
 62
     0
 10
4.14514
 20
3.25079
 30
0.0
 11
4.09416
 21
3.576
 31
0.0
  0
LINE
  8
0
 62
     0
 10
4.09416
 20
3.576
 30
0.0
 11
3.94395
 21
3.86814
 31
0.0
  0
LINE
  8
0
 62
     0
 10
3.94395
 20
3.86814
 30
0.0
 11
3.71242
 21
4.10104
 31
0.0
  0
LINE
  8
0
 62
     0
 10
3.71242
 20
4.10104
 30
0.0
 11
3.41891
 21
4.24988
 31
0.0
  0
LINE
  8
0
 62
     0
 10
3.41891
 20
4.24988
 30
0.0
 11
3.09507
 21
4.30085
 31
0.0
  0
LINE
  8
0
 62
     0
 10
3.09507
 20
4.30085
 30
0.0
 11
2.76986
 21
4.24988
 31
0.0
  0
LINE
  8
0
 62
     0
 10
158.171
 20
4.24988
 30
0.0
 11
157.879
 21
4.10104
 31
0.0
  0
LINE
  8
0
 62
     0
 10
157.879
 20
4.10104
 30
0.0
 11
157.646
 21
3.86814
 31
0.0
  0
LINE
  8
0
 62
     0
 10
157.646
 20
3.86814
 30
0.0
 11
157.496
 21
3.576
 31
0.0
  0
LINE
  8
0
 62
     0
 10
157.496
 20
3.576
 30
0.0
 11
157.445
 21
3.25079
 31
0.0
  0
LINE
  8
0
 62
     0
 10
157.445
 20
3.25079
 30
0.0
 11
157.496
 21
2.92695
 31
0.0
  0
LINE
  8
0
 62
     0
 10
157.496
 20
2.92695
 30
0.0
 11
157.646
 21
2.63343
 31
0.0
  0
LINE
  8
0
 62
     0
 10
157.646
 20
2.63343
 30
0.0
 11
157.879
 21
2.40192
 31
0.0
  0
LINE
  8
0
 62
     0
 10
157.879
 20
2.40192
 30
0.0
 11
158.171
 21
2.25309
 31
0.0
  0
LINE
  8
0
 62
     0
 10
158.171
 20
2.25309
 30
0.0
 11
158.495
 21
2.20073
 31
0.0
  0
LINE
  8
0
 62
     0
 10
158.495
 20
2.20073
 30
0.0
 11
158.819
 21
2.25309
 31
0.0
  0
LINE
  8
0
 62
     0
 10
158.819
 20
2.25309
 30
0.0
 11
159.112
 21
2.40192
 31
0.0
  0
LINE
  8
0
 62
     0
 10
159.112
 20
2.40192
 30
0.0
 11
159.344
 21
2.63343
 31
0.0
  0
LINE
  8
0
 62
     0
 10
159.344
 20
2.63343
 30
0.0
 11
159.494
 21
2.92695
 31
0.0
  0
LINE
  8
0
 62
     0
 10
159.494
 20
2.92695
 30
0.0
 11
159.545
 21
3.25079
 31
0.0
  0
LINE
  8
0
 62
     0
 10
159.545
 20
3.25079
 30
0.0
 11
159.494
 21
3.576
 31
0.0
  0
LINE
  8
0
 62
     0
 10
159.494
 20
3.576
 30
0.0
 11
159.344
 21
3.86814
 31
0.0
  0
LINE
  8
0
 62
     0
 10
159.344
 20
3.86814
 30
0.0
 11
159.112
 21
4.10104
 31
0.0
  0
LINE
  8
0
 62
     0
 10
159.112
 20
4.10104
 30
0.0
 11
158.819
 21
4.24988
 31
0.0
  0
LINE
  8
0
 62
     0
 10
158.819
 20
4.24988
 30
0.0
 11
158.495
 21
4.30085
 31
0.0
  0
LINE
  8
0
 62
     0
 10
158.495
 20
4.30085
 30
0.0
 11
158.171
 21
4.24988
 31
0.0
  0
LINE
  8
0
 62
     0
 10
313.571
 20
4.24988
 30
0.0
 11
313.279
 21
4.10104
 31
0.0
  0
LINE
  8
0
 62
     0
 10
313.279
 20
4.10104
 30
0.0
 11
313.046
 21
3.86814
 31
0.0
  0
LINE
  8
0
 62
     0
 10
313.046
 20
3.86814
 30
0.0
 11
312.897
 21
3.576
 31
0.0
  0
LINE
  8
0
 62
     0
 10
312.897
 20
3.576
 30
0.0
 11
312.847
 21
3.25079
 31
0.0
  0
LINE
  8
0
 62
     0
 10
312.847
 20
3.25079
 30
0.0
 11
312.897
 21
2.92695
 31
0.0
  0
LINE
  8
0
 62
     0
 10
312.897
 20
2.92695
 30
0.0
 11
313.046
 21
2.63343
 31
0.0
  0
LINE
  8
0
 62
     0
 10
313.046
 20
2.63343
 30
0.0
 11
313.279
 21
2.40192
 31
0.0
  0
LINE
  8
0
 62
     0
 10
313.279
 20
2.40192
 30
0.0
 11
313.571
 21
2.25309
 31
0.0
  0
LINE
  8
0
 62
     0
 10
313.571
 20
2.25309
 30
0.0
 11
313.896
 21
2.20073
 31
0.0
  0
LINE
  8
0
 62
     0
 10
313.896
 20
2.20073
 30
0.0
 11
314.22
 21
2.25309
 31
0.0
  0
LINE
  8
0
 62
     0
 10
314.22
 20
2.25309
 30
0.0
 11
314.514
 21
2.40192
 31
0.0
  0
LINE
  8
0
 62
     0
 10
314.514
 20
2.40192
 30
0.0
 11
314.745
 21
2.63343
 31
0.0
  0
LINE
  8
0
 62
     0
 10
314.745
 20
2.63343
 30
0.0
 11
314.894
 21
2.92695
 31
0.0
  0
LINE
  8
0
 62
     0
 10
314.894
 20
2.92695
 30
0.0
 11
314.947
 21
3.25079
 31
0.0
  0
LINE
  8
0
 62
     0
 10
314.947
 20
3.25079
 30
0.0
 11
314.894
 21
3.576
 31
0.0
  0
LINE
  8
0
 62
     0
 10
314.894
 20
3.576
 30
0.0
 11
314.745
 21
3.86814
 31
0.0
  0
LINE
  8
0
 62
     0
 10
314.745
 20
3.86814
 30
0.0
 11
314.514
 21
4.10104
 31
0.0
  0
LINE
  8
0
 62
     0
 10
314.514
 20
4.10104
 30
0.0
 11
314.22
 21
4.24988
 31
0.0
  0
LINE
  8
0
 62
     0
 10
314.22
 20
4.24988
 30
0.0
 11
313.896
 21
4.30085
 31
0.0
  0
LINE
  8
0
 62
     0
 10
313.896
 20
4.30085
 30
0.0
 11
313.571
 21
4.24988
 31
0.0
  0
LINE
  8
0
 62
     0
 10
130.064
 20
22.7762
 30
0.0
 11
130.064
 21
22.1782
 31
0.0
  0
LINE
  8
0
 62
     0
 10
130.064
 20
22.1782
 30
0.0
 11
129.264
 21
22.1782
 31
0.0
  0
LINE
  8
0
 62
     0
 10
129.264
 20
22.1782
 30
0.0
 11
129.264
 21
18.0771
 31
0.0
  0
LINE
  8
0
 62
     0
 10
129.264
 20
18.0771
 30
0.0
 11
90.4378
 21
18.0771
 31
0.0
  0
LINE
  8
0
 62
     0
 10
90.4378
 20
18.0771
 30
0.0
 11
90.4378
 21
21.3072
 31
0.0
  0
LINE
  8
0
 62
     0
 10
90.4378
 20
21.3072
 30
0.0
 11
88.7141
 21
21.3072
 31
0.0
  0
LINE
  8
0
 62
     0
 10
88.7141
 20
21.3072
 30
0.0
 11
88.7141
 21
22.2278
 31
0.0
  0
LINE
  8
0
 62
     0
 10
88.7141
 20
22.2278
 30
0.0
 11
85.4135
 21
22.2278
 31
0.0
  0
LINE
  8
0
 62
     0
 10
85.4135
 20
22.2278
 30
0.0
 11
85.4135
 21
21.3072
 31
0.0
  0
LINE
  8
0
 62
     0
 10
85.4135
 20
21.3072
 30
0.0
 11
83.6884
 21
21.3072
 31
0.0
  0
LINE
  8
0
 62
     0
 10
83.6884
 20
21.3072
 30
0.0
 11
83.6884
 21
18.0771
 31
0.0
  0
LINE
  8
0
 62
     0
 10
83.6884
 20
18.0771
 30
0.0
 11
82.8629
 21
18.0771
 31
0.0
  0
LINE
  8
0
 62
     0
 10
82.8629
 20
18.0771
 30
0.0
 11
82.8629
 21
15.2769
 31
0.0
  0
LINE
  8
0
 62
     0
 10
82.8629
 20
15.2769
 30
0.0
 11
83.6884
 21
15.2769
 31
0.0
  0
LINE
  8
0
 62
     0
 10
83.6884
 20
15.2769
 30
0.0
 11
83.6884
 21
9.00825
 31
0.0
  0
LINE
  8
0
 62
     0
 10
83.6884
 20
9.00825
 30
0.0
 11
85.4135
 21
9.00825
 31
0.0
  0
LINE
  8
0
 62
     0
 10
85.4135
 20
9.00825
 30
0.0
 11
85.4135
 21
8.02707
 31
0.0
  0
LINE
  8
0
 62
     0
 10
85.4135
 20
8.02707
 30
0.0
 11
88.7141
 21
8.02707
 31
0.0
  0
LINE
  8
0
 62
     0
 10
88.7141
 20
8.02707
 30
0.0
 11
88.7141
 21
9.00825
 31
0.0
  0
LINE
  8
0
 62
     0
 10
88.7141
 20
9.00825
 30
0.0
 11
90.4378
 21
9.00825
 31
0.0
  0
LINE
  8
0
 62
     0
 10
90.4378
 20
9.00825
 30
0.0
 11
90.4378
 21
13.4772
 31
0.0
  0
LINE
  8
0
 62
     0
 10
90.4378
 20
13.4772
 30
0.0
 11
129.264
 21
13.4772
 31
0.0
  0
LINE
  8
0
 62
     0
 10
129.264
 20
13.4772
 30
0.0
 11
129.264
 21
9.37616
 31
0.0
  0
LINE
  8
0
 62
     0
 10
129.264
 20
9.37616
 30
0.0
 11
130.064
 21
9.37616
 31
0.0
  0
LINE
  8
0
 62
     0
 10
130.064
 20
9.37616
 30
0.0
 11
130.064
 21
8.77672
 31
0.0
  0
LINE
  8
0
 62
     0
 10
130.064
 20
8.77672
 30
0.0
 11
144.063
 21
8.77672
 31
0.0
  0
LINE
  8
0
 62
     0
 10
144.063
 20
8.77672
 30
0.0
 11
144.063
 21
9.37616
 31
0.0
  0
LINE
  8
0
 62
     0
 10
144.063
 20
9.37616
 30
0.0
 11
144.864
 21
9.37616
 31
0.0
  0
LINE
  8
0
 62
     0
 10
144.864
 20
9.37616
 30
0.0
 11
144.864
 21
13.4772
 31
0.0
  0
LINE
  8
0
 62
     0
 10
144.864
 20
13.4772
 30
0.0
 11
183.688
 21
13.4772
 31
0.0
  0
LINE
  8
0
 62
     0
 10
183.688
 20
13.4772
 30
0.0
 11
183.688
 21
9.00825
 31
0.0
  0
LINE
  8
0
 62
     0
 10
183.688
 20
9.00825
 30
0.0
 11
185.414
 21
9.00825
 31
0.0
  0
LINE
  8
0
 62
     0
 10
185.414
 20
9.00825
 30
0.0
 11
185.414
 21
8.02707
 31
0.0
  0
LINE
  8
0
 62
     0
 10
185.414
 20
8.02707
 30
0.0
 11
188.714
 21
8.02707
 31
0.0
  0
LINE
  8
0
 62
     0
 10
188.714
 20
8.02707
 30
0.0
 11
188.714
 21
9.00825
 31
0.0
  0
LINE
  8
0
 62
     0
 10
188.714
 20
9.00825
 30
0.0
 11
190.438
 21
9.00825
 31
0.0
  0
LINE
  8
0
 62
     0
 10
190.438
 20
9.00825
 30
0.0
 11
190.438
 21
15.2769
 31
0.0
  0
LINE
  8
0
 62
     0
 10
190.438
 20
15.2769
 30
0.0
 11
191.263
 21
15.2769
 31
0.0
  0
LINE
  8
0
 62
     0
 10
191.263
 20
15.2769
 30
0.0
 11
191.263
 21
18.0771
 31
0.0
  0
LINE
  8
0
 62
     0
 10
191.263
 20
18.0771
 30
0.0
 11
190.438
 21
18.0771
 31
0.0
  0
LINE
  8
0
 62
     0
 10
190.438
 20
18.0771
 30
0.0
 11
190.438
 21
21.3072
 31
0.0
  0
LINE
  8
0
 62
     0
 10
190.438
 20
21.3072
 30
0.0
 11
188.714
 21
21.3072
 31
0.0
  0
LINE
  8
0
 62
     0
 10
188.714
 20
21.3072
 30
0.0
 11
188.714
 21
22.2278
 31
0.0
  0
LINE
  8
0
 62
     0
 10
188.714
 20
22.2278
 30
0.0
 11
185.414
 21
22.2278
 31
0.0
  0
LINE
  8
0
 62
     0
 10
185.414
 20
22.2278
 30
0.0
 11
185.414
 21
21.3072
 31
0.0
  0
LINE
  8
0
 62
     0
 10
185.414
 20
21.3072
 30
0.0
 11
183.688
 21
21.3072
 31
0.0
  0
LINE
  8
0
 62
     0
 10
183.688
 20
21.3072
 30
0.0
 11
183.688
 21
18.0771
 31
0.0
  0
LINE
  8
0
 62
     0
 10
183.688
 20
18.0771
 30
0.0
 11
144.864
 21
18.0771
 31
0.0
  0
LINE
  8
0
 62
     0
 10
144.864
 20
18.0771
 30
0.0
 11
144.864
 21
22.1782
 31
0.0
  0
LINE
  8
0
 62
     0
 10
144.864
 20
22.1782
 30
0.0
 11
144.063
 21
22.1782
 31
0.0
  0
LINE
  8
0
 62
     0
 10
144.063
 20
22.1782
 30
0.0
 11
144.063
 21
22.7762
 31
0.0
  0
LINE
  8
0
 62
     0
 10
144.063
 20
22.7762
 30
0.0
 11
130.064
 21
22.7762
 31
0.0
  0
LINE
  8
0
 62
     0
 10
294.371
 20
22.7762
 30
0.0
 11
294.371
 21
22.1782
 31
0.0
  0
LINE
  8
0
 62
     0
 10
294.371
 20
22.1782
 30
0.0
 11
293.57
 21
22.1782
 31
0.0
  0
LINE
  8
0
 62
     0
 10
293.57
 20
22.1782
 30
0.0
 11
293.57
 21
9.37616
 31
0.0
  0
LINE
  8
0
 62
     0
 10
293.57
 20
9.37616
 30
0.0
 11
294.371
 21
9.37616
 31
0.0
  0
LINE
  8
0
 62
     0
 10
294.371
 20
9.37616
 30
0.0
 11
294.371
 21
8.77672
 31
0.0
  0
LINE
  8
0
 62
     0
 10
294.371
 20
8.77672
 30
0.0
 11
308.37
 21
8.77672
 31
0.0
  0
LINE
  8
0
 62
     0
 10
308.37
 20
8.77672
 30
0.0
 11
308.37
 21
9.37616
 31
0.0
  0
LINE
  8
0
 62
     0
 10
308.37
 20
9.37616
 30
0.0
 11
309.171
 21
9.37616
 31
0.0
  0
LINE
  8
0
 62
     0
 10
309.171
 20
9.37616
 30
0.0
 11
309.171
 21
22.1782
 31
0.0
  0
LINE
  8
0
 62
     0
 10
309.171
 20
22.1782
 30
0.0
 11
308.37
 21
22.1782
 31
0.0
  0
LINE
  8
0
 62
     0
 10
308.37
 20
22.1782
 30
0.0
 11
308.37
 21
22.7762
 31
0.0
  0
LINE
  8
0
 62
     0
 10
308.37
 20
22.7762
 30
0.0
 11
294.371
 21
22.7762
 31
0.0
  0
LINE
  8
0
 62
     0
 10
275.321
 20
22.7762
 30
0.0
 11
275.321
 21
22.1782
 31
0.0
  0
LINE
  8
0
 62
     0
 10
275.321
 20
22.1782
 30
0.0
 11
274.52
 21
22.1782
 31
0.0
  0
LINE
  8
0
 62
     0
 10
274.52
 20
22.1782
 30
0.0
 11
274.52
 21
9.37616
 31
0.0
  0
LINE
  8
0
 62
     0
 10
274.52
 20
9.37616
 30
0.0
 11
275.321
 21
9.37616
 31
0.0
  0
LINE
  8
0
 62
     0
 10
275.321
 20
9.37616
 30
0.0
 11
275.321
 21
8.77672
 31
0.0
  0
LINE
  8
0
 62
     0
 10
275.321
 20
8.77672
 30
0.0
 11
289.32
 21
8.77672
 31
0.0
  0
LINE
  8
0
 62
     0
 10
289.32
 20
8.77672
 30
0.0
 11
289.32
 21
9.37616
 31
0.0
  0
LINE
  8
0
 62
     0
 10
289.32
 20
9.37616
 30
0.0
 11
290.121
 21
9.37616
 31
0.0
  0
LINE
  8
0
 62
     0
 10
290.121
 20
9.37616
 30
0.0
 11
290.121
 21
22.1782
 31
0.0
  0
LINE
  8
0
 62
     0
 10
290.121
 20
22.1782
 30
0.0
 11
289.32
 21
22.1782
 31
0.0
  0
LINE
  8
0
 62
     0
 10
289.32
 20
22.1782
 30
0.0
 11
289.32
 21
22.7762
 31
0.0
  0
LINE
  8
0
 62
     0
 10
289.32
 20
22.7762
 30
0.0
 11
275.321
 21
22.7762
 31
0.0
  0
LINE
  8
0
 62
     0
 10
256.271
 20
22.7762
 30
0.0
 11
256.271
 21
22.1782
 31
0.0
  0
LINE
  8
0
 62
     0
 10
256.271
 20
22.1782
 30
0.0
 11
255.47
 21
22.1782
 31
0.0
  0
LINE
  8
0
 62
     0
 10
255.47
 20
22.1782
 30
0.0
 11
255.47
 21
9.37616
 31
0.0
  0
LINE
  8
0
 62
     0
 10
255.47
 20
9.37616
 30
0.0
 11
256.271
 21
9.37616
 31
0.0
  0
LINE
  8
0
 62
     0
 10
256.271
 20
9.37616
 30
0.0
 11
256.271
 21
8.77672
 31
0.0
  0
LINE
  8
0
 62
     0
 10
256.271
 20
8.77672
 30
0.0
 11
270.27
 21
8.77672
 31
0.0
  0
LINE
  8
0
 62
     0
 10
270.27
 20
8.77672
 30
0.0
 11
270.27
 21
9.37616
 31
0.0
  0
LINE
  8
0
 62
     0
 10
270.27
 20
9.37616
 30
0.0
 11
271.071
 21
9.37616
 31
0.0
  0
LINE
  8
0
 62
     0
 10
271.071
 20
9.37616
 30
0.0
 11
271.071
 21
22.1782
 31
0.0
  0
LINE
  8
0
 62
     0
 10
271.071
 20
22.1782
 30
0.0
 11
270.27
 21
22.1782
 31
0.0
  0
LINE
  8
0
 62
     0
 10
270.27
 20
22.1782
 30
0.0
 11
270.27
 21
22.7762
 31
0.0
  0
LINE
  8
0
 62
     0
 10
270.27
 20
22.7762
 30
0.0
 11
256.271
 21
22.7762
 31
0.0
  0
LINE
  8
0
 62
     0
 10
237.221
 20
22.7762
 30
0.0
 11
237.221
 21
22.1782
 31
0.0
  0
LINE
  8
0
 62
     0
 10
237.221
 20
22.1782
 30
0.0
 11
236.42
 21
22.1782
 31
0.0
  0
LINE
  8
0
 62
     0
 10
236.42
 20
22.1782
 30
0.0
 11
236.42
 21
9.37616
 31
0.0
  0
LINE
  8
0
 62
     0
 10
236.42
 20
9.37616
 30
0.0
 11
237.221
 21
9.37616
 31
0.0
  0
LINE
  8
0
 62
     0
 10
237.221
 20
9.37616
 30
0.0
 11
237.221
 21
8.77672
 31
0.0
  0
LINE
  8
0
 62
     0
 10
237.221
 20
8.77672
 30
0.0
 11
251.22
 21
8.77672
 31
0.0
  0
LINE
  8
0
 62
     0
 10
251.22
 20
8.77672
 30
0.0
 11
251.22
 21
9.37616
 31
0.0
  0
LINE
  8
0
 62
     0
 10
251.22
 20
9.37616
 30
0.0
 11
252.021
 21
9.37616
 31
0.0
  0
LINE
  8
0
 62
     0
 10
252.021
 20
9.37616
 30
0.0
 11
252.021
 21
22.1782
 31
0.0
  0
LINE
  8
0
 62
     0
 10
252.021
 20
22.1782
 30
0.0
 11
251.22
 21
22.1782
 31
0.0
  0
LINE
  8
0
 62
     0
 10
251.22
 20
22.1782
 30
0.0
 11
251.22
 21
22.7762
 31
0.0
  0
LINE
  8
0
 62
     0
 10
251.22
 20
22.7762
 30
0.0
 11
237.221
 21
22.7762
 31
0.0
  0
LINE
  8
0
 62
     0
 10
218.171
 20
22.7762
 30
0.0
 11
218.171
 21
22.1782
 31
0.0
  0
LINE
  8
0
 62
     0
 10
218.171
 20
22.1782
 30
0.0
 11
217.37
 21
22.1782
 31
0.0
  0
LINE
  8
0
 62
     0
 10
217.37
 20
22.1782
 30
0.0
 11
217.37
 21
9.37616
 31
0.0
  0
LINE
  8
0
 62
     0
 10
217.37
 20
9.37616
 30
0.0
 11
218.171
 21
9.37616
 31
0.0
  0
LINE
  8
0
 62
     0
 10
218.171
 20
9.37616
 30
0.0
 11
218.171
 21
8.77672
 31
0.0
  0
LINE
  8
0
 62
     0
 10
218.171
 20
8.77672
 30
0.0
 11
232.17
 21
8.77672
 31
0.0
  0
LINE
  8
0
 62
     0
 10
232.17
 20
8.77672
 30
0.0
 11
232.17
 21
9.37616
 31
0.0
  0
LINE
  8
0
 62
     0
 10
232.17
 20
9.37616
 30
0.0
 11
232.971
 21
9.37616
 31
0.0
  0
LINE
  8
0
 62
     0
 10
232.971
 20
9.37616
 30
0.0
 11
232.971
 21
22.1782
 31
0.0
  0
LINE
  8
0
 62
     0
 10
232.971
 20
22.1782
 30
0.0
 11
232.17
 21
22.1782
 31
0.0
  0
LINE
  8
0
 62
     0
 10
232.17
 20
22.1782
 30
0.0
 11
232.17
 21
22.7762
 31
0.0
  0
LINE
  8
0
 62
     0
 10
232.17
 20
22.7762
 30
0.0
 11
218.171
 21
22.7762
 31
0.0
  0
LINE
  8
0
 62
     0
 10
199.121
 20
22.7762
 30
0.0
 11
199.121
 21
22.1782
 31
0.0
  0
LINE
  8
0
 62
     0
 10
199.121
 20
22.1782
 30
0.0
 11
198.32
 21
22.1782
 31
0.0
  0
LINE
  8
0
 62
     0
 10
198.32
 20
22.1782
 30
0.0
 11
198.32
 21
9.37616
 31
0.0
  0
LINE
  8
0
 62
     0
 10
198.32
 20
9.37616
 30
0.0
 11
199.121
 21
9.37616
 31
0.0
  0
LINE
  8
0
 62
     0
 10
199.121
 20
9.37616
 30
0.0
 11
199.121
 21
8.77672
 31
0.0
  0
LINE
  8
0
 62
     0
 10
199.121
 20
8.77672
 30
0.0
 11
213.12
 21
8.77672
 31
0.0
  0
LINE
  8
0
 62
     0
 10
213.12
 20
8.77672
 30
0.0
 11
213.12
 21
9.37616
 31
0.0
  0
LINE
  8
0
 62
     0
 10
213.12
 20
9.37616
 30
0.0
 11
213.921
 21
9.37616
 31
0.0
  0
LINE
  8
0
 62
     0
 10
213.921
 20
9.37616
 30
0.0
 11
213.921
 21
22.1782
 31
0.0
  0
LINE
  8
0
 62
     0
 10
213.921
 20
22.1782
 30
0.0
 11
213.12
 21
22.1782
 31
0.0
  0
LINE
  8
0
 62
     0
 10
213.12
 20
22.1782
 30
0.0
 11
213.12
 21
22.7762
 31
0.0
  0
LINE
  8
0
 62
     0
 10
213.12
 20
22.7762
 30
0.0
 11
199.121
 21
22.7762
 31
0.0
  0
LINE
  8
0
 62
     0
 10
58.626
 20
22.7762
 30
0.0
 11
58.626
 21
22.1782
 31
0.0
  0
LINE
  8
0
 62
     0
 10
58.626
 20
22.1782
 30
0.0
 11
57.8266
 21
22.1782
 31
0.0
  0
LINE
  8
0
 62
     0
 10
57.8266
 20
22.1782
 30
0.0
 11
57.8266
 21
9.37616
 31
0.0
  0
LINE
  8
0
 62
     0
 10
57.8266
 20
9.37616
 30
0.0
 11
58.626
 21
9.37616
 31
0.0
  0
LINE
  8
0
 62
     0
 10
58.626
 20
9.37616
 30
0.0
 11
58.626
 21
8.77672
 31
0.0
  0
LINE
  8
0
 62
     0
 10
58.626
 20
8.77672
 30
0.0
 11
72.6267
 21
8.77672
 31
0.0
  0
LINE
  8
0
 62
     0
 10
72.6267
 20
8.77672
 30
0.0
 11
72.6267
 21
9.37616
 31
0.0
  0
LINE
  8
0
 62
     0
 10
72.6267
 20
9.37616
 30
0.0
 11
73.4261
 21
9.37616
 31
0.0
  0
LINE
  8
0
 62
     0
 10
73.4261
 20
9.37616
 30
0.0
 11
73.4261
 21
22.1782
 31
0.0
  0
LINE
  8
0
 62
     0
 10
73.4261
 20
22.1782
 30
0.0
 11
72.6267
 21
22.1782
 31
0.0
  0
LINE
  8
0
 62
     0
 10
72.6267
 20
22.1782
 30
0.0
 11
72.6267
 21
22.7762
 31
0.0
  0
LINE
  8
0
 62
     0
 10
72.6267
 20
22.7762
 30
0.0
 11
58.626
 21
22.7762
 31
0.0
  0
LINE
  8
0
 62
     0
 10
34.8134
 20
22.7762
 30
0.0
 11
34.8134
 21
22.1782
 31
0.0
  0
LINE
  8
0
 62
     0
 10
34.8134
 20
22.1782
 30
0.0
 11
34.0141
 21
22.1782
 31
0.0
  0
LINE
  8
0
 62
     0
 10
34.0141
 20
22.1782
 30
0.0
 11
34.0141
 21
9.37616
 31
0.0
  0
LINE
  8
0
 62
     0
 10
34.0141
 20
9.37616
 30
0.0
 11
34.8134
 21
9.37616
 31
0.0
  0
LINE
  8
0
 62
     0
 10
34.8134
 20
9.37616
 30
0.0
 11
34.8134
 21
8.77672
 31
0.0
  0
LINE
  8
0
 62
     0
 10
34.8134
 20
8.77672
 30
0.0
 11
48.8128
 21
8.77672
 31
0.0
  0
LINE
  8
0
 62
     0
 10
48.8128
 20
8.77672
 30
0.0
 11
48.8128
 21
9.37616
 31
0.0
  0
LINE
  8
0
 62
     0
 10
48.8128
 20
9.37616
 30
0.0
 11
49.6136
 21
9.37616
 31
0.0
  0
LINE
  8
0
 62
     0
 10
49.6136
 20
9.37616
 30
0.0
 11
49.6136
 21
22.1782
 31
0.0
  0
LINE
  8
0
 62
     0
 10
49.6136
 20
22.1782
 30
0.0
 11
48.8128
 21
22.1782
 31
0.0
  0
LINE
  8
0
 62
     0
 10
48.8128
 20
22.1782
 30
0.0
 11
48.8128
 21
22.7762
 31
0.0
  0
LINE
  8
0
 62
     0
 10
48.8128
 20
22.7762
 30
0.0
 11
34.8134
 21
22.7762
 31
0.0
  0
LINE
  8
0
 62
     0
 10
11.0009
 20
22.7762
 30
0.0
 11
11.0009
 21
22.1782
 31
0.0
  0
LINE
  8
0
 62
     0
 10
11.0009
 20
22.1782
 30
0.0
 11
10.2016
 21
22.1782
 31
0.0
  0
LINE
  8
0
 62
     0
 10
10.2016
 20
22.1782
 30
0.0
 11
10.2016
 21
9.37616
 31
0.0
  0
LINE
  8
0
 62
     0
 10
10.2016
 20
9.37616
 30
0.0
 11
11.0009
 21
9.37616
 31
0.0
  0
LINE
  8
0
 62
     0
 10
11.0009
 20
9.37616
 30
0.0
 11
11.0009
 21
8.77672
 31
0.0
  0
LINE
  8
0
 62
     0
 10
11.0009
 20
8.77672
 30
0.0
 11
25.0017
 21
8.77672
 31
0.0
  0
LINE
  8
0
 62
     0
 10
25.0017
 20
8.77672
 30
0.0
 11
25.0017
 21
9.37616
 31
0.0
  0
LINE
  8
0
 62
     0
 10
25.0017
 20
9.37616
 30
0.0
 11
25.801
 21
9.37616
 31
0.0
  0
LINE
  8
0
 62
     0
 10
25.801
 20
9.37616
 30
0.0
 11
25.801
 21
22.1782
 31
0.0
  0
LINE
  8
0
 62
     0
 10
25.801
 20
22.1782
 30
0.0
 11
25.0017
 21
22.1782
 31
0.0
  0
LINE
  8
0
 62
     0
 10
25.0017
 20
22.1782
 30
0.0
 11
25.0017
 21
22.7762
 31
0.0
  0
LINE
  8
0
 62
     0
 10
25.0017
 20
22.7762
 30
0.0
 11
11.0009
 21
22.7762
 31
0.0
  0
LINE
  8
0
 62
     0
 10
20.5259
 20
41.8264
 30
0.0
 11
20.5259
 21
41.2281
 31
0.0
  0
LINE
  8
0
 62
     0
 10
20.5259
 20
41.2281
 30
0.0
 11
19.7266
 21
41.2281
 31
0.0
  0
LINE
  8
0
 62
     0
 10
19.7266
 20
41.2281
 30
0.0
 11
19.7266
 21
37.127
 31
0.0
  0
LINE
  8
0
 62
     0
 10
19.7266
 20
37.127
 30
0.0
 11
19.0018
 21
37.127
 31
0.0
  0
LINE
  8
0
 62
     0
 10
19.0018
 20
37.127
 30
0.0
 11
19.0018
 21
40.3571
 31
0.0
  0
LINE
  8
0
 62
     0
 10
19.0018
 20
40.3571
 30
0.0
 11
17.2765
 21
40.3571
 31
0.0
  0
LINE
  8
0
 62
     0
 10
17.2765
 20
40.3571
 30
0.0
 11
17.2765
 21
41.2764
 31
0.0
  0
LINE
  8
0
 62
     0
 10
17.2765
 20
41.2764
 30
0.0
 11
13.9761
 21
41.2764
 31
0.0
  0
LINE
  8
0
 62
     0
 10
13.9761
 20
41.2764
 30
0.0
 11
13.9761
 21
40.3571
 31
0.0
  0
LINE
  8
0
 62
     0
 10
13.9761
 20
40.3571
 30
0.0
 11
12.2521
 21
40.3571
 31
0.0
  0
LINE
  8
0
 62
     0
 10
12.2521
 20
40.3571
 30
0.0
 11
12.2521
 21
37.127
 31
0.0
  0
LINE
  8
0
 62
     0
 10
12.2521
 20
37.127
 30
0.0
 11
11.4267
 21
37.127
 31
0.0
  0
LINE
  8
0
 62
     0
 10
11.4267
 20
37.127
 30
0.0
 11
11.4267
 21
34.3269
 31
0.0
  0
LINE
  8
0
 62
     0
 10
11.4267
 20
34.3269
 30
0.0
 11
12.2521
 21
34.3269
 31
0.0
  0
LINE
  8
0
 62
     0
 10
12.2521
 20
34.3269
 30
0.0
 11
12.2521
 21
28.0569
 31
0.0
  0
LINE
  8
0
 62
     0
 10
12.2521
 20
28.0569
 30
0.0
 11
13.9761
 21
28.0569
 31
0.0
  0
LINE
  8
0
 62
     0
 10
13.9761
 20
28.0569
 30
0.0
 11
13.9761
 21
27.0771
 31
0.0
  0
LINE
  8
0
 62
     0
 10
13.9761
 20
27.0771
 30
0.0
 11
17.2765
 21
27.0771
 31
0.0
  0
LINE
  8
0
 62
     0
 10
17.2765
 20
27.0771
 30
0.0
 11
17.2765
 21
28.0569
 31
0.0
  0
LINE
  8
0
 62
     0
 10
17.2765
 20
28.0569
 30
0.0
 11
19.0018
 21
28.0569
 31
0.0
  0
LINE
  8
0
 62
     0
 10
19.0018
 20
28.0569
 30
0.0
 11
19.0018
 21
32.5272
 31
0.0
  0
LINE
  8
0
 62
     0
 10
19.0018
 20
32.5272
 30
0.0
 11
19.7266
 21
32.5272
 31
0.0
  0
LINE
  8
0
 62
     0
 10
19.7266
 20
32.5272
 30
0.0
 11
19.7266
 21
28.4262
 31
0.0
  0
LINE
  8
0
 62
     0
 10
19.7266
 20
28.4262
 30
0.0
 11
20.5259
 21
28.4262
 31
0.0
  0
LINE
  8
0
 62
     0
 10
20.5259
 20
28.4262
 30
0.0
 11
20.5259
 21
27.8267
 31
0.0
  0
LINE
  8
0
 62
     0
 10
20.5259
 20
27.8267
 30
0.0
 11
34.5267
 21
27.8267
 31
0.0
  0
LINE
  8
0
 62
     0
 10
34.5267
 20
27.8267
 30
0.0
 11
34.5267
 21
28.4262
 31
0.0
  0
LINE
  8
0
 62
     0
 10
34.5267
 20
28.4262
 30
0.0
 11
35.3261
 21
28.4262
 31
0.0
  0
LINE
  8
0
 62
     0
 10
35.3261
 20
28.4262
 30
0.0
 11
35.3261
 21
32.5272
 31
0.0
  0
LINE
  8
0
 62
     0
 10
35.3261
 20
32.5272
 30
0.0
 11
36.0507
 21
32.5272
 31
0.0
  0
LINE
  8
0
 62
     0
 10
36.0507
 20
32.5272
 30
0.0
 11
36.0507
 21
28.0569
 31
0.0
  0
LINE
  8
0
 62
     0
 10
36.0507
 20
28.0569
 30
0.0
 11
37.7762
 21
28.0569
 31
0.0
  0
LINE
  8
0
 62
     0
 10
37.7762
 20
28.0569
 30
0.0
 11
37.7762
 21
27.0771
 31
0.0
  0
LINE
  8
0
 62
     0
 10
37.7762
 20
27.0771
 30
0.0
 11
41.0767
 21
27.0771
 31
0.0
  0
LINE
  8
0
 62
     0
 10
41.0767
 20
27.0771
 30
0.0
 11
41.0767
 21
28.0569
 31
0.0
  0
LINE
  8
0
 62
     0
 10
41.0767
 20
28.0569
 30
0.0
 11
42.8018
 21
28.0569
 31
0.0
  0
LINE
  8
0
 62
     0
 10
42.8018
 20
28.0569
 30
0.0
 11
42.8018
 21
34.3269
 31
0.0
  0
LINE
  8
0
 62
     0
 10
42.8018
 20
34.3269
 30
0.0
 11
43.6259
 21
34.3269
 31
0.0
  0
LINE
  8
0
 62
     0
 10
43.6259
 20
34.3269
 30
0.0
 11
43.6259
 21
37.127
 31
0.0
  0
LINE
  8
0
 62
     0
 10
43.6259
 20
37.127
 30
0.0
 11
42.8018
 21
37.127
 31
0.0
  0
LINE
  8
0
 62
     0
 10
42.8018
 20
37.127
 30
0.0
 11
42.8018
 21
40.3571
 31
0.0
  0
LINE
  8
0
 62
     0
 10
42.8018
 20
40.3571
 30
0.0
 11
41.0767
 21
40.3571
 31
0.0
  0
LINE
  8
0
 62
     0
 10
41.0767
 20
40.3571
 30
0.0
 11
41.0767
 21
41.2764
 31
0.0
  0
LINE
  8
0
 62
     0
 10
41.0767
 20
41.2764
 30
0.0
 11
37.7762
 21
41.2764
 31
0.0
  0
LINE
  8
0
 62
     0
 10
37.7762
 20
41.2764
 30
0.0
 11
37.7762
 21
40.3571
 31
0.0
  0
LINE
  8
0
 62
     0
 10
37.7762
 20
40.3571
 30
0.0
 11
36.0507
 21
40.3571
 31
0.0
  0
LINE
  8
0
 62
     0
 10
36.0507
 20
40.3571
 30
0.0
 11
36.0507
 21
37.127
 31
0.0
  0
LINE
  8
0
 62
     0
 10
36.0507
 20
37.127
 30
0.0
 11
35.3261
 21
37.127
 31
0.0
  0
LINE
  8
0
 62
     0
 10
35.3261
 20
37.127
 30
0.0
 11
35.3261
 21
41.2281
 31
0.0
  0
LINE
  8
0
 62
     0
 10
35.3261
 20
41.2281
 30
0.0
 11
34.5267
 21
41.2281
 31
0.0
  0
LINE
  8
0
 62
     0
 10
34.5267
 20
41.2281
 30
0.0
 11
34.5267
 21
41.8264
 31
0.0
  0
LINE
  8
0
 62
     0
 10
34.5267
 20
41.8264
 30
0.0
 11
20.5259
 21
41.8264
 31
0.0
  0
LINE
  8
0
 62
     0
 10
294.371
 20
41.8264
 30
0.0
 11
294.371
 21
41.2281
 31
0.0
  0
LINE
  8
0
 62
     0
 10
294.371
 20
41.2281
 30
0.0
 11
293.57
 21
41.2281
 31
0.0
  0
LINE
  8
0
 62
     0
 10
293.57
 20
41.2281
 30
0.0
 11
293.57
 21
28.4262
 31
0.0
  0
LINE
  8
0
 62
     0
 10
293.57
 20
28.4262
 30
0.0
 11
294.371
 21
28.4262
 31
0.0
  0
LINE
  8
0
 62
     0
 10
294.371
 20
28.4262
 30
0.0
 11
294.371
 21
27.8267
 31
0.0
  0
LINE
  8
0
 62
     0
 10
294.371
 20
27.8267
 30
0.0
 11
308.37
 21
27.8267
 31
0.0
  0
LINE
  8
0
 62
     0
 10
308.37
 20
27.8267
 30
0.0
 11
308.37
 21
28.4262
 31
0.0
  0
LINE
  8
0
 62
     0
 10
308.37
 20
28.4262
 30
0.0
 11
309.171
 21
28.4262
 31
0.0
  0
LINE
  8
0
 62
     0
 10
309.171
 20
28.4262
 30
0.0
 11
309.171
 21
41.2281
 31
0.0
  0
LINE
  8
0
 62
     0
 10
309.171
 20
41.2281
 30
0.0
 11
308.37
 21
41.2281
 31
0.0
  0
LINE
  8
0
 62
     0
 10
308.37
 20
41.2281
 30
0.0
 11
308.37
 21
41.8264
 31
0.0
  0
LINE
  8
0
 62
     0
 10
308.37
 20
41.8264
 30
0.0
 11
294.371
 21
41.8264
 31
0.0
  0
LINE
  8
0
 62
     0
 10
275.321
 20
41.8264
 30
0.0
 11
275.321
 21
41.2281
 31
0.0
  0
LINE
  8
0
 62
     0
 10
275.321
 20
41.2281
 30
0.0
 11
274.52
 21
41.2281
 31
0.0
  0
LINE
  8
0
 62
     0
 10
274.52
 20
41.2281
 30
0.0
 11
274.52
 21
28.4262
 31
0.0
  0
LINE
  8
0
 62
     0
 10
274.52
 20
28.4262
 30
0.0
 11
275.321
 21
28.4262
 31
0.0
  0
LINE
  8
0
 62
     0
 10
275.321
 20
28.4262
 30
0.0
 11
275.321
 21
27.8267
 31
0.0
  0
LINE
  8
0
 62
     0
 10
275.321
 20
27.8267
 30
0.0
 11
289.32
 21
27.8267
 31
0.0
  0
LINE
  8
0
 62
     0
 10
289.32
 20
27.8267
 30
0.0
 11
289.32
 21
28.4262
 31
0.0
  0
LINE
  8
0
 62
     0
 10
289.32
 20
28.4262
 30
0.0
 11
290.121
 21
28.4262
 31
0.0
  0
LINE
  8
0
 62
     0
 10
290.121
 20
28.4262
 30
0.0
 11
290.121
 21
41.2281
 31
0.0
  0
LINE
  8
0
 62
     0
 10
290.121
 20
41.2281
 30
0.0
 11
289.32
 21
41.2281
 31
0.0
  0
LINE
  8
0
 62
     0
 10
289.32
 20
41.2281
 30
0.0
 11
289.32
 21
41.8264
 31
0.0
  0
LINE
  8
0
 62
     0
 10
289.32
 20
41.8264
 30
0.0
 11
275.321
 21
41.8264
 31
0.0
  0
LINE
  8
0
 62
     0
 10
249.126
 20
41.8264
 30
0.0
 11
249.126
 21
41.2281
 31
0.0
  0
LINE
  8
0
 62
     0
 10
249.126
 20
41.2281
 30
0.0
 11
248.327
 21
41.2281
 31
0.0
  0
LINE
  8
0
 62
     0
 10
248.327
 20
41.2281
 30
0.0
 11
248.327
 21
28.4262
 31
0.0
  0
LINE
  8
0
 62
     0
 10
248.327
 20
28.4262
 30
0.0
 11
249.126
 21
28.4262
 31
0.0
  0
LINE
  8
0
 62
     0
 10
249.126
 20
28.4262
 30
0.0
 11
249.126
 21
27.8267
 31
0.0
  0
LINE
  8
0
 62
     0
 10
249.126
 20
27.8267
 30
0.0
 11
263.127
 21
27.8267
 31
0.0
  0
LINE
  8
0
 62
     0
 10
263.127
 20
27.8267
 30
0.0
 11
263.127
 21
28.4262
 31
0.0
  0
LINE
  8
0
 62
     0
 10
263.127
 20
28.4262
 30
0.0
 11
263.926
 21
28.4262
 31
0.0
  0
LINE
  8
0
 62
     0
 10
263.926
 20
28.4262
 30
0.0
 11
263.926
 21
41.2281
 31
0.0
  0
LINE
  8
0
 62
     0
 10
263.926
 20
41.2281
 30
0.0
 11
263.127
 21
41.2281
 31
0.0
  0
LINE
  8
0
 62
     0
 10
263.127
 20
41.2281
 30
0.0
 11
263.127
 21
41.8264
 31
0.0
  0
LINE
  8
0
 62
     0
 10
263.127
 20
41.8264
 30
0.0
 11
249.126
 21
41.8264
 31
0.0
  0
LINE
  8
0
 62
     0
 10
222.932
 20
41.8264
 30
0.0
 11
222.932
 21
41.2281
 31
0.0
  0
LINE
  8
0
 62
     0
 10
222.932
 20
41.2281
 30
0.0
 11
222.133
 21
41.2281
 31
0.0
  0
LINE
  8
0
 62
     0
 10
222.133
 20
41.2281
 30
0.0
 11
222.133
 21
28.4262
 31
0.0
  0
LINE
  8
0
 62
     0
 10
222.133
 20
28.4262
 30
0.0
 11
222.932
 21
28.4262
 31
0.0
  0
LINE
  8
0
 62
     0
 10
222.932
 20
28.4262
 30
0.0
 11
222.932
 21
27.8267
 31
0.0
  0
LINE
  8
0
 62
     0
 10
222.932
 20
27.8267
 30
0.0
 11
236.933
 21
27.8267
 31
0.0
  0
LINE
  8
0
 62
     0
 10
236.933
 20
27.8267
 30
0.0
 11
236.933
 21
28.4262
 31
0.0
  0
LINE
  8
0
 62
     0
 10
236.933
 20
28.4262
 30
0.0
 11
237.732
 21
28.4262
 31
0.0
  0
LINE
  8
0
 62
     0
 10
237.732
 20
28.4262
 30
0.0
 11
237.732
 21
41.2281
 31
0.0
  0
LINE
  8
0
 62
     0
 10
237.732
 20
41.2281
 30
0.0
 11
236.933
 21
41.2281
 31
0.0
  0
LINE
  8
0
 62
     0
 10
236.933
 20
41.2281
 30
0.0
 11
236.933
 21
41.8264
 31
0.0
  0
LINE
  8
0
 62
     0
 10
236.933
 20
41.8264
 30
0.0
 11
222.932
 21
41.8264
 31
0.0
  0
LINE
  8
0
 62
     0
 10
203.882
 20
41.8264
 30
0.0
 11
203.882
 21
41.2281
 31
0.0
  0
LINE
  8
0
 62
     0
 10
203.882
 20
41.2281
 30
0.0
 11
203.083
 21
41.2281
 31
0.0
  0
LINE
  8
0
 62
     0
 10
203.083
 20
41.2281
 30
0.0
 11
203.083
 21
28.4262
 31
0.0
  0
LINE
  8
0
 62
     0
 10
203.083
 20
28.4262
 30
0.0
 11
203.882
 21
28.4262
 31
0.0
  0
LINE
  8
0
 62
     0
 10
203.882
 20
28.4262
 30
0.0
 11
203.882
 21
27.8267
 31
0.0
  0
LINE
  8
0
 62
     0
 10
203.882
 20
27.8267
 30
0.0
 11
217.883
 21
27.8267
 31
0.0
  0
LINE
  8
0
 62
     0
 10
217.883
 20
27.8267
 30
0.0
 11
217.883
 21
28.4262
 31
0.0
  0
LINE
  8
0
 62
     0
 10
217.883
 20
28.4262
 30
0.0
 11
218.682
 21
28.4262
 31
0.0
  0
LINE
  8
0
 62
     0
 10
218.682
 20
28.4262
 30
0.0
 11
218.682
 21
41.2281
 31
0.0
  0
LINE
  8
0
 62
     0
 10
218.682
 20
41.2281
 30
0.0
 11
217.883
 21
41.2281
 31
0.0
  0
LINE
  8
0
 62
     0
 10
217.883
 20
41.2281
 30
0.0
 11
217.883
 21
41.8264
 31
0.0
  0
LINE
  8
0
 62
     0
 10
217.883
 20
41.8264
 30
0.0
 11
203.882
 21
41.8264
 31
0.0
  0
LINE
  8
0
 62
     0
 10
184.832
 20
41.8264
 30
0.0
 11
184.832
 21
41.2281
 31
0.0
  0
LINE
  8
0
 62
     0
 10
184.832
 20
41.2281
 30
0.0
 11
184.033
 21
41.2281
 31
0.0
  0
LINE
  8
0
 62
     0
 10
184.033
 20
41.2281
 30
0.0
 11
184.033
 21
28.4262
 31
0.0
  0
LINE
  8
0
 62
     0
 10
184.033
 20
28.4262
 30
0.0
 11
184.832
 21
28.4262
 31
0.0
  0
LINE
  8
0
 62
     0
 10
184.832
 20
28.4262
 30
0.0
 11
184.832
 21
27.8267
 31
0.0
  0
LINE
  8
0
 62
     0
 10
184.832
 20
27.8267
 30
0.0
 11
198.833
 21
27.8267
 31
0.0
  0
LINE
  8
0
 62
     0
 10
198.833
 20
27.8267
 30
0.0
 11
198.833
 21
28.4262
 31
0.0
  0
LINE
  8
0
 62
     0
 10
198.833
 20
28.4262
 30
0.0
 11
199.632
 21
28.4262
 31
0.0
  0
LINE
  8
0
 62
     0
 10
199.632
 20
28.4262
 30
0.0
 11
199.632
 21
41.2281
 31
0.0
  0
LINE
  8
0
 62
     0
 10
199.632
 20
41.2281
 30
0.0
 11
198.833
 21
41.2281
 31
0.0
  0
LINE
  8
0
 62
     0
 10
198.833
 20
41.2281
 30
0.0
 11
198.833
 21
41.8264
 31
0.0
  0
LINE
  8
0
 62
     0
 10
198.833
 20
41.8264
 30
0.0
 11
184.832
 21
41.8264
 31
0.0
  0
LINE
  8
0
 62
     0
 10
165.782
 20
41.8264
 30
0.0
 11
165.782
 21
41.2281
 31
0.0
  0
LINE
  8
0
 62
     0
 10
165.782
 20
41.2281
 30
0.0
 11
164.983
 21
41.2281
 31
0.0
  0
LINE
  8
0
 62
     0
 10
164.983
 20
41.2281
 30
0.0
 11
164.983
 21
28.4262
 31
0.0
  0
LINE
  8
0
 62
     0
 10
164.983
 20
28.4262
 30
0.0
 11
165.782
 21
28.4262
 31
0.0
  0
LINE
  8
0
 62
     0
 10
165.782
 20
28.4262
 30
0.0
 11
165.782
 21
27.8267
 31
0.0
  0
LINE
  8
0
 62
     0
 10
165.782
 20
27.8267
 30
0.0
 11
179.783
 21
27.8267
 31
0.0
  0
LINE
  8
0
 62
     0
 10
179.783
 20
27.8267
 30
0.0
 11
179.783
 21
28.4262
 31
0.0
  0
LINE
  8
0
 62
     0
 10
179.783
 20
28.4262
 30
0.0
 11
180.582
 21
28.4262
 31
0.0
  0
LINE
  8
0
 62
     0
 10
180.582
 20
28.4262
 30
0.0
 11
180.582
 21
41.2281
 31
0.0
  0
LINE
  8
0
 62
     0
 10
180.582
 20
41.2281
 30
0.0
 11
179.783
 21
41.2281
 31
0.0
  0
LINE
  8
0
 62
     0
 10
179.783
 20
41.2281
 30
0.0
 11
179.783
 21
41.8264
 31
0.0
  0
LINE
  8
0
 62
     0
 10
179.783
 20
41.8264
 30
0.0
 11
165.782
 21
41.8264
 31
0.0
  0
LINE
  8
0
 62
     0
 10
146.732
 20
41.8264
 30
0.0
 11
146.732
 21
41.2281
 31
0.0
  0
LINE
  8
0
 62
     0
 10
146.732
 20
41.2281
 30
0.0
 11
145.933
 21
41.2281
 31
0.0
  0
LINE
  8
0
 62
     0
 10
145.933
 20
41.2281
 30
0.0
 11
145.933
 21
28.4262
 31
0.0
  0
LINE
  8
0
 62
     0
 10
145.933
 20
28.4262
 30
0.0
 11
146.732
 21
28.4262
 31
0.0
  0
LINE
  8
0
 62
     0
 10
146.732
 20
28.4262
 30
0.0
 11
146.732
 21
27.8267
 31
0.0
  0
LINE
  8
0
 62
     0
 10
146.732
 20
27.8267
 30
0.0
 11
160.733
 21
27.8267
 31
0.0
  0
LINE
  8
0
 62
     0
 10
160.733
 20
27.8267
 30
0.0
 11
160.733
 21
28.4262
 31
0.0
  0
LINE
  8
0
 62
     0
 10
160.733
 20
28.4262
 30
0.0
 11
161.532
 21
28.4262
 31
0.0
  0
LINE
  8
0
 62
     0
 10
161.532
 20
28.4262
 30
0.0
 11
161.532
 21
41.2281
 31
0.0
  0
LINE
  8
0
 62
     0
 10
161.532
 20
41.2281
 30
0.0
 11
160.733
 21
41.2281
 31
0.0
  0
LINE
  8
0
 62
     0
 10
160.733
 20
41.2281
 30
0.0
 11
160.733
 21
41.8264
 31
0.0
  0
LINE
  8
0
 62
     0
 10
160.733
 20
41.8264
 30
0.0
 11
146.732
 21
41.8264
 31
0.0
  0
LINE
  8
0
 62
     0
 10
127.682
 20
41.8264
 30
0.0
 11
127.682
 21
41.2281
 31
0.0
  0
LINE
  8
0
 62
     0
 10
127.682
 20
41.2281
 30
0.0
 11
126.883
 21
41.2281
 31
0.0
  0
LINE
  8
0
 62
     0
 10
126.883
 20
41.2281
 30
0.0
 11
126.883
 21
28.4262
 31
0.0
  0
LINE
  8
0
 62
     0
 10
126.883
 20
28.4262
 30
0.0
 11
127.682
 21
28.4262
 31
0.0
  0
LINE
  8
0
 62
     0
 10
127.682
 20
28.4262
 30
0.0
 11
127.682
 21
27.8267
 31
0.0
  0
LINE
  8
0
 62
     0
 10
127.682
 20
27.8267
 30
0.0
 11
141.683
 21
27.8267
 31
0.0
  0
LINE
  8
0
 62
     0
 10
141.683
 20
27.8267
 30
0.0
 11
141.683
 21
28.4262
 31
0.0
  0
LINE
  8
0
 62
     0
 10
141.683
 20
28.4262
 30
0.0
 11
142.482
 21
28.4262
 31
0.0
  0
LINE
  8
0
 62
     0
 10
142.482
 20
28.4262
 30
0.0
 11
142.482
 21
41.2281
 31
0.0
  0
LINE
  8
0
 62
     0
 10
142.482
 20
41.2281
 30
0.0
 11
141.683
 21
41.2281
 31
0.0
  0
LINE
  8
0
 62
     0
 10
141.683
 20
41.2281
 30
0.0
 11
141.683
 21
41.8264
 31
0.0
  0
LINE
  8
0
 62
     0
 10
141.683
 20
41.8264
 30
0.0
 11
127.682
 21
41.8264
 31
0.0
  0
LINE
  8
0
 62
     0
 10
108.632
 20
41.8264
 30
0.0
 11
108.632
 21
41.2281
 31
0.0
  0
LINE
  8
0
 62
     0
 10
108.632
 20
41.2281
 30
0.0
 11
107.833
 21
41.2281
 31
0.0
  0
LINE
  8
0
 62
     0
 10
107.833
 20
41.2281
 30
0.0
 11
107.833
 21
28.4262
 31
0.0
  0
LINE
  8
0
 62
     0
 10
107.833
 20
28.4262
 30
0.0
 11
108.632
 21
28.4262
 31
0.0
  0
LINE
  8
0
 62
     0
 10
108.632
 20
28.4262
 30
0.0
 11
108.632
 21
27.8267
 31
0.0
  0
LINE
  8
0
 62
     0
 10
108.632
 20
27.8267
 30
0.0
 11
122.633
 21
27.8267
 31
0.0
  0
LINE
  8
0
 62
     0
 10
122.633
 20
27.8267
 30
0.0
 11
122.633
 21
28.4262
 31
0.0
  0
LINE
  8
0
 62
     0
 10
122.633
 20
28.4262
 30
0.0
 11
123.431
 21
28.4262
 31
0.0
  0
LINE
  8
0
 62
     0
 10
123.431
 20
28.4262
 30
0.0
 11
123.431
 21
41.2281
 31
0.0
  0
LINE
  8
0
 62
     0
 10
123.431
 20
41.2281
 30
0.0
 11
122.633
 21
41.2281
 31
0.0
  0
LINE
  8
0
 62
     0
 10
122.633
 20
41.2281
 30
0.0
 11
122.633
 21
41.8264
 31
0.0
  0
LINE
  8
0
 62
     0
 10
122.633
 20
41.8264
 30
0.0
 11
108.632
 21
41.8264
 31
0.0
  0
LINE
  8
0
 62
     0
 10
89.5823
 20
41.8264
 30
0.0
 11
89.5823
 21
41.2281
 31
0.0
  0
LINE
  8
0
 62
     0
 10
89.5823
 20
41.2281
 30
0.0
 11
88.7829
 21
41.2281
 31
0.0
  0
LINE
  8
0
 62
     0
 10
88.7829
 20
41.2281
 30
0.0
 11
88.7829
 21
28.4262
 31
0.0
  0
LINE
  8
0
 62
     0
 10
88.7829
 20
28.4262
 30
0.0
 11
89.5823
 21
28.4262
 31
0.0
  0
LINE
  8
0
 62
     0
 10
89.5823
 20
28.4262
 30
0.0
 11
89.5823
 21
27.8267
 31
0.0
  0
LINE
  8
0
 62
     0
 10
89.5823
 20
27.8267
 30
0.0
 11
103.583
 21
27.8267
 31
0.0
  0
LINE
  8
0
 62
     0
 10
103.583
 20
27.8267
 30
0.0
 11
103.583
 21
28.4262
 31
0.0
  0
LINE
  8
0
 62
     0
 10
103.583
 20
28.4262
 30
0.0
 11
104.382
 21
28.4262
 31
0.0
  0
LINE
  8
0
 62
     0
 10
104.382
 20
28.4262
 30
0.0
 11
104.382
 21
41.2281
 31
0.0
  0
LINE
  8
0
 62
     0
 10
104.382
 20
41.2281
 30
0.0
 11
103.583
 21
41.2281
 31
0.0
  0
LINE
  8
0
 62
     0
 10
103.583
 20
41.2281
 30
0.0
 11
103.583
 21
41.8264
 31
0.0
  0
LINE
  8
0
 62
     0
 10
103.583
 20
41.8264
 30
0.0
 11
89.5823
 21
41.8264
 31
0.0
  0
LINE
  8
0
 62
     0
 10
70.5323
 20
41.8264
 30
0.0
 11
70.5323
 21
41.2281
 31
0.0
  0
LINE
  8
0
 62
     0
 10
70.5323
 20
41.2281
 30
0.0
 11
69.7329
 21
41.2281
 31
0.0
  0
LINE
  8
0
 62
     0
 10
69.7329
 20
41.2281
 30
0.0
 11
69.7329
 21
28.4262
 31
0.0
  0
LINE
  8
0
 62
     0
 10
69.7329
 20
28.4262
 30
0.0
 11
70.5323
 21
28.4262
 31
0.0
  0
LINE
  8
0
 62
     0
 10
70.5323
 20
28.4262
 30
0.0
 11
70.5323
 21
27.8267
 31
0.0
  0
LINE
  8
0
 62
     0
 10
70.5323
 20
27.8267
 30
0.0
 11
84.533
 21
27.8267
 31
0.0
  0
LINE
  8
0
 62
     0
 10
84.533
 20
27.8267
 30
0.0
 11
84.533
 21
28.4262
 31
0.0
  0
LINE
  8
0
 62
     0
 10
84.533
 20
28.4262
 30
0.0
 11
85.3324
 21
28.4262
 31
0.0
  0
LINE
  8
0
 62
     0
 10
85.3324
 20
28.4262
 30
0.0
 11
85.3324
 21
41.2281
 31
0.0
  0
LINE
  8
0
 62
     0
 10
85.3324
 20
41.2281
 30
0.0
 11
84.533
 21
41.2281
 31
0.0
  0
LINE
  8
0
 62
     0
 10
84.533
 20
41.2281
 30
0.0
 11
84.533
 21
41.8264
 31
0.0
  0
LINE
  8
0
 62
     0
 10
84.533
 20
41.8264
 30
0.0
 11
70.5323
 21
41.8264
 31
0.0
  0
LINE
  8
0
 62
     0
 10
51.4823
 20
41.8264
 30
0.0
 11
51.4823
 21
41.2281
 31
0.0
  0
LINE
  8
0
 62
     0
 10
51.4823
 20
41.2281
 30
0.0
 11
50.6829
 21
41.2281
 31
0.0
  0
LINE
  8
0
 62
     0
 10
50.6829
 20
41.2281
 30
0.0
 11
50.6829
 21
28.4262
 31
0.0
  0
LINE
  8
0
 62
     0
 10
50.6829
 20
28.4262
 30
0.0
 11
51.4823
 21
28.4262
 31
0.0
  0
LINE
  8
0
 62
     0
 10
51.4823
 20
28.4262
 30
0.0
 11
51.4823
 21
27.8267
 31
0.0
  0
LINE
  8
0
 62
     0
 10
51.4823
 20
27.8267
 30
0.0
 11
65.483
 21
27.8267
 31
0.0
  0
LINE
  8
0
 62
     0
 10
65.483
 20
27.8267
 30
0.0
 11
65.483
 21
28.4262
 31
0.0
  0
LINE
  8
0
 62
     0
 10
65.483
 20
28.4262
 30
0.0
 11
66.2824
 21
28.4262
 31
0.0
  0
LINE
  8
0
 62
     0
 10
66.2824
 20
28.4262
 30
0.0
 11
66.2824
 21
41.2281
 31
0.0
  0
LINE
  8
0
 62
     0
 10
66.2824
 20
41.2281
 30
0.0
 11
65.483
 21
41.2281
 31
0.0
  0
LINE
  8
0
 62
     0
 10
65.483
 20
41.2281
 30
0.0
 11
65.483
 21
41.8264
 31
0.0
  0
LINE
  8
0
 62
     0
 10
65.483
 20
41.8264
 30
0.0
 11
51.4823
 21
41.8264
 31
0.0
  0
LINE
  8
0
 62
     0
 10
263.414
 20
60.8764
 30
0.0
 11
263.414
 21
60.2767
 31
0.0
  0
LINE
  8
0
 62
     0
 10
263.414
 20
60.2767
 30
0.0
 11
262.614
 21
60.2767
 31
0.0
  0
LINE
  8
0
 62
     0
 10
262.614
 20
60.2767
 30
0.0
 11
262.614
 21
56.177
 31
0.0
  0
LINE
  8
0
 62
     0
 10
262.614
 20
56.177
 30
0.0
 11
261.888
 21
56.177
 31
0.0
  0
LINE
  8
0
 62
     0
 10
261.888
 20
56.177
 30
0.0
 11
261.888
 21
59.4071
 31
0.0
  0
LINE
  8
0
 62
     0
 10
261.888
 20
59.4071
 30
0.0
 11
260.164
 21
59.4071
 31
0.0
  0
LINE
  8
0
 62
     0
 10
260.164
 20
59.4071
 30
0.0
 11
260.164
 21
60.3264
 31
0.0
  0
LINE
  8
0
 62
     0
 10
260.164
 20
60.3264
 30
0.0
 11
256.862
 21
60.3264
 31
0.0
  0
LINE
  8
0
 62
     0
 10
256.862
 20
60.3264
 30
0.0
 11
256.862
 21
59.4071
 31
0.0
  0
LINE
  8
0
 62
     0
 10
256.862
 20
59.4071
 30
0.0
 11
255.138
 21
59.4071
 31
0.0
  0
LINE
  8
0
 62
     0
 10
255.138
 20
59.4071
 30
0.0
 11
255.138
 21
56.177
 31
0.0
  0
LINE
  8
0
 62
     0
 10
255.138
 20
56.177
 30
0.0
 11
254.313
 21
56.177
 31
0.0
  0
LINE
  8
0
 62
     0
 10
254.313
 20
56.177
 30
0.0
 11
254.313
 21
53.377
 31
0.0
  0
LINE
  8
0
 62
     0
 10
254.313
 20
53.377
 30
0.0
 11
255.138
 21
53.377
 31
0.0
  0
LINE
  8
0
 62
     0
 10
255.138
 20
53.377
 30
0.0
 11
255.138
 21
47.1082
 31
0.0
  0
LINE
  8
0
 62
     0
 10
255.138
 20
47.1082
 30
0.0
 11
256.862
 21
47.1082
 31
0.0
  0
LINE
  8
0
 62
     0
 10
256.862
 20
47.1082
 30
0.0
 11
256.862
 21
46.1271
 31
0.0
  0
LINE
  8
0
 62
     0
 10
256.862
 20
46.1271
 30
0.0
 11
260.164
 21
46.1271
 31
0.0
  0
LINE
  8
0
 62
     0
 10
260.164
 20
46.1271
 30
0.0
 11
260.164
 21
47.1082
 31
0.0
  0
LINE
  8
0
 62
     0
 10
260.164
 20
47.1082
 30
0.0
 11
261.888
 21
47.1082
 31
0.0
  0
LINE
  8
0
 62
     0
 10
261.888
 20
47.1082
 30
0.0
 11
261.888
 21
51.5772
 31
0.0
  0
LINE
  8
0
 62
     0
 10
261.888
 20
51.5772
 30
0.0
 11
262.614
 21
51.5772
 31
0.0
  0
LINE
  8
0
 62
     0
 10
262.614
 20
51.5772
 30
0.0
 11
262.614
 21
47.4761
 31
0.0
  0
LINE
  8
0
 62
     0
 10
262.614
 20
47.4761
 30
0.0
 11
263.414
 21
47.4761
 31
0.0
  0
LINE
  8
0
 62
     0
 10
263.414
 20
47.4761
 30
0.0
 11
263.414
 21
46.8768
 31
0.0
  0
LINE
  8
0
 62
     0
 10
263.414
 20
46.8768
 30
0.0
 11
277.413
 21
46.8768
 31
0.0
  0
LINE
  8
0
 62
     0
 10
277.413
 20
46.8768
 30
0.0
 11
277.413
 21
47.4761
 31
0.0
  0
LINE
  8
0
 62
     0
 10
277.413
 20
47.4761
 30
0.0
 11
278.214
 21
47.4761
 31
0.0
  0
LINE
  8
0
 62
     0
 10
278.214
 20
47.4761
 30
0.0
 11
278.214
 21
51.5772
 31
0.0
  0
LINE
  8
0
 62
     0
 10
278.214
 20
51.5772
 30
0.0
 11
278.938
 21
51.5772
 31
0.0
  0
LINE
  8
0
 62
     0
 10
278.938
 20
51.5772
 30
0.0
 11
278.938
 21
47.1082
 31
0.0
  0
LINE
  8
0
 62
     0
 10
278.938
 20
47.1082
 30
0.0
 11
280.664
 21
47.1082
 31
0.0
  0
LINE
  8
0
 62
     0
 10
280.664
 20
47.1082
 30
0.0
 11
280.664
 21
46.1271
 31
0.0
  0
LINE
  8
0
 62
     0
 10
280.664
 20
46.1271
 30
0.0
 11
283.964
 21
46.1271
 31
0.0
  0
LINE
  8
0
 62
     0
 10
283.964
 20
46.1271
 30
0.0
 11
283.964
 21
47.1082
 31
0.0
  0
LINE
  8
0
 62
     0
 10
283.964
 20
47.1082
 30
0.0
 11
285.688
 21
47.1082
 31
0.0
  0
LINE
  8
0
 62
     0
 10
285.688
 20
47.1082
 30
0.0
 11
285.688
 21
53.377
 31
0.0
  0
LINE
  8
0
 62
     0
 10
285.688
 20
53.377
 30
0.0
 11
286.513
 21
53.377
 31
0.0
  0
LINE
  8
0
 62
     0
 10
286.513
 20
53.377
 30
0.0
 11
286.513
 21
56.177
 31
0.0
  0
LINE
  8
0
 62
     0
 10
286.513
 20
56.177
 30
0.0
 11
285.688
 21
56.177
 31
0.0
  0
LINE
  8
0
 62
     0
 10
285.688
 20
56.177
 30
0.0
 11
285.688
 21
59.4071
 31
0.0
  0
LINE
  8
0
 62
     0
 10
285.688
 20
59.4071
 30
0.0
 11
283.964
 21
59.4071
 31
0.0
  0
LINE
  8
0
 62
     0
 10
283.964
 20
59.4071
 30
0.0
 11
283.964
 21
60.3264
 31
0.0
  0
LINE
  8
0
 62
     0
 10
283.964
 20
60.3264
 30
0.0
 11
280.664
 21
60.3264
 31
0.0
  0
LINE
  8
0
 62
     0
 10
280.664
 20
60.3264
 30
0.0
 11
280.664
 21
59.4071
 31
0.0
  0
LINE
  8
0
 62
     0
 10
280.664
 20
59.4071
 30
0.0
 11
278.938
 21
59.4071
 31
0.0
  0
LINE
  8
0
 62
     0
 10
278.938
 20
59.4071
 30
0.0
 11
278.938
 21
56.177
 31
0.0
  0
LINE
  8
0
 62
     0
 10
278.938
 20
56.177
 30
0.0
 11
278.214
 21
56.177
 31
0.0
  0
LINE
  8
0
 62
     0
 10
278.214
 20
56.177
 30
0.0
 11
278.214
 21
60.2767
 31
0.0
  0
LINE
  8
0
 62
     0
 10
278.214
 20
60.2767
 30
0.0
 11
277.413
 21
60.2767
 31
0.0
  0
LINE
  8
0
 62
     0
 10
277.413
 20
60.2767
 30
0.0
 11
277.413
 21
60.8764
 31
0.0
  0
LINE
  8
0
 62
     0
 10
277.413
 20
60.8764
 30
0.0
 11
263.414
 21
60.8764
 31
0.0
  0
LINE
  8
0
 62
     0
 10
294.371
 20
60.8764
 30
0.0
 11
294.371
 21
60.2767
 31
0.0
  0
LINE
  8
0
 62
     0
 10
294.371
 20
60.2767
 30
0.0
 11
293.57
 21
60.2767
 31
0.0
  0
LINE
  8
0
 62
     0
 10
293.57
 20
60.2767
 30
0.0
 11
293.57
 21
47.4761
 31
0.0
  0
LINE
  8
0
 62
     0
 10
293.57
 20
47.4761
 30
0.0
 11
294.371
 21
47.4761
 31
0.0
  0
LINE
  8
0
 62
     0
 10
294.371
 20
47.4761
 30
0.0
 11
294.371
 21
46.8768
 31
0.0
  0
LINE
  8
0
 62
     0
 10
294.371
 20
46.8768
 30
0.0
 11
308.37
 21
46.8768
 31
0.0
  0
LINE
  8
0
 62
     0
 10
308.37
 20
46.8768
 30
0.0
 11
308.37
 21
47.4761
 31
0.0
  0
LINE
  8
0
 62
     0
 10
308.37
 20
47.4761
 30
0.0
 11
309.171
 21
47.4761
 31
0.0
  0
LINE
  8
0
 62
     0
 10
309.171
 20
47.4761
 30
0.0
 11
309.171
 21
60.2767
 31
0.0
  0
LINE
  8
0
 62
     0
 10
309.171
 20
60.2767
 30
0.0
 11
308.37
 21
60.2767
 31
0.0
  0
LINE
  8
0
 62
     0
 10
308.37
 20
60.2767
 30
0.0
 11
308.37
 21
60.8764
 31
0.0
  0
LINE
  8
0
 62
     0
 10
308.37
 20
60.8764
 30
0.0
 11
294.371
 21
60.8764
 31
0.0
  0
LINE
  8
0
 62
     0
 10
232.457
 20
60.8764
 30
0.0
 11
232.457
 21
60.2767
 31
0.0
  0
LINE
  8
0
 62
     0
 10
232.457
 20
60.2767
 30
0.0
 11
231.658
 21
60.2767
 31
0.0
  0
LINE
  8
0
 62
     0
 10
231.658
 20
60.2767
 30
0.0
 11
231.658
 21
47.4761
 31
0.0
  0
LINE
  8
0
 62
     0
 10
231.658
 20
47.4761
 30
0.0
 11
232.457
 21
47.4761
 31
0.0
  0
LINE
  8
0
 62
     0
 10
232.457
 20
47.4761
 30
0.0
 11
232.457
 21
46.8768
 31
0.0
  0
LINE
  8
0
 62
     0
 10
232.457
 20
46.8768
 30
0.0
 11
246.458
 21
46.8768
 31
0.0
  0
LINE
  8
0
 62
     0
 10
246.458
 20
46.8768
 30
0.0
 11
246.458
 21
47.4761
 31
0.0
  0
LINE
  8
0
 62
     0
 10
246.458
 20
47.4761
 30
0.0
 11
247.257
 21
47.4761
 31
0.0
  0
LINE
  8
0
 62
     0
 10
247.257
 20
47.4761
 30
0.0
 11
247.257
 21
60.2767
 31
0.0
  0
LINE
  8
0
 62
     0
 10
247.257
 20
60.2767
 30
0.0
 11
246.458
 21
60.2767
 31
0.0
  0
LINE
  8
0
 62
     0
 10
246.458
 20
60.2767
 30
0.0
 11
246.458
 21
60.8764
 31
0.0
  0
LINE
  8
0
 62
     0
 10
246.458
 20
60.8764
 30
0.0
 11
232.457
 21
60.8764
 31
0.0
  0
LINE
  8
0
 62
     0
 10
213.407
 20
60.8764
 30
0.0
 11
213.407
 21
60.2767
 31
0.0
  0
LINE
  8
0
 62
     0
 10
213.407
 20
60.2767
 30
0.0
 11
212.608
 21
60.2767
 31
0.0
  0
LINE
  8
0
 62
     0
 10
212.608
 20
60.2767
 30
0.0
 11
212.608
 21
47.4761
 31
0.0
  0
LINE
  8
0
 62
     0
 10
212.608
 20
47.4761
 30
0.0
 11
213.407
 21
47.4761
 31
0.0
  0
LINE
  8
0
 62
     0
 10
213.407
 20
47.4761
 30
0.0
 11
213.407
 21
46.8768
 31
0.0
  0
LINE
  8
0
 62
     0
 10
213.407
 20
46.8768
 30
0.0
 11
227.408
 21
46.8768
 31
0.0
  0
LINE
  8
0
 62
     0
 10
227.408
 20
46.8768
 30
0.0
 11
227.408
 21
47.4761
 31
0.0
  0
LINE
  8
0
 62
     0
 10
227.408
 20
47.4761
 30
0.0
 11
228.207
 21
47.4761
 31
0.0
  0
LINE
  8
0
 62
     0
 10
228.207
 20
47.4761
 30
0.0
 11
228.207
 21
60.2767
 31
0.0
  0
LINE
  8
0
 62
     0
 10
228.207
 20
60.2767
 30
0.0
 11
227.408
 21
60.2767
 31
0.0
  0
LINE
  8
0
 62
     0
 10
227.408
 20
60.2767
 30
0.0
 11
227.408
 21
60.8764
 31
0.0
  0
LINE
  8
0
 62
     0
 10
227.408
 20
60.8764
 30
0.0
 11
213.407
 21
60.8764
 31
0.0
  0
LINE
  8
0
 62
     0
 10
194.357
 20
60.8764
 30
0.0
 11
194.357
 21
60.2767
 31
0.0
  0
LINE
  8
0
 62
     0
 10
194.357
 20
60.2767
 30
0.0
 11
193.558
 21
60.2767
 31
0.0
  0
LINE
  8
0
 62
     0
 10
193.558
 20
60.2767
 30
0.0
 11
193.558
 21
47.4761
 31
0.0
  0
LINE
  8
0
 62
     0
 10
193.558
 20
47.4761
 30
0.0
 11
194.357
 21
47.4761
 31
0.0
  0
LINE
  8
0
 62
     0
 10
194.357
 20
47.4761
 30
0.0
 11
194.357
 21
46.8768
 31
0.0
  0
LINE
  8
0
 62
     0
 10
194.357
 20
46.8768
 30
0.0
 11
208.358
 21
46.8768
 31
0.0
  0
LINE
  8
0
 62
     0
 10
208.358
 20
46.8768
 30
0.0
 11
208.358
 21
47.4761
 31
0.0
  0
LINE
  8
0
 62
     0
 10
208.358
 20
47.4761
 30
0.0
 11
209.157
 21
47.4761
 31
0.0
  0
LINE
  8
0
 62
     0
 10
209.157
 20
47.4761
 30
0.0
 11
209.157
 21
60.2767
 31
0.0
  0
LINE
  8
0
 62
     0
 10
209.157
 20
60.2767
 30
0.0
 11
208.358
 21
60.2767
 31
0.0
  0
LINE
  8
0
 62
     0
 10
208.358
 20
60.2767
 30
0.0
 11
208.358
 21
60.8764
 31
0.0
  0
LINE
  8
0
 62
     0
 10
208.358
 20
60.8764
 30
0.0
 11
194.357
 21
60.8764
 31
0.0
  0
LINE
  8
0
 62
     0
 10
175.307
 20
60.8764
 30
0.0
 11
175.307
 21
60.2767
 31
0.0
  0
LINE
  8
0
 62
     0
 10
175.307
 20
60.2767
 30
0.0
 11
174.508
 21
60.2767
 31
0.0
  0
LINE
  8
0
 62
     0
 10
174.508
 20
60.2767
 30
0.0
 11
174.508
 21
47.4761
 31
0.0
  0
LINE
  8
0
 62
     0
 10
174.508
 20
47.4761
 30
0.0
 11
175.307
 21
47.4761
 31
0.0
  0
LINE
  8
0
 62
     0
 10
175.307
 20
47.4761
 30
0.0
 11
175.307
 21
46.8768
 31
0.0
  0
LINE
  8
0
 62
     0
 10
175.307
 20
46.8768
 30
0.0
 11
189.308
 21
46.8768
 31
0.0
  0
LINE
  8
0
 62
     0
 10
189.308
 20
46.8768
 30
0.0
 11
189.308
 21
47.4761
 31
0.0
  0
LINE
  8
0
 62
     0
 10
189.308
 20
47.4761
 30
0.0
 11
190.107
 21
47.4761
 31
0.0
  0
LINE
  8
0
 62
     0
 10
190.107
 20
47.4761
 30
0.0
 11
190.107
 21
60.2767
 31
0.0
  0
LINE
  8
0
 62
     0
 10
190.107
 20
60.2767
 30
0.0
 11
189.308
 21
60.2767
 31
0.0
  0
LINE
  8
0
 62
     0
 10
189.308
 20
60.2767
 30
0.0
 11
189.308
 21
60.8764
 31
0.0
  0
LINE
  8
0
 62
     0
 10
189.308
 20
60.8764
 30
0.0
 11
175.307
 21
60.8764
 31
0.0
  0
LINE
  8
0
 62
     0
 10
156.257
 20
60.8764
 30
0.0
 11
156.257
 21
60.2767
 31
0.0
  0
LINE
  8
0
 62
     0
 10
156.257
 20
60.2767
 30
0.0
 11
155.458
 21
60.2767
 31
0.0
  0
LINE
  8
0
 62
     0
 10
155.458
 20
60.2767
 30
0.0
 11
155.458
 21
47.4761
 31
0.0
  0
LINE
  8
0
 62
     0
 10
155.458
 20
47.4761
 30
0.0
 11
156.257
 21
47.4761
 31
0.0
  0
LINE
  8
0
 62
     0
 10
156.257
 20
47.4761
 30
0.0
 11
156.257
 21
46.8768
 31
0.0
  0
LINE
  8
0
 62
     0
 10
156.257
 20
46.8768
 30
0.0
 11
170.258
 21
46.8768
 31
0.0
  0
LINE
  8
0
 62
     0
 10
170.258
 20
46.8768
 30
0.0
 11
170.258
 21
47.4761
 31
0.0
  0
LINE
  8
0
 62
     0
 10
170.258
 20
47.4761
 30
0.0
 11
171.057
 21
47.4761
 31
0.0
  0
LINE
  8
0
 62
     0
 10
171.057
 20
47.4761
 30
0.0
 11
171.057
 21
60.2767
 31
0.0
  0
LINE
  8
0
 62
     0
 10
171.057
 20
60.2767
 30
0.0
 11
170.258
 21
60.2767
 31
0.0
  0
LINE
  8
0
 62
     0
 10
170.258
 20
60.2767
 30
0.0
 11
170.258
 21
60.8764
 31
0.0
  0
LINE
  8
0
 62
     0
 10
170.258
 20
60.8764
 30
0.0
 11
156.257
 21
60.8764
 31
0.0
  0
LINE
  8
0
 62
     0
 10
137.207
 20
60.8764
 30
0.0
 11
137.207
 21
60.2767
 31
0.0
  0
LINE
  8
0
 62
     0
 10
137.207
 20
60.2767
 30
0.0
 11
136.408
 21
60.2767
 31
0.0
  0
LINE
  8
0
 62
     0
 10
136.408
 20
60.2767
 30
0.0
 11
136.408
 21
47.4761
 31
0.0
  0
LINE
  8
0
 62
     0
 10
136.408
 20
47.4761
 30
0.0
 11
137.207
 21
47.4761
 31
0.0
  0
LINE
  8
0
 62
     0
 10
137.207
 20
47.4761
 30
0.0
 11
137.207
 21
46.8768
 31
0.0
  0
LINE
  8
0
 62
     0
 10
137.207
 20
46.8768
 30
0.0
 11
151.208
 21
46.8768
 31
0.0
  0
LINE
  8
0
 62
     0
 10
151.208
 20
46.8768
 30
0.0
 11
151.208
 21
47.4761
 31
0.0
  0
LINE
  8
0
 62
     0
 10
151.208
 20
47.4761
 30
0.0
 11
152.007
 21
47.4761
 31
0.0
  0
LINE
  8
0
 62
     0
 10
152.007
 20
47.4761
 30
0.0
 11
152.007
 21
60.2767
 31
0.0
  0
LINE
  8
0
 62
     0
 10
152.007
 20
60.2767
 30
0.0
 11
151.208
 21
60.2767
 31
0.0
  0
LINE
  8
0
 62
     0
 10
151.208
 20
60.2767
 30
0.0
 11
151.208
 21
60.8764
 31
0.0
  0
LINE
  8
0
 62
     0
 10
151.208
 20
60.8764
 30
0.0
 11
137.207
 21
60.8764
 31
0.0
  0
LINE
  8
0
 62
     0
 10
118.157
 20
60.8764
 30
0.0
 11
118.157
 21
60.2767
 31
0.0
  0
LINE
  8
0
 62
     0
 10
118.157
 20
60.2767
 30
0.0
 11
117.358
 21
60.2767
 31
0.0
  0
LINE
  8
0
 62
     0
 10
117.358
 20
60.2767
 30
0.0
 11
117.358
 21
47.4761
 31
0.0
  0
LINE
  8
0
 62
     0
 10
117.358
 20
47.4761
 30
0.0
 11
118.157
 21
47.4761
 31
0.0
  0
LINE
  8
0
 62
     0
 10
118.157
 20
47.4761
 30
0.0
 11
118.157
 21
46.8768
 31
0.0
  0
LINE
  8
0
 62
     0
 10
118.157
 20
46.8768
 30
0.0
 11
132.158
 21
46.8768
 31
0.0
  0
LINE
  8
0
 62
     0
 10
132.158
 20
46.8768
 30
0.0
 11
132.158
 21
47.4761
 31
0.0
  0
LINE
  8
0
 62
     0
 10
132.158
 20
47.4761
 30
0.0
 11
132.957
 21
47.4761
 31
0.0
  0
LINE
  8
0
 62
     0
 10
132.957
 20
47.4761
 30
0.0
 11
132.957
 21
60.2767
 31
0.0
  0
LINE
  8
0
 62
     0
 10
132.957
 20
60.2767
 30
0.0
 11
132.158
 21
60.2767
 31
0.0
  0
LINE
  8
0
 62
     0
 10
132.158
 20
60.2767
 30
0.0
 11
132.158
 21
60.8764
 31
0.0
  0
LINE
  8
0
 62
     0
 10
132.158
 20
60.8764
 30
0.0
 11
118.157
 21
60.8764
 31
0.0
  0
LINE
  8
0
 62
     0
 10
99.1073
 20
60.8764
 30
0.0
 11
99.1073
 21
60.2767
 31
0.0
  0
LINE
  8
0
 62
     0
 10
99.1073
 20
60.2767
 30
0.0
 11
98.3079
 21
60.2767
 31
0.0
  0
LINE
  8
0
 62
     0
 10
98.3079
 20
60.2767
 30
0.0
 11
98.3079
 21
47.4761
 31
0.0
  0
LINE
  8
0
 62
     0
 10
98.3079
 20
47.4761
 30
0.0
 11
99.1073
 21
47.4761
 31
0.0
  0
LINE
  8
0
 62
     0
 10
99.1073
 20
47.4761
 30
0.0
 11
99.1073
 21
46.8768
 31
0.0
  0
LINE
  8
0
 62
     0
 10
99.1073
 20
46.8768
 30
0.0
 11
113.108
 21
46.8768
 31
0.0
  0
LINE
  8
0
 62
     0
 10
113.108
 20
46.8768
 30
0.0
 11
113.108
 21
47.4761
 31
0.0
  0
LINE
  8
0
 62
     0
 10
113.108
 20
47.4761
 30
0.0
 11
113.907
 21
47.4761
 31
0.0
  0
LINE
  8
0
 62
     0
 10
113.907
 20
47.4761
 30
0.0
 11
113.907
 21
60.2767
 31
0.0
  0
LINE
  8
0
 62
     0
 10
113.907
 20
60.2767
 30
0.0
 11
113.108
 21
60.2767
 31
0.0
  0
LINE
  8
0
 62
     0
 10
113.108
 20
60.2767
 30
0.0
 11
113.108
 21
60.8764
 31
0.0
  0
LINE
  8
0
 62
     0
 10
113.108
 20
60.8764
 30
0.0
 11
99.1073
 21
60.8764
 31
0.0
  0
LINE
  8
0
 62
     0
 10
80.0573
 20
60.8764
 30
0.0
 11
80.0573
 21
60.2767
 31
0.0
  0
LINE
  8
0
 62
     0
 10
80.0573
 20
60.2767
 30
0.0
 11
79.2579
 21
60.2767
 31
0.0
  0
LINE
  8
0
 62
     0
 10
79.2579
 20
60.2767
 30
0.0
 11
79.2579
 21
47.4761
 31
0.0
  0
LINE
  8
0
 62
     0
 10
79.2579
 20
47.4761
 30
0.0
 11
80.0573
 21
47.4761
 31
0.0
  0
LINE
  8
0
 62
     0
 10
80.0573
 20
47.4761
 30
0.0
 11
80.0573
 21
46.8768
 31
0.0
  0
LINE
  8
0
 62
     0
 10
80.0573
 20
46.8768
 30
0.0
 11
94.058
 21
46.8768
 31
0.0
  0
LINE
  8
0
 62
     0
 10
94.058
 20
46.8768
 30
0.0
 11
94.058
 21
47.4761
 31
0.0
  0
LINE
  8
0
 62
     0
 10
94.058
 20
47.4761
 30
0.0
 11
94.8574
 21
47.4761
 31
0.0
  0
LINE
  8
0
 62
     0
 10
94.8574
 20
47.4761
 30
0.0
 11
94.8574
 21
60.2767
 31
0.0
  0
LINE
  8
0
 62
     0
 10
94.8574
 20
60.2767
 30
0.0
 11
94.058
 21
60.2767
 31
0.0
  0
LINE
  8
0
 62
     0
 10
94.058
 20
60.2767
 30
0.0
 11
94.058
 21
60.8764
 31
0.0
  0
LINE
  8
0
 62
     0
 10
94.058
 20
60.8764
 30
0.0
 11
80.0573
 21
60.8764
 31
0.0
  0
LINE
  8
0
 62
     0
 10
61.0073
 20
60.8764
 30
0.0
 11
61.0073
 21
60.2767
 31
0.0
  0
LINE
  8
0
 62
     0
 10
61.0073
 20
60.2767
 30
0.0
 11
60.2065
 21
60.2767
 31
0.0
  0
LINE
  8
0
 62
     0
 10
60.2065
 20
60.2767
 30
0.0
 11
60.2065
 21
47.4761
 31
0.0
  0
LINE
  8
0
 62
     0
 10
60.2065
 20
47.4761
 30
0.0
 11
61.0073
 21
47.4761
 31
0.0
  0
LINE
  8
0
 62
     0
 10
61.0073
 20
47.4761
 30
0.0
 11
61.0073
 21
46.8768
 31
0.0
  0
LINE
  8
0
 62
     0
 10
61.0073
 20
46.8768
 30
0.0
 11
75.008
 21
46.8768
 31
0.0
  0
LINE
  8
0
 62
     0
 10
75.008
 20
46.8768
 30
0.0
 11
75.008
 21
47.4761
 31
0.0
  0
LINE
  8
0
 62
     0
 10
75.008
 20
47.4761
 30
0.0
 11
75.8074
 21
47.4761
 31
0.0
  0
LINE
  8
0
 62
     0
 10
75.8074
 20
47.4761
 30
0.0
 11
75.8074
 21
60.2767
 31
0.0
  0
LINE
  8
0
 62
     0
 10
75.8074
 20
60.2767
 30
0.0
 11
75.008
 21
60.2767
 31
0.0
  0
LINE
  8
0
 62
     0
 10
75.008
 20
60.2767
 30
0.0
 11
75.008
 21
60.8764
 31
0.0
  0
LINE
  8
0
 62
     0
 10
75.008
 20
60.8764
 30
0.0
 11
61.0073
 21
60.8764
 31
0.0
  0
LINE
  8
0
 62
     0
 10
41.9573
 20
60.8764
 30
0.0
 11
41.9573
 21
60.2767
 31
0.0
  0
LINE
  8
0
 62
     0
 10
41.9573
 20
60.2767
 30
0.0
 11
41.1579
 21
60.2767
 31
0.0
  0
LINE
  8
0
 62
     0
 10
41.1579
 20
60.2767
 30
0.0
 11
41.1579
 21
47.4761
 31
0.0
  0
LINE
  8
0
 62
     0
 10
41.1579
 20
47.4761
 30
0.0
 11
41.9573
 21
47.4761
 31
0.0
  0
LINE
  8
0
 62
     0
 10
41.9573
 20
47.4761
 30
0.0
 11
41.9573
 21
46.8768
 31
0.0
  0
LINE
  8
0
 62
     0
 10
41.9573
 20
46.8768
 30
0.0
 11
55.958
 21
46.8768
 31
0.0
  0
LINE
  8
0
 62
     0
 10
55.958
 20
46.8768
 30
0.0
 11
55.958
 21
47.4761
 31
0.0
  0
LINE
  8
0
 62
     0
 10
55.958
 20
47.4761
 30
0.0
 11
56.7574
 21
47.4761
 31
0.0
  0
LINE
  8
0
 62
     0
 10
56.7574
 20
47.4761
 30
0.0
 11
56.7574
 21
60.2767
 31
0.0
  0
LINE
  8
0
 62
     0
 10
56.7574
 20
60.2767
 30
0.0
 11
55.958
 21
60.2767
 31
0.0
  0
LINE
  8
0
 62
     0
 10
55.958
 20
60.2767
 30
0.0
 11
55.958
 21
60.8764
 31
0.0
  0
LINE
  8
0
 62
     0
 10
55.958
 20
60.8764
 30
0.0
 11
41.9573
 21
60.8764
 31
0.0
  0
LINE
  8
0
 62
     0
 10
15.7634
 20
60.8764
 30
0.0
 11
15.7634
 21
60.2767
 31
0.0
  0
LINE
  8
0
 62
     0
 10
15.7634
 20
60.2767
 30
0.0
 11
14.9641
 21
60.2767
 31
0.0
  0
LINE
  8
0
 62
     0
 10
14.9641
 20
60.2767
 30
0.0
 11
14.9641
 21
47.4761
 31
0.0
  0
LINE
  8
0
 62
     0
 10
14.9641
 20
47.4761
 30
0.0
 11
15.7634
 21
47.4761
 31
0.0
  0
LINE
  8
0
 62
     0
 10
15.7634
 20
47.4761
 30
0.0
 11
15.7634
 21
46.8768
 31
0.0
  0
LINE
  8
0
 62
     0
 10
15.7634
 20
46.8768
 30
0.0
 11
29.7629
 21
46.8768
 31
0.0
  0
LINE
  8
0
 62
     0
 10
29.7629
 20
46.8768
 30
0.0
 11
29.7629
 21
47.4761
 31
0.0
  0
LINE
  8
0
 62
     0
 10
29.7629
 20
47.4761
 30
0.0
 11
30.5635
 21
47.4761
 31
0.0
  0
LINE
  8
0
 62
     0
 10
30.5635
 20
47.4761
 30
0.0
 11
30.5635
 21
60.2767
 31
0.0
  0
LINE
  8
0
 62
     0
 10
30.5635
 20
60.2767
 30
0.0
 11
29.7629
 21
60.2767
 31
0.0
  0
LINE
  8
0
 62
     0
 10
29.7629
 20
60.2767
 30
0.0
 11
29.7629
 21
60.8764
 31
0.0
  0
LINE
  8
0
 62
     0
 10
29.7629
 20
60.8764
 30
0.0
 11
15.7634
 21
60.8764
 31
0.0
  0
LINE
  8
0
 62
     0
 10
294.371
 20
79.9264
 30
0.0
 11
294.371
 21
79.3267
 31
0.0
  0
LINE
  8
0
 62
     0
 10
294.371
 20
79.3267
 30
0.0
 11
293.57
 21
79.3267
 31
0.0
  0
LINE
  8
0
 62
     0
 10
293.57
 20
79.3267
 30
0.0
 11
293.57
 21
66.5261
 31
0.0
  0
LINE
  8
0
 62
     0
 10
293.57
 20
66.5261
 30
0.0
 11
294.371
 21
66.5261
 31
0.0
  0
LINE
  8
0
 62
     0
 10
294.371
 20
66.5261
 30
0.0
 11
294.371
 21
65.9268
 31
0.0
  0
LINE
  8
0
 62
     0
 10
294.371
 20
65.9268
 30
0.0
 11
308.37
 21
65.9268
 31
0.0
  0
LINE
  8
0
 62
     0
 10
308.37
 20
65.9268
 30
0.0
 11
308.37
 21
66.5261
 31
0.0
  0
LINE
  8
0
 62
     0
 10
308.37
 20
66.5261
 30
0.0
 11
309.171
 21
66.5261
 31
0.0
  0
LINE
  8
0
 62
     0
 10
309.171
 20
66.5261
 30
0.0
 11
309.171
 21
79.3267
 31
0.0
  0
LINE
  8
0
 62
     0
 10
309.171
 20
79.3267
 30
0.0
 11
308.37
 21
79.3267
 31
0.0
  0
LINE
  8
0
 62
     0
 10
308.37
 20
79.3267
 30
0.0
 11
308.37
 21
79.9264
 31
0.0
  0
LINE
  8
0
 62
     0
 10
308.37
 20
79.9264
 30
0.0
 11
294.371
 21
79.9264
 31
0.0
  0
LINE
  8
0
 62
     0
 10
270.557
 20
79.9264
 30
0.0
 11
270.557
 21
79.3267
 31
0.0
  0
LINE
  8
0
 62
     0
 10
270.557
 20
79.3267
 30
0.0
 11
269.758
 21
79.3267
 31
0.0
  0
LINE
  8
0
 62
     0
 10
269.758
 20
79.3267
 30
0.0
 11
269.758
 21
66.5261
 31
0.0
  0
LINE
  8
0
 62
     0
 10
269.758
 20
66.5261
 30
0.0
 11
270.557
 21
66.5261
 31
0.0
  0
LINE
  8
0
 62
     0
 10
270.557
 20
66.5261
 30
0.0
 11
270.557
 21
65.9268
 31
0.0
  0
LINE
  8
0
 62
     0
 10
270.557
 20
65.9268
 30
0.0
 11
284.558
 21
65.9268
 31
0.0
  0
LINE
  8
0
 62
     0
 10
284.558
 20
65.9268
 30
0.0
 11
284.558
 21
66.5261
 31
0.0
  0
LINE
  8
0
 62
     0
 10
284.558
 20
66.5261
 30
0.0
 11
285.357
 21
66.5261
 31
0.0
  0
LINE
  8
0
 62
     0
 10
285.357
 20
66.5261
 30
0.0
 11
285.357
 21
79.3267
 31
0.0
  0
LINE
  8
0
 62
     0
 10
285.357
 20
79.3267
 30
0.0
 11
284.558
 21
79.3267
 31
0.0
  0
LINE
  8
0
 62
     0
 10
284.558
 20
79.3267
 30
0.0
 11
284.558
 21
79.9264
 31
0.0
  0
LINE
  8
0
 62
     0
 10
284.558
 20
79.9264
 30
0.0
 11
270.557
 21
79.9264
 31
0.0
  0
LINE
  8
0
 62
     0
 10
246.746
 20
79.9264
 30
0.0
 11
246.746
 21
79.3267
 31
0.0
  0
LINE
  8
0
 62
     0
 10
246.746
 20
79.3267
 30
0.0
 11
245.945
 21
79.3267
 31
0.0
  0
LINE
  8
0
 62
     0
 10
245.945
 20
79.3267
 30
0.0
 11
245.945
 21
66.5261
 31
0.0
  0
LINE
  8
0
 62
     0
 10
245.945
 20
66.5261
 30
0.0
 11
246.746
 21
66.5261
 31
0.0
  0
LINE
  8
0
 62
     0
 10
246.746
 20
66.5261
 30
0.0
 11
246.746
 21
65.9268
 31
0.0
  0
LINE
  8
0
 62
     0
 10
246.746
 20
65.9268
 30
0.0
 11
260.745
 21
65.9268
 31
0.0
  0
LINE
  8
0
 62
     0
 10
260.745
 20
65.9268
 30
0.0
 11
260.745
 21
66.5261
 31
0.0
  0
LINE
  8
0
 62
     0
 10
260.745
 20
66.5261
 30
0.0
 11
261.546
 21
66.5261
 31
0.0
  0
LINE
  8
0
 62
     0
 10
261.546
 20
66.5261
 30
0.0
 11
261.546
 21
79.3267
 31
0.0
  0
LINE
  8
0
 62
     0
 10
261.546
 20
79.3267
 30
0.0
 11
260.745
 21
79.3267
 31
0.0
  0
LINE
  8
0
 62
     0
 10
260.745
 20
79.3267
 30
0.0
 11
260.745
 21
79.9264
 31
0.0
  0
LINE
  8
0
 62
     0
 10
260.745
 20
79.9264
 30
0.0
 11
246.746
 21
79.9264
 31
0.0
  0
LINE
  8
0
 62
     0
 10
227.696
 20
79.9264
 30
0.0
 11
227.696
 21
79.3267
 31
0.0
  0
LINE
  8
0
 62
     0
 10
227.696
 20
79.3267
 30
0.0
 11
226.895
 21
79.3267
 31
0.0
  0
LINE
  8
0
 62
     0
 10
226.895
 20
79.3267
 30
0.0
 11
226.895
 21
66.5261
 31
0.0
  0
LINE
  8
0
 62
     0
 10
226.895
 20
66.5261
 30
0.0
 11
227.696
 21
66.5261
 31
0.0
  0
LINE
  8
0
 62
     0
 10
227.696
 20
66.5261
 30
0.0
 11
227.696
 21
65.9268
 31
0.0
  0
LINE
  8
0
 62
     0
 10
227.696
 20
65.9268
 30
0.0
 11
241.695
 21
65.9268
 31
0.0
  0
LINE
  8
0
 62
     0
 10
241.695
 20
65.9268
 30
0.0
 11
241.695
 21
66.5261
 31
0.0
  0
LINE
  8
0
 62
     0
 10
241.695
 20
66.5261
 30
0.0
 11
242.496
 21
66.5261
 31
0.0
  0
LINE
  8
0
 62
     0
 10
242.496
 20
66.5261
 30
0.0
 11
242.496
 21
79.3267
 31
0.0
  0
LINE
  8
0
 62
     0
 10
242.496
 20
79.3267
 30
0.0
 11
241.695
 21
79.3267
 31
0.0
  0
LINE
  8
0
 62
     0
 10
241.695
 20
79.3267
 30
0.0
 11
241.695
 21
79.9264
 31
0.0
  0
LINE
  8
0
 62
     0
 10
241.695
 20
79.9264
 30
0.0
 11
227.696
 21
79.9264
 31
0.0
  0
LINE
  8
0
 62
     0
 10
208.646
 20
79.9264
 30
0.0
 11
208.646
 21
79.3267
 31
0.0
  0
LINE
  8
0
 62
     0
 10
208.646
 20
79.3267
 30
0.0
 11
207.845
 21
79.3267
 31
0.0
  0
LINE
  8
0
 62
     0
 10
207.845
 20
79.3267
 30
0.0
 11
207.845
 21
66.5261
 31
0.0
  0
LINE
  8
0
 62
     0
 10
207.845
 20
66.5261
 30
0.0
 11
208.646
 21
66.5261
 31
0.0
  0
LINE
  8
0
 62
     0
 10
208.646
 20
66.5261
 30
0.0
 11
208.646
 21
65.9268
 31
0.0
  0
LINE
  8
0
 62
     0
 10
208.646
 20
65.9268
 30
0.0
 11
222.645
 21
65.9268
 31
0.0
  0
LINE
  8
0
 62
     0
 10
222.645
 20
65.9268
 30
0.0
 11
222.645
 21
66.5261
 31
0.0
  0
LINE
  8
0
 62
     0
 10
222.645
 20
66.5261
 30
0.0
 11
223.446
 21
66.5261
 31
0.0
  0
LINE
  8
0
 62
     0
 10
223.446
 20
66.5261
 30
0.0
 11
223.446
 21
79.3267
 31
0.0
  0
LINE
  8
0
 62
     0
 10
223.446
 20
79.3267
 30
0.0
 11
222.645
 21
79.3267
 31
0.0
  0
LINE
  8
0
 62
     0
 10
222.645
 20
79.3267
 30
0.0
 11
222.645
 21
79.9264
 31
0.0
  0
LINE
  8
0
 62
     0
 10
222.645
 20
79.9264
 30
0.0
 11
208.646
 21
79.9264
 31
0.0
  0
LINE
  8
0
 62
     0
 10
189.596
 20
79.9264
 30
0.0
 11
189.596
 21
79.3267
 31
0.0
  0
LINE
  8
0
 62
     0
 10
189.596
 20
79.3267
 30
0.0
 11
188.795
 21
79.3267
 31
0.0
  0
LINE
  8
0
 62
     0
 10
188.795
 20
79.3267
 30
0.0
 11
188.795
 21
66.5261
 31
0.0
  0
LINE
  8
0
 62
     0
 10
188.795
 20
66.5261
 30
0.0
 11
189.596
 21
66.5261
 31
0.0
  0
LINE
  8
0
 62
     0
 10
189.596
 20
66.5261
 30
0.0
 11
189.596
 21
65.9268
 31
0.0
  0
LINE
  8
0
 62
     0
 10
189.596
 20
65.9268
 30
0.0
 11
203.595
 21
65.9268
 31
0.0
  0
LINE
  8
0
 62
     0
 10
203.595
 20
65.9268
 30
0.0
 11
203.595
 21
66.5261
 31
0.0
  0
LINE
  8
0
 62
     0
 10
203.595
 20
66.5261
 30
0.0
 11
204.396
 21
66.5261
 31
0.0
  0
LINE
  8
0
 62
     0
 10
204.396
 20
66.5261
 30
0.0
 11
204.396
 21
79.3267
 31
0.0
  0
LINE
  8
0
 62
     0
 10
204.396
 20
79.3267
 30
0.0
 11
203.595
 21
79.3267
 31
0.0
  0
LINE
  8
0
 62
     0
 10
203.595
 20
79.3267
 30
0.0
 11
203.595
 21
79.9264
 31
0.0
  0
LINE
  8
0
 62
     0
 10
203.595
 20
79.9264
 30
0.0
 11
189.596
 21
79.9264
 31
0.0
  0
LINE
  8
0
 62
     0
 10
170.546
 20
79.9264
 30
0.0
 11
170.546
 21
79.3267
 31
0.0
  0
LINE
  8
0
 62
     0
 10
170.546
 20
79.3267
 30
0.0
 11
169.745
 21
79.3267
 31
0.0
  0
LINE
  8
0
 62
     0
 10
169.745
 20
79.3267
 30
0.0
 11
169.745
 21
66.5261
 31
0.0
  0
LINE
  8
0
 62
     0
 10
169.745
 20
66.5261
 30
0.0
 11
170.546
 21
66.5261
 31
0.0
  0
LINE
  8
0
 62
     0
 10
170.546
 20
66.5261
 30
0.0
 11
170.546
 21
65.9268
 31
0.0
  0
LINE
  8
0
 62
     0
 10
170.546
 20
65.9268
 30
0.0
 11
184.545
 21
65.9268
 31
0.0
  0
LINE
  8
0
 62
     0
 10
184.545
 20
65.9268
 30
0.0
 11
184.545
 21
66.5261
 31
0.0
  0
LINE
  8
0
 62
     0
 10
184.545
 20
66.5261
 30
0.0
 11
185.346
 21
66.5261
 31
0.0
  0
LINE
  8
0
 62
     0
 10
185.346
 20
66.5261
 30
0.0
 11
185.346
 21
79.3267
 31
0.0
  0
LINE
  8
0
 62
     0
 10
185.346
 20
79.3267
 30
0.0
 11
184.545
 21
79.3267
 31
0.0
  0
LINE
  8
0
 62
     0
 10
184.545
 20
79.3267
 30
0.0
 11
184.545
 21
79.9264
 31
0.0
  0
LINE
  8
0
 62
     0
 10
184.545
 20
79.9264
 30
0.0
 11
170.546
 21
79.9264
 31
0.0
  0
LINE
  8
0
 62
     0
 10
151.496
 20
79.9264
 30
0.0
 11
151.496
 21
79.3267
 31
0.0
  0
LINE
  8
0
 62
     0
 10
151.496
 20
79.3267
 30
0.0
 11
150.695
 21
79.3267
 31
0.0
  0
LINE
  8
0
 62
     0
 10
150.695
 20
79.3267
 30
0.0
 11
150.695
 21
66.5261
 31
0.0
  0
LINE
  8
0
 62
     0
 10
150.695
 20
66.5261
 30
0.0
 11
151.496
 21
66.5261
 31
0.0
  0
LINE
  8
0
 62
     0
 10
151.496
 20
66.5261
 30
0.0
 11
151.496
 21
65.9268
 31
0.0
  0
LINE
  8
0
 62
     0
 10
151.496
 20
65.9268
 30
0.0
 11
165.495
 21
65.9268
 31
0.0
  0
LINE
  8
0
 62
     0
 10
165.495
 20
65.9268
 30
0.0
 11
165.495
 21
66.5261
 31
0.0
  0
LINE
  8
0
 62
     0
 10
165.495
 20
66.5261
 30
0.0
 11
166.296
 21
66.5261
 31
0.0
  0
LINE
  8
0
 62
     0
 10
166.296
 20
66.5261
 30
0.0
 11
166.296
 21
79.3267
 31
0.0
  0
LINE
  8
0
 62
     0
 10
166.296
 20
79.3267
 30
0.0
 11
165.495
 21
79.3267
 31
0.0
  0
LINE
  8
0
 62
     0
 10
165.495
 20
79.3267
 30
0.0
 11
165.495
 21
79.9264
 31
0.0
  0
LINE
  8
0
 62
     0
 10
165.495
 20
79.9264
 30
0.0
 11
151.496
 21
79.9264
 31
0.0
  0
LINE
  8
0
 62
     0
 10
132.446
 20
79.9264
 30
0.0
 11
132.446
 21
79.3267
 31
0.0
  0
LINE
  8
0
 62
     0
 10
132.446
 20
79.3267
 30
0.0
 11
131.644
 21
79.3267
 31
0.0
  0
LINE
  8
0
 62
     0
 10
131.644
 20
79.3267
 30
0.0
 11
131.644
 21
66.5261
 31
0.0
  0
LINE
  8
0
 62
     0
 10
131.644
 20
66.5261
 30
0.0
 11
132.446
 21
66.5261
 31
0.0
  0
LINE
  8
0
 62
     0
 10
132.446
 20
66.5261
 30
0.0
 11
132.446
 21
65.9268
 31
0.0
  0
LINE
  8
0
 62
     0
 10
132.446
 20
65.9268
 30
0.0
 11
146.445
 21
65.9268
 31
0.0
  0
LINE
  8
0
 62
     0
 10
146.445
 20
65.9268
 30
0.0
 11
146.445
 21
66.5261
 31
0.0
  0
LINE
  8
0
 62
     0
 10
146.445
 20
66.5261
 30
0.0
 11
147.246
 21
66.5261
 31
0.0
  0
LINE
  8
0
 62
     0
 10
147.246
 20
66.5261
 30
0.0
 11
147.246
 21
79.3267
 31
0.0
  0
LINE
  8
0
 62
     0
 10
147.246
 20
79.3267
 30
0.0
 11
146.445
 21
79.3267
 31
0.0
  0
LINE
  8
0
 62
     0
 10
146.445
 20
79.3267
 30
0.0
 11
146.445
 21
79.9264
 31
0.0
  0
LINE
  8
0
 62
     0
 10
146.445
 20
79.9264
 30
0.0
 11
132.446
 21
79.9264
 31
0.0
  0
LINE
  8
0
 62
     0
 10
113.396
 20
79.9264
 30
0.0
 11
113.396
 21
79.3267
 31
0.0
  0
LINE
  8
0
 62
     0
 10
113.396
 20
79.3267
 30
0.0
 11
112.595
 21
79.3267
 31
0.0
  0
LINE
  8
0
 62
     0
 10
112.595
 20
79.3267
 30
0.0
 11
112.595
 21
66.5261
 31
0.0
  0
LINE
  8
0
 62
     0
 10
112.595
 20
66.5261
 30
0.0
 11
113.396
 21
66.5261
 31
0.0
  0
LINE
  8
0
 62
     0
 10
113.396
 20
66.5261
 30
0.0
 11
113.396
 21
65.9268
 31
0.0
  0
LINE
  8
0
 62
     0
 10
113.396
 20
65.9268
 30
0.0
 11
127.395
 21
65.9268
 31
0.0
  0
LINE
  8
0
 62
     0
 10
127.395
 20
65.9268
 30
0.0
 11
127.395
 21
66.5261
 31
0.0
  0
LINE
  8
0
 62
     0
 10
127.395
 20
66.5261
 30
0.0
 11
128.196
 21
66.5261
 31
0.0
  0
LINE
  8
0
 62
     0
 10
128.196
 20
66.5261
 30
0.0
 11
128.196
 21
79.3267
 31
0.0
  0
LINE
  8
0
 62
     0
 10
128.196
 20
79.3267
 30
0.0
 11
127.395
 21
79.3267
 31
0.0
  0
LINE
  8
0
 62
     0
 10
127.395
 20
79.3267
 30
0.0
 11
127.395
 21
79.9264
 31
0.0
  0
LINE
  8
0
 62
     0
 10
127.395
 20
79.9264
 30
0.0
 11
113.396
 21
79.9264
 31
0.0
  0
LINE
  8
0
 62
     0
 10
94.3462
 20
79.9264
 30
0.0
 11
94.3462
 21
79.3267
 31
0.0
  0
LINE
  8
0
 62
     0
 10
94.3462
 20
79.3267
 30
0.0
 11
93.5454
 21
79.3267
 31
0.0
  0
LINE
  8
0
 62
     0
 10
93.5454
 20
79.3267
 30
0.0
 11
93.5454
 21
66.5261
 31
0.0
  0
LINE
  8
0
 62
     0
 10
93.5454
 20
66.5261
 30
0.0
 11
94.3462
 21
66.5261
 31
0.0
  0
LINE
  8
0
 62
     0
 10
94.3462
 20
66.5261
 30
0.0
 11
94.3462
 21
65.9268
 31
0.0
  0
LINE
  8
0
 62
     0
 10
94.3462
 20
65.9268
 30
0.0
 11
108.345
 21
65.9268
 31
0.0
  0
LINE
  8
0
 62
     0
 10
108.345
 20
65.9268
 30
0.0
 11
108.345
 21
66.5261
 31
0.0
  0
LINE
  8
0
 62
     0
 10
108.345
 20
66.5261
 30
0.0
 11
109.146
 21
66.5261
 31
0.0
  0
LINE
  8
0
 62
     0
 10
109.146
 20
66.5261
 30
0.0
 11
109.146
 21
79.3267
 31
0.0
  0
LINE
  8
0
 62
     0
 10
109.146
 20
79.3267
 30
0.0
 11
108.345
 21
79.3267
 31
0.0
  0
LINE
  8
0
 62
     0
 10
108.345
 20
79.3267
 30
0.0
 11
108.345
 21
79.9264
 31
0.0
  0
LINE
  8
0
 62
     0
 10
108.345
 20
79.9264
 30
0.0
 11
94.3462
 21
79.9264
 31
0.0
  0
LINE
  8
0
 62
     0
 10
75.2962
 20
79.9264
 30
0.0
 11
75.2962
 21
79.3267
 31
0.0
  0
LINE
  8
0
 62
     0
 10
75.2962
 20
79.3267
 30
0.0
 11
74.4954
 21
79.3267
 31
0.0
  0
LINE
  8
0
 62
     0
 10
74.4954
 20
79.3267
 30
0.0
 11
74.4954
 21
66.5261
 31
0.0
  0
LINE
  8
0
 62
     0
 10
74.4954
 20
66.5261
 30
0.0
 11
75.2962
 21
66.5261
 31
0.0
  0
LINE
  8
0
 62
     0
 10
75.2962
 20
66.5261
 30
0.0
 11
75.2962
 21
65.9268
 31
0.0
  0
LINE
  8
0
 62
     0
 10
75.2962
 20
65.9268
 30
0.0
 11
89.2955
 21
65.9268
 31
0.0
  0
LINE
  8
0
 62
     0
 10
89.2955
 20
65.9268
 30
0.0
 11
89.2955
 21
66.5261
 31
0.0
  0
LINE
  8
0
 62
     0
 10
89.2955
 20
66.5261
 30
0.0
 11
90.0963
 21
66.5261
 31
0.0
  0
LINE
  8
0
 62
     0
 10
90.0963
 20
66.5261
 30
0.0
 11
90.0963
 21
79.3267
 31
0.0
  0
LINE
  8
0
 62
     0
 10
90.0963
 20
79.3267
 30
0.0
 11
89.2955
 21
79.3267
 31
0.0
  0
LINE
  8
0
 62
     0
 10
89.2955
 20
79.3267
 30
0.0
 11
89.2955
 21
79.9264
 31
0.0
  0
LINE
  8
0
 62
     0
 10
89.2955
 20
79.9264
 30
0.0
 11
75.2962
 21
79.9264
 31
0.0
  0
LINE
  8
0
 62
     0
 10
56.2462
 20
79.9264
 30
0.0
 11
56.2462
 21
79.3267
 31
0.0
  0
LINE
  8
0
 62
     0
 10
56.2462
 20
79.3267
 30
0.0
 11
55.4454
 21
79.3267
 31
0.0
  0
LINE
  8
0
 62
     0
 10
55.4454
 20
79.3267
 30
0.0
 11
55.4454
 21
66.5261
 31
0.0
  0
LINE
  8
0
 62
     0
 10
55.4454
 20
66.5261
 30
0.0
 11
56.2462
 21
66.5261
 31
0.0
  0
LINE
  8
0
 62
     0
 10
56.2462
 20
66.5261
 30
0.0
 11
56.2462
 21
65.9268
 31
0.0
  0
LINE
  8
0
 62
     0
 10
56.2462
 20
65.9268
 30
0.0
 11
70.2455
 21
65.9268
 31
0.0
  0
LINE
  8
0
 62
     0
 10
70.2455
 20
65.9268
 30
0.0
 11
70.2455
 21
66.5261
 31
0.0
  0
LINE
  8
0
 62
     0
 10
70.2455
 20
66.5261
 30
0.0
 11
71.0463
 21
66.5261
 31
0.0
  0
LINE
  8
0
 62
     0
 10
71.0463
 20
66.5261
 30
0.0
 11
71.0463
 21
79.3267
 31
0.0
  0
LINE
  8
0
 62
     0
 10
71.0463
 20
79.3267
 30
0.0
 11
70.2455
 21
79.3267
 31
0.0
  0
LINE
  8
0
 62
     0
 10
70.2455
 20
79.3267
 30
0.0
 11
70.2455
 21
79.9264
 31
0.0
  0
LINE
  8
0
 62
     0
 10
70.2455
 20
79.9264
 30
0.0
 11
56.2462
 21
79.9264
 31
0.0
  0
LINE
  8
0
 62
     0
 10
37.1962
 20
79.9264
 30
0.0
 11
37.1962
 21
79.3267
 31
0.0
  0
LINE
  8
0
 62
     0
 10
37.1962
 20
79.3267
 30
0.0
 11
36.3954
 21
79.3267
 31
0.0
  0
LINE
  8
0
 62
     0
 10
36.3954
 20
79.3267
 30
0.0
 11
36.3954
 21
66.5261
 31
0.0
  0
LINE
  8
0
 62
     0
 10
36.3954
 20
66.5261
 30
0.0
 11
37.1962
 21
66.5261
 31
0.0
  0
LINE
  8
0
 62
     0
 10
37.1962
 20
66.5261
 30
0.0
 11
37.1962
 21
65.9268
 31
0.0
  0
LINE
  8
0
 62
     0
 10
37.1962
 20
65.9268
 30
0.0
 11
51.1955
 21
65.9268
 31
0.0
  0
LINE
  8
0
 62
     0
 10
51.1955
 20
65.9268
 30
0.0
 11
51.1955
 21
66.5261
 31
0.0
  0
LINE
  8
0
 62
     0
 10
51.1955
 20
66.5261
 30
0.0
 11
51.9963
 21
66.5261
 31
0.0
  0
LINE
  8
0
 62
     0
 10
51.9963
 20
66.5261
 30
0.0
 11
51.9963
 21
79.3267
 31
0.0
  0
LINE
  8
0
 62
     0
 10
51.9963
 20
79.3267
 30
0.0
 11
51.1955
 21
79.3267
 31
0.0
  0
LINE
  8
0
 62
     0
 10
51.1955
 20
79.3267
 30
0.0
 11
51.1955
 21
79.9264
 31
0.0
  0
LINE
  8
0
 62
     0
 10
51.1955
 20
79.9264
 30
0.0
 11
37.1962
 21
79.9264
 31
0.0
  0
LINE
  8
0
 62
     0
 10
13.3821
 20
79.9264
 30
0.0
 11
13.3821
 21
79.3267
 31
0.0
  0
LINE
  8
0
 62
     0
 10
13.3821
 20
79.3267
 30
0.0
 11
12.5829
 21
79.3267
 31
0.0
  0
LINE
  8
0
 62
     0
 10
12.5829
 20
79.3267
 30
0.0
 11
12.5829
 21
66.5261
 31
0.0
  0
LINE
  8
0
 62
     0
 10
12.5829
 20
66.5261
 30
0.0
 11
13.3821
 21
66.5261
 31
0.0
  0
LINE
  8
0
 62
     0
 10
13.3821
 20
66.5261
 30
0.0
 11
13.3821
 21
65.9268
 31
0.0
  0
LINE
  8
0
 62
     0
 10
13.3821
 20
65.9268
 30
0.0
 11
27.383
 21
65.9268
 31
0.0
  0
LINE
  8
0
 62
     0
 10
27.383
 20
65.9268
 30
0.0
 11
27.383
 21
66.5261
 31
0.0
  0
LINE
  8
0
 62
     0
 10
27.383
 20
66.5261
 30
0.0
 11
28.1823
 21
66.5261
 31
0.0
  0
LINE
  8
0
 62
     0
 10
28.1823
 20
66.5261
 30
0.0
 11
28.1823
 21
79.3267
 31
0.0
  0
LINE
  8
0
 62
     0
 10
28.1823
 20
79.3267
 30
0.0
 11
27.383
 21
79.3267
 31
0.0
  0
LINE
  8
0
 62
     0
 10
27.383
 20
79.3267
 30
0.0
 11
27.383
 21
79.9264
 31
0.0
  0
LINE
  8
0
 62
     0
 10
27.383
 20
79.9264
 30
0.0
 11
13.3821
 21
79.9264
 31
0.0
  0
LINE
  8
0
 62
     0
 10
265.796
 20
98.9775
 30
0.0
 11
265.796
 21
98.3781
 31
0.0
  0
LINE
  8
0
 62
     0
 10
265.796
 20
98.3781
 30
0.0
 11
264.995
 21
98.3781
 31
0.0
  0
LINE
  8
0
 62
     0
 10
264.995
 20
98.3781
 30
0.0
 11
264.995
 21
94.277
 31
0.0
  0
LINE
  8
0
 62
     0
 10
264.995
 20
94.277
 30
0.0
 11
264.27
 21
94.277
 31
0.0
  0
LINE
  8
0
 62
     0
 10
264.27
 20
94.277
 30
0.0
 11
264.27
 21
97.5071
 31
0.0
  0
LINE
  8
0
 62
     0
 10
264.27
 20
97.5071
 30
0.0
 11
262.545
 21
97.5071
 31
0.0
  0
LINE
  8
0
 62
     0
 10
262.545
 20
97.5071
 30
0.0
 11
262.545
 21
98.4264
 31
0.0
  0
LINE
  8
0
 62
     0
 10
262.545
 20
98.4264
 30
0.0
 11
259.245
 21
98.4264
 31
0.0
  0
LINE
  8
0
 62
     0
 10
259.245
 20
98.4264
 30
0.0
 11
259.245
 21
97.5071
 31
0.0
  0
LINE
  8
0
 62
     0
 10
259.245
 20
97.5071
 30
0.0
 11
257.521
 21
97.5071
 31
0.0
  0
LINE
  8
0
 62
     0
 10
257.521
 20
97.5071
 30
0.0
 11
257.521
 21
94.277
 31
0.0
  0
LINE
  8
0
 62
     0
 10
257.521
 20
94.277
 30
0.0
 11
256.696
 21
94.277
 31
0.0
  0
LINE
  8
0
 62
     0
 10
256.696
 20
94.277
 30
0.0
 11
256.696
 21
91.477
 31
0.0
  0
LINE
  8
0
 62
     0
 10
256.696
 20
91.477
 30
0.0
 11
257.521
 21
91.477
 31
0.0
  0
LINE
  8
0
 62
     0
 10
257.521
 20
91.477
 30
0.0
 11
257.521
 21
85.2082
 31
0.0
  0
LINE
  8
0
 62
     0
 10
257.521
 20
85.2082
 30
0.0
 11
259.245
 21
85.2082
 31
0.0
  0
LINE
  8
0
 62
     0
 10
259.245
 20
85.2082
 30
0.0
 11
259.245
 21
84.2271
 31
0.0
  0
LINE
  8
0
 62
     0
 10
259.245
 20
84.2271
 30
0.0
 11
262.545
 21
84.2271
 31
0.0
  0
LINE
  8
0
 62
     0
 10
262.545
 20
84.2271
 30
0.0
 11
262.545
 21
85.2082
 31
0.0
  0
LINE
  8
0
 62
     0
 10
262.545
 20
85.2082
 30
0.0
 11
264.27
 21
85.2082
 31
0.0
  0
LINE
  8
0
 62
     0
 10
264.27
 20
85.2082
 30
0.0
 11
264.27
 21
89.6772
 31
0.0
  0
LINE
  8
0
 62
     0
 10
264.27
 20
89.6772
 30
0.0
 11
264.995
 21
89.6772
 31
0.0
  0
LINE
  8
0
 62
     0
 10
264.995
 20
89.6772
 30
0.0
 11
264.995
 21
85.5775
 31
0.0
  0
LINE
  8
0
 62
     0
 10
264.995
 20
85.5775
 30
0.0
 11
265.796
 21
85.5775
 31
0.0
  0
LINE
  8
0
 62
     0
 10
265.796
 20
85.5775
 30
0.0
 11
265.796
 21
84.9768
 31
0.0
  0
LINE
  8
0
 62
     0
 10
265.796
 20
84.9768
 30
0.0
 11
279.795
 21
84.9768
 31
0.0
  0
LINE
  8
0
 62
     0
 10
279.795
 20
84.9768
 30
0.0
 11
279.795
 21
85.5775
 31
0.0
  0
LINE
  8
0
 62
     0
 10
279.795
 20
85.5775
 30
0.0
 11
280.596
 21
85.5775
 31
0.0
  0
LINE
  8
0
 62
     0
 10
280.596
 20
85.5775
 30
0.0
 11
280.596
 21
89.6772
 31
0.0
  0
LINE
  8
0
 62
     0
 10
280.596
 20
89.6772
 30
0.0
 11
281.321
 21
89.6772
 31
0.0
  0
LINE
  8
0
 62
     0
 10
281.321
 20
89.6772
 30
0.0
 11
281.321
 21
85.2082
 31
0.0
  0
LINE
  8
0
 62
     0
 10
281.321
 20
85.2082
 30
0.0
 11
283.045
 21
85.2082
 31
0.0
  0
LINE
  8
0
 62
     0
 10
283.045
 20
85.2082
 30
0.0
 11
283.045
 21
84.2271
 31
0.0
  0
LINE
  8
0
 62
     0
 10
283.045
 20
84.2271
 30
0.0
 11
286.345
 21
84.2271
 31
0.0
  0
LINE
  8
0
 62
     0
 10
286.345
 20
84.2271
 30
0.0
 11
286.345
 21
85.2082
 31
0.0
  0
LINE
  8
0
 62
     0
 10
286.345
 20
85.2082
 30
0.0
 11
288.071
 21
85.2082
 31
0.0
  0
LINE
  8
0
 62
     0
 10
288.071
 20
85.2082
 30
0.0
 11
288.071
 21
91.477
 31
0.0
  0
LINE
  8
0
 62
     0
 10
288.071
 20
91.477
 30
0.0
 11
288.896
 21
91.477
 31
0.0
  0
LINE
  8
0
 62
     0
 10
288.896
 20
91.477
 30
0.0
 11
288.896
 21
94.277
 31
0.0
  0
LINE
  8
0
 62
     0
 10
288.896
 20
94.277
 30
0.0
 11
288.071
 21
94.277
 31
0.0
  0
LINE
  8
0
 62
     0
 10
288.071
 20
94.277
 30
0.0
 11
288.071
 21
97.5071
 31
0.0
  0
LINE
  8
0
 62
     0
 10
288.071
 20
97.5071
 30
0.0
 11
286.345
 21
97.5071
 31
0.0
  0
LINE
  8
0
 62
     0
 10
286.345
 20
97.5071
 30
0.0
 11
286.345
 21
98.4264
 31
0.0
  0
LINE
  8
0
 62
     0
 10
286.345
 20
98.4264
 30
0.0
 11
283.045
 21
98.4264
 31
0.0
  0
LINE
  8
0
 62
     0
 10
283.045
 20
98.4264
 30
0.0
 11
283.045
 21
97.5071
 31
0.0
  0
LINE
  8
0
 62
     0
 10
283.045
 20
97.5071
 30
0.0
 11
281.321
 21
97.5071
 31
0.0
  0
LINE
  8
0
 62
     0
 10
281.321
 20
97.5071
 30
0.0
 11
281.321
 21
94.277
 31
0.0
  0
LINE
  8
0
 62
     0
 10
281.321
 20
94.277
 30
0.0
 11
280.596
 21
94.277
 31
0.0
  0
LINE
  8
0
 62
     0
 10
280.596
 20
94.277
 30
0.0
 11
280.596
 21
98.3781
 31
0.0
  0
LINE
  8
0
 62
     0
 10
280.596
 20
98.3781
 30
0.0
 11
279.795
 21
98.3781
 31
0.0
  0
LINE
  8
0
 62
     0
 10
279.795
 20
98.3781
 30
0.0
 11
279.795
 21
98.9775
 31
0.0
  0
LINE
  8
0
 62
     0
 10
279.795
 20
98.9775
 30
0.0
 11
265.796
 21
98.9775
 31
0.0
  0
LINE
  8
0
 62
     0
 10
294.371
 20
98.9775
 30
0.0
 11
294.371
 21
98.3781
 31
0.0
  0
LINE
  8
0
 62
     0
 10
294.371
 20
98.3781
 30
0.0
 11
293.569
 21
98.3781
 31
0.0
  0
LINE
  8
0
 62
     0
 10
293.569
 20
98.3781
 30
0.0
 11
293.569
 21
85.5775
 31
0.0
  0
LINE
  8
0
 62
     0
 10
293.569
 20
85.5775
 30
0.0
 11
294.371
 21
85.5775
 31
0.0
  0
LINE
  8
0
 62
     0
 10
294.371
 20
85.5775
 30
0.0
 11
294.371
 21
84.9768
 31
0.0
  0
LINE
  8
0
 62
     0
 10
294.371
 20
84.9768
 30
0.0
 11
308.37
 21
84.9768
 31
0.0
  0
LINE
  8
0
 62
     0
 10
308.37
 20
84.9768
 30
0.0
 11
308.37
 21
85.5775
 31
0.0
  0
LINE
  8
0
 62
     0
 10
308.37
 20
85.5775
 30
0.0
 11
309.171
 21
85.5775
 31
0.0
  0
LINE
  8
0
 62
     0
 10
309.171
 20
85.5775
 30
0.0
 11
309.171
 21
98.3781
 31
0.0
  0
LINE
  8
0
 62
     0
 10
309.171
 20
98.3781
 30
0.0
 11
308.37
 21
98.3781
 31
0.0
  0
LINE
  8
0
 62
     0
 10
308.37
 20
98.3781
 30
0.0
 11
308.37
 21
98.9775
 31
0.0
  0
LINE
  8
0
 62
     0
 10
308.37
 20
98.9775
 30
0.0
 11
294.371
 21
98.9775
 31
0.0
  0
LINE
  8
0
 62
     0
 10
237.221
 20
98.9775
 30
0.0
 11
237.221
 21
98.3781
 31
0.0
  0
LINE
  8
0
 62
     0
 10
237.221
 20
98.3781
 30
0.0
 11
236.42
 21
98.3781
 31
0.0
  0
LINE
  8
0
 62
     0
 10
236.42
 20
98.3781
 30
0.0
 11
236.42
 21
85.5775
 31
0.0
  0
LINE
  8
0
 62
     0
 10
236.42
 20
85.5775
 30
0.0
 11
237.221
 21
85.5775
 31
0.0
  0
LINE
  8
0
 62
     0
 10
237.221
 20
85.5775
 30
0.0
 11
237.221
 21
84.9768
 31
0.0
  0
LINE
  8
0
 62
     0
 10
237.221
 20
84.9768
 30
0.0
 11
251.22
 21
84.9768
 31
0.0
  0
LINE
  8
0
 62
     0
 10
251.22
 20
84.9768
 30
0.0
 11
251.22
 21
85.5775
 31
0.0
  0
LINE
  8
0
 62
     0
 10
251.22
 20
85.5775
 30
0.0
 11
252.021
 21
85.5775
 31
0.0
  0
LINE
  8
0
 62
     0
 10
252.021
 20
85.5775
 30
0.0
 11
252.021
 21
98.3781
 31
0.0
  0
LINE
  8
0
 62
     0
 10
252.021
 20
98.3781
 30
0.0
 11
251.22
 21
98.3781
 31
0.0
  0
LINE
  8
0
 62
     0
 10
251.22
 20
98.3781
 30
0.0
 11
251.22
 21
98.9775
 31
0.0
  0
LINE
  8
0
 62
     0
 10
251.22
 20
98.9775
 30
0.0
 11
237.221
 21
98.9775
 31
0.0
  0
LINE
  8
0
 62
     0
 10
218.171
 20
98.9775
 30
0.0
 11
218.171
 21
98.3781
 31
0.0
  0
LINE
  8
0
 62
     0
 10
218.171
 20
98.3781
 30
0.0
 11
217.37
 21
98.3781
 31
0.0
  0
LINE
  8
0
 62
     0
 10
217.37
 20
98.3781
 30
0.0
 11
217.37
 21
85.5775
 31
0.0
  0
LINE
  8
0
 62
     0
 10
217.37
 20
85.5775
 30
0.0
 11
218.171
 21
85.5775
 31
0.0
  0
LINE
  8
0
 62
     0
 10
218.171
 20
85.5775
 30
0.0
 11
218.171
 21
84.9768
 31
0.0
  0
LINE
  8
0
 62
     0
 10
218.171
 20
84.9768
 30
0.0
 11
232.17
 21
84.9768
 31
0.0
  0
LINE
  8
0
 62
     0
 10
232.17
 20
84.9768
 30
0.0
 11
232.17
 21
85.5775
 31
0.0
  0
LINE
  8
0
 62
     0
 10
232.17
 20
85.5775
 30
0.0
 11
232.971
 21
85.5775
 31
0.0
  0
LINE
  8
0
 62
     0
 10
232.971
 20
85.5775
 30
0.0
 11
232.971
 21
98.3781
 31
0.0
  0
LINE
  8
0
 62
     0
 10
232.971
 20
98.3781
 30
0.0
 11
232.17
 21
98.3781
 31
0.0
  0
LINE
  8
0
 62
     0
 10
232.17
 20
98.3781
 30
0.0
 11
232.17
 21
98.9775
 31
0.0
  0
LINE
  8
0
 62
     0
 10
232.17
 20
98.9775
 30
0.0
 11
218.171
 21
98.9775
 31
0.0
  0
LINE
  8
0
 62
     0
 10
199.121
 20
98.9775
 30
0.0
 11
199.121
 21
98.3781
 31
0.0
  0
LINE
  8
0
 62
     0
 10
199.121
 20
98.3781
 30
0.0
 11
198.32
 21
98.3781
 31
0.0
  0
LINE
  8
0
 62
     0
 10
198.32
 20
98.3781
 30
0.0
 11
198.32
 21
85.5775
 31
0.0
  0
LINE
  8
0
 62
     0
 10
198.32
 20
85.5775
 30
0.0
 11
199.121
 21
85.5775
 31
0.0
  0
LINE
  8
0
 62
     0
 10
199.121
 20
85.5775
 30
0.0
 11
199.121
 21
84.9768
 31
0.0
  0
LINE
  8
0
 62
     0
 10
199.121
 20
84.9768
 30
0.0
 11
213.12
 21
84.9768
 31
0.0
  0
LINE
  8
0
 62
     0
 10
213.12
 20
84.9768
 30
0.0
 11
213.12
 21
85.5775
 31
0.0
  0
LINE
  8
0
 62
     0
 10
213.12
 20
85.5775
 30
0.0
 11
213.921
 21
85.5775
 31
0.0
  0
LINE
  8
0
 62
     0
 10
213.921
 20
85.5775
 30
0.0
 11
213.921
 21
98.3781
 31
0.0
  0
LINE
  8
0
 62
     0
 10
213.921
 20
98.3781
 30
0.0
 11
213.12
 21
98.3781
 31
0.0
  0
LINE
  8
0
 62
     0
 10
213.12
 20
98.3781
 30
0.0
 11
213.12
 21
98.9775
 31
0.0
  0
LINE
  8
0
 62
     0
 10
213.12
 20
98.9775
 30
0.0
 11
199.121
 21
98.9775
 31
0.0
  0
LINE
  8
0
 62
     0
 10
180.071
 20
98.9775
 30
0.0
 11
180.071
 21
98.3781
 31
0.0
  0
LINE
  8
0
 62
     0
 10
180.071
 20
98.3781
 30
0.0
 11
179.27
 21
98.3781
 31
0.0
  0
LINE
  8
0
 62
     0
 10
179.27
 20
98.3781
 30
0.0
 11
179.27
 21
85.5775
 31
0.0
  0
LINE
  8
0
 62
     0
 10
179.27
 20
85.5775
 30
0.0
 11
180.071
 21
85.5775
 31
0.0
  0
LINE
  8
0
 62
     0
 10
180.071
 20
85.5775
 30
0.0
 11
180.071
 21
84.9768
 31
0.0
  0
LINE
  8
0
 62
     0
 10
180.071
 20
84.9768
 30
0.0
 11
194.07
 21
84.9768
 31
0.0
  0
LINE
  8
0
 62
     0
 10
194.07
 20
84.9768
 30
0.0
 11
194.07
 21
85.5775
 31
0.0
  0
LINE
  8
0
 62
     0
 10
194.07
 20
85.5775
 30
0.0
 11
194.871
 21
85.5775
 31
0.0
  0
LINE
  8
0
 62
     0
 10
194.871
 20
85.5775
 30
0.0
 11
194.871
 21
98.3781
 31
0.0
  0
LINE
  8
0
 62
     0
 10
194.871
 20
98.3781
 30
0.0
 11
194.07
 21
98.3781
 31
0.0
  0
LINE
  8
0
 62
     0
 10
194.07
 20
98.3781
 30
0.0
 11
194.07
 21
98.9775
 31
0.0
  0
LINE
  8
0
 62
     0
 10
194.07
 20
98.9775
 30
0.0
 11
180.071
 21
98.9775
 31
0.0
  0
LINE
  8
0
 62
     0
 10
161.021
 20
98.9775
 30
0.0
 11
161.021
 21
98.3781
 31
0.0
  0
LINE
  8
0
 62
     0
 10
161.021
 20
98.3781
 30
0.0
 11
160.22
 21
98.3781
 31
0.0
  0
LINE
  8
0
 62
     0
 10
160.22
 20
98.3781
 30
0.0
 11
160.22
 21
85.5775
 31
0.0
  0
LINE
  8
0
 62
     0
 10
160.22
 20
85.5775
 30
0.0
 11
161.021
 21
85.5775
 31
0.0
  0
LINE
  8
0
 62
     0
 10
161.021
 20
85.5775
 30
0.0
 11
161.021
 21
84.9768
 31
0.0
  0
LINE
  8
0
 62
     0
 10
161.021
 20
84.9768
 30
0.0
 11
175.02
 21
84.9768
 31
0.0
  0
LINE
  8
0
 62
     0
 10
175.02
 20
84.9768
 30
0.0
 11
175.02
 21
85.5775
 31
0.0
  0
LINE
  8
0
 62
     0
 10
175.02
 20
85.5775
 30
0.0
 11
175.821
 21
85.5775
 31
0.0
  0
LINE
  8
0
 62
     0
 10
175.821
 20
85.5775
 30
0.0
 11
175.821
 21
98.3781
 31
0.0
  0
LINE
  8
0
 62
     0
 10
175.821
 20
98.3781
 30
0.0
 11
175.02
 21
98.3781
 31
0.0
  0
LINE
  8
0
 62
     0
 10
175.02
 20
98.3781
 30
0.0
 11
175.02
 21
98.9775
 31
0.0
  0
LINE
  8
0
 62
     0
 10
175.02
 20
98.9775
 30
0.0
 11
161.021
 21
98.9775
 31
0.0
  0
LINE
  8
0
 62
     0
 10
141.971
 20
98.9775
 30
0.0
 11
141.971
 21
98.3781
 31
0.0
  0
LINE
  8
0
 62
     0
 10
141.971
 20
98.3781
 30
0.0
 11
141.17
 21
98.3781
 31
0.0
  0
LINE
  8
0
 62
     0
 10
141.17
 20
98.3781
 30
0.0
 11
141.17
 21
85.5775
 31
0.0
  0
LINE
  8
0
 62
     0
 10
141.17
 20
85.5775
 30
0.0
 11
141.971
 21
85.5775
 31
0.0
  0
LINE
  8
0
 62
     0
 10
141.971
 20
85.5775
 30
0.0
 11
141.971
 21
84.9768
 31
0.0
  0
LINE
  8
0
 62
     0
 10
141.971
 20
84.9768
 30
0.0
 11
155.97
 21
84.9768
 31
0.0
  0
LINE
  8
0
 62
     0
 10
155.97
 20
84.9768
 30
0.0
 11
155.97
 21
85.5775
 31
0.0
  0
LINE
  8
0
 62
     0
 10
155.97
 20
85.5775
 30
0.0
 11
156.771
 21
85.5775
 31
0.0
  0
LINE
  8
0
 62
     0
 10
156.771
 20
85.5775
 30
0.0
 11
156.771
 21
98.3781
 31
0.0
  0
LINE
  8
0
 62
     0
 10
156.771
 20
98.3781
 30
0.0
 11
155.97
 21
98.3781
 31
0.0
  0
LINE
  8
0
 62
     0
 10
155.97
 20
98.3781
 30
0.0
 11
155.97
 21
98.9775
 31
0.0
  0
LINE
  8
0
 62
     0
 10
155.97
 20
98.9775
 30
0.0
 11
141.971
 21
98.9775
 31
0.0
  0
LINE
  8
0
 62
     0
 10
122.92
 20
98.9775
 30
0.0
 11
122.92
 21
98.3781
 31
0.0
  0
LINE
  8
0
 62
     0
 10
122.92
 20
98.3781
 30
0.0
 11
122.119
 21
98.3781
 31
0.0
  0
LINE
  8
0
 62
     0
 10
122.119
 20
98.3781
 30
0.0
 11
122.119
 21
85.5775
 31
0.0
  0
LINE
  8
0
 62
     0
 10
122.119
 20
85.5775
 30
0.0
 11
122.92
 21
85.5775
 31
0.0
  0
LINE
  8
0
 62
     0
 10
122.92
 20
85.5775
 30
0.0
 11
122.92
 21
84.9768
 31
0.0
  0
LINE
  8
0
 62
     0
 10
122.92
 20
84.9768
 30
0.0
 11
136.92
 21
84.9768
 31
0.0
  0
LINE
  8
0
 62
     0
 10
136.92
 20
84.9768
 30
0.0
 11
136.92
 21
85.5775
 31
0.0
  0
LINE
  8
0
 62
     0
 10
136.92
 20
85.5775
 30
0.0
 11
137.721
 21
85.5775
 31
0.0
  0
LINE
  8
0
 62
     0
 10
137.721
 20
85.5775
 30
0.0
 11
137.721
 21
98.3781
 31
0.0
  0
LINE
  8
0
 62
     0
 10
137.721
 20
98.3781
 30
0.0
 11
136.92
 21
98.3781
 31
0.0
  0
LINE
  8
0
 62
     0
 10
136.92
 20
98.3781
 30
0.0
 11
136.92
 21
98.9775
 31
0.0
  0
LINE
  8
0
 62
     0
 10
136.92
 20
98.9775
 30
0.0
 11
122.92
 21
98.9775
 31
0.0
  0
LINE
  8
0
 62
     0
 10
103.87
 20
98.9775
 30
0.0
 11
103.87
 21
98.3781
 31
0.0
  0
LINE
  8
0
 62
     0
 10
103.87
 20
98.3781
 30
0.0
 11
103.07
 21
98.3781
 31
0.0
  0
LINE
  8
0
 62
     0
 10
103.07
 20
98.3781
 30
0.0
 11
103.07
 21
85.5775
 31
0.0
  0
LINE
  8
0
 62
     0
 10
103.07
 20
85.5775
 30
0.0
 11
103.87
 21
85.5775
 31
0.0
  0
LINE
  8
0
 62
     0
 10
103.87
 20
85.5775
 30
0.0
 11
103.87
 21
84.9768
 31
0.0
  0
LINE
  8
0
 62
     0
 10
103.87
 20
84.9768
 30
0.0
 11
117.869
 21
84.9768
 31
0.0
  0
LINE
  8
0
 62
     0
 10
117.869
 20
84.9768
 30
0.0
 11
117.869
 21
85.5775
 31
0.0
  0
LINE
  8
0
 62
     0
 10
117.869
 20
85.5775
 30
0.0
 11
118.67
 21
85.5775
 31
0.0
  0
LINE
  8
0
 62
     0
 10
118.67
 20
85.5775
 30
0.0
 11
118.67
 21
98.3781
 31
0.0
  0
LINE
  8
0
 62
     0
 10
118.67
 20
98.3781
 30
0.0
 11
117.869
 21
98.3781
 31
0.0
  0
LINE
  8
0
 62
     0
 10
117.869
 20
98.3781
 30
0.0
 11
117.869
 21
98.9775
 31
0.0
  0
LINE
  8
0
 62
     0
 10
117.869
 20
98.9775
 30
0.0
 11
103.87
 21
98.9775
 31
0.0
  0
LINE
  8
0
 62
     0
 10
84.8212
 20
98.9775
 30
0.0
 11
84.8212
 21
98.3781
 31
0.0
  0
LINE
  8
0
 62
     0
 10
84.8212
 20
98.3781
 30
0.0
 11
84.0204
 21
98.3781
 31
0.0
  0
LINE
  8
0
 62
     0
 10
84.0204
 20
98.3781
 30
0.0
 11
84.0204
 21
85.5775
 31
0.0
  0
LINE
  8
0
 62
     0
 10
84.0204
 20
85.5775
 30
0.0
 11
84.8212
 21
85.5775
 31
0.0
  0
LINE
  8
0
 62
     0
 10
84.8212
 20
85.5775
 30
0.0
 11
84.8212
 21
84.9768
 31
0.0
  0
LINE
  8
0
 62
     0
 10
84.8212
 20
84.9768
 30
0.0
 11
98.8205
 21
84.9768
 31
0.0
  0
LINE
  8
0
 62
     0
 10
98.8205
 20
84.9768
 30
0.0
 11
98.8205
 21
85.5775
 31
0.0
  0
LINE
  8
0
 62
     0
 10
98.8205
 20
85.5775
 30
0.0
 11
99.6199
 21
85.5775
 31
0.0
  0
LINE
  8
0
 62
     0
 10
99.6199
 20
85.5775
 30
0.0
 11
99.6199
 21
98.3781
 31
0.0
  0
LINE
  8
0
 62
     0
 10
99.6199
 20
98.3781
 30
0.0
 11
98.8205
 21
98.3781
 31
0.0
  0
LINE
  8
0
 62
     0
 10
98.8205
 20
98.3781
 30
0.0
 11
98.8205
 21
98.9775
 31
0.0
  0
LINE
  8
0
 62
     0
 10
98.8205
 20
98.9775
 30
0.0
 11
84.8212
 21
98.9775
 31
0.0
  0
LINE
  8
0
 62
     0
 10
65.7712
 20
98.9775
 30
0.0
 11
65.7712
 21
98.3781
 31
0.0
  0
LINE
  8
0
 62
     0
 10
65.7712
 20
98.3781
 30
0.0
 11
64.9704
 21
98.3781
 31
0.0
  0
LINE
  8
0
 62
     0
 10
64.9704
 20
98.3781
 30
0.0
 11
64.9704
 21
85.5775
 31
0.0
  0
LINE
  8
0
 62
     0
 10
64.9704
 20
85.5775
 30
0.0
 11
65.7712
 21
85.5775
 31
0.0
  0
LINE
  8
0
 62
     0
 10
65.7712
 20
85.5775
 30
0.0
 11
65.7712
 21
84.9768
 31
0.0
  0
LINE
  8
0
 62
     0
 10
65.7712
 20
84.9768
 30
0.0
 11
79.7705
 21
84.9768
 31
0.0
  0
LINE
  8
0
 62
     0
 10
79.7705
 20
84.9768
 30
0.0
 11
79.7705
 21
85.5775
 31
0.0
  0
LINE
  8
0
 62
     0
 10
79.7705
 20
85.5775
 30
0.0
 11
80.5713
 21
85.5775
 31
0.0
  0
LINE
  8
0
 62
     0
 10
80.5713
 20
85.5775
 30
0.0
 11
80.5713
 21
98.3781
 31
0.0
  0
LINE
  8
0
 62
     0
 10
80.5713
 20
98.3781
 30
0.0
 11
79.7705
 21
98.3781
 31
0.0
  0
LINE
  8
0
 62
     0
 10
79.7705
 20
98.3781
 30
0.0
 11
79.7705
 21
98.9775
 31
0.0
  0
LINE
  8
0
 62
     0
 10
79.7705
 20
98.9775
 30
0.0
 11
65.7712
 21
98.9775
 31
0.0
  0
LINE
  8
0
 62
     0
 10
46.7212
 20
98.9775
 30
0.0
 11
46.7212
 21
98.3781
 31
0.0
  0
LINE
  8
0
 62
     0
 10
46.7212
 20
98.3781
 30
0.0
 11
45.9204
 21
98.3781
 31
0.0
  0
LINE
  8
0
 62
     0
 10
45.9204
 20
98.3781
 30
0.0
 11
45.9204
 21
85.5775
 31
0.0
  0
LINE
  8
0
 62
     0
 10
45.9204
 20
85.5775
 30
0.0
 11
46.7212
 21
85.5775
 31
0.0
  0
LINE
  8
0
 62
     0
 10
46.7212
 20
85.5775
 30
0.0
 11
46.7212
 21
84.9768
 31
0.0
  0
LINE
  8
0
 62
     0
 10
46.7212
 20
84.9768
 30
0.0
 11
60.7205
 21
84.9768
 31
0.0
  0
LINE
  8
0
 62
     0
 10
60.7205
 20
84.9768
 30
0.0
 11
60.7205
 21
85.5775
 31
0.0
  0
LINE
  8
0
 62
     0
 10
60.7205
 20
85.5775
 30
0.0
 11
61.5213
 21
85.5775
 31
0.0
  0
LINE
  8
0
 62
     0
 10
61.5213
 20
85.5775
 30
0.0
 11
61.5213
 21
98.3781
 31
0.0
  0
LINE
  8
0
 62
     0
 10
61.5213
 20
98.3781
 30
0.0
 11
60.7205
 21
98.3781
 31
0.0
  0
LINE
  8
0
 62
     0
 10
60.7205
 20
98.3781
 30
0.0
 11
60.7205
 21
98.9775
 31
0.0
  0
LINE
  8
0
 62
     0
 10
60.7205
 20
98.9775
 30
0.0
 11
46.7212
 21
98.9775
 31
0.0
  0
LINE
  8
0
 62
     0
 10
27.671
 20
98.9775
 30
0.0
 11
27.671
 21
98.3781
 31
0.0
  0
LINE
  8
0
 62
     0
 10
27.671
 20
98.3781
 30
0.0
 11
26.8704
 21
98.3781
 31
0.0
  0
LINE
  8
0
 62
     0
 10
26.8704
 20
98.3781
 30
0.0
 11
26.8704
 21
85.5775
 31
0.0
  0
LINE
  8
0
 62
     0
 10
26.8704
 20
85.5775
 30
0.0
 11
27.671
 21
85.5775
 31
0.0
  0
LINE
  8
0
 62
     0
 10
27.671
 20
85.5775
 30
0.0
 11
27.671
 21
84.9768
 31
0.0
  0
LINE
  8
0
 62
     0
 10
27.671
 20
84.9768
 30
0.0
 11
41.6705
 21
84.9768
 31
0.0
  0
LINE
  8
0
 62
     0
 10
41.6705
 20
84.9768
 30
0.0
 11
41.6705
 21
85.5775
 31
0.0
  0
LINE
  8
0
 62
     0
 10
41.6705
 20
85.5775
 30
0.0
 11
42.4713
 21
85.5775
 31
0.0
  0
LINE
  8
0
 62
     0
 10
42.4713
 20
85.5775
 30
0.0
 11
42.4713
 21
98.3781
 31
0.0
  0
LINE
  8
0
 62
     0
 10
42.4713
 20
98.3781
 30
0.0
 11
41.6705
 21
98.3781
 31
0.0
  0
LINE
  8
0
 62
     0
 10
41.6705
 20
98.3781
 30
0.0
 11
41.6705
 21
98.9775
 31
0.0
  0
LINE
  8
0
 62
     0
 10
41.6705
 20
98.9775
 30
0.0
 11
27.671
 21
98.9775
 31
0.0
  0
LINE
  8
0
 62
     0
 10
8.61963
 20
98.9775
 30
0.0
 11
8.61963
 21
98.3781
 31
0.0
  0
LINE
  8
0
 62
     0
 10
8.61963
 20
98.3781
 30
0.0
 11
7.819
 21
98.3781
 31
0.0
  0
LINE
  8
0
 62
     0
 10
7.819
 20
98.3781
 30
0.0
 11
7.819
 21
85.5775
 31
0.0
  0
LINE
  8
0
 62
     0
 10
7.819
 20
85.5775
 30
0.0
 11
8.61963
 21
85.5775
 31
0.0
  0
LINE
  8
0
 62
     0
 10
8.61963
 20
85.5775
 30
0.0
 11
8.61963
 21
84.9768
 31
0.0
  0
LINE
  8
0
 62
     0
 10
8.61963
 20
84.9768
 30
0.0
 11
22.6205
 21
84.9768
 31
0.0
  0
LINE
  8
0
 62
     0
 10
22.6205
 20
84.9768
 30
0.0
 11
22.6205
 21
85.5775
 31
0.0
  0
LINE
  8
0
 62
     0
 10
22.6205
 20
85.5775
 30
0.0
 11
23.4211
 21
85.5775
 31
0.0
  0
LINE
  8
0
 62
     0
 10
23.4211
 20
85.5775
 30
0.0
 11
23.4211
 21
98.3781
 31
0.0
  0
LINE
  8
0
 62
     0
 10
23.4211
 20
98.3781
 30
0.0
 11
22.6205
 21
98.3781
 31
0.0
  0
LINE
  8
0
 62
     0
 10
22.6205
 20
98.3781
 30
0.0
 11
22.6205
 21
98.9775
 31
0.0
  0
LINE
  8
0
 62
     0
 10
22.6205
 20
98.9775
 30
0.0
 11
8.61963
 21
98.9775
 31
0.0
  0
LINE
  8
0
 62
     0
 10
2.76986
 20
105.501
 30
0.0
 11
2.47771
 21
105.352
 31
0.0
  0
LINE
  8
0
 62
     0
 10
2.47771
 20
105.352
 30
0.0
 11
2.24482
 21
105.12
 31
0.0
  0
LINE
  8
0
 62
     0
 10
2.24482
 20
105.12
 30
0.0
 11
2.096
 21
104.827
 31
0.0
  0
LINE
  8
0
 62
     0
 10
2.096
 20
104.827
 30
0.0
 11
2.04501
 21
104.502
 31
0.0
  0
LINE
  8
0
 62
     0
 10
2.04501
 20
104.502
 30
0.0
 11
2.096
 21
104.178
 31
0.0
  0
LINE
  8
0
 62
     0
 10
2.096
 20
104.178
 30
0.0
 11
2.24482
 21
103.885
 31
0.0
  0
LINE
  8
0
 62
     0
 10
2.24482
 20
103.885
 30
0.0
 11
2.47771
 21
103.653
 31
0.0
  0
LINE
  8
0
 62
     0
 10
2.47771
 20
103.653
 30
0.0
 11
2.76986
 21
103.503
 31
0.0
  0
LINE
  8
0
 62
     0
 10
2.76986
 20
103.503
 30
0.0
 11
3.09507
 21
103.452
 31
0.0
  0
LINE
  8
0
 62
     0
 10
3.09507
 20
103.452
 30
0.0
 11
3.41891
 21
103.503
 31
0.0
  0
LINE
  8
0
 62
     0
 10
3.41891
 20
103.503
 30
0.0
 11
3.71242
 21
103.653
 31
0.0
  0
LINE
  8
0
 62
     0
 10
3.71242
 20
103.653
 30
0.0
 11
3.94395
 21
103.885
 31
0.0
  0
LINE
  8
0
 62
     0
 10
3.94395
 20
103.885
 30
0.0
 11
4.09416
 21
104.178
 31
0.0
  0
LINE
  8
0
 62
     0
 10
4.09416
 20
104.178
 30
0.0
 11
4.14514
 21
104.502
 31
0.0
  0
LINE
  8
0
 62
     0
 10
4.14514
 20
104.502
 30
0.0
 11
4.09416
 21
104.827
 31
0.0
  0
LINE
  8
0
 62
     0
 10
4.09416
 20
104.827
 30
0.0
 11
3.94395
 21
105.12
 31
0.0
  0
LINE
  8
0
 62
     0
 10
3.94395
 20
105.12
 30
0.0
 11
3.71242
 21
105.352
 31
0.0
  0
LINE
  8
0
 62
     0
 10
3.71242
 20
105.352
 30
0.0
 11
3.41891
 21
105.501
 31
0.0
  0
LINE
  8
0
 62
     0
 10
3.41891
 20
105.501
 30
0.0
 11
3.09507
 21
105.552
 31
0.0
  0
LINE
  8
0
 62
     0
 10
3.09507
 20
105.552
 30
0.0
 11
2.76986
 21
105.501
 31
0.0
  0
LINE
  8
0
 62
     0
 10
313.571
 20
105.501
 30
0.0
 11
313.279
 21
105.352
 31
0.0
  0
LINE
  8
0
 62
     0
 10
313.279
 20
105.352
 30
0.0
 11
313.046
 21
105.12
 31
0.0
  0
LINE
  8
0
 62
     0
 10
313.046
 20
105.12
 30
0.0
 11
312.897
 21
104.827
 31
0.0
  0
LINE
  8
0
 62
     0
 10
312.897
 20
104.827
 30
0.0
 11
312.847
 21
104.502
 31
0.0
  0
LINE
  8
0
 62
     0
 10
312.847
 20
104.502
 30
0.0
 11
312.897
 21
104.178
 31
0.0
  0
LINE
  8
0
 62
     0
 10
312.897
 20
104.178
 30
0.0
 11
313.046
 21
103.885
 31
0.0
  0
LINE
  8
0
 62
     0
 10
313.046
 20
103.885
 30
0.0
 11
313.279
 21
103.653
 31
0.0
  0
LINE
  8
0
 62
     0
 10
313.279
 20
103.653
 30
0.0
 11
313.571
 21
103.503
 31
0.0
  0
LINE
  8
0
 62
     0
 10
313.571
 20
103.503
 30
0.0
 11
313.896
 21
103.452
 31
0.0
  0
LINE
  8
0
 62
     0
 10
313.896
 20
103.452
 30
0.0
 11
314.22
 21
103.503
 31
0.0
  0
LINE
  8
0
 62
     0
 10
314.22
 20
103.503
 30
0.0
 11
314.514
 21
103.653
 31
0.0
  0
LINE
  8
0
 62
     0
 10
314.514
 20
103.653
 30
0.0
 11
314.745
 21
103.885
 31
0.0
  0
LINE
  8
0
 62
     0
 10
314.745
 20
103.885
 30
0.0
 11
314.894
 21
104.178
 31
0.0
  0
LINE
  8
0
 62
     0
 10
314.894
 20
104.178
 30
0.0
 11
314.947
 21
104.502
 31
0.0
  0
LINE
  8
0
 62
     0
 10
314.947
 20
104.502
 30
0.0
 11
314.894
 21
104.827
 31
0.0
  0
LINE
  8
0
 62
     0
 10
314.894
 20
104.827
 30
0.0
 11
314.745
 21
105.12
 31
0.0
  0
LINE
  8
0
 62
     0
 10
314.745
 20
105.12
 30
0.0
 11
314.514
 21
105.352
 31
0.0
  0
LINE
  8
0
 62
     0
 10
314.514
 20
105.352
 30
0.0
 11
314.22
 21
105.501
 31
0.0
  0
LINE
  8
0
 62
     0
 10
314.22
 20
105.501
 30
0.0
 11
313.896
 21
105.552
 31
0.0
  0
LINE
  8
0
 62
     0
 10
313.896
 20
105.552
 30
0.0
 11
313.571
 21
105.501
 31
0.0
  0
LINE
  8
0
 62
     0
 10
158.171
 20
105.501
 30
0.0
 11
157.879
 21
105.352
 31
0.0
  0
LINE
  8
0
 62
     0
 10
157.879
 20
105.352
 30
0.0
 11
157.646
 21
105.12
 31
0.0
  0
LINE
  8
0
 62
     0
 10
157.646
 20
105.12
 30
0.0
 11
157.496
 21
104.827
 31
0.0
  0
LINE
  8
0
 62
     0
 10
157.496
 20
104.827
 30
0.0
 11
157.445
 21
104.502
 31
0.0
  0
LINE
  8
0
 62
     0
 10
157.445
 20
104.502
 30
0.0
 11
157.496
 21
104.178
 31
0.0
  0
LINE
  8
0
 62
     0
 10
157.496
 20
104.178
 30
0.0
 11
157.646
 21
103.885
 31
0.0
  0
LINE
  8
0
 62
     0
 10
157.646
 20
103.885
 30
0.0
 11
157.879
 21
103.653
 31
0.0
  0
LINE
  8
0
 62
     0
 10
157.879
 20
103.653
 30
0.0
 11
158.171
 21
103.503
 31
0.0
  0
LINE
  8
0
 62
     0
 10
158.171
 20
103.503
 30
0.0
 11
158.495
 21
103.452
 31
0.0
  0
LINE
  8
0
 62
     0
 10
158.495
 20
103.452
 30
0.0
 11
158.819
 21
103.503
 31
0.0
  0
LINE
  8
0
 62
     0
 10
158.819
 20
103.503
 30
0.0
 11
159.112
 21
103.653
 31
0.0
  0
LINE
  8
0
 62
     0
 10
159.112
 20
103.653
 30
0.0
 11
159.344
 21
103.885
 31
0.0
  0
LINE
  8
0
 62
     0
 10
159.344
 20
103.885
 30
0.0
 11
159.494
 21
104.178
 31
0.0
  0
LINE
  8
0
 62
     0
 10
159.494
 20
104.178
 30
0.0
 11
159.545
 21
104.502
 31
0.0
  0
LINE
  8
0
 62
     0
 10
159.545
 20
104.502
 30
0.0
 11
159.494
 21
104.827
 31
0.0
  0
LINE
  8
0
 62
     0
 10
159.494
 20
104.827
 30
0.0
 11
159.344
 21
105.12
 31
0.0
  0
LINE
  8
0
 62
     0
 10
159.344
 20
105.12
 30
0.0
 11
159.112
 21
105.352
 31
0.0
  0
LINE
  8
0
 62
     0
 10
159.112
 20
105.352
 30
0.0
 11
158.819
 21
105.501
 31
0.0
  0
LINE
  8
0
 62
     0
 10
158.819
 20
105.501
 30
0.0
 11
158.495
 21
105.552
 31
0.0
  0
LINE
  8
0
 62
     0
 10
158.495
 20
105.552
 30
0.0
 11
158.171
 21
105.501
 31
0.0
  0
ENDSEC
  0
EOF
