G04 #@! TF.GenerationSoftware,KiCad,Pcbnew,(5.1.5)-3*
G04 #@! TF.CreationDate,2020-03-18T20:23:37-05:00*
G04 #@! TF.ProjectId,Advanced-PCB,41647661-6e63-4656-942d-5043422e6b69,rev?*
G04 #@! TF.SameCoordinates,Original*
G04 #@! TF.FileFunction,Legend,Bot*
G04 #@! TF.FilePolarity,Positive*
%FSLAX46Y46*%
G04 Gerber Fmt 4.6, Leading zero omitted, Abs format (unit mm)*
G04 Created by KiCad (PCBNEW (5.1.5)-3) date 2020-03-18 20:23:37*
%MOMM*%
%LPD*%
G04 APERTURE LIST*
%ADD10C,0.150000*%
%ADD11C,0.120000*%
%ADD12C,0.200000*%
G04 APERTURE END LIST*
D10*
X164508287Y-153056278D02*
X165127335Y-153056515D01*
X164793856Y-153437340D01*
X164936713Y-153437394D01*
X165031933Y-153485050D01*
X165079534Y-153532687D01*
X165127117Y-153627943D01*
X165127026Y-153866039D01*
X165079370Y-153961258D01*
X165031733Y-154008859D01*
X164936477Y-154056442D01*
X164650763Y-154056333D01*
X164555543Y-154008678D01*
X164507942Y-153961040D01*
X166079334Y-154056878D02*
X165507905Y-154056660D01*
X165793620Y-154056769D02*
X165794001Y-153056769D01*
X165698709Y-153199590D01*
X165603434Y-153294792D01*
X165508178Y-153342375D01*
X166555524Y-154057060D02*
X166746000Y-154057133D01*
X166841257Y-154009550D01*
X166888894Y-153961949D01*
X166984187Y-153819129D01*
X167031878Y-153628671D01*
X167032024Y-153247718D01*
X166984441Y-153152462D01*
X166936840Y-153104825D01*
X166841620Y-153057169D01*
X166651144Y-153057097D01*
X166555888Y-153104679D01*
X166508251Y-153152280D01*
X166460595Y-153247500D01*
X166460504Y-153485595D01*
X166508087Y-153580852D01*
X166555688Y-153628489D01*
X166650908Y-153676144D01*
X166841384Y-153676217D01*
X166936640Y-153628634D01*
X166984278Y-153581034D01*
X167031933Y-153485814D01*
X167460323Y-153962168D02*
X167507923Y-154009805D01*
X167460286Y-154057406D01*
X167412685Y-154009769D01*
X167460323Y-153962168D01*
X167460286Y-154057406D01*
X167889203Y-153152808D02*
X167936840Y-153105207D01*
X168032097Y-153057624D01*
X168270192Y-153057715D01*
X168365412Y-153105370D01*
X168413013Y-153153008D01*
X168460595Y-153248264D01*
X168460559Y-153343502D01*
X168412885Y-153486341D01*
X167841239Y-154057551D01*
X168460286Y-154057788D01*
X168794001Y-153057915D02*
X169460668Y-153058170D01*
X169031715Y-154058006D01*
X169746382Y-153058279D02*
X170365430Y-153058515D01*
X170031951Y-153439340D01*
X170174808Y-153439395D01*
X170270028Y-153487050D01*
X170317629Y-153534687D01*
X170365212Y-153629944D01*
X170365121Y-153868039D01*
X170317465Y-153963259D01*
X170269828Y-154010860D01*
X170174572Y-154058442D01*
X169888857Y-154058333D01*
X169793638Y-154010678D01*
X169746037Y-153963041D01*
X171555524Y-154058970D02*
X171555779Y-153392303D01*
X171555742Y-153487541D02*
X171603379Y-153439940D01*
X171698636Y-153392358D01*
X171841493Y-153392412D01*
X171936713Y-153440068D01*
X171984295Y-153535324D01*
X171984095Y-154059133D01*
X171984295Y-153535324D02*
X172031951Y-153440104D01*
X172127207Y-153392521D01*
X172270064Y-153392576D01*
X172365284Y-153440231D01*
X172412867Y-153535487D01*
X172412667Y-154059297D01*
X172888857Y-154059479D02*
X172889112Y-153392812D01*
X172889075Y-153488050D02*
X172936713Y-153440449D01*
X173031969Y-153392867D01*
X173174826Y-153392921D01*
X173270046Y-153440577D01*
X173317629Y-153535833D01*
X173317429Y-154059642D01*
X173317629Y-153535833D02*
X173365284Y-153440613D01*
X173460540Y-153393030D01*
X173603397Y-153393085D01*
X173698617Y-153440740D01*
X173746200Y-153535997D01*
X173746000Y-154059806D01*
D11*
X328810720Y-154936640D02*
X9537800Y-154814720D01*
X328810685Y-155028101D02*
X328810944Y-154350219D01*
X9537765Y-154906181D02*
X9538024Y-154228299D01*
X9537800Y-154814720D02*
X10664528Y-154228729D01*
X9537800Y-154814720D02*
X10664080Y-155401571D01*
X328810720Y-154936640D02*
X327684440Y-154349789D01*
X328810720Y-154936640D02*
X327683992Y-155522631D01*
D10*
X9187540Y-98636399D02*
X9187540Y-99207827D01*
X9187540Y-98922113D02*
X8187540Y-98922113D01*
X8330398Y-99017351D01*
X8425636Y-99112589D01*
X8473255Y-99207827D01*
X8187540Y-98017351D02*
X8187540Y-97922113D01*
X8235160Y-97826875D01*
X8282779Y-97779256D01*
X8378017Y-97731637D01*
X8568493Y-97684018D01*
X8806588Y-97684018D01*
X8997064Y-97731637D01*
X9092302Y-97779256D01*
X9139921Y-97826875D01*
X9187540Y-97922113D01*
X9187540Y-98017351D01*
X9139921Y-98112589D01*
X9092302Y-98160208D01*
X8997064Y-98207827D01*
X8806588Y-98255446D01*
X8568493Y-98255446D01*
X8378017Y-98207827D01*
X8282779Y-98160208D01*
X8235160Y-98112589D01*
X8187540Y-98017351D01*
X9187540Y-97207827D02*
X9187540Y-97017351D01*
X9139921Y-96922113D01*
X9092302Y-96874494D01*
X8949445Y-96779256D01*
X8758969Y-96731637D01*
X8378017Y-96731637D01*
X8282779Y-96779256D01*
X8235160Y-96826875D01*
X8187540Y-96922113D01*
X8187540Y-97112589D01*
X8235160Y-97207827D01*
X8282779Y-97255446D01*
X8378017Y-97303065D01*
X8616112Y-97303065D01*
X8711350Y-97255446D01*
X8758969Y-97207827D01*
X8806588Y-97112589D01*
X8806588Y-96922113D01*
X8758969Y-96826875D01*
X8711350Y-96779256D01*
X8616112Y-96731637D01*
X9092302Y-96303065D02*
X9139921Y-96255446D01*
X9187540Y-96303065D01*
X9139921Y-96350684D01*
X9092302Y-96303065D01*
X9187540Y-96303065D01*
X8187540Y-95350684D02*
X8187540Y-95826875D01*
X8663731Y-95874494D01*
X8616112Y-95826875D01*
X8568493Y-95731637D01*
X8568493Y-95493541D01*
X8616112Y-95398303D01*
X8663731Y-95350684D01*
X8758969Y-95303065D01*
X8997064Y-95303065D01*
X9092302Y-95350684D01*
X9139921Y-95398303D01*
X9187540Y-95493541D01*
X9187540Y-95731637D01*
X9139921Y-95826875D01*
X9092302Y-95874494D01*
X8187540Y-94398303D02*
X8187540Y-94874494D01*
X8663731Y-94922113D01*
X8616112Y-94874494D01*
X8568493Y-94779256D01*
X8568493Y-94541160D01*
X8616112Y-94445922D01*
X8663731Y-94398303D01*
X8758969Y-94350684D01*
X8997064Y-94350684D01*
X9092302Y-94398303D01*
X9139921Y-94445922D01*
X9187540Y-94541160D01*
X9187540Y-94779256D01*
X9139921Y-94874494D01*
X9092302Y-94922113D01*
X8187540Y-93731637D02*
X8187540Y-93636399D01*
X8235160Y-93541160D01*
X8282779Y-93493541D01*
X8378017Y-93445922D01*
X8568493Y-93398303D01*
X8806588Y-93398303D01*
X8997064Y-93445922D01*
X9092302Y-93493541D01*
X9139921Y-93541160D01*
X9187540Y-93636399D01*
X9187540Y-93731637D01*
X9139921Y-93826875D01*
X9092302Y-93874494D01*
X8997064Y-93922113D01*
X8806588Y-93969732D01*
X8568493Y-93969732D01*
X8378017Y-93922113D01*
X8282779Y-93874494D01*
X8235160Y-93826875D01*
X8187540Y-93731637D01*
X9187540Y-92207827D02*
X8520874Y-92207827D01*
X8616112Y-92207827D02*
X8568493Y-92160208D01*
X8520874Y-92064970D01*
X8520874Y-91922113D01*
X8568493Y-91826875D01*
X8663731Y-91779256D01*
X9187540Y-91779256D01*
X8663731Y-91779256D02*
X8568493Y-91731637D01*
X8520874Y-91636399D01*
X8520874Y-91493541D01*
X8568493Y-91398303D01*
X8663731Y-91350684D01*
X9187540Y-91350684D01*
X9187540Y-90874494D02*
X8520874Y-90874494D01*
X8616112Y-90874494D02*
X8568493Y-90826875D01*
X8520874Y-90731637D01*
X8520874Y-90588780D01*
X8568493Y-90493541D01*
X8663731Y-90445922D01*
X9187540Y-90445922D01*
X8663731Y-90445922D02*
X8568493Y-90398303D01*
X8520874Y-90303065D01*
X8520874Y-90160208D01*
X8568493Y-90064970D01*
X8663731Y-90017351D01*
X9187540Y-90017351D01*
D11*
X7465160Y-149363880D02*
X7465160Y-39813680D01*
X7455000Y-149363880D02*
X8051581Y-149363880D01*
X7455000Y-39813680D02*
X8051581Y-39813680D01*
X7465160Y-39813680D02*
X8051581Y-40940184D01*
X7465160Y-39813680D02*
X6878739Y-40940184D01*
X7465160Y-149363880D02*
X8051581Y-148237376D01*
X7465160Y-149363880D02*
X6878739Y-148237376D01*
D12*
X22835389Y-129132753D02*
G75*
G03X25281250Y-131075000I1245861J-942247D01*
G01*
X25281250Y-131075000D02*
X26527111Y-129617247D01*
X22835389Y-129132753D02*
X24081250Y-127675000D01*
X28781250Y-128175000D02*
X28781250Y-127575000D01*
X31781250Y-128175000D02*
X31781250Y-127575000D01*
X28781250Y-128175000D02*
G75*
G03X31781250Y-128175000I1500000J0D01*
G01*
X26527111Y-129617247D02*
G75*
G03X24081250Y-127675000I-1245861J942247D01*
G01*
X31781250Y-127575000D02*
G75*
G03X28781250Y-127575000I-1500000J0D01*
G01*
X306250000Y-52875000D02*
G75*
G03X308650000Y-54875000I1200000J-1000000D01*
G01*
X308650000Y-54875000D02*
X309895861Y-53417247D01*
X306204139Y-52932753D02*
X307450000Y-51475000D01*
X312150000Y-51975000D02*
X312150000Y-51375000D01*
X315150000Y-51975000D02*
X315150000Y-51375000D01*
X312150000Y-51975000D02*
G75*
G03X315150000Y-51975000I1500000J0D01*
G01*
X309850000Y-53475000D02*
G75*
G03X307450000Y-51475000I-1200000J1000000D01*
G01*
X315150000Y-51375000D02*
G75*
G03X312150000Y-51375000I-1500000J0D01*
G01*
X42550000Y-131950000D02*
X42550000Y-137750000D01*
X44950000Y-131950000D02*
X42550000Y-131950000D01*
X44950000Y-137750000D02*
X44950000Y-131950000D01*
X44950000Y-137675000D02*
X42550000Y-137675000D01*
X44950000Y-137550000D02*
X42550000Y-137550000D01*
X42550000Y-137775000D02*
X44950000Y-137775000D01*
X44950000Y-137375000D02*
X42550000Y-137375000D01*
X44950000Y-137200000D02*
X42550000Y-137200000D01*
X44950000Y-137025000D02*
X42550000Y-137025000D01*
X46647889Y-129132753D02*
G75*
G03X49093750Y-131075000I1245861J-942247D01*
G01*
X49093750Y-131075000D02*
X50339611Y-129617247D01*
X46647889Y-129132753D02*
X47893750Y-127675000D01*
X52593750Y-128175000D02*
X52593750Y-127575000D01*
X55593750Y-128175000D02*
X55593750Y-127575000D01*
X52593750Y-128175000D02*
G75*
G03X55593750Y-128175000I1500000J0D01*
G01*
X50339611Y-129617247D02*
G75*
G03X47893750Y-127675000I-1245861J942247D01*
G01*
X55593750Y-127575000D02*
G75*
G03X52593750Y-127575000I-1500000J0D01*
G01*
X249100000Y-129075000D02*
G75*
G03X251500000Y-131075000I1200000J-1000000D01*
G01*
X251500000Y-131075000D02*
X252745861Y-129617247D01*
X249054139Y-129132753D02*
X250300000Y-127675000D01*
X255000000Y-128175000D02*
X255000000Y-127575000D01*
X258000000Y-128175000D02*
X258000000Y-127575000D01*
X255000000Y-128175000D02*
G75*
G03X258000000Y-128175000I1500000J0D01*
G01*
X252700000Y-129675000D02*
G75*
G03X250300000Y-127675000I-1200000J1000000D01*
G01*
X258000000Y-127575000D02*
G75*
G03X255000000Y-127575000I-1500000J0D01*
G01*
X82412500Y-110025000D02*
G75*
G03X84812500Y-112025000I1200000J-1000000D01*
G01*
X84812500Y-112025000D02*
X86058361Y-110567247D01*
X82366639Y-110082753D02*
X83612500Y-108625000D01*
X88312500Y-109125000D02*
X88312500Y-108525000D01*
X91312500Y-109125000D02*
X91312500Y-108525000D01*
X88312500Y-109125000D02*
G75*
G03X91312500Y-109125000I1500000J0D01*
G01*
X86012500Y-110625000D02*
G75*
G03X83612500Y-108625000I-1200000J1000000D01*
G01*
X91312500Y-108525000D02*
G75*
G03X88312500Y-108525000I-1500000J0D01*
G01*
X68125000Y-71925000D02*
G75*
G03X70525000Y-73925000I1200000J-1000000D01*
G01*
X70525000Y-73925000D02*
X71770861Y-72467247D01*
X68079139Y-71982753D02*
X69325000Y-70525000D01*
X74025000Y-71025000D02*
X74025000Y-70425000D01*
X77025000Y-71025000D02*
X77025000Y-70425000D01*
X74025000Y-71025000D02*
G75*
G03X77025000Y-71025000I1500000J0D01*
G01*
X71725000Y-72525000D02*
G75*
G03X69325000Y-70525000I-1200000J1000000D01*
G01*
X77025000Y-70425000D02*
G75*
G03X74025000Y-70425000I-1500000J0D01*
G01*
X260550000Y-131950000D02*
X260550000Y-137750000D01*
X262950000Y-131950000D02*
X260550000Y-131950000D01*
X262950000Y-137750000D02*
X262950000Y-131950000D01*
X262950000Y-137675000D02*
X260550000Y-137675000D01*
X262950000Y-137550000D02*
X260550000Y-137550000D01*
X260550000Y-137775000D02*
X262950000Y-137775000D01*
X262950000Y-137375000D02*
X260550000Y-137375000D01*
X262950000Y-137200000D02*
X260550000Y-137200000D01*
X262950000Y-137025000D02*
X260550000Y-137025000D01*
X302050000Y-74950000D02*
X302050000Y-80750000D01*
X304450000Y-74950000D02*
X302050000Y-74950000D01*
X304450000Y-80750000D02*
X304450000Y-74950000D01*
X304450000Y-80675000D02*
X302050000Y-80675000D01*
X304450000Y-80550000D02*
X302050000Y-80550000D01*
X302050000Y-80775000D02*
X304450000Y-80775000D01*
X304450000Y-80375000D02*
X302050000Y-80375000D01*
X304450000Y-80200000D02*
X302050000Y-80200000D01*
X304450000Y-80025000D02*
X302050000Y-80025000D01*
X302050000Y-55700000D02*
X302050000Y-61500000D01*
X304450000Y-55700000D02*
X302050000Y-55700000D01*
X304450000Y-61500000D02*
X304450000Y-55700000D01*
X304450000Y-61425000D02*
X302050000Y-61425000D01*
X304450000Y-61300000D02*
X302050000Y-61300000D01*
X302050000Y-61525000D02*
X304450000Y-61525000D01*
X304450000Y-61125000D02*
X302050000Y-61125000D01*
X304450000Y-60950000D02*
X302050000Y-60950000D01*
X304450000Y-60775000D02*
X302050000Y-60775000D01*
X302050000Y-131950000D02*
X302050000Y-137750000D01*
X304450000Y-131950000D02*
X302050000Y-131950000D01*
X304450000Y-137750000D02*
X304450000Y-131950000D01*
X304450000Y-137675000D02*
X302050000Y-137675000D01*
X304450000Y-137550000D02*
X302050000Y-137550000D01*
X302050000Y-137775000D02*
X304450000Y-137775000D01*
X304450000Y-137375000D02*
X302050000Y-137375000D01*
X304450000Y-137200000D02*
X302050000Y-137200000D01*
X304450000Y-137025000D02*
X302050000Y-137025000D01*
X302050000Y-112450000D02*
X302050000Y-118250000D01*
X304450000Y-112450000D02*
X302050000Y-112450000D01*
X304450000Y-118250000D02*
X304450000Y-112450000D01*
X304450000Y-118175000D02*
X302050000Y-118175000D01*
X304450000Y-118050000D02*
X302050000Y-118050000D01*
X302050000Y-118275000D02*
X304450000Y-118275000D01*
X304450000Y-117875000D02*
X302050000Y-117875000D01*
X304450000Y-117700000D02*
X302050000Y-117700000D01*
X304450000Y-117525000D02*
X302050000Y-117525000D01*
X302050000Y-93950000D02*
X302050000Y-99750000D01*
X304450000Y-93950000D02*
X302050000Y-93950000D01*
X304450000Y-99750000D02*
X304450000Y-93950000D01*
X304450000Y-99675000D02*
X302050000Y-99675000D01*
X304450000Y-99550000D02*
X302050000Y-99550000D01*
X302050000Y-99775000D02*
X304450000Y-99775000D01*
X304450000Y-99375000D02*
X302050000Y-99375000D01*
X304450000Y-99200000D02*
X302050000Y-99200000D01*
X304450000Y-99025000D02*
X302050000Y-99025000D01*
X278300000Y-74700000D02*
X278300000Y-80500000D01*
X280700000Y-74700000D02*
X278300000Y-74700000D01*
X280700000Y-80500000D02*
X280700000Y-74700000D01*
X280700000Y-80425000D02*
X278300000Y-80425000D01*
X280700000Y-80300000D02*
X278300000Y-80300000D01*
X278300000Y-80525000D02*
X280700000Y-80525000D01*
X280700000Y-80125000D02*
X278300000Y-80125000D01*
X280700000Y-79950000D02*
X278300000Y-79950000D01*
X280700000Y-79775000D02*
X278300000Y-79775000D01*
X273300000Y-55700000D02*
X273300000Y-61500000D01*
X275700000Y-55700000D02*
X273300000Y-55700000D01*
X275700000Y-61500000D02*
X275700000Y-55700000D01*
X275700000Y-61425000D02*
X273300000Y-61425000D01*
X275700000Y-61300000D02*
X273300000Y-61300000D01*
X273300000Y-61525000D02*
X275700000Y-61525000D01*
X275700000Y-61125000D02*
X273300000Y-61125000D01*
X275700000Y-60950000D02*
X273300000Y-60950000D01*
X275700000Y-60775000D02*
X273300000Y-60775000D01*
X283050000Y-131950000D02*
X283050000Y-137750000D01*
X285450000Y-131950000D02*
X283050000Y-131950000D01*
X285450000Y-137750000D02*
X285450000Y-131950000D01*
X285450000Y-137675000D02*
X283050000Y-137675000D01*
X285450000Y-137550000D02*
X283050000Y-137550000D01*
X283050000Y-137775000D02*
X285450000Y-137775000D01*
X285450000Y-137375000D02*
X283050000Y-137375000D01*
X285450000Y-137200000D02*
X283050000Y-137200000D01*
X285450000Y-137025000D02*
X283050000Y-137025000D01*
X283050000Y-112450000D02*
X283050000Y-118250000D01*
X285450000Y-112450000D02*
X283050000Y-112450000D01*
X285450000Y-118250000D02*
X285450000Y-112450000D01*
X285450000Y-118175000D02*
X283050000Y-118175000D01*
X285450000Y-118050000D02*
X283050000Y-118050000D01*
X283050000Y-118275000D02*
X285450000Y-118275000D01*
X285450000Y-117875000D02*
X283050000Y-117875000D01*
X285450000Y-117700000D02*
X283050000Y-117700000D01*
X285450000Y-117525000D02*
X283050000Y-117525000D01*
X270800000Y-93700000D02*
X270800000Y-99500000D01*
X273200000Y-93700000D02*
X270800000Y-93700000D01*
X273200000Y-99500000D02*
X273200000Y-93700000D01*
X273200000Y-99425000D02*
X270800000Y-99425000D01*
X273200000Y-99300000D02*
X270800000Y-99300000D01*
X270800000Y-99525000D02*
X273200000Y-99525000D01*
X273200000Y-99125000D02*
X270800000Y-99125000D01*
X273200000Y-98950000D02*
X270800000Y-98950000D01*
X273200000Y-98775000D02*
X270800000Y-98775000D01*
X254550000Y-74950000D02*
X254550000Y-80750000D01*
X256950000Y-74950000D02*
X254550000Y-74950000D01*
X256950000Y-80750000D02*
X256950000Y-74950000D01*
X256950000Y-80675000D02*
X254550000Y-80675000D01*
X256950000Y-80550000D02*
X254550000Y-80550000D01*
X254550000Y-80775000D02*
X256950000Y-80775000D01*
X256950000Y-80375000D02*
X254550000Y-80375000D01*
X256950000Y-80200000D02*
X254550000Y-80200000D01*
X256950000Y-80025000D02*
X254550000Y-80025000D01*
X245050000Y-55700000D02*
X245050000Y-61500000D01*
X247450000Y-55700000D02*
X245050000Y-55700000D01*
X247450000Y-61500000D02*
X247450000Y-55700000D01*
X247450000Y-61425000D02*
X245050000Y-61425000D01*
X247450000Y-61300000D02*
X245050000Y-61300000D01*
X245050000Y-61525000D02*
X247450000Y-61525000D01*
X247450000Y-61125000D02*
X245050000Y-61125000D01*
X247450000Y-60950000D02*
X245050000Y-60950000D01*
X247450000Y-60775000D02*
X245050000Y-60775000D01*
X264050000Y-131950000D02*
X264050000Y-137750000D01*
X266450000Y-131950000D02*
X264050000Y-131950000D01*
X266450000Y-137750000D02*
X266450000Y-131950000D01*
X266450000Y-137675000D02*
X264050000Y-137675000D01*
X266450000Y-137550000D02*
X264050000Y-137550000D01*
X264050000Y-137775000D02*
X266450000Y-137775000D01*
X266450000Y-137375000D02*
X264050000Y-137375000D01*
X266450000Y-137200000D02*
X264050000Y-137200000D01*
X266450000Y-137025000D02*
X264050000Y-137025000D01*
X256800000Y-112450000D02*
X256800000Y-118250000D01*
X259200000Y-112450000D02*
X256800000Y-112450000D01*
X259200000Y-118250000D02*
X259200000Y-112450000D01*
X259200000Y-118175000D02*
X256800000Y-118175000D01*
X259200000Y-118050000D02*
X256800000Y-118050000D01*
X256800000Y-118275000D02*
X259200000Y-118275000D01*
X259200000Y-117875000D02*
X256800000Y-117875000D01*
X259200000Y-117700000D02*
X256800000Y-117700000D01*
X259200000Y-117525000D02*
X256800000Y-117525000D01*
X240050000Y-93950000D02*
X240050000Y-99750000D01*
X242450000Y-93950000D02*
X240050000Y-93950000D01*
X242450000Y-99750000D02*
X242450000Y-93950000D01*
X242450000Y-99675000D02*
X240050000Y-99675000D01*
X242450000Y-99550000D02*
X240050000Y-99550000D01*
X240050000Y-99775000D02*
X242450000Y-99775000D01*
X242450000Y-99375000D02*
X240050000Y-99375000D01*
X242450000Y-99200000D02*
X240050000Y-99200000D01*
X242450000Y-99025000D02*
X240050000Y-99025000D01*
X235300000Y-74950000D02*
X235300000Y-80750000D01*
X237700000Y-74950000D02*
X235300000Y-74950000D01*
X237700000Y-80750000D02*
X237700000Y-74950000D01*
X237700000Y-80675000D02*
X235300000Y-80675000D01*
X237700000Y-80550000D02*
X235300000Y-80550000D01*
X235300000Y-80775000D02*
X237700000Y-80775000D01*
X237700000Y-80375000D02*
X235300000Y-80375000D01*
X237700000Y-80200000D02*
X235300000Y-80200000D01*
X237700000Y-80025000D02*
X235300000Y-80025000D01*
X225800000Y-55700000D02*
X225800000Y-61500000D01*
X228200000Y-55700000D02*
X225800000Y-55700000D01*
X228200000Y-61500000D02*
X228200000Y-55700000D01*
X228200000Y-61425000D02*
X225800000Y-61425000D01*
X228200000Y-61300000D02*
X225800000Y-61300000D01*
X225800000Y-61525000D02*
X228200000Y-61525000D01*
X228200000Y-61125000D02*
X225800000Y-61125000D01*
X228200000Y-60950000D02*
X225800000Y-60950000D01*
X228200000Y-60775000D02*
X225800000Y-60775000D01*
X226050000Y-131950000D02*
X226050000Y-137750000D01*
X228450000Y-131950000D02*
X226050000Y-131950000D01*
X228450000Y-137750000D02*
X228450000Y-131950000D01*
X228450000Y-137675000D02*
X226050000Y-137675000D01*
X228450000Y-137550000D02*
X226050000Y-137550000D01*
X226050000Y-137775000D02*
X228450000Y-137775000D01*
X228450000Y-137375000D02*
X226050000Y-137375000D01*
X228450000Y-137200000D02*
X226050000Y-137200000D01*
X228450000Y-137025000D02*
X226050000Y-137025000D01*
X230800000Y-112700000D02*
X230800000Y-118500000D01*
X233200000Y-112700000D02*
X230800000Y-112700000D01*
X233200000Y-118500000D02*
X233200000Y-112700000D01*
X233200000Y-118425000D02*
X230800000Y-118425000D01*
X233200000Y-118300000D02*
X230800000Y-118300000D01*
X230800000Y-118525000D02*
X233200000Y-118525000D01*
X233200000Y-118125000D02*
X230800000Y-118125000D01*
X233200000Y-117950000D02*
X230800000Y-117950000D01*
X233200000Y-117775000D02*
X230800000Y-117775000D01*
X221050000Y-93950000D02*
X221050000Y-99750000D01*
X223450000Y-93950000D02*
X221050000Y-93950000D01*
X223450000Y-99750000D02*
X223450000Y-93950000D01*
X223450000Y-99675000D02*
X221050000Y-99675000D01*
X223450000Y-99550000D02*
X221050000Y-99550000D01*
X221050000Y-99775000D02*
X223450000Y-99775000D01*
X223450000Y-99375000D02*
X221050000Y-99375000D01*
X223450000Y-99200000D02*
X221050000Y-99200000D01*
X223450000Y-99025000D02*
X221050000Y-99025000D01*
X216300000Y-74950000D02*
X216300000Y-80750000D01*
X218700000Y-74950000D02*
X216300000Y-74950000D01*
X218700000Y-80750000D02*
X218700000Y-74950000D01*
X218700000Y-80675000D02*
X216300000Y-80675000D01*
X218700000Y-80550000D02*
X216300000Y-80550000D01*
X216300000Y-80775000D02*
X218700000Y-80775000D01*
X218700000Y-80375000D02*
X216300000Y-80375000D01*
X218700000Y-80200000D02*
X216300000Y-80200000D01*
X218700000Y-80025000D02*
X216300000Y-80025000D01*
X206800000Y-55700000D02*
X206800000Y-61500000D01*
X209200000Y-55700000D02*
X206800000Y-55700000D01*
X209200000Y-61500000D02*
X209200000Y-55700000D01*
X209200000Y-61425000D02*
X206800000Y-61425000D01*
X209200000Y-61300000D02*
X206800000Y-61300000D01*
X206800000Y-61525000D02*
X209200000Y-61525000D01*
X209200000Y-61125000D02*
X206800000Y-61125000D01*
X209200000Y-60950000D02*
X206800000Y-60950000D01*
X209200000Y-60775000D02*
X206800000Y-60775000D01*
X207050000Y-131950000D02*
X207050000Y-137750000D01*
X209450000Y-131950000D02*
X207050000Y-131950000D01*
X209450000Y-137750000D02*
X209450000Y-131950000D01*
X209450000Y-137675000D02*
X207050000Y-137675000D01*
X209450000Y-137550000D02*
X207050000Y-137550000D01*
X207050000Y-137775000D02*
X209450000Y-137775000D01*
X209450000Y-137375000D02*
X207050000Y-137375000D01*
X209450000Y-137200000D02*
X207050000Y-137200000D01*
X209450000Y-137025000D02*
X207050000Y-137025000D01*
X211550000Y-112450000D02*
X211550000Y-118250000D01*
X213950000Y-112450000D02*
X211550000Y-112450000D01*
X213950000Y-118250000D02*
X213950000Y-112450000D01*
X213950000Y-118175000D02*
X211550000Y-118175000D01*
X213950000Y-118050000D02*
X211550000Y-118050000D01*
X211550000Y-118275000D02*
X213950000Y-118275000D01*
X213950000Y-117875000D02*
X211550000Y-117875000D01*
X213950000Y-117700000D02*
X211550000Y-117700000D01*
X213950000Y-117525000D02*
X211550000Y-117525000D01*
X202050000Y-93950000D02*
X202050000Y-99750000D01*
X204450000Y-93950000D02*
X202050000Y-93950000D01*
X204450000Y-99750000D02*
X204450000Y-93950000D01*
X204450000Y-99675000D02*
X202050000Y-99675000D01*
X204450000Y-99550000D02*
X202050000Y-99550000D01*
X202050000Y-99775000D02*
X204450000Y-99775000D01*
X204450000Y-99375000D02*
X202050000Y-99375000D01*
X204450000Y-99200000D02*
X202050000Y-99200000D01*
X204450000Y-99025000D02*
X202050000Y-99025000D01*
X197550000Y-74950000D02*
X197550000Y-80750000D01*
X199950000Y-74950000D02*
X197550000Y-74950000D01*
X199950000Y-80750000D02*
X199950000Y-74950000D01*
X199950000Y-80675000D02*
X197550000Y-80675000D01*
X199950000Y-80550000D02*
X197550000Y-80550000D01*
X197550000Y-80775000D02*
X199950000Y-80775000D01*
X199950000Y-80375000D02*
X197550000Y-80375000D01*
X199950000Y-80200000D02*
X197550000Y-80200000D01*
X199950000Y-80025000D02*
X197550000Y-80025000D01*
X187800000Y-55700000D02*
X187800000Y-61500000D01*
X190200000Y-55700000D02*
X187800000Y-55700000D01*
X190200000Y-61500000D02*
X190200000Y-55700000D01*
X190200000Y-61425000D02*
X187800000Y-61425000D01*
X190200000Y-61300000D02*
X187800000Y-61300000D01*
X187800000Y-61525000D02*
X190200000Y-61525000D01*
X190200000Y-61125000D02*
X187800000Y-61125000D01*
X190200000Y-60950000D02*
X187800000Y-60950000D01*
X190200000Y-60775000D02*
X187800000Y-60775000D01*
X207800000Y-112450000D02*
X207800000Y-118250000D01*
X210200000Y-112450000D02*
X207800000Y-112450000D01*
X210200000Y-118250000D02*
X210200000Y-112450000D01*
X210200000Y-118175000D02*
X207800000Y-118175000D01*
X210200000Y-118050000D02*
X207800000Y-118050000D01*
X207800000Y-118275000D02*
X210200000Y-118275000D01*
X210200000Y-117875000D02*
X207800000Y-117875000D01*
X210200000Y-117700000D02*
X207800000Y-117700000D01*
X210200000Y-117525000D02*
X207800000Y-117525000D01*
X183550000Y-93450000D02*
X183550000Y-99250000D01*
X185950000Y-93450000D02*
X183550000Y-93450000D01*
X185950000Y-99250000D02*
X185950000Y-93450000D01*
X185950000Y-99175000D02*
X183550000Y-99175000D01*
X185950000Y-99050000D02*
X183550000Y-99050000D01*
X183550000Y-99275000D02*
X185950000Y-99275000D01*
X185950000Y-98875000D02*
X183550000Y-98875000D01*
X185950000Y-98700000D02*
X183550000Y-98700000D01*
X185950000Y-98525000D02*
X183550000Y-98525000D01*
X178300000Y-74950000D02*
X178300000Y-80750000D01*
X180700000Y-74950000D02*
X178300000Y-74950000D01*
X180700000Y-80750000D02*
X180700000Y-74950000D01*
X180700000Y-80675000D02*
X178300000Y-80675000D01*
X180700000Y-80550000D02*
X178300000Y-80550000D01*
X178300000Y-80775000D02*
X180700000Y-80775000D01*
X180700000Y-80375000D02*
X178300000Y-80375000D01*
X180700000Y-80200000D02*
X178300000Y-80200000D01*
X180700000Y-80025000D02*
X178300000Y-80025000D01*
X168800000Y-55700000D02*
X168800000Y-61500000D01*
X171200000Y-55700000D02*
X168800000Y-55700000D01*
X171200000Y-61500000D02*
X171200000Y-55700000D01*
X171200000Y-61425000D02*
X168800000Y-61425000D01*
X171200000Y-61300000D02*
X168800000Y-61300000D01*
X168800000Y-61525000D02*
X171200000Y-61525000D01*
X171200000Y-61125000D02*
X168800000Y-61125000D01*
X171200000Y-60950000D02*
X168800000Y-60950000D01*
X171200000Y-60775000D02*
X168800000Y-60775000D01*
X173550000Y-110700000D02*
X173550000Y-116500000D01*
X175950000Y-110700000D02*
X173550000Y-110700000D01*
X175950000Y-116500000D02*
X175950000Y-110700000D01*
X175950000Y-116425000D02*
X173550000Y-116425000D01*
X175950000Y-116300000D02*
X173550000Y-116300000D01*
X173550000Y-116525000D02*
X175950000Y-116525000D01*
X175950000Y-116125000D02*
X173550000Y-116125000D01*
X175950000Y-115950000D02*
X173550000Y-115950000D01*
X175950000Y-115775000D02*
X173550000Y-115775000D01*
X163800000Y-93950000D02*
X163800000Y-99750000D01*
X166200000Y-93950000D02*
X163800000Y-93950000D01*
X166200000Y-99750000D02*
X166200000Y-93950000D01*
X166200000Y-99675000D02*
X163800000Y-99675000D01*
X166200000Y-99550000D02*
X163800000Y-99550000D01*
X163800000Y-99775000D02*
X166200000Y-99775000D01*
X166200000Y-99375000D02*
X163800000Y-99375000D01*
X166200000Y-99200000D02*
X163800000Y-99200000D01*
X166200000Y-99025000D02*
X163800000Y-99025000D01*
X159300000Y-74950000D02*
X159300000Y-80750000D01*
X161700000Y-74950000D02*
X159300000Y-74950000D01*
X161700000Y-80750000D02*
X161700000Y-74950000D01*
X161700000Y-80675000D02*
X159300000Y-80675000D01*
X161700000Y-80550000D02*
X159300000Y-80550000D01*
X159300000Y-80775000D02*
X161700000Y-80775000D01*
X161700000Y-80375000D02*
X159300000Y-80375000D01*
X161700000Y-80200000D02*
X159300000Y-80200000D01*
X161700000Y-80025000D02*
X159300000Y-80025000D01*
X149800000Y-55700000D02*
X149800000Y-61500000D01*
X152200000Y-55700000D02*
X149800000Y-55700000D01*
X152200000Y-61500000D02*
X152200000Y-55700000D01*
X152200000Y-61425000D02*
X149800000Y-61425000D01*
X152200000Y-61300000D02*
X149800000Y-61300000D01*
X149800000Y-61525000D02*
X152200000Y-61525000D01*
X152200000Y-61125000D02*
X149800000Y-61125000D01*
X152200000Y-60950000D02*
X149800000Y-60950000D01*
X152200000Y-60775000D02*
X149800000Y-60775000D01*
X154300000Y-112950000D02*
X154300000Y-118750000D01*
X156700000Y-112950000D02*
X154300000Y-112950000D01*
X156700000Y-118750000D02*
X156700000Y-112950000D01*
X156700000Y-118675000D02*
X154300000Y-118675000D01*
X156700000Y-118550000D02*
X154300000Y-118550000D01*
X154300000Y-118775000D02*
X156700000Y-118775000D01*
X156700000Y-118375000D02*
X154300000Y-118375000D01*
X156700000Y-118200000D02*
X154300000Y-118200000D01*
X156700000Y-118025000D02*
X154300000Y-118025000D01*
X144800000Y-93950000D02*
X144800000Y-99750000D01*
X147200000Y-93950000D02*
X144800000Y-93950000D01*
X147200000Y-99750000D02*
X147200000Y-93950000D01*
X147200000Y-99675000D02*
X144800000Y-99675000D01*
X147200000Y-99550000D02*
X144800000Y-99550000D01*
X144800000Y-99775000D02*
X147200000Y-99775000D01*
X147200000Y-99375000D02*
X144800000Y-99375000D01*
X147200000Y-99200000D02*
X144800000Y-99200000D01*
X147200000Y-99025000D02*
X144800000Y-99025000D01*
X140050000Y-74950000D02*
X140050000Y-80750000D01*
X142450000Y-74950000D02*
X140050000Y-74950000D01*
X142450000Y-80750000D02*
X142450000Y-74950000D01*
X142450000Y-80675000D02*
X140050000Y-80675000D01*
X142450000Y-80550000D02*
X140050000Y-80550000D01*
X140050000Y-80775000D02*
X142450000Y-80775000D01*
X142450000Y-80375000D02*
X140050000Y-80375000D01*
X142450000Y-80200000D02*
X140050000Y-80200000D01*
X142450000Y-80025000D02*
X140050000Y-80025000D01*
X130800000Y-55700000D02*
X130800000Y-61500000D01*
X133200000Y-55700000D02*
X130800000Y-55700000D01*
X133200000Y-61500000D02*
X133200000Y-55700000D01*
X133200000Y-61425000D02*
X130800000Y-61425000D01*
X133200000Y-61300000D02*
X130800000Y-61300000D01*
X130800000Y-61525000D02*
X133200000Y-61525000D01*
X133200000Y-61125000D02*
X130800000Y-61125000D01*
X133200000Y-60950000D02*
X130800000Y-60950000D01*
X133200000Y-60775000D02*
X130800000Y-60775000D01*
X137800000Y-131950000D02*
X137800000Y-137750000D01*
X140200000Y-131950000D02*
X137800000Y-131950000D01*
X140200000Y-137750000D02*
X140200000Y-131950000D01*
X140200000Y-137675000D02*
X137800000Y-137675000D01*
X140200000Y-137550000D02*
X137800000Y-137550000D01*
X137800000Y-137775000D02*
X140200000Y-137775000D01*
X140200000Y-137375000D02*
X137800000Y-137375000D01*
X140200000Y-137200000D02*
X137800000Y-137200000D01*
X140200000Y-137025000D02*
X137800000Y-137025000D01*
X135300000Y-112950000D02*
X135300000Y-118750000D01*
X137700000Y-112950000D02*
X135300000Y-112950000D01*
X137700000Y-118750000D02*
X137700000Y-112950000D01*
X137700000Y-118675000D02*
X135300000Y-118675000D01*
X137700000Y-118550000D02*
X135300000Y-118550000D01*
X135300000Y-118775000D02*
X137700000Y-118775000D01*
X137700000Y-118375000D02*
X135300000Y-118375000D01*
X137700000Y-118200000D02*
X135300000Y-118200000D01*
X137700000Y-118025000D02*
X135300000Y-118025000D01*
X126050000Y-93950000D02*
X126050000Y-99750000D01*
X128450000Y-93950000D02*
X126050000Y-93950000D01*
X128450000Y-99750000D02*
X128450000Y-93950000D01*
X128450000Y-99675000D02*
X126050000Y-99675000D01*
X128450000Y-99550000D02*
X126050000Y-99550000D01*
X126050000Y-99775000D02*
X128450000Y-99775000D01*
X128450000Y-99375000D02*
X126050000Y-99375000D01*
X128450000Y-99200000D02*
X126050000Y-99200000D01*
X128450000Y-99025000D02*
X126050000Y-99025000D01*
X121050000Y-74950000D02*
X121050000Y-80750000D01*
X123450000Y-74950000D02*
X121050000Y-74950000D01*
X123450000Y-80750000D02*
X123450000Y-74950000D01*
X123450000Y-80675000D02*
X121050000Y-80675000D01*
X123450000Y-80550000D02*
X121050000Y-80550000D01*
X121050000Y-80775000D02*
X123450000Y-80775000D01*
X123450000Y-80375000D02*
X121050000Y-80375000D01*
X123450000Y-80200000D02*
X121050000Y-80200000D01*
X123450000Y-80025000D02*
X121050000Y-80025000D01*
X111550000Y-55700000D02*
X111550000Y-61500000D01*
X113950000Y-55700000D02*
X111550000Y-55700000D01*
X113950000Y-61500000D02*
X113950000Y-55700000D01*
X113950000Y-61425000D02*
X111550000Y-61425000D01*
X113950000Y-61300000D02*
X111550000Y-61300000D01*
X111550000Y-61525000D02*
X113950000Y-61525000D01*
X113950000Y-61125000D02*
X111550000Y-61125000D01*
X113950000Y-60950000D02*
X111550000Y-60950000D01*
X113950000Y-60775000D02*
X111550000Y-60775000D01*
X116300000Y-112950000D02*
X116300000Y-118750000D01*
X118700000Y-112950000D02*
X116300000Y-112950000D01*
X118700000Y-118750000D02*
X118700000Y-112950000D01*
X118700000Y-118675000D02*
X116300000Y-118675000D01*
X118700000Y-118550000D02*
X116300000Y-118550000D01*
X116300000Y-118775000D02*
X118700000Y-118775000D01*
X118700000Y-118375000D02*
X116300000Y-118375000D01*
X118700000Y-118200000D02*
X116300000Y-118200000D01*
X118700000Y-118025000D02*
X116300000Y-118025000D01*
X106800000Y-93950000D02*
X106800000Y-99750000D01*
X109200000Y-93950000D02*
X106800000Y-93950000D01*
X109200000Y-99750000D02*
X109200000Y-93950000D01*
X109200000Y-99675000D02*
X106800000Y-99675000D01*
X109200000Y-99550000D02*
X106800000Y-99550000D01*
X106800000Y-99775000D02*
X109200000Y-99775000D01*
X109200000Y-99375000D02*
X106800000Y-99375000D01*
X109200000Y-99200000D02*
X106800000Y-99200000D01*
X109200000Y-99025000D02*
X106800000Y-99025000D01*
X102050000Y-74850000D02*
X102050000Y-80650000D01*
X104450000Y-74850000D02*
X102050000Y-74850000D01*
X104450000Y-80650000D02*
X104450000Y-74850000D01*
X104450000Y-80575000D02*
X102050000Y-80575000D01*
X104450000Y-80450000D02*
X102050000Y-80450000D01*
X102050000Y-80675000D02*
X104450000Y-80675000D01*
X104450000Y-80275000D02*
X102050000Y-80275000D01*
X104450000Y-80100000D02*
X102050000Y-80100000D01*
X104450000Y-79925000D02*
X102050000Y-79925000D01*
X92550000Y-55700000D02*
X92550000Y-61500000D01*
X94950000Y-55700000D02*
X92550000Y-55700000D01*
X94950000Y-61500000D02*
X94950000Y-55700000D01*
X94950000Y-61425000D02*
X92550000Y-61425000D01*
X94950000Y-61300000D02*
X92550000Y-61300000D01*
X92550000Y-61525000D02*
X94950000Y-61525000D01*
X94950000Y-61125000D02*
X92550000Y-61125000D01*
X94950000Y-60950000D02*
X92550000Y-60950000D01*
X94950000Y-60775000D02*
X92550000Y-60775000D01*
X97300000Y-112950000D02*
X97300000Y-118750000D01*
X99700000Y-112950000D02*
X97300000Y-112950000D01*
X99700000Y-118750000D02*
X99700000Y-112950000D01*
X99700000Y-118675000D02*
X97300000Y-118675000D01*
X99700000Y-118550000D02*
X97300000Y-118550000D01*
X97300000Y-118775000D02*
X99700000Y-118775000D01*
X99700000Y-118375000D02*
X97300000Y-118375000D01*
X99700000Y-118200000D02*
X97300000Y-118200000D01*
X99700000Y-118025000D02*
X97300000Y-118025000D01*
X88050000Y-93775000D02*
X88050000Y-99575000D01*
X90450000Y-93775000D02*
X88050000Y-93775000D01*
X90450000Y-99575000D02*
X90450000Y-93775000D01*
X90450000Y-99500000D02*
X88050000Y-99500000D01*
X90450000Y-99375000D02*
X88050000Y-99375000D01*
X88050000Y-99600000D02*
X90450000Y-99600000D01*
X90450000Y-99200000D02*
X88050000Y-99200000D01*
X90450000Y-99025000D02*
X88050000Y-99025000D01*
X90450000Y-98850000D02*
X88050000Y-98850000D01*
X82800000Y-74950000D02*
X82800000Y-80750000D01*
X85200000Y-74950000D02*
X82800000Y-74950000D01*
X85200000Y-80750000D02*
X85200000Y-74950000D01*
X85200000Y-80675000D02*
X82800000Y-80675000D01*
X85200000Y-80550000D02*
X82800000Y-80550000D01*
X82800000Y-80775000D02*
X85200000Y-80775000D01*
X85200000Y-80375000D02*
X82800000Y-80375000D01*
X85200000Y-80200000D02*
X82800000Y-80200000D01*
X85200000Y-80025000D02*
X82800000Y-80025000D01*
X73550000Y-55700000D02*
X73550000Y-61500000D01*
X75950000Y-55700000D02*
X73550000Y-55700000D01*
X75950000Y-61500000D02*
X75950000Y-55700000D01*
X75950000Y-61425000D02*
X73550000Y-61425000D01*
X75950000Y-61300000D02*
X73550000Y-61300000D01*
X73550000Y-61525000D02*
X75950000Y-61525000D01*
X75950000Y-61125000D02*
X73550000Y-61125000D01*
X75950000Y-60950000D02*
X73550000Y-60950000D01*
X75950000Y-60775000D02*
X73550000Y-60775000D01*
X66300000Y-131950000D02*
X66300000Y-137750000D01*
X68700000Y-131950000D02*
X66300000Y-131950000D01*
X68700000Y-137750000D02*
X68700000Y-131950000D01*
X68700000Y-137675000D02*
X66300000Y-137675000D01*
X68700000Y-137550000D02*
X66300000Y-137550000D01*
X66300000Y-137775000D02*
X68700000Y-137775000D01*
X68700000Y-137375000D02*
X66300000Y-137375000D01*
X68700000Y-137200000D02*
X66300000Y-137200000D01*
X68700000Y-137025000D02*
X66300000Y-137025000D01*
X78300000Y-112950000D02*
X78300000Y-118750000D01*
X80700000Y-112950000D02*
X78300000Y-112950000D01*
X80700000Y-118750000D02*
X80700000Y-112950000D01*
X80700000Y-118675000D02*
X78300000Y-118675000D01*
X80700000Y-118550000D02*
X78300000Y-118550000D01*
X78300000Y-118775000D02*
X80700000Y-118775000D01*
X80700000Y-118375000D02*
X78300000Y-118375000D01*
X80700000Y-118200000D02*
X78300000Y-118200000D01*
X80700000Y-118025000D02*
X78300000Y-118025000D01*
X68800000Y-93950000D02*
X68800000Y-99750000D01*
X71200000Y-93950000D02*
X68800000Y-93950000D01*
X71200000Y-99750000D02*
X71200000Y-93950000D01*
X71200000Y-99675000D02*
X68800000Y-99675000D01*
X71200000Y-99550000D02*
X68800000Y-99550000D01*
X68800000Y-99775000D02*
X71200000Y-99775000D01*
X71200000Y-99375000D02*
X68800000Y-99375000D01*
X71200000Y-99200000D02*
X68800000Y-99200000D01*
X71200000Y-99025000D02*
X68800000Y-99025000D01*
X64050000Y-74775000D02*
X64050000Y-80575000D01*
X66450000Y-74775000D02*
X64050000Y-74775000D01*
X66450000Y-80575000D02*
X66450000Y-74775000D01*
X66450000Y-80500000D02*
X64050000Y-80500000D01*
X66450000Y-80375000D02*
X64050000Y-80375000D01*
X64050000Y-80600000D02*
X66450000Y-80600000D01*
X66450000Y-80200000D02*
X64050000Y-80200000D01*
X66450000Y-80025000D02*
X64050000Y-80025000D01*
X66450000Y-79850000D02*
X64050000Y-79850000D01*
X54550000Y-55700000D02*
X54550000Y-61500000D01*
X56950000Y-55700000D02*
X54550000Y-55700000D01*
X56950000Y-61500000D02*
X56950000Y-55700000D01*
X56950000Y-61425000D02*
X54550000Y-61425000D01*
X56950000Y-61300000D02*
X54550000Y-61300000D01*
X54550000Y-61525000D02*
X56950000Y-61525000D01*
X56950000Y-61125000D02*
X54550000Y-61125000D01*
X56950000Y-60950000D02*
X54550000Y-60950000D01*
X56950000Y-60775000D02*
X54550000Y-60775000D01*
X59300000Y-112950000D02*
X59300000Y-118750000D01*
X61700000Y-112950000D02*
X59300000Y-112950000D01*
X61700000Y-118750000D02*
X61700000Y-112950000D01*
X61700000Y-118675000D02*
X59300000Y-118675000D01*
X61700000Y-118550000D02*
X59300000Y-118550000D01*
X59300000Y-118775000D02*
X61700000Y-118775000D01*
X61700000Y-118375000D02*
X59300000Y-118375000D01*
X61700000Y-118200000D02*
X59300000Y-118200000D01*
X61700000Y-118025000D02*
X59300000Y-118025000D01*
X49550000Y-93950000D02*
X49550000Y-99750000D01*
X51950000Y-93950000D02*
X49550000Y-93950000D01*
X51950000Y-99750000D02*
X51950000Y-93950000D01*
X51950000Y-99675000D02*
X49550000Y-99675000D01*
X51950000Y-99550000D02*
X49550000Y-99550000D01*
X49550000Y-99775000D02*
X51950000Y-99775000D01*
X51950000Y-99375000D02*
X49550000Y-99375000D01*
X51950000Y-99200000D02*
X49550000Y-99200000D01*
X51950000Y-99025000D02*
X49550000Y-99025000D01*
X45050000Y-74950000D02*
X45050000Y-80750000D01*
X47450000Y-74950000D02*
X45050000Y-74950000D01*
X47450000Y-80750000D02*
X47450000Y-74950000D01*
X47450000Y-80675000D02*
X45050000Y-80675000D01*
X47450000Y-80550000D02*
X45050000Y-80550000D01*
X45050000Y-80775000D02*
X47450000Y-80775000D01*
X47450000Y-80375000D02*
X45050000Y-80375000D01*
X47450000Y-80200000D02*
X45050000Y-80200000D01*
X47450000Y-80025000D02*
X45050000Y-80025000D01*
X51050000Y-55700000D02*
X51050000Y-61500000D01*
X53450000Y-55700000D02*
X51050000Y-55700000D01*
X53450000Y-61500000D02*
X53450000Y-55700000D01*
X53450000Y-61425000D02*
X51050000Y-61425000D01*
X53450000Y-61300000D02*
X51050000Y-61300000D01*
X51050000Y-61525000D02*
X53450000Y-61525000D01*
X53450000Y-61125000D02*
X51050000Y-61125000D01*
X53450000Y-60950000D02*
X51050000Y-60950000D01*
X53450000Y-60775000D02*
X51050000Y-60775000D01*
X18550000Y-131950000D02*
X18550000Y-137750000D01*
X20950000Y-131950000D02*
X18550000Y-131950000D01*
X20950000Y-137750000D02*
X20950000Y-131950000D01*
X20950000Y-137675000D02*
X18550000Y-137675000D01*
X20950000Y-137550000D02*
X18550000Y-137550000D01*
X18550000Y-137775000D02*
X20950000Y-137775000D01*
X20950000Y-137375000D02*
X18550000Y-137375000D01*
X20950000Y-137200000D02*
X18550000Y-137200000D01*
X20950000Y-137025000D02*
X18550000Y-137025000D01*
X27550000Y-112200000D02*
X27550000Y-118000000D01*
X29950000Y-112200000D02*
X27550000Y-112200000D01*
X29950000Y-118000000D02*
X29950000Y-112200000D01*
X29950000Y-117925000D02*
X27550000Y-117925000D01*
X29950000Y-117800000D02*
X27550000Y-117800000D01*
X27550000Y-118025000D02*
X29950000Y-118025000D01*
X29950000Y-117625000D02*
X27550000Y-117625000D01*
X29950000Y-117450000D02*
X27550000Y-117450000D01*
X29950000Y-117275000D02*
X27550000Y-117275000D01*
X23300000Y-93950000D02*
X23300000Y-99750000D01*
X25700000Y-93950000D02*
X23300000Y-93950000D01*
X25700000Y-99750000D02*
X25700000Y-93950000D01*
X25700000Y-99675000D02*
X23300000Y-99675000D01*
X25700000Y-99550000D02*
X23300000Y-99550000D01*
X23300000Y-99775000D02*
X25700000Y-99775000D01*
X25700000Y-99375000D02*
X23300000Y-99375000D01*
X25700000Y-99200000D02*
X23300000Y-99200000D01*
X25700000Y-99025000D02*
X23300000Y-99025000D01*
X21050000Y-74800000D02*
X21050000Y-80600000D01*
X23450000Y-74800000D02*
X21050000Y-74800000D01*
X23450000Y-80600000D02*
X23450000Y-74800000D01*
X23450000Y-80525000D02*
X21050000Y-80525000D01*
X23450000Y-80400000D02*
X21050000Y-80400000D01*
X21050000Y-80625000D02*
X23450000Y-80625000D01*
X23450000Y-80225000D02*
X21050000Y-80225000D01*
X23450000Y-80050000D02*
X21050000Y-80050000D01*
X23450000Y-79875000D02*
X21050000Y-79875000D01*
X18700000Y-60745000D02*
X16300000Y-60745000D01*
X18700000Y-60920000D02*
X16300000Y-60920000D01*
X18700000Y-61095000D02*
X16300000Y-61095000D01*
X16300000Y-61495000D02*
X18700000Y-61495000D01*
X18700000Y-61270000D02*
X16300000Y-61270000D01*
X18700000Y-61395000D02*
X16300000Y-61395000D01*
X18700000Y-61470000D02*
X18700000Y-55670000D01*
X18700000Y-55670000D02*
X16300000Y-55670000D01*
X16300000Y-55670000D02*
X16300000Y-61470000D01*
X33606250Y-108625000D02*
X32406250Y-110025000D01*
X36006250Y-110625000D02*
X34806250Y-112025000D01*
X32406250Y-110025000D02*
G75*
G03X34806250Y-112025000I1200000J-1000000D01*
G01*
X36006250Y-110625000D02*
G75*
G03X33606250Y-108625000I-1200000J1000000D01*
G01*
X41306250Y-109125000D02*
X41306250Y-108525000D01*
X38306250Y-109125000D02*
X38306250Y-108525000D01*
X38306250Y-109125000D02*
G75*
G03X41306250Y-109125000I1500000J0D01*
G01*
X41306250Y-108525000D02*
G75*
G03X38306250Y-108525000I-1500000J0D01*
G01*
X27597889Y-91032753D02*
G75*
G03X30043750Y-92975000I1245861J-942247D01*
G01*
X30043750Y-92975000D02*
X31289611Y-91517247D01*
X27597889Y-91032753D02*
X28843750Y-89575000D01*
X33543750Y-90075000D02*
X33543750Y-89475000D01*
X36543750Y-90075000D02*
X36543750Y-89475000D01*
X33543750Y-90075000D02*
G75*
G03X36543750Y-90075000I1500000J0D01*
G01*
X31289611Y-91517247D02*
G75*
G03X28843750Y-89575000I-1245861J942247D01*
G01*
X36543750Y-89475000D02*
G75*
G03X33543750Y-89475000I-1500000J0D01*
G01*
X25216639Y-71982753D02*
G75*
G03X27662500Y-73925000I1245861J-942247D01*
G01*
X27662500Y-73925000D02*
X28908361Y-72467247D01*
X25216639Y-71982753D02*
X26462500Y-70525000D01*
X31162500Y-71025000D02*
X31162500Y-70425000D01*
X34162500Y-71025000D02*
X34162500Y-70425000D01*
X31162500Y-71025000D02*
G75*
G03X34162500Y-71025000I1500000J0D01*
G01*
X28908361Y-72467247D02*
G75*
G03X26462500Y-70525000I-1245861J942247D01*
G01*
X34162500Y-70425000D02*
G75*
G03X31162500Y-70425000I-1500000J0D01*
G01*
X20500000Y-52875000D02*
G75*
G03X22900000Y-54875000I1200000J-1000000D01*
G01*
X22900000Y-54875000D02*
X24145861Y-53417247D01*
X20454139Y-52932753D02*
X21700000Y-51475000D01*
X26400000Y-51975000D02*
X26400000Y-51375000D01*
X29400000Y-51975000D02*
X29400000Y-51375000D01*
X26400000Y-51975000D02*
G75*
G03X29400000Y-51975000I1500000J0D01*
G01*
X24100000Y-53475000D02*
G75*
G03X21700000Y-51475000I-1200000J1000000D01*
G01*
X29400000Y-51375000D02*
G75*
G03X26400000Y-51375000I-1500000J0D01*
G01*
X168137500Y-90975000D02*
G75*
G03X170537500Y-92975000I1200000J-1000000D01*
G01*
X170537500Y-92975000D02*
X171783361Y-91517247D01*
X168091639Y-91032753D02*
X169337500Y-89575000D01*
X174037500Y-90075000D02*
X174037500Y-89475000D01*
X177037500Y-90075000D02*
X177037500Y-89475000D01*
X174037500Y-90075000D02*
G75*
G03X177037500Y-90075000I1500000J0D01*
G01*
X171737500Y-91575000D02*
G75*
G03X169337500Y-89575000I-1200000J1000000D01*
G01*
X177037500Y-89475000D02*
G75*
G03X174037500Y-89475000I-1500000J0D01*
G01*
D11*
X185061252Y-139410000D02*
X184538748Y-139410000D01*
X185061252Y-137990000D02*
X184538748Y-137990000D01*
X158938748Y-128390000D02*
X159461252Y-128390000D01*
X158938748Y-129810000D02*
X159461252Y-129810000D01*
X159261252Y-141210000D02*
X158738748Y-141210000D01*
X159261252Y-139790000D02*
X158738748Y-139790000D01*
X165290000Y-123936252D02*
X165290000Y-123413748D01*
X166710000Y-123936252D02*
X166710000Y-123413748D01*
X188310000Y-141838748D02*
X188310000Y-142361252D01*
X186890000Y-141838748D02*
X186890000Y-142361252D01*
X185310000Y-141838748D02*
X185310000Y-142361252D01*
X183890000Y-141838748D02*
X183890000Y-142361252D01*
X182110000Y-141838748D02*
X182110000Y-142361252D01*
X180690000Y-141838748D02*
X180690000Y-142361252D01*
D10*
X167625000Y-140100000D02*
X166350000Y-140100000D01*
X177975000Y-140675000D02*
X177300000Y-140675000D01*
X177975000Y-130325000D02*
X177300000Y-130325000D01*
X167625000Y-130325000D02*
X168300000Y-130325000D01*
X167625000Y-140675000D02*
X168300000Y-140675000D01*
X167625000Y-130325000D02*
X167625000Y-131000000D01*
X177975000Y-130325000D02*
X177975000Y-131000000D01*
X177975000Y-140675000D02*
X177975000Y-140000000D01*
X167625000Y-140675000D02*
X167625000Y-140100000D01*
X174177817Y-122760660D02*
X174460660Y-122477817D01*
X172339340Y-120922183D02*
X172622183Y-120639340D01*
X172480761Y-120922183D02*
X173187868Y-121629289D01*
D11*
X168090000Y-121638748D02*
X168090000Y-122161252D01*
X169510000Y-121638748D02*
X169510000Y-122161252D01*
D12*
X144325000Y-71925000D02*
G75*
G03X146725000Y-73925000I1200000J-1000000D01*
G01*
X146725000Y-73925000D02*
X147970861Y-72467247D01*
X144279139Y-71982753D02*
X145525000Y-70525000D01*
X150225000Y-71025000D02*
X150225000Y-70425000D01*
X153225000Y-71025000D02*
X153225000Y-70425000D01*
X150225000Y-71025000D02*
G75*
G03X153225000Y-71025000I1500000J0D01*
G01*
X147925000Y-72525000D02*
G75*
G03X145525000Y-70525000I-1200000J1000000D01*
G01*
X153225000Y-70425000D02*
G75*
G03X150225000Y-70425000I-1500000J0D01*
G01*
X149087500Y-90975000D02*
G75*
G03X151487500Y-92975000I1200000J-1000000D01*
G01*
X151487500Y-92975000D02*
X152733361Y-91517247D01*
X149041639Y-91032753D02*
X150287500Y-89575000D01*
X154987500Y-90075000D02*
X154987500Y-89475000D01*
X157987500Y-90075000D02*
X157987500Y-89475000D01*
X154987500Y-90075000D02*
G75*
G03X157987500Y-90075000I1500000J0D01*
G01*
X152687500Y-91575000D02*
G75*
G03X150287500Y-89575000I-1200000J1000000D01*
G01*
X157987500Y-89475000D02*
G75*
G03X154987500Y-89475000I-1500000J0D01*
G01*
X225287500Y-90975000D02*
G75*
G03X227687500Y-92975000I1200000J-1000000D01*
G01*
X227687500Y-92975000D02*
X228933361Y-91517247D01*
X225241639Y-91032753D02*
X226487500Y-89575000D01*
X231187500Y-90075000D02*
X231187500Y-89475000D01*
X234187500Y-90075000D02*
X234187500Y-89475000D01*
X231187500Y-90075000D02*
G75*
G03X234187500Y-90075000I1500000J0D01*
G01*
X228887500Y-91575000D02*
G75*
G03X226487500Y-89575000I-1200000J1000000D01*
G01*
X234187500Y-89475000D02*
G75*
G03X231187500Y-89475000I-1500000J0D01*
G01*
D11*
X33040000Y-59511252D02*
X33040000Y-58988748D01*
X34460000Y-59511252D02*
X34460000Y-58988748D01*
X156250000Y-133850000D02*
X156250000Y-136350000D01*
X158000000Y-132350000D02*
X160000000Y-132350000D01*
X161750000Y-133850000D02*
X161750000Y-136350000D01*
X158000000Y-137850000D02*
X160000000Y-137850000D01*
X156700000Y-133400000D02*
X156250000Y-133850000D01*
X156700000Y-136800000D02*
X156250000Y-136350000D01*
X161300000Y-136800000D02*
X161750000Y-136350000D01*
X161300000Y-133400000D02*
X161750000Y-133850000D01*
X177710000Y-121638748D02*
X177710000Y-122161252D01*
X176290000Y-121638748D02*
X176290000Y-122161252D01*
D12*
X306250000Y-71925000D02*
G75*
G03X308650000Y-73925000I1200000J-1000000D01*
G01*
X308650000Y-73925000D02*
X309895861Y-72467247D01*
X306204139Y-71982753D02*
X307450000Y-70525000D01*
X312150000Y-71025000D02*
X312150000Y-70425000D01*
X315150000Y-71025000D02*
X315150000Y-70425000D01*
X312150000Y-71025000D02*
G75*
G03X315150000Y-71025000I1500000J0D01*
G01*
X309850000Y-72525000D02*
G75*
G03X307450000Y-70525000I-1200000J1000000D01*
G01*
X315150000Y-70425000D02*
G75*
G03X312150000Y-70425000I-1500000J0D01*
G01*
X306250000Y-129075000D02*
G75*
G03X308650000Y-131075000I1200000J-1000000D01*
G01*
X308650000Y-131075000D02*
X309895861Y-129617247D01*
X306204139Y-129132753D02*
X307450000Y-127675000D01*
X312150000Y-128175000D02*
X312150000Y-127575000D01*
X315150000Y-128175000D02*
X315150000Y-127575000D01*
X312150000Y-128175000D02*
G75*
G03X315150000Y-128175000I1500000J0D01*
G01*
X309850000Y-129675000D02*
G75*
G03X307450000Y-127675000I-1200000J1000000D01*
G01*
X315150000Y-127575000D02*
G75*
G03X312150000Y-127575000I-1500000J0D01*
G01*
X306250000Y-110025000D02*
G75*
G03X308650000Y-112025000I1200000J-1000000D01*
G01*
X308650000Y-112025000D02*
X309895861Y-110567247D01*
X306204139Y-110082753D02*
X307450000Y-108625000D01*
X312150000Y-109125000D02*
X312150000Y-108525000D01*
X315150000Y-109125000D02*
X315150000Y-108525000D01*
X312150000Y-109125000D02*
G75*
G03X315150000Y-109125000I1500000J0D01*
G01*
X309850000Y-110625000D02*
G75*
G03X307450000Y-108625000I-1200000J1000000D01*
G01*
X315150000Y-108525000D02*
G75*
G03X312150000Y-108525000I-1500000J0D01*
G01*
X306250000Y-90975000D02*
G75*
G03X308650000Y-92975000I1200000J-1000000D01*
G01*
X308650000Y-92975000D02*
X309895861Y-91517247D01*
X306204139Y-91032753D02*
X307450000Y-89575000D01*
X312150000Y-90075000D02*
X312150000Y-89475000D01*
X315150000Y-90075000D02*
X315150000Y-89475000D01*
X312150000Y-90075000D02*
G75*
G03X315150000Y-90075000I1500000J0D01*
G01*
X309850000Y-91575000D02*
G75*
G03X307450000Y-89575000I-1200000J1000000D01*
G01*
X315150000Y-89475000D02*
G75*
G03X312150000Y-89475000I-1500000J0D01*
G01*
X282391639Y-71982753D02*
G75*
G03X284837500Y-73925000I1245861J-942247D01*
G01*
X284837500Y-73925000D02*
X286083361Y-72467247D01*
X282391639Y-71982753D02*
X283637500Y-70525000D01*
X288337500Y-71025000D02*
X288337500Y-70425000D01*
X291337500Y-71025000D02*
X291337500Y-70425000D01*
X288337500Y-71025000D02*
G75*
G03X291337500Y-71025000I1500000J0D01*
G01*
X286083361Y-72467247D02*
G75*
G03X283637500Y-70525000I-1245861J942247D01*
G01*
X291337500Y-70425000D02*
G75*
G03X288337500Y-70425000I-1500000J0D01*
G01*
X278875000Y-51475000D02*
X277675000Y-52875000D01*
X281275000Y-53475000D02*
X280075000Y-54875000D01*
X277675000Y-52875000D02*
G75*
G03X280075000Y-54875000I1200000J-1000000D01*
G01*
X281275000Y-53475000D02*
G75*
G03X278875000Y-51475000I-1200000J1000000D01*
G01*
X286575000Y-51975000D02*
X286575000Y-51375000D01*
X283575000Y-51975000D02*
X283575000Y-51375000D01*
X283575000Y-51975000D02*
G75*
G03X286575000Y-51975000I1500000J0D01*
G01*
X286575000Y-51375000D02*
G75*
G03X283575000Y-51375000I-1500000J0D01*
G01*
X287200000Y-129075000D02*
G75*
G03X289600000Y-131075000I1200000J-1000000D01*
G01*
X289600000Y-131075000D02*
X290845861Y-129617247D01*
X287154139Y-129132753D02*
X288400000Y-127675000D01*
X293100000Y-128175000D02*
X293100000Y-127575000D01*
X296100000Y-128175000D02*
X296100000Y-127575000D01*
X293100000Y-128175000D02*
G75*
G03X296100000Y-128175000I1500000J0D01*
G01*
X290800000Y-129675000D02*
G75*
G03X288400000Y-127675000I-1200000J1000000D01*
G01*
X296100000Y-127575000D02*
G75*
G03X293100000Y-127575000I-1500000J0D01*
G01*
X287200000Y-110025000D02*
G75*
G03X289600000Y-112025000I1200000J-1000000D01*
G01*
X289600000Y-112025000D02*
X290845861Y-110567247D01*
X287154139Y-110082753D02*
X288400000Y-108625000D01*
X293100000Y-109125000D02*
X293100000Y-108525000D01*
X296100000Y-109125000D02*
X296100000Y-108525000D01*
X293100000Y-109125000D02*
G75*
G03X296100000Y-109125000I1500000J0D01*
G01*
X290800000Y-110625000D02*
G75*
G03X288400000Y-108625000I-1200000J1000000D01*
G01*
X296100000Y-108525000D02*
G75*
G03X293100000Y-108525000I-1500000J0D01*
G01*
X276493750Y-89575000D02*
X275293750Y-90975000D01*
X278893750Y-91575000D02*
X277693750Y-92975000D01*
X275293750Y-90975000D02*
G75*
G03X277693750Y-92975000I1200000J-1000000D01*
G01*
X278893750Y-91575000D02*
G75*
G03X276493750Y-89575000I-1200000J1000000D01*
G01*
X284193750Y-90075000D02*
X284193750Y-89475000D01*
X281193750Y-90075000D02*
X281193750Y-89475000D01*
X281193750Y-90075000D02*
G75*
G03X284193750Y-90075000I1500000J0D01*
G01*
X284193750Y-89475000D02*
G75*
G03X281193750Y-89475000I-1500000J0D01*
G01*
X258625000Y-71925000D02*
G75*
G03X261025000Y-73925000I1200000J-1000000D01*
G01*
X261025000Y-73925000D02*
X262270861Y-72467247D01*
X258579139Y-71982753D02*
X259825000Y-70525000D01*
X264525000Y-71025000D02*
X264525000Y-70425000D01*
X267525000Y-71025000D02*
X267525000Y-70425000D01*
X264525000Y-71025000D02*
G75*
G03X267525000Y-71025000I1500000J0D01*
G01*
X262225000Y-72525000D02*
G75*
G03X259825000Y-70525000I-1200000J1000000D01*
G01*
X267525000Y-70425000D02*
G75*
G03X264525000Y-70425000I-1500000J0D01*
G01*
X249100000Y-52875000D02*
G75*
G03X251500000Y-54875000I1200000J-1000000D01*
G01*
X251500000Y-54875000D02*
X252745861Y-53417247D01*
X249054139Y-52932753D02*
X250300000Y-51475000D01*
X255000000Y-51975000D02*
X255000000Y-51375000D01*
X258000000Y-51975000D02*
X258000000Y-51375000D01*
X255000000Y-51975000D02*
G75*
G03X258000000Y-51975000I1500000J0D01*
G01*
X252700000Y-53475000D02*
G75*
G03X250300000Y-51475000I-1200000J1000000D01*
G01*
X258000000Y-51375000D02*
G75*
G03X255000000Y-51375000I-1500000J0D01*
G01*
X268150000Y-129075000D02*
G75*
G03X270550000Y-131075000I1200000J-1000000D01*
G01*
X270550000Y-131075000D02*
X271795861Y-129617247D01*
X268104139Y-129132753D02*
X269350000Y-127675000D01*
X274050000Y-128175000D02*
X274050000Y-127575000D01*
X277050000Y-128175000D02*
X277050000Y-127575000D01*
X274050000Y-128175000D02*
G75*
G03X277050000Y-128175000I1500000J0D01*
G01*
X271750000Y-129675000D02*
G75*
G03X269350000Y-127675000I-1200000J1000000D01*
G01*
X277050000Y-127575000D02*
G75*
G03X274050000Y-127575000I-1500000J0D01*
G01*
X260960389Y-110082753D02*
G75*
G03X263406250Y-112025000I1245861J-942247D01*
G01*
X263406250Y-112025000D02*
X264652111Y-110567247D01*
X260960389Y-110082753D02*
X262206250Y-108625000D01*
X266906250Y-109125000D02*
X266906250Y-108525000D01*
X269906250Y-109125000D02*
X269906250Y-108525000D01*
X266906250Y-109125000D02*
G75*
G03X269906250Y-109125000I1500000J0D01*
G01*
X264652111Y-110567247D02*
G75*
G03X262206250Y-108625000I-1245861J942247D01*
G01*
X269906250Y-108525000D02*
G75*
G03X266906250Y-108525000I-1500000J0D01*
G01*
X244337500Y-90975000D02*
G75*
G03X246737500Y-92975000I1200000J-1000000D01*
G01*
X246737500Y-92975000D02*
X247983361Y-91517247D01*
X244291639Y-91032753D02*
X245537500Y-89575000D01*
X250237500Y-90075000D02*
X250237500Y-89475000D01*
X253237500Y-90075000D02*
X253237500Y-89475000D01*
X250237500Y-90075000D02*
G75*
G03X253237500Y-90075000I1500000J0D01*
G01*
X247937500Y-91575000D02*
G75*
G03X245537500Y-89575000I-1200000J1000000D01*
G01*
X253237500Y-89475000D02*
G75*
G03X250237500Y-89475000I-1500000J0D01*
G01*
X239575000Y-71925000D02*
G75*
G03X241975000Y-73925000I1200000J-1000000D01*
G01*
X241975000Y-73925000D02*
X243220861Y-72467247D01*
X239529139Y-71982753D02*
X240775000Y-70525000D01*
X245475000Y-71025000D02*
X245475000Y-70425000D01*
X248475000Y-71025000D02*
X248475000Y-70425000D01*
X245475000Y-71025000D02*
G75*
G03X248475000Y-71025000I1500000J0D01*
G01*
X243175000Y-72525000D02*
G75*
G03X240775000Y-70525000I-1200000J1000000D01*
G01*
X248475000Y-70425000D02*
G75*
G03X245475000Y-70425000I-1500000J0D01*
G01*
X230050000Y-52875000D02*
G75*
G03X232450000Y-54875000I1200000J-1000000D01*
G01*
X232450000Y-54875000D02*
X233695861Y-53417247D01*
X230004139Y-52932753D02*
X231250000Y-51475000D01*
X235950000Y-51975000D02*
X235950000Y-51375000D01*
X238950000Y-51975000D02*
X238950000Y-51375000D01*
X235950000Y-51975000D02*
G75*
G03X238950000Y-51975000I1500000J0D01*
G01*
X233650000Y-53475000D02*
G75*
G03X231250000Y-51475000I-1200000J1000000D01*
G01*
X238950000Y-51375000D02*
G75*
G03X235950000Y-51375000I-1500000J0D01*
G01*
X234812500Y-110025000D02*
G75*
G03X237212500Y-112025000I1200000J-1000000D01*
G01*
X237212500Y-112025000D02*
X238458361Y-110567247D01*
X234766639Y-110082753D02*
X236012500Y-108625000D01*
X240712500Y-109125000D02*
X240712500Y-108525000D01*
X243712500Y-109125000D02*
X243712500Y-108525000D01*
X240712500Y-109125000D02*
G75*
G03X243712500Y-109125000I1500000J0D01*
G01*
X238412500Y-110625000D02*
G75*
G03X236012500Y-108625000I-1200000J1000000D01*
G01*
X243712500Y-108525000D02*
G75*
G03X240712500Y-108525000I-1500000J0D01*
G01*
X220525000Y-71925000D02*
G75*
G03X222925000Y-73925000I1200000J-1000000D01*
G01*
X222925000Y-73925000D02*
X224170861Y-72467247D01*
X220479139Y-71982753D02*
X221725000Y-70525000D01*
X226425000Y-71025000D02*
X226425000Y-70425000D01*
X229425000Y-71025000D02*
X229425000Y-70425000D01*
X226425000Y-71025000D02*
G75*
G03X229425000Y-71025000I1500000J0D01*
G01*
X224125000Y-72525000D02*
G75*
G03X221725000Y-70525000I-1200000J1000000D01*
G01*
X229425000Y-70425000D02*
G75*
G03X226425000Y-70425000I-1500000J0D01*
G01*
X211000000Y-52875000D02*
G75*
G03X213400000Y-54875000I1200000J-1000000D01*
G01*
X213400000Y-54875000D02*
X214645861Y-53417247D01*
X210954139Y-52932753D02*
X212200000Y-51475000D01*
X216900000Y-51975000D02*
X216900000Y-51375000D01*
X219900000Y-51975000D02*
X219900000Y-51375000D01*
X216900000Y-51975000D02*
G75*
G03X219900000Y-51975000I1500000J0D01*
G01*
X214600000Y-53475000D02*
G75*
G03X212200000Y-51475000I-1200000J1000000D01*
G01*
X219900000Y-51375000D02*
G75*
G03X216900000Y-51375000I-1500000J0D01*
G01*
X215762500Y-110025000D02*
G75*
G03X218162500Y-112025000I1200000J-1000000D01*
G01*
X218162500Y-112025000D02*
X219408361Y-110567247D01*
X215716639Y-110082753D02*
X216962500Y-108625000D01*
X221662500Y-109125000D02*
X221662500Y-108525000D01*
X224662500Y-109125000D02*
X224662500Y-108525000D01*
X221662500Y-109125000D02*
G75*
G03X224662500Y-109125000I1500000J0D01*
G01*
X219362500Y-110625000D02*
G75*
G03X216962500Y-108625000I-1200000J1000000D01*
G01*
X224662500Y-108525000D02*
G75*
G03X221662500Y-108525000I-1500000J0D01*
G01*
X206237500Y-90975000D02*
G75*
G03X208637500Y-92975000I1200000J-1000000D01*
G01*
X208637500Y-92975000D02*
X209883361Y-91517247D01*
X206191639Y-91032753D02*
X207437500Y-89575000D01*
X212137500Y-90075000D02*
X212137500Y-89475000D01*
X215137500Y-90075000D02*
X215137500Y-89475000D01*
X212137500Y-90075000D02*
G75*
G03X215137500Y-90075000I1500000J0D01*
G01*
X209837500Y-91575000D02*
G75*
G03X207437500Y-89575000I-1200000J1000000D01*
G01*
X215137500Y-89475000D02*
G75*
G03X212137500Y-89475000I-1500000J0D01*
G01*
X201475000Y-71925000D02*
G75*
G03X203875000Y-73925000I1200000J-1000000D01*
G01*
X203875000Y-73925000D02*
X205120861Y-72467247D01*
X201429139Y-71982753D02*
X202675000Y-70525000D01*
X207375000Y-71025000D02*
X207375000Y-70425000D01*
X210375000Y-71025000D02*
X210375000Y-70425000D01*
X207375000Y-71025000D02*
G75*
G03X210375000Y-71025000I1500000J0D01*
G01*
X205075000Y-72525000D02*
G75*
G03X202675000Y-70525000I-1200000J1000000D01*
G01*
X210375000Y-70425000D02*
G75*
G03X207375000Y-70425000I-1500000J0D01*
G01*
X191950000Y-52875000D02*
G75*
G03X194350000Y-54875000I1200000J-1000000D01*
G01*
X194350000Y-54875000D02*
X195595861Y-53417247D01*
X191904139Y-52932753D02*
X193150000Y-51475000D01*
X197850000Y-51975000D02*
X197850000Y-51375000D01*
X200850000Y-51975000D02*
X200850000Y-51375000D01*
X197850000Y-51975000D02*
G75*
G03X200850000Y-51975000I1500000J0D01*
G01*
X195550000Y-53475000D02*
G75*
G03X193150000Y-51475000I-1200000J1000000D01*
G01*
X200850000Y-51375000D02*
G75*
G03X197850000Y-51375000I-1500000J0D01*
G01*
X196712500Y-110025000D02*
G75*
G03X199112500Y-112025000I1200000J-1000000D01*
G01*
X199112500Y-112025000D02*
X200358361Y-110567247D01*
X196666639Y-110082753D02*
X197912500Y-108625000D01*
X202612500Y-109125000D02*
X202612500Y-108525000D01*
X205612500Y-109125000D02*
X205612500Y-108525000D01*
X202612500Y-109125000D02*
G75*
G03X205612500Y-109125000I1500000J0D01*
G01*
X200312500Y-110625000D02*
G75*
G03X197912500Y-108625000I-1200000J1000000D01*
G01*
X205612500Y-108525000D02*
G75*
G03X202612500Y-108525000I-1500000J0D01*
G01*
X187187500Y-90975000D02*
G75*
G03X189587500Y-92975000I1200000J-1000000D01*
G01*
X189587500Y-92975000D02*
X190833361Y-91517247D01*
X187141639Y-91032753D02*
X188387500Y-89575000D01*
X193087500Y-90075000D02*
X193087500Y-89475000D01*
X196087500Y-90075000D02*
X196087500Y-89475000D01*
X193087500Y-90075000D02*
G75*
G03X196087500Y-90075000I1500000J0D01*
G01*
X190787500Y-91575000D02*
G75*
G03X188387500Y-89575000I-1200000J1000000D01*
G01*
X196087500Y-89475000D02*
G75*
G03X193087500Y-89475000I-1500000J0D01*
G01*
X182425000Y-71925000D02*
G75*
G03X184825000Y-73925000I1200000J-1000000D01*
G01*
X184825000Y-73925000D02*
X186070861Y-72467247D01*
X182379139Y-71982753D02*
X183625000Y-70525000D01*
X188325000Y-71025000D02*
X188325000Y-70425000D01*
X191325000Y-71025000D02*
X191325000Y-70425000D01*
X188325000Y-71025000D02*
G75*
G03X191325000Y-71025000I1500000J0D01*
G01*
X186025000Y-72525000D02*
G75*
G03X183625000Y-70525000I-1200000J1000000D01*
G01*
X191325000Y-70425000D02*
G75*
G03X188325000Y-70425000I-1500000J0D01*
G01*
X172900000Y-52875000D02*
G75*
G03X175300000Y-54875000I1200000J-1000000D01*
G01*
X175300000Y-54875000D02*
X176545861Y-53417247D01*
X172854139Y-52932753D02*
X174100000Y-51475000D01*
X178800000Y-51975000D02*
X178800000Y-51375000D01*
X181800000Y-51975000D02*
X181800000Y-51375000D01*
X178800000Y-51975000D02*
G75*
G03X181800000Y-51975000I1500000J0D01*
G01*
X176500000Y-53475000D02*
G75*
G03X174100000Y-51475000I-1200000J1000000D01*
G01*
X181800000Y-51375000D02*
G75*
G03X178800000Y-51375000I-1500000J0D01*
G01*
X177662500Y-110025000D02*
G75*
G03X180062500Y-112025000I1200000J-1000000D01*
G01*
X180062500Y-112025000D02*
X181308361Y-110567247D01*
X177616639Y-110082753D02*
X178862500Y-108625000D01*
X183562500Y-109125000D02*
X183562500Y-108525000D01*
X186562500Y-109125000D02*
X186562500Y-108525000D01*
X183562500Y-109125000D02*
G75*
G03X186562500Y-109125000I1500000J0D01*
G01*
X181262500Y-110625000D02*
G75*
G03X178862500Y-108625000I-1200000J1000000D01*
G01*
X186562500Y-108525000D02*
G75*
G03X183562500Y-108525000I-1500000J0D01*
G01*
X163375000Y-71925000D02*
G75*
G03X165775000Y-73925000I1200000J-1000000D01*
G01*
X165775000Y-73925000D02*
X167020861Y-72467247D01*
X163329139Y-71982753D02*
X164575000Y-70525000D01*
X169275000Y-71025000D02*
X169275000Y-70425000D01*
X172275000Y-71025000D02*
X172275000Y-70425000D01*
X169275000Y-71025000D02*
G75*
G03X172275000Y-71025000I1500000J0D01*
G01*
X166975000Y-72525000D02*
G75*
G03X164575000Y-70525000I-1200000J1000000D01*
G01*
X172275000Y-70425000D02*
G75*
G03X169275000Y-70425000I-1500000J0D01*
G01*
X153850000Y-52875000D02*
G75*
G03X156250000Y-54875000I1200000J-1000000D01*
G01*
X156250000Y-54875000D02*
X157495861Y-53417247D01*
X153804139Y-52932753D02*
X155050000Y-51475000D01*
X159750000Y-51975000D02*
X159750000Y-51375000D01*
X162750000Y-51975000D02*
X162750000Y-51375000D01*
X159750000Y-51975000D02*
G75*
G03X162750000Y-51975000I1500000J0D01*
G01*
X157450000Y-53475000D02*
G75*
G03X155050000Y-51475000I-1200000J1000000D01*
G01*
X162750000Y-51375000D02*
G75*
G03X159750000Y-51375000I-1500000J0D01*
G01*
X158612500Y-110025000D02*
G75*
G03X161012500Y-112025000I1200000J-1000000D01*
G01*
X161012500Y-112025000D02*
X162258361Y-110567247D01*
X158566639Y-110082753D02*
X159812500Y-108625000D01*
X164512500Y-109125000D02*
X164512500Y-108525000D01*
X167512500Y-109125000D02*
X167512500Y-108525000D01*
X164512500Y-109125000D02*
G75*
G03X167512500Y-109125000I1500000J0D01*
G01*
X162212500Y-110625000D02*
G75*
G03X159812500Y-108625000I-1200000J1000000D01*
G01*
X167512500Y-108525000D02*
G75*
G03X164512500Y-108525000I-1500000J0D01*
G01*
X134800000Y-52875000D02*
G75*
G03X137200000Y-54875000I1200000J-1000000D01*
G01*
X137200000Y-54875000D02*
X138445861Y-53417247D01*
X134754139Y-52932753D02*
X136000000Y-51475000D01*
X140700000Y-51975000D02*
X140700000Y-51375000D01*
X143700000Y-51975000D02*
X143700000Y-51375000D01*
X140700000Y-51975000D02*
G75*
G03X143700000Y-51975000I1500000J0D01*
G01*
X138400000Y-53475000D02*
G75*
G03X136000000Y-51475000I-1200000J1000000D01*
G01*
X143700000Y-51375000D02*
G75*
G03X140700000Y-51375000I-1500000J0D01*
G01*
X145543750Y-129675000D02*
X144343750Y-131075000D01*
X143143750Y-127675000D02*
X141943750Y-129075000D01*
X141943750Y-129075000D02*
G75*
G03X144343750Y-131075000I1200000J-1000000D01*
G01*
X145543750Y-129675000D02*
G75*
G03X143143750Y-127675000I-1200000J1000000D01*
G01*
X150843750Y-128175000D02*
X150843750Y-127575000D01*
X147843750Y-128175000D02*
X147843750Y-127575000D01*
X147843750Y-128175000D02*
G75*
G03X150843750Y-128175000I1500000J0D01*
G01*
X150843750Y-127575000D02*
G75*
G03X147843750Y-127575000I-1500000J0D01*
G01*
X139562500Y-110025000D02*
G75*
G03X141962500Y-112025000I1200000J-1000000D01*
G01*
X141962500Y-112025000D02*
X143208361Y-110567247D01*
X139516639Y-110082753D02*
X140762500Y-108625000D01*
X145462500Y-109125000D02*
X145462500Y-108525000D01*
X148462500Y-109125000D02*
X148462500Y-108525000D01*
X145462500Y-109125000D02*
G75*
G03X148462500Y-109125000I1500000J0D01*
G01*
X143162500Y-110625000D02*
G75*
G03X140762500Y-108625000I-1200000J1000000D01*
G01*
X148462500Y-108525000D02*
G75*
G03X145462500Y-108525000I-1500000J0D01*
G01*
X130037500Y-90975000D02*
G75*
G03X132437500Y-92975000I1200000J-1000000D01*
G01*
X132437500Y-92975000D02*
X133683361Y-91517247D01*
X129991639Y-91032753D02*
X131237500Y-89575000D01*
X135937500Y-90075000D02*
X135937500Y-89475000D01*
X138937500Y-90075000D02*
X138937500Y-89475000D01*
X135937500Y-90075000D02*
G75*
G03X138937500Y-90075000I1500000J0D01*
G01*
X133637500Y-91575000D02*
G75*
G03X131237500Y-89575000I-1200000J1000000D01*
G01*
X138937500Y-89475000D02*
G75*
G03X135937500Y-89475000I-1500000J0D01*
G01*
X125275000Y-71925000D02*
G75*
G03X127675000Y-73925000I1200000J-1000000D01*
G01*
X127675000Y-73925000D02*
X128920861Y-72467247D01*
X125229139Y-71982753D02*
X126475000Y-70525000D01*
X131175000Y-71025000D02*
X131175000Y-70425000D01*
X134175000Y-71025000D02*
X134175000Y-70425000D01*
X131175000Y-71025000D02*
G75*
G03X134175000Y-71025000I1500000J0D01*
G01*
X128875000Y-72525000D02*
G75*
G03X126475000Y-70525000I-1200000J1000000D01*
G01*
X134175000Y-70425000D02*
G75*
G03X131175000Y-70425000I-1500000J0D01*
G01*
X115750000Y-52875000D02*
G75*
G03X118150000Y-54875000I1200000J-1000000D01*
G01*
X118150000Y-54875000D02*
X119395861Y-53417247D01*
X115704139Y-52932753D02*
X116950000Y-51475000D01*
X121650000Y-51975000D02*
X121650000Y-51375000D01*
X124650000Y-51975000D02*
X124650000Y-51375000D01*
X121650000Y-51975000D02*
G75*
G03X124650000Y-51975000I1500000J0D01*
G01*
X119350000Y-53475000D02*
G75*
G03X116950000Y-51475000I-1200000J1000000D01*
G01*
X124650000Y-51375000D02*
G75*
G03X121650000Y-51375000I-1500000J0D01*
G01*
X120512500Y-110025000D02*
G75*
G03X122912500Y-112025000I1200000J-1000000D01*
G01*
X122912500Y-112025000D02*
X124158361Y-110567247D01*
X120466639Y-110082753D02*
X121712500Y-108625000D01*
X126412500Y-109125000D02*
X126412500Y-108525000D01*
X129412500Y-109125000D02*
X129412500Y-108525000D01*
X126412500Y-109125000D02*
G75*
G03X129412500Y-109125000I1500000J0D01*
G01*
X124112500Y-110625000D02*
G75*
G03X121712500Y-108625000I-1200000J1000000D01*
G01*
X129412500Y-108525000D02*
G75*
G03X126412500Y-108525000I-1500000J0D01*
G01*
X110987500Y-90975000D02*
G75*
G03X113387500Y-92975000I1200000J-1000000D01*
G01*
X113387500Y-92975000D02*
X114633361Y-91517247D01*
X110941639Y-91032753D02*
X112187500Y-89575000D01*
X116887500Y-90075000D02*
X116887500Y-89475000D01*
X119887500Y-90075000D02*
X119887500Y-89475000D01*
X116887500Y-90075000D02*
G75*
G03X119887500Y-90075000I1500000J0D01*
G01*
X114587500Y-91575000D02*
G75*
G03X112187500Y-89575000I-1200000J1000000D01*
G01*
X119887500Y-89475000D02*
G75*
G03X116887500Y-89475000I-1500000J0D01*
G01*
X106225000Y-71925000D02*
G75*
G03X108625000Y-73925000I1200000J-1000000D01*
G01*
X108625000Y-73925000D02*
X109870861Y-72467247D01*
X106179139Y-71982753D02*
X107425000Y-70525000D01*
X112125000Y-71025000D02*
X112125000Y-70425000D01*
X115125000Y-71025000D02*
X115125000Y-70425000D01*
X112125000Y-71025000D02*
G75*
G03X115125000Y-71025000I1500000J0D01*
G01*
X109825000Y-72525000D02*
G75*
G03X107425000Y-70525000I-1200000J1000000D01*
G01*
X115125000Y-70425000D02*
G75*
G03X112125000Y-70425000I-1500000J0D01*
G01*
X96700000Y-52875000D02*
G75*
G03X99100000Y-54875000I1200000J-1000000D01*
G01*
X99100000Y-54875000D02*
X100345861Y-53417247D01*
X96654139Y-52932753D02*
X97900000Y-51475000D01*
X102600000Y-51975000D02*
X102600000Y-51375000D01*
X105600000Y-51975000D02*
X105600000Y-51375000D01*
X102600000Y-51975000D02*
G75*
G03X105600000Y-51975000I1500000J0D01*
G01*
X100300000Y-53475000D02*
G75*
G03X97900000Y-51475000I-1200000J1000000D01*
G01*
X105600000Y-51375000D02*
G75*
G03X102600000Y-51375000I-1500000J0D01*
G01*
X101462500Y-110025000D02*
G75*
G03X103862500Y-112025000I1200000J-1000000D01*
G01*
X103862500Y-112025000D02*
X105108361Y-110567247D01*
X101416639Y-110082753D02*
X102662500Y-108625000D01*
X107362500Y-109125000D02*
X107362500Y-108525000D01*
X110362500Y-109125000D02*
X110362500Y-108525000D01*
X107362500Y-109125000D02*
G75*
G03X110362500Y-109125000I1500000J0D01*
G01*
X105062500Y-110625000D02*
G75*
G03X102662500Y-108625000I-1200000J1000000D01*
G01*
X110362500Y-108525000D02*
G75*
G03X107362500Y-108525000I-1500000J0D01*
G01*
X91937500Y-90975000D02*
G75*
G03X94337500Y-92975000I1200000J-1000000D01*
G01*
X94337500Y-92975000D02*
X95583361Y-91517247D01*
X91891639Y-91032753D02*
X93137500Y-89575000D01*
X97837500Y-90075000D02*
X97837500Y-89475000D01*
X100837500Y-90075000D02*
X100837500Y-89475000D01*
X97837500Y-90075000D02*
G75*
G03X100837500Y-90075000I1500000J0D01*
G01*
X95537500Y-91575000D02*
G75*
G03X93137500Y-89575000I-1200000J1000000D01*
G01*
X100837500Y-89475000D02*
G75*
G03X97837500Y-89475000I-1500000J0D01*
G01*
X87175000Y-71925000D02*
G75*
G03X89575000Y-73925000I1200000J-1000000D01*
G01*
X89575000Y-73925000D02*
X90820861Y-72467247D01*
X87129139Y-71982753D02*
X88375000Y-70525000D01*
X93075000Y-71025000D02*
X93075000Y-70425000D01*
X96075000Y-71025000D02*
X96075000Y-70425000D01*
X93075000Y-71025000D02*
G75*
G03X96075000Y-71025000I1500000J0D01*
G01*
X90775000Y-72525000D02*
G75*
G03X88375000Y-70525000I-1200000J1000000D01*
G01*
X96075000Y-70425000D02*
G75*
G03X93075000Y-70425000I-1500000J0D01*
G01*
X77650000Y-52875000D02*
G75*
G03X80050000Y-54875000I1200000J-1000000D01*
G01*
X80050000Y-54875000D02*
X81295861Y-53417247D01*
X77604139Y-52932753D02*
X78850000Y-51475000D01*
X83550000Y-51975000D02*
X83550000Y-51375000D01*
X86550000Y-51975000D02*
X86550000Y-51375000D01*
X83550000Y-51975000D02*
G75*
G03X86550000Y-51975000I1500000J0D01*
G01*
X81250000Y-53475000D02*
G75*
G03X78850000Y-51475000I-1200000J1000000D01*
G01*
X86550000Y-51375000D02*
G75*
G03X83550000Y-51375000I-1500000J0D01*
G01*
X70460389Y-129132753D02*
G75*
G03X72906250Y-131075000I1245861J-942247D01*
G01*
X72906250Y-131075000D02*
X74152111Y-129617247D01*
X70460389Y-129132753D02*
X71706250Y-127675000D01*
X76406250Y-128175000D02*
X76406250Y-127575000D01*
X79406250Y-128175000D02*
X79406250Y-127575000D01*
X76406250Y-128175000D02*
G75*
G03X79406250Y-128175000I1500000J0D01*
G01*
X74152111Y-129617247D02*
G75*
G03X71706250Y-127675000I-1245861J942247D01*
G01*
X79406250Y-127575000D02*
G75*
G03X76406250Y-127575000I-1500000J0D01*
G01*
X72887500Y-90975000D02*
G75*
G03X75287500Y-92975000I1200000J-1000000D01*
G01*
X75287500Y-92975000D02*
X76533361Y-91517247D01*
X72841639Y-91032753D02*
X74087500Y-89575000D01*
X78787500Y-90075000D02*
X78787500Y-89475000D01*
X81787500Y-90075000D02*
X81787500Y-89475000D01*
X78787500Y-90075000D02*
G75*
G03X81787500Y-90075000I1500000J0D01*
G01*
X76487500Y-91575000D02*
G75*
G03X74087500Y-89575000I-1200000J1000000D01*
G01*
X81787500Y-89475000D02*
G75*
G03X78787500Y-89475000I-1500000J0D01*
G01*
X58600000Y-52875000D02*
G75*
G03X61000000Y-54875000I1200000J-1000000D01*
G01*
X61000000Y-54875000D02*
X62245861Y-53417247D01*
X58554139Y-52932753D02*
X59800000Y-51475000D01*
X64500000Y-51975000D02*
X64500000Y-51375000D01*
X67500000Y-51975000D02*
X67500000Y-51375000D01*
X64500000Y-51975000D02*
G75*
G03X67500000Y-51975000I1500000J0D01*
G01*
X62200000Y-53475000D02*
G75*
G03X59800000Y-51475000I-1200000J1000000D01*
G01*
X67500000Y-51375000D02*
G75*
G03X64500000Y-51375000I-1500000J0D01*
G01*
X63362500Y-110025000D02*
G75*
G03X65762500Y-112025000I1200000J-1000000D01*
G01*
X65762500Y-112025000D02*
X67008361Y-110567247D01*
X63316639Y-110082753D02*
X64562500Y-108625000D01*
X69262500Y-109125000D02*
X69262500Y-108525000D01*
X72262500Y-109125000D02*
X72262500Y-108525000D01*
X69262500Y-109125000D02*
G75*
G03X72262500Y-109125000I1500000J0D01*
G01*
X66962500Y-110625000D02*
G75*
G03X64562500Y-108625000I-1200000J1000000D01*
G01*
X72262500Y-108525000D02*
G75*
G03X69262500Y-108525000I-1500000J0D01*
G01*
X53837500Y-90975000D02*
G75*
G03X56237500Y-92975000I1200000J-1000000D01*
G01*
X56237500Y-92975000D02*
X57483361Y-91517247D01*
X53791639Y-91032753D02*
X55037500Y-89575000D01*
X59737500Y-90075000D02*
X59737500Y-89475000D01*
X62737500Y-90075000D02*
X62737500Y-89475000D01*
X59737500Y-90075000D02*
G75*
G03X62737500Y-90075000I1500000J0D01*
G01*
X57437500Y-91575000D02*
G75*
G03X55037500Y-89575000I-1200000J1000000D01*
G01*
X62737500Y-89475000D02*
G75*
G03X59737500Y-89475000I-1500000J0D01*
G01*
X49075000Y-71925000D02*
G75*
G03X51475000Y-73925000I1200000J-1000000D01*
G01*
X51475000Y-73925000D02*
X52720861Y-72467247D01*
X49029139Y-71982753D02*
X50275000Y-70525000D01*
X54975000Y-71025000D02*
X54975000Y-70425000D01*
X57975000Y-71025000D02*
X57975000Y-70425000D01*
X54975000Y-71025000D02*
G75*
G03X57975000Y-71025000I1500000J0D01*
G01*
X52675000Y-72525000D02*
G75*
G03X50275000Y-70525000I-1200000J1000000D01*
G01*
X57975000Y-70425000D02*
G75*
G03X54975000Y-70425000I-1500000J0D01*
G01*
X39550000Y-52875000D02*
G75*
G03X41950000Y-54875000I1200000J-1000000D01*
G01*
X41950000Y-54875000D02*
X43195861Y-53417247D01*
X39504139Y-52932753D02*
X40750000Y-51475000D01*
X45450000Y-51975000D02*
X45450000Y-51375000D01*
X48450000Y-51975000D02*
X48450000Y-51375000D01*
X45450000Y-51975000D02*
G75*
G03X48450000Y-51975000I1500000J0D01*
G01*
X43150000Y-53475000D02*
G75*
G03X40750000Y-51475000I-1200000J1000000D01*
G01*
X48450000Y-51375000D02*
G75*
G03X45450000Y-51375000I-1500000J0D01*
G01*
D11*
X35040000Y-59511252D02*
X35040000Y-58988748D01*
X36460000Y-59511252D02*
X36460000Y-58988748D01*
X190910000Y-141838748D02*
X190910000Y-142361252D01*
X189490000Y-141838748D02*
X189490000Y-142361252D01*
D10*
X42186904Y-133778571D02*
X41386904Y-133778571D01*
X41386904Y-133969047D01*
X41425000Y-134083333D01*
X41501190Y-134159523D01*
X41577380Y-134197619D01*
X41729761Y-134235714D01*
X41844047Y-134235714D01*
X41996428Y-134197619D01*
X42072619Y-134159523D01*
X42148809Y-134083333D01*
X42186904Y-133969047D01*
X42186904Y-133778571D01*
X42186904Y-134997619D02*
X42186904Y-134540476D01*
X42186904Y-134769047D02*
X41386904Y-134769047D01*
X41501190Y-134692857D01*
X41577380Y-134616666D01*
X41615476Y-134540476D01*
X41386904Y-135492857D02*
X41386904Y-135569047D01*
X41425000Y-135645238D01*
X41463095Y-135683333D01*
X41539285Y-135721428D01*
X41691666Y-135759523D01*
X41882142Y-135759523D01*
X42034523Y-135721428D01*
X42110714Y-135683333D01*
X42148809Y-135645238D01*
X42186904Y-135569047D01*
X42186904Y-135492857D01*
X42148809Y-135416666D01*
X42110714Y-135378571D01*
X42034523Y-135340476D01*
X41882142Y-135302380D01*
X41691666Y-135302380D01*
X41539285Y-135340476D01*
X41463095Y-135378571D01*
X41425000Y-135416666D01*
X41386904Y-135492857D01*
X260186904Y-133778571D02*
X259386904Y-133778571D01*
X259386904Y-133969047D01*
X259425000Y-134083333D01*
X259501190Y-134159523D01*
X259577380Y-134197619D01*
X259729761Y-134235714D01*
X259844047Y-134235714D01*
X259996428Y-134197619D01*
X260072619Y-134159523D01*
X260148809Y-134083333D01*
X260186904Y-133969047D01*
X260186904Y-133778571D01*
X259386904Y-134502380D02*
X259386904Y-135035714D01*
X260186904Y-134692857D01*
X259386904Y-135492857D02*
X259386904Y-135569047D01*
X259425000Y-135645238D01*
X259463095Y-135683333D01*
X259539285Y-135721428D01*
X259691666Y-135759523D01*
X259882142Y-135759523D01*
X260034523Y-135721428D01*
X260110714Y-135683333D01*
X260148809Y-135645238D01*
X260186904Y-135569047D01*
X260186904Y-135492857D01*
X260148809Y-135416666D01*
X260110714Y-135378571D01*
X260034523Y-135340476D01*
X259882142Y-135302380D01*
X259691666Y-135302380D01*
X259539285Y-135340476D01*
X259463095Y-135378571D01*
X259425000Y-135416666D01*
X259386904Y-135492857D01*
X301686904Y-76778571D02*
X300886904Y-76778571D01*
X300886904Y-76969047D01*
X300925000Y-77083333D01*
X301001190Y-77159523D01*
X301077380Y-77197619D01*
X301229761Y-77235714D01*
X301344047Y-77235714D01*
X301496428Y-77197619D01*
X301572619Y-77159523D01*
X301648809Y-77083333D01*
X301686904Y-76969047D01*
X301686904Y-76778571D01*
X300886904Y-77921428D02*
X300886904Y-77769047D01*
X300925000Y-77692857D01*
X300963095Y-77654761D01*
X301077380Y-77578571D01*
X301229761Y-77540476D01*
X301534523Y-77540476D01*
X301610714Y-77578571D01*
X301648809Y-77616666D01*
X301686904Y-77692857D01*
X301686904Y-77845238D01*
X301648809Y-77921428D01*
X301610714Y-77959523D01*
X301534523Y-77997619D01*
X301344047Y-77997619D01*
X301267857Y-77959523D01*
X301229761Y-77921428D01*
X301191666Y-77845238D01*
X301191666Y-77692857D01*
X301229761Y-77616666D01*
X301267857Y-77578571D01*
X301344047Y-77540476D01*
X300886904Y-78264285D02*
X300886904Y-78797619D01*
X301686904Y-78454761D01*
X301686904Y-57528571D02*
X300886904Y-57528571D01*
X300886904Y-57719047D01*
X300925000Y-57833333D01*
X301001190Y-57909523D01*
X301077380Y-57947619D01*
X301229761Y-57985714D01*
X301344047Y-57985714D01*
X301496428Y-57947619D01*
X301572619Y-57909523D01*
X301648809Y-57833333D01*
X301686904Y-57719047D01*
X301686904Y-57528571D01*
X300886904Y-58671428D02*
X300886904Y-58519047D01*
X300925000Y-58442857D01*
X300963095Y-58404761D01*
X301077380Y-58328571D01*
X301229761Y-58290476D01*
X301534523Y-58290476D01*
X301610714Y-58328571D01*
X301648809Y-58366666D01*
X301686904Y-58442857D01*
X301686904Y-58595238D01*
X301648809Y-58671428D01*
X301610714Y-58709523D01*
X301534523Y-58747619D01*
X301344047Y-58747619D01*
X301267857Y-58709523D01*
X301229761Y-58671428D01*
X301191666Y-58595238D01*
X301191666Y-58442857D01*
X301229761Y-58366666D01*
X301267857Y-58328571D01*
X301344047Y-58290476D01*
X300886904Y-59433333D02*
X300886904Y-59280952D01*
X300925000Y-59204761D01*
X300963095Y-59166666D01*
X301077380Y-59090476D01*
X301229761Y-59052380D01*
X301534523Y-59052380D01*
X301610714Y-59090476D01*
X301648809Y-59128571D01*
X301686904Y-59204761D01*
X301686904Y-59357142D01*
X301648809Y-59433333D01*
X301610714Y-59471428D01*
X301534523Y-59509523D01*
X301344047Y-59509523D01*
X301267857Y-59471428D01*
X301229761Y-59433333D01*
X301191666Y-59357142D01*
X301191666Y-59204761D01*
X301229761Y-59128571D01*
X301267857Y-59090476D01*
X301344047Y-59052380D01*
X301686904Y-133778571D02*
X300886904Y-133778571D01*
X300886904Y-133969047D01*
X300925000Y-134083333D01*
X301001190Y-134159523D01*
X301077380Y-134197619D01*
X301229761Y-134235714D01*
X301344047Y-134235714D01*
X301496428Y-134197619D01*
X301572619Y-134159523D01*
X301648809Y-134083333D01*
X301686904Y-133969047D01*
X301686904Y-133778571D01*
X300886904Y-134921428D02*
X300886904Y-134769047D01*
X300925000Y-134692857D01*
X300963095Y-134654761D01*
X301077380Y-134578571D01*
X301229761Y-134540476D01*
X301534523Y-134540476D01*
X301610714Y-134578571D01*
X301648809Y-134616666D01*
X301686904Y-134692857D01*
X301686904Y-134845238D01*
X301648809Y-134921428D01*
X301610714Y-134959523D01*
X301534523Y-134997619D01*
X301344047Y-134997619D01*
X301267857Y-134959523D01*
X301229761Y-134921428D01*
X301191666Y-134845238D01*
X301191666Y-134692857D01*
X301229761Y-134616666D01*
X301267857Y-134578571D01*
X301344047Y-134540476D01*
X300886904Y-135721428D02*
X300886904Y-135340476D01*
X301267857Y-135302380D01*
X301229761Y-135340476D01*
X301191666Y-135416666D01*
X301191666Y-135607142D01*
X301229761Y-135683333D01*
X301267857Y-135721428D01*
X301344047Y-135759523D01*
X301534523Y-135759523D01*
X301610714Y-135721428D01*
X301648809Y-135683333D01*
X301686904Y-135607142D01*
X301686904Y-135416666D01*
X301648809Y-135340476D01*
X301610714Y-135302380D01*
X301686904Y-114278571D02*
X300886904Y-114278571D01*
X300886904Y-114469047D01*
X300925000Y-114583333D01*
X301001190Y-114659523D01*
X301077380Y-114697619D01*
X301229761Y-114735714D01*
X301344047Y-114735714D01*
X301496428Y-114697619D01*
X301572619Y-114659523D01*
X301648809Y-114583333D01*
X301686904Y-114469047D01*
X301686904Y-114278571D01*
X300886904Y-115421428D02*
X300886904Y-115269047D01*
X300925000Y-115192857D01*
X300963095Y-115154761D01*
X301077380Y-115078571D01*
X301229761Y-115040476D01*
X301534523Y-115040476D01*
X301610714Y-115078571D01*
X301648809Y-115116666D01*
X301686904Y-115192857D01*
X301686904Y-115345238D01*
X301648809Y-115421428D01*
X301610714Y-115459523D01*
X301534523Y-115497619D01*
X301344047Y-115497619D01*
X301267857Y-115459523D01*
X301229761Y-115421428D01*
X301191666Y-115345238D01*
X301191666Y-115192857D01*
X301229761Y-115116666D01*
X301267857Y-115078571D01*
X301344047Y-115040476D01*
X301153571Y-116183333D02*
X301686904Y-116183333D01*
X300848809Y-115992857D02*
X301420238Y-115802380D01*
X301420238Y-116297619D01*
X301686904Y-95778571D02*
X300886904Y-95778571D01*
X300886904Y-95969047D01*
X300925000Y-96083333D01*
X301001190Y-96159523D01*
X301077380Y-96197619D01*
X301229761Y-96235714D01*
X301344047Y-96235714D01*
X301496428Y-96197619D01*
X301572619Y-96159523D01*
X301648809Y-96083333D01*
X301686904Y-95969047D01*
X301686904Y-95778571D01*
X300886904Y-96921428D02*
X300886904Y-96769047D01*
X300925000Y-96692857D01*
X300963095Y-96654761D01*
X301077380Y-96578571D01*
X301229761Y-96540476D01*
X301534523Y-96540476D01*
X301610714Y-96578571D01*
X301648809Y-96616666D01*
X301686904Y-96692857D01*
X301686904Y-96845238D01*
X301648809Y-96921428D01*
X301610714Y-96959523D01*
X301534523Y-96997619D01*
X301344047Y-96997619D01*
X301267857Y-96959523D01*
X301229761Y-96921428D01*
X301191666Y-96845238D01*
X301191666Y-96692857D01*
X301229761Y-96616666D01*
X301267857Y-96578571D01*
X301344047Y-96540476D01*
X300886904Y-97264285D02*
X300886904Y-97759523D01*
X301191666Y-97492857D01*
X301191666Y-97607142D01*
X301229761Y-97683333D01*
X301267857Y-97721428D01*
X301344047Y-97759523D01*
X301534523Y-97759523D01*
X301610714Y-97721428D01*
X301648809Y-97683333D01*
X301686904Y-97607142D01*
X301686904Y-97378571D01*
X301648809Y-97302380D01*
X301610714Y-97264285D01*
X277936904Y-76528571D02*
X277136904Y-76528571D01*
X277136904Y-76719047D01*
X277175000Y-76833333D01*
X277251190Y-76909523D01*
X277327380Y-76947619D01*
X277479761Y-76985714D01*
X277594047Y-76985714D01*
X277746428Y-76947619D01*
X277822619Y-76909523D01*
X277898809Y-76833333D01*
X277936904Y-76719047D01*
X277936904Y-76528571D01*
X277136904Y-77671428D02*
X277136904Y-77519047D01*
X277175000Y-77442857D01*
X277213095Y-77404761D01*
X277327380Y-77328571D01*
X277479761Y-77290476D01*
X277784523Y-77290476D01*
X277860714Y-77328571D01*
X277898809Y-77366666D01*
X277936904Y-77442857D01*
X277936904Y-77595238D01*
X277898809Y-77671428D01*
X277860714Y-77709523D01*
X277784523Y-77747619D01*
X277594047Y-77747619D01*
X277517857Y-77709523D01*
X277479761Y-77671428D01*
X277441666Y-77595238D01*
X277441666Y-77442857D01*
X277479761Y-77366666D01*
X277517857Y-77328571D01*
X277594047Y-77290476D01*
X277213095Y-78052380D02*
X277175000Y-78090476D01*
X277136904Y-78166666D01*
X277136904Y-78357142D01*
X277175000Y-78433333D01*
X277213095Y-78471428D01*
X277289285Y-78509523D01*
X277365476Y-78509523D01*
X277479761Y-78471428D01*
X277936904Y-78014285D01*
X277936904Y-78509523D01*
X272936904Y-57528571D02*
X272136904Y-57528571D01*
X272136904Y-57719047D01*
X272175000Y-57833333D01*
X272251190Y-57909523D01*
X272327380Y-57947619D01*
X272479761Y-57985714D01*
X272594047Y-57985714D01*
X272746428Y-57947619D01*
X272822619Y-57909523D01*
X272898809Y-57833333D01*
X272936904Y-57719047D01*
X272936904Y-57528571D01*
X272136904Y-58671428D02*
X272136904Y-58519047D01*
X272175000Y-58442857D01*
X272213095Y-58404761D01*
X272327380Y-58328571D01*
X272479761Y-58290476D01*
X272784523Y-58290476D01*
X272860714Y-58328571D01*
X272898809Y-58366666D01*
X272936904Y-58442857D01*
X272936904Y-58595238D01*
X272898809Y-58671428D01*
X272860714Y-58709523D01*
X272784523Y-58747619D01*
X272594047Y-58747619D01*
X272517857Y-58709523D01*
X272479761Y-58671428D01*
X272441666Y-58595238D01*
X272441666Y-58442857D01*
X272479761Y-58366666D01*
X272517857Y-58328571D01*
X272594047Y-58290476D01*
X272936904Y-59509523D02*
X272936904Y-59052380D01*
X272936904Y-59280952D02*
X272136904Y-59280952D01*
X272251190Y-59204761D01*
X272327380Y-59128571D01*
X272365476Y-59052380D01*
X282686904Y-133778571D02*
X281886904Y-133778571D01*
X281886904Y-133969047D01*
X281925000Y-134083333D01*
X282001190Y-134159523D01*
X282077380Y-134197619D01*
X282229761Y-134235714D01*
X282344047Y-134235714D01*
X282496428Y-134197619D01*
X282572619Y-134159523D01*
X282648809Y-134083333D01*
X282686904Y-133969047D01*
X282686904Y-133778571D01*
X281886904Y-134921428D02*
X281886904Y-134769047D01*
X281925000Y-134692857D01*
X281963095Y-134654761D01*
X282077380Y-134578571D01*
X282229761Y-134540476D01*
X282534523Y-134540476D01*
X282610714Y-134578571D01*
X282648809Y-134616666D01*
X282686904Y-134692857D01*
X282686904Y-134845238D01*
X282648809Y-134921428D01*
X282610714Y-134959523D01*
X282534523Y-134997619D01*
X282344047Y-134997619D01*
X282267857Y-134959523D01*
X282229761Y-134921428D01*
X282191666Y-134845238D01*
X282191666Y-134692857D01*
X282229761Y-134616666D01*
X282267857Y-134578571D01*
X282344047Y-134540476D01*
X281886904Y-135492857D02*
X281886904Y-135569047D01*
X281925000Y-135645238D01*
X281963095Y-135683333D01*
X282039285Y-135721428D01*
X282191666Y-135759523D01*
X282382142Y-135759523D01*
X282534523Y-135721428D01*
X282610714Y-135683333D01*
X282648809Y-135645238D01*
X282686904Y-135569047D01*
X282686904Y-135492857D01*
X282648809Y-135416666D01*
X282610714Y-135378571D01*
X282534523Y-135340476D01*
X282382142Y-135302380D01*
X282191666Y-135302380D01*
X282039285Y-135340476D01*
X281963095Y-135378571D01*
X281925000Y-135416666D01*
X281886904Y-135492857D01*
X282686904Y-114278571D02*
X281886904Y-114278571D01*
X281886904Y-114469047D01*
X281925000Y-114583333D01*
X282001190Y-114659523D01*
X282077380Y-114697619D01*
X282229761Y-114735714D01*
X282344047Y-114735714D01*
X282496428Y-114697619D01*
X282572619Y-114659523D01*
X282648809Y-114583333D01*
X282686904Y-114469047D01*
X282686904Y-114278571D01*
X281886904Y-115459523D02*
X281886904Y-115078571D01*
X282267857Y-115040476D01*
X282229761Y-115078571D01*
X282191666Y-115154761D01*
X282191666Y-115345238D01*
X282229761Y-115421428D01*
X282267857Y-115459523D01*
X282344047Y-115497619D01*
X282534523Y-115497619D01*
X282610714Y-115459523D01*
X282648809Y-115421428D01*
X282686904Y-115345238D01*
X282686904Y-115154761D01*
X282648809Y-115078571D01*
X282610714Y-115040476D01*
X282686904Y-115878571D02*
X282686904Y-116030952D01*
X282648809Y-116107142D01*
X282610714Y-116145238D01*
X282496428Y-116221428D01*
X282344047Y-116259523D01*
X282039285Y-116259523D01*
X281963095Y-116221428D01*
X281925000Y-116183333D01*
X281886904Y-116107142D01*
X281886904Y-115954761D01*
X281925000Y-115878571D01*
X281963095Y-115840476D01*
X282039285Y-115802380D01*
X282229761Y-115802380D01*
X282305952Y-115840476D01*
X282344047Y-115878571D01*
X282382142Y-115954761D01*
X282382142Y-116107142D01*
X282344047Y-116183333D01*
X282305952Y-116221428D01*
X282229761Y-116259523D01*
X270436904Y-95528571D02*
X269636904Y-95528571D01*
X269636904Y-95719047D01*
X269675000Y-95833333D01*
X269751190Y-95909523D01*
X269827380Y-95947619D01*
X269979761Y-95985714D01*
X270094047Y-95985714D01*
X270246428Y-95947619D01*
X270322619Y-95909523D01*
X270398809Y-95833333D01*
X270436904Y-95719047D01*
X270436904Y-95528571D01*
X269636904Y-96709523D02*
X269636904Y-96328571D01*
X270017857Y-96290476D01*
X269979761Y-96328571D01*
X269941666Y-96404761D01*
X269941666Y-96595238D01*
X269979761Y-96671428D01*
X270017857Y-96709523D01*
X270094047Y-96747619D01*
X270284523Y-96747619D01*
X270360714Y-96709523D01*
X270398809Y-96671428D01*
X270436904Y-96595238D01*
X270436904Y-96404761D01*
X270398809Y-96328571D01*
X270360714Y-96290476D01*
X269979761Y-97204761D02*
X269941666Y-97128571D01*
X269903571Y-97090476D01*
X269827380Y-97052380D01*
X269789285Y-97052380D01*
X269713095Y-97090476D01*
X269675000Y-97128571D01*
X269636904Y-97204761D01*
X269636904Y-97357142D01*
X269675000Y-97433333D01*
X269713095Y-97471428D01*
X269789285Y-97509523D01*
X269827380Y-97509523D01*
X269903571Y-97471428D01*
X269941666Y-97433333D01*
X269979761Y-97357142D01*
X269979761Y-97204761D01*
X270017857Y-97128571D01*
X270055952Y-97090476D01*
X270132142Y-97052380D01*
X270284523Y-97052380D01*
X270360714Y-97090476D01*
X270398809Y-97128571D01*
X270436904Y-97204761D01*
X270436904Y-97357142D01*
X270398809Y-97433333D01*
X270360714Y-97471428D01*
X270284523Y-97509523D01*
X270132142Y-97509523D01*
X270055952Y-97471428D01*
X270017857Y-97433333D01*
X269979761Y-97357142D01*
X254186904Y-76778571D02*
X253386904Y-76778571D01*
X253386904Y-76969047D01*
X253425000Y-77083333D01*
X253501190Y-77159523D01*
X253577380Y-77197619D01*
X253729761Y-77235714D01*
X253844047Y-77235714D01*
X253996428Y-77197619D01*
X254072619Y-77159523D01*
X254148809Y-77083333D01*
X254186904Y-76969047D01*
X254186904Y-76778571D01*
X253386904Y-77959523D02*
X253386904Y-77578571D01*
X253767857Y-77540476D01*
X253729761Y-77578571D01*
X253691666Y-77654761D01*
X253691666Y-77845238D01*
X253729761Y-77921428D01*
X253767857Y-77959523D01*
X253844047Y-77997619D01*
X254034523Y-77997619D01*
X254110714Y-77959523D01*
X254148809Y-77921428D01*
X254186904Y-77845238D01*
X254186904Y-77654761D01*
X254148809Y-77578571D01*
X254110714Y-77540476D01*
X253386904Y-78264285D02*
X253386904Y-78797619D01*
X254186904Y-78454761D01*
X244686904Y-57528571D02*
X243886904Y-57528571D01*
X243886904Y-57719047D01*
X243925000Y-57833333D01*
X244001190Y-57909523D01*
X244077380Y-57947619D01*
X244229761Y-57985714D01*
X244344047Y-57985714D01*
X244496428Y-57947619D01*
X244572619Y-57909523D01*
X244648809Y-57833333D01*
X244686904Y-57719047D01*
X244686904Y-57528571D01*
X243886904Y-58709523D02*
X243886904Y-58328571D01*
X244267857Y-58290476D01*
X244229761Y-58328571D01*
X244191666Y-58404761D01*
X244191666Y-58595238D01*
X244229761Y-58671428D01*
X244267857Y-58709523D01*
X244344047Y-58747619D01*
X244534523Y-58747619D01*
X244610714Y-58709523D01*
X244648809Y-58671428D01*
X244686904Y-58595238D01*
X244686904Y-58404761D01*
X244648809Y-58328571D01*
X244610714Y-58290476D01*
X243886904Y-59433333D02*
X243886904Y-59280952D01*
X243925000Y-59204761D01*
X243963095Y-59166666D01*
X244077380Y-59090476D01*
X244229761Y-59052380D01*
X244534523Y-59052380D01*
X244610714Y-59090476D01*
X244648809Y-59128571D01*
X244686904Y-59204761D01*
X244686904Y-59357142D01*
X244648809Y-59433333D01*
X244610714Y-59471428D01*
X244534523Y-59509523D01*
X244344047Y-59509523D01*
X244267857Y-59471428D01*
X244229761Y-59433333D01*
X244191666Y-59357142D01*
X244191666Y-59204761D01*
X244229761Y-59128571D01*
X244267857Y-59090476D01*
X244344047Y-59052380D01*
X263686904Y-133778571D02*
X262886904Y-133778571D01*
X262886904Y-133969047D01*
X262925000Y-134083333D01*
X263001190Y-134159523D01*
X263077380Y-134197619D01*
X263229761Y-134235714D01*
X263344047Y-134235714D01*
X263496428Y-134197619D01*
X263572619Y-134159523D01*
X263648809Y-134083333D01*
X263686904Y-133969047D01*
X263686904Y-133778571D01*
X262886904Y-134959523D02*
X262886904Y-134578571D01*
X263267857Y-134540476D01*
X263229761Y-134578571D01*
X263191666Y-134654761D01*
X263191666Y-134845238D01*
X263229761Y-134921428D01*
X263267857Y-134959523D01*
X263344047Y-134997619D01*
X263534523Y-134997619D01*
X263610714Y-134959523D01*
X263648809Y-134921428D01*
X263686904Y-134845238D01*
X263686904Y-134654761D01*
X263648809Y-134578571D01*
X263610714Y-134540476D01*
X262886904Y-135721428D02*
X262886904Y-135340476D01*
X263267857Y-135302380D01*
X263229761Y-135340476D01*
X263191666Y-135416666D01*
X263191666Y-135607142D01*
X263229761Y-135683333D01*
X263267857Y-135721428D01*
X263344047Y-135759523D01*
X263534523Y-135759523D01*
X263610714Y-135721428D01*
X263648809Y-135683333D01*
X263686904Y-135607142D01*
X263686904Y-135416666D01*
X263648809Y-135340476D01*
X263610714Y-135302380D01*
X256436904Y-114278571D02*
X255636904Y-114278571D01*
X255636904Y-114469047D01*
X255675000Y-114583333D01*
X255751190Y-114659523D01*
X255827380Y-114697619D01*
X255979761Y-114735714D01*
X256094047Y-114735714D01*
X256246428Y-114697619D01*
X256322619Y-114659523D01*
X256398809Y-114583333D01*
X256436904Y-114469047D01*
X256436904Y-114278571D01*
X255636904Y-115459523D02*
X255636904Y-115078571D01*
X256017857Y-115040476D01*
X255979761Y-115078571D01*
X255941666Y-115154761D01*
X255941666Y-115345238D01*
X255979761Y-115421428D01*
X256017857Y-115459523D01*
X256094047Y-115497619D01*
X256284523Y-115497619D01*
X256360714Y-115459523D01*
X256398809Y-115421428D01*
X256436904Y-115345238D01*
X256436904Y-115154761D01*
X256398809Y-115078571D01*
X256360714Y-115040476D01*
X255903571Y-116183333D02*
X256436904Y-116183333D01*
X255598809Y-115992857D02*
X256170238Y-115802380D01*
X256170238Y-116297619D01*
X239686904Y-95778571D02*
X238886904Y-95778571D01*
X238886904Y-95969047D01*
X238925000Y-96083333D01*
X239001190Y-96159523D01*
X239077380Y-96197619D01*
X239229761Y-96235714D01*
X239344047Y-96235714D01*
X239496428Y-96197619D01*
X239572619Y-96159523D01*
X239648809Y-96083333D01*
X239686904Y-95969047D01*
X239686904Y-95778571D01*
X238886904Y-96959523D02*
X238886904Y-96578571D01*
X239267857Y-96540476D01*
X239229761Y-96578571D01*
X239191666Y-96654761D01*
X239191666Y-96845238D01*
X239229761Y-96921428D01*
X239267857Y-96959523D01*
X239344047Y-96997619D01*
X239534523Y-96997619D01*
X239610714Y-96959523D01*
X239648809Y-96921428D01*
X239686904Y-96845238D01*
X239686904Y-96654761D01*
X239648809Y-96578571D01*
X239610714Y-96540476D01*
X238886904Y-97264285D02*
X238886904Y-97759523D01*
X239191666Y-97492857D01*
X239191666Y-97607142D01*
X239229761Y-97683333D01*
X239267857Y-97721428D01*
X239344047Y-97759523D01*
X239534523Y-97759523D01*
X239610714Y-97721428D01*
X239648809Y-97683333D01*
X239686904Y-97607142D01*
X239686904Y-97378571D01*
X239648809Y-97302380D01*
X239610714Y-97264285D01*
X234936904Y-76778571D02*
X234136904Y-76778571D01*
X234136904Y-76969047D01*
X234175000Y-77083333D01*
X234251190Y-77159523D01*
X234327380Y-77197619D01*
X234479761Y-77235714D01*
X234594047Y-77235714D01*
X234746428Y-77197619D01*
X234822619Y-77159523D01*
X234898809Y-77083333D01*
X234936904Y-76969047D01*
X234936904Y-76778571D01*
X234136904Y-77959523D02*
X234136904Y-77578571D01*
X234517857Y-77540476D01*
X234479761Y-77578571D01*
X234441666Y-77654761D01*
X234441666Y-77845238D01*
X234479761Y-77921428D01*
X234517857Y-77959523D01*
X234594047Y-77997619D01*
X234784523Y-77997619D01*
X234860714Y-77959523D01*
X234898809Y-77921428D01*
X234936904Y-77845238D01*
X234936904Y-77654761D01*
X234898809Y-77578571D01*
X234860714Y-77540476D01*
X234213095Y-78302380D02*
X234175000Y-78340476D01*
X234136904Y-78416666D01*
X234136904Y-78607142D01*
X234175000Y-78683333D01*
X234213095Y-78721428D01*
X234289285Y-78759523D01*
X234365476Y-78759523D01*
X234479761Y-78721428D01*
X234936904Y-78264285D01*
X234936904Y-78759523D01*
X225436904Y-57528571D02*
X224636904Y-57528571D01*
X224636904Y-57719047D01*
X224675000Y-57833333D01*
X224751190Y-57909523D01*
X224827380Y-57947619D01*
X224979761Y-57985714D01*
X225094047Y-57985714D01*
X225246428Y-57947619D01*
X225322619Y-57909523D01*
X225398809Y-57833333D01*
X225436904Y-57719047D01*
X225436904Y-57528571D01*
X224636904Y-58709523D02*
X224636904Y-58328571D01*
X225017857Y-58290476D01*
X224979761Y-58328571D01*
X224941666Y-58404761D01*
X224941666Y-58595238D01*
X224979761Y-58671428D01*
X225017857Y-58709523D01*
X225094047Y-58747619D01*
X225284523Y-58747619D01*
X225360714Y-58709523D01*
X225398809Y-58671428D01*
X225436904Y-58595238D01*
X225436904Y-58404761D01*
X225398809Y-58328571D01*
X225360714Y-58290476D01*
X225436904Y-59509523D02*
X225436904Y-59052380D01*
X225436904Y-59280952D02*
X224636904Y-59280952D01*
X224751190Y-59204761D01*
X224827380Y-59128571D01*
X224865476Y-59052380D01*
X225686904Y-133778571D02*
X224886904Y-133778571D01*
X224886904Y-133969047D01*
X224925000Y-134083333D01*
X225001190Y-134159523D01*
X225077380Y-134197619D01*
X225229761Y-134235714D01*
X225344047Y-134235714D01*
X225496428Y-134197619D01*
X225572619Y-134159523D01*
X225648809Y-134083333D01*
X225686904Y-133969047D01*
X225686904Y-133778571D01*
X224886904Y-134959523D02*
X224886904Y-134578571D01*
X225267857Y-134540476D01*
X225229761Y-134578571D01*
X225191666Y-134654761D01*
X225191666Y-134845238D01*
X225229761Y-134921428D01*
X225267857Y-134959523D01*
X225344047Y-134997619D01*
X225534523Y-134997619D01*
X225610714Y-134959523D01*
X225648809Y-134921428D01*
X225686904Y-134845238D01*
X225686904Y-134654761D01*
X225648809Y-134578571D01*
X225610714Y-134540476D01*
X224886904Y-135492857D02*
X224886904Y-135569047D01*
X224925000Y-135645238D01*
X224963095Y-135683333D01*
X225039285Y-135721428D01*
X225191666Y-135759523D01*
X225382142Y-135759523D01*
X225534523Y-135721428D01*
X225610714Y-135683333D01*
X225648809Y-135645238D01*
X225686904Y-135569047D01*
X225686904Y-135492857D01*
X225648809Y-135416666D01*
X225610714Y-135378571D01*
X225534523Y-135340476D01*
X225382142Y-135302380D01*
X225191666Y-135302380D01*
X225039285Y-135340476D01*
X224963095Y-135378571D01*
X224925000Y-135416666D01*
X224886904Y-135492857D01*
X230436904Y-114528571D02*
X229636904Y-114528571D01*
X229636904Y-114719047D01*
X229675000Y-114833333D01*
X229751190Y-114909523D01*
X229827380Y-114947619D01*
X229979761Y-114985714D01*
X230094047Y-114985714D01*
X230246428Y-114947619D01*
X230322619Y-114909523D01*
X230398809Y-114833333D01*
X230436904Y-114719047D01*
X230436904Y-114528571D01*
X229903571Y-115671428D02*
X230436904Y-115671428D01*
X229598809Y-115480952D02*
X230170238Y-115290476D01*
X230170238Y-115785714D01*
X230436904Y-116128571D02*
X230436904Y-116280952D01*
X230398809Y-116357142D01*
X230360714Y-116395238D01*
X230246428Y-116471428D01*
X230094047Y-116509523D01*
X229789285Y-116509523D01*
X229713095Y-116471428D01*
X229675000Y-116433333D01*
X229636904Y-116357142D01*
X229636904Y-116204761D01*
X229675000Y-116128571D01*
X229713095Y-116090476D01*
X229789285Y-116052380D01*
X229979761Y-116052380D01*
X230055952Y-116090476D01*
X230094047Y-116128571D01*
X230132142Y-116204761D01*
X230132142Y-116357142D01*
X230094047Y-116433333D01*
X230055952Y-116471428D01*
X229979761Y-116509523D01*
X220686904Y-95778571D02*
X219886904Y-95778571D01*
X219886904Y-95969047D01*
X219925000Y-96083333D01*
X220001190Y-96159523D01*
X220077380Y-96197619D01*
X220229761Y-96235714D01*
X220344047Y-96235714D01*
X220496428Y-96197619D01*
X220572619Y-96159523D01*
X220648809Y-96083333D01*
X220686904Y-95969047D01*
X220686904Y-95778571D01*
X220153571Y-96921428D02*
X220686904Y-96921428D01*
X219848809Y-96730952D02*
X220420238Y-96540476D01*
X220420238Y-97035714D01*
X220229761Y-97454761D02*
X220191666Y-97378571D01*
X220153571Y-97340476D01*
X220077380Y-97302380D01*
X220039285Y-97302380D01*
X219963095Y-97340476D01*
X219925000Y-97378571D01*
X219886904Y-97454761D01*
X219886904Y-97607142D01*
X219925000Y-97683333D01*
X219963095Y-97721428D01*
X220039285Y-97759523D01*
X220077380Y-97759523D01*
X220153571Y-97721428D01*
X220191666Y-97683333D01*
X220229761Y-97607142D01*
X220229761Y-97454761D01*
X220267857Y-97378571D01*
X220305952Y-97340476D01*
X220382142Y-97302380D01*
X220534523Y-97302380D01*
X220610714Y-97340476D01*
X220648809Y-97378571D01*
X220686904Y-97454761D01*
X220686904Y-97607142D01*
X220648809Y-97683333D01*
X220610714Y-97721428D01*
X220534523Y-97759523D01*
X220382142Y-97759523D01*
X220305952Y-97721428D01*
X220267857Y-97683333D01*
X220229761Y-97607142D01*
X215936904Y-76778571D02*
X215136904Y-76778571D01*
X215136904Y-76969047D01*
X215175000Y-77083333D01*
X215251190Y-77159523D01*
X215327380Y-77197619D01*
X215479761Y-77235714D01*
X215594047Y-77235714D01*
X215746428Y-77197619D01*
X215822619Y-77159523D01*
X215898809Y-77083333D01*
X215936904Y-76969047D01*
X215936904Y-76778571D01*
X215403571Y-77921428D02*
X215936904Y-77921428D01*
X215098809Y-77730952D02*
X215670238Y-77540476D01*
X215670238Y-78035714D01*
X215136904Y-78264285D02*
X215136904Y-78797619D01*
X215936904Y-78454761D01*
X206436904Y-57528571D02*
X205636904Y-57528571D01*
X205636904Y-57719047D01*
X205675000Y-57833333D01*
X205751190Y-57909523D01*
X205827380Y-57947619D01*
X205979761Y-57985714D01*
X206094047Y-57985714D01*
X206246428Y-57947619D01*
X206322619Y-57909523D01*
X206398809Y-57833333D01*
X206436904Y-57719047D01*
X206436904Y-57528571D01*
X205903571Y-58671428D02*
X206436904Y-58671428D01*
X205598809Y-58480952D02*
X206170238Y-58290476D01*
X206170238Y-58785714D01*
X205636904Y-59433333D02*
X205636904Y-59280952D01*
X205675000Y-59204761D01*
X205713095Y-59166666D01*
X205827380Y-59090476D01*
X205979761Y-59052380D01*
X206284523Y-59052380D01*
X206360714Y-59090476D01*
X206398809Y-59128571D01*
X206436904Y-59204761D01*
X206436904Y-59357142D01*
X206398809Y-59433333D01*
X206360714Y-59471428D01*
X206284523Y-59509523D01*
X206094047Y-59509523D01*
X206017857Y-59471428D01*
X205979761Y-59433333D01*
X205941666Y-59357142D01*
X205941666Y-59204761D01*
X205979761Y-59128571D01*
X206017857Y-59090476D01*
X206094047Y-59052380D01*
X206686904Y-133778571D02*
X205886904Y-133778571D01*
X205886904Y-133969047D01*
X205925000Y-134083333D01*
X206001190Y-134159523D01*
X206077380Y-134197619D01*
X206229761Y-134235714D01*
X206344047Y-134235714D01*
X206496428Y-134197619D01*
X206572619Y-134159523D01*
X206648809Y-134083333D01*
X206686904Y-133969047D01*
X206686904Y-133778571D01*
X206153571Y-134921428D02*
X206686904Y-134921428D01*
X205848809Y-134730952D02*
X206420238Y-134540476D01*
X206420238Y-135035714D01*
X205886904Y-135721428D02*
X205886904Y-135340476D01*
X206267857Y-135302380D01*
X206229761Y-135340476D01*
X206191666Y-135416666D01*
X206191666Y-135607142D01*
X206229761Y-135683333D01*
X206267857Y-135721428D01*
X206344047Y-135759523D01*
X206534523Y-135759523D01*
X206610714Y-135721428D01*
X206648809Y-135683333D01*
X206686904Y-135607142D01*
X206686904Y-135416666D01*
X206648809Y-135340476D01*
X206610714Y-135302380D01*
X211186904Y-114278571D02*
X210386904Y-114278571D01*
X210386904Y-114469047D01*
X210425000Y-114583333D01*
X210501190Y-114659523D01*
X210577380Y-114697619D01*
X210729761Y-114735714D01*
X210844047Y-114735714D01*
X210996428Y-114697619D01*
X211072619Y-114659523D01*
X211148809Y-114583333D01*
X211186904Y-114469047D01*
X211186904Y-114278571D01*
X210653571Y-115421428D02*
X211186904Y-115421428D01*
X210348809Y-115230952D02*
X210920238Y-115040476D01*
X210920238Y-115535714D01*
X210653571Y-116183333D02*
X211186904Y-116183333D01*
X210348809Y-115992857D02*
X210920238Y-115802380D01*
X210920238Y-116297619D01*
X201686904Y-95778571D02*
X200886904Y-95778571D01*
X200886904Y-95969047D01*
X200925000Y-96083333D01*
X201001190Y-96159523D01*
X201077380Y-96197619D01*
X201229761Y-96235714D01*
X201344047Y-96235714D01*
X201496428Y-96197619D01*
X201572619Y-96159523D01*
X201648809Y-96083333D01*
X201686904Y-95969047D01*
X201686904Y-95778571D01*
X201153571Y-96921428D02*
X201686904Y-96921428D01*
X200848809Y-96730952D02*
X201420238Y-96540476D01*
X201420238Y-97035714D01*
X200886904Y-97264285D02*
X200886904Y-97759523D01*
X201191666Y-97492857D01*
X201191666Y-97607142D01*
X201229761Y-97683333D01*
X201267857Y-97721428D01*
X201344047Y-97759523D01*
X201534523Y-97759523D01*
X201610714Y-97721428D01*
X201648809Y-97683333D01*
X201686904Y-97607142D01*
X201686904Y-97378571D01*
X201648809Y-97302380D01*
X201610714Y-97264285D01*
X197186904Y-76778571D02*
X196386904Y-76778571D01*
X196386904Y-76969047D01*
X196425000Y-77083333D01*
X196501190Y-77159523D01*
X196577380Y-77197619D01*
X196729761Y-77235714D01*
X196844047Y-77235714D01*
X196996428Y-77197619D01*
X197072619Y-77159523D01*
X197148809Y-77083333D01*
X197186904Y-76969047D01*
X197186904Y-76778571D01*
X196653571Y-77921428D02*
X197186904Y-77921428D01*
X196348809Y-77730952D02*
X196920238Y-77540476D01*
X196920238Y-78035714D01*
X196463095Y-78302380D02*
X196425000Y-78340476D01*
X196386904Y-78416666D01*
X196386904Y-78607142D01*
X196425000Y-78683333D01*
X196463095Y-78721428D01*
X196539285Y-78759523D01*
X196615476Y-78759523D01*
X196729761Y-78721428D01*
X197186904Y-78264285D01*
X197186904Y-78759523D01*
X187436904Y-57528571D02*
X186636904Y-57528571D01*
X186636904Y-57719047D01*
X186675000Y-57833333D01*
X186751190Y-57909523D01*
X186827380Y-57947619D01*
X186979761Y-57985714D01*
X187094047Y-57985714D01*
X187246428Y-57947619D01*
X187322619Y-57909523D01*
X187398809Y-57833333D01*
X187436904Y-57719047D01*
X187436904Y-57528571D01*
X186903571Y-58671428D02*
X187436904Y-58671428D01*
X186598809Y-58480952D02*
X187170238Y-58290476D01*
X187170238Y-58785714D01*
X187436904Y-59509523D02*
X187436904Y-59052380D01*
X187436904Y-59280952D02*
X186636904Y-59280952D01*
X186751190Y-59204761D01*
X186827380Y-59128571D01*
X186865476Y-59052380D01*
X207436904Y-114278571D02*
X206636904Y-114278571D01*
X206636904Y-114469047D01*
X206675000Y-114583333D01*
X206751190Y-114659523D01*
X206827380Y-114697619D01*
X206979761Y-114735714D01*
X207094047Y-114735714D01*
X207246428Y-114697619D01*
X207322619Y-114659523D01*
X207398809Y-114583333D01*
X207436904Y-114469047D01*
X207436904Y-114278571D01*
X206903571Y-115421428D02*
X207436904Y-115421428D01*
X206598809Y-115230952D02*
X207170238Y-115040476D01*
X207170238Y-115535714D01*
X206636904Y-115992857D02*
X206636904Y-116069047D01*
X206675000Y-116145238D01*
X206713095Y-116183333D01*
X206789285Y-116221428D01*
X206941666Y-116259523D01*
X207132142Y-116259523D01*
X207284523Y-116221428D01*
X207360714Y-116183333D01*
X207398809Y-116145238D01*
X207436904Y-116069047D01*
X207436904Y-115992857D01*
X207398809Y-115916666D01*
X207360714Y-115878571D01*
X207284523Y-115840476D01*
X207132142Y-115802380D01*
X206941666Y-115802380D01*
X206789285Y-115840476D01*
X206713095Y-115878571D01*
X206675000Y-115916666D01*
X206636904Y-115992857D01*
X183186904Y-95278571D02*
X182386904Y-95278571D01*
X182386904Y-95469047D01*
X182425000Y-95583333D01*
X182501190Y-95659523D01*
X182577380Y-95697619D01*
X182729761Y-95735714D01*
X182844047Y-95735714D01*
X182996428Y-95697619D01*
X183072619Y-95659523D01*
X183148809Y-95583333D01*
X183186904Y-95469047D01*
X183186904Y-95278571D01*
X182386904Y-96002380D02*
X182386904Y-96497619D01*
X182691666Y-96230952D01*
X182691666Y-96345238D01*
X182729761Y-96421428D01*
X182767857Y-96459523D01*
X182844047Y-96497619D01*
X183034523Y-96497619D01*
X183110714Y-96459523D01*
X183148809Y-96421428D01*
X183186904Y-96345238D01*
X183186904Y-96116666D01*
X183148809Y-96040476D01*
X183110714Y-96002380D01*
X183186904Y-96878571D02*
X183186904Y-97030952D01*
X183148809Y-97107142D01*
X183110714Y-97145238D01*
X182996428Y-97221428D01*
X182844047Y-97259523D01*
X182539285Y-97259523D01*
X182463095Y-97221428D01*
X182425000Y-97183333D01*
X182386904Y-97107142D01*
X182386904Y-96954761D01*
X182425000Y-96878571D01*
X182463095Y-96840476D01*
X182539285Y-96802380D01*
X182729761Y-96802380D01*
X182805952Y-96840476D01*
X182844047Y-96878571D01*
X182882142Y-96954761D01*
X182882142Y-97107142D01*
X182844047Y-97183333D01*
X182805952Y-97221428D01*
X182729761Y-97259523D01*
X177936904Y-76778571D02*
X177136904Y-76778571D01*
X177136904Y-76969047D01*
X177175000Y-77083333D01*
X177251190Y-77159523D01*
X177327380Y-77197619D01*
X177479761Y-77235714D01*
X177594047Y-77235714D01*
X177746428Y-77197619D01*
X177822619Y-77159523D01*
X177898809Y-77083333D01*
X177936904Y-76969047D01*
X177936904Y-76778571D01*
X177136904Y-77502380D02*
X177136904Y-77997619D01*
X177441666Y-77730952D01*
X177441666Y-77845238D01*
X177479761Y-77921428D01*
X177517857Y-77959523D01*
X177594047Y-77997619D01*
X177784523Y-77997619D01*
X177860714Y-77959523D01*
X177898809Y-77921428D01*
X177936904Y-77845238D01*
X177936904Y-77616666D01*
X177898809Y-77540476D01*
X177860714Y-77502380D01*
X177479761Y-78454761D02*
X177441666Y-78378571D01*
X177403571Y-78340476D01*
X177327380Y-78302380D01*
X177289285Y-78302380D01*
X177213095Y-78340476D01*
X177175000Y-78378571D01*
X177136904Y-78454761D01*
X177136904Y-78607142D01*
X177175000Y-78683333D01*
X177213095Y-78721428D01*
X177289285Y-78759523D01*
X177327380Y-78759523D01*
X177403571Y-78721428D01*
X177441666Y-78683333D01*
X177479761Y-78607142D01*
X177479761Y-78454761D01*
X177517857Y-78378571D01*
X177555952Y-78340476D01*
X177632142Y-78302380D01*
X177784523Y-78302380D01*
X177860714Y-78340476D01*
X177898809Y-78378571D01*
X177936904Y-78454761D01*
X177936904Y-78607142D01*
X177898809Y-78683333D01*
X177860714Y-78721428D01*
X177784523Y-78759523D01*
X177632142Y-78759523D01*
X177555952Y-78721428D01*
X177517857Y-78683333D01*
X177479761Y-78607142D01*
X168436904Y-57528571D02*
X167636904Y-57528571D01*
X167636904Y-57719047D01*
X167675000Y-57833333D01*
X167751190Y-57909523D01*
X167827380Y-57947619D01*
X167979761Y-57985714D01*
X168094047Y-57985714D01*
X168246428Y-57947619D01*
X168322619Y-57909523D01*
X168398809Y-57833333D01*
X168436904Y-57719047D01*
X168436904Y-57528571D01*
X167636904Y-58252380D02*
X167636904Y-58747619D01*
X167941666Y-58480952D01*
X167941666Y-58595238D01*
X167979761Y-58671428D01*
X168017857Y-58709523D01*
X168094047Y-58747619D01*
X168284523Y-58747619D01*
X168360714Y-58709523D01*
X168398809Y-58671428D01*
X168436904Y-58595238D01*
X168436904Y-58366666D01*
X168398809Y-58290476D01*
X168360714Y-58252380D01*
X167636904Y-59014285D02*
X167636904Y-59547619D01*
X168436904Y-59204761D01*
X173186904Y-112528571D02*
X172386904Y-112528571D01*
X172386904Y-112719047D01*
X172425000Y-112833333D01*
X172501190Y-112909523D01*
X172577380Y-112947619D01*
X172729761Y-112985714D01*
X172844047Y-112985714D01*
X172996428Y-112947619D01*
X173072619Y-112909523D01*
X173148809Y-112833333D01*
X173186904Y-112719047D01*
X173186904Y-112528571D01*
X172386904Y-113252380D02*
X172386904Y-113747619D01*
X172691666Y-113480952D01*
X172691666Y-113595238D01*
X172729761Y-113671428D01*
X172767857Y-113709523D01*
X172844047Y-113747619D01*
X173034523Y-113747619D01*
X173110714Y-113709523D01*
X173148809Y-113671428D01*
X173186904Y-113595238D01*
X173186904Y-113366666D01*
X173148809Y-113290476D01*
X173110714Y-113252380D01*
X172386904Y-114433333D02*
X172386904Y-114280952D01*
X172425000Y-114204761D01*
X172463095Y-114166666D01*
X172577380Y-114090476D01*
X172729761Y-114052380D01*
X173034523Y-114052380D01*
X173110714Y-114090476D01*
X173148809Y-114128571D01*
X173186904Y-114204761D01*
X173186904Y-114357142D01*
X173148809Y-114433333D01*
X173110714Y-114471428D01*
X173034523Y-114509523D01*
X172844047Y-114509523D01*
X172767857Y-114471428D01*
X172729761Y-114433333D01*
X172691666Y-114357142D01*
X172691666Y-114204761D01*
X172729761Y-114128571D01*
X172767857Y-114090476D01*
X172844047Y-114052380D01*
X163436904Y-95778571D02*
X162636904Y-95778571D01*
X162636904Y-95969047D01*
X162675000Y-96083333D01*
X162751190Y-96159523D01*
X162827380Y-96197619D01*
X162979761Y-96235714D01*
X163094047Y-96235714D01*
X163246428Y-96197619D01*
X163322619Y-96159523D01*
X163398809Y-96083333D01*
X163436904Y-95969047D01*
X163436904Y-95778571D01*
X162636904Y-96502380D02*
X162636904Y-96997619D01*
X162941666Y-96730952D01*
X162941666Y-96845238D01*
X162979761Y-96921428D01*
X163017857Y-96959523D01*
X163094047Y-96997619D01*
X163284523Y-96997619D01*
X163360714Y-96959523D01*
X163398809Y-96921428D01*
X163436904Y-96845238D01*
X163436904Y-96616666D01*
X163398809Y-96540476D01*
X163360714Y-96502380D01*
X162636904Y-97721428D02*
X162636904Y-97340476D01*
X163017857Y-97302380D01*
X162979761Y-97340476D01*
X162941666Y-97416666D01*
X162941666Y-97607142D01*
X162979761Y-97683333D01*
X163017857Y-97721428D01*
X163094047Y-97759523D01*
X163284523Y-97759523D01*
X163360714Y-97721428D01*
X163398809Y-97683333D01*
X163436904Y-97607142D01*
X163436904Y-97416666D01*
X163398809Y-97340476D01*
X163360714Y-97302380D01*
X158936904Y-76778571D02*
X158136904Y-76778571D01*
X158136904Y-76969047D01*
X158175000Y-77083333D01*
X158251190Y-77159523D01*
X158327380Y-77197619D01*
X158479761Y-77235714D01*
X158594047Y-77235714D01*
X158746428Y-77197619D01*
X158822619Y-77159523D01*
X158898809Y-77083333D01*
X158936904Y-76969047D01*
X158936904Y-76778571D01*
X158136904Y-77502380D02*
X158136904Y-77997619D01*
X158441666Y-77730952D01*
X158441666Y-77845238D01*
X158479761Y-77921428D01*
X158517857Y-77959523D01*
X158594047Y-77997619D01*
X158784523Y-77997619D01*
X158860714Y-77959523D01*
X158898809Y-77921428D01*
X158936904Y-77845238D01*
X158936904Y-77616666D01*
X158898809Y-77540476D01*
X158860714Y-77502380D01*
X158403571Y-78683333D02*
X158936904Y-78683333D01*
X158098809Y-78492857D02*
X158670238Y-78302380D01*
X158670238Y-78797619D01*
X149436904Y-57528571D02*
X148636904Y-57528571D01*
X148636904Y-57719047D01*
X148675000Y-57833333D01*
X148751190Y-57909523D01*
X148827380Y-57947619D01*
X148979761Y-57985714D01*
X149094047Y-57985714D01*
X149246428Y-57947619D01*
X149322619Y-57909523D01*
X149398809Y-57833333D01*
X149436904Y-57719047D01*
X149436904Y-57528571D01*
X148636904Y-58252380D02*
X148636904Y-58747619D01*
X148941666Y-58480952D01*
X148941666Y-58595238D01*
X148979761Y-58671428D01*
X149017857Y-58709523D01*
X149094047Y-58747619D01*
X149284523Y-58747619D01*
X149360714Y-58709523D01*
X149398809Y-58671428D01*
X149436904Y-58595238D01*
X149436904Y-58366666D01*
X149398809Y-58290476D01*
X149360714Y-58252380D01*
X148636904Y-59014285D02*
X148636904Y-59509523D01*
X148941666Y-59242857D01*
X148941666Y-59357142D01*
X148979761Y-59433333D01*
X149017857Y-59471428D01*
X149094047Y-59509523D01*
X149284523Y-59509523D01*
X149360714Y-59471428D01*
X149398809Y-59433333D01*
X149436904Y-59357142D01*
X149436904Y-59128571D01*
X149398809Y-59052380D01*
X149360714Y-59014285D01*
X153936904Y-114778571D02*
X153136904Y-114778571D01*
X153136904Y-114969047D01*
X153175000Y-115083333D01*
X153251190Y-115159523D01*
X153327380Y-115197619D01*
X153479761Y-115235714D01*
X153594047Y-115235714D01*
X153746428Y-115197619D01*
X153822619Y-115159523D01*
X153898809Y-115083333D01*
X153936904Y-114969047D01*
X153936904Y-114778571D01*
X153136904Y-115502380D02*
X153136904Y-115997619D01*
X153441666Y-115730952D01*
X153441666Y-115845238D01*
X153479761Y-115921428D01*
X153517857Y-115959523D01*
X153594047Y-115997619D01*
X153784523Y-115997619D01*
X153860714Y-115959523D01*
X153898809Y-115921428D01*
X153936904Y-115845238D01*
X153936904Y-115616666D01*
X153898809Y-115540476D01*
X153860714Y-115502380D01*
X153213095Y-116302380D02*
X153175000Y-116340476D01*
X153136904Y-116416666D01*
X153136904Y-116607142D01*
X153175000Y-116683333D01*
X153213095Y-116721428D01*
X153289285Y-116759523D01*
X153365476Y-116759523D01*
X153479761Y-116721428D01*
X153936904Y-116264285D01*
X153936904Y-116759523D01*
X144436904Y-95778571D02*
X143636904Y-95778571D01*
X143636904Y-95969047D01*
X143675000Y-96083333D01*
X143751190Y-96159523D01*
X143827380Y-96197619D01*
X143979761Y-96235714D01*
X144094047Y-96235714D01*
X144246428Y-96197619D01*
X144322619Y-96159523D01*
X144398809Y-96083333D01*
X144436904Y-95969047D01*
X144436904Y-95778571D01*
X143636904Y-96502380D02*
X143636904Y-96997619D01*
X143941666Y-96730952D01*
X143941666Y-96845238D01*
X143979761Y-96921428D01*
X144017857Y-96959523D01*
X144094047Y-96997619D01*
X144284523Y-96997619D01*
X144360714Y-96959523D01*
X144398809Y-96921428D01*
X144436904Y-96845238D01*
X144436904Y-96616666D01*
X144398809Y-96540476D01*
X144360714Y-96502380D01*
X144436904Y-97759523D02*
X144436904Y-97302380D01*
X144436904Y-97530952D02*
X143636904Y-97530952D01*
X143751190Y-97454761D01*
X143827380Y-97378571D01*
X143865476Y-97302380D01*
X139686904Y-76778571D02*
X138886904Y-76778571D01*
X138886904Y-76969047D01*
X138925000Y-77083333D01*
X139001190Y-77159523D01*
X139077380Y-77197619D01*
X139229761Y-77235714D01*
X139344047Y-77235714D01*
X139496428Y-77197619D01*
X139572619Y-77159523D01*
X139648809Y-77083333D01*
X139686904Y-76969047D01*
X139686904Y-76778571D01*
X138886904Y-77502380D02*
X138886904Y-77997619D01*
X139191666Y-77730952D01*
X139191666Y-77845238D01*
X139229761Y-77921428D01*
X139267857Y-77959523D01*
X139344047Y-77997619D01*
X139534523Y-77997619D01*
X139610714Y-77959523D01*
X139648809Y-77921428D01*
X139686904Y-77845238D01*
X139686904Y-77616666D01*
X139648809Y-77540476D01*
X139610714Y-77502380D01*
X138886904Y-78492857D02*
X138886904Y-78569047D01*
X138925000Y-78645238D01*
X138963095Y-78683333D01*
X139039285Y-78721428D01*
X139191666Y-78759523D01*
X139382142Y-78759523D01*
X139534523Y-78721428D01*
X139610714Y-78683333D01*
X139648809Y-78645238D01*
X139686904Y-78569047D01*
X139686904Y-78492857D01*
X139648809Y-78416666D01*
X139610714Y-78378571D01*
X139534523Y-78340476D01*
X139382142Y-78302380D01*
X139191666Y-78302380D01*
X139039285Y-78340476D01*
X138963095Y-78378571D01*
X138925000Y-78416666D01*
X138886904Y-78492857D01*
X130436904Y-57528571D02*
X129636904Y-57528571D01*
X129636904Y-57719047D01*
X129675000Y-57833333D01*
X129751190Y-57909523D01*
X129827380Y-57947619D01*
X129979761Y-57985714D01*
X130094047Y-57985714D01*
X130246428Y-57947619D01*
X130322619Y-57909523D01*
X130398809Y-57833333D01*
X130436904Y-57719047D01*
X130436904Y-57528571D01*
X129713095Y-58290476D02*
X129675000Y-58328571D01*
X129636904Y-58404761D01*
X129636904Y-58595238D01*
X129675000Y-58671428D01*
X129713095Y-58709523D01*
X129789285Y-58747619D01*
X129865476Y-58747619D01*
X129979761Y-58709523D01*
X130436904Y-58252380D01*
X130436904Y-58747619D01*
X130436904Y-59128571D02*
X130436904Y-59280952D01*
X130398809Y-59357142D01*
X130360714Y-59395238D01*
X130246428Y-59471428D01*
X130094047Y-59509523D01*
X129789285Y-59509523D01*
X129713095Y-59471428D01*
X129675000Y-59433333D01*
X129636904Y-59357142D01*
X129636904Y-59204761D01*
X129675000Y-59128571D01*
X129713095Y-59090476D01*
X129789285Y-59052380D01*
X129979761Y-59052380D01*
X130055952Y-59090476D01*
X130094047Y-59128571D01*
X130132142Y-59204761D01*
X130132142Y-59357142D01*
X130094047Y-59433333D01*
X130055952Y-59471428D01*
X129979761Y-59509523D01*
X137436904Y-133778571D02*
X136636904Y-133778571D01*
X136636904Y-133969047D01*
X136675000Y-134083333D01*
X136751190Y-134159523D01*
X136827380Y-134197619D01*
X136979761Y-134235714D01*
X137094047Y-134235714D01*
X137246428Y-134197619D01*
X137322619Y-134159523D01*
X137398809Y-134083333D01*
X137436904Y-133969047D01*
X137436904Y-133778571D01*
X136713095Y-134540476D02*
X136675000Y-134578571D01*
X136636904Y-134654761D01*
X136636904Y-134845238D01*
X136675000Y-134921428D01*
X136713095Y-134959523D01*
X136789285Y-134997619D01*
X136865476Y-134997619D01*
X136979761Y-134959523D01*
X137436904Y-134502380D01*
X137436904Y-134997619D01*
X136979761Y-135454761D02*
X136941666Y-135378571D01*
X136903571Y-135340476D01*
X136827380Y-135302380D01*
X136789285Y-135302380D01*
X136713095Y-135340476D01*
X136675000Y-135378571D01*
X136636904Y-135454761D01*
X136636904Y-135607142D01*
X136675000Y-135683333D01*
X136713095Y-135721428D01*
X136789285Y-135759523D01*
X136827380Y-135759523D01*
X136903571Y-135721428D01*
X136941666Y-135683333D01*
X136979761Y-135607142D01*
X136979761Y-135454761D01*
X137017857Y-135378571D01*
X137055952Y-135340476D01*
X137132142Y-135302380D01*
X137284523Y-135302380D01*
X137360714Y-135340476D01*
X137398809Y-135378571D01*
X137436904Y-135454761D01*
X137436904Y-135607142D01*
X137398809Y-135683333D01*
X137360714Y-135721428D01*
X137284523Y-135759523D01*
X137132142Y-135759523D01*
X137055952Y-135721428D01*
X137017857Y-135683333D01*
X136979761Y-135607142D01*
X134936904Y-114778571D02*
X134136904Y-114778571D01*
X134136904Y-114969047D01*
X134175000Y-115083333D01*
X134251190Y-115159523D01*
X134327380Y-115197619D01*
X134479761Y-115235714D01*
X134594047Y-115235714D01*
X134746428Y-115197619D01*
X134822619Y-115159523D01*
X134898809Y-115083333D01*
X134936904Y-114969047D01*
X134936904Y-114778571D01*
X134213095Y-115540476D02*
X134175000Y-115578571D01*
X134136904Y-115654761D01*
X134136904Y-115845238D01*
X134175000Y-115921428D01*
X134213095Y-115959523D01*
X134289285Y-115997619D01*
X134365476Y-115997619D01*
X134479761Y-115959523D01*
X134936904Y-115502380D01*
X134936904Y-115997619D01*
X134136904Y-116264285D02*
X134136904Y-116797619D01*
X134936904Y-116454761D01*
X125686904Y-95778571D02*
X124886904Y-95778571D01*
X124886904Y-95969047D01*
X124925000Y-96083333D01*
X125001190Y-96159523D01*
X125077380Y-96197619D01*
X125229761Y-96235714D01*
X125344047Y-96235714D01*
X125496428Y-96197619D01*
X125572619Y-96159523D01*
X125648809Y-96083333D01*
X125686904Y-95969047D01*
X125686904Y-95778571D01*
X124963095Y-96540476D02*
X124925000Y-96578571D01*
X124886904Y-96654761D01*
X124886904Y-96845238D01*
X124925000Y-96921428D01*
X124963095Y-96959523D01*
X125039285Y-96997619D01*
X125115476Y-96997619D01*
X125229761Y-96959523D01*
X125686904Y-96502380D01*
X125686904Y-96997619D01*
X124886904Y-97683333D02*
X124886904Y-97530952D01*
X124925000Y-97454761D01*
X124963095Y-97416666D01*
X125077380Y-97340476D01*
X125229761Y-97302380D01*
X125534523Y-97302380D01*
X125610714Y-97340476D01*
X125648809Y-97378571D01*
X125686904Y-97454761D01*
X125686904Y-97607142D01*
X125648809Y-97683333D01*
X125610714Y-97721428D01*
X125534523Y-97759523D01*
X125344047Y-97759523D01*
X125267857Y-97721428D01*
X125229761Y-97683333D01*
X125191666Y-97607142D01*
X125191666Y-97454761D01*
X125229761Y-97378571D01*
X125267857Y-97340476D01*
X125344047Y-97302380D01*
X120686904Y-76778571D02*
X119886904Y-76778571D01*
X119886904Y-76969047D01*
X119925000Y-77083333D01*
X120001190Y-77159523D01*
X120077380Y-77197619D01*
X120229761Y-77235714D01*
X120344047Y-77235714D01*
X120496428Y-77197619D01*
X120572619Y-77159523D01*
X120648809Y-77083333D01*
X120686904Y-76969047D01*
X120686904Y-76778571D01*
X119963095Y-77540476D02*
X119925000Y-77578571D01*
X119886904Y-77654761D01*
X119886904Y-77845238D01*
X119925000Y-77921428D01*
X119963095Y-77959523D01*
X120039285Y-77997619D01*
X120115476Y-77997619D01*
X120229761Y-77959523D01*
X120686904Y-77502380D01*
X120686904Y-77997619D01*
X119886904Y-78721428D02*
X119886904Y-78340476D01*
X120267857Y-78302380D01*
X120229761Y-78340476D01*
X120191666Y-78416666D01*
X120191666Y-78607142D01*
X120229761Y-78683333D01*
X120267857Y-78721428D01*
X120344047Y-78759523D01*
X120534523Y-78759523D01*
X120610714Y-78721428D01*
X120648809Y-78683333D01*
X120686904Y-78607142D01*
X120686904Y-78416666D01*
X120648809Y-78340476D01*
X120610714Y-78302380D01*
X111186904Y-57528571D02*
X110386904Y-57528571D01*
X110386904Y-57719047D01*
X110425000Y-57833333D01*
X110501190Y-57909523D01*
X110577380Y-57947619D01*
X110729761Y-57985714D01*
X110844047Y-57985714D01*
X110996428Y-57947619D01*
X111072619Y-57909523D01*
X111148809Y-57833333D01*
X111186904Y-57719047D01*
X111186904Y-57528571D01*
X110463095Y-58290476D02*
X110425000Y-58328571D01*
X110386904Y-58404761D01*
X110386904Y-58595238D01*
X110425000Y-58671428D01*
X110463095Y-58709523D01*
X110539285Y-58747619D01*
X110615476Y-58747619D01*
X110729761Y-58709523D01*
X111186904Y-58252380D01*
X111186904Y-58747619D01*
X110653571Y-59433333D02*
X111186904Y-59433333D01*
X110348809Y-59242857D02*
X110920238Y-59052380D01*
X110920238Y-59547619D01*
X115936904Y-114778571D02*
X115136904Y-114778571D01*
X115136904Y-114969047D01*
X115175000Y-115083333D01*
X115251190Y-115159523D01*
X115327380Y-115197619D01*
X115479761Y-115235714D01*
X115594047Y-115235714D01*
X115746428Y-115197619D01*
X115822619Y-115159523D01*
X115898809Y-115083333D01*
X115936904Y-114969047D01*
X115936904Y-114778571D01*
X115213095Y-115540476D02*
X115175000Y-115578571D01*
X115136904Y-115654761D01*
X115136904Y-115845238D01*
X115175000Y-115921428D01*
X115213095Y-115959523D01*
X115289285Y-115997619D01*
X115365476Y-115997619D01*
X115479761Y-115959523D01*
X115936904Y-115502380D01*
X115936904Y-115997619D01*
X115136904Y-116264285D02*
X115136904Y-116759523D01*
X115441666Y-116492857D01*
X115441666Y-116607142D01*
X115479761Y-116683333D01*
X115517857Y-116721428D01*
X115594047Y-116759523D01*
X115784523Y-116759523D01*
X115860714Y-116721428D01*
X115898809Y-116683333D01*
X115936904Y-116607142D01*
X115936904Y-116378571D01*
X115898809Y-116302380D01*
X115860714Y-116264285D01*
X106436904Y-95778571D02*
X105636904Y-95778571D01*
X105636904Y-95969047D01*
X105675000Y-96083333D01*
X105751190Y-96159523D01*
X105827380Y-96197619D01*
X105979761Y-96235714D01*
X106094047Y-96235714D01*
X106246428Y-96197619D01*
X106322619Y-96159523D01*
X106398809Y-96083333D01*
X106436904Y-95969047D01*
X106436904Y-95778571D01*
X105713095Y-96540476D02*
X105675000Y-96578571D01*
X105636904Y-96654761D01*
X105636904Y-96845238D01*
X105675000Y-96921428D01*
X105713095Y-96959523D01*
X105789285Y-96997619D01*
X105865476Y-96997619D01*
X105979761Y-96959523D01*
X106436904Y-96502380D01*
X106436904Y-96997619D01*
X105713095Y-97302380D02*
X105675000Y-97340476D01*
X105636904Y-97416666D01*
X105636904Y-97607142D01*
X105675000Y-97683333D01*
X105713095Y-97721428D01*
X105789285Y-97759523D01*
X105865476Y-97759523D01*
X105979761Y-97721428D01*
X106436904Y-97264285D01*
X106436904Y-97759523D01*
X101686904Y-76678571D02*
X100886904Y-76678571D01*
X100886904Y-76869047D01*
X100925000Y-76983333D01*
X101001190Y-77059523D01*
X101077380Y-77097619D01*
X101229761Y-77135714D01*
X101344047Y-77135714D01*
X101496428Y-77097619D01*
X101572619Y-77059523D01*
X101648809Y-76983333D01*
X101686904Y-76869047D01*
X101686904Y-76678571D01*
X100963095Y-77440476D02*
X100925000Y-77478571D01*
X100886904Y-77554761D01*
X100886904Y-77745238D01*
X100925000Y-77821428D01*
X100963095Y-77859523D01*
X101039285Y-77897619D01*
X101115476Y-77897619D01*
X101229761Y-77859523D01*
X101686904Y-77402380D01*
X101686904Y-77897619D01*
X101686904Y-78659523D02*
X101686904Y-78202380D01*
X101686904Y-78430952D02*
X100886904Y-78430952D01*
X101001190Y-78354761D01*
X101077380Y-78278571D01*
X101115476Y-78202380D01*
X92186904Y-57528571D02*
X91386904Y-57528571D01*
X91386904Y-57719047D01*
X91425000Y-57833333D01*
X91501190Y-57909523D01*
X91577380Y-57947619D01*
X91729761Y-57985714D01*
X91844047Y-57985714D01*
X91996428Y-57947619D01*
X92072619Y-57909523D01*
X92148809Y-57833333D01*
X92186904Y-57719047D01*
X92186904Y-57528571D01*
X91463095Y-58290476D02*
X91425000Y-58328571D01*
X91386904Y-58404761D01*
X91386904Y-58595238D01*
X91425000Y-58671428D01*
X91463095Y-58709523D01*
X91539285Y-58747619D01*
X91615476Y-58747619D01*
X91729761Y-58709523D01*
X92186904Y-58252380D01*
X92186904Y-58747619D01*
X91386904Y-59242857D02*
X91386904Y-59319047D01*
X91425000Y-59395238D01*
X91463095Y-59433333D01*
X91539285Y-59471428D01*
X91691666Y-59509523D01*
X91882142Y-59509523D01*
X92034523Y-59471428D01*
X92110714Y-59433333D01*
X92148809Y-59395238D01*
X92186904Y-59319047D01*
X92186904Y-59242857D01*
X92148809Y-59166666D01*
X92110714Y-59128571D01*
X92034523Y-59090476D01*
X91882142Y-59052380D01*
X91691666Y-59052380D01*
X91539285Y-59090476D01*
X91463095Y-59128571D01*
X91425000Y-59166666D01*
X91386904Y-59242857D01*
X96936904Y-114778571D02*
X96136904Y-114778571D01*
X96136904Y-114969047D01*
X96175000Y-115083333D01*
X96251190Y-115159523D01*
X96327380Y-115197619D01*
X96479761Y-115235714D01*
X96594047Y-115235714D01*
X96746428Y-115197619D01*
X96822619Y-115159523D01*
X96898809Y-115083333D01*
X96936904Y-114969047D01*
X96936904Y-114778571D01*
X96936904Y-115997619D02*
X96936904Y-115540476D01*
X96936904Y-115769047D02*
X96136904Y-115769047D01*
X96251190Y-115692857D01*
X96327380Y-115616666D01*
X96365476Y-115540476D01*
X96936904Y-116378571D02*
X96936904Y-116530952D01*
X96898809Y-116607142D01*
X96860714Y-116645238D01*
X96746428Y-116721428D01*
X96594047Y-116759523D01*
X96289285Y-116759523D01*
X96213095Y-116721428D01*
X96175000Y-116683333D01*
X96136904Y-116607142D01*
X96136904Y-116454761D01*
X96175000Y-116378571D01*
X96213095Y-116340476D01*
X96289285Y-116302380D01*
X96479761Y-116302380D01*
X96555952Y-116340476D01*
X96594047Y-116378571D01*
X96632142Y-116454761D01*
X96632142Y-116607142D01*
X96594047Y-116683333D01*
X96555952Y-116721428D01*
X96479761Y-116759523D01*
X87686904Y-95603571D02*
X86886904Y-95603571D01*
X86886904Y-95794047D01*
X86925000Y-95908333D01*
X87001190Y-95984523D01*
X87077380Y-96022619D01*
X87229761Y-96060714D01*
X87344047Y-96060714D01*
X87496428Y-96022619D01*
X87572619Y-95984523D01*
X87648809Y-95908333D01*
X87686904Y-95794047D01*
X87686904Y-95603571D01*
X87686904Y-96822619D02*
X87686904Y-96365476D01*
X87686904Y-96594047D02*
X86886904Y-96594047D01*
X87001190Y-96517857D01*
X87077380Y-96441666D01*
X87115476Y-96365476D01*
X87229761Y-97279761D02*
X87191666Y-97203571D01*
X87153571Y-97165476D01*
X87077380Y-97127380D01*
X87039285Y-97127380D01*
X86963095Y-97165476D01*
X86925000Y-97203571D01*
X86886904Y-97279761D01*
X86886904Y-97432142D01*
X86925000Y-97508333D01*
X86963095Y-97546428D01*
X87039285Y-97584523D01*
X87077380Y-97584523D01*
X87153571Y-97546428D01*
X87191666Y-97508333D01*
X87229761Y-97432142D01*
X87229761Y-97279761D01*
X87267857Y-97203571D01*
X87305952Y-97165476D01*
X87382142Y-97127380D01*
X87534523Y-97127380D01*
X87610714Y-97165476D01*
X87648809Y-97203571D01*
X87686904Y-97279761D01*
X87686904Y-97432142D01*
X87648809Y-97508333D01*
X87610714Y-97546428D01*
X87534523Y-97584523D01*
X87382142Y-97584523D01*
X87305952Y-97546428D01*
X87267857Y-97508333D01*
X87229761Y-97432142D01*
X82436904Y-76778571D02*
X81636904Y-76778571D01*
X81636904Y-76969047D01*
X81675000Y-77083333D01*
X81751190Y-77159523D01*
X81827380Y-77197619D01*
X81979761Y-77235714D01*
X82094047Y-77235714D01*
X82246428Y-77197619D01*
X82322619Y-77159523D01*
X82398809Y-77083333D01*
X82436904Y-76969047D01*
X82436904Y-76778571D01*
X82436904Y-77997619D02*
X82436904Y-77540476D01*
X82436904Y-77769047D02*
X81636904Y-77769047D01*
X81751190Y-77692857D01*
X81827380Y-77616666D01*
X81865476Y-77540476D01*
X81636904Y-78264285D02*
X81636904Y-78797619D01*
X82436904Y-78454761D01*
X73186904Y-57528571D02*
X72386904Y-57528571D01*
X72386904Y-57719047D01*
X72425000Y-57833333D01*
X72501190Y-57909523D01*
X72577380Y-57947619D01*
X72729761Y-57985714D01*
X72844047Y-57985714D01*
X72996428Y-57947619D01*
X73072619Y-57909523D01*
X73148809Y-57833333D01*
X73186904Y-57719047D01*
X73186904Y-57528571D01*
X73186904Y-58747619D02*
X73186904Y-58290476D01*
X73186904Y-58519047D02*
X72386904Y-58519047D01*
X72501190Y-58442857D01*
X72577380Y-58366666D01*
X72615476Y-58290476D01*
X72386904Y-59433333D02*
X72386904Y-59280952D01*
X72425000Y-59204761D01*
X72463095Y-59166666D01*
X72577380Y-59090476D01*
X72729761Y-59052380D01*
X73034523Y-59052380D01*
X73110714Y-59090476D01*
X73148809Y-59128571D01*
X73186904Y-59204761D01*
X73186904Y-59357142D01*
X73148809Y-59433333D01*
X73110714Y-59471428D01*
X73034523Y-59509523D01*
X72844047Y-59509523D01*
X72767857Y-59471428D01*
X72729761Y-59433333D01*
X72691666Y-59357142D01*
X72691666Y-59204761D01*
X72729761Y-59128571D01*
X72767857Y-59090476D01*
X72844047Y-59052380D01*
X65936904Y-133778571D02*
X65136904Y-133778571D01*
X65136904Y-133969047D01*
X65175000Y-134083333D01*
X65251190Y-134159523D01*
X65327380Y-134197619D01*
X65479761Y-134235714D01*
X65594047Y-134235714D01*
X65746428Y-134197619D01*
X65822619Y-134159523D01*
X65898809Y-134083333D01*
X65936904Y-133969047D01*
X65936904Y-133778571D01*
X65936904Y-134997619D02*
X65936904Y-134540476D01*
X65936904Y-134769047D02*
X65136904Y-134769047D01*
X65251190Y-134692857D01*
X65327380Y-134616666D01*
X65365476Y-134540476D01*
X65136904Y-135721428D02*
X65136904Y-135340476D01*
X65517857Y-135302380D01*
X65479761Y-135340476D01*
X65441666Y-135416666D01*
X65441666Y-135607142D01*
X65479761Y-135683333D01*
X65517857Y-135721428D01*
X65594047Y-135759523D01*
X65784523Y-135759523D01*
X65860714Y-135721428D01*
X65898809Y-135683333D01*
X65936904Y-135607142D01*
X65936904Y-135416666D01*
X65898809Y-135340476D01*
X65860714Y-135302380D01*
X77936904Y-114778571D02*
X77136904Y-114778571D01*
X77136904Y-114969047D01*
X77175000Y-115083333D01*
X77251190Y-115159523D01*
X77327380Y-115197619D01*
X77479761Y-115235714D01*
X77594047Y-115235714D01*
X77746428Y-115197619D01*
X77822619Y-115159523D01*
X77898809Y-115083333D01*
X77936904Y-114969047D01*
X77936904Y-114778571D01*
X77936904Y-115997619D02*
X77936904Y-115540476D01*
X77936904Y-115769047D02*
X77136904Y-115769047D01*
X77251190Y-115692857D01*
X77327380Y-115616666D01*
X77365476Y-115540476D01*
X77403571Y-116683333D02*
X77936904Y-116683333D01*
X77098809Y-116492857D02*
X77670238Y-116302380D01*
X77670238Y-116797619D01*
X68436904Y-95778571D02*
X67636904Y-95778571D01*
X67636904Y-95969047D01*
X67675000Y-96083333D01*
X67751190Y-96159523D01*
X67827380Y-96197619D01*
X67979761Y-96235714D01*
X68094047Y-96235714D01*
X68246428Y-96197619D01*
X68322619Y-96159523D01*
X68398809Y-96083333D01*
X68436904Y-95969047D01*
X68436904Y-95778571D01*
X68436904Y-96997619D02*
X68436904Y-96540476D01*
X68436904Y-96769047D02*
X67636904Y-96769047D01*
X67751190Y-96692857D01*
X67827380Y-96616666D01*
X67865476Y-96540476D01*
X67636904Y-97264285D02*
X67636904Y-97759523D01*
X67941666Y-97492857D01*
X67941666Y-97607142D01*
X67979761Y-97683333D01*
X68017857Y-97721428D01*
X68094047Y-97759523D01*
X68284523Y-97759523D01*
X68360714Y-97721428D01*
X68398809Y-97683333D01*
X68436904Y-97607142D01*
X68436904Y-97378571D01*
X68398809Y-97302380D01*
X68360714Y-97264285D01*
X63686904Y-76603571D02*
X62886904Y-76603571D01*
X62886904Y-76794047D01*
X62925000Y-76908333D01*
X63001190Y-76984523D01*
X63077380Y-77022619D01*
X63229761Y-77060714D01*
X63344047Y-77060714D01*
X63496428Y-77022619D01*
X63572619Y-76984523D01*
X63648809Y-76908333D01*
X63686904Y-76794047D01*
X63686904Y-76603571D01*
X63686904Y-77822619D02*
X63686904Y-77365476D01*
X63686904Y-77594047D02*
X62886904Y-77594047D01*
X63001190Y-77517857D01*
X63077380Y-77441666D01*
X63115476Y-77365476D01*
X62963095Y-78127380D02*
X62925000Y-78165476D01*
X62886904Y-78241666D01*
X62886904Y-78432142D01*
X62925000Y-78508333D01*
X62963095Y-78546428D01*
X63039285Y-78584523D01*
X63115476Y-78584523D01*
X63229761Y-78546428D01*
X63686904Y-78089285D01*
X63686904Y-78584523D01*
X54186904Y-57528571D02*
X53386904Y-57528571D01*
X53386904Y-57719047D01*
X53425000Y-57833333D01*
X53501190Y-57909523D01*
X53577380Y-57947619D01*
X53729761Y-57985714D01*
X53844047Y-57985714D01*
X53996428Y-57947619D01*
X54072619Y-57909523D01*
X54148809Y-57833333D01*
X54186904Y-57719047D01*
X54186904Y-57528571D01*
X54186904Y-58747619D02*
X54186904Y-58290476D01*
X54186904Y-58519047D02*
X53386904Y-58519047D01*
X53501190Y-58442857D01*
X53577380Y-58366666D01*
X53615476Y-58290476D01*
X54186904Y-59509523D02*
X54186904Y-59052380D01*
X54186904Y-59280952D02*
X53386904Y-59280952D01*
X53501190Y-59204761D01*
X53577380Y-59128571D01*
X53615476Y-59052380D01*
X58936904Y-115159523D02*
X58136904Y-115159523D01*
X58136904Y-115350000D01*
X58175000Y-115464285D01*
X58251190Y-115540476D01*
X58327380Y-115578571D01*
X58479761Y-115616666D01*
X58594047Y-115616666D01*
X58746428Y-115578571D01*
X58822619Y-115540476D01*
X58898809Y-115464285D01*
X58936904Y-115350000D01*
X58936904Y-115159523D01*
X58936904Y-115997619D02*
X58936904Y-116150000D01*
X58898809Y-116226190D01*
X58860714Y-116264285D01*
X58746428Y-116340476D01*
X58594047Y-116378571D01*
X58289285Y-116378571D01*
X58213095Y-116340476D01*
X58175000Y-116302380D01*
X58136904Y-116226190D01*
X58136904Y-116073809D01*
X58175000Y-115997619D01*
X58213095Y-115959523D01*
X58289285Y-115921428D01*
X58479761Y-115921428D01*
X58555952Y-115959523D01*
X58594047Y-115997619D01*
X58632142Y-116073809D01*
X58632142Y-116226190D01*
X58594047Y-116302380D01*
X58555952Y-116340476D01*
X58479761Y-116378571D01*
X49186904Y-96159523D02*
X48386904Y-96159523D01*
X48386904Y-96350000D01*
X48425000Y-96464285D01*
X48501190Y-96540476D01*
X48577380Y-96578571D01*
X48729761Y-96616666D01*
X48844047Y-96616666D01*
X48996428Y-96578571D01*
X49072619Y-96540476D01*
X49148809Y-96464285D01*
X49186904Y-96350000D01*
X49186904Y-96159523D01*
X48729761Y-97073809D02*
X48691666Y-96997619D01*
X48653571Y-96959523D01*
X48577380Y-96921428D01*
X48539285Y-96921428D01*
X48463095Y-96959523D01*
X48425000Y-96997619D01*
X48386904Y-97073809D01*
X48386904Y-97226190D01*
X48425000Y-97302380D01*
X48463095Y-97340476D01*
X48539285Y-97378571D01*
X48577380Y-97378571D01*
X48653571Y-97340476D01*
X48691666Y-97302380D01*
X48729761Y-97226190D01*
X48729761Y-97073809D01*
X48767857Y-96997619D01*
X48805952Y-96959523D01*
X48882142Y-96921428D01*
X49034523Y-96921428D01*
X49110714Y-96959523D01*
X49148809Y-96997619D01*
X49186904Y-97073809D01*
X49186904Y-97226190D01*
X49148809Y-97302380D01*
X49110714Y-97340476D01*
X49034523Y-97378571D01*
X48882142Y-97378571D01*
X48805952Y-97340476D01*
X48767857Y-97302380D01*
X48729761Y-97226190D01*
X44686904Y-77159523D02*
X43886904Y-77159523D01*
X43886904Y-77350000D01*
X43925000Y-77464285D01*
X44001190Y-77540476D01*
X44077380Y-77578571D01*
X44229761Y-77616666D01*
X44344047Y-77616666D01*
X44496428Y-77578571D01*
X44572619Y-77540476D01*
X44648809Y-77464285D01*
X44686904Y-77350000D01*
X44686904Y-77159523D01*
X43886904Y-77883333D02*
X43886904Y-78416666D01*
X44686904Y-78073809D01*
X50686904Y-57909523D02*
X49886904Y-57909523D01*
X49886904Y-58100000D01*
X49925000Y-58214285D01*
X50001190Y-58290476D01*
X50077380Y-58328571D01*
X50229761Y-58366666D01*
X50344047Y-58366666D01*
X50496428Y-58328571D01*
X50572619Y-58290476D01*
X50648809Y-58214285D01*
X50686904Y-58100000D01*
X50686904Y-57909523D01*
X49886904Y-59052380D02*
X49886904Y-58900000D01*
X49925000Y-58823809D01*
X49963095Y-58785714D01*
X50077380Y-58709523D01*
X50229761Y-58671428D01*
X50534523Y-58671428D01*
X50610714Y-58709523D01*
X50648809Y-58747619D01*
X50686904Y-58823809D01*
X50686904Y-58976190D01*
X50648809Y-59052380D01*
X50610714Y-59090476D01*
X50534523Y-59128571D01*
X50344047Y-59128571D01*
X50267857Y-59090476D01*
X50229761Y-59052380D01*
X50191666Y-58976190D01*
X50191666Y-58823809D01*
X50229761Y-58747619D01*
X50267857Y-58709523D01*
X50344047Y-58671428D01*
X18186904Y-134159523D02*
X17386904Y-134159523D01*
X17386904Y-134350000D01*
X17425000Y-134464285D01*
X17501190Y-134540476D01*
X17577380Y-134578571D01*
X17729761Y-134616666D01*
X17844047Y-134616666D01*
X17996428Y-134578571D01*
X18072619Y-134540476D01*
X18148809Y-134464285D01*
X18186904Y-134350000D01*
X18186904Y-134159523D01*
X17386904Y-135340476D02*
X17386904Y-134959523D01*
X17767857Y-134921428D01*
X17729761Y-134959523D01*
X17691666Y-135035714D01*
X17691666Y-135226190D01*
X17729761Y-135302380D01*
X17767857Y-135340476D01*
X17844047Y-135378571D01*
X18034523Y-135378571D01*
X18110714Y-135340476D01*
X18148809Y-135302380D01*
X18186904Y-135226190D01*
X18186904Y-135035714D01*
X18148809Y-134959523D01*
X18110714Y-134921428D01*
X27186904Y-114409523D02*
X26386904Y-114409523D01*
X26386904Y-114600000D01*
X26425000Y-114714285D01*
X26501190Y-114790476D01*
X26577380Y-114828571D01*
X26729761Y-114866666D01*
X26844047Y-114866666D01*
X26996428Y-114828571D01*
X27072619Y-114790476D01*
X27148809Y-114714285D01*
X27186904Y-114600000D01*
X27186904Y-114409523D01*
X26653571Y-115552380D02*
X27186904Y-115552380D01*
X26348809Y-115361904D02*
X26920238Y-115171428D01*
X26920238Y-115666666D01*
X22936904Y-96159523D02*
X22136904Y-96159523D01*
X22136904Y-96350000D01*
X22175000Y-96464285D01*
X22251190Y-96540476D01*
X22327380Y-96578571D01*
X22479761Y-96616666D01*
X22594047Y-96616666D01*
X22746428Y-96578571D01*
X22822619Y-96540476D01*
X22898809Y-96464285D01*
X22936904Y-96350000D01*
X22936904Y-96159523D01*
X22136904Y-96883333D02*
X22136904Y-97378571D01*
X22441666Y-97111904D01*
X22441666Y-97226190D01*
X22479761Y-97302380D01*
X22517857Y-97340476D01*
X22594047Y-97378571D01*
X22784523Y-97378571D01*
X22860714Y-97340476D01*
X22898809Y-97302380D01*
X22936904Y-97226190D01*
X22936904Y-96997619D01*
X22898809Y-96921428D01*
X22860714Y-96883333D01*
X20686904Y-77009523D02*
X19886904Y-77009523D01*
X19886904Y-77200000D01*
X19925000Y-77314285D01*
X20001190Y-77390476D01*
X20077380Y-77428571D01*
X20229761Y-77466666D01*
X20344047Y-77466666D01*
X20496428Y-77428571D01*
X20572619Y-77390476D01*
X20648809Y-77314285D01*
X20686904Y-77200000D01*
X20686904Y-77009523D01*
X19963095Y-77771428D02*
X19925000Y-77809523D01*
X19886904Y-77885714D01*
X19886904Y-78076190D01*
X19925000Y-78152380D01*
X19963095Y-78190476D01*
X20039285Y-78228571D01*
X20115476Y-78228571D01*
X20229761Y-78190476D01*
X20686904Y-77733333D01*
X20686904Y-78228571D01*
X15936904Y-57879523D02*
X15136904Y-57879523D01*
X15136904Y-58070000D01*
X15175000Y-58184285D01*
X15251190Y-58260476D01*
X15327380Y-58298571D01*
X15479761Y-58336666D01*
X15594047Y-58336666D01*
X15746428Y-58298571D01*
X15822619Y-58260476D01*
X15898809Y-58184285D01*
X15936904Y-58070000D01*
X15936904Y-57879523D01*
X15936904Y-59098571D02*
X15936904Y-58641428D01*
X15936904Y-58870000D02*
X15136904Y-58870000D01*
X15251190Y-58793809D01*
X15327380Y-58717619D01*
X15365476Y-58641428D01*
X184966666Y-137502380D02*
X185300000Y-137026190D01*
X185538095Y-137502380D02*
X185538095Y-136502380D01*
X185157142Y-136502380D01*
X185061904Y-136550000D01*
X185014285Y-136597619D01*
X184966666Y-136692857D01*
X184966666Y-136835714D01*
X185014285Y-136930952D01*
X185061904Y-136978571D01*
X185157142Y-137026190D01*
X185538095Y-137026190D01*
X184109523Y-136835714D02*
X184109523Y-137502380D01*
X184347619Y-136454761D02*
X184585714Y-137169047D01*
X183966666Y-137169047D01*
X159366666Y-131202380D02*
X159700000Y-130726190D01*
X159938095Y-131202380D02*
X159938095Y-130202380D01*
X159557142Y-130202380D01*
X159461904Y-130250000D01*
X159414285Y-130297619D01*
X159366666Y-130392857D01*
X159366666Y-130535714D01*
X159414285Y-130630952D01*
X159461904Y-130678571D01*
X159557142Y-130726190D01*
X159938095Y-130726190D01*
X158414285Y-131202380D02*
X158985714Y-131202380D01*
X158700000Y-131202380D02*
X158700000Y-130202380D01*
X158795238Y-130345238D01*
X158890476Y-130440476D01*
X158985714Y-130488095D01*
X159166666Y-139207142D02*
X159214285Y-139254761D01*
X159357142Y-139302380D01*
X159452380Y-139302380D01*
X159595238Y-139254761D01*
X159690476Y-139159523D01*
X159738095Y-139064285D01*
X159785714Y-138873809D01*
X159785714Y-138730952D01*
X159738095Y-138540476D01*
X159690476Y-138445238D01*
X159595238Y-138350000D01*
X159452380Y-138302380D01*
X159357142Y-138302380D01*
X159214285Y-138350000D01*
X159166666Y-138397619D01*
X158595238Y-138730952D02*
X158690476Y-138683333D01*
X158738095Y-138635714D01*
X158785714Y-138540476D01*
X158785714Y-138492857D01*
X158738095Y-138397619D01*
X158690476Y-138350000D01*
X158595238Y-138302380D01*
X158404761Y-138302380D01*
X158309523Y-138350000D01*
X158261904Y-138397619D01*
X158214285Y-138492857D01*
X158214285Y-138540476D01*
X158261904Y-138635714D01*
X158309523Y-138683333D01*
X158404761Y-138730952D01*
X158595238Y-138730952D01*
X158690476Y-138778571D01*
X158738095Y-138826190D01*
X158785714Y-138921428D01*
X158785714Y-139111904D01*
X158738095Y-139207142D01*
X158690476Y-139254761D01*
X158595238Y-139302380D01*
X158404761Y-139302380D01*
X158309523Y-139254761D01*
X158261904Y-139207142D01*
X158214285Y-139111904D01*
X158214285Y-138921428D01*
X158261904Y-138826190D01*
X158309523Y-138778571D01*
X158404761Y-138730952D01*
X168007142Y-123508333D02*
X168054761Y-123460714D01*
X168102380Y-123317857D01*
X168102380Y-123222619D01*
X168054761Y-123079761D01*
X167959523Y-122984523D01*
X167864285Y-122936904D01*
X167673809Y-122889285D01*
X167530952Y-122889285D01*
X167340476Y-122936904D01*
X167245238Y-122984523D01*
X167150000Y-123079761D01*
X167102380Y-123222619D01*
X167102380Y-123317857D01*
X167150000Y-123460714D01*
X167197619Y-123508333D01*
X167102380Y-124365476D02*
X167102380Y-124175000D01*
X167150000Y-124079761D01*
X167197619Y-124032142D01*
X167340476Y-123936904D01*
X167530952Y-123889285D01*
X167911904Y-123889285D01*
X168007142Y-123936904D01*
X168054761Y-123984523D01*
X168102380Y-124079761D01*
X168102380Y-124270238D01*
X168054761Y-124365476D01*
X168007142Y-124413095D01*
X167911904Y-124460714D01*
X167673809Y-124460714D01*
X167578571Y-124413095D01*
X167530952Y-124365476D01*
X167483333Y-124270238D01*
X167483333Y-124079761D01*
X167530952Y-123984523D01*
X167578571Y-123936904D01*
X167673809Y-123889285D01*
X186307142Y-141933333D02*
X186354761Y-141885714D01*
X186402380Y-141742857D01*
X186402380Y-141647619D01*
X186354761Y-141504761D01*
X186259523Y-141409523D01*
X186164285Y-141361904D01*
X185973809Y-141314285D01*
X185830952Y-141314285D01*
X185640476Y-141361904D01*
X185545238Y-141409523D01*
X185450000Y-141504761D01*
X185402380Y-141647619D01*
X185402380Y-141742857D01*
X185450000Y-141885714D01*
X185497619Y-141933333D01*
X185735714Y-142790476D02*
X186402380Y-142790476D01*
X185354761Y-142552380D02*
X186069047Y-142314285D01*
X186069047Y-142933333D01*
X183307142Y-141933333D02*
X183354761Y-141885714D01*
X183402380Y-141742857D01*
X183402380Y-141647619D01*
X183354761Y-141504761D01*
X183259523Y-141409523D01*
X183164285Y-141361904D01*
X182973809Y-141314285D01*
X182830952Y-141314285D01*
X182640476Y-141361904D01*
X182545238Y-141409523D01*
X182450000Y-141504761D01*
X182402380Y-141647619D01*
X182402380Y-141742857D01*
X182450000Y-141885714D01*
X182497619Y-141933333D01*
X182402380Y-142266666D02*
X182402380Y-142885714D01*
X182783333Y-142552380D01*
X182783333Y-142695238D01*
X182830952Y-142790476D01*
X182878571Y-142838095D01*
X182973809Y-142885714D01*
X183211904Y-142885714D01*
X183307142Y-142838095D01*
X183354761Y-142790476D01*
X183402380Y-142695238D01*
X183402380Y-142409523D01*
X183354761Y-142314285D01*
X183307142Y-142266666D01*
X180107142Y-141933333D02*
X180154761Y-141885714D01*
X180202380Y-141742857D01*
X180202380Y-141647619D01*
X180154761Y-141504761D01*
X180059523Y-141409523D01*
X179964285Y-141361904D01*
X179773809Y-141314285D01*
X179630952Y-141314285D01*
X179440476Y-141361904D01*
X179345238Y-141409523D01*
X179250000Y-141504761D01*
X179202380Y-141647619D01*
X179202380Y-141742857D01*
X179250000Y-141885714D01*
X179297619Y-141933333D01*
X180202380Y-142885714D02*
X180202380Y-142314285D01*
X180202380Y-142600000D02*
X179202380Y-142600000D01*
X179345238Y-142504761D01*
X179440476Y-142409523D01*
X179488095Y-142314285D01*
X173561904Y-142402380D02*
X173561904Y-143211904D01*
X173514285Y-143307142D01*
X173466666Y-143354761D01*
X173371428Y-143402380D01*
X173180952Y-143402380D01*
X173085714Y-143354761D01*
X173038095Y-143307142D01*
X172990476Y-143211904D01*
X172990476Y-142402380D01*
X171990476Y-143402380D02*
X172561904Y-143402380D01*
X172276190Y-143402380D02*
X172276190Y-142402380D01*
X172371428Y-142545238D01*
X172466666Y-142640476D01*
X172561904Y-142688095D01*
X175140829Y-122437411D02*
X175376531Y-123615922D01*
X174669425Y-122908815D02*
X175847936Y-123144517D01*
X174736768Y-124255685D02*
X175140829Y-123851624D01*
X174938799Y-124053655D02*
X174231692Y-123346548D01*
X174400051Y-123380220D01*
X174534738Y-123380220D01*
X174635753Y-123346548D01*
X167507142Y-121733333D02*
X167554761Y-121685714D01*
X167602380Y-121542857D01*
X167602380Y-121447619D01*
X167554761Y-121304761D01*
X167459523Y-121209523D01*
X167364285Y-121161904D01*
X167173809Y-121114285D01*
X167030952Y-121114285D01*
X166840476Y-121161904D01*
X166745238Y-121209523D01*
X166650000Y-121304761D01*
X166602380Y-121447619D01*
X166602380Y-121542857D01*
X166650000Y-121685714D01*
X166697619Y-121733333D01*
X166697619Y-122114285D02*
X166650000Y-122161904D01*
X166602380Y-122257142D01*
X166602380Y-122495238D01*
X166650000Y-122590476D01*
X166697619Y-122638095D01*
X166792857Y-122685714D01*
X166888095Y-122685714D01*
X167030952Y-122638095D01*
X167602380Y-122066666D01*
X167602380Y-122685714D01*
X35852380Y-59083333D02*
X35376190Y-58750000D01*
X35852380Y-58511904D02*
X34852380Y-58511904D01*
X34852380Y-58892857D01*
X34900000Y-58988095D01*
X34947619Y-59035714D01*
X35042857Y-59083333D01*
X35185714Y-59083333D01*
X35280952Y-59035714D01*
X35328571Y-58988095D01*
X35376190Y-58892857D01*
X35376190Y-58511904D01*
X34947619Y-59464285D02*
X34900000Y-59511904D01*
X34852380Y-59607142D01*
X34852380Y-59845238D01*
X34900000Y-59940476D01*
X34947619Y-59988095D01*
X35042857Y-60035714D01*
X35138095Y-60035714D01*
X35280952Y-59988095D01*
X35852380Y-59416666D01*
X35852380Y-60035714D01*
X155654761Y-132742857D02*
X155702380Y-132885714D01*
X155702380Y-133123809D01*
X155654761Y-133219047D01*
X155607142Y-133266666D01*
X155511904Y-133314285D01*
X155416666Y-133314285D01*
X155321428Y-133266666D01*
X155273809Y-133219047D01*
X155226190Y-133123809D01*
X155178571Y-132933333D01*
X155130952Y-132838095D01*
X155083333Y-132790476D01*
X154988095Y-132742857D01*
X154892857Y-132742857D01*
X154797619Y-132790476D01*
X154750000Y-132838095D01*
X154702380Y-132933333D01*
X154702380Y-133171428D01*
X154750000Y-133314285D01*
X154702380Y-133647619D02*
X155702380Y-133885714D01*
X154988095Y-134076190D01*
X155702380Y-134266666D01*
X154702380Y-134504761D01*
X155702380Y-134885714D02*
X154702380Y-134885714D01*
X154702380Y-135266666D01*
X154750000Y-135361904D01*
X154797619Y-135409523D01*
X154892857Y-135457142D01*
X155035714Y-135457142D01*
X155130952Y-135409523D01*
X155178571Y-135361904D01*
X155226190Y-135266666D01*
X155226190Y-134885714D01*
X155035714Y-135790476D02*
X155702380Y-135980952D01*
X155226190Y-136171428D01*
X155702380Y-136361904D01*
X155035714Y-136552380D01*
X155702380Y-137457142D02*
X155702380Y-136885714D01*
X155702380Y-137171428D02*
X154702380Y-137171428D01*
X154845238Y-137076190D01*
X154940476Y-136980952D01*
X154988095Y-136885714D01*
X175707142Y-121733333D02*
X175754761Y-121685714D01*
X175802380Y-121542857D01*
X175802380Y-121447619D01*
X175754761Y-121304761D01*
X175659523Y-121209523D01*
X175564285Y-121161904D01*
X175373809Y-121114285D01*
X175230952Y-121114285D01*
X175040476Y-121161904D01*
X174945238Y-121209523D01*
X174850000Y-121304761D01*
X174802380Y-121447619D01*
X174802380Y-121542857D01*
X174850000Y-121685714D01*
X174897619Y-121733333D01*
X174802380Y-122066666D02*
X174802380Y-122733333D01*
X175802380Y-122304761D01*
X37852380Y-59083333D02*
X37376190Y-58750000D01*
X37852380Y-58511904D02*
X36852380Y-58511904D01*
X36852380Y-58892857D01*
X36900000Y-58988095D01*
X36947619Y-59035714D01*
X37042857Y-59083333D01*
X37185714Y-59083333D01*
X37280952Y-59035714D01*
X37328571Y-58988095D01*
X37376190Y-58892857D01*
X37376190Y-58511904D01*
X36852380Y-59416666D02*
X36852380Y-60035714D01*
X37233333Y-59702380D01*
X37233333Y-59845238D01*
X37280952Y-59940476D01*
X37328571Y-59988095D01*
X37423809Y-60035714D01*
X37661904Y-60035714D01*
X37757142Y-59988095D01*
X37804761Y-59940476D01*
X37852380Y-59845238D01*
X37852380Y-59559523D01*
X37804761Y-59464285D01*
X37757142Y-59416666D01*
X35083333Y-47652380D02*
X35083333Y-48366666D01*
X35130952Y-48509523D01*
X35226190Y-48604761D01*
X35369047Y-48652380D01*
X35464285Y-48652380D01*
X34083333Y-48652380D02*
X34654761Y-48652380D01*
X34369047Y-48652380D02*
X34369047Y-47652380D01*
X34464285Y-47795238D01*
X34559523Y-47890476D01*
X34654761Y-47938095D01*
X188907142Y-141933333D02*
X188954761Y-141885714D01*
X189002380Y-141742857D01*
X189002380Y-141647619D01*
X188954761Y-141504761D01*
X188859523Y-141409523D01*
X188764285Y-141361904D01*
X188573809Y-141314285D01*
X188430952Y-141314285D01*
X188240476Y-141361904D01*
X188145238Y-141409523D01*
X188050000Y-141504761D01*
X188002380Y-141647619D01*
X188002380Y-141742857D01*
X188050000Y-141885714D01*
X188097619Y-141933333D01*
X188002380Y-142838095D02*
X188002380Y-142361904D01*
X188478571Y-142314285D01*
X188430952Y-142361904D01*
X188383333Y-142457142D01*
X188383333Y-142695238D01*
X188430952Y-142790476D01*
X188478571Y-142838095D01*
X188573809Y-142885714D01*
X188811904Y-142885714D01*
X188907142Y-142838095D01*
X188954761Y-142790476D01*
X189002380Y-142695238D01*
X189002380Y-142457142D01*
X188954761Y-142361904D01*
X188907142Y-142314285D01*
M02*
