G04 #@! TF.GenerationSoftware,KiCad,Pcbnew,(5.1.5)-3*
G04 #@! TF.CreationDate,2020-03-18T20:23:38-05:00*
G04 #@! TF.ProjectId,Advanced-PCB,41647661-6e63-4656-942d-5043422e6b69,rev?*
G04 #@! TF.SameCoordinates,Original*
G04 #@! TF.FileFunction,Other,Fab,Bot*
%FSLAX46Y46*%
G04 Gerber Fmt 4.6, Leading zero omitted, Abs format (unit mm)*
G04 Created by KiCad (PCBNEW (5.1.5)-3) date 2020-03-18 20:23:38*
%MOMM*%
%LPD*%
G04 APERTURE LIST*
%ADD10C,0.100000*%
%ADD11C,0.150000*%
%ADD12C,0.050000*%
%ADD13C,0.080000*%
%ADD14C,0.075000*%
G04 APERTURE END LIST*
D10*
X183800000Y-139300000D02*
X185800000Y-139300000D01*
X183800000Y-138100000D02*
X183800000Y-139300000D01*
X185800000Y-138100000D02*
X183800000Y-138100000D01*
X185800000Y-139300000D02*
X185800000Y-138100000D01*
X160200000Y-128500000D02*
X158200000Y-128500000D01*
X160200000Y-129700000D02*
X160200000Y-128500000D01*
X158200000Y-129700000D02*
X160200000Y-129700000D01*
X158200000Y-128500000D02*
X158200000Y-129700000D01*
X158000000Y-141100000D02*
X160000000Y-141100000D01*
X158000000Y-139900000D02*
X158000000Y-141100000D01*
X160000000Y-139900000D02*
X158000000Y-139900000D01*
X160000000Y-141100000D02*
X160000000Y-139900000D01*
X165400000Y-122675000D02*
X165400000Y-124675000D01*
X166600000Y-122675000D02*
X165400000Y-122675000D01*
X166600000Y-124675000D02*
X166600000Y-122675000D01*
X165400000Y-124675000D02*
X166600000Y-124675000D01*
X188200000Y-143100000D02*
X188200000Y-141100000D01*
X187000000Y-143100000D02*
X188200000Y-143100000D01*
X187000000Y-141100000D02*
X187000000Y-143100000D01*
X188200000Y-141100000D02*
X187000000Y-141100000D01*
X185200000Y-143100000D02*
X185200000Y-141100000D01*
X184000000Y-143100000D02*
X185200000Y-143100000D01*
X184000000Y-141100000D02*
X184000000Y-143100000D01*
X185200000Y-141100000D02*
X184000000Y-141100000D01*
X182000000Y-143100000D02*
X182000000Y-141100000D01*
X180800000Y-143100000D02*
X182000000Y-143100000D01*
X180800000Y-141100000D02*
X180800000Y-143100000D01*
X182000000Y-141100000D02*
X180800000Y-141100000D01*
D11*
X167800000Y-139500000D02*
X168800000Y-140500000D01*
X167800000Y-130500000D02*
X167800000Y-139500000D01*
X177800000Y-130500000D02*
X167800000Y-130500000D01*
X177800000Y-140500000D02*
X177800000Y-130500000D01*
X168800000Y-140500000D02*
X177800000Y-140500000D01*
X171349390Y-121912132D02*
X173187868Y-123750610D01*
X173612132Y-119649390D02*
X171349390Y-121912132D01*
X175450610Y-121487868D02*
X173612132Y-119649390D01*
X173187868Y-123750610D02*
X175450610Y-121487868D01*
D10*
X169400000Y-120900000D02*
X168200000Y-120900000D01*
X168200000Y-120900000D02*
X168200000Y-122900000D01*
X168200000Y-122900000D02*
X169400000Y-122900000D01*
X169400000Y-122900000D02*
X169400000Y-120900000D01*
X33150000Y-58250000D02*
X33150000Y-60250000D01*
X34350000Y-58250000D02*
X33150000Y-58250000D01*
X34350000Y-60250000D02*
X34350000Y-58250000D01*
X33150000Y-60250000D02*
X34350000Y-60250000D01*
X160000000Y-135100000D02*
G75*
G03X160000000Y-135100000I-1000000J0D01*
G01*
X156400000Y-133900000D02*
X157800000Y-132500000D01*
X156400000Y-136300000D02*
X156400000Y-133900000D01*
X157800000Y-137700000D02*
X156400000Y-136300000D01*
X160200000Y-137700000D02*
X157800000Y-137700000D01*
X161600000Y-136300000D02*
X160200000Y-137700000D01*
X161600000Y-133900000D02*
X161600000Y-136300000D01*
X160200000Y-132500000D02*
X161600000Y-133900000D01*
X157800000Y-132500000D02*
X160200000Y-132500000D01*
X160000000Y-133100000D02*
X158000000Y-133100000D01*
X161000000Y-134100000D02*
X160000000Y-133100000D01*
X161000000Y-136100000D02*
X161000000Y-134100000D01*
X160000000Y-137100000D02*
X161000000Y-136100000D01*
X158000000Y-137100000D02*
X160000000Y-137100000D01*
X157000000Y-136100000D02*
X158000000Y-137100000D01*
X157000000Y-134100000D02*
X157000000Y-136100000D01*
X158000000Y-133100000D02*
X157000000Y-134100000D01*
X160600000Y-138300000D02*
X160600000Y-137300000D01*
X161100000Y-137800000D02*
X160600000Y-137800000D01*
X161100000Y-136800000D02*
X161100000Y-138300000D01*
X161100000Y-133400000D02*
X161100000Y-131900000D01*
X160600000Y-131900000D02*
X160600000Y-132900000D01*
X161100000Y-132400000D02*
X160600000Y-132400000D01*
X157400000Y-131900000D02*
X157400000Y-132900000D01*
X156900000Y-133400000D02*
X156900000Y-131900000D01*
X156900000Y-132400000D02*
X157400000Y-132400000D01*
X157400000Y-138300000D02*
X157400000Y-137300000D01*
X156900000Y-136800000D02*
X156900000Y-138300000D01*
X156900000Y-137800000D02*
X157400000Y-137800000D01*
X156900000Y-131900000D02*
X157400000Y-131900000D01*
X161100000Y-131900000D02*
X160600000Y-131900000D01*
X156900000Y-138300000D02*
X157400000Y-138300000D01*
X161100000Y-138300000D02*
X160600000Y-138300000D01*
X177600000Y-122900000D02*
X177600000Y-120900000D01*
X176400000Y-122900000D02*
X177600000Y-122900000D01*
X176400000Y-120900000D02*
X176400000Y-122900000D01*
X177600000Y-120900000D02*
X176400000Y-120900000D01*
X35150000Y-58250000D02*
X35150000Y-60250000D01*
X36350000Y-58250000D02*
X35150000Y-58250000D01*
X36350000Y-60250000D02*
X36350000Y-58250000D01*
X35150000Y-60250000D02*
X36350000Y-60250000D01*
D12*
X31950000Y-40400000D02*
X32250000Y-40700000D01*
X32050000Y-40200000D02*
X32550000Y-40700000D01*
X32350000Y-40200000D02*
X32850000Y-40700000D01*
X37250000Y-40200000D02*
X37550000Y-40500000D01*
X36950000Y-40200000D02*
X37450000Y-40700000D01*
X36650000Y-40200000D02*
X37150000Y-40700000D01*
X36350000Y-40200000D02*
X36850000Y-40700000D01*
X36050000Y-40200000D02*
X36550000Y-40700000D01*
X35750000Y-40200000D02*
X36250000Y-40700000D01*
X35450000Y-40200000D02*
X36250000Y-41000000D01*
X35150000Y-40200000D02*
X36250000Y-41300000D01*
X34850000Y-40200000D02*
X36150000Y-41500000D01*
X34550000Y-40200000D02*
X35850000Y-41500000D01*
X34250000Y-40200000D02*
X35550000Y-41500000D01*
X33950000Y-40200000D02*
X35250000Y-41500000D01*
X33650000Y-40200000D02*
X34950000Y-41500000D01*
X33350000Y-40200000D02*
X34650000Y-41500000D01*
X33050000Y-40200000D02*
X34350000Y-41500000D01*
X32650000Y-40200000D02*
X34050000Y-41500000D01*
X33250000Y-41050000D02*
X33750000Y-41500000D01*
X33250000Y-41300000D02*
X33450000Y-41500000D01*
X37350000Y-41500000D02*
X37550000Y-41700000D01*
X37050000Y-41500000D02*
X37550000Y-42000000D01*
X36750000Y-41500000D02*
X37350000Y-42100000D01*
X36450000Y-41500000D02*
X37050000Y-42100000D01*
X36550000Y-41900000D02*
X36750000Y-42100000D01*
X36150000Y-42100000D02*
X36250000Y-42200000D01*
X35850000Y-42100000D02*
X36250000Y-42500000D01*
X34650000Y-42100000D02*
X36150000Y-43600000D01*
X34950000Y-42100000D02*
X36250000Y-43400000D01*
X35250000Y-42100000D02*
X36250000Y-43100000D01*
X35550000Y-42100000D02*
X36250000Y-42800000D01*
X34050000Y-42100000D02*
X35550000Y-43600000D01*
X34350000Y-42100000D02*
X35850000Y-43600000D01*
X33750000Y-42100000D02*
X35250000Y-43600000D01*
X32850000Y-41500000D02*
X32950000Y-41600000D01*
X31950000Y-41800000D02*
X32250000Y-42100000D01*
X31950000Y-41500000D02*
X32550000Y-42100000D01*
X32250000Y-41500000D02*
X32850000Y-42100000D01*
X32550000Y-41500000D02*
X33150000Y-42100000D01*
X33450000Y-42100000D02*
X34950000Y-43600000D01*
X33250000Y-42200000D02*
X34650000Y-43600000D01*
X33250000Y-42500000D02*
X34350000Y-43600000D01*
X33250000Y-42800000D02*
X34050000Y-43600000D01*
X33250000Y-43100000D02*
X33750000Y-43600000D01*
X33250000Y-43400000D02*
X33450000Y-43600000D01*
D10*
X36250000Y-43600000D02*
X36250000Y-42100000D01*
X37550000Y-42100000D02*
X37550000Y-41500000D01*
X31950000Y-42100000D02*
X31950000Y-41500000D01*
X36250000Y-40700000D02*
X36250000Y-41500000D01*
X37550000Y-40700000D02*
X37550000Y-40200000D01*
X37550000Y-40200000D02*
X31950000Y-40200000D01*
X31950000Y-40700000D02*
X31950000Y-40200000D01*
X33250000Y-40700000D02*
X33250000Y-41500000D01*
X31950000Y-40700000D02*
X33250000Y-40700000D01*
X31950000Y-41500000D02*
X33250000Y-41500000D01*
X31950000Y-42100000D02*
X33250000Y-42100000D01*
X36250000Y-41500000D02*
X37550000Y-41500000D01*
X36250000Y-40700000D02*
X37550000Y-40700000D01*
X36250000Y-42100000D02*
X37550000Y-42100000D01*
X33250000Y-43600000D02*
X33250000Y-42100000D01*
X33250000Y-43600000D02*
X36250000Y-43600000D01*
X190800000Y-143100000D02*
X190800000Y-141100000D01*
X189600000Y-143100000D02*
X190800000Y-143100000D01*
X189600000Y-141100000D02*
X189600000Y-143100000D01*
X190800000Y-141100000D02*
X189600000Y-141100000D01*
D11*
X185395238Y-140802380D02*
X185966666Y-140802380D01*
X185680952Y-140802380D02*
X185680952Y-139802380D01*
X185776190Y-139945238D01*
X185871428Y-140040476D01*
X185966666Y-140088095D01*
X184776190Y-139802380D02*
X184680952Y-139802380D01*
X184585714Y-139850000D01*
X184538095Y-139897619D01*
X184490476Y-139992857D01*
X184442857Y-140183333D01*
X184442857Y-140421428D01*
X184490476Y-140611904D01*
X184538095Y-140707142D01*
X184585714Y-140754761D01*
X184680952Y-140802380D01*
X184776190Y-140802380D01*
X184871428Y-140754761D01*
X184919047Y-140707142D01*
X184966666Y-140611904D01*
X185014285Y-140421428D01*
X185014285Y-140183333D01*
X184966666Y-139992857D01*
X184919047Y-139897619D01*
X184871428Y-139850000D01*
X184776190Y-139802380D01*
X184014285Y-140802380D02*
X184014285Y-139802380D01*
X183919047Y-140421428D02*
X183633333Y-140802380D01*
X183633333Y-140135714D02*
X184014285Y-140516666D01*
D13*
X184883333Y-138926190D02*
X185050000Y-138688095D01*
X185169047Y-138926190D02*
X185169047Y-138426190D01*
X184978571Y-138426190D01*
X184930952Y-138450000D01*
X184907142Y-138473809D01*
X184883333Y-138521428D01*
X184883333Y-138592857D01*
X184907142Y-138640476D01*
X184930952Y-138664285D01*
X184978571Y-138688095D01*
X185169047Y-138688095D01*
X184454761Y-138592857D02*
X184454761Y-138926190D01*
X184573809Y-138402380D02*
X184692857Y-138759523D01*
X184383333Y-138759523D01*
D11*
X159795238Y-127902380D02*
X160366666Y-127902380D01*
X160080952Y-127902380D02*
X160080952Y-126902380D01*
X160176190Y-127045238D01*
X160271428Y-127140476D01*
X160366666Y-127188095D01*
X159176190Y-126902380D02*
X159080952Y-126902380D01*
X158985714Y-126950000D01*
X158938095Y-126997619D01*
X158890476Y-127092857D01*
X158842857Y-127283333D01*
X158842857Y-127521428D01*
X158890476Y-127711904D01*
X158938095Y-127807142D01*
X158985714Y-127854761D01*
X159080952Y-127902380D01*
X159176190Y-127902380D01*
X159271428Y-127854761D01*
X159319047Y-127807142D01*
X159366666Y-127711904D01*
X159414285Y-127521428D01*
X159414285Y-127283333D01*
X159366666Y-127092857D01*
X159319047Y-126997619D01*
X159271428Y-126950000D01*
X159176190Y-126902380D01*
X158414285Y-127902380D02*
X158414285Y-126902380D01*
X158319047Y-127521428D02*
X158033333Y-127902380D01*
X158033333Y-127235714D02*
X158414285Y-127616666D01*
D13*
X159283333Y-129326190D02*
X159450000Y-129088095D01*
X159569047Y-129326190D02*
X159569047Y-128826190D01*
X159378571Y-128826190D01*
X159330952Y-128850000D01*
X159307142Y-128873809D01*
X159283333Y-128921428D01*
X159283333Y-128992857D01*
X159307142Y-129040476D01*
X159330952Y-129064285D01*
X159378571Y-129088095D01*
X159569047Y-129088095D01*
X158807142Y-129326190D02*
X159092857Y-129326190D01*
X158950000Y-129326190D02*
X158950000Y-128826190D01*
X158997619Y-128897619D01*
X159045238Y-128945238D01*
X159092857Y-128969047D01*
D11*
X159166666Y-142602380D02*
X159738095Y-142602380D01*
X159452380Y-142602380D02*
X159452380Y-141602380D01*
X159547619Y-141745238D01*
X159642857Y-141840476D01*
X159738095Y-141888095D01*
X158309523Y-141935714D02*
X158309523Y-142602380D01*
X158738095Y-141935714D02*
X158738095Y-142459523D01*
X158690476Y-142554761D01*
X158595238Y-142602380D01*
X158452380Y-142602380D01*
X158357142Y-142554761D01*
X158309523Y-142507142D01*
D13*
X159083333Y-140678571D02*
X159107142Y-140702380D01*
X159178571Y-140726190D01*
X159226190Y-140726190D01*
X159297619Y-140702380D01*
X159345238Y-140654761D01*
X159369047Y-140607142D01*
X159392857Y-140511904D01*
X159392857Y-140440476D01*
X159369047Y-140345238D01*
X159345238Y-140297619D01*
X159297619Y-140250000D01*
X159226190Y-140226190D01*
X159178571Y-140226190D01*
X159107142Y-140250000D01*
X159083333Y-140273809D01*
X158797619Y-140440476D02*
X158845238Y-140416666D01*
X158869047Y-140392857D01*
X158892857Y-140345238D01*
X158892857Y-140321428D01*
X158869047Y-140273809D01*
X158845238Y-140250000D01*
X158797619Y-140226190D01*
X158702380Y-140226190D01*
X158654761Y-140250000D01*
X158630952Y-140273809D01*
X158607142Y-140321428D01*
X158607142Y-140345238D01*
X158630952Y-140392857D01*
X158654761Y-140416666D01*
X158702380Y-140440476D01*
X158797619Y-140440476D01*
X158845238Y-140464285D01*
X158869047Y-140488095D01*
X158892857Y-140535714D01*
X158892857Y-140630952D01*
X158869047Y-140678571D01*
X158845238Y-140702380D01*
X158797619Y-140726190D01*
X158702380Y-140726190D01*
X158654761Y-140702380D01*
X158630952Y-140678571D01*
X158607142Y-140630952D01*
X158607142Y-140535714D01*
X158630952Y-140488095D01*
X158654761Y-140464285D01*
X158702380Y-140440476D01*
D11*
X164135714Y-122698809D02*
X164802380Y-122698809D01*
X163754761Y-122460714D02*
X164469047Y-122222619D01*
X164469047Y-122841666D01*
X164707142Y-123222619D02*
X164754761Y-123270238D01*
X164802380Y-123222619D01*
X164754761Y-123175000D01*
X164707142Y-123222619D01*
X164802380Y-123222619D01*
X163802380Y-123603571D02*
X163802380Y-124270238D01*
X164802380Y-123841666D01*
X164135714Y-125079761D02*
X164802380Y-125079761D01*
X164135714Y-124651190D02*
X164659523Y-124651190D01*
X164754761Y-124698809D01*
X164802380Y-124794047D01*
X164802380Y-124936904D01*
X164754761Y-125032142D01*
X164707142Y-125079761D01*
D13*
X166178571Y-123591666D02*
X166202380Y-123567857D01*
X166226190Y-123496428D01*
X166226190Y-123448809D01*
X166202380Y-123377380D01*
X166154761Y-123329761D01*
X166107142Y-123305952D01*
X166011904Y-123282142D01*
X165940476Y-123282142D01*
X165845238Y-123305952D01*
X165797619Y-123329761D01*
X165750000Y-123377380D01*
X165726190Y-123448809D01*
X165726190Y-123496428D01*
X165750000Y-123567857D01*
X165773809Y-123591666D01*
X165726190Y-124020238D02*
X165726190Y-123925000D01*
X165750000Y-123877380D01*
X165773809Y-123853571D01*
X165845238Y-123805952D01*
X165940476Y-123782142D01*
X166130952Y-123782142D01*
X166178571Y-123805952D01*
X166202380Y-123829761D01*
X166226190Y-123877380D01*
X166226190Y-123972619D01*
X166202380Y-124020238D01*
X166178571Y-124044047D01*
X166130952Y-124067857D01*
X166011904Y-124067857D01*
X165964285Y-124044047D01*
X165940476Y-124020238D01*
X165916666Y-123972619D01*
X165916666Y-123877380D01*
X165940476Y-123829761D01*
X165964285Y-123805952D01*
X166011904Y-123782142D01*
D11*
X189607142Y-141171428D02*
X189654761Y-141219047D01*
X189702380Y-141171428D01*
X189654761Y-141123809D01*
X189607142Y-141171428D01*
X189702380Y-141171428D01*
X189702380Y-142171428D02*
X189702380Y-141600000D01*
X189702380Y-141885714D02*
X188702380Y-141885714D01*
X188845238Y-141790476D01*
X188940476Y-141695238D01*
X188988095Y-141600000D01*
X189035714Y-143028571D02*
X189702380Y-143028571D01*
X189035714Y-142600000D02*
X189559523Y-142600000D01*
X189654761Y-142647619D01*
X189702380Y-142742857D01*
X189702380Y-142885714D01*
X189654761Y-142980952D01*
X189607142Y-143028571D01*
D13*
X187778571Y-142016666D02*
X187802380Y-141992857D01*
X187826190Y-141921428D01*
X187826190Y-141873809D01*
X187802380Y-141802380D01*
X187754761Y-141754761D01*
X187707142Y-141730952D01*
X187611904Y-141707142D01*
X187540476Y-141707142D01*
X187445238Y-141730952D01*
X187397619Y-141754761D01*
X187350000Y-141802380D01*
X187326190Y-141873809D01*
X187326190Y-141921428D01*
X187350000Y-141992857D01*
X187373809Y-142016666D01*
X187492857Y-142445238D02*
X187826190Y-142445238D01*
X187302380Y-142326190D02*
X187659523Y-142207142D01*
X187659523Y-142516666D01*
D11*
X186607142Y-141171428D02*
X186654761Y-141219047D01*
X186702380Y-141171428D01*
X186654761Y-141123809D01*
X186607142Y-141171428D01*
X186702380Y-141171428D01*
X186702380Y-142171428D02*
X186702380Y-141600000D01*
X186702380Y-141885714D02*
X185702380Y-141885714D01*
X185845238Y-141790476D01*
X185940476Y-141695238D01*
X185988095Y-141600000D01*
X186035714Y-143028571D02*
X186702380Y-143028571D01*
X186035714Y-142600000D02*
X186559523Y-142600000D01*
X186654761Y-142647619D01*
X186702380Y-142742857D01*
X186702380Y-142885714D01*
X186654761Y-142980952D01*
X186607142Y-143028571D01*
D13*
X184778571Y-142016666D02*
X184802380Y-141992857D01*
X184826190Y-141921428D01*
X184826190Y-141873809D01*
X184802380Y-141802380D01*
X184754761Y-141754761D01*
X184707142Y-141730952D01*
X184611904Y-141707142D01*
X184540476Y-141707142D01*
X184445238Y-141730952D01*
X184397619Y-141754761D01*
X184350000Y-141802380D01*
X184326190Y-141873809D01*
X184326190Y-141921428D01*
X184350000Y-141992857D01*
X184373809Y-142016666D01*
X184326190Y-142183333D02*
X184326190Y-142492857D01*
X184516666Y-142326190D01*
X184516666Y-142397619D01*
X184540476Y-142445238D01*
X184564285Y-142469047D01*
X184611904Y-142492857D01*
X184730952Y-142492857D01*
X184778571Y-142469047D01*
X184802380Y-142445238D01*
X184826190Y-142397619D01*
X184826190Y-142254761D01*
X184802380Y-142207142D01*
X184778571Y-142183333D01*
D11*
X183407142Y-141171428D02*
X183454761Y-141219047D01*
X183502380Y-141171428D01*
X183454761Y-141123809D01*
X183407142Y-141171428D01*
X183502380Y-141171428D01*
X183502380Y-142171428D02*
X183502380Y-141600000D01*
X183502380Y-141885714D02*
X182502380Y-141885714D01*
X182645238Y-141790476D01*
X182740476Y-141695238D01*
X182788095Y-141600000D01*
X182835714Y-143028571D02*
X183502380Y-143028571D01*
X182835714Y-142600000D02*
X183359523Y-142600000D01*
X183454761Y-142647619D01*
X183502380Y-142742857D01*
X183502380Y-142885714D01*
X183454761Y-142980952D01*
X183407142Y-143028571D01*
D13*
X181578571Y-142016666D02*
X181602380Y-141992857D01*
X181626190Y-141921428D01*
X181626190Y-141873809D01*
X181602380Y-141802380D01*
X181554761Y-141754761D01*
X181507142Y-141730952D01*
X181411904Y-141707142D01*
X181340476Y-141707142D01*
X181245238Y-141730952D01*
X181197619Y-141754761D01*
X181150000Y-141802380D01*
X181126190Y-141873809D01*
X181126190Y-141921428D01*
X181150000Y-141992857D01*
X181173809Y-142016666D01*
X181626190Y-142492857D02*
X181626190Y-142207142D01*
X181626190Y-142350000D02*
X181126190Y-142350000D01*
X181197619Y-142302380D01*
X181245238Y-142254761D01*
X181269047Y-142207142D01*
D11*
X177323809Y-128216666D02*
X176847619Y-128216666D01*
X177419047Y-128502380D02*
X177085714Y-127502380D01*
X176752380Y-128502380D01*
X176561904Y-127502380D02*
X175990476Y-127502380D01*
X176276190Y-128502380D02*
X176276190Y-127502380D01*
X175657142Y-128502380D02*
X175657142Y-127502380D01*
X175323809Y-128216666D01*
X174990476Y-127502380D01*
X174990476Y-128502380D01*
X174514285Y-127978571D02*
X174180952Y-127978571D01*
X174038095Y-128502380D02*
X174514285Y-128502380D01*
X174514285Y-127502380D01*
X174038095Y-127502380D01*
X173085714Y-127550000D02*
X173180952Y-127502380D01*
X173323809Y-127502380D01*
X173466666Y-127550000D01*
X173561904Y-127645238D01*
X173609523Y-127740476D01*
X173657142Y-127930952D01*
X173657142Y-128073809D01*
X173609523Y-128264285D01*
X173561904Y-128359523D01*
X173466666Y-128454761D01*
X173323809Y-128502380D01*
X173228571Y-128502380D01*
X173085714Y-128454761D01*
X173038095Y-128407142D01*
X173038095Y-128073809D01*
X173228571Y-128073809D01*
X172657142Y-128216666D02*
X172180952Y-128216666D01*
X172752380Y-128502380D02*
X172419047Y-127502380D01*
X172085714Y-128502380D01*
X171847619Y-127502380D02*
X171228571Y-127502380D01*
X171561904Y-127883333D01*
X171419047Y-127883333D01*
X171323809Y-127930952D01*
X171276190Y-127978571D01*
X171228571Y-128073809D01*
X171228571Y-128311904D01*
X171276190Y-128407142D01*
X171323809Y-128454761D01*
X171419047Y-128502380D01*
X171704761Y-128502380D01*
X171800000Y-128454761D01*
X171847619Y-128407142D01*
X170847619Y-127597619D02*
X170800000Y-127550000D01*
X170704761Y-127502380D01*
X170466666Y-127502380D01*
X170371428Y-127550000D01*
X170323809Y-127597619D01*
X170276190Y-127692857D01*
X170276190Y-127788095D01*
X170323809Y-127930952D01*
X170895238Y-128502380D01*
X170276190Y-128502380D01*
X169847619Y-127502380D02*
X169847619Y-128311904D01*
X169800000Y-128407142D01*
X169752380Y-128454761D01*
X169657142Y-128502380D01*
X169466666Y-128502380D01*
X169371428Y-128454761D01*
X169323809Y-128407142D01*
X169276190Y-128311904D01*
X169276190Y-127502380D01*
X168371428Y-127835714D02*
X168371428Y-128502380D01*
X168609523Y-127454761D02*
X168847619Y-128169047D01*
X168228571Y-128169047D01*
X173561904Y-134952380D02*
X173561904Y-135761904D01*
X173514285Y-135857142D01*
X173466666Y-135904761D01*
X173371428Y-135952380D01*
X173180952Y-135952380D01*
X173085714Y-135904761D01*
X173038095Y-135857142D01*
X172990476Y-135761904D01*
X172990476Y-134952380D01*
X171990476Y-135952380D02*
X172561904Y-135952380D01*
X172276190Y-135952380D02*
X172276190Y-134952380D01*
X172371428Y-135095238D01*
X172466666Y-135190476D01*
X172561904Y-135238095D01*
X169997619Y-120257142D02*
X169950000Y-120304761D01*
X169902380Y-120400000D01*
X169902380Y-120638095D01*
X169950000Y-120733333D01*
X169997619Y-120780952D01*
X170092857Y-120828571D01*
X170188095Y-120828571D01*
X170330952Y-120780952D01*
X170902380Y-120209523D01*
X170902380Y-120828571D01*
X169997619Y-121209523D02*
X169950000Y-121257142D01*
X169902380Y-121352380D01*
X169902380Y-121590476D01*
X169950000Y-121685714D01*
X169997619Y-121733333D01*
X170092857Y-121780952D01*
X170188095Y-121780952D01*
X170330952Y-121733333D01*
X170902380Y-121161904D01*
X170902380Y-121780952D01*
X170235714Y-122209523D02*
X171235714Y-122209523D01*
X170283333Y-122209523D02*
X170235714Y-122304761D01*
X170235714Y-122495238D01*
X170283333Y-122590476D01*
X170330952Y-122638095D01*
X170426190Y-122685714D01*
X170711904Y-122685714D01*
X170807142Y-122638095D01*
X170854761Y-122590476D01*
X170902380Y-122495238D01*
X170902380Y-122304761D01*
X170854761Y-122209523D01*
X170378571Y-123447619D02*
X170378571Y-123114285D01*
X170902380Y-123114285D02*
X169902380Y-123114285D01*
X169902380Y-123590476D01*
D13*
X168978571Y-121816666D02*
X169002380Y-121792857D01*
X169026190Y-121721428D01*
X169026190Y-121673809D01*
X169002380Y-121602380D01*
X168954761Y-121554761D01*
X168907142Y-121530952D01*
X168811904Y-121507142D01*
X168740476Y-121507142D01*
X168645238Y-121530952D01*
X168597619Y-121554761D01*
X168550000Y-121602380D01*
X168526190Y-121673809D01*
X168526190Y-121721428D01*
X168550000Y-121792857D01*
X168573809Y-121816666D01*
X168573809Y-122007142D02*
X168550000Y-122030952D01*
X168526190Y-122078571D01*
X168526190Y-122197619D01*
X168550000Y-122245238D01*
X168573809Y-122269047D01*
X168621428Y-122292857D01*
X168669047Y-122292857D01*
X168740476Y-122269047D01*
X169026190Y-121983333D01*
X169026190Y-122292857D01*
D11*
X31647619Y-58488095D02*
X31600000Y-58535714D01*
X31552380Y-58630952D01*
X31552380Y-58869047D01*
X31600000Y-58964285D01*
X31647619Y-59011904D01*
X31742857Y-59059523D01*
X31838095Y-59059523D01*
X31980952Y-59011904D01*
X32552380Y-58440476D01*
X32552380Y-59059523D01*
X31647619Y-59440476D02*
X31600000Y-59488095D01*
X31552380Y-59583333D01*
X31552380Y-59821428D01*
X31600000Y-59916666D01*
X31647619Y-59964285D01*
X31742857Y-60011904D01*
X31838095Y-60011904D01*
X31980952Y-59964285D01*
X32552380Y-59392857D01*
X32552380Y-60011904D01*
D13*
X33976190Y-59166666D02*
X33738095Y-59000000D01*
X33976190Y-58880952D02*
X33476190Y-58880952D01*
X33476190Y-59071428D01*
X33500000Y-59119047D01*
X33523809Y-59142857D01*
X33571428Y-59166666D01*
X33642857Y-59166666D01*
X33690476Y-59142857D01*
X33714285Y-59119047D01*
X33738095Y-59071428D01*
X33738095Y-58880952D01*
X33523809Y-59357142D02*
X33500000Y-59380952D01*
X33476190Y-59428571D01*
X33476190Y-59547619D01*
X33500000Y-59595238D01*
X33523809Y-59619047D01*
X33571428Y-59642857D01*
X33619047Y-59642857D01*
X33690476Y-59619047D01*
X33976190Y-59333333D01*
X33976190Y-59642857D01*
D11*
X163154761Y-131838095D02*
X163202380Y-131980952D01*
X163202380Y-132219047D01*
X163154761Y-132314285D01*
X163107142Y-132361904D01*
X163011904Y-132409523D01*
X162916666Y-132409523D01*
X162821428Y-132361904D01*
X162773809Y-132314285D01*
X162726190Y-132219047D01*
X162678571Y-132028571D01*
X162630952Y-131933333D01*
X162583333Y-131885714D01*
X162488095Y-131838095D01*
X162392857Y-131838095D01*
X162297619Y-131885714D01*
X162250000Y-131933333D01*
X162202380Y-132028571D01*
X162202380Y-132266666D01*
X162250000Y-132409523D01*
X162202380Y-132742857D02*
X163202380Y-132980952D01*
X162488095Y-133171428D01*
X163202380Y-133361904D01*
X162202380Y-133600000D01*
X163297619Y-133742857D02*
X163297619Y-134504761D01*
X163202380Y-134742857D02*
X162202380Y-134742857D01*
X162202380Y-135123809D01*
X162250000Y-135219047D01*
X162297619Y-135266666D01*
X162392857Y-135314285D01*
X162535714Y-135314285D01*
X162630952Y-135266666D01*
X162678571Y-135219047D01*
X162726190Y-135123809D01*
X162726190Y-134742857D01*
X162202380Y-135742857D02*
X163011904Y-135742857D01*
X163107142Y-135790476D01*
X163154761Y-135838095D01*
X163202380Y-135933333D01*
X163202380Y-136123809D01*
X163154761Y-136219047D01*
X163107142Y-136266666D01*
X163011904Y-136314285D01*
X162202380Y-136314285D01*
X163154761Y-136742857D02*
X163202380Y-136885714D01*
X163202380Y-137123809D01*
X163154761Y-137219047D01*
X163107142Y-137266666D01*
X163011904Y-137314285D01*
X162916666Y-137314285D01*
X162821428Y-137266666D01*
X162773809Y-137219047D01*
X162726190Y-137123809D01*
X162678571Y-136933333D01*
X162630952Y-136838095D01*
X162583333Y-136790476D01*
X162488095Y-136742857D01*
X162392857Y-136742857D01*
X162297619Y-136790476D01*
X162250000Y-136838095D01*
X162202380Y-136933333D01*
X162202380Y-137171428D01*
X162250000Y-137314285D01*
X163202380Y-137742857D02*
X162202380Y-137742857D01*
X162678571Y-137742857D02*
X162678571Y-138314285D01*
X163202380Y-138314285D02*
X162202380Y-138314285D01*
X155654761Y-132742857D02*
X155702380Y-132885714D01*
X155702380Y-133123809D01*
X155654761Y-133219047D01*
X155607142Y-133266666D01*
X155511904Y-133314285D01*
X155416666Y-133314285D01*
X155321428Y-133266666D01*
X155273809Y-133219047D01*
X155226190Y-133123809D01*
X155178571Y-132933333D01*
X155130952Y-132838095D01*
X155083333Y-132790476D01*
X154988095Y-132742857D01*
X154892857Y-132742857D01*
X154797619Y-132790476D01*
X154750000Y-132838095D01*
X154702380Y-132933333D01*
X154702380Y-133171428D01*
X154750000Y-133314285D01*
X154702380Y-133647619D02*
X155702380Y-133885714D01*
X154988095Y-134076190D01*
X155702380Y-134266666D01*
X154702380Y-134504761D01*
X155702380Y-134885714D02*
X154702380Y-134885714D01*
X154702380Y-135266666D01*
X154750000Y-135361904D01*
X154797619Y-135409523D01*
X154892857Y-135457142D01*
X155035714Y-135457142D01*
X155130952Y-135409523D01*
X155178571Y-135361904D01*
X155226190Y-135266666D01*
X155226190Y-134885714D01*
X155035714Y-135790476D02*
X155702380Y-135980952D01*
X155226190Y-136171428D01*
X155702380Y-136361904D01*
X155035714Y-136552380D01*
X155702380Y-137457142D02*
X155702380Y-136885714D01*
X155702380Y-137171428D02*
X154702380Y-137171428D01*
X154845238Y-137076190D01*
X154940476Y-136980952D01*
X154988095Y-136885714D01*
X178197619Y-120257142D02*
X178150000Y-120304761D01*
X178102380Y-120400000D01*
X178102380Y-120638095D01*
X178150000Y-120733333D01*
X178197619Y-120780952D01*
X178292857Y-120828571D01*
X178388095Y-120828571D01*
X178530952Y-120780952D01*
X179102380Y-120209523D01*
X179102380Y-120828571D01*
X178197619Y-121209523D02*
X178150000Y-121257142D01*
X178102380Y-121352380D01*
X178102380Y-121590476D01*
X178150000Y-121685714D01*
X178197619Y-121733333D01*
X178292857Y-121780952D01*
X178388095Y-121780952D01*
X178530952Y-121733333D01*
X179102380Y-121161904D01*
X179102380Y-121780952D01*
X178435714Y-122209523D02*
X179435714Y-122209523D01*
X178483333Y-122209523D02*
X178435714Y-122304761D01*
X178435714Y-122495238D01*
X178483333Y-122590476D01*
X178530952Y-122638095D01*
X178626190Y-122685714D01*
X178911904Y-122685714D01*
X179007142Y-122638095D01*
X179054761Y-122590476D01*
X179102380Y-122495238D01*
X179102380Y-122304761D01*
X179054761Y-122209523D01*
X178578571Y-123447619D02*
X178578571Y-123114285D01*
X179102380Y-123114285D02*
X178102380Y-123114285D01*
X178102380Y-123590476D01*
D13*
X177178571Y-121816666D02*
X177202380Y-121792857D01*
X177226190Y-121721428D01*
X177226190Y-121673809D01*
X177202380Y-121602380D01*
X177154761Y-121554761D01*
X177107142Y-121530952D01*
X177011904Y-121507142D01*
X176940476Y-121507142D01*
X176845238Y-121530952D01*
X176797619Y-121554761D01*
X176750000Y-121602380D01*
X176726190Y-121673809D01*
X176726190Y-121721428D01*
X176750000Y-121792857D01*
X176773809Y-121816666D01*
X176726190Y-121983333D02*
X176726190Y-122316666D01*
X177226190Y-122102380D01*
D11*
X33647619Y-58488095D02*
X33600000Y-58535714D01*
X33552380Y-58630952D01*
X33552380Y-58869047D01*
X33600000Y-58964285D01*
X33647619Y-59011904D01*
X33742857Y-59059523D01*
X33838095Y-59059523D01*
X33980952Y-59011904D01*
X34552380Y-58440476D01*
X34552380Y-59059523D01*
X33647619Y-59440476D02*
X33600000Y-59488095D01*
X33552380Y-59583333D01*
X33552380Y-59821428D01*
X33600000Y-59916666D01*
X33647619Y-59964285D01*
X33742857Y-60011904D01*
X33838095Y-60011904D01*
X33980952Y-59964285D01*
X34552380Y-59392857D01*
X34552380Y-60011904D01*
D13*
X35976190Y-59166666D02*
X35738095Y-59000000D01*
X35976190Y-58880952D02*
X35476190Y-58880952D01*
X35476190Y-59071428D01*
X35500000Y-59119047D01*
X35523809Y-59142857D01*
X35571428Y-59166666D01*
X35642857Y-59166666D01*
X35690476Y-59142857D01*
X35714285Y-59119047D01*
X35738095Y-59071428D01*
X35738095Y-58880952D01*
X35476190Y-59333333D02*
X35476190Y-59642857D01*
X35666666Y-59476190D01*
X35666666Y-59547619D01*
X35690476Y-59595238D01*
X35714285Y-59619047D01*
X35761904Y-59642857D01*
X35880952Y-59642857D01*
X35928571Y-59619047D01*
X35952380Y-59595238D01*
X35976190Y-59547619D01*
X35976190Y-59404761D01*
X35952380Y-59357142D01*
X35928571Y-59333333D01*
D10*
X38047619Y-49826190D02*
X38047619Y-50230952D01*
X38023809Y-50278571D01*
X38000000Y-50302380D01*
X37952380Y-50326190D01*
X37857142Y-50326190D01*
X37809523Y-50302380D01*
X37785714Y-50278571D01*
X37761904Y-50230952D01*
X37761904Y-49826190D01*
X37547619Y-50302380D02*
X37476190Y-50326190D01*
X37357142Y-50326190D01*
X37309523Y-50302380D01*
X37285714Y-50278571D01*
X37261904Y-50230952D01*
X37261904Y-50183333D01*
X37285714Y-50135714D01*
X37309523Y-50111904D01*
X37357142Y-50088095D01*
X37452380Y-50064285D01*
X37500000Y-50040476D01*
X37523809Y-50016666D01*
X37547619Y-49969047D01*
X37547619Y-49921428D01*
X37523809Y-49873809D01*
X37500000Y-49850000D01*
X37452380Y-49826190D01*
X37333333Y-49826190D01*
X37261904Y-49850000D01*
X36880952Y-50064285D02*
X36809523Y-50088095D01*
X36785714Y-50111904D01*
X36761904Y-50159523D01*
X36761904Y-50230952D01*
X36785714Y-50278571D01*
X36809523Y-50302380D01*
X36857142Y-50326190D01*
X37047619Y-50326190D01*
X37047619Y-49826190D01*
X36880952Y-49826190D01*
X36833333Y-49850000D01*
X36809523Y-49873809D01*
X36785714Y-49921428D01*
X36785714Y-49969047D01*
X36809523Y-50016666D01*
X36833333Y-50040476D01*
X36880952Y-50064285D01*
X37047619Y-50064285D01*
X36666666Y-50373809D02*
X36285714Y-50373809D01*
X36166666Y-50326190D02*
X36166666Y-49992857D01*
X36166666Y-50040476D02*
X36142857Y-50016666D01*
X36095238Y-49992857D01*
X36023809Y-49992857D01*
X35976190Y-50016666D01*
X35952380Y-50064285D01*
X35952380Y-50326190D01*
X35952380Y-50064285D02*
X35928571Y-50016666D01*
X35880952Y-49992857D01*
X35809523Y-49992857D01*
X35761904Y-50016666D01*
X35738095Y-50064285D01*
X35738095Y-50326190D01*
X35500000Y-50326190D02*
X35500000Y-49992857D01*
X35500000Y-49826190D02*
X35523809Y-49850000D01*
X35500000Y-49873809D01*
X35476190Y-49850000D01*
X35500000Y-49826190D01*
X35500000Y-49873809D01*
X35261904Y-49992857D02*
X35261904Y-50326190D01*
X35261904Y-50040476D02*
X35238095Y-50016666D01*
X35190476Y-49992857D01*
X35119047Y-49992857D01*
X35071428Y-50016666D01*
X35047619Y-50064285D01*
X35047619Y-50326190D01*
X34809523Y-50326190D02*
X34809523Y-49992857D01*
X34809523Y-49826190D02*
X34833333Y-49850000D01*
X34809523Y-49873809D01*
X34785714Y-49850000D01*
X34809523Y-49826190D01*
X34809523Y-49873809D01*
X34690476Y-50373809D02*
X34309523Y-50373809D01*
X34190476Y-50326190D02*
X34190476Y-49992857D01*
X34190476Y-50040476D02*
X34166666Y-50016666D01*
X34119047Y-49992857D01*
X34047619Y-49992857D01*
X34000000Y-50016666D01*
X33976190Y-50064285D01*
X33976190Y-50326190D01*
X33976190Y-50064285D02*
X33952380Y-50016666D01*
X33904761Y-49992857D01*
X33833333Y-49992857D01*
X33785714Y-50016666D01*
X33761904Y-50064285D01*
X33761904Y-50326190D01*
X33523809Y-50326190D02*
X33523809Y-49992857D01*
X33523809Y-49826190D02*
X33547619Y-49850000D01*
X33523809Y-49873809D01*
X33500000Y-49850000D01*
X33523809Y-49826190D01*
X33523809Y-49873809D01*
X33071428Y-50302380D02*
X33119047Y-50326190D01*
X33214285Y-50326190D01*
X33261904Y-50302380D01*
X33285714Y-50278571D01*
X33309523Y-50230952D01*
X33309523Y-50088095D01*
X33285714Y-50040476D01*
X33261904Y-50016666D01*
X33214285Y-49992857D01*
X33119047Y-49992857D01*
X33071428Y-50016666D01*
X32857142Y-50326190D02*
X32857142Y-49992857D01*
X32857142Y-50088095D02*
X32833333Y-50040476D01*
X32809523Y-50016666D01*
X32761904Y-49992857D01*
X32714285Y-49992857D01*
X32476190Y-50326190D02*
X32523809Y-50302380D01*
X32547619Y-50278571D01*
X32571428Y-50230952D01*
X32571428Y-50088095D01*
X32547619Y-50040476D01*
X32523809Y-50016666D01*
X32476190Y-49992857D01*
X32404761Y-49992857D01*
X32357142Y-50016666D01*
X32333333Y-50040476D01*
X32309523Y-50088095D01*
X32309523Y-50230952D01*
X32333333Y-50278571D01*
X32357142Y-50302380D01*
X32404761Y-50326190D01*
X32476190Y-50326190D01*
X32214285Y-50373809D02*
X31833333Y-50373809D01*
X31547619Y-50064285D02*
X31476190Y-50088095D01*
X31452380Y-50111904D01*
X31428571Y-50159523D01*
X31428571Y-50230952D01*
X31452380Y-50278571D01*
X31476190Y-50302380D01*
X31523809Y-50326190D01*
X31714285Y-50326190D01*
X31714285Y-49826190D01*
X31547619Y-49826190D01*
X31500000Y-49850000D01*
X31476190Y-49873809D01*
X31452380Y-49921428D01*
X31452380Y-49969047D01*
X31476190Y-50016666D01*
X31500000Y-50040476D01*
X31547619Y-50064285D01*
X31714285Y-50064285D01*
D14*
X36385714Y-41935714D02*
X36385714Y-41635714D01*
X36214285Y-41935714D02*
X36342857Y-41764285D01*
X36214285Y-41635714D02*
X36385714Y-41807142D01*
X36085714Y-41778571D02*
X35985714Y-41778571D01*
X35942857Y-41935714D02*
X36085714Y-41935714D01*
X36085714Y-41635714D01*
X35942857Y-41635714D01*
X35814285Y-41778571D02*
X35714285Y-41778571D01*
X35671428Y-41935714D02*
X35814285Y-41935714D01*
X35814285Y-41635714D01*
X35671428Y-41635714D01*
X35542857Y-41935714D02*
X35542857Y-41635714D01*
X35428571Y-41635714D01*
X35400000Y-41650000D01*
X35385714Y-41664285D01*
X35371428Y-41692857D01*
X35371428Y-41735714D01*
X35385714Y-41764285D01*
X35400000Y-41778571D01*
X35428571Y-41792857D01*
X35542857Y-41792857D01*
X35185714Y-41635714D02*
X35128571Y-41635714D01*
X35100000Y-41650000D01*
X35071428Y-41678571D01*
X35057142Y-41735714D01*
X35057142Y-41835714D01*
X35071428Y-41892857D01*
X35100000Y-41921428D01*
X35128571Y-41935714D01*
X35185714Y-41935714D01*
X35214285Y-41921428D01*
X35242857Y-41892857D01*
X35257142Y-41835714D01*
X35257142Y-41735714D01*
X35242857Y-41678571D01*
X35214285Y-41650000D01*
X35185714Y-41635714D01*
X34928571Y-41635714D02*
X34928571Y-41878571D01*
X34914285Y-41907142D01*
X34900000Y-41921428D01*
X34871428Y-41935714D01*
X34814285Y-41935714D01*
X34785714Y-41921428D01*
X34771428Y-41907142D01*
X34757142Y-41878571D01*
X34757142Y-41635714D01*
X34657142Y-41635714D02*
X34485714Y-41635714D01*
X34571428Y-41935714D02*
X34571428Y-41635714D01*
X34185714Y-41635714D02*
X33985714Y-41635714D01*
X34185714Y-41935714D01*
X33985714Y-41935714D01*
X33814285Y-41635714D02*
X33757142Y-41635714D01*
X33728571Y-41650000D01*
X33700000Y-41678571D01*
X33685714Y-41735714D01*
X33685714Y-41835714D01*
X33700000Y-41892857D01*
X33728571Y-41921428D01*
X33757142Y-41935714D01*
X33814285Y-41935714D01*
X33842857Y-41921428D01*
X33871428Y-41892857D01*
X33885714Y-41835714D01*
X33885714Y-41735714D01*
X33871428Y-41678571D01*
X33842857Y-41650000D01*
X33814285Y-41635714D01*
X33557142Y-41935714D02*
X33557142Y-41635714D01*
X33385714Y-41935714D01*
X33385714Y-41635714D01*
X33242857Y-41778571D02*
X33142857Y-41778571D01*
X33100000Y-41935714D02*
X33242857Y-41935714D01*
X33242857Y-41635714D01*
X33100000Y-41635714D01*
D11*
X192207142Y-141171428D02*
X192254761Y-141219047D01*
X192302380Y-141171428D01*
X192254761Y-141123809D01*
X192207142Y-141171428D01*
X192302380Y-141171428D01*
X192302380Y-142171428D02*
X192302380Y-141600000D01*
X192302380Y-141885714D02*
X191302380Y-141885714D01*
X191445238Y-141790476D01*
X191540476Y-141695238D01*
X191588095Y-141600000D01*
X191635714Y-143028571D02*
X192302380Y-143028571D01*
X191635714Y-142600000D02*
X192159523Y-142600000D01*
X192254761Y-142647619D01*
X192302380Y-142742857D01*
X192302380Y-142885714D01*
X192254761Y-142980952D01*
X192207142Y-143028571D01*
D13*
X190378571Y-142016666D02*
X190402380Y-141992857D01*
X190426190Y-141921428D01*
X190426190Y-141873809D01*
X190402380Y-141802380D01*
X190354761Y-141754761D01*
X190307142Y-141730952D01*
X190211904Y-141707142D01*
X190140476Y-141707142D01*
X190045238Y-141730952D01*
X189997619Y-141754761D01*
X189950000Y-141802380D01*
X189926190Y-141873809D01*
X189926190Y-141921428D01*
X189950000Y-141992857D01*
X189973809Y-142016666D01*
X189926190Y-142469047D02*
X189926190Y-142230952D01*
X190164285Y-142207142D01*
X190140476Y-142230952D01*
X190116666Y-142278571D01*
X190116666Y-142397619D01*
X190140476Y-142445238D01*
X190164285Y-142469047D01*
X190211904Y-142492857D01*
X190330952Y-142492857D01*
X190378571Y-142469047D01*
X190402380Y-142445238D01*
X190426190Y-142397619D01*
X190426190Y-142278571D01*
X190402380Y-142230952D01*
X190378571Y-142207142D01*
M02*
