G04 #@! TF.GenerationSoftware,KiCad,Pcbnew,(5.1.5)-3*
G04 #@! TF.CreationDate,2020-04-14T21:23:00-05:00*
G04 #@! TF.ProjectId,Without Led and Usb-c,57697468-6f75-4742-904c-656420616e64,rev?*
G04 #@! TF.SameCoordinates,Original*
G04 #@! TF.FileFunction,Paste,Bot*
G04 #@! TF.FilePolarity,Positive*
%FSLAX46Y46*%
G04 Gerber Fmt 4.6, Leading zero omitted, Abs format (unit mm)*
G04 Created by KiCad (PCBNEW (5.1.5)-3) date 2020-04-14 21:23:00*
%MOMM*%
%LPD*%
G04 APERTURE LIST*
%ADD10C,0.050000*%
%ADD11R,1.200000X1.200000*%
%ADD12C,0.100000*%
%ADD13R,0.550000X1.500000*%
%ADD14R,1.500000X0.550000*%
%ADD15R,1.000000X1.700000*%
%ADD16R,0.500000X2.000000*%
G04 APERTURE END LIST*
D10*
X9820000Y-147280000D02*
X9819976Y-41880000D01*
X326720000Y-39879976D02*
G75*
G02X328720024Y-41880000I0J-2000024D01*
G01*
X328720000Y-147280000D02*
G75*
G02X326720000Y-149280000I-2000000J0D01*
G01*
X11820000Y-149280000D02*
G75*
G02X9820000Y-147280000I0J2000000D01*
G01*
X9819976Y-41880000D02*
G75*
G02X11820000Y-39879976I2000024J0D01*
G01*
X11820000Y-39879976D02*
X15820000Y-39880000D01*
X326720000Y-149280000D02*
X11820000Y-149280000D01*
X328720024Y-41880000D02*
X328720000Y-147280000D01*
X15820000Y-39880000D02*
X326720000Y-39879976D01*
D11*
X43750000Y-136325000D03*
X43750000Y-133175000D03*
X261750000Y-136325000D03*
X261750000Y-133175000D03*
X303250000Y-79325000D03*
X303250000Y-76175000D03*
X303250000Y-60075000D03*
X303250000Y-56925000D03*
X303250000Y-136325000D03*
X303250000Y-133175000D03*
X303250000Y-116825000D03*
X303250000Y-113675000D03*
X303250000Y-98325000D03*
X303250000Y-95175000D03*
X279500000Y-79075000D03*
X279500000Y-75925000D03*
X274500000Y-60075000D03*
X274500000Y-56925000D03*
X284250000Y-136325000D03*
X284250000Y-133175000D03*
X284250000Y-116825000D03*
X284250000Y-113675000D03*
X272000000Y-98075000D03*
X272000000Y-94925000D03*
X255750000Y-79325000D03*
X255750000Y-76175000D03*
X246250000Y-60075000D03*
X246250000Y-56925000D03*
X265250000Y-136325000D03*
X265250000Y-133175000D03*
X258000000Y-116825000D03*
X258000000Y-113675000D03*
X241250000Y-98325000D03*
X241250000Y-95175000D03*
X236500000Y-79325000D03*
X236500000Y-76175000D03*
X227000000Y-60075000D03*
X227000000Y-56925000D03*
X227250000Y-136325000D03*
X227250000Y-133175000D03*
X232000000Y-117075000D03*
X232000000Y-113925000D03*
X222250000Y-98325000D03*
X222250000Y-95175000D03*
X217500000Y-79325000D03*
X217500000Y-76175000D03*
X208000000Y-60075000D03*
X208000000Y-56925000D03*
X208250000Y-136325000D03*
X208250000Y-133175000D03*
X212750000Y-116825000D03*
X212750000Y-113675000D03*
X203250000Y-98325000D03*
X203250000Y-95175000D03*
X198750000Y-79325000D03*
X198750000Y-76175000D03*
X189000000Y-60075000D03*
X189000000Y-56925000D03*
X209000000Y-116825000D03*
X209000000Y-113675000D03*
X184750000Y-97825000D03*
X184750000Y-94675000D03*
X179500000Y-79325000D03*
X179500000Y-76175000D03*
X170000000Y-60075000D03*
X170000000Y-56925000D03*
X174750000Y-115075000D03*
X174750000Y-111925000D03*
X165000000Y-98325000D03*
X165000000Y-95175000D03*
X160500000Y-79325000D03*
X160500000Y-76175000D03*
X151000000Y-60075000D03*
X151000000Y-56925000D03*
X155500000Y-117325000D03*
X155500000Y-114175000D03*
X146000000Y-98325000D03*
X146000000Y-95175000D03*
X141250000Y-79325000D03*
X141250000Y-76175000D03*
X132000000Y-60075000D03*
X132000000Y-56925000D03*
X139000000Y-136325000D03*
X139000000Y-133175000D03*
X136500000Y-117325000D03*
X136500000Y-114175000D03*
X127250000Y-98325000D03*
X127250000Y-95175000D03*
X122250000Y-79325000D03*
X122250000Y-76175000D03*
X112750000Y-60075000D03*
X112750000Y-56925000D03*
X117500000Y-117325000D03*
X117500000Y-114175000D03*
X108000000Y-98325000D03*
X108000000Y-95175000D03*
X103250000Y-79225000D03*
X103250000Y-76075000D03*
X93750000Y-60075000D03*
X93750000Y-56925000D03*
X98500000Y-117325000D03*
X98500000Y-114175000D03*
X89250000Y-98150000D03*
X89250000Y-95000000D03*
X84000000Y-79325000D03*
X84000000Y-76175000D03*
X74750000Y-60075000D03*
X74750000Y-56925000D03*
X67500000Y-136325000D03*
X67500000Y-133175000D03*
X79500000Y-117325000D03*
X79500000Y-114175000D03*
X70000000Y-98325000D03*
X70000000Y-95175000D03*
X65250000Y-79150000D03*
X65250000Y-76000000D03*
X55750000Y-60075000D03*
X55750000Y-56925000D03*
X60500000Y-117325000D03*
X60500000Y-114175000D03*
X50750000Y-98325000D03*
X50750000Y-95175000D03*
X46250000Y-79325000D03*
X46250000Y-76175000D03*
X52250000Y-60075000D03*
X52250000Y-56925000D03*
X19750000Y-136325000D03*
X19750000Y-133175000D03*
X28750000Y-116575000D03*
X28750000Y-113425000D03*
X24500000Y-98325000D03*
X24500000Y-95175000D03*
X22250000Y-79175000D03*
X22250000Y-76025000D03*
X17500000Y-56895000D03*
X17500000Y-60045000D03*
D12*
G36*
X184124505Y-138001204D02*
G01*
X184148773Y-138004804D01*
X184172572Y-138010765D01*
X184195671Y-138019030D01*
X184217850Y-138029520D01*
X184238893Y-138042132D01*
X184258599Y-138056747D01*
X184276777Y-138073223D01*
X184293253Y-138091401D01*
X184307868Y-138111107D01*
X184320480Y-138132150D01*
X184330970Y-138154329D01*
X184339235Y-138177428D01*
X184345196Y-138201227D01*
X184348796Y-138225495D01*
X184350000Y-138249999D01*
X184350000Y-139150001D01*
X184348796Y-139174505D01*
X184345196Y-139198773D01*
X184339235Y-139222572D01*
X184330970Y-139245671D01*
X184320480Y-139267850D01*
X184307868Y-139288893D01*
X184293253Y-139308599D01*
X184276777Y-139326777D01*
X184258599Y-139343253D01*
X184238893Y-139357868D01*
X184217850Y-139370480D01*
X184195671Y-139380970D01*
X184172572Y-139389235D01*
X184148773Y-139395196D01*
X184124505Y-139398796D01*
X184100001Y-139400000D01*
X183449999Y-139400000D01*
X183425495Y-139398796D01*
X183401227Y-139395196D01*
X183377428Y-139389235D01*
X183354329Y-139380970D01*
X183332150Y-139370480D01*
X183311107Y-139357868D01*
X183291401Y-139343253D01*
X183273223Y-139326777D01*
X183256747Y-139308599D01*
X183242132Y-139288893D01*
X183229520Y-139267850D01*
X183219030Y-139245671D01*
X183210765Y-139222572D01*
X183204804Y-139198773D01*
X183201204Y-139174505D01*
X183200000Y-139150001D01*
X183200000Y-138249999D01*
X183201204Y-138225495D01*
X183204804Y-138201227D01*
X183210765Y-138177428D01*
X183219030Y-138154329D01*
X183229520Y-138132150D01*
X183242132Y-138111107D01*
X183256747Y-138091401D01*
X183273223Y-138073223D01*
X183291401Y-138056747D01*
X183311107Y-138042132D01*
X183332150Y-138029520D01*
X183354329Y-138019030D01*
X183377428Y-138010765D01*
X183401227Y-138004804D01*
X183425495Y-138001204D01*
X183449999Y-138000000D01*
X184100001Y-138000000D01*
X184124505Y-138001204D01*
G37*
G36*
X186174505Y-138001204D02*
G01*
X186198773Y-138004804D01*
X186222572Y-138010765D01*
X186245671Y-138019030D01*
X186267850Y-138029520D01*
X186288893Y-138042132D01*
X186308599Y-138056747D01*
X186326777Y-138073223D01*
X186343253Y-138091401D01*
X186357868Y-138111107D01*
X186370480Y-138132150D01*
X186380970Y-138154329D01*
X186389235Y-138177428D01*
X186395196Y-138201227D01*
X186398796Y-138225495D01*
X186400000Y-138249999D01*
X186400000Y-139150001D01*
X186398796Y-139174505D01*
X186395196Y-139198773D01*
X186389235Y-139222572D01*
X186380970Y-139245671D01*
X186370480Y-139267850D01*
X186357868Y-139288893D01*
X186343253Y-139308599D01*
X186326777Y-139326777D01*
X186308599Y-139343253D01*
X186288893Y-139357868D01*
X186267850Y-139370480D01*
X186245671Y-139380970D01*
X186222572Y-139389235D01*
X186198773Y-139395196D01*
X186174505Y-139398796D01*
X186150001Y-139400000D01*
X185499999Y-139400000D01*
X185475495Y-139398796D01*
X185451227Y-139395196D01*
X185427428Y-139389235D01*
X185404329Y-139380970D01*
X185382150Y-139370480D01*
X185361107Y-139357868D01*
X185341401Y-139343253D01*
X185323223Y-139326777D01*
X185306747Y-139308599D01*
X185292132Y-139288893D01*
X185279520Y-139267850D01*
X185269030Y-139245671D01*
X185260765Y-139222572D01*
X185254804Y-139198773D01*
X185251204Y-139174505D01*
X185250000Y-139150001D01*
X185250000Y-138249999D01*
X185251204Y-138225495D01*
X185254804Y-138201227D01*
X185260765Y-138177428D01*
X185269030Y-138154329D01*
X185279520Y-138132150D01*
X185292132Y-138111107D01*
X185306747Y-138091401D01*
X185323223Y-138073223D01*
X185341401Y-138056747D01*
X185361107Y-138042132D01*
X185382150Y-138029520D01*
X185404329Y-138019030D01*
X185427428Y-138010765D01*
X185451227Y-138004804D01*
X185475495Y-138001204D01*
X185499999Y-138000000D01*
X186150001Y-138000000D01*
X186174505Y-138001204D01*
G37*
G36*
X160574505Y-128401204D02*
G01*
X160598773Y-128404804D01*
X160622572Y-128410765D01*
X160645671Y-128419030D01*
X160667850Y-128429520D01*
X160688893Y-128442132D01*
X160708599Y-128456747D01*
X160726777Y-128473223D01*
X160743253Y-128491401D01*
X160757868Y-128511107D01*
X160770480Y-128532150D01*
X160780970Y-128554329D01*
X160789235Y-128577428D01*
X160795196Y-128601227D01*
X160798796Y-128625495D01*
X160800000Y-128649999D01*
X160800000Y-129550001D01*
X160798796Y-129574505D01*
X160795196Y-129598773D01*
X160789235Y-129622572D01*
X160780970Y-129645671D01*
X160770480Y-129667850D01*
X160757868Y-129688893D01*
X160743253Y-129708599D01*
X160726777Y-129726777D01*
X160708599Y-129743253D01*
X160688893Y-129757868D01*
X160667850Y-129770480D01*
X160645671Y-129780970D01*
X160622572Y-129789235D01*
X160598773Y-129795196D01*
X160574505Y-129798796D01*
X160550001Y-129800000D01*
X159899999Y-129800000D01*
X159875495Y-129798796D01*
X159851227Y-129795196D01*
X159827428Y-129789235D01*
X159804329Y-129780970D01*
X159782150Y-129770480D01*
X159761107Y-129757868D01*
X159741401Y-129743253D01*
X159723223Y-129726777D01*
X159706747Y-129708599D01*
X159692132Y-129688893D01*
X159679520Y-129667850D01*
X159669030Y-129645671D01*
X159660765Y-129622572D01*
X159654804Y-129598773D01*
X159651204Y-129574505D01*
X159650000Y-129550001D01*
X159650000Y-128649999D01*
X159651204Y-128625495D01*
X159654804Y-128601227D01*
X159660765Y-128577428D01*
X159669030Y-128554329D01*
X159679520Y-128532150D01*
X159692132Y-128511107D01*
X159706747Y-128491401D01*
X159723223Y-128473223D01*
X159741401Y-128456747D01*
X159761107Y-128442132D01*
X159782150Y-128429520D01*
X159804329Y-128419030D01*
X159827428Y-128410765D01*
X159851227Y-128404804D01*
X159875495Y-128401204D01*
X159899999Y-128400000D01*
X160550001Y-128400000D01*
X160574505Y-128401204D01*
G37*
G36*
X158524505Y-128401204D02*
G01*
X158548773Y-128404804D01*
X158572572Y-128410765D01*
X158595671Y-128419030D01*
X158617850Y-128429520D01*
X158638893Y-128442132D01*
X158658599Y-128456747D01*
X158676777Y-128473223D01*
X158693253Y-128491401D01*
X158707868Y-128511107D01*
X158720480Y-128532150D01*
X158730970Y-128554329D01*
X158739235Y-128577428D01*
X158745196Y-128601227D01*
X158748796Y-128625495D01*
X158750000Y-128649999D01*
X158750000Y-129550001D01*
X158748796Y-129574505D01*
X158745196Y-129598773D01*
X158739235Y-129622572D01*
X158730970Y-129645671D01*
X158720480Y-129667850D01*
X158707868Y-129688893D01*
X158693253Y-129708599D01*
X158676777Y-129726777D01*
X158658599Y-129743253D01*
X158638893Y-129757868D01*
X158617850Y-129770480D01*
X158595671Y-129780970D01*
X158572572Y-129789235D01*
X158548773Y-129795196D01*
X158524505Y-129798796D01*
X158500001Y-129800000D01*
X157849999Y-129800000D01*
X157825495Y-129798796D01*
X157801227Y-129795196D01*
X157777428Y-129789235D01*
X157754329Y-129780970D01*
X157732150Y-129770480D01*
X157711107Y-129757868D01*
X157691401Y-129743253D01*
X157673223Y-129726777D01*
X157656747Y-129708599D01*
X157642132Y-129688893D01*
X157629520Y-129667850D01*
X157619030Y-129645671D01*
X157610765Y-129622572D01*
X157604804Y-129598773D01*
X157601204Y-129574505D01*
X157600000Y-129550001D01*
X157600000Y-128649999D01*
X157601204Y-128625495D01*
X157604804Y-128601227D01*
X157610765Y-128577428D01*
X157619030Y-128554329D01*
X157629520Y-128532150D01*
X157642132Y-128511107D01*
X157656747Y-128491401D01*
X157673223Y-128473223D01*
X157691401Y-128456747D01*
X157711107Y-128442132D01*
X157732150Y-128429520D01*
X157754329Y-128419030D01*
X157777428Y-128410765D01*
X157801227Y-128404804D01*
X157825495Y-128401204D01*
X157849999Y-128400000D01*
X158500001Y-128400000D01*
X158524505Y-128401204D01*
G37*
G36*
X158324505Y-139801204D02*
G01*
X158348773Y-139804804D01*
X158372572Y-139810765D01*
X158395671Y-139819030D01*
X158417850Y-139829520D01*
X158438893Y-139842132D01*
X158458599Y-139856747D01*
X158476777Y-139873223D01*
X158493253Y-139891401D01*
X158507868Y-139911107D01*
X158520480Y-139932150D01*
X158530970Y-139954329D01*
X158539235Y-139977428D01*
X158545196Y-140001227D01*
X158548796Y-140025495D01*
X158550000Y-140049999D01*
X158550000Y-140950001D01*
X158548796Y-140974505D01*
X158545196Y-140998773D01*
X158539235Y-141022572D01*
X158530970Y-141045671D01*
X158520480Y-141067850D01*
X158507868Y-141088893D01*
X158493253Y-141108599D01*
X158476777Y-141126777D01*
X158458599Y-141143253D01*
X158438893Y-141157868D01*
X158417850Y-141170480D01*
X158395671Y-141180970D01*
X158372572Y-141189235D01*
X158348773Y-141195196D01*
X158324505Y-141198796D01*
X158300001Y-141200000D01*
X157649999Y-141200000D01*
X157625495Y-141198796D01*
X157601227Y-141195196D01*
X157577428Y-141189235D01*
X157554329Y-141180970D01*
X157532150Y-141170480D01*
X157511107Y-141157868D01*
X157491401Y-141143253D01*
X157473223Y-141126777D01*
X157456747Y-141108599D01*
X157442132Y-141088893D01*
X157429520Y-141067850D01*
X157419030Y-141045671D01*
X157410765Y-141022572D01*
X157404804Y-140998773D01*
X157401204Y-140974505D01*
X157400000Y-140950001D01*
X157400000Y-140049999D01*
X157401204Y-140025495D01*
X157404804Y-140001227D01*
X157410765Y-139977428D01*
X157419030Y-139954329D01*
X157429520Y-139932150D01*
X157442132Y-139911107D01*
X157456747Y-139891401D01*
X157473223Y-139873223D01*
X157491401Y-139856747D01*
X157511107Y-139842132D01*
X157532150Y-139829520D01*
X157554329Y-139819030D01*
X157577428Y-139810765D01*
X157601227Y-139804804D01*
X157625495Y-139801204D01*
X157649999Y-139800000D01*
X158300001Y-139800000D01*
X158324505Y-139801204D01*
G37*
G36*
X160374505Y-139801204D02*
G01*
X160398773Y-139804804D01*
X160422572Y-139810765D01*
X160445671Y-139819030D01*
X160467850Y-139829520D01*
X160488893Y-139842132D01*
X160508599Y-139856747D01*
X160526777Y-139873223D01*
X160543253Y-139891401D01*
X160557868Y-139911107D01*
X160570480Y-139932150D01*
X160580970Y-139954329D01*
X160589235Y-139977428D01*
X160595196Y-140001227D01*
X160598796Y-140025495D01*
X160600000Y-140049999D01*
X160600000Y-140950001D01*
X160598796Y-140974505D01*
X160595196Y-140998773D01*
X160589235Y-141022572D01*
X160580970Y-141045671D01*
X160570480Y-141067850D01*
X160557868Y-141088893D01*
X160543253Y-141108599D01*
X160526777Y-141126777D01*
X160508599Y-141143253D01*
X160488893Y-141157868D01*
X160467850Y-141170480D01*
X160445671Y-141180970D01*
X160422572Y-141189235D01*
X160398773Y-141195196D01*
X160374505Y-141198796D01*
X160350001Y-141200000D01*
X159699999Y-141200000D01*
X159675495Y-141198796D01*
X159651227Y-141195196D01*
X159627428Y-141189235D01*
X159604329Y-141180970D01*
X159582150Y-141170480D01*
X159561107Y-141157868D01*
X159541401Y-141143253D01*
X159523223Y-141126777D01*
X159506747Y-141108599D01*
X159492132Y-141088893D01*
X159479520Y-141067850D01*
X159469030Y-141045671D01*
X159460765Y-141022572D01*
X159454804Y-140998773D01*
X159451204Y-140974505D01*
X159450000Y-140950001D01*
X159450000Y-140049999D01*
X159451204Y-140025495D01*
X159454804Y-140001227D01*
X159460765Y-139977428D01*
X159469030Y-139954329D01*
X159479520Y-139932150D01*
X159492132Y-139911107D01*
X159506747Y-139891401D01*
X159523223Y-139873223D01*
X159541401Y-139856747D01*
X159561107Y-139842132D01*
X159582150Y-139829520D01*
X159604329Y-139819030D01*
X159627428Y-139810765D01*
X159651227Y-139804804D01*
X159675495Y-139801204D01*
X159699999Y-139800000D01*
X160350001Y-139800000D01*
X160374505Y-139801204D01*
G37*
G36*
X166474505Y-122076204D02*
G01*
X166498773Y-122079804D01*
X166522572Y-122085765D01*
X166545671Y-122094030D01*
X166567850Y-122104520D01*
X166588893Y-122117132D01*
X166608599Y-122131747D01*
X166626777Y-122148223D01*
X166643253Y-122166401D01*
X166657868Y-122186107D01*
X166670480Y-122207150D01*
X166680970Y-122229329D01*
X166689235Y-122252428D01*
X166695196Y-122276227D01*
X166698796Y-122300495D01*
X166700000Y-122324999D01*
X166700000Y-122975001D01*
X166698796Y-122999505D01*
X166695196Y-123023773D01*
X166689235Y-123047572D01*
X166680970Y-123070671D01*
X166670480Y-123092850D01*
X166657868Y-123113893D01*
X166643253Y-123133599D01*
X166626777Y-123151777D01*
X166608599Y-123168253D01*
X166588893Y-123182868D01*
X166567850Y-123195480D01*
X166545671Y-123205970D01*
X166522572Y-123214235D01*
X166498773Y-123220196D01*
X166474505Y-123223796D01*
X166450001Y-123225000D01*
X165549999Y-123225000D01*
X165525495Y-123223796D01*
X165501227Y-123220196D01*
X165477428Y-123214235D01*
X165454329Y-123205970D01*
X165432150Y-123195480D01*
X165411107Y-123182868D01*
X165391401Y-123168253D01*
X165373223Y-123151777D01*
X165356747Y-123133599D01*
X165342132Y-123113893D01*
X165329520Y-123092850D01*
X165319030Y-123070671D01*
X165310765Y-123047572D01*
X165304804Y-123023773D01*
X165301204Y-122999505D01*
X165300000Y-122975001D01*
X165300000Y-122324999D01*
X165301204Y-122300495D01*
X165304804Y-122276227D01*
X165310765Y-122252428D01*
X165319030Y-122229329D01*
X165329520Y-122207150D01*
X165342132Y-122186107D01*
X165356747Y-122166401D01*
X165373223Y-122148223D01*
X165391401Y-122131747D01*
X165411107Y-122117132D01*
X165432150Y-122104520D01*
X165454329Y-122094030D01*
X165477428Y-122085765D01*
X165501227Y-122079804D01*
X165525495Y-122076204D01*
X165549999Y-122075000D01*
X166450001Y-122075000D01*
X166474505Y-122076204D01*
G37*
G36*
X166474505Y-124126204D02*
G01*
X166498773Y-124129804D01*
X166522572Y-124135765D01*
X166545671Y-124144030D01*
X166567850Y-124154520D01*
X166588893Y-124167132D01*
X166608599Y-124181747D01*
X166626777Y-124198223D01*
X166643253Y-124216401D01*
X166657868Y-124236107D01*
X166670480Y-124257150D01*
X166680970Y-124279329D01*
X166689235Y-124302428D01*
X166695196Y-124326227D01*
X166698796Y-124350495D01*
X166700000Y-124374999D01*
X166700000Y-125025001D01*
X166698796Y-125049505D01*
X166695196Y-125073773D01*
X166689235Y-125097572D01*
X166680970Y-125120671D01*
X166670480Y-125142850D01*
X166657868Y-125163893D01*
X166643253Y-125183599D01*
X166626777Y-125201777D01*
X166608599Y-125218253D01*
X166588893Y-125232868D01*
X166567850Y-125245480D01*
X166545671Y-125255970D01*
X166522572Y-125264235D01*
X166498773Y-125270196D01*
X166474505Y-125273796D01*
X166450001Y-125275000D01*
X165549999Y-125275000D01*
X165525495Y-125273796D01*
X165501227Y-125270196D01*
X165477428Y-125264235D01*
X165454329Y-125255970D01*
X165432150Y-125245480D01*
X165411107Y-125232868D01*
X165391401Y-125218253D01*
X165373223Y-125201777D01*
X165356747Y-125183599D01*
X165342132Y-125163893D01*
X165329520Y-125142850D01*
X165319030Y-125120671D01*
X165310765Y-125097572D01*
X165304804Y-125073773D01*
X165301204Y-125049505D01*
X165300000Y-125025001D01*
X165300000Y-124374999D01*
X165301204Y-124350495D01*
X165304804Y-124326227D01*
X165310765Y-124302428D01*
X165319030Y-124279329D01*
X165329520Y-124257150D01*
X165342132Y-124236107D01*
X165356747Y-124216401D01*
X165373223Y-124198223D01*
X165391401Y-124181747D01*
X165411107Y-124167132D01*
X165432150Y-124154520D01*
X165454329Y-124144030D01*
X165477428Y-124135765D01*
X165501227Y-124129804D01*
X165525495Y-124126204D01*
X165549999Y-124125000D01*
X166450001Y-124125000D01*
X166474505Y-124126204D01*
G37*
G36*
X188074505Y-142551204D02*
G01*
X188098773Y-142554804D01*
X188122572Y-142560765D01*
X188145671Y-142569030D01*
X188167850Y-142579520D01*
X188188893Y-142592132D01*
X188208599Y-142606747D01*
X188226777Y-142623223D01*
X188243253Y-142641401D01*
X188257868Y-142661107D01*
X188270480Y-142682150D01*
X188280970Y-142704329D01*
X188289235Y-142727428D01*
X188295196Y-142751227D01*
X188298796Y-142775495D01*
X188300000Y-142799999D01*
X188300000Y-143450001D01*
X188298796Y-143474505D01*
X188295196Y-143498773D01*
X188289235Y-143522572D01*
X188280970Y-143545671D01*
X188270480Y-143567850D01*
X188257868Y-143588893D01*
X188243253Y-143608599D01*
X188226777Y-143626777D01*
X188208599Y-143643253D01*
X188188893Y-143657868D01*
X188167850Y-143670480D01*
X188145671Y-143680970D01*
X188122572Y-143689235D01*
X188098773Y-143695196D01*
X188074505Y-143698796D01*
X188050001Y-143700000D01*
X187149999Y-143700000D01*
X187125495Y-143698796D01*
X187101227Y-143695196D01*
X187077428Y-143689235D01*
X187054329Y-143680970D01*
X187032150Y-143670480D01*
X187011107Y-143657868D01*
X186991401Y-143643253D01*
X186973223Y-143626777D01*
X186956747Y-143608599D01*
X186942132Y-143588893D01*
X186929520Y-143567850D01*
X186919030Y-143545671D01*
X186910765Y-143522572D01*
X186904804Y-143498773D01*
X186901204Y-143474505D01*
X186900000Y-143450001D01*
X186900000Y-142799999D01*
X186901204Y-142775495D01*
X186904804Y-142751227D01*
X186910765Y-142727428D01*
X186919030Y-142704329D01*
X186929520Y-142682150D01*
X186942132Y-142661107D01*
X186956747Y-142641401D01*
X186973223Y-142623223D01*
X186991401Y-142606747D01*
X187011107Y-142592132D01*
X187032150Y-142579520D01*
X187054329Y-142569030D01*
X187077428Y-142560765D01*
X187101227Y-142554804D01*
X187125495Y-142551204D01*
X187149999Y-142550000D01*
X188050001Y-142550000D01*
X188074505Y-142551204D01*
G37*
G36*
X188074505Y-140501204D02*
G01*
X188098773Y-140504804D01*
X188122572Y-140510765D01*
X188145671Y-140519030D01*
X188167850Y-140529520D01*
X188188893Y-140542132D01*
X188208599Y-140556747D01*
X188226777Y-140573223D01*
X188243253Y-140591401D01*
X188257868Y-140611107D01*
X188270480Y-140632150D01*
X188280970Y-140654329D01*
X188289235Y-140677428D01*
X188295196Y-140701227D01*
X188298796Y-140725495D01*
X188300000Y-140749999D01*
X188300000Y-141400001D01*
X188298796Y-141424505D01*
X188295196Y-141448773D01*
X188289235Y-141472572D01*
X188280970Y-141495671D01*
X188270480Y-141517850D01*
X188257868Y-141538893D01*
X188243253Y-141558599D01*
X188226777Y-141576777D01*
X188208599Y-141593253D01*
X188188893Y-141607868D01*
X188167850Y-141620480D01*
X188145671Y-141630970D01*
X188122572Y-141639235D01*
X188098773Y-141645196D01*
X188074505Y-141648796D01*
X188050001Y-141650000D01*
X187149999Y-141650000D01*
X187125495Y-141648796D01*
X187101227Y-141645196D01*
X187077428Y-141639235D01*
X187054329Y-141630970D01*
X187032150Y-141620480D01*
X187011107Y-141607868D01*
X186991401Y-141593253D01*
X186973223Y-141576777D01*
X186956747Y-141558599D01*
X186942132Y-141538893D01*
X186929520Y-141517850D01*
X186919030Y-141495671D01*
X186910765Y-141472572D01*
X186904804Y-141448773D01*
X186901204Y-141424505D01*
X186900000Y-141400001D01*
X186900000Y-140749999D01*
X186901204Y-140725495D01*
X186904804Y-140701227D01*
X186910765Y-140677428D01*
X186919030Y-140654329D01*
X186929520Y-140632150D01*
X186942132Y-140611107D01*
X186956747Y-140591401D01*
X186973223Y-140573223D01*
X186991401Y-140556747D01*
X187011107Y-140542132D01*
X187032150Y-140529520D01*
X187054329Y-140519030D01*
X187077428Y-140510765D01*
X187101227Y-140504804D01*
X187125495Y-140501204D01*
X187149999Y-140500000D01*
X188050001Y-140500000D01*
X188074505Y-140501204D01*
G37*
G36*
X185074505Y-142551204D02*
G01*
X185098773Y-142554804D01*
X185122572Y-142560765D01*
X185145671Y-142569030D01*
X185167850Y-142579520D01*
X185188893Y-142592132D01*
X185208599Y-142606747D01*
X185226777Y-142623223D01*
X185243253Y-142641401D01*
X185257868Y-142661107D01*
X185270480Y-142682150D01*
X185280970Y-142704329D01*
X185289235Y-142727428D01*
X185295196Y-142751227D01*
X185298796Y-142775495D01*
X185300000Y-142799999D01*
X185300000Y-143450001D01*
X185298796Y-143474505D01*
X185295196Y-143498773D01*
X185289235Y-143522572D01*
X185280970Y-143545671D01*
X185270480Y-143567850D01*
X185257868Y-143588893D01*
X185243253Y-143608599D01*
X185226777Y-143626777D01*
X185208599Y-143643253D01*
X185188893Y-143657868D01*
X185167850Y-143670480D01*
X185145671Y-143680970D01*
X185122572Y-143689235D01*
X185098773Y-143695196D01*
X185074505Y-143698796D01*
X185050001Y-143700000D01*
X184149999Y-143700000D01*
X184125495Y-143698796D01*
X184101227Y-143695196D01*
X184077428Y-143689235D01*
X184054329Y-143680970D01*
X184032150Y-143670480D01*
X184011107Y-143657868D01*
X183991401Y-143643253D01*
X183973223Y-143626777D01*
X183956747Y-143608599D01*
X183942132Y-143588893D01*
X183929520Y-143567850D01*
X183919030Y-143545671D01*
X183910765Y-143522572D01*
X183904804Y-143498773D01*
X183901204Y-143474505D01*
X183900000Y-143450001D01*
X183900000Y-142799999D01*
X183901204Y-142775495D01*
X183904804Y-142751227D01*
X183910765Y-142727428D01*
X183919030Y-142704329D01*
X183929520Y-142682150D01*
X183942132Y-142661107D01*
X183956747Y-142641401D01*
X183973223Y-142623223D01*
X183991401Y-142606747D01*
X184011107Y-142592132D01*
X184032150Y-142579520D01*
X184054329Y-142569030D01*
X184077428Y-142560765D01*
X184101227Y-142554804D01*
X184125495Y-142551204D01*
X184149999Y-142550000D01*
X185050001Y-142550000D01*
X185074505Y-142551204D01*
G37*
G36*
X185074505Y-140501204D02*
G01*
X185098773Y-140504804D01*
X185122572Y-140510765D01*
X185145671Y-140519030D01*
X185167850Y-140529520D01*
X185188893Y-140542132D01*
X185208599Y-140556747D01*
X185226777Y-140573223D01*
X185243253Y-140591401D01*
X185257868Y-140611107D01*
X185270480Y-140632150D01*
X185280970Y-140654329D01*
X185289235Y-140677428D01*
X185295196Y-140701227D01*
X185298796Y-140725495D01*
X185300000Y-140749999D01*
X185300000Y-141400001D01*
X185298796Y-141424505D01*
X185295196Y-141448773D01*
X185289235Y-141472572D01*
X185280970Y-141495671D01*
X185270480Y-141517850D01*
X185257868Y-141538893D01*
X185243253Y-141558599D01*
X185226777Y-141576777D01*
X185208599Y-141593253D01*
X185188893Y-141607868D01*
X185167850Y-141620480D01*
X185145671Y-141630970D01*
X185122572Y-141639235D01*
X185098773Y-141645196D01*
X185074505Y-141648796D01*
X185050001Y-141650000D01*
X184149999Y-141650000D01*
X184125495Y-141648796D01*
X184101227Y-141645196D01*
X184077428Y-141639235D01*
X184054329Y-141630970D01*
X184032150Y-141620480D01*
X184011107Y-141607868D01*
X183991401Y-141593253D01*
X183973223Y-141576777D01*
X183956747Y-141558599D01*
X183942132Y-141538893D01*
X183929520Y-141517850D01*
X183919030Y-141495671D01*
X183910765Y-141472572D01*
X183904804Y-141448773D01*
X183901204Y-141424505D01*
X183900000Y-141400001D01*
X183900000Y-140749999D01*
X183901204Y-140725495D01*
X183904804Y-140701227D01*
X183910765Y-140677428D01*
X183919030Y-140654329D01*
X183929520Y-140632150D01*
X183942132Y-140611107D01*
X183956747Y-140591401D01*
X183973223Y-140573223D01*
X183991401Y-140556747D01*
X184011107Y-140542132D01*
X184032150Y-140529520D01*
X184054329Y-140519030D01*
X184077428Y-140510765D01*
X184101227Y-140504804D01*
X184125495Y-140501204D01*
X184149999Y-140500000D01*
X185050001Y-140500000D01*
X185074505Y-140501204D01*
G37*
G36*
X181874505Y-142551204D02*
G01*
X181898773Y-142554804D01*
X181922572Y-142560765D01*
X181945671Y-142569030D01*
X181967850Y-142579520D01*
X181988893Y-142592132D01*
X182008599Y-142606747D01*
X182026777Y-142623223D01*
X182043253Y-142641401D01*
X182057868Y-142661107D01*
X182070480Y-142682150D01*
X182080970Y-142704329D01*
X182089235Y-142727428D01*
X182095196Y-142751227D01*
X182098796Y-142775495D01*
X182100000Y-142799999D01*
X182100000Y-143450001D01*
X182098796Y-143474505D01*
X182095196Y-143498773D01*
X182089235Y-143522572D01*
X182080970Y-143545671D01*
X182070480Y-143567850D01*
X182057868Y-143588893D01*
X182043253Y-143608599D01*
X182026777Y-143626777D01*
X182008599Y-143643253D01*
X181988893Y-143657868D01*
X181967850Y-143670480D01*
X181945671Y-143680970D01*
X181922572Y-143689235D01*
X181898773Y-143695196D01*
X181874505Y-143698796D01*
X181850001Y-143700000D01*
X180949999Y-143700000D01*
X180925495Y-143698796D01*
X180901227Y-143695196D01*
X180877428Y-143689235D01*
X180854329Y-143680970D01*
X180832150Y-143670480D01*
X180811107Y-143657868D01*
X180791401Y-143643253D01*
X180773223Y-143626777D01*
X180756747Y-143608599D01*
X180742132Y-143588893D01*
X180729520Y-143567850D01*
X180719030Y-143545671D01*
X180710765Y-143522572D01*
X180704804Y-143498773D01*
X180701204Y-143474505D01*
X180700000Y-143450001D01*
X180700000Y-142799999D01*
X180701204Y-142775495D01*
X180704804Y-142751227D01*
X180710765Y-142727428D01*
X180719030Y-142704329D01*
X180729520Y-142682150D01*
X180742132Y-142661107D01*
X180756747Y-142641401D01*
X180773223Y-142623223D01*
X180791401Y-142606747D01*
X180811107Y-142592132D01*
X180832150Y-142579520D01*
X180854329Y-142569030D01*
X180877428Y-142560765D01*
X180901227Y-142554804D01*
X180925495Y-142551204D01*
X180949999Y-142550000D01*
X181850001Y-142550000D01*
X181874505Y-142551204D01*
G37*
G36*
X181874505Y-140501204D02*
G01*
X181898773Y-140504804D01*
X181922572Y-140510765D01*
X181945671Y-140519030D01*
X181967850Y-140529520D01*
X181988893Y-140542132D01*
X182008599Y-140556747D01*
X182026777Y-140573223D01*
X182043253Y-140591401D01*
X182057868Y-140611107D01*
X182070480Y-140632150D01*
X182080970Y-140654329D01*
X182089235Y-140677428D01*
X182095196Y-140701227D01*
X182098796Y-140725495D01*
X182100000Y-140749999D01*
X182100000Y-141400001D01*
X182098796Y-141424505D01*
X182095196Y-141448773D01*
X182089235Y-141472572D01*
X182080970Y-141495671D01*
X182070480Y-141517850D01*
X182057868Y-141538893D01*
X182043253Y-141558599D01*
X182026777Y-141576777D01*
X182008599Y-141593253D01*
X181988893Y-141607868D01*
X181967850Y-141620480D01*
X181945671Y-141630970D01*
X181922572Y-141639235D01*
X181898773Y-141645196D01*
X181874505Y-141648796D01*
X181850001Y-141650000D01*
X180949999Y-141650000D01*
X180925495Y-141648796D01*
X180901227Y-141645196D01*
X180877428Y-141639235D01*
X180854329Y-141630970D01*
X180832150Y-141620480D01*
X180811107Y-141607868D01*
X180791401Y-141593253D01*
X180773223Y-141576777D01*
X180756747Y-141558599D01*
X180742132Y-141538893D01*
X180729520Y-141517850D01*
X180719030Y-141495671D01*
X180710765Y-141472572D01*
X180704804Y-141448773D01*
X180701204Y-141424505D01*
X180700000Y-141400001D01*
X180700000Y-140749999D01*
X180701204Y-140725495D01*
X180704804Y-140701227D01*
X180710765Y-140677428D01*
X180719030Y-140654329D01*
X180729520Y-140632150D01*
X180742132Y-140611107D01*
X180756747Y-140591401D01*
X180773223Y-140573223D01*
X180791401Y-140556747D01*
X180811107Y-140542132D01*
X180832150Y-140529520D01*
X180854329Y-140519030D01*
X180877428Y-140510765D01*
X180901227Y-140504804D01*
X180925495Y-140501204D01*
X180949999Y-140500000D01*
X181850001Y-140500000D01*
X181874505Y-140501204D01*
G37*
D13*
X168800000Y-141200000D03*
X169600000Y-141200000D03*
X170400000Y-141200000D03*
X171200000Y-141200000D03*
X172000000Y-141200000D03*
X172800000Y-141200000D03*
X173600000Y-141200000D03*
X174400000Y-141200000D03*
X175200000Y-141200000D03*
X176000000Y-141200000D03*
X176800000Y-141200000D03*
D14*
X178500000Y-139500000D03*
X178500000Y-138700000D03*
X178500000Y-137900000D03*
X178500000Y-137100000D03*
X178500000Y-136300000D03*
X178500000Y-135500000D03*
X178500000Y-134700000D03*
X178500000Y-133900000D03*
X178500000Y-133100000D03*
X178500000Y-132300000D03*
X178500000Y-131500000D03*
D13*
X176800000Y-129800000D03*
X176000000Y-129800000D03*
X175200000Y-129800000D03*
X174400000Y-129800000D03*
X173600000Y-129800000D03*
X172800000Y-129800000D03*
X172000000Y-129800000D03*
X171200000Y-129800000D03*
X170400000Y-129800000D03*
X169600000Y-129800000D03*
X168800000Y-129800000D03*
D14*
X167100000Y-131500000D03*
X167100000Y-132300000D03*
X167100000Y-133100000D03*
X167100000Y-133900000D03*
X167100000Y-134700000D03*
X167100000Y-135500000D03*
X167100000Y-136300000D03*
X167100000Y-137100000D03*
X167100000Y-137900000D03*
X167100000Y-138700000D03*
X167100000Y-139500000D03*
D12*
G36*
X174672792Y-122407107D02*
G01*
X173824264Y-121558579D01*
X174814214Y-120568629D01*
X175662742Y-121417157D01*
X174672792Y-122407107D01*
G37*
G36*
X173117157Y-123962742D02*
G01*
X172268629Y-123114214D01*
X173258579Y-122124264D01*
X174107107Y-122972792D01*
X173117157Y-123962742D01*
G37*
G36*
X173541421Y-121275736D02*
G01*
X172692893Y-120427208D01*
X173682843Y-119437258D01*
X174531371Y-120285786D01*
X173541421Y-121275736D01*
G37*
G36*
X171985786Y-122831371D02*
G01*
X171137258Y-121982843D01*
X172127208Y-120992893D01*
X172975736Y-121841421D01*
X171985786Y-122831371D01*
G37*
G36*
X169274505Y-120301204D02*
G01*
X169298773Y-120304804D01*
X169322572Y-120310765D01*
X169345671Y-120319030D01*
X169367850Y-120329520D01*
X169388893Y-120342132D01*
X169408599Y-120356747D01*
X169426777Y-120373223D01*
X169443253Y-120391401D01*
X169457868Y-120411107D01*
X169470480Y-120432150D01*
X169480970Y-120454329D01*
X169489235Y-120477428D01*
X169495196Y-120501227D01*
X169498796Y-120525495D01*
X169500000Y-120549999D01*
X169500000Y-121200001D01*
X169498796Y-121224505D01*
X169495196Y-121248773D01*
X169489235Y-121272572D01*
X169480970Y-121295671D01*
X169470480Y-121317850D01*
X169457868Y-121338893D01*
X169443253Y-121358599D01*
X169426777Y-121376777D01*
X169408599Y-121393253D01*
X169388893Y-121407868D01*
X169367850Y-121420480D01*
X169345671Y-121430970D01*
X169322572Y-121439235D01*
X169298773Y-121445196D01*
X169274505Y-121448796D01*
X169250001Y-121450000D01*
X168349999Y-121450000D01*
X168325495Y-121448796D01*
X168301227Y-121445196D01*
X168277428Y-121439235D01*
X168254329Y-121430970D01*
X168232150Y-121420480D01*
X168211107Y-121407868D01*
X168191401Y-121393253D01*
X168173223Y-121376777D01*
X168156747Y-121358599D01*
X168142132Y-121338893D01*
X168129520Y-121317850D01*
X168119030Y-121295671D01*
X168110765Y-121272572D01*
X168104804Y-121248773D01*
X168101204Y-121224505D01*
X168100000Y-121200001D01*
X168100000Y-120549999D01*
X168101204Y-120525495D01*
X168104804Y-120501227D01*
X168110765Y-120477428D01*
X168119030Y-120454329D01*
X168129520Y-120432150D01*
X168142132Y-120411107D01*
X168156747Y-120391401D01*
X168173223Y-120373223D01*
X168191401Y-120356747D01*
X168211107Y-120342132D01*
X168232150Y-120329520D01*
X168254329Y-120319030D01*
X168277428Y-120310765D01*
X168301227Y-120304804D01*
X168325495Y-120301204D01*
X168349999Y-120300000D01*
X169250001Y-120300000D01*
X169274505Y-120301204D01*
G37*
G36*
X169274505Y-122351204D02*
G01*
X169298773Y-122354804D01*
X169322572Y-122360765D01*
X169345671Y-122369030D01*
X169367850Y-122379520D01*
X169388893Y-122392132D01*
X169408599Y-122406747D01*
X169426777Y-122423223D01*
X169443253Y-122441401D01*
X169457868Y-122461107D01*
X169470480Y-122482150D01*
X169480970Y-122504329D01*
X169489235Y-122527428D01*
X169495196Y-122551227D01*
X169498796Y-122575495D01*
X169500000Y-122599999D01*
X169500000Y-123250001D01*
X169498796Y-123274505D01*
X169495196Y-123298773D01*
X169489235Y-123322572D01*
X169480970Y-123345671D01*
X169470480Y-123367850D01*
X169457868Y-123388893D01*
X169443253Y-123408599D01*
X169426777Y-123426777D01*
X169408599Y-123443253D01*
X169388893Y-123457868D01*
X169367850Y-123470480D01*
X169345671Y-123480970D01*
X169322572Y-123489235D01*
X169298773Y-123495196D01*
X169274505Y-123498796D01*
X169250001Y-123500000D01*
X168349999Y-123500000D01*
X168325495Y-123498796D01*
X168301227Y-123495196D01*
X168277428Y-123489235D01*
X168254329Y-123480970D01*
X168232150Y-123470480D01*
X168211107Y-123457868D01*
X168191401Y-123443253D01*
X168173223Y-123426777D01*
X168156747Y-123408599D01*
X168142132Y-123388893D01*
X168129520Y-123367850D01*
X168119030Y-123345671D01*
X168110765Y-123322572D01*
X168104804Y-123298773D01*
X168101204Y-123274505D01*
X168100000Y-123250001D01*
X168100000Y-122599999D01*
X168101204Y-122575495D01*
X168104804Y-122551227D01*
X168110765Y-122527428D01*
X168119030Y-122504329D01*
X168129520Y-122482150D01*
X168142132Y-122461107D01*
X168156747Y-122441401D01*
X168173223Y-122423223D01*
X168191401Y-122406747D01*
X168211107Y-122392132D01*
X168232150Y-122379520D01*
X168254329Y-122369030D01*
X168277428Y-122360765D01*
X168301227Y-122354804D01*
X168325495Y-122351204D01*
X168349999Y-122350000D01*
X169250001Y-122350000D01*
X169274505Y-122351204D01*
G37*
G36*
X34224505Y-57651204D02*
G01*
X34248773Y-57654804D01*
X34272572Y-57660765D01*
X34295671Y-57669030D01*
X34317850Y-57679520D01*
X34338893Y-57692132D01*
X34358599Y-57706747D01*
X34376777Y-57723223D01*
X34393253Y-57741401D01*
X34407868Y-57761107D01*
X34420480Y-57782150D01*
X34430970Y-57804329D01*
X34439235Y-57827428D01*
X34445196Y-57851227D01*
X34448796Y-57875495D01*
X34450000Y-57899999D01*
X34450000Y-58550001D01*
X34448796Y-58574505D01*
X34445196Y-58598773D01*
X34439235Y-58622572D01*
X34430970Y-58645671D01*
X34420480Y-58667850D01*
X34407868Y-58688893D01*
X34393253Y-58708599D01*
X34376777Y-58726777D01*
X34358599Y-58743253D01*
X34338893Y-58757868D01*
X34317850Y-58770480D01*
X34295671Y-58780970D01*
X34272572Y-58789235D01*
X34248773Y-58795196D01*
X34224505Y-58798796D01*
X34200001Y-58800000D01*
X33299999Y-58800000D01*
X33275495Y-58798796D01*
X33251227Y-58795196D01*
X33227428Y-58789235D01*
X33204329Y-58780970D01*
X33182150Y-58770480D01*
X33161107Y-58757868D01*
X33141401Y-58743253D01*
X33123223Y-58726777D01*
X33106747Y-58708599D01*
X33092132Y-58688893D01*
X33079520Y-58667850D01*
X33069030Y-58645671D01*
X33060765Y-58622572D01*
X33054804Y-58598773D01*
X33051204Y-58574505D01*
X33050000Y-58550001D01*
X33050000Y-57899999D01*
X33051204Y-57875495D01*
X33054804Y-57851227D01*
X33060765Y-57827428D01*
X33069030Y-57804329D01*
X33079520Y-57782150D01*
X33092132Y-57761107D01*
X33106747Y-57741401D01*
X33123223Y-57723223D01*
X33141401Y-57706747D01*
X33161107Y-57692132D01*
X33182150Y-57679520D01*
X33204329Y-57669030D01*
X33227428Y-57660765D01*
X33251227Y-57654804D01*
X33275495Y-57651204D01*
X33299999Y-57650000D01*
X34200001Y-57650000D01*
X34224505Y-57651204D01*
G37*
G36*
X34224505Y-59701204D02*
G01*
X34248773Y-59704804D01*
X34272572Y-59710765D01*
X34295671Y-59719030D01*
X34317850Y-59729520D01*
X34338893Y-59742132D01*
X34358599Y-59756747D01*
X34376777Y-59773223D01*
X34393253Y-59791401D01*
X34407868Y-59811107D01*
X34420480Y-59832150D01*
X34430970Y-59854329D01*
X34439235Y-59877428D01*
X34445196Y-59901227D01*
X34448796Y-59925495D01*
X34450000Y-59949999D01*
X34450000Y-60600001D01*
X34448796Y-60624505D01*
X34445196Y-60648773D01*
X34439235Y-60672572D01*
X34430970Y-60695671D01*
X34420480Y-60717850D01*
X34407868Y-60738893D01*
X34393253Y-60758599D01*
X34376777Y-60776777D01*
X34358599Y-60793253D01*
X34338893Y-60807868D01*
X34317850Y-60820480D01*
X34295671Y-60830970D01*
X34272572Y-60839235D01*
X34248773Y-60845196D01*
X34224505Y-60848796D01*
X34200001Y-60850000D01*
X33299999Y-60850000D01*
X33275495Y-60848796D01*
X33251227Y-60845196D01*
X33227428Y-60839235D01*
X33204329Y-60830970D01*
X33182150Y-60820480D01*
X33161107Y-60807868D01*
X33141401Y-60793253D01*
X33123223Y-60776777D01*
X33106747Y-60758599D01*
X33092132Y-60738893D01*
X33079520Y-60717850D01*
X33069030Y-60695671D01*
X33060765Y-60672572D01*
X33054804Y-60648773D01*
X33051204Y-60624505D01*
X33050000Y-60600001D01*
X33050000Y-59949999D01*
X33051204Y-59925495D01*
X33054804Y-59901227D01*
X33060765Y-59877428D01*
X33069030Y-59854329D01*
X33079520Y-59832150D01*
X33092132Y-59811107D01*
X33106747Y-59791401D01*
X33123223Y-59773223D01*
X33141401Y-59756747D01*
X33161107Y-59742132D01*
X33182150Y-59729520D01*
X33204329Y-59719030D01*
X33227428Y-59710765D01*
X33251227Y-59704804D01*
X33275495Y-59701204D01*
X33299999Y-59700000D01*
X34200001Y-59700000D01*
X34224505Y-59701204D01*
G37*
D15*
X160900000Y-138250000D03*
X160900000Y-131950000D03*
X157100000Y-138250000D03*
X157100000Y-131950000D03*
D12*
G36*
X177474505Y-122351204D02*
G01*
X177498773Y-122354804D01*
X177522572Y-122360765D01*
X177545671Y-122369030D01*
X177567850Y-122379520D01*
X177588893Y-122392132D01*
X177608599Y-122406747D01*
X177626777Y-122423223D01*
X177643253Y-122441401D01*
X177657868Y-122461107D01*
X177670480Y-122482150D01*
X177680970Y-122504329D01*
X177689235Y-122527428D01*
X177695196Y-122551227D01*
X177698796Y-122575495D01*
X177700000Y-122599999D01*
X177700000Y-123250001D01*
X177698796Y-123274505D01*
X177695196Y-123298773D01*
X177689235Y-123322572D01*
X177680970Y-123345671D01*
X177670480Y-123367850D01*
X177657868Y-123388893D01*
X177643253Y-123408599D01*
X177626777Y-123426777D01*
X177608599Y-123443253D01*
X177588893Y-123457868D01*
X177567850Y-123470480D01*
X177545671Y-123480970D01*
X177522572Y-123489235D01*
X177498773Y-123495196D01*
X177474505Y-123498796D01*
X177450001Y-123500000D01*
X176549999Y-123500000D01*
X176525495Y-123498796D01*
X176501227Y-123495196D01*
X176477428Y-123489235D01*
X176454329Y-123480970D01*
X176432150Y-123470480D01*
X176411107Y-123457868D01*
X176391401Y-123443253D01*
X176373223Y-123426777D01*
X176356747Y-123408599D01*
X176342132Y-123388893D01*
X176329520Y-123367850D01*
X176319030Y-123345671D01*
X176310765Y-123322572D01*
X176304804Y-123298773D01*
X176301204Y-123274505D01*
X176300000Y-123250001D01*
X176300000Y-122599999D01*
X176301204Y-122575495D01*
X176304804Y-122551227D01*
X176310765Y-122527428D01*
X176319030Y-122504329D01*
X176329520Y-122482150D01*
X176342132Y-122461107D01*
X176356747Y-122441401D01*
X176373223Y-122423223D01*
X176391401Y-122406747D01*
X176411107Y-122392132D01*
X176432150Y-122379520D01*
X176454329Y-122369030D01*
X176477428Y-122360765D01*
X176501227Y-122354804D01*
X176525495Y-122351204D01*
X176549999Y-122350000D01*
X177450001Y-122350000D01*
X177474505Y-122351204D01*
G37*
G36*
X177474505Y-120301204D02*
G01*
X177498773Y-120304804D01*
X177522572Y-120310765D01*
X177545671Y-120319030D01*
X177567850Y-120329520D01*
X177588893Y-120342132D01*
X177608599Y-120356747D01*
X177626777Y-120373223D01*
X177643253Y-120391401D01*
X177657868Y-120411107D01*
X177670480Y-120432150D01*
X177680970Y-120454329D01*
X177689235Y-120477428D01*
X177695196Y-120501227D01*
X177698796Y-120525495D01*
X177700000Y-120549999D01*
X177700000Y-121200001D01*
X177698796Y-121224505D01*
X177695196Y-121248773D01*
X177689235Y-121272572D01*
X177680970Y-121295671D01*
X177670480Y-121317850D01*
X177657868Y-121338893D01*
X177643253Y-121358599D01*
X177626777Y-121376777D01*
X177608599Y-121393253D01*
X177588893Y-121407868D01*
X177567850Y-121420480D01*
X177545671Y-121430970D01*
X177522572Y-121439235D01*
X177498773Y-121445196D01*
X177474505Y-121448796D01*
X177450001Y-121450000D01*
X176549999Y-121450000D01*
X176525495Y-121448796D01*
X176501227Y-121445196D01*
X176477428Y-121439235D01*
X176454329Y-121430970D01*
X176432150Y-121420480D01*
X176411107Y-121407868D01*
X176391401Y-121393253D01*
X176373223Y-121376777D01*
X176356747Y-121358599D01*
X176342132Y-121338893D01*
X176329520Y-121317850D01*
X176319030Y-121295671D01*
X176310765Y-121272572D01*
X176304804Y-121248773D01*
X176301204Y-121224505D01*
X176300000Y-121200001D01*
X176300000Y-120549999D01*
X176301204Y-120525495D01*
X176304804Y-120501227D01*
X176310765Y-120477428D01*
X176319030Y-120454329D01*
X176329520Y-120432150D01*
X176342132Y-120411107D01*
X176356747Y-120391401D01*
X176373223Y-120373223D01*
X176391401Y-120356747D01*
X176411107Y-120342132D01*
X176432150Y-120329520D01*
X176454329Y-120319030D01*
X176477428Y-120310765D01*
X176501227Y-120304804D01*
X176525495Y-120301204D01*
X176549999Y-120300000D01*
X177450001Y-120300000D01*
X177474505Y-120301204D01*
G37*
G36*
X36224505Y-57651204D02*
G01*
X36248773Y-57654804D01*
X36272572Y-57660765D01*
X36295671Y-57669030D01*
X36317850Y-57679520D01*
X36338893Y-57692132D01*
X36358599Y-57706747D01*
X36376777Y-57723223D01*
X36393253Y-57741401D01*
X36407868Y-57761107D01*
X36420480Y-57782150D01*
X36430970Y-57804329D01*
X36439235Y-57827428D01*
X36445196Y-57851227D01*
X36448796Y-57875495D01*
X36450000Y-57899999D01*
X36450000Y-58550001D01*
X36448796Y-58574505D01*
X36445196Y-58598773D01*
X36439235Y-58622572D01*
X36430970Y-58645671D01*
X36420480Y-58667850D01*
X36407868Y-58688893D01*
X36393253Y-58708599D01*
X36376777Y-58726777D01*
X36358599Y-58743253D01*
X36338893Y-58757868D01*
X36317850Y-58770480D01*
X36295671Y-58780970D01*
X36272572Y-58789235D01*
X36248773Y-58795196D01*
X36224505Y-58798796D01*
X36200001Y-58800000D01*
X35299999Y-58800000D01*
X35275495Y-58798796D01*
X35251227Y-58795196D01*
X35227428Y-58789235D01*
X35204329Y-58780970D01*
X35182150Y-58770480D01*
X35161107Y-58757868D01*
X35141401Y-58743253D01*
X35123223Y-58726777D01*
X35106747Y-58708599D01*
X35092132Y-58688893D01*
X35079520Y-58667850D01*
X35069030Y-58645671D01*
X35060765Y-58622572D01*
X35054804Y-58598773D01*
X35051204Y-58574505D01*
X35050000Y-58550001D01*
X35050000Y-57899999D01*
X35051204Y-57875495D01*
X35054804Y-57851227D01*
X35060765Y-57827428D01*
X35069030Y-57804329D01*
X35079520Y-57782150D01*
X35092132Y-57761107D01*
X35106747Y-57741401D01*
X35123223Y-57723223D01*
X35141401Y-57706747D01*
X35161107Y-57692132D01*
X35182150Y-57679520D01*
X35204329Y-57669030D01*
X35227428Y-57660765D01*
X35251227Y-57654804D01*
X35275495Y-57651204D01*
X35299999Y-57650000D01*
X36200001Y-57650000D01*
X36224505Y-57651204D01*
G37*
G36*
X36224505Y-59701204D02*
G01*
X36248773Y-59704804D01*
X36272572Y-59710765D01*
X36295671Y-59719030D01*
X36317850Y-59729520D01*
X36338893Y-59742132D01*
X36358599Y-59756747D01*
X36376777Y-59773223D01*
X36393253Y-59791401D01*
X36407868Y-59811107D01*
X36420480Y-59832150D01*
X36430970Y-59854329D01*
X36439235Y-59877428D01*
X36445196Y-59901227D01*
X36448796Y-59925495D01*
X36450000Y-59949999D01*
X36450000Y-60600001D01*
X36448796Y-60624505D01*
X36445196Y-60648773D01*
X36439235Y-60672572D01*
X36430970Y-60695671D01*
X36420480Y-60717850D01*
X36407868Y-60738893D01*
X36393253Y-60758599D01*
X36376777Y-60776777D01*
X36358599Y-60793253D01*
X36338893Y-60807868D01*
X36317850Y-60820480D01*
X36295671Y-60830970D01*
X36272572Y-60839235D01*
X36248773Y-60845196D01*
X36224505Y-60848796D01*
X36200001Y-60850000D01*
X35299999Y-60850000D01*
X35275495Y-60848796D01*
X35251227Y-60845196D01*
X35227428Y-60839235D01*
X35204329Y-60830970D01*
X35182150Y-60820480D01*
X35161107Y-60807868D01*
X35141401Y-60793253D01*
X35123223Y-60776777D01*
X35106747Y-60758599D01*
X35092132Y-60738893D01*
X35079520Y-60717850D01*
X35069030Y-60695671D01*
X35060765Y-60672572D01*
X35054804Y-60648773D01*
X35051204Y-60624505D01*
X35050000Y-60600001D01*
X35050000Y-59949999D01*
X35051204Y-59925495D01*
X35054804Y-59901227D01*
X35060765Y-59877428D01*
X35069030Y-59854329D01*
X35079520Y-59832150D01*
X35092132Y-59811107D01*
X35106747Y-59791401D01*
X35123223Y-59773223D01*
X35141401Y-59756747D01*
X35161107Y-59742132D01*
X35182150Y-59729520D01*
X35204329Y-59719030D01*
X35227428Y-59710765D01*
X35251227Y-59704804D01*
X35275495Y-59701204D01*
X35299999Y-59700000D01*
X36200001Y-59700000D01*
X36224505Y-59701204D01*
G37*
D16*
X33150000Y-46000000D03*
X33950000Y-46000000D03*
X36350000Y-46000000D03*
X35550000Y-46000000D03*
X34750000Y-46000000D03*
D12*
G36*
X190674505Y-142551204D02*
G01*
X190698773Y-142554804D01*
X190722572Y-142560765D01*
X190745671Y-142569030D01*
X190767850Y-142579520D01*
X190788893Y-142592132D01*
X190808599Y-142606747D01*
X190826777Y-142623223D01*
X190843253Y-142641401D01*
X190857868Y-142661107D01*
X190870480Y-142682150D01*
X190880970Y-142704329D01*
X190889235Y-142727428D01*
X190895196Y-142751227D01*
X190898796Y-142775495D01*
X190900000Y-142799999D01*
X190900000Y-143450001D01*
X190898796Y-143474505D01*
X190895196Y-143498773D01*
X190889235Y-143522572D01*
X190880970Y-143545671D01*
X190870480Y-143567850D01*
X190857868Y-143588893D01*
X190843253Y-143608599D01*
X190826777Y-143626777D01*
X190808599Y-143643253D01*
X190788893Y-143657868D01*
X190767850Y-143670480D01*
X190745671Y-143680970D01*
X190722572Y-143689235D01*
X190698773Y-143695196D01*
X190674505Y-143698796D01*
X190650001Y-143700000D01*
X189749999Y-143700000D01*
X189725495Y-143698796D01*
X189701227Y-143695196D01*
X189677428Y-143689235D01*
X189654329Y-143680970D01*
X189632150Y-143670480D01*
X189611107Y-143657868D01*
X189591401Y-143643253D01*
X189573223Y-143626777D01*
X189556747Y-143608599D01*
X189542132Y-143588893D01*
X189529520Y-143567850D01*
X189519030Y-143545671D01*
X189510765Y-143522572D01*
X189504804Y-143498773D01*
X189501204Y-143474505D01*
X189500000Y-143450001D01*
X189500000Y-142799999D01*
X189501204Y-142775495D01*
X189504804Y-142751227D01*
X189510765Y-142727428D01*
X189519030Y-142704329D01*
X189529520Y-142682150D01*
X189542132Y-142661107D01*
X189556747Y-142641401D01*
X189573223Y-142623223D01*
X189591401Y-142606747D01*
X189611107Y-142592132D01*
X189632150Y-142579520D01*
X189654329Y-142569030D01*
X189677428Y-142560765D01*
X189701227Y-142554804D01*
X189725495Y-142551204D01*
X189749999Y-142550000D01*
X190650001Y-142550000D01*
X190674505Y-142551204D01*
G37*
G36*
X190674505Y-140501204D02*
G01*
X190698773Y-140504804D01*
X190722572Y-140510765D01*
X190745671Y-140519030D01*
X190767850Y-140529520D01*
X190788893Y-140542132D01*
X190808599Y-140556747D01*
X190826777Y-140573223D01*
X190843253Y-140591401D01*
X190857868Y-140611107D01*
X190870480Y-140632150D01*
X190880970Y-140654329D01*
X190889235Y-140677428D01*
X190895196Y-140701227D01*
X190898796Y-140725495D01*
X190900000Y-140749999D01*
X190900000Y-141400001D01*
X190898796Y-141424505D01*
X190895196Y-141448773D01*
X190889235Y-141472572D01*
X190880970Y-141495671D01*
X190870480Y-141517850D01*
X190857868Y-141538893D01*
X190843253Y-141558599D01*
X190826777Y-141576777D01*
X190808599Y-141593253D01*
X190788893Y-141607868D01*
X190767850Y-141620480D01*
X190745671Y-141630970D01*
X190722572Y-141639235D01*
X190698773Y-141645196D01*
X190674505Y-141648796D01*
X190650001Y-141650000D01*
X189749999Y-141650000D01*
X189725495Y-141648796D01*
X189701227Y-141645196D01*
X189677428Y-141639235D01*
X189654329Y-141630970D01*
X189632150Y-141620480D01*
X189611107Y-141607868D01*
X189591401Y-141593253D01*
X189573223Y-141576777D01*
X189556747Y-141558599D01*
X189542132Y-141538893D01*
X189529520Y-141517850D01*
X189519030Y-141495671D01*
X189510765Y-141472572D01*
X189504804Y-141448773D01*
X189501204Y-141424505D01*
X189500000Y-141400001D01*
X189500000Y-140749999D01*
X189501204Y-140725495D01*
X189504804Y-140701227D01*
X189510765Y-140677428D01*
X189519030Y-140654329D01*
X189529520Y-140632150D01*
X189542132Y-140611107D01*
X189556747Y-140591401D01*
X189573223Y-140573223D01*
X189591401Y-140556747D01*
X189611107Y-140542132D01*
X189632150Y-140529520D01*
X189654329Y-140519030D01*
X189677428Y-140510765D01*
X189701227Y-140504804D01*
X189725495Y-140501204D01*
X189749999Y-140500000D01*
X190650001Y-140500000D01*
X190674505Y-140501204D01*
G37*
M02*
