G04 #@! TF.GenerationSoftware,KiCad,Pcbnew,(5.1.5)-3*
G04 #@! TF.CreationDate,2020-04-14T21:23:01-05:00*
G04 #@! TF.ProjectId,Without Led and Usb-c,57697468-6f75-4742-904c-656420616e64,rev?*
G04 #@! TF.SameCoordinates,Original*
G04 #@! TF.FileFunction,Other,User*
%FSLAX46Y46*%
G04 Gerber Fmt 4.6, Leading zero omitted, Abs format (unit mm)*
G04 Created by KiCad (PCBNEW (5.1.5)-3) date 2020-04-14 21:23:01*
%MOMM*%
%LPD*%
G04 APERTURE LIST*
%ADD10C,0.050000*%
%ADD11C,0.100000*%
G04 APERTURE END LIST*
D10*
X9820000Y-147280000D02*
X9819976Y-41880000D01*
X326720000Y-39879976D02*
G75*
G02X328720024Y-41880000I0J-2000024D01*
G01*
X328720000Y-147280000D02*
G75*
G02X326720000Y-149280000I-2000000J0D01*
G01*
X11820000Y-149280000D02*
G75*
G02X9820000Y-147280000I0J2000000D01*
G01*
X9819976Y-41880000D02*
G75*
G02X11820000Y-39879976I2000024J0D01*
G01*
X11820000Y-39879976D02*
X15820000Y-39880000D01*
X326720000Y-149280000D02*
X11820000Y-149280000D01*
X328720024Y-41880000D02*
X328720000Y-147280000D01*
X15820000Y-39880000D02*
X326720000Y-39879976D01*
D11*
X19881250Y-139675000D02*
X19881250Y-125675000D01*
X35681250Y-139675000D02*
X35681250Y-125675000D01*
X35681250Y-139675000D02*
X19881250Y-139675000D01*
X35681250Y-125675000D02*
X19881250Y-125675000D01*
X303250000Y-63475000D02*
X303250000Y-49475000D01*
X319050000Y-63475000D02*
X319050000Y-49475000D01*
X319050000Y-63475000D02*
X303250000Y-63475000D01*
X319050000Y-49475000D02*
X303250000Y-49475000D01*
X43693750Y-139675000D02*
X43693750Y-125675000D01*
X59493750Y-139675000D02*
X59493750Y-125675000D01*
X59493750Y-139675000D02*
X43693750Y-139675000D01*
X59493750Y-125675000D02*
X43693750Y-125675000D01*
D10*
X15242980Y-145186740D02*
G75*
G03X15242980Y-145186740I-2350000J0D01*
G01*
X170642720Y-43944880D02*
G75*
G03X170642720Y-43944880I-2350000J0D01*
G01*
X170637640Y-145186740D02*
G75*
G03X170637640Y-145186740I-2350000J0D01*
G01*
X326039920Y-145194360D02*
G75*
G03X326039920Y-145194360I-2350000J0D01*
G01*
X326037380Y-43937260D02*
G75*
G03X326037380Y-43937260I-2350000J0D01*
G01*
X15242980Y-43929640D02*
G75*
G03X15242980Y-43929640I-2350000J0D01*
G01*
D11*
X241750000Y-139475000D02*
X228150000Y-139475000D01*
X228150000Y-125875000D02*
X228150000Y-139475000D01*
X241750000Y-125875000D02*
X228150000Y-125875000D01*
X241750000Y-125875000D02*
X241750000Y-139475000D01*
X222700000Y-139475000D02*
X209100000Y-139475000D01*
X209100000Y-125875000D02*
X209100000Y-139475000D01*
X222700000Y-125875000D02*
X209100000Y-125875000D01*
X222700000Y-125875000D02*
X222700000Y-139475000D01*
X246100000Y-139675000D02*
X246100000Y-125675000D01*
X261900000Y-139675000D02*
X261900000Y-125675000D01*
X261900000Y-139675000D02*
X246100000Y-139675000D01*
X261900000Y-125675000D02*
X246100000Y-125675000D01*
X79412500Y-120625000D02*
X79412500Y-106625000D01*
X95212500Y-120625000D02*
X95212500Y-106625000D01*
X95212500Y-120625000D02*
X79412500Y-120625000D01*
X95212500Y-106625000D02*
X79412500Y-106625000D01*
X65125000Y-82525000D02*
X65125000Y-68525000D01*
X80925000Y-82525000D02*
X80925000Y-68525000D01*
X80925000Y-82525000D02*
X65125000Y-82525000D01*
X80925000Y-68525000D02*
X65125000Y-68525000D01*
X248893750Y-125875000D02*
X248893750Y-139475000D01*
X248893750Y-139475000D02*
X235293750Y-139475000D01*
X235293750Y-139475000D02*
X235293750Y-125875000D01*
X248893750Y-125875000D02*
X235293750Y-125875000D01*
X225081250Y-125875000D02*
X225081250Y-139475000D01*
X225081250Y-139475000D02*
X211481250Y-139475000D01*
X211481250Y-139475000D02*
X211481250Y-125875000D01*
X225081250Y-125875000D02*
X211481250Y-125875000D01*
X29178250Y-120625000D02*
X29178250Y-122769000D01*
X45434250Y-120625000D02*
X45434250Y-122769000D01*
X29178250Y-104735000D02*
X45434250Y-104735000D01*
X21558250Y-102449000D02*
X29178250Y-102449000D01*
X21558250Y-122769000D02*
X29178250Y-122769000D01*
X21558250Y-122769000D02*
X21558250Y-102449000D01*
X29178250Y-104735000D02*
X29178250Y-102449000D01*
X45434250Y-120625000D02*
X29178250Y-120625000D01*
X45434250Y-104735000D02*
X45434250Y-102449000D01*
X45434250Y-102449000D02*
X53054250Y-102449000D01*
X53054250Y-122769000D02*
X53054250Y-102449000D01*
X45434250Y-122769000D02*
X53054250Y-122769000D01*
X24643750Y-101575000D02*
X24643750Y-87575000D01*
X40443750Y-101575000D02*
X40443750Y-87575000D01*
X40443750Y-101575000D02*
X24643750Y-101575000D01*
X40443750Y-87575000D02*
X24643750Y-87575000D01*
X22262500Y-82525000D02*
X22262500Y-68525000D01*
X38062500Y-82525000D02*
X38062500Y-68525000D01*
X38062500Y-82525000D02*
X22262500Y-82525000D01*
X38062500Y-68525000D02*
X22262500Y-68525000D01*
X17500000Y-63475000D02*
X17500000Y-49475000D01*
X33300000Y-63475000D02*
X33300000Y-49475000D01*
X33300000Y-63475000D02*
X17500000Y-63475000D01*
X33300000Y-49475000D02*
X17500000Y-49475000D01*
X165137500Y-101575000D02*
X165137500Y-87575000D01*
X180937500Y-101575000D02*
X180937500Y-87575000D01*
X180937500Y-101575000D02*
X165137500Y-101575000D01*
X180937500Y-87575000D02*
X165137500Y-87575000D01*
X141325000Y-82525000D02*
X141325000Y-68525000D01*
X157125000Y-82525000D02*
X157125000Y-68525000D01*
X157125000Y-82525000D02*
X141325000Y-82525000D01*
X157125000Y-68525000D02*
X141325000Y-68525000D01*
X146087500Y-101575000D02*
X146087500Y-87575000D01*
X161887500Y-101575000D02*
X161887500Y-87575000D01*
X161887500Y-101575000D02*
X146087500Y-101575000D01*
X161887500Y-87575000D02*
X146087500Y-87575000D01*
X222287500Y-101575000D02*
X222287500Y-87575000D01*
X238087500Y-101575000D02*
X238087500Y-87575000D01*
X238087500Y-101575000D02*
X222287500Y-101575000D01*
X238087500Y-87575000D02*
X222287500Y-87575000D01*
X303250000Y-82525000D02*
X303250000Y-68525000D01*
X319050000Y-82525000D02*
X319050000Y-68525000D01*
X319050000Y-82525000D02*
X303250000Y-82525000D01*
X319050000Y-68525000D02*
X303250000Y-68525000D01*
X303250000Y-139675000D02*
X303250000Y-125675000D01*
X319050000Y-139675000D02*
X319050000Y-125675000D01*
X319050000Y-139675000D02*
X303250000Y-139675000D01*
X319050000Y-125675000D02*
X303250000Y-125675000D01*
X303250000Y-120625000D02*
X303250000Y-106625000D01*
X319050000Y-120625000D02*
X319050000Y-106625000D01*
X319050000Y-120625000D02*
X303250000Y-120625000D01*
X319050000Y-106625000D02*
X303250000Y-106625000D01*
X303250000Y-101575000D02*
X303250000Y-87575000D01*
X319050000Y-101575000D02*
X319050000Y-87575000D01*
X319050000Y-101575000D02*
X303250000Y-101575000D01*
X319050000Y-87575000D02*
X303250000Y-87575000D01*
X279437500Y-82525000D02*
X279437500Y-68525000D01*
X295237500Y-82525000D02*
X295237500Y-68525000D01*
X295237500Y-82525000D02*
X279437500Y-82525000D01*
X295237500Y-68525000D02*
X279437500Y-68525000D01*
X274447000Y-63475000D02*
X274447000Y-65619000D01*
X290703000Y-63475000D02*
X290703000Y-65619000D01*
X274447000Y-47585000D02*
X290703000Y-47585000D01*
X266827000Y-45299000D02*
X274447000Y-45299000D01*
X266827000Y-65619000D02*
X274447000Y-65619000D01*
X266827000Y-65619000D02*
X266827000Y-45299000D01*
X274447000Y-47585000D02*
X274447000Y-45299000D01*
X290703000Y-63475000D02*
X274447000Y-63475000D01*
X290703000Y-47585000D02*
X290703000Y-45299000D01*
X290703000Y-45299000D02*
X298323000Y-45299000D01*
X298323000Y-65619000D02*
X298323000Y-45299000D01*
X290703000Y-65619000D02*
X298323000Y-65619000D01*
X284200000Y-139675000D02*
X284200000Y-125675000D01*
X300000000Y-139675000D02*
X300000000Y-125675000D01*
X300000000Y-139675000D02*
X284200000Y-139675000D01*
X300000000Y-125675000D02*
X284200000Y-125675000D01*
X284200000Y-120625000D02*
X284200000Y-106625000D01*
X300000000Y-120625000D02*
X300000000Y-106625000D01*
X300000000Y-120625000D02*
X284200000Y-120625000D01*
X300000000Y-106625000D02*
X284200000Y-106625000D01*
X272065750Y-101575000D02*
X272065750Y-103719000D01*
X288321750Y-101575000D02*
X288321750Y-103719000D01*
X272065750Y-85685000D02*
X288321750Y-85685000D01*
X264445750Y-83399000D02*
X272065750Y-83399000D01*
X264445750Y-103719000D02*
X272065750Y-103719000D01*
X264445750Y-103719000D02*
X264445750Y-83399000D01*
X272065750Y-85685000D02*
X272065750Y-83399000D01*
X288321750Y-101575000D02*
X272065750Y-101575000D01*
X288321750Y-85685000D02*
X288321750Y-83399000D01*
X288321750Y-83399000D02*
X295941750Y-83399000D01*
X295941750Y-103719000D02*
X295941750Y-83399000D01*
X288321750Y-103719000D02*
X295941750Y-103719000D01*
X255625000Y-82525000D02*
X255625000Y-68525000D01*
X271425000Y-82525000D02*
X271425000Y-68525000D01*
X271425000Y-82525000D02*
X255625000Y-82525000D01*
X271425000Y-68525000D02*
X255625000Y-68525000D01*
X246100000Y-63475000D02*
X246100000Y-49475000D01*
X261900000Y-63475000D02*
X261900000Y-49475000D01*
X261900000Y-63475000D02*
X246100000Y-63475000D01*
X261900000Y-49475000D02*
X246100000Y-49475000D01*
X265150000Y-139675000D02*
X265150000Y-125675000D01*
X280950000Y-139675000D02*
X280950000Y-125675000D01*
X280950000Y-139675000D02*
X265150000Y-139675000D01*
X280950000Y-125675000D02*
X265150000Y-125675000D01*
X258006250Y-120625000D02*
X258006250Y-106625000D01*
X273806250Y-120625000D02*
X273806250Y-106625000D01*
X273806250Y-120625000D02*
X258006250Y-120625000D01*
X273806250Y-106625000D02*
X258006250Y-106625000D01*
X241337500Y-101575000D02*
X241337500Y-87575000D01*
X257137500Y-101575000D02*
X257137500Y-87575000D01*
X257137500Y-101575000D02*
X241337500Y-101575000D01*
X257137500Y-87575000D02*
X241337500Y-87575000D01*
X236575000Y-82525000D02*
X236575000Y-68525000D01*
X252375000Y-82525000D02*
X252375000Y-68525000D01*
X252375000Y-82525000D02*
X236575000Y-82525000D01*
X252375000Y-68525000D02*
X236575000Y-68525000D01*
X227050000Y-63475000D02*
X227050000Y-49475000D01*
X242850000Y-63475000D02*
X242850000Y-49475000D01*
X242850000Y-63475000D02*
X227050000Y-63475000D01*
X242850000Y-49475000D02*
X227050000Y-49475000D01*
X231812500Y-120625000D02*
X231812500Y-106625000D01*
X247612500Y-120625000D02*
X247612500Y-106625000D01*
X247612500Y-120625000D02*
X231812500Y-120625000D01*
X247612500Y-106625000D02*
X231812500Y-106625000D01*
X217525000Y-82525000D02*
X217525000Y-68525000D01*
X233325000Y-82525000D02*
X233325000Y-68525000D01*
X233325000Y-82525000D02*
X217525000Y-82525000D01*
X233325000Y-68525000D02*
X217525000Y-68525000D01*
X208000000Y-63475000D02*
X208000000Y-49475000D01*
X223800000Y-63475000D02*
X223800000Y-49475000D01*
X223800000Y-63475000D02*
X208000000Y-63475000D01*
X223800000Y-49475000D02*
X208000000Y-49475000D01*
X212762500Y-120625000D02*
X212762500Y-106625000D01*
X228562500Y-120625000D02*
X228562500Y-106625000D01*
X228562500Y-120625000D02*
X212762500Y-120625000D01*
X228562500Y-106625000D02*
X212762500Y-106625000D01*
X203237500Y-101575000D02*
X203237500Y-87575000D01*
X219037500Y-101575000D02*
X219037500Y-87575000D01*
X219037500Y-101575000D02*
X203237500Y-101575000D01*
X219037500Y-87575000D02*
X203237500Y-87575000D01*
X198475000Y-82525000D02*
X198475000Y-68525000D01*
X214275000Y-82525000D02*
X214275000Y-68525000D01*
X214275000Y-82525000D02*
X198475000Y-82525000D01*
X214275000Y-68525000D02*
X198475000Y-68525000D01*
X188950000Y-63475000D02*
X188950000Y-49475000D01*
X204750000Y-63475000D02*
X204750000Y-49475000D01*
X204750000Y-63475000D02*
X188950000Y-63475000D01*
X204750000Y-49475000D02*
X188950000Y-49475000D01*
X193712500Y-120625000D02*
X193712500Y-106625000D01*
X209512500Y-120625000D02*
X209512500Y-106625000D01*
X209512500Y-120625000D02*
X193712500Y-120625000D01*
X209512500Y-106625000D02*
X193712500Y-106625000D01*
X184187500Y-101575000D02*
X184187500Y-87575000D01*
X199987500Y-101575000D02*
X199987500Y-87575000D01*
X199987500Y-101575000D02*
X184187500Y-101575000D01*
X199987500Y-87575000D02*
X184187500Y-87575000D01*
X179425000Y-82525000D02*
X179425000Y-68525000D01*
X195225000Y-82525000D02*
X195225000Y-68525000D01*
X195225000Y-82525000D02*
X179425000Y-82525000D01*
X195225000Y-68525000D02*
X179425000Y-68525000D01*
X169900000Y-63475000D02*
X169900000Y-49475000D01*
X185700000Y-63475000D02*
X185700000Y-49475000D01*
X185700000Y-63475000D02*
X169900000Y-63475000D01*
X185700000Y-49475000D02*
X169900000Y-49475000D01*
X174662500Y-120625000D02*
X174662500Y-106625000D01*
X190462500Y-120625000D02*
X190462500Y-106625000D01*
X190462500Y-120625000D02*
X174662500Y-120625000D01*
X190462500Y-106625000D02*
X174662500Y-106625000D01*
X160375000Y-82525000D02*
X160375000Y-68525000D01*
X176175000Y-82525000D02*
X176175000Y-68525000D01*
X176175000Y-82525000D02*
X160375000Y-82525000D01*
X176175000Y-68525000D02*
X160375000Y-68525000D01*
X150850000Y-63475000D02*
X150850000Y-49475000D01*
X166650000Y-63475000D02*
X166650000Y-49475000D01*
X166650000Y-63475000D02*
X150850000Y-63475000D01*
X166650000Y-49475000D02*
X150850000Y-49475000D01*
X155612500Y-120625000D02*
X155612500Y-106625000D01*
X171412500Y-120625000D02*
X171412500Y-106625000D01*
X171412500Y-120625000D02*
X155612500Y-120625000D01*
X171412500Y-106625000D02*
X155612500Y-106625000D01*
X131800000Y-63475000D02*
X131800000Y-49475000D01*
X147600000Y-63475000D02*
X147600000Y-49475000D01*
X147600000Y-63475000D02*
X131800000Y-63475000D01*
X147600000Y-49475000D02*
X131800000Y-49475000D01*
X193071750Y-125563000D02*
X193071750Y-141819000D01*
X193071750Y-123785000D02*
X193071750Y-121499000D01*
X200691750Y-141819000D02*
X200691750Y-121499000D01*
X200691750Y-121499000D02*
X193071750Y-121499000D01*
X200691750Y-141819000D02*
X193071750Y-141819000D01*
X193071750Y-125563000D02*
X154743750Y-125563000D01*
X154743750Y-139675000D02*
X154743750Y-125563000D01*
X138943750Y-139675000D02*
X138943750Y-125563000D01*
X138943750Y-139675000D02*
X154743750Y-139675000D01*
X100615750Y-125563000D02*
X100615750Y-141819000D01*
X100615750Y-123785000D02*
X193071750Y-123785000D01*
X100615750Y-125563000D02*
X138943750Y-125563000D01*
X92995750Y-141819000D02*
X100615750Y-141819000D01*
X92995750Y-141819000D02*
X92995750Y-121499000D01*
X100615750Y-123785000D02*
X100615750Y-121499000D01*
X92995750Y-121499000D02*
X100615750Y-121499000D01*
X136562500Y-120625000D02*
X136562500Y-106625000D01*
X152362500Y-120625000D02*
X152362500Y-106625000D01*
X152362500Y-120625000D02*
X136562500Y-120625000D01*
X152362500Y-106625000D02*
X136562500Y-106625000D01*
X127037500Y-101575000D02*
X127037500Y-87575000D01*
X142837500Y-101575000D02*
X142837500Y-87575000D01*
X142837500Y-101575000D02*
X127037500Y-101575000D01*
X142837500Y-87575000D02*
X127037500Y-87575000D01*
X122275000Y-82525000D02*
X122275000Y-68525000D01*
X138075000Y-82525000D02*
X138075000Y-68525000D01*
X138075000Y-82525000D02*
X122275000Y-82525000D01*
X138075000Y-68525000D02*
X122275000Y-68525000D01*
X112750000Y-63475000D02*
X112750000Y-49475000D01*
X128550000Y-63475000D02*
X128550000Y-49475000D01*
X128550000Y-63475000D02*
X112750000Y-63475000D01*
X128550000Y-49475000D02*
X112750000Y-49475000D01*
X117512500Y-120625000D02*
X117512500Y-106625000D01*
X133312500Y-120625000D02*
X133312500Y-106625000D01*
X133312500Y-120625000D02*
X117512500Y-120625000D01*
X133312500Y-106625000D02*
X117512500Y-106625000D01*
X107987500Y-101575000D02*
X107987500Y-87575000D01*
X123787500Y-101575000D02*
X123787500Y-87575000D01*
X123787500Y-101575000D02*
X107987500Y-101575000D01*
X123787500Y-87575000D02*
X107987500Y-87575000D01*
X103225000Y-82525000D02*
X103225000Y-68525000D01*
X119025000Y-82525000D02*
X119025000Y-68525000D01*
X119025000Y-82525000D02*
X103225000Y-82525000D01*
X119025000Y-68525000D02*
X103225000Y-68525000D01*
X93700000Y-63475000D02*
X93700000Y-49475000D01*
X109500000Y-63475000D02*
X109500000Y-49475000D01*
X109500000Y-63475000D02*
X93700000Y-63475000D01*
X109500000Y-49475000D02*
X93700000Y-49475000D01*
X98462500Y-120625000D02*
X98462500Y-106625000D01*
X114262500Y-120625000D02*
X114262500Y-106625000D01*
X114262500Y-120625000D02*
X98462500Y-120625000D01*
X114262500Y-106625000D02*
X98462500Y-106625000D01*
X88937500Y-101575000D02*
X88937500Y-87575000D01*
X104737500Y-101575000D02*
X104737500Y-87575000D01*
X104737500Y-101575000D02*
X88937500Y-101575000D01*
X104737500Y-87575000D02*
X88937500Y-87575000D01*
X84175000Y-82525000D02*
X84175000Y-68525000D01*
X99975000Y-82525000D02*
X99975000Y-68525000D01*
X99975000Y-82525000D02*
X84175000Y-82525000D01*
X99975000Y-68525000D02*
X84175000Y-68525000D01*
X74650000Y-63475000D02*
X74650000Y-49475000D01*
X90450000Y-63475000D02*
X90450000Y-49475000D01*
X90450000Y-63475000D02*
X74650000Y-63475000D01*
X90450000Y-49475000D02*
X74650000Y-49475000D01*
X67506250Y-139675000D02*
X67506250Y-125675000D01*
X83306250Y-139675000D02*
X83306250Y-125675000D01*
X83306250Y-139675000D02*
X67506250Y-139675000D01*
X83306250Y-125675000D02*
X67506250Y-125675000D01*
X69887500Y-101575000D02*
X69887500Y-87575000D01*
X85687500Y-101575000D02*
X85687500Y-87575000D01*
X85687500Y-101575000D02*
X69887500Y-101575000D01*
X85687500Y-87575000D02*
X69887500Y-87575000D01*
X55600000Y-63475000D02*
X55600000Y-49475000D01*
X71400000Y-63475000D02*
X71400000Y-49475000D01*
X71400000Y-63475000D02*
X55600000Y-63475000D01*
X71400000Y-49475000D02*
X55600000Y-49475000D01*
X60362500Y-120625000D02*
X60362500Y-106625000D01*
X76162500Y-120625000D02*
X76162500Y-106625000D01*
X76162500Y-120625000D02*
X60362500Y-120625000D01*
X76162500Y-106625000D02*
X60362500Y-106625000D01*
X50837500Y-101575000D02*
X50837500Y-87575000D01*
X66637500Y-101575000D02*
X66637500Y-87575000D01*
X66637500Y-101575000D02*
X50837500Y-101575000D01*
X66637500Y-87575000D02*
X50837500Y-87575000D01*
X46075000Y-82525000D02*
X46075000Y-68525000D01*
X61875000Y-82525000D02*
X61875000Y-68525000D01*
X61875000Y-82525000D02*
X46075000Y-82525000D01*
X61875000Y-68525000D02*
X46075000Y-68525000D01*
X36550000Y-63475000D02*
X36550000Y-49475000D01*
X52350000Y-63475000D02*
X52350000Y-49475000D01*
X52350000Y-63475000D02*
X36550000Y-63475000D01*
X52350000Y-49475000D02*
X36550000Y-49475000D01*
M02*
