G04 #@! TF.GenerationSoftware,KiCad,Pcbnew,(5.1.5)-3*
G04 #@! TF.CreationDate,2020-04-14T21:23:01-05:00*
G04 #@! TF.ProjectId,Without Led and Usb-c,57697468-6f75-4742-904c-656420616e64,rev?*
G04 #@! TF.SameCoordinates,Original*
G04 #@! TF.FileFunction,Other,Comment*
%FSLAX46Y46*%
G04 Gerber Fmt 4.6, Leading zero omitted, Abs format (unit mm)*
G04 Created by KiCad (PCBNEW (5.1.5)-3) date 2020-04-14 21:23:01*
%MOMM*%
%LPD*%
G04 APERTURE LIST*
%ADD10C,0.050000*%
%ADD11C,0.150000*%
%ADD12C,0.120000*%
%ADD13C,0.125000*%
G04 APERTURE END LIST*
D10*
X9820000Y-147280000D02*
X9819976Y-41880000D01*
X326720000Y-39879976D02*
G75*
G02X328720024Y-41880000I0J-2000024D01*
G01*
X328720000Y-147280000D02*
G75*
G02X326720000Y-149280000I-2000000J0D01*
G01*
X11820000Y-149280000D02*
G75*
G02X9820000Y-147280000I0J2000000D01*
G01*
X9819976Y-41880000D02*
G75*
G02X11820000Y-39879976I2000024J0D01*
G01*
X11820000Y-39879976D02*
X15820000Y-39880000D01*
X326720000Y-149280000D02*
X11820000Y-149280000D01*
X328720024Y-41880000D02*
X328720000Y-147280000D01*
X15820000Y-39880000D02*
X326720000Y-39879976D01*
D11*
X14992980Y-145186740D02*
G75*
G03X14992980Y-145186740I-2100000J0D01*
G01*
X170392720Y-43944880D02*
G75*
G03X170392720Y-43944880I-2100000J0D01*
G01*
X170387640Y-145186740D02*
G75*
G03X170387640Y-145186740I-2100000J0D01*
G01*
X325789920Y-145194360D02*
G75*
G03X325789920Y-145194360I-2100000J0D01*
G01*
X325787380Y-43937260D02*
G75*
G03X325787380Y-43937260I-2100000J0D01*
G01*
X14992980Y-43929640D02*
G75*
G03X14992980Y-43929640I-2100000J0D01*
G01*
D12*
X29750000Y-39800000D02*
X39750000Y-39800000D01*
D11*
X26353883Y-136254761D02*
X26490788Y-136302380D01*
X26728883Y-136302380D01*
X26830074Y-136254761D01*
X26883645Y-136207142D01*
X26943169Y-136111904D01*
X26955074Y-136016666D01*
X26919360Y-135921428D01*
X26877693Y-135873809D01*
X26788407Y-135826190D01*
X26603883Y-135778571D01*
X26514598Y-135730952D01*
X26472931Y-135683333D01*
X26437217Y-135588095D01*
X26449122Y-135492857D01*
X26508645Y-135397619D01*
X26562217Y-135350000D01*
X26663407Y-135302380D01*
X26901502Y-135302380D01*
X27038407Y-135350000D01*
X27377693Y-135302380D02*
X27490788Y-136302380D01*
X27770550Y-135588095D01*
X27871741Y-136302380D01*
X28234836Y-135302380D01*
X29091979Y-135302380D02*
X28615788Y-135302380D01*
X28508645Y-135778571D01*
X28562217Y-135730952D01*
X28663407Y-135683333D01*
X28901502Y-135683333D01*
X28990788Y-135730952D01*
X29032455Y-135778571D01*
X29068169Y-135873809D01*
X29038407Y-136111904D01*
X28978883Y-136207142D01*
X28925312Y-136254761D01*
X28824122Y-136302380D01*
X28586026Y-136302380D01*
X28496741Y-136254761D01*
X28455074Y-136207142D01*
X25186011Y-141668142D02*
X25138392Y-141715761D01*
X24995535Y-141763380D01*
X24900297Y-141763380D01*
X24757440Y-141715761D01*
X24662202Y-141620523D01*
X24614583Y-141525285D01*
X24566964Y-141334809D01*
X24566964Y-141191952D01*
X24614583Y-141001476D01*
X24662202Y-140906238D01*
X24757440Y-140811000D01*
X24900297Y-140763380D01*
X24995535Y-140763380D01*
X25138392Y-140811000D01*
X25186011Y-140858619D01*
X25471726Y-141096714D02*
X25852678Y-141096714D01*
X25614583Y-140763380D02*
X25614583Y-141620523D01*
X25662202Y-141715761D01*
X25757440Y-141763380D01*
X25852678Y-141763380D01*
X26186011Y-141763380D02*
X26186011Y-141096714D01*
X26186011Y-141287190D02*
X26233630Y-141191952D01*
X26281249Y-141144333D01*
X26376488Y-141096714D01*
X26471726Y-141096714D01*
X26947916Y-141763380D02*
X26852678Y-141715761D01*
X26805059Y-141620523D01*
X26805059Y-140763380D01*
X28614583Y-141763380D02*
X28043154Y-141763380D01*
X28328869Y-141763380D02*
X28328869Y-140763380D01*
X28233630Y-140906238D01*
X28138392Y-141001476D01*
X28043154Y-141049095D01*
X29043154Y-141668142D02*
X29090773Y-141715761D01*
X29043154Y-141763380D01*
X28995535Y-141715761D01*
X29043154Y-141668142D01*
X29043154Y-141763380D01*
X29471726Y-140858619D02*
X29519345Y-140811000D01*
X29614583Y-140763380D01*
X29852678Y-140763380D01*
X29947916Y-140811000D01*
X29995535Y-140858619D01*
X30043154Y-140953857D01*
X30043154Y-141049095D01*
X29995535Y-141191952D01*
X29424107Y-141763380D01*
X30043154Y-141763380D01*
X30947916Y-140763380D02*
X30471726Y-140763380D01*
X30424107Y-141239571D01*
X30471726Y-141191952D01*
X30566964Y-141144333D01*
X30805059Y-141144333D01*
X30900297Y-141191952D01*
X30947916Y-141239571D01*
X30995535Y-141334809D01*
X30995535Y-141572904D01*
X30947916Y-141668142D01*
X30900297Y-141715761D01*
X30805059Y-141763380D01*
X30566964Y-141763380D01*
X30471726Y-141715761D01*
X30424107Y-141668142D01*
X309246443Y-60054761D02*
X309383348Y-60102380D01*
X309621443Y-60102380D01*
X309722633Y-60054761D01*
X309776205Y-60007142D01*
X309835729Y-59911904D01*
X309847633Y-59816666D01*
X309811919Y-59721428D01*
X309770252Y-59673809D01*
X309680967Y-59626190D01*
X309496443Y-59578571D01*
X309407157Y-59530952D01*
X309365491Y-59483333D01*
X309329776Y-59388095D01*
X309341681Y-59292857D01*
X309401205Y-59197619D01*
X309454776Y-59150000D01*
X309555967Y-59102380D01*
X309794062Y-59102380D01*
X309930967Y-59150000D01*
X310270252Y-59102380D02*
X310383348Y-60102380D01*
X310663110Y-59388095D01*
X310764300Y-60102380D01*
X311127395Y-59102380D01*
X311936919Y-59102380D02*
X311746443Y-59102380D01*
X311645252Y-59150000D01*
X311591681Y-59197619D01*
X311478586Y-59340476D01*
X311407157Y-59530952D01*
X311359538Y-59911904D01*
X311395252Y-60007142D01*
X311436919Y-60054761D01*
X311526205Y-60102380D01*
X311716681Y-60102380D01*
X311817872Y-60054761D01*
X311871443Y-60007142D01*
X311930967Y-59911904D01*
X311960729Y-59673809D01*
X311925014Y-59578571D01*
X311883348Y-59530952D01*
X311794062Y-59483333D01*
X311603586Y-59483333D01*
X311502395Y-59530952D01*
X311448824Y-59578571D01*
X311389300Y-59673809D01*
X312889300Y-59102380D02*
X312698824Y-59102380D01*
X312597633Y-59150000D01*
X312544062Y-59197619D01*
X312430967Y-59340476D01*
X312359538Y-59530952D01*
X312311919Y-59911904D01*
X312347633Y-60007142D01*
X312389300Y-60054761D01*
X312478586Y-60102380D01*
X312669062Y-60102380D01*
X312770252Y-60054761D01*
X312823824Y-60007142D01*
X312883348Y-59911904D01*
X312913110Y-59673809D01*
X312877395Y-59578571D01*
X312835729Y-59530952D01*
X312746443Y-59483333D01*
X312555967Y-59483333D01*
X312454776Y-59530952D01*
X312401205Y-59578571D01*
X312341681Y-59673809D01*
X311054761Y-64515761D02*
X311197619Y-64658619D01*
X49690193Y-136254761D02*
X49827098Y-136302380D01*
X50065193Y-136302380D01*
X50166383Y-136254761D01*
X50219955Y-136207142D01*
X50279479Y-136111904D01*
X50291383Y-136016666D01*
X50255669Y-135921428D01*
X50214002Y-135873809D01*
X50124717Y-135826190D01*
X49940193Y-135778571D01*
X49850907Y-135730952D01*
X49809241Y-135683333D01*
X49773526Y-135588095D01*
X49785431Y-135492857D01*
X49844955Y-135397619D01*
X49898526Y-135350000D01*
X49999717Y-135302380D01*
X50237812Y-135302380D01*
X50374717Y-135350000D01*
X50714002Y-135302380D02*
X50827098Y-136302380D01*
X51106860Y-135588095D01*
X51208050Y-136302380D01*
X51571145Y-135302380D01*
X52350907Y-136302380D02*
X51779479Y-136302380D01*
X52065193Y-136302380D02*
X52190193Y-135302380D01*
X52077098Y-135445238D01*
X51969955Y-135540476D01*
X51868764Y-135588095D01*
X53094955Y-135302380D02*
X53190193Y-135302380D01*
X53279479Y-135350000D01*
X53321145Y-135397619D01*
X53356860Y-135492857D01*
X53380669Y-135683333D01*
X53350907Y-135921428D01*
X53279479Y-136111904D01*
X53219955Y-136207142D01*
X53166383Y-136254761D01*
X53065193Y-136302380D01*
X52969955Y-136302380D01*
X52880669Y-136254761D01*
X52839002Y-136207142D01*
X52803288Y-136111904D01*
X52779479Y-135921428D01*
X52809241Y-135683333D01*
X52880669Y-135492857D01*
X52940193Y-135397619D01*
X52993764Y-135350000D01*
X53094955Y-135302380D01*
X48427083Y-140763380D02*
X48665178Y-141763380D01*
X48855654Y-141049095D01*
X49046130Y-141763380D01*
X49284226Y-140763380D01*
X49665178Y-141763380D02*
X49665178Y-141096714D01*
X49665178Y-140763380D02*
X49617559Y-140811000D01*
X49665178Y-140858619D01*
X49712797Y-140811000D01*
X49665178Y-140763380D01*
X49665178Y-140858619D01*
X50141369Y-141096714D02*
X50141369Y-141763380D01*
X50141369Y-141191952D02*
X50188988Y-141144333D01*
X50284226Y-141096714D01*
X50427083Y-141096714D01*
X50522321Y-141144333D01*
X50569940Y-141239571D01*
X50569940Y-141763380D01*
X52331845Y-141763380D02*
X51760416Y-141763380D01*
X52046130Y-141763380D02*
X52046130Y-140763380D01*
X51950892Y-140906238D01*
X51855654Y-141001476D01*
X51760416Y-141049095D01*
X52760416Y-141668142D02*
X52808035Y-141715761D01*
X52760416Y-141763380D01*
X52712797Y-141715761D01*
X52760416Y-141668142D01*
X52760416Y-141763380D01*
X53188988Y-140858619D02*
X53236607Y-140811000D01*
X53331845Y-140763380D01*
X53569940Y-140763380D01*
X53665178Y-140811000D01*
X53712797Y-140858619D01*
X53760416Y-140953857D01*
X53760416Y-141049095D01*
X53712797Y-141191952D01*
X53141369Y-141763380D01*
X53760416Y-141763380D01*
X54665178Y-140763380D02*
X54188988Y-140763380D01*
X54141369Y-141239571D01*
X54188988Y-141191952D01*
X54284226Y-141144333D01*
X54522321Y-141144333D01*
X54617559Y-141191952D01*
X54665178Y-141239571D01*
X54712797Y-141334809D01*
X54712797Y-141572904D01*
X54665178Y-141668142D01*
X54617559Y-141715761D01*
X54522321Y-141763380D01*
X54284226Y-141763380D01*
X54188988Y-141715761D01*
X54141369Y-141668142D01*
X233046443Y-136254761D02*
X233183348Y-136302380D01*
X233421443Y-136302380D01*
X233522633Y-136254761D01*
X233576205Y-136207142D01*
X233635729Y-136111904D01*
X233647633Y-136016666D01*
X233611919Y-135921428D01*
X233570252Y-135873809D01*
X233480967Y-135826190D01*
X233296443Y-135778571D01*
X233207157Y-135730952D01*
X233165491Y-135683333D01*
X233129776Y-135588095D01*
X233141681Y-135492857D01*
X233201205Y-135397619D01*
X233254776Y-135350000D01*
X233355967Y-135302380D01*
X233594062Y-135302380D01*
X233730967Y-135350000D01*
X234070252Y-135302380D02*
X234183348Y-136302380D01*
X234463110Y-135588095D01*
X234564300Y-136302380D01*
X234927395Y-135302380D01*
X235736919Y-135302380D02*
X235546443Y-135302380D01*
X235445252Y-135350000D01*
X235391681Y-135397619D01*
X235278586Y-135540476D01*
X235207157Y-135730952D01*
X235159538Y-136111904D01*
X235195252Y-136207142D01*
X235236919Y-136254761D01*
X235326205Y-136302380D01*
X235516681Y-136302380D01*
X235617872Y-136254761D01*
X235671443Y-136207142D01*
X235730967Y-136111904D01*
X235760729Y-135873809D01*
X235725014Y-135778571D01*
X235683348Y-135730952D01*
X235594062Y-135683333D01*
X235403586Y-135683333D01*
X235302395Y-135730952D01*
X235248824Y-135778571D01*
X235189300Y-135873809D01*
X236183348Y-136302380D02*
X236373824Y-136302380D01*
X236475014Y-136254761D01*
X236528586Y-136207142D01*
X236641681Y-136064285D01*
X236713110Y-135873809D01*
X236760729Y-135492857D01*
X236725014Y-135397619D01*
X236683348Y-135350000D01*
X236594062Y-135302380D01*
X236403586Y-135302380D01*
X236302395Y-135350000D01*
X236248824Y-135397619D01*
X236189300Y-135492857D01*
X236159538Y-135730952D01*
X236195252Y-135826190D01*
X236236919Y-135873809D01*
X236326205Y-135921428D01*
X236516681Y-135921428D01*
X236617872Y-135873809D01*
X236671443Y-135826190D01*
X236730967Y-135730952D01*
X232592857Y-141239571D02*
X232259523Y-141239571D01*
X232259523Y-141763380D02*
X232259523Y-140763380D01*
X232735714Y-140763380D01*
X233116666Y-141096714D02*
X233116666Y-141763380D01*
X233116666Y-141191952D02*
X233164285Y-141144333D01*
X233259523Y-141096714D01*
X233402380Y-141096714D01*
X233497619Y-141144333D01*
X233545238Y-141239571D01*
X233545238Y-141763380D01*
X235307142Y-141763380D02*
X234735714Y-141763380D01*
X235021428Y-141763380D02*
X235021428Y-140763380D01*
X234926190Y-140906238D01*
X234830952Y-141001476D01*
X234735714Y-141049095D01*
X235735714Y-141668142D02*
X235783333Y-141715761D01*
X235735714Y-141763380D01*
X235688095Y-141715761D01*
X235735714Y-141668142D01*
X235735714Y-141763380D01*
X236402380Y-140763380D02*
X236497619Y-140763380D01*
X236592857Y-140811000D01*
X236640476Y-140858619D01*
X236688095Y-140953857D01*
X236735714Y-141144333D01*
X236735714Y-141382428D01*
X236688095Y-141572904D01*
X236640476Y-141668142D01*
X236592857Y-141715761D01*
X236497619Y-141763380D01*
X236402380Y-141763380D01*
X236307142Y-141715761D01*
X236259523Y-141668142D01*
X236211904Y-141572904D01*
X236164285Y-141382428D01*
X236164285Y-141144333D01*
X236211904Y-140953857D01*
X236259523Y-140858619D01*
X236307142Y-140811000D01*
X236402380Y-140763380D01*
X237354761Y-140763380D02*
X237450000Y-140763380D01*
X237545238Y-140811000D01*
X237592857Y-140858619D01*
X237640476Y-140953857D01*
X237688095Y-141144333D01*
X237688095Y-141382428D01*
X237640476Y-141572904D01*
X237592857Y-141668142D01*
X237545238Y-141715761D01*
X237450000Y-141763380D01*
X237354761Y-141763380D01*
X237259523Y-141715761D01*
X237211904Y-141668142D01*
X237164285Y-141572904D01*
X237116666Y-141382428D01*
X237116666Y-141144333D01*
X237164285Y-140953857D01*
X237211904Y-140858619D01*
X237259523Y-140811000D01*
X237354761Y-140763380D01*
X213996443Y-136254761D02*
X214133348Y-136302380D01*
X214371443Y-136302380D01*
X214472633Y-136254761D01*
X214526205Y-136207142D01*
X214585729Y-136111904D01*
X214597633Y-136016666D01*
X214561919Y-135921428D01*
X214520252Y-135873809D01*
X214430967Y-135826190D01*
X214246443Y-135778571D01*
X214157157Y-135730952D01*
X214115491Y-135683333D01*
X214079776Y-135588095D01*
X214091681Y-135492857D01*
X214151205Y-135397619D01*
X214204776Y-135350000D01*
X214305967Y-135302380D01*
X214544062Y-135302380D01*
X214680967Y-135350000D01*
X215020252Y-135302380D02*
X215133348Y-136302380D01*
X215413110Y-135588095D01*
X215514300Y-136302380D01*
X215877395Y-135302380D01*
X216686919Y-135302380D02*
X216496443Y-135302380D01*
X216395252Y-135350000D01*
X216341681Y-135397619D01*
X216228586Y-135540476D01*
X216157157Y-135730952D01*
X216109538Y-136111904D01*
X216145252Y-136207142D01*
X216186919Y-136254761D01*
X216276205Y-136302380D01*
X216466681Y-136302380D01*
X216567872Y-136254761D01*
X216621443Y-136207142D01*
X216680967Y-136111904D01*
X216710729Y-135873809D01*
X216675014Y-135778571D01*
X216633348Y-135730952D01*
X216544062Y-135683333D01*
X216353586Y-135683333D01*
X216252395Y-135730952D01*
X216198824Y-135778571D01*
X216139300Y-135873809D01*
X217300014Y-135730952D02*
X217210729Y-135683333D01*
X217169062Y-135635714D01*
X217133348Y-135540476D01*
X217139300Y-135492857D01*
X217198824Y-135397619D01*
X217252395Y-135350000D01*
X217353586Y-135302380D01*
X217544062Y-135302380D01*
X217633348Y-135350000D01*
X217675014Y-135397619D01*
X217710729Y-135492857D01*
X217704776Y-135540476D01*
X217645252Y-135635714D01*
X217591681Y-135683333D01*
X217490491Y-135730952D01*
X217300014Y-135730952D01*
X217198824Y-135778571D01*
X217145252Y-135826190D01*
X217085729Y-135921428D01*
X217061919Y-136111904D01*
X217097633Y-136207142D01*
X217139300Y-136254761D01*
X217228586Y-136302380D01*
X217419062Y-136302380D01*
X217520252Y-136254761D01*
X217573824Y-136207142D01*
X217633348Y-136111904D01*
X217657157Y-135921428D01*
X217621443Y-135826190D01*
X217579776Y-135778571D01*
X217490491Y-135730952D01*
X213066666Y-141477666D02*
X213542857Y-141477666D01*
X212971428Y-141763380D02*
X213304761Y-140763380D01*
X213638095Y-141763380D01*
X214114285Y-141763380D02*
X214019047Y-141715761D01*
X213971428Y-141620523D01*
X213971428Y-140763380D01*
X214352380Y-141096714D02*
X214733333Y-141096714D01*
X214495238Y-140763380D02*
X214495238Y-141620523D01*
X214542857Y-141715761D01*
X214638095Y-141763380D01*
X214733333Y-141763380D01*
X216352380Y-141763380D02*
X215780952Y-141763380D01*
X216066666Y-141763380D02*
X216066666Y-140763380D01*
X215971428Y-140906238D01*
X215876190Y-141001476D01*
X215780952Y-141049095D01*
X216780952Y-141668142D02*
X216828571Y-141715761D01*
X216780952Y-141763380D01*
X216733333Y-141715761D01*
X216780952Y-141668142D01*
X216780952Y-141763380D01*
X217447619Y-140763380D02*
X217542857Y-140763380D01*
X217638095Y-140811000D01*
X217685714Y-140858619D01*
X217733333Y-140953857D01*
X217780952Y-141144333D01*
X217780952Y-141382428D01*
X217733333Y-141572904D01*
X217685714Y-141668142D01*
X217638095Y-141715761D01*
X217542857Y-141763380D01*
X217447619Y-141763380D01*
X217352380Y-141715761D01*
X217304761Y-141668142D01*
X217257142Y-141572904D01*
X217209523Y-141382428D01*
X217209523Y-141144333D01*
X217257142Y-140953857D01*
X217304761Y-140858619D01*
X217352380Y-140811000D01*
X217447619Y-140763380D01*
X218400000Y-140763380D02*
X218495238Y-140763380D01*
X218590476Y-140811000D01*
X218638095Y-140858619D01*
X218685714Y-140953857D01*
X218733333Y-141144333D01*
X218733333Y-141382428D01*
X218685714Y-141572904D01*
X218638095Y-141668142D01*
X218590476Y-141715761D01*
X218495238Y-141763380D01*
X218400000Y-141763380D01*
X218304761Y-141715761D01*
X218257142Y-141668142D01*
X218209523Y-141572904D01*
X218161904Y-141382428D01*
X218161904Y-141144333D01*
X218209523Y-140953857D01*
X218257142Y-140858619D01*
X218304761Y-140811000D01*
X218400000Y-140763380D01*
X252096443Y-136254761D02*
X252233348Y-136302380D01*
X252471443Y-136302380D01*
X252572633Y-136254761D01*
X252626205Y-136207142D01*
X252685729Y-136111904D01*
X252697633Y-136016666D01*
X252661919Y-135921428D01*
X252620252Y-135873809D01*
X252530967Y-135826190D01*
X252346443Y-135778571D01*
X252257157Y-135730952D01*
X252215491Y-135683333D01*
X252179776Y-135588095D01*
X252191681Y-135492857D01*
X252251205Y-135397619D01*
X252304776Y-135350000D01*
X252405967Y-135302380D01*
X252644062Y-135302380D01*
X252780967Y-135350000D01*
X253120252Y-135302380D02*
X253233348Y-136302380D01*
X253513110Y-135588095D01*
X253614300Y-136302380D01*
X253977395Y-135302380D01*
X254263110Y-135302380D02*
X254929776Y-135302380D01*
X254376205Y-136302380D01*
X255501205Y-135302380D02*
X255596443Y-135302380D01*
X255685729Y-135350000D01*
X255727395Y-135397619D01*
X255763110Y-135492857D01*
X255786919Y-135683333D01*
X255757157Y-135921428D01*
X255685729Y-136111904D01*
X255626205Y-136207142D01*
X255572633Y-136254761D01*
X255471443Y-136302380D01*
X255376205Y-136302380D01*
X255286919Y-136254761D01*
X255245252Y-136207142D01*
X255209538Y-136111904D01*
X255185729Y-135921428D01*
X255215491Y-135683333D01*
X255286919Y-135492857D01*
X255346443Y-135397619D01*
X255400014Y-135350000D01*
X255501205Y-135302380D01*
X251404761Y-141668142D02*
X251357142Y-141715761D01*
X251214285Y-141763380D01*
X251119047Y-141763380D01*
X250976190Y-141715761D01*
X250880952Y-141620523D01*
X250833333Y-141525285D01*
X250785714Y-141334809D01*
X250785714Y-141191952D01*
X250833333Y-141001476D01*
X250880952Y-140906238D01*
X250976190Y-140811000D01*
X251119047Y-140763380D01*
X251214285Y-140763380D01*
X251357142Y-140811000D01*
X251404761Y-140858619D01*
X251690476Y-141096714D02*
X252071428Y-141096714D01*
X251833333Y-140763380D02*
X251833333Y-141620523D01*
X251880952Y-141715761D01*
X251976190Y-141763380D01*
X252071428Y-141763380D01*
X252404761Y-141763380D02*
X252404761Y-141096714D01*
X252404761Y-141287190D02*
X252452380Y-141191952D01*
X252500000Y-141144333D01*
X252595238Y-141096714D01*
X252690476Y-141096714D01*
X253166666Y-141763380D02*
X253071428Y-141715761D01*
X253023809Y-141620523D01*
X253023809Y-140763380D01*
X254833333Y-141763380D02*
X254261904Y-141763380D01*
X254547619Y-141763380D02*
X254547619Y-140763380D01*
X254452380Y-140906238D01*
X254357142Y-141001476D01*
X254261904Y-141049095D01*
X255261904Y-141668142D02*
X255309523Y-141715761D01*
X255261904Y-141763380D01*
X255214285Y-141715761D01*
X255261904Y-141668142D01*
X255261904Y-141763380D01*
X255928571Y-140763380D02*
X256023809Y-140763380D01*
X256119047Y-140811000D01*
X256166666Y-140858619D01*
X256214285Y-140953857D01*
X256261904Y-141144333D01*
X256261904Y-141382428D01*
X256214285Y-141572904D01*
X256166666Y-141668142D01*
X256119047Y-141715761D01*
X256023809Y-141763380D01*
X255928571Y-141763380D01*
X255833333Y-141715761D01*
X255785714Y-141668142D01*
X255738095Y-141572904D01*
X255690476Y-141382428D01*
X255690476Y-141144333D01*
X255738095Y-140953857D01*
X255785714Y-140858619D01*
X255833333Y-140811000D01*
X255928571Y-140763380D01*
X256880952Y-140763380D02*
X256976190Y-140763380D01*
X257071428Y-140811000D01*
X257119047Y-140858619D01*
X257166666Y-140953857D01*
X257214285Y-141144333D01*
X257214285Y-141382428D01*
X257166666Y-141572904D01*
X257119047Y-141668142D01*
X257071428Y-141715761D01*
X256976190Y-141763380D01*
X256880952Y-141763380D01*
X256785714Y-141715761D01*
X256738095Y-141668142D01*
X256690476Y-141572904D01*
X256642857Y-141382428D01*
X256642857Y-141144333D01*
X256690476Y-140953857D01*
X256738095Y-140858619D01*
X256785714Y-140811000D01*
X256880952Y-140763380D01*
X85408943Y-117204761D02*
X85545848Y-117252380D01*
X85783943Y-117252380D01*
X85885133Y-117204761D01*
X85938705Y-117157142D01*
X85998229Y-117061904D01*
X86010133Y-116966666D01*
X85974419Y-116871428D01*
X85932752Y-116823809D01*
X85843467Y-116776190D01*
X85658943Y-116728571D01*
X85569657Y-116680952D01*
X85527991Y-116633333D01*
X85492276Y-116538095D01*
X85504181Y-116442857D01*
X85563705Y-116347619D01*
X85617276Y-116300000D01*
X85718467Y-116252380D01*
X85956562Y-116252380D01*
X86093467Y-116300000D01*
X86432752Y-116252380D02*
X86545848Y-117252380D01*
X86825610Y-116538095D01*
X86926800Y-117252380D01*
X87289895Y-116252380D01*
X88069657Y-117252380D02*
X87498229Y-117252380D01*
X87783943Y-117252380D02*
X87908943Y-116252380D01*
X87795848Y-116395238D01*
X87688705Y-116490476D01*
X87587514Y-116538095D01*
X89010133Y-116585714D02*
X88926800Y-117252380D01*
X88819657Y-116204761D02*
X88492276Y-116919047D01*
X89111324Y-116919047D01*
X86979166Y-121713380D02*
X87645833Y-122713380D01*
X87645833Y-121713380D02*
X86979166Y-122713380D01*
X71121443Y-79104761D02*
X71258348Y-79152380D01*
X71496443Y-79152380D01*
X71597633Y-79104761D01*
X71651205Y-79057142D01*
X71710729Y-78961904D01*
X71722633Y-78866666D01*
X71686919Y-78771428D01*
X71645252Y-78723809D01*
X71555967Y-78676190D01*
X71371443Y-78628571D01*
X71282157Y-78580952D01*
X71240491Y-78533333D01*
X71204776Y-78438095D01*
X71216681Y-78342857D01*
X71276205Y-78247619D01*
X71329776Y-78200000D01*
X71430967Y-78152380D01*
X71669062Y-78152380D01*
X71805967Y-78200000D01*
X72145252Y-78152380D02*
X72258348Y-79152380D01*
X72538110Y-78438095D01*
X72639300Y-79152380D01*
X73002395Y-78152380D01*
X73782157Y-79152380D02*
X73210729Y-79152380D01*
X73496443Y-79152380D02*
X73621443Y-78152380D01*
X73508348Y-78295238D01*
X73401205Y-78390476D01*
X73300014Y-78438095D01*
X74276205Y-78247619D02*
X74329776Y-78200000D01*
X74430967Y-78152380D01*
X74669062Y-78152380D01*
X74758348Y-78200000D01*
X74800014Y-78247619D01*
X74835729Y-78342857D01*
X74823824Y-78438095D01*
X74758348Y-78580952D01*
X74115491Y-79152380D01*
X74734538Y-79152380D01*
X72596428Y-83613380D02*
X72834523Y-84613380D01*
X73025000Y-83899095D01*
X73215476Y-84613380D01*
X73453571Y-83613380D01*
X240190193Y-136254761D02*
X240327098Y-136302380D01*
X240565193Y-136302380D01*
X240666383Y-136254761D01*
X240719955Y-136207142D01*
X240779479Y-136111904D01*
X240791383Y-136016666D01*
X240755669Y-135921428D01*
X240714002Y-135873809D01*
X240624717Y-135826190D01*
X240440193Y-135778571D01*
X240350907Y-135730952D01*
X240309241Y-135683333D01*
X240273526Y-135588095D01*
X240285431Y-135492857D01*
X240344955Y-135397619D01*
X240398526Y-135350000D01*
X240499717Y-135302380D01*
X240737812Y-135302380D01*
X240874717Y-135350000D01*
X241214002Y-135302380D02*
X241327098Y-136302380D01*
X241606860Y-135588095D01*
X241708050Y-136302380D01*
X242071145Y-135302380D01*
X242928288Y-135302380D02*
X242452098Y-135302380D01*
X242344955Y-135778571D01*
X242398526Y-135730952D01*
X242499717Y-135683333D01*
X242737812Y-135683333D01*
X242827098Y-135730952D01*
X242868764Y-135778571D01*
X242904479Y-135873809D01*
X242874717Y-136111904D01*
X242815193Y-136207142D01*
X242761622Y-136254761D01*
X242660431Y-136302380D01*
X242422336Y-136302380D01*
X242333050Y-136254761D01*
X242291383Y-136207142D01*
X243594955Y-135302380D02*
X243690193Y-135302380D01*
X243779479Y-135350000D01*
X243821145Y-135397619D01*
X243856860Y-135492857D01*
X243880669Y-135683333D01*
X243850907Y-135921428D01*
X243779479Y-136111904D01*
X243719955Y-136207142D01*
X243666383Y-136254761D01*
X243565193Y-136302380D01*
X243469955Y-136302380D01*
X243380669Y-136254761D01*
X243339002Y-136207142D01*
X243303288Y-136111904D01*
X243279479Y-135921428D01*
X243309241Y-135683333D01*
X243380669Y-135492857D01*
X243440193Y-135397619D01*
X243493764Y-135350000D01*
X243594955Y-135302380D01*
X239736607Y-141239571D02*
X239403273Y-141239571D01*
X239403273Y-141763380D02*
X239403273Y-140763380D01*
X239879464Y-140763380D01*
X240260416Y-141096714D02*
X240260416Y-141763380D01*
X240260416Y-141191952D02*
X240308035Y-141144333D01*
X240403273Y-141096714D01*
X240546130Y-141096714D01*
X240641369Y-141144333D01*
X240688988Y-141239571D01*
X240688988Y-141763380D01*
X242450892Y-141763380D02*
X241879464Y-141763380D01*
X242165178Y-141763380D02*
X242165178Y-140763380D01*
X242069940Y-140906238D01*
X241974702Y-141001476D01*
X241879464Y-141049095D01*
X242879464Y-141668142D02*
X242927083Y-141715761D01*
X242879464Y-141763380D01*
X242831845Y-141715761D01*
X242879464Y-141668142D01*
X242879464Y-141763380D01*
X243308035Y-140858619D02*
X243355654Y-140811000D01*
X243450892Y-140763380D01*
X243688988Y-140763380D01*
X243784226Y-140811000D01*
X243831845Y-140858619D01*
X243879464Y-140953857D01*
X243879464Y-141049095D01*
X243831845Y-141191952D01*
X243260416Y-141763380D01*
X243879464Y-141763380D01*
X244784226Y-140763380D02*
X244308035Y-140763380D01*
X244260416Y-141239571D01*
X244308035Y-141191952D01*
X244403273Y-141144333D01*
X244641369Y-141144333D01*
X244736607Y-141191952D01*
X244784226Y-141239571D01*
X244831845Y-141334809D01*
X244831845Y-141572904D01*
X244784226Y-141668142D01*
X244736607Y-141715761D01*
X244641369Y-141763380D01*
X244403273Y-141763380D01*
X244308035Y-141715761D01*
X244260416Y-141668142D01*
X216377693Y-136254761D02*
X216514598Y-136302380D01*
X216752693Y-136302380D01*
X216853883Y-136254761D01*
X216907455Y-136207142D01*
X216966979Y-136111904D01*
X216978883Y-136016666D01*
X216943169Y-135921428D01*
X216901502Y-135873809D01*
X216812217Y-135826190D01*
X216627693Y-135778571D01*
X216538407Y-135730952D01*
X216496741Y-135683333D01*
X216461026Y-135588095D01*
X216472931Y-135492857D01*
X216532455Y-135397619D01*
X216586026Y-135350000D01*
X216687217Y-135302380D01*
X216925312Y-135302380D01*
X217062217Y-135350000D01*
X217401502Y-135302380D02*
X217514598Y-136302380D01*
X217794360Y-135588095D01*
X217895550Y-136302380D01*
X218258645Y-135302380D01*
X219026502Y-135635714D02*
X218943169Y-136302380D01*
X218836026Y-135254761D02*
X218508645Y-135969047D01*
X219127693Y-135969047D01*
X220068169Y-135302380D02*
X219591979Y-135302380D01*
X219484836Y-135778571D01*
X219538407Y-135730952D01*
X219639598Y-135683333D01*
X219877693Y-135683333D01*
X219966979Y-135730952D01*
X220008645Y-135778571D01*
X220044360Y-135873809D01*
X220014598Y-136111904D01*
X219955074Y-136207142D01*
X219901502Y-136254761D01*
X219800312Y-136302380D01*
X219562217Y-136302380D01*
X219472931Y-136254761D01*
X219431264Y-136207142D01*
X215447916Y-141477666D02*
X215924107Y-141477666D01*
X215352678Y-141763380D02*
X215686011Y-140763380D01*
X216019345Y-141763380D01*
X216495535Y-141763380D02*
X216400297Y-141715761D01*
X216352678Y-141620523D01*
X216352678Y-140763380D01*
X216733630Y-141096714D02*
X217114583Y-141096714D01*
X216876488Y-140763380D02*
X216876488Y-141620523D01*
X216924107Y-141715761D01*
X217019345Y-141763380D01*
X217114583Y-141763380D01*
X218733630Y-141763380D02*
X218162202Y-141763380D01*
X218447916Y-141763380D02*
X218447916Y-140763380D01*
X218352678Y-140906238D01*
X218257440Y-141001476D01*
X218162202Y-141049095D01*
X219162202Y-141668142D02*
X219209821Y-141715761D01*
X219162202Y-141763380D01*
X219114583Y-141715761D01*
X219162202Y-141668142D01*
X219162202Y-141763380D01*
X219590773Y-140858619D02*
X219638392Y-140811000D01*
X219733630Y-140763380D01*
X219971726Y-140763380D01*
X220066964Y-140811000D01*
X220114583Y-140858619D01*
X220162202Y-140953857D01*
X220162202Y-141049095D01*
X220114583Y-141191952D01*
X219543154Y-141763380D01*
X220162202Y-141763380D01*
X221066964Y-140763380D02*
X220590773Y-140763380D01*
X220543154Y-141239571D01*
X220590773Y-141191952D01*
X220686011Y-141144333D01*
X220924107Y-141144333D01*
X221019345Y-141191952D01*
X221066964Y-141239571D01*
X221114583Y-141334809D01*
X221114583Y-141572904D01*
X221066964Y-141668142D01*
X221019345Y-141715761D01*
X220924107Y-141763380D01*
X220686011Y-141763380D01*
X220590773Y-141715761D01*
X220543154Y-141668142D01*
X35878883Y-117204761D02*
X36015788Y-117252380D01*
X36253883Y-117252380D01*
X36355074Y-117204761D01*
X36408645Y-117157142D01*
X36468169Y-117061904D01*
X36480074Y-116966666D01*
X36444360Y-116871428D01*
X36402693Y-116823809D01*
X36313407Y-116776190D01*
X36128883Y-116728571D01*
X36039598Y-116680952D01*
X35997931Y-116633333D01*
X35962217Y-116538095D01*
X35974122Y-116442857D01*
X36033645Y-116347619D01*
X36087217Y-116300000D01*
X36188407Y-116252380D01*
X36426502Y-116252380D01*
X36563407Y-116300000D01*
X36902693Y-116252380D02*
X37015788Y-117252380D01*
X37295550Y-116538095D01*
X37396741Y-117252380D01*
X37759836Y-116252380D01*
X38527693Y-116585714D02*
X38444360Y-117252380D01*
X38337217Y-116204761D02*
X38009836Y-116919047D01*
X38628883Y-116919047D01*
X33711011Y-122329761D02*
X33853869Y-122377380D01*
X34091964Y-122377380D01*
X34187202Y-122329761D01*
X34234821Y-122282142D01*
X34282440Y-122186904D01*
X34282440Y-122091666D01*
X34234821Y-121996428D01*
X34187202Y-121948809D01*
X34091964Y-121901190D01*
X33901488Y-121853571D01*
X33806250Y-121805952D01*
X33758630Y-121758333D01*
X33711011Y-121663095D01*
X33711011Y-121567857D01*
X33758630Y-121472619D01*
X33806250Y-121425000D01*
X33901488Y-121377380D01*
X34139583Y-121377380D01*
X34282440Y-121425000D01*
X34711011Y-122377380D02*
X34711011Y-121377380D01*
X35139583Y-122377380D02*
X35139583Y-121853571D01*
X35091964Y-121758333D01*
X34996726Y-121710714D01*
X34853869Y-121710714D01*
X34758630Y-121758333D01*
X34711011Y-121805952D01*
X35615773Y-122377380D02*
X35615773Y-121710714D01*
X35615773Y-121377380D02*
X35568154Y-121425000D01*
X35615773Y-121472619D01*
X35663392Y-121425000D01*
X35615773Y-121377380D01*
X35615773Y-121472619D01*
X35949107Y-121710714D02*
X36330059Y-121710714D01*
X36091964Y-122377380D02*
X36091964Y-121520238D01*
X36139583Y-121425000D01*
X36234821Y-121377380D01*
X36330059Y-121377380D01*
X36520535Y-121710714D02*
X36901488Y-121710714D01*
X36663392Y-121377380D02*
X36663392Y-122234523D01*
X36711011Y-122329761D01*
X36806250Y-122377380D01*
X36901488Y-122377380D01*
X37949107Y-121472619D02*
X37996726Y-121425000D01*
X38091964Y-121377380D01*
X38330059Y-121377380D01*
X38425297Y-121425000D01*
X38472916Y-121472619D01*
X38520535Y-121567857D01*
X38520535Y-121663095D01*
X38472916Y-121805952D01*
X37901488Y-122377380D01*
X38520535Y-122377380D01*
X38949107Y-122282142D02*
X38996726Y-122329761D01*
X38949107Y-122377380D01*
X38901488Y-122329761D01*
X38949107Y-122282142D01*
X38949107Y-122377380D01*
X39377678Y-121472619D02*
X39425297Y-121425000D01*
X39520535Y-121377380D01*
X39758630Y-121377380D01*
X39853869Y-121425000D01*
X39901488Y-121472619D01*
X39949107Y-121567857D01*
X39949107Y-121663095D01*
X39901488Y-121805952D01*
X39330059Y-122377380D01*
X39949107Y-122377380D01*
X40853869Y-121377380D02*
X40377678Y-121377380D01*
X40330059Y-121853571D01*
X40377678Y-121805952D01*
X40472916Y-121758333D01*
X40711011Y-121758333D01*
X40806250Y-121805952D01*
X40853869Y-121853571D01*
X40901488Y-121948809D01*
X40901488Y-122186904D01*
X40853869Y-122282142D01*
X40806250Y-122329761D01*
X40711011Y-122377380D01*
X40472916Y-122377380D01*
X40377678Y-122329761D01*
X40330059Y-122282142D01*
X31116383Y-98154761D02*
X31253288Y-98202380D01*
X31491383Y-98202380D01*
X31592574Y-98154761D01*
X31646145Y-98107142D01*
X31705669Y-98011904D01*
X31717574Y-97916666D01*
X31681860Y-97821428D01*
X31640193Y-97773809D01*
X31550907Y-97726190D01*
X31366383Y-97678571D01*
X31277098Y-97630952D01*
X31235431Y-97583333D01*
X31199717Y-97488095D01*
X31211622Y-97392857D01*
X31271145Y-97297619D01*
X31324717Y-97250000D01*
X31425907Y-97202380D01*
X31664002Y-97202380D01*
X31800907Y-97250000D01*
X32140193Y-97202380D02*
X32253288Y-98202380D01*
X32533050Y-97488095D01*
X32634241Y-98202380D01*
X32997336Y-97202380D01*
X33283050Y-97202380D02*
X33902098Y-97202380D01*
X33521145Y-97583333D01*
X33664002Y-97583333D01*
X33753288Y-97630952D01*
X33794955Y-97678571D01*
X33830669Y-97773809D01*
X33800907Y-98011904D01*
X33741383Y-98107142D01*
X33687812Y-98154761D01*
X33586622Y-98202380D01*
X33300907Y-98202380D01*
X33211622Y-98154761D01*
X33169955Y-98107142D01*
X29496130Y-103568142D02*
X29448511Y-103615761D01*
X29305654Y-103663380D01*
X29210416Y-103663380D01*
X29067559Y-103615761D01*
X28972321Y-103520523D01*
X28924702Y-103425285D01*
X28877083Y-103234809D01*
X28877083Y-103091952D01*
X28924702Y-102901476D01*
X28972321Y-102806238D01*
X29067559Y-102711000D01*
X29210416Y-102663380D01*
X29305654Y-102663380D01*
X29448511Y-102711000D01*
X29496130Y-102758619D01*
X30353273Y-103663380D02*
X30353273Y-103139571D01*
X30305654Y-103044333D01*
X30210416Y-102996714D01*
X30019940Y-102996714D01*
X29924702Y-103044333D01*
X30353273Y-103615761D02*
X30258035Y-103663380D01*
X30019940Y-103663380D01*
X29924702Y-103615761D01*
X29877083Y-103520523D01*
X29877083Y-103425285D01*
X29924702Y-103330047D01*
X30019940Y-103282428D01*
X30258035Y-103282428D01*
X30353273Y-103234809D01*
X30829464Y-102996714D02*
X30829464Y-103996714D01*
X30829464Y-103044333D02*
X30924702Y-102996714D01*
X31115178Y-102996714D01*
X31210416Y-103044333D01*
X31258035Y-103091952D01*
X31305654Y-103187190D01*
X31305654Y-103472904D01*
X31258035Y-103568142D01*
X31210416Y-103615761D01*
X31115178Y-103663380D01*
X30924702Y-103663380D01*
X30829464Y-103615761D01*
X31686607Y-103615761D02*
X31781845Y-103663380D01*
X31972321Y-103663380D01*
X32067559Y-103615761D01*
X32115178Y-103520523D01*
X32115178Y-103472904D01*
X32067559Y-103377666D01*
X31972321Y-103330047D01*
X31829464Y-103330047D01*
X31734226Y-103282428D01*
X31686607Y-103187190D01*
X31686607Y-103139571D01*
X31734226Y-103044333D01*
X31829464Y-102996714D01*
X31972321Y-102996714D01*
X32067559Y-103044333D01*
X33829464Y-103663380D02*
X33258035Y-103663380D01*
X33543750Y-103663380D02*
X33543750Y-102663380D01*
X33448511Y-102806238D01*
X33353273Y-102901476D01*
X33258035Y-102949095D01*
X34258035Y-103568142D02*
X34305654Y-103615761D01*
X34258035Y-103663380D01*
X34210416Y-103615761D01*
X34258035Y-103568142D01*
X34258035Y-103663380D01*
X34638988Y-102663380D02*
X35305654Y-102663380D01*
X34877083Y-103663380D01*
X36162797Y-102663380D02*
X35686607Y-102663380D01*
X35638988Y-103139571D01*
X35686607Y-103091952D01*
X35781845Y-103044333D01*
X36019940Y-103044333D01*
X36115178Y-103091952D01*
X36162797Y-103139571D01*
X36210416Y-103234809D01*
X36210416Y-103472904D01*
X36162797Y-103568142D01*
X36115178Y-103615761D01*
X36019940Y-103663380D01*
X35781845Y-103663380D01*
X35686607Y-103615761D01*
X35638988Y-103568142D01*
X28735133Y-79104761D02*
X28872038Y-79152380D01*
X29110133Y-79152380D01*
X29211324Y-79104761D01*
X29264895Y-79057142D01*
X29324419Y-78961904D01*
X29336324Y-78866666D01*
X29300610Y-78771428D01*
X29258943Y-78723809D01*
X29169657Y-78676190D01*
X28985133Y-78628571D01*
X28895848Y-78580952D01*
X28854181Y-78533333D01*
X28818467Y-78438095D01*
X28830372Y-78342857D01*
X28889895Y-78247619D01*
X28943467Y-78200000D01*
X29044657Y-78152380D01*
X29282752Y-78152380D01*
X29419657Y-78200000D01*
X29758943Y-78152380D02*
X29872038Y-79152380D01*
X30151800Y-78438095D01*
X30252991Y-79152380D01*
X30616086Y-78152380D01*
X30937514Y-78247619D02*
X30991086Y-78200000D01*
X31092276Y-78152380D01*
X31330372Y-78152380D01*
X31419657Y-78200000D01*
X31461324Y-78247619D01*
X31497038Y-78342857D01*
X31485133Y-78438095D01*
X31419657Y-78580952D01*
X30776800Y-79152380D01*
X31395848Y-79152380D01*
X26924404Y-83613380D02*
X27495833Y-83613380D01*
X27210119Y-84613380D02*
X27210119Y-83613380D01*
X28257738Y-84613380D02*
X28257738Y-84089571D01*
X28210119Y-83994333D01*
X28114880Y-83946714D01*
X27924404Y-83946714D01*
X27829166Y-83994333D01*
X28257738Y-84565761D02*
X28162500Y-84613380D01*
X27924404Y-84613380D01*
X27829166Y-84565761D01*
X27781547Y-84470523D01*
X27781547Y-84375285D01*
X27829166Y-84280047D01*
X27924404Y-84232428D01*
X28162500Y-84232428D01*
X28257738Y-84184809D01*
X28733928Y-84613380D02*
X28733928Y-83613380D01*
X28733928Y-83994333D02*
X28829166Y-83946714D01*
X29019642Y-83946714D01*
X29114880Y-83994333D01*
X29162500Y-84041952D01*
X29210119Y-84137190D01*
X29210119Y-84422904D01*
X29162500Y-84518142D01*
X29114880Y-84565761D01*
X29019642Y-84613380D01*
X28829166Y-84613380D01*
X28733928Y-84565761D01*
X30924404Y-84613380D02*
X30352976Y-84613380D01*
X30638690Y-84613380D02*
X30638690Y-83613380D01*
X30543452Y-83756238D01*
X30448214Y-83851476D01*
X30352976Y-83899095D01*
X31352976Y-84518142D02*
X31400595Y-84565761D01*
X31352976Y-84613380D01*
X31305357Y-84565761D01*
X31352976Y-84518142D01*
X31352976Y-84613380D01*
X32305357Y-83613380D02*
X31829166Y-83613380D01*
X31781547Y-84089571D01*
X31829166Y-84041952D01*
X31924404Y-83994333D01*
X32162500Y-83994333D01*
X32257738Y-84041952D01*
X32305357Y-84089571D01*
X32352976Y-84184809D01*
X32352976Y-84422904D01*
X32305357Y-84518142D01*
X32257738Y-84565761D01*
X32162500Y-84613380D01*
X31924404Y-84613380D01*
X31829166Y-84565761D01*
X31781547Y-84518142D01*
X32972023Y-83613380D02*
X33067261Y-83613380D01*
X33162500Y-83661000D01*
X33210119Y-83708619D01*
X33257738Y-83803857D01*
X33305357Y-83994333D01*
X33305357Y-84232428D01*
X33257738Y-84422904D01*
X33210119Y-84518142D01*
X33162500Y-84565761D01*
X33067261Y-84613380D01*
X32972023Y-84613380D01*
X32876785Y-84565761D01*
X32829166Y-84518142D01*
X32781547Y-84422904D01*
X32733928Y-84232428D01*
X32733928Y-83994333D01*
X32781547Y-83803857D01*
X32829166Y-83708619D01*
X32876785Y-83661000D01*
X32972023Y-83613380D01*
X23972633Y-60054761D02*
X24109538Y-60102380D01*
X24347633Y-60102380D01*
X24448824Y-60054761D01*
X24502395Y-60007142D01*
X24561919Y-59911904D01*
X24573824Y-59816666D01*
X24538110Y-59721428D01*
X24496443Y-59673809D01*
X24407157Y-59626190D01*
X24222633Y-59578571D01*
X24133348Y-59530952D01*
X24091681Y-59483333D01*
X24055967Y-59388095D01*
X24067872Y-59292857D01*
X24127395Y-59197619D01*
X24180967Y-59150000D01*
X24282157Y-59102380D01*
X24520252Y-59102380D01*
X24657157Y-59150000D01*
X24996443Y-59102380D02*
X25109538Y-60102380D01*
X25389300Y-59388095D01*
X25490491Y-60102380D01*
X25853586Y-59102380D01*
X26633348Y-60102380D02*
X26061919Y-60102380D01*
X26347633Y-60102380D02*
X26472633Y-59102380D01*
X26359538Y-59245238D01*
X26252395Y-59340476D01*
X26151205Y-59388095D01*
X24352380Y-65039571D02*
X24685714Y-65039571D01*
X24828571Y-65563380D02*
X24352380Y-65563380D01*
X24352380Y-64563380D01*
X24828571Y-64563380D01*
X25209523Y-65515761D02*
X25304761Y-65563380D01*
X25495238Y-65563380D01*
X25590476Y-65515761D01*
X25638095Y-65420523D01*
X25638095Y-65372904D01*
X25590476Y-65277666D01*
X25495238Y-65230047D01*
X25352380Y-65230047D01*
X25257142Y-65182428D01*
X25209523Y-65087190D01*
X25209523Y-65039571D01*
X25257142Y-64944333D01*
X25352380Y-64896714D01*
X25495238Y-64896714D01*
X25590476Y-64944333D01*
X26495238Y-65515761D02*
X26400000Y-65563380D01*
X26209523Y-65563380D01*
X26114285Y-65515761D01*
X26066666Y-65468142D01*
X26019047Y-65372904D01*
X26019047Y-65087190D01*
X26066666Y-64991952D01*
X26114285Y-64944333D01*
X26209523Y-64896714D01*
X26400000Y-64896714D01*
X26495238Y-64944333D01*
X171133943Y-98154761D02*
X171270848Y-98202380D01*
X171508943Y-98202380D01*
X171610133Y-98154761D01*
X171663705Y-98107142D01*
X171723229Y-98011904D01*
X171735133Y-97916666D01*
X171699419Y-97821428D01*
X171657752Y-97773809D01*
X171568467Y-97726190D01*
X171383943Y-97678571D01*
X171294657Y-97630952D01*
X171252991Y-97583333D01*
X171217276Y-97488095D01*
X171229181Y-97392857D01*
X171288705Y-97297619D01*
X171342276Y-97250000D01*
X171443467Y-97202380D01*
X171681562Y-97202380D01*
X171818467Y-97250000D01*
X172157752Y-97202380D02*
X172270848Y-98202380D01*
X172550610Y-97488095D01*
X172651800Y-98202380D01*
X173014895Y-97202380D01*
X173300610Y-97202380D02*
X173919657Y-97202380D01*
X173538705Y-97583333D01*
X173681562Y-97583333D01*
X173770848Y-97630952D01*
X173812514Y-97678571D01*
X173848229Y-97773809D01*
X173818467Y-98011904D01*
X173758943Y-98107142D01*
X173705372Y-98154761D01*
X173604181Y-98202380D01*
X173318467Y-98202380D01*
X173229181Y-98154761D01*
X173187514Y-98107142D01*
X174824419Y-97202380D02*
X174348229Y-97202380D01*
X174241086Y-97678571D01*
X174294657Y-97630952D01*
X174395848Y-97583333D01*
X174633943Y-97583333D01*
X174723229Y-97630952D01*
X174764895Y-97678571D01*
X174800610Y-97773809D01*
X174770848Y-98011904D01*
X174711324Y-98107142D01*
X174657752Y-98154761D01*
X174556562Y-98202380D01*
X174318467Y-98202380D01*
X174229181Y-98154761D01*
X174187514Y-98107142D01*
X173180357Y-102663380D02*
X173180357Y-103377666D01*
X173132738Y-103520523D01*
X173037500Y-103615761D01*
X172894642Y-103663380D01*
X172799404Y-103663380D01*
X147321443Y-79104761D02*
X147458348Y-79152380D01*
X147696443Y-79152380D01*
X147797633Y-79104761D01*
X147851205Y-79057142D01*
X147910729Y-78961904D01*
X147922633Y-78866666D01*
X147886919Y-78771428D01*
X147845252Y-78723809D01*
X147755967Y-78676190D01*
X147571443Y-78628571D01*
X147482157Y-78580952D01*
X147440491Y-78533333D01*
X147404776Y-78438095D01*
X147416681Y-78342857D01*
X147476205Y-78247619D01*
X147529776Y-78200000D01*
X147630967Y-78152380D01*
X147869062Y-78152380D01*
X148005967Y-78200000D01*
X148345252Y-78152380D02*
X148458348Y-79152380D01*
X148738110Y-78438095D01*
X148839300Y-79152380D01*
X149202395Y-78152380D01*
X149488110Y-78152380D02*
X150107157Y-78152380D01*
X149726205Y-78533333D01*
X149869062Y-78533333D01*
X149958348Y-78580952D01*
X150000014Y-78628571D01*
X150035729Y-78723809D01*
X150005967Y-78961904D01*
X149946443Y-79057142D01*
X149892872Y-79104761D01*
X149791681Y-79152380D01*
X149505967Y-79152380D01*
X149416681Y-79104761D01*
X149375014Y-79057142D01*
X150726205Y-78152380D02*
X150821443Y-78152380D01*
X150910729Y-78200000D01*
X150952395Y-78247619D01*
X150988110Y-78342857D01*
X151011919Y-78533333D01*
X150982157Y-78771428D01*
X150910729Y-78961904D01*
X150851205Y-79057142D01*
X150797633Y-79104761D01*
X150696443Y-79152380D01*
X150601205Y-79152380D01*
X150511919Y-79104761D01*
X150470252Y-79057142D01*
X150434538Y-78961904D01*
X150410729Y-78771428D01*
X150440491Y-78533333D01*
X150511919Y-78342857D01*
X150571443Y-78247619D01*
X150625014Y-78200000D01*
X150726205Y-78152380D01*
X149225000Y-84137190D02*
X149225000Y-84613380D01*
X148891666Y-83613380D02*
X149225000Y-84137190D01*
X149558333Y-83613380D01*
X152083943Y-98154761D02*
X152220848Y-98202380D01*
X152458943Y-98202380D01*
X152560133Y-98154761D01*
X152613705Y-98107142D01*
X152673229Y-98011904D01*
X152685133Y-97916666D01*
X152649419Y-97821428D01*
X152607752Y-97773809D01*
X152518467Y-97726190D01*
X152333943Y-97678571D01*
X152244657Y-97630952D01*
X152202991Y-97583333D01*
X152167276Y-97488095D01*
X152179181Y-97392857D01*
X152238705Y-97297619D01*
X152292276Y-97250000D01*
X152393467Y-97202380D01*
X152631562Y-97202380D01*
X152768467Y-97250000D01*
X153107752Y-97202380D02*
X153220848Y-98202380D01*
X153500610Y-97488095D01*
X153601800Y-98202380D01*
X153964895Y-97202380D01*
X154250610Y-97202380D02*
X154869657Y-97202380D01*
X154488705Y-97583333D01*
X154631562Y-97583333D01*
X154720848Y-97630952D01*
X154762514Y-97678571D01*
X154798229Y-97773809D01*
X154768467Y-98011904D01*
X154708943Y-98107142D01*
X154655372Y-98154761D01*
X154554181Y-98202380D01*
X154268467Y-98202380D01*
X154179181Y-98154761D01*
X154137514Y-98107142D01*
X155697038Y-98202380D02*
X155125610Y-98202380D01*
X155411324Y-98202380D02*
X155536324Y-97202380D01*
X155423229Y-97345238D01*
X155316086Y-97440476D01*
X155214895Y-97488095D01*
X153701785Y-103663380D02*
X153701785Y-102663380D01*
X153701785Y-103139571D02*
X154273214Y-103139571D01*
X154273214Y-103663380D02*
X154273214Y-102663380D01*
X228283943Y-98154761D02*
X228420848Y-98202380D01*
X228658943Y-98202380D01*
X228760133Y-98154761D01*
X228813705Y-98107142D01*
X228873229Y-98011904D01*
X228885133Y-97916666D01*
X228849419Y-97821428D01*
X228807752Y-97773809D01*
X228718467Y-97726190D01*
X228533943Y-97678571D01*
X228444657Y-97630952D01*
X228402991Y-97583333D01*
X228367276Y-97488095D01*
X228379181Y-97392857D01*
X228438705Y-97297619D01*
X228492276Y-97250000D01*
X228593467Y-97202380D01*
X228831562Y-97202380D01*
X228968467Y-97250000D01*
X229307752Y-97202380D02*
X229420848Y-98202380D01*
X229700610Y-97488095D01*
X229801800Y-98202380D01*
X230164895Y-97202380D01*
X230932752Y-97535714D02*
X230849419Y-98202380D01*
X230742276Y-97154761D02*
X230414895Y-97869047D01*
X231033943Y-97869047D01*
X231587514Y-97630952D02*
X231498229Y-97583333D01*
X231456562Y-97535714D01*
X231420848Y-97440476D01*
X231426800Y-97392857D01*
X231486324Y-97297619D01*
X231539895Y-97250000D01*
X231641086Y-97202380D01*
X231831562Y-97202380D01*
X231920848Y-97250000D01*
X231962514Y-97297619D01*
X231998229Y-97392857D01*
X231992276Y-97440476D01*
X231932752Y-97535714D01*
X231879181Y-97583333D01*
X231777991Y-97630952D01*
X231587514Y-97630952D01*
X231486324Y-97678571D01*
X231432752Y-97726190D01*
X231373229Y-97821428D01*
X231349419Y-98011904D01*
X231385133Y-98107142D01*
X231426800Y-98154761D01*
X231516086Y-98202380D01*
X231706562Y-98202380D01*
X231807752Y-98154761D01*
X231861324Y-98107142D01*
X231920848Y-98011904D01*
X231944657Y-97821428D01*
X231908943Y-97726190D01*
X231867276Y-97678571D01*
X231777991Y-97630952D01*
X230235119Y-103615761D02*
X230235119Y-103663380D01*
X230187500Y-103758619D01*
X230139880Y-103806238D01*
X230187500Y-103044333D02*
X230235119Y-103091952D01*
X230187500Y-103139571D01*
X230139880Y-103091952D01*
X230187500Y-103044333D01*
X230187500Y-103139571D01*
X309246443Y-79104761D02*
X309383348Y-79152380D01*
X309621443Y-79152380D01*
X309722633Y-79104761D01*
X309776205Y-79057142D01*
X309835729Y-78961904D01*
X309847633Y-78866666D01*
X309811919Y-78771428D01*
X309770252Y-78723809D01*
X309680967Y-78676190D01*
X309496443Y-78628571D01*
X309407157Y-78580952D01*
X309365491Y-78533333D01*
X309329776Y-78438095D01*
X309341681Y-78342857D01*
X309401205Y-78247619D01*
X309454776Y-78200000D01*
X309555967Y-78152380D01*
X309794062Y-78152380D01*
X309930967Y-78200000D01*
X310270252Y-78152380D02*
X310383348Y-79152380D01*
X310663110Y-78438095D01*
X310764300Y-79152380D01*
X311127395Y-78152380D01*
X311936919Y-78152380D02*
X311746443Y-78152380D01*
X311645252Y-78200000D01*
X311591681Y-78247619D01*
X311478586Y-78390476D01*
X311407157Y-78580952D01*
X311359538Y-78961904D01*
X311395252Y-79057142D01*
X311436919Y-79104761D01*
X311526205Y-79152380D01*
X311716681Y-79152380D01*
X311817872Y-79104761D01*
X311871443Y-79057142D01*
X311930967Y-78961904D01*
X311960729Y-78723809D01*
X311925014Y-78628571D01*
X311883348Y-78580952D01*
X311794062Y-78533333D01*
X311603586Y-78533333D01*
X311502395Y-78580952D01*
X311448824Y-78628571D01*
X311389300Y-78723809D01*
X312365491Y-78152380D02*
X313032157Y-78152380D01*
X312478586Y-79152380D01*
X310197619Y-84613380D02*
X310197619Y-83613380D01*
X310435714Y-83613380D01*
X310578571Y-83661000D01*
X310673809Y-83756238D01*
X310721428Y-83851476D01*
X310769047Y-84041952D01*
X310769047Y-84184809D01*
X310721428Y-84375285D01*
X310673809Y-84470523D01*
X310578571Y-84565761D01*
X310435714Y-84613380D01*
X310197619Y-84613380D01*
X311578571Y-84565761D02*
X311483333Y-84613380D01*
X311292857Y-84613380D01*
X311197619Y-84565761D01*
X311150000Y-84470523D01*
X311150000Y-84089571D01*
X311197619Y-83994333D01*
X311292857Y-83946714D01*
X311483333Y-83946714D01*
X311578571Y-83994333D01*
X311626190Y-84089571D01*
X311626190Y-84184809D01*
X311150000Y-84280047D01*
X312197619Y-84613380D02*
X312102380Y-84565761D01*
X312054761Y-84470523D01*
X312054761Y-83613380D01*
X309246443Y-136254761D02*
X309383348Y-136302380D01*
X309621443Y-136302380D01*
X309722633Y-136254761D01*
X309776205Y-136207142D01*
X309835729Y-136111904D01*
X309847633Y-136016666D01*
X309811919Y-135921428D01*
X309770252Y-135873809D01*
X309680967Y-135826190D01*
X309496443Y-135778571D01*
X309407157Y-135730952D01*
X309365491Y-135683333D01*
X309329776Y-135588095D01*
X309341681Y-135492857D01*
X309401205Y-135397619D01*
X309454776Y-135350000D01*
X309555967Y-135302380D01*
X309794062Y-135302380D01*
X309930967Y-135350000D01*
X310270252Y-135302380D02*
X310383348Y-136302380D01*
X310663110Y-135588095D01*
X310764300Y-136302380D01*
X311127395Y-135302380D01*
X311936919Y-135302380D02*
X311746443Y-135302380D01*
X311645252Y-135350000D01*
X311591681Y-135397619D01*
X311478586Y-135540476D01*
X311407157Y-135730952D01*
X311359538Y-136111904D01*
X311395252Y-136207142D01*
X311436919Y-136254761D01*
X311526205Y-136302380D01*
X311716681Y-136302380D01*
X311817872Y-136254761D01*
X311871443Y-136207142D01*
X311930967Y-136111904D01*
X311960729Y-135873809D01*
X311925014Y-135778571D01*
X311883348Y-135730952D01*
X311794062Y-135683333D01*
X311603586Y-135683333D01*
X311502395Y-135730952D01*
X311448824Y-135778571D01*
X311389300Y-135873809D01*
X312936919Y-135302380D02*
X312460729Y-135302380D01*
X312353586Y-135778571D01*
X312407157Y-135730952D01*
X312508348Y-135683333D01*
X312746443Y-135683333D01*
X312835729Y-135730952D01*
X312877395Y-135778571D01*
X312913110Y-135873809D01*
X312883348Y-136111904D01*
X312823824Y-136207142D01*
X312770252Y-136254761D01*
X312669062Y-136302380D01*
X312430967Y-136302380D01*
X312341681Y-136254761D01*
X312300014Y-136207142D01*
X307626190Y-141763380D02*
X307292857Y-141287190D01*
X307054761Y-141763380D02*
X307054761Y-140763380D01*
X307435714Y-140763380D01*
X307530952Y-140811000D01*
X307578571Y-140858619D01*
X307626190Y-140953857D01*
X307626190Y-141096714D01*
X307578571Y-141191952D01*
X307530952Y-141239571D01*
X307435714Y-141287190D01*
X307054761Y-141287190D01*
X308054761Y-141763380D02*
X308054761Y-141096714D01*
X308054761Y-140763380D02*
X308007142Y-140811000D01*
X308054761Y-140858619D01*
X308102380Y-140811000D01*
X308054761Y-140763380D01*
X308054761Y-140858619D01*
X308959523Y-141096714D02*
X308959523Y-141906238D01*
X308911904Y-142001476D01*
X308864285Y-142049095D01*
X308769047Y-142096714D01*
X308626190Y-142096714D01*
X308530952Y-142049095D01*
X308959523Y-141715761D02*
X308864285Y-141763380D01*
X308673809Y-141763380D01*
X308578571Y-141715761D01*
X308530952Y-141668142D01*
X308483333Y-141572904D01*
X308483333Y-141287190D01*
X308530952Y-141191952D01*
X308578571Y-141144333D01*
X308673809Y-141096714D01*
X308864285Y-141096714D01*
X308959523Y-141144333D01*
X309435714Y-141763380D02*
X309435714Y-140763380D01*
X309864285Y-141763380D02*
X309864285Y-141239571D01*
X309816666Y-141144333D01*
X309721428Y-141096714D01*
X309578571Y-141096714D01*
X309483333Y-141144333D01*
X309435714Y-141191952D01*
X310197619Y-141096714D02*
X310578571Y-141096714D01*
X310340476Y-140763380D02*
X310340476Y-141620523D01*
X310388095Y-141715761D01*
X310483333Y-141763380D01*
X310578571Y-141763380D01*
X311626190Y-141477666D02*
X312102380Y-141477666D01*
X311530952Y-141763380D02*
X311864285Y-140763380D01*
X312197619Y-141763380D01*
X312530952Y-141763380D02*
X312530952Y-141096714D01*
X312530952Y-141287190D02*
X312578571Y-141191952D01*
X312626190Y-141144333D01*
X312721428Y-141096714D01*
X312816666Y-141096714D01*
X313150000Y-141763380D02*
X313150000Y-141096714D01*
X313150000Y-141287190D02*
X313197619Y-141191952D01*
X313245238Y-141144333D01*
X313340476Y-141096714D01*
X313435714Y-141096714D01*
X313911904Y-141763380D02*
X313816666Y-141715761D01*
X313769047Y-141668142D01*
X313721428Y-141572904D01*
X313721428Y-141287190D01*
X313769047Y-141191952D01*
X313816666Y-141144333D01*
X313911904Y-141096714D01*
X314054761Y-141096714D01*
X314150000Y-141144333D01*
X314197619Y-141191952D01*
X314245238Y-141287190D01*
X314245238Y-141572904D01*
X314197619Y-141668142D01*
X314150000Y-141715761D01*
X314054761Y-141763380D01*
X313911904Y-141763380D01*
X314578571Y-141096714D02*
X314769047Y-141763380D01*
X314959523Y-141287190D01*
X315150000Y-141763380D01*
X315340476Y-141096714D01*
X309246443Y-117204761D02*
X309383348Y-117252380D01*
X309621443Y-117252380D01*
X309722633Y-117204761D01*
X309776205Y-117157142D01*
X309835729Y-117061904D01*
X309847633Y-116966666D01*
X309811919Y-116871428D01*
X309770252Y-116823809D01*
X309680967Y-116776190D01*
X309496443Y-116728571D01*
X309407157Y-116680952D01*
X309365491Y-116633333D01*
X309329776Y-116538095D01*
X309341681Y-116442857D01*
X309401205Y-116347619D01*
X309454776Y-116300000D01*
X309555967Y-116252380D01*
X309794062Y-116252380D01*
X309930967Y-116300000D01*
X310270252Y-116252380D02*
X310383348Y-117252380D01*
X310663110Y-116538095D01*
X310764300Y-117252380D01*
X311127395Y-116252380D01*
X311936919Y-116252380D02*
X311746443Y-116252380D01*
X311645252Y-116300000D01*
X311591681Y-116347619D01*
X311478586Y-116490476D01*
X311407157Y-116680952D01*
X311359538Y-117061904D01*
X311395252Y-117157142D01*
X311436919Y-117204761D01*
X311526205Y-117252380D01*
X311716681Y-117252380D01*
X311817872Y-117204761D01*
X311871443Y-117157142D01*
X311930967Y-117061904D01*
X311960729Y-116823809D01*
X311925014Y-116728571D01*
X311883348Y-116680952D01*
X311794062Y-116633333D01*
X311603586Y-116633333D01*
X311502395Y-116680952D01*
X311448824Y-116728571D01*
X311389300Y-116823809D01*
X312847633Y-116585714D02*
X312764300Y-117252380D01*
X312657157Y-116204761D02*
X312329776Y-116919047D01*
X312948824Y-116919047D01*
X308126190Y-122713380D02*
X308126190Y-121713380D01*
X308507142Y-121713380D01*
X308602380Y-121761000D01*
X308650000Y-121808619D01*
X308697619Y-121903857D01*
X308697619Y-122046714D01*
X308650000Y-122141952D01*
X308602380Y-122189571D01*
X308507142Y-122237190D01*
X308126190Y-122237190D01*
X309554761Y-122046714D02*
X309554761Y-122856238D01*
X309507142Y-122951476D01*
X309459523Y-122999095D01*
X309364285Y-123046714D01*
X309221428Y-123046714D01*
X309126190Y-122999095D01*
X309554761Y-122665761D02*
X309459523Y-122713380D01*
X309269047Y-122713380D01*
X309173809Y-122665761D01*
X309126190Y-122618142D01*
X309078571Y-122522904D01*
X309078571Y-122237190D01*
X309126190Y-122141952D01*
X309173809Y-122094333D01*
X309269047Y-122046714D01*
X309459523Y-122046714D01*
X309554761Y-122094333D01*
X310792857Y-122713380D02*
X310792857Y-121713380D01*
X311030952Y-121713380D01*
X311173809Y-121761000D01*
X311269047Y-121856238D01*
X311316666Y-121951476D01*
X311364285Y-122141952D01*
X311364285Y-122284809D01*
X311316666Y-122475285D01*
X311269047Y-122570523D01*
X311173809Y-122665761D01*
X311030952Y-122713380D01*
X310792857Y-122713380D01*
X311935714Y-122713380D02*
X311840476Y-122665761D01*
X311792857Y-122618142D01*
X311745238Y-122522904D01*
X311745238Y-122237190D01*
X311792857Y-122141952D01*
X311840476Y-122094333D01*
X311935714Y-122046714D01*
X312078571Y-122046714D01*
X312173809Y-122094333D01*
X312221428Y-122141952D01*
X312269047Y-122237190D01*
X312269047Y-122522904D01*
X312221428Y-122618142D01*
X312173809Y-122665761D01*
X312078571Y-122713380D01*
X311935714Y-122713380D01*
X312602380Y-122046714D02*
X312792857Y-122713380D01*
X312983333Y-122237190D01*
X313173809Y-122713380D01*
X313364285Y-122046714D01*
X313745238Y-122046714D02*
X313745238Y-122713380D01*
X313745238Y-122141952D02*
X313792857Y-122094333D01*
X313888095Y-122046714D01*
X314030952Y-122046714D01*
X314126190Y-122094333D01*
X314173809Y-122189571D01*
X314173809Y-122713380D01*
X309246443Y-98154761D02*
X309383348Y-98202380D01*
X309621443Y-98202380D01*
X309722633Y-98154761D01*
X309776205Y-98107142D01*
X309835729Y-98011904D01*
X309847633Y-97916666D01*
X309811919Y-97821428D01*
X309770252Y-97773809D01*
X309680967Y-97726190D01*
X309496443Y-97678571D01*
X309407157Y-97630952D01*
X309365491Y-97583333D01*
X309329776Y-97488095D01*
X309341681Y-97392857D01*
X309401205Y-97297619D01*
X309454776Y-97250000D01*
X309555967Y-97202380D01*
X309794062Y-97202380D01*
X309930967Y-97250000D01*
X310270252Y-97202380D02*
X310383348Y-98202380D01*
X310663110Y-97488095D01*
X310764300Y-98202380D01*
X311127395Y-97202380D01*
X311936919Y-97202380D02*
X311746443Y-97202380D01*
X311645252Y-97250000D01*
X311591681Y-97297619D01*
X311478586Y-97440476D01*
X311407157Y-97630952D01*
X311359538Y-98011904D01*
X311395252Y-98107142D01*
X311436919Y-98154761D01*
X311526205Y-98202380D01*
X311716681Y-98202380D01*
X311817872Y-98154761D01*
X311871443Y-98107142D01*
X311930967Y-98011904D01*
X311960729Y-97773809D01*
X311925014Y-97678571D01*
X311883348Y-97630952D01*
X311794062Y-97583333D01*
X311603586Y-97583333D01*
X311502395Y-97630952D01*
X311448824Y-97678571D01*
X311389300Y-97773809D01*
X312365491Y-97202380D02*
X312984538Y-97202380D01*
X312603586Y-97583333D01*
X312746443Y-97583333D01*
X312835729Y-97630952D01*
X312877395Y-97678571D01*
X312913110Y-97773809D01*
X312883348Y-98011904D01*
X312823824Y-98107142D01*
X312770252Y-98154761D01*
X312669062Y-98202380D01*
X312383348Y-98202380D01*
X312294062Y-98154761D01*
X312252395Y-98107142D01*
X309078571Y-103663380D02*
X309078571Y-102663380D01*
X309459523Y-102663380D01*
X309554761Y-102711000D01*
X309602380Y-102758619D01*
X309650000Y-102853857D01*
X309650000Y-102996714D01*
X309602380Y-103091952D01*
X309554761Y-103139571D01*
X309459523Y-103187190D01*
X309078571Y-103187190D01*
X310507142Y-102996714D02*
X310507142Y-103806238D01*
X310459523Y-103901476D01*
X310411904Y-103949095D01*
X310316666Y-103996714D01*
X310173809Y-103996714D01*
X310078571Y-103949095D01*
X310507142Y-103615761D02*
X310411904Y-103663380D01*
X310221428Y-103663380D01*
X310126190Y-103615761D01*
X310078571Y-103568142D01*
X310030952Y-103472904D01*
X310030952Y-103187190D01*
X310078571Y-103091952D01*
X310126190Y-103044333D01*
X310221428Y-102996714D01*
X310411904Y-102996714D01*
X310507142Y-103044333D01*
X311745238Y-102663380D02*
X311745238Y-103472904D01*
X311792857Y-103568142D01*
X311840476Y-103615761D01*
X311935714Y-103663380D01*
X312126190Y-103663380D01*
X312221428Y-103615761D01*
X312269047Y-103568142D01*
X312316666Y-103472904D01*
X312316666Y-102663380D01*
X312792857Y-102996714D02*
X312792857Y-103996714D01*
X312792857Y-103044333D02*
X312888095Y-102996714D01*
X313078571Y-102996714D01*
X313173809Y-103044333D01*
X313221428Y-103091952D01*
X313269047Y-103187190D01*
X313269047Y-103472904D01*
X313221428Y-103568142D01*
X313173809Y-103615761D01*
X313078571Y-103663380D01*
X312888095Y-103663380D01*
X312792857Y-103615761D01*
X285433943Y-79104761D02*
X285570848Y-79152380D01*
X285808943Y-79152380D01*
X285910133Y-79104761D01*
X285963705Y-79057142D01*
X286023229Y-78961904D01*
X286035133Y-78866666D01*
X285999419Y-78771428D01*
X285957752Y-78723809D01*
X285868467Y-78676190D01*
X285683943Y-78628571D01*
X285594657Y-78580952D01*
X285552991Y-78533333D01*
X285517276Y-78438095D01*
X285529181Y-78342857D01*
X285588705Y-78247619D01*
X285642276Y-78200000D01*
X285743467Y-78152380D01*
X285981562Y-78152380D01*
X286118467Y-78200000D01*
X286457752Y-78152380D02*
X286570848Y-79152380D01*
X286850610Y-78438095D01*
X286951800Y-79152380D01*
X287314895Y-78152380D01*
X288124419Y-78152380D02*
X287933943Y-78152380D01*
X287832752Y-78200000D01*
X287779181Y-78247619D01*
X287666086Y-78390476D01*
X287594657Y-78580952D01*
X287547038Y-78961904D01*
X287582752Y-79057142D01*
X287624419Y-79104761D01*
X287713705Y-79152380D01*
X287904181Y-79152380D01*
X288005372Y-79104761D01*
X288058943Y-79057142D01*
X288118467Y-78961904D01*
X288148229Y-78723809D01*
X288112514Y-78628571D01*
X288070848Y-78580952D01*
X287981562Y-78533333D01*
X287791086Y-78533333D01*
X287689895Y-78580952D01*
X287636324Y-78628571D01*
X287576800Y-78723809D01*
X288588705Y-78247619D02*
X288642276Y-78200000D01*
X288743467Y-78152380D01*
X288981562Y-78152380D01*
X289070848Y-78200000D01*
X289112514Y-78247619D01*
X289148229Y-78342857D01*
X289136324Y-78438095D01*
X289070848Y-78580952D01*
X288427991Y-79152380D01*
X289047038Y-79152380D01*
X284861309Y-83518142D02*
X285718452Y-84803857D01*
X287147023Y-84613380D02*
X286575595Y-84613380D01*
X286861309Y-84613380D02*
X286861309Y-83613380D01*
X286766071Y-83756238D01*
X286670833Y-83851476D01*
X286575595Y-83899095D01*
X287575595Y-84518142D02*
X287623214Y-84565761D01*
X287575595Y-84613380D01*
X287527976Y-84565761D01*
X287575595Y-84518142D01*
X287575595Y-84613380D01*
X288527976Y-83613380D02*
X288051785Y-83613380D01*
X288004166Y-84089571D01*
X288051785Y-84041952D01*
X288147023Y-83994333D01*
X288385119Y-83994333D01*
X288480357Y-84041952D01*
X288527976Y-84089571D01*
X288575595Y-84184809D01*
X288575595Y-84422904D01*
X288527976Y-84518142D01*
X288480357Y-84565761D01*
X288385119Y-84613380D01*
X288147023Y-84613380D01*
X288051785Y-84565761D01*
X288004166Y-84518142D01*
X289194642Y-83613380D02*
X289289880Y-83613380D01*
X289385119Y-83661000D01*
X289432738Y-83708619D01*
X289480357Y-83803857D01*
X289527976Y-83994333D01*
X289527976Y-84232428D01*
X289480357Y-84422904D01*
X289432738Y-84518142D01*
X289385119Y-84565761D01*
X289289880Y-84613380D01*
X289194642Y-84613380D01*
X289099404Y-84565761D01*
X289051785Y-84518142D01*
X289004166Y-84422904D01*
X288956547Y-84232428D01*
X288956547Y-83994333D01*
X289004166Y-83803857D01*
X289051785Y-83708619D01*
X289099404Y-83661000D01*
X289194642Y-83613380D01*
X280671443Y-60054761D02*
X280808348Y-60102380D01*
X281046443Y-60102380D01*
X281147633Y-60054761D01*
X281201205Y-60007142D01*
X281260729Y-59911904D01*
X281272633Y-59816666D01*
X281236919Y-59721428D01*
X281195252Y-59673809D01*
X281105967Y-59626190D01*
X280921443Y-59578571D01*
X280832157Y-59530952D01*
X280790491Y-59483333D01*
X280754776Y-59388095D01*
X280766681Y-59292857D01*
X280826205Y-59197619D01*
X280879776Y-59150000D01*
X280980967Y-59102380D01*
X281219062Y-59102380D01*
X281355967Y-59150000D01*
X281695252Y-59102380D02*
X281808348Y-60102380D01*
X282088110Y-59388095D01*
X282189300Y-60102380D01*
X282552395Y-59102380D01*
X283361919Y-59102380D02*
X283171443Y-59102380D01*
X283070252Y-59150000D01*
X283016681Y-59197619D01*
X282903586Y-59340476D01*
X282832157Y-59530952D01*
X282784538Y-59911904D01*
X282820252Y-60007142D01*
X282861919Y-60054761D01*
X282951205Y-60102380D01*
X283141681Y-60102380D01*
X283242872Y-60054761D01*
X283296443Y-60007142D01*
X283355967Y-59911904D01*
X283385729Y-59673809D01*
X283350014Y-59578571D01*
X283308348Y-59530952D01*
X283219062Y-59483333D01*
X283028586Y-59483333D01*
X282927395Y-59530952D01*
X282873824Y-59578571D01*
X282814300Y-59673809D01*
X284284538Y-60102380D02*
X283713110Y-60102380D01*
X283998824Y-60102380D02*
X284123824Y-59102380D01*
X284010729Y-59245238D01*
X283903586Y-59340476D01*
X283802395Y-59388095D01*
X279313095Y-64603571D02*
X279455952Y-64651190D01*
X279503571Y-64698809D01*
X279551190Y-64794047D01*
X279551190Y-64936904D01*
X279503571Y-65032142D01*
X279455952Y-65079761D01*
X279360714Y-65127380D01*
X278979761Y-65127380D01*
X278979761Y-64127380D01*
X279313095Y-64127380D01*
X279408333Y-64175000D01*
X279455952Y-64222619D01*
X279503571Y-64317857D01*
X279503571Y-64413095D01*
X279455952Y-64508333D01*
X279408333Y-64555952D01*
X279313095Y-64603571D01*
X278979761Y-64603571D01*
X280408333Y-65127380D02*
X280408333Y-64603571D01*
X280360714Y-64508333D01*
X280265476Y-64460714D01*
X280075000Y-64460714D01*
X279979761Y-64508333D01*
X280408333Y-65079761D02*
X280313095Y-65127380D01*
X280075000Y-65127380D01*
X279979761Y-65079761D01*
X279932142Y-64984523D01*
X279932142Y-64889285D01*
X279979761Y-64794047D01*
X280075000Y-64746428D01*
X280313095Y-64746428D01*
X280408333Y-64698809D01*
X281313095Y-65079761D02*
X281217857Y-65127380D01*
X281027380Y-65127380D01*
X280932142Y-65079761D01*
X280884523Y-65032142D01*
X280836904Y-64936904D01*
X280836904Y-64651190D01*
X280884523Y-64555952D01*
X280932142Y-64508333D01*
X281027380Y-64460714D01*
X281217857Y-64460714D01*
X281313095Y-64508333D01*
X281741666Y-65127380D02*
X281741666Y-64127380D01*
X281836904Y-64746428D02*
X282122619Y-65127380D01*
X282122619Y-64460714D02*
X281741666Y-64841666D01*
X283265476Y-64222619D02*
X283313095Y-64175000D01*
X283408333Y-64127380D01*
X283646428Y-64127380D01*
X283741666Y-64175000D01*
X283789285Y-64222619D01*
X283836904Y-64317857D01*
X283836904Y-64413095D01*
X283789285Y-64555952D01*
X283217857Y-65127380D01*
X283836904Y-65127380D01*
X284265476Y-65032142D02*
X284313095Y-65079761D01*
X284265476Y-65127380D01*
X284217857Y-65079761D01*
X284265476Y-65032142D01*
X284265476Y-65127380D01*
X284932142Y-64127380D02*
X285027380Y-64127380D01*
X285122619Y-64175000D01*
X285170238Y-64222619D01*
X285217857Y-64317857D01*
X285265476Y-64508333D01*
X285265476Y-64746428D01*
X285217857Y-64936904D01*
X285170238Y-65032142D01*
X285122619Y-65079761D01*
X285027380Y-65127380D01*
X284932142Y-65127380D01*
X284836904Y-65079761D01*
X284789285Y-65032142D01*
X284741666Y-64936904D01*
X284694047Y-64746428D01*
X284694047Y-64508333D01*
X284741666Y-64317857D01*
X284789285Y-64222619D01*
X284836904Y-64175000D01*
X284932142Y-64127380D01*
X285884523Y-64127380D02*
X285979761Y-64127380D01*
X286075000Y-64175000D01*
X286122619Y-64222619D01*
X286170238Y-64317857D01*
X286217857Y-64508333D01*
X286217857Y-64746428D01*
X286170238Y-64936904D01*
X286122619Y-65032142D01*
X286075000Y-65079761D01*
X285979761Y-65127380D01*
X285884523Y-65127380D01*
X285789285Y-65079761D01*
X285741666Y-65032142D01*
X285694047Y-64936904D01*
X285646428Y-64746428D01*
X285646428Y-64508333D01*
X285694047Y-64317857D01*
X285741666Y-64222619D01*
X285789285Y-64175000D01*
X285884523Y-64127380D01*
X290196443Y-136254761D02*
X290333348Y-136302380D01*
X290571443Y-136302380D01*
X290672633Y-136254761D01*
X290726205Y-136207142D01*
X290785729Y-136111904D01*
X290797633Y-136016666D01*
X290761919Y-135921428D01*
X290720252Y-135873809D01*
X290630967Y-135826190D01*
X290446443Y-135778571D01*
X290357157Y-135730952D01*
X290315491Y-135683333D01*
X290279776Y-135588095D01*
X290291681Y-135492857D01*
X290351205Y-135397619D01*
X290404776Y-135350000D01*
X290505967Y-135302380D01*
X290744062Y-135302380D01*
X290880967Y-135350000D01*
X291220252Y-135302380D02*
X291333348Y-136302380D01*
X291613110Y-135588095D01*
X291714300Y-136302380D01*
X292077395Y-135302380D01*
X292886919Y-135302380D02*
X292696443Y-135302380D01*
X292595252Y-135350000D01*
X292541681Y-135397619D01*
X292428586Y-135540476D01*
X292357157Y-135730952D01*
X292309538Y-136111904D01*
X292345252Y-136207142D01*
X292386919Y-136254761D01*
X292476205Y-136302380D01*
X292666681Y-136302380D01*
X292767872Y-136254761D01*
X292821443Y-136207142D01*
X292880967Y-136111904D01*
X292910729Y-135873809D01*
X292875014Y-135778571D01*
X292833348Y-135730952D01*
X292744062Y-135683333D01*
X292553586Y-135683333D01*
X292452395Y-135730952D01*
X292398824Y-135778571D01*
X292339300Y-135873809D01*
X293601205Y-135302380D02*
X293696443Y-135302380D01*
X293785729Y-135350000D01*
X293827395Y-135397619D01*
X293863110Y-135492857D01*
X293886919Y-135683333D01*
X293857157Y-135921428D01*
X293785729Y-136111904D01*
X293726205Y-136207142D01*
X293672633Y-136254761D01*
X293571443Y-136302380D01*
X293476205Y-136302380D01*
X293386919Y-136254761D01*
X293345252Y-136207142D01*
X293309538Y-136111904D01*
X293285729Y-135921428D01*
X293315491Y-135683333D01*
X293386919Y-135492857D01*
X293446443Y-135397619D01*
X293500014Y-135350000D01*
X293601205Y-135302380D01*
X288004761Y-141763380D02*
X288004761Y-140763380D01*
X288242857Y-140763380D01*
X288385714Y-140811000D01*
X288480952Y-140906238D01*
X288528571Y-141001476D01*
X288576190Y-141191952D01*
X288576190Y-141334809D01*
X288528571Y-141525285D01*
X288480952Y-141620523D01*
X288385714Y-141715761D01*
X288242857Y-141763380D01*
X288004761Y-141763380D01*
X289147619Y-141763380D02*
X289052380Y-141715761D01*
X289004761Y-141668142D01*
X288957142Y-141572904D01*
X288957142Y-141287190D01*
X289004761Y-141191952D01*
X289052380Y-141144333D01*
X289147619Y-141096714D01*
X289290476Y-141096714D01*
X289385714Y-141144333D01*
X289433333Y-141191952D01*
X289480952Y-141287190D01*
X289480952Y-141572904D01*
X289433333Y-141668142D01*
X289385714Y-141715761D01*
X289290476Y-141763380D01*
X289147619Y-141763380D01*
X289814285Y-141096714D02*
X290004761Y-141763380D01*
X290195238Y-141287190D01*
X290385714Y-141763380D01*
X290576190Y-141096714D01*
X290957142Y-141096714D02*
X290957142Y-141763380D01*
X290957142Y-141191952D02*
X291004761Y-141144333D01*
X291100000Y-141096714D01*
X291242857Y-141096714D01*
X291338095Y-141144333D01*
X291385714Y-141239571D01*
X291385714Y-141763380D01*
X292576190Y-141477666D02*
X293052380Y-141477666D01*
X292480952Y-141763380D02*
X292814285Y-140763380D01*
X293147619Y-141763380D01*
X293480952Y-141763380D02*
X293480952Y-141096714D01*
X293480952Y-141287190D02*
X293528571Y-141191952D01*
X293576190Y-141144333D01*
X293671428Y-141096714D01*
X293766666Y-141096714D01*
X294100000Y-141763380D02*
X294100000Y-141096714D01*
X294100000Y-141287190D02*
X294147619Y-141191952D01*
X294195238Y-141144333D01*
X294290476Y-141096714D01*
X294385714Y-141096714D01*
X294861904Y-141763380D02*
X294766666Y-141715761D01*
X294719047Y-141668142D01*
X294671428Y-141572904D01*
X294671428Y-141287190D01*
X294719047Y-141191952D01*
X294766666Y-141144333D01*
X294861904Y-141096714D01*
X295004761Y-141096714D01*
X295100000Y-141144333D01*
X295147619Y-141191952D01*
X295195238Y-141287190D01*
X295195238Y-141572904D01*
X295147619Y-141668142D01*
X295100000Y-141715761D01*
X295004761Y-141763380D01*
X294861904Y-141763380D01*
X295528571Y-141096714D02*
X295719047Y-141763380D01*
X295909523Y-141287190D01*
X296100000Y-141763380D01*
X296290476Y-141096714D01*
X290196443Y-117204761D02*
X290333348Y-117252380D01*
X290571443Y-117252380D01*
X290672633Y-117204761D01*
X290726205Y-117157142D01*
X290785729Y-117061904D01*
X290797633Y-116966666D01*
X290761919Y-116871428D01*
X290720252Y-116823809D01*
X290630967Y-116776190D01*
X290446443Y-116728571D01*
X290357157Y-116680952D01*
X290315491Y-116633333D01*
X290279776Y-116538095D01*
X290291681Y-116442857D01*
X290351205Y-116347619D01*
X290404776Y-116300000D01*
X290505967Y-116252380D01*
X290744062Y-116252380D01*
X290880967Y-116300000D01*
X291220252Y-116252380D02*
X291333348Y-117252380D01*
X291613110Y-116538095D01*
X291714300Y-117252380D01*
X292077395Y-116252380D01*
X292934538Y-116252380D02*
X292458348Y-116252380D01*
X292351205Y-116728571D01*
X292404776Y-116680952D01*
X292505967Y-116633333D01*
X292744062Y-116633333D01*
X292833348Y-116680952D01*
X292875014Y-116728571D01*
X292910729Y-116823809D01*
X292880967Y-117061904D01*
X292821443Y-117157142D01*
X292767872Y-117204761D01*
X292666681Y-117252380D01*
X292428586Y-117252380D01*
X292339300Y-117204761D01*
X292297633Y-117157142D01*
X293333348Y-117252380D02*
X293523824Y-117252380D01*
X293625014Y-117204761D01*
X293678586Y-117157142D01*
X293791681Y-117014285D01*
X293863110Y-116823809D01*
X293910729Y-116442857D01*
X293875014Y-116347619D01*
X293833348Y-116300000D01*
X293744062Y-116252380D01*
X293553586Y-116252380D01*
X293452395Y-116300000D01*
X293398824Y-116347619D01*
X293339300Y-116442857D01*
X293309538Y-116680952D01*
X293345252Y-116776190D01*
X293386919Y-116823809D01*
X293476205Y-116871428D01*
X293666681Y-116871428D01*
X293767872Y-116823809D01*
X293821443Y-116776190D01*
X293880967Y-116680952D01*
X288957142Y-121713380D02*
X288957142Y-122522904D01*
X289004761Y-122618142D01*
X289052380Y-122665761D01*
X289147619Y-122713380D01*
X289338095Y-122713380D01*
X289433333Y-122665761D01*
X289480952Y-122618142D01*
X289528571Y-122522904D01*
X289528571Y-121713380D01*
X290004761Y-122046714D02*
X290004761Y-123046714D01*
X290004761Y-122094333D02*
X290100000Y-122046714D01*
X290290476Y-122046714D01*
X290385714Y-122094333D01*
X290433333Y-122141952D01*
X290480952Y-122237190D01*
X290480952Y-122522904D01*
X290433333Y-122618142D01*
X290385714Y-122665761D01*
X290290476Y-122713380D01*
X290100000Y-122713380D01*
X290004761Y-122665761D01*
X291623809Y-122427666D02*
X292100000Y-122427666D01*
X291528571Y-122713380D02*
X291861904Y-121713380D01*
X292195238Y-122713380D01*
X292528571Y-122713380D02*
X292528571Y-122046714D01*
X292528571Y-122237190D02*
X292576190Y-122141952D01*
X292623809Y-122094333D01*
X292719047Y-122046714D01*
X292814285Y-122046714D01*
X293147619Y-122713380D02*
X293147619Y-122046714D01*
X293147619Y-122237190D02*
X293195238Y-122141952D01*
X293242857Y-122094333D01*
X293338095Y-122046714D01*
X293433333Y-122046714D01*
X293909523Y-122713380D02*
X293814285Y-122665761D01*
X293766666Y-122618142D01*
X293719047Y-122522904D01*
X293719047Y-122237190D01*
X293766666Y-122141952D01*
X293814285Y-122094333D01*
X293909523Y-122046714D01*
X294052380Y-122046714D01*
X294147619Y-122094333D01*
X294195238Y-122141952D01*
X294242857Y-122237190D01*
X294242857Y-122522904D01*
X294195238Y-122618142D01*
X294147619Y-122665761D01*
X294052380Y-122713380D01*
X293909523Y-122713380D01*
X294576190Y-122046714D02*
X294766666Y-122713380D01*
X294957142Y-122237190D01*
X295147619Y-122713380D01*
X295338095Y-122046714D01*
X278290193Y-98154761D02*
X278427098Y-98202380D01*
X278665193Y-98202380D01*
X278766383Y-98154761D01*
X278819955Y-98107142D01*
X278879479Y-98011904D01*
X278891383Y-97916666D01*
X278855669Y-97821428D01*
X278814002Y-97773809D01*
X278724717Y-97726190D01*
X278540193Y-97678571D01*
X278450907Y-97630952D01*
X278409241Y-97583333D01*
X278373526Y-97488095D01*
X278385431Y-97392857D01*
X278444955Y-97297619D01*
X278498526Y-97250000D01*
X278599717Y-97202380D01*
X278837812Y-97202380D01*
X278974717Y-97250000D01*
X279314002Y-97202380D02*
X279427098Y-98202380D01*
X279706860Y-97488095D01*
X279808050Y-98202380D01*
X280171145Y-97202380D01*
X281028288Y-97202380D02*
X280552098Y-97202380D01*
X280444955Y-97678571D01*
X280498526Y-97630952D01*
X280599717Y-97583333D01*
X280837812Y-97583333D01*
X280927098Y-97630952D01*
X280968764Y-97678571D01*
X281004479Y-97773809D01*
X280974717Y-98011904D01*
X280915193Y-98107142D01*
X280861622Y-98154761D01*
X280760431Y-98202380D01*
X280522336Y-98202380D01*
X280433050Y-98154761D01*
X280391383Y-98107142D01*
X281593764Y-97630952D02*
X281504479Y-97583333D01*
X281462812Y-97535714D01*
X281427098Y-97440476D01*
X281433050Y-97392857D01*
X281492574Y-97297619D01*
X281546145Y-97250000D01*
X281647336Y-97202380D01*
X281837812Y-97202380D01*
X281927098Y-97250000D01*
X281968764Y-97297619D01*
X282004479Y-97392857D01*
X281998526Y-97440476D01*
X281939002Y-97535714D01*
X281885431Y-97583333D01*
X281784241Y-97630952D01*
X281593764Y-97630952D01*
X281492574Y-97678571D01*
X281439002Y-97726190D01*
X281379479Y-97821428D01*
X281355669Y-98011904D01*
X281391383Y-98107142D01*
X281433050Y-98154761D01*
X281522336Y-98202380D01*
X281712812Y-98202380D01*
X281814002Y-98154761D01*
X281867574Y-98107142D01*
X281927098Y-98011904D01*
X281950907Y-97821428D01*
X281915193Y-97726190D01*
X281873526Y-97678571D01*
X281784241Y-97630952D01*
X276455654Y-102803571D02*
X276788988Y-102803571D01*
X276931845Y-103327380D02*
X276455654Y-103327380D01*
X276455654Y-102327380D01*
X276931845Y-102327380D01*
X277360416Y-102660714D02*
X277360416Y-103327380D01*
X277360416Y-102755952D02*
X277408035Y-102708333D01*
X277503273Y-102660714D01*
X277646130Y-102660714D01*
X277741369Y-102708333D01*
X277788988Y-102803571D01*
X277788988Y-103327380D01*
X278122321Y-102660714D02*
X278503273Y-102660714D01*
X278265178Y-102327380D02*
X278265178Y-103184523D01*
X278312797Y-103279761D01*
X278408035Y-103327380D01*
X278503273Y-103327380D01*
X279217559Y-103279761D02*
X279122321Y-103327380D01*
X278931845Y-103327380D01*
X278836607Y-103279761D01*
X278788988Y-103184523D01*
X278788988Y-102803571D01*
X278836607Y-102708333D01*
X278931845Y-102660714D01*
X279122321Y-102660714D01*
X279217559Y-102708333D01*
X279265178Y-102803571D01*
X279265178Y-102898809D01*
X278788988Y-102994047D01*
X279693750Y-103327380D02*
X279693750Y-102660714D01*
X279693750Y-102851190D02*
X279741369Y-102755952D01*
X279788988Y-102708333D01*
X279884226Y-102660714D01*
X279979464Y-102660714D01*
X281027083Y-102422619D02*
X281074702Y-102375000D01*
X281169940Y-102327380D01*
X281408035Y-102327380D01*
X281503273Y-102375000D01*
X281550892Y-102422619D01*
X281598511Y-102517857D01*
X281598511Y-102613095D01*
X281550892Y-102755952D01*
X280979464Y-103327380D01*
X281598511Y-103327380D01*
X282027083Y-103232142D02*
X282074702Y-103279761D01*
X282027083Y-103327380D01*
X281979464Y-103279761D01*
X282027083Y-103232142D01*
X282027083Y-103327380D01*
X282455654Y-102422619D02*
X282503273Y-102375000D01*
X282598511Y-102327380D01*
X282836607Y-102327380D01*
X282931845Y-102375000D01*
X282979464Y-102422619D01*
X283027083Y-102517857D01*
X283027083Y-102613095D01*
X282979464Y-102755952D01*
X282408035Y-103327380D01*
X283027083Y-103327380D01*
X283931845Y-102327380D02*
X283455654Y-102327380D01*
X283408035Y-102803571D01*
X283455654Y-102755952D01*
X283550892Y-102708333D01*
X283788988Y-102708333D01*
X283884226Y-102755952D01*
X283931845Y-102803571D01*
X283979464Y-102898809D01*
X283979464Y-103136904D01*
X283931845Y-103232142D01*
X283884226Y-103279761D01*
X283788988Y-103327380D01*
X283550892Y-103327380D01*
X283455654Y-103279761D01*
X283408035Y-103232142D01*
X261621443Y-79104761D02*
X261758348Y-79152380D01*
X261996443Y-79152380D01*
X262097633Y-79104761D01*
X262151205Y-79057142D01*
X262210729Y-78961904D01*
X262222633Y-78866666D01*
X262186919Y-78771428D01*
X262145252Y-78723809D01*
X262055967Y-78676190D01*
X261871443Y-78628571D01*
X261782157Y-78580952D01*
X261740491Y-78533333D01*
X261704776Y-78438095D01*
X261716681Y-78342857D01*
X261776205Y-78247619D01*
X261829776Y-78200000D01*
X261930967Y-78152380D01*
X262169062Y-78152380D01*
X262305967Y-78200000D01*
X262645252Y-78152380D02*
X262758348Y-79152380D01*
X263038110Y-78438095D01*
X263139300Y-79152380D01*
X263502395Y-78152380D01*
X264359538Y-78152380D02*
X263883348Y-78152380D01*
X263776205Y-78628571D01*
X263829776Y-78580952D01*
X263930967Y-78533333D01*
X264169062Y-78533333D01*
X264258348Y-78580952D01*
X264300014Y-78628571D01*
X264335729Y-78723809D01*
X264305967Y-78961904D01*
X264246443Y-79057142D01*
X264192872Y-79104761D01*
X264091681Y-79152380D01*
X263853586Y-79152380D01*
X263764300Y-79104761D01*
X263722633Y-79057142D01*
X264740491Y-78152380D02*
X265407157Y-78152380D01*
X264853586Y-79152380D01*
X263334523Y-84946714D02*
X263572619Y-84946714D01*
X263572619Y-83518142D01*
X263334523Y-83518142D01*
X252096443Y-60054761D02*
X252233348Y-60102380D01*
X252471443Y-60102380D01*
X252572633Y-60054761D01*
X252626205Y-60007142D01*
X252685729Y-59911904D01*
X252697633Y-59816666D01*
X252661919Y-59721428D01*
X252620252Y-59673809D01*
X252530967Y-59626190D01*
X252346443Y-59578571D01*
X252257157Y-59530952D01*
X252215491Y-59483333D01*
X252179776Y-59388095D01*
X252191681Y-59292857D01*
X252251205Y-59197619D01*
X252304776Y-59150000D01*
X252405967Y-59102380D01*
X252644062Y-59102380D01*
X252780967Y-59150000D01*
X253120252Y-59102380D02*
X253233348Y-60102380D01*
X253513110Y-59388095D01*
X253614300Y-60102380D01*
X253977395Y-59102380D01*
X254834538Y-59102380D02*
X254358348Y-59102380D01*
X254251205Y-59578571D01*
X254304776Y-59530952D01*
X254405967Y-59483333D01*
X254644062Y-59483333D01*
X254733348Y-59530952D01*
X254775014Y-59578571D01*
X254810729Y-59673809D01*
X254780967Y-59911904D01*
X254721443Y-60007142D01*
X254667872Y-60054761D01*
X254566681Y-60102380D01*
X254328586Y-60102380D01*
X254239300Y-60054761D01*
X254197633Y-60007142D01*
X255739300Y-59102380D02*
X255548824Y-59102380D01*
X255447633Y-59150000D01*
X255394062Y-59197619D01*
X255280967Y-59340476D01*
X255209538Y-59530952D01*
X255161919Y-59911904D01*
X255197633Y-60007142D01*
X255239300Y-60054761D01*
X255328586Y-60102380D01*
X255519062Y-60102380D01*
X255620252Y-60054761D01*
X255673824Y-60007142D01*
X255733348Y-59911904D01*
X255763110Y-59673809D01*
X255727395Y-59578571D01*
X255685729Y-59530952D01*
X255596443Y-59483333D01*
X255405967Y-59483333D01*
X255304776Y-59530952D01*
X255251205Y-59578571D01*
X255191681Y-59673809D01*
X253619047Y-65039571D02*
X254380952Y-65039571D01*
X254380952Y-65325285D02*
X253619047Y-65325285D01*
X271146443Y-136254761D02*
X271283348Y-136302380D01*
X271521443Y-136302380D01*
X271622633Y-136254761D01*
X271676205Y-136207142D01*
X271735729Y-136111904D01*
X271747633Y-136016666D01*
X271711919Y-135921428D01*
X271670252Y-135873809D01*
X271580967Y-135826190D01*
X271396443Y-135778571D01*
X271307157Y-135730952D01*
X271265491Y-135683333D01*
X271229776Y-135588095D01*
X271241681Y-135492857D01*
X271301205Y-135397619D01*
X271354776Y-135350000D01*
X271455967Y-135302380D01*
X271694062Y-135302380D01*
X271830967Y-135350000D01*
X272170252Y-135302380D02*
X272283348Y-136302380D01*
X272563110Y-135588095D01*
X272664300Y-136302380D01*
X273027395Y-135302380D01*
X273884538Y-135302380D02*
X273408348Y-135302380D01*
X273301205Y-135778571D01*
X273354776Y-135730952D01*
X273455967Y-135683333D01*
X273694062Y-135683333D01*
X273783348Y-135730952D01*
X273825014Y-135778571D01*
X273860729Y-135873809D01*
X273830967Y-136111904D01*
X273771443Y-136207142D01*
X273717872Y-136254761D01*
X273616681Y-136302380D01*
X273378586Y-136302380D01*
X273289300Y-136254761D01*
X273247633Y-136207142D01*
X274836919Y-135302380D02*
X274360729Y-135302380D01*
X274253586Y-135778571D01*
X274307157Y-135730952D01*
X274408348Y-135683333D01*
X274646443Y-135683333D01*
X274735729Y-135730952D01*
X274777395Y-135778571D01*
X274813110Y-135873809D01*
X274783348Y-136111904D01*
X274723824Y-136207142D01*
X274670252Y-136254761D01*
X274569062Y-136302380D01*
X274330967Y-136302380D01*
X274241681Y-136254761D01*
X274200014Y-136207142D01*
X269954761Y-141763380D02*
X269478571Y-141763380D01*
X269478571Y-140763380D01*
X270669047Y-141715761D02*
X270573809Y-141763380D01*
X270383333Y-141763380D01*
X270288095Y-141715761D01*
X270240476Y-141620523D01*
X270240476Y-141239571D01*
X270288095Y-141144333D01*
X270383333Y-141096714D01*
X270573809Y-141096714D01*
X270669047Y-141144333D01*
X270716666Y-141239571D01*
X270716666Y-141334809D01*
X270240476Y-141430047D01*
X271002380Y-141096714D02*
X271383333Y-141096714D01*
X271145238Y-141763380D02*
X271145238Y-140906238D01*
X271192857Y-140811000D01*
X271288095Y-140763380D01*
X271383333Y-140763380D01*
X271573809Y-141096714D02*
X271954761Y-141096714D01*
X271716666Y-140763380D02*
X271716666Y-141620523D01*
X271764285Y-141715761D01*
X271859523Y-141763380D01*
X271954761Y-141763380D01*
X273002380Y-141477666D02*
X273478571Y-141477666D01*
X272907142Y-141763380D02*
X273240476Y-140763380D01*
X273573809Y-141763380D01*
X273907142Y-141763380D02*
X273907142Y-141096714D01*
X273907142Y-141287190D02*
X273954761Y-141191952D01*
X274002380Y-141144333D01*
X274097619Y-141096714D01*
X274192857Y-141096714D01*
X274526190Y-141763380D02*
X274526190Y-141096714D01*
X274526190Y-141287190D02*
X274573809Y-141191952D01*
X274621428Y-141144333D01*
X274716666Y-141096714D01*
X274811904Y-141096714D01*
X275288095Y-141763380D02*
X275192857Y-141715761D01*
X275145238Y-141668142D01*
X275097619Y-141572904D01*
X275097619Y-141287190D01*
X275145238Y-141191952D01*
X275192857Y-141144333D01*
X275288095Y-141096714D01*
X275430952Y-141096714D01*
X275526190Y-141144333D01*
X275573809Y-141191952D01*
X275621428Y-141287190D01*
X275621428Y-141572904D01*
X275573809Y-141668142D01*
X275526190Y-141715761D01*
X275430952Y-141763380D01*
X275288095Y-141763380D01*
X275954761Y-141096714D02*
X276145238Y-141763380D01*
X276335714Y-141287190D01*
X276526190Y-141763380D01*
X276716666Y-141096714D01*
X264002693Y-117204761D02*
X264139598Y-117252380D01*
X264377693Y-117252380D01*
X264478883Y-117204761D01*
X264532455Y-117157142D01*
X264591979Y-117061904D01*
X264603883Y-116966666D01*
X264568169Y-116871428D01*
X264526502Y-116823809D01*
X264437217Y-116776190D01*
X264252693Y-116728571D01*
X264163407Y-116680952D01*
X264121741Y-116633333D01*
X264086026Y-116538095D01*
X264097931Y-116442857D01*
X264157455Y-116347619D01*
X264211026Y-116300000D01*
X264312217Y-116252380D01*
X264550312Y-116252380D01*
X264687217Y-116300000D01*
X265026502Y-116252380D02*
X265139598Y-117252380D01*
X265419360Y-116538095D01*
X265520550Y-117252380D01*
X265883645Y-116252380D01*
X266740788Y-116252380D02*
X266264598Y-116252380D01*
X266157455Y-116728571D01*
X266211026Y-116680952D01*
X266312217Y-116633333D01*
X266550312Y-116633333D01*
X266639598Y-116680952D01*
X266681264Y-116728571D01*
X266716979Y-116823809D01*
X266687217Y-117061904D01*
X266627693Y-117157142D01*
X266574122Y-117204761D01*
X266472931Y-117252380D01*
X266234836Y-117252380D01*
X266145550Y-117204761D01*
X266103883Y-117157142D01*
X267603883Y-116585714D02*
X267520550Y-117252380D01*
X267413407Y-116204761D02*
X267086026Y-116919047D01*
X267705074Y-116919047D01*
X262311011Y-122665761D02*
X262453869Y-122713380D01*
X262691964Y-122713380D01*
X262787202Y-122665761D01*
X262834821Y-122618142D01*
X262882440Y-122522904D01*
X262882440Y-122427666D01*
X262834821Y-122332428D01*
X262787202Y-122284809D01*
X262691964Y-122237190D01*
X262501488Y-122189571D01*
X262406250Y-122141952D01*
X262358630Y-122094333D01*
X262311011Y-121999095D01*
X262311011Y-121903857D01*
X262358630Y-121808619D01*
X262406250Y-121761000D01*
X262501488Y-121713380D01*
X262739583Y-121713380D01*
X262882440Y-121761000D01*
X263311011Y-122713380D02*
X263311011Y-121713380D01*
X263739583Y-122713380D02*
X263739583Y-122189571D01*
X263691964Y-122094333D01*
X263596726Y-122046714D01*
X263453869Y-122046714D01*
X263358630Y-122094333D01*
X263311011Y-122141952D01*
X264215773Y-122713380D02*
X264215773Y-122046714D01*
X264215773Y-121713380D02*
X264168154Y-121761000D01*
X264215773Y-121808619D01*
X264263392Y-121761000D01*
X264215773Y-121713380D01*
X264215773Y-121808619D01*
X264549107Y-122046714D02*
X264930059Y-122046714D01*
X264691964Y-122713380D02*
X264691964Y-121856238D01*
X264739583Y-121761000D01*
X264834821Y-121713380D01*
X264930059Y-121713380D01*
X265120535Y-122046714D02*
X265501488Y-122046714D01*
X265263392Y-121713380D02*
X265263392Y-122570523D01*
X265311011Y-122665761D01*
X265406250Y-122713380D01*
X265501488Y-122713380D01*
X267120535Y-122713380D02*
X266549107Y-122713380D01*
X266834821Y-122713380D02*
X266834821Y-121713380D01*
X266739583Y-121856238D01*
X266644345Y-121951476D01*
X266549107Y-121999095D01*
X267549107Y-122618142D02*
X267596726Y-122665761D01*
X267549107Y-122713380D01*
X267501488Y-122665761D01*
X267549107Y-122618142D01*
X267549107Y-122713380D01*
X267930059Y-121713380D02*
X268596726Y-121713380D01*
X268168154Y-122713380D01*
X269453869Y-121713380D02*
X268977678Y-121713380D01*
X268930059Y-122189571D01*
X268977678Y-122141952D01*
X269072916Y-122094333D01*
X269311011Y-122094333D01*
X269406250Y-122141952D01*
X269453869Y-122189571D01*
X269501488Y-122284809D01*
X269501488Y-122522904D01*
X269453869Y-122618142D01*
X269406250Y-122665761D01*
X269311011Y-122713380D01*
X269072916Y-122713380D01*
X268977678Y-122665761D01*
X268930059Y-122618142D01*
X247333943Y-98154761D02*
X247470848Y-98202380D01*
X247708943Y-98202380D01*
X247810133Y-98154761D01*
X247863705Y-98107142D01*
X247923229Y-98011904D01*
X247935133Y-97916666D01*
X247899419Y-97821428D01*
X247857752Y-97773809D01*
X247768467Y-97726190D01*
X247583943Y-97678571D01*
X247494657Y-97630952D01*
X247452991Y-97583333D01*
X247417276Y-97488095D01*
X247429181Y-97392857D01*
X247488705Y-97297619D01*
X247542276Y-97250000D01*
X247643467Y-97202380D01*
X247881562Y-97202380D01*
X248018467Y-97250000D01*
X248357752Y-97202380D02*
X248470848Y-98202380D01*
X248750610Y-97488095D01*
X248851800Y-98202380D01*
X249214895Y-97202380D01*
X250072038Y-97202380D02*
X249595848Y-97202380D01*
X249488705Y-97678571D01*
X249542276Y-97630952D01*
X249643467Y-97583333D01*
X249881562Y-97583333D01*
X249970848Y-97630952D01*
X250012514Y-97678571D01*
X250048229Y-97773809D01*
X250018467Y-98011904D01*
X249958943Y-98107142D01*
X249905372Y-98154761D01*
X249804181Y-98202380D01*
X249566086Y-98202380D01*
X249476800Y-98154761D01*
X249435133Y-98107142D01*
X250452991Y-97202380D02*
X251072038Y-97202380D01*
X250691086Y-97583333D01*
X250833943Y-97583333D01*
X250923229Y-97630952D01*
X250964895Y-97678571D01*
X251000610Y-97773809D01*
X250970848Y-98011904D01*
X250911324Y-98107142D01*
X250857752Y-98154761D01*
X250756562Y-98202380D01*
X250470848Y-98202380D01*
X250381562Y-98154761D01*
X250339895Y-98107142D01*
X249285119Y-102663380D02*
X249189880Y-102853857D01*
X242571443Y-79104761D02*
X242708348Y-79152380D01*
X242946443Y-79152380D01*
X243047633Y-79104761D01*
X243101205Y-79057142D01*
X243160729Y-78961904D01*
X243172633Y-78866666D01*
X243136919Y-78771428D01*
X243095252Y-78723809D01*
X243005967Y-78676190D01*
X242821443Y-78628571D01*
X242732157Y-78580952D01*
X242690491Y-78533333D01*
X242654776Y-78438095D01*
X242666681Y-78342857D01*
X242726205Y-78247619D01*
X242779776Y-78200000D01*
X242880967Y-78152380D01*
X243119062Y-78152380D01*
X243255967Y-78200000D01*
X243595252Y-78152380D02*
X243708348Y-79152380D01*
X243988110Y-78438095D01*
X244089300Y-79152380D01*
X244452395Y-78152380D01*
X245309538Y-78152380D02*
X244833348Y-78152380D01*
X244726205Y-78628571D01*
X244779776Y-78580952D01*
X244880967Y-78533333D01*
X245119062Y-78533333D01*
X245208348Y-78580952D01*
X245250014Y-78628571D01*
X245285729Y-78723809D01*
X245255967Y-78961904D01*
X245196443Y-79057142D01*
X245142872Y-79104761D01*
X245041681Y-79152380D01*
X244803586Y-79152380D01*
X244714300Y-79104761D01*
X244672633Y-79057142D01*
X245726205Y-78247619D02*
X245779776Y-78200000D01*
X245880967Y-78152380D01*
X246119062Y-78152380D01*
X246208348Y-78200000D01*
X246250014Y-78247619D01*
X246285729Y-78342857D01*
X246273824Y-78438095D01*
X246208348Y-78580952D01*
X245565491Y-79152380D01*
X246184538Y-79152380D01*
X244665476Y-84946714D02*
X244427380Y-84946714D01*
X244427380Y-83518142D01*
X244665476Y-83518142D01*
X233046443Y-60054761D02*
X233183348Y-60102380D01*
X233421443Y-60102380D01*
X233522633Y-60054761D01*
X233576205Y-60007142D01*
X233635729Y-59911904D01*
X233647633Y-59816666D01*
X233611919Y-59721428D01*
X233570252Y-59673809D01*
X233480967Y-59626190D01*
X233296443Y-59578571D01*
X233207157Y-59530952D01*
X233165491Y-59483333D01*
X233129776Y-59388095D01*
X233141681Y-59292857D01*
X233201205Y-59197619D01*
X233254776Y-59150000D01*
X233355967Y-59102380D01*
X233594062Y-59102380D01*
X233730967Y-59150000D01*
X234070252Y-59102380D02*
X234183348Y-60102380D01*
X234463110Y-59388095D01*
X234564300Y-60102380D01*
X234927395Y-59102380D01*
X235784538Y-59102380D02*
X235308348Y-59102380D01*
X235201205Y-59578571D01*
X235254776Y-59530952D01*
X235355967Y-59483333D01*
X235594062Y-59483333D01*
X235683348Y-59530952D01*
X235725014Y-59578571D01*
X235760729Y-59673809D01*
X235730967Y-59911904D01*
X235671443Y-60007142D01*
X235617872Y-60054761D01*
X235516681Y-60102380D01*
X235278586Y-60102380D01*
X235189300Y-60054761D01*
X235147633Y-60007142D01*
X236659538Y-60102380D02*
X236088110Y-60102380D01*
X236373824Y-60102380D02*
X236498824Y-59102380D01*
X236385729Y-59245238D01*
X236278586Y-59340476D01*
X236177395Y-59388095D01*
X234569047Y-65182428D02*
X235330952Y-65182428D01*
X237808943Y-117204761D02*
X237945848Y-117252380D01*
X238183943Y-117252380D01*
X238285133Y-117204761D01*
X238338705Y-117157142D01*
X238398229Y-117061904D01*
X238410133Y-116966666D01*
X238374419Y-116871428D01*
X238332752Y-116823809D01*
X238243467Y-116776190D01*
X238058943Y-116728571D01*
X237969657Y-116680952D01*
X237927991Y-116633333D01*
X237892276Y-116538095D01*
X237904181Y-116442857D01*
X237963705Y-116347619D01*
X238017276Y-116300000D01*
X238118467Y-116252380D01*
X238356562Y-116252380D01*
X238493467Y-116300000D01*
X238832752Y-116252380D02*
X238945848Y-117252380D01*
X239225610Y-116538095D01*
X239326800Y-117252380D01*
X239689895Y-116252380D01*
X240457752Y-116585714D02*
X240374419Y-117252380D01*
X240267276Y-116204761D02*
X239939895Y-116919047D01*
X240558943Y-116919047D01*
X240945848Y-117252380D02*
X241136324Y-117252380D01*
X241237514Y-117204761D01*
X241291086Y-117157142D01*
X241404181Y-117014285D01*
X241475610Y-116823809D01*
X241523229Y-116442857D01*
X241487514Y-116347619D01*
X241445848Y-116300000D01*
X241356562Y-116252380D01*
X241166086Y-116252380D01*
X241064895Y-116300000D01*
X241011324Y-116347619D01*
X240951800Y-116442857D01*
X240922038Y-116680952D01*
X240957752Y-116776190D01*
X240999419Y-116823809D01*
X241088705Y-116871428D01*
X241279181Y-116871428D01*
X241380372Y-116823809D01*
X241433943Y-116776190D01*
X241493467Y-116680952D01*
X240141071Y-121665761D02*
X239283928Y-122951476D01*
X223521443Y-79104761D02*
X223658348Y-79152380D01*
X223896443Y-79152380D01*
X223997633Y-79104761D01*
X224051205Y-79057142D01*
X224110729Y-78961904D01*
X224122633Y-78866666D01*
X224086919Y-78771428D01*
X224045252Y-78723809D01*
X223955967Y-78676190D01*
X223771443Y-78628571D01*
X223682157Y-78580952D01*
X223640491Y-78533333D01*
X223604776Y-78438095D01*
X223616681Y-78342857D01*
X223676205Y-78247619D01*
X223729776Y-78200000D01*
X223830967Y-78152380D01*
X224069062Y-78152380D01*
X224205967Y-78200000D01*
X224545252Y-78152380D02*
X224658348Y-79152380D01*
X224938110Y-78438095D01*
X225039300Y-79152380D01*
X225402395Y-78152380D01*
X226170252Y-78485714D02*
X226086919Y-79152380D01*
X225979776Y-78104761D02*
X225652395Y-78819047D01*
X226271443Y-78819047D01*
X226640491Y-78152380D02*
X227307157Y-78152380D01*
X226753586Y-79152380D01*
X225329761Y-83613380D02*
X225520238Y-83613380D01*
X225615476Y-83661000D01*
X225710714Y-83756238D01*
X225758333Y-83946714D01*
X225758333Y-84280047D01*
X225710714Y-84470523D01*
X225615476Y-84565761D01*
X225520238Y-84613380D01*
X225329761Y-84613380D01*
X225234523Y-84565761D01*
X225139285Y-84470523D01*
X225091666Y-84280047D01*
X225091666Y-83946714D01*
X225139285Y-83756238D01*
X225234523Y-83661000D01*
X225329761Y-83613380D01*
X213996443Y-60054761D02*
X214133348Y-60102380D01*
X214371443Y-60102380D01*
X214472633Y-60054761D01*
X214526205Y-60007142D01*
X214585729Y-59911904D01*
X214597633Y-59816666D01*
X214561919Y-59721428D01*
X214520252Y-59673809D01*
X214430967Y-59626190D01*
X214246443Y-59578571D01*
X214157157Y-59530952D01*
X214115491Y-59483333D01*
X214079776Y-59388095D01*
X214091681Y-59292857D01*
X214151205Y-59197619D01*
X214204776Y-59150000D01*
X214305967Y-59102380D01*
X214544062Y-59102380D01*
X214680967Y-59150000D01*
X215020252Y-59102380D02*
X215133348Y-60102380D01*
X215413110Y-59388095D01*
X215514300Y-60102380D01*
X215877395Y-59102380D01*
X216645252Y-59435714D02*
X216561919Y-60102380D01*
X216454776Y-59054761D02*
X216127395Y-59769047D01*
X216746443Y-59769047D01*
X217639300Y-59102380D02*
X217448824Y-59102380D01*
X217347633Y-59150000D01*
X217294062Y-59197619D01*
X217180967Y-59340476D01*
X217109538Y-59530952D01*
X217061919Y-59911904D01*
X217097633Y-60007142D01*
X217139300Y-60054761D01*
X217228586Y-60102380D01*
X217419062Y-60102380D01*
X217520252Y-60054761D01*
X217573824Y-60007142D01*
X217633348Y-59911904D01*
X217663110Y-59673809D01*
X217627395Y-59578571D01*
X217585729Y-59530952D01*
X217496443Y-59483333D01*
X217305967Y-59483333D01*
X217204776Y-59530952D01*
X217151205Y-59578571D01*
X217091681Y-59673809D01*
X215852380Y-64563380D02*
X215947619Y-64563380D01*
X216042857Y-64611000D01*
X216090476Y-64658619D01*
X216138095Y-64753857D01*
X216185714Y-64944333D01*
X216185714Y-65182428D01*
X216138095Y-65372904D01*
X216090476Y-65468142D01*
X216042857Y-65515761D01*
X215947619Y-65563380D01*
X215852380Y-65563380D01*
X215757142Y-65515761D01*
X215709523Y-65468142D01*
X215661904Y-65372904D01*
X215614285Y-65182428D01*
X215614285Y-64944333D01*
X215661904Y-64753857D01*
X215709523Y-64658619D01*
X215757142Y-64611000D01*
X215852380Y-64563380D01*
X218758943Y-117204761D02*
X218895848Y-117252380D01*
X219133943Y-117252380D01*
X219235133Y-117204761D01*
X219288705Y-117157142D01*
X219348229Y-117061904D01*
X219360133Y-116966666D01*
X219324419Y-116871428D01*
X219282752Y-116823809D01*
X219193467Y-116776190D01*
X219008943Y-116728571D01*
X218919657Y-116680952D01*
X218877991Y-116633333D01*
X218842276Y-116538095D01*
X218854181Y-116442857D01*
X218913705Y-116347619D01*
X218967276Y-116300000D01*
X219068467Y-116252380D01*
X219306562Y-116252380D01*
X219443467Y-116300000D01*
X219782752Y-116252380D02*
X219895848Y-117252380D01*
X220175610Y-116538095D01*
X220276800Y-117252380D01*
X220639895Y-116252380D01*
X221407752Y-116585714D02*
X221324419Y-117252380D01*
X221217276Y-116204761D02*
X220889895Y-116919047D01*
X221508943Y-116919047D01*
X222360133Y-116585714D02*
X222276800Y-117252380D01*
X222169657Y-116204761D02*
X221842276Y-116919047D01*
X222461324Y-116919047D01*
X220662500Y-122618142D02*
X220710119Y-122665761D01*
X220662500Y-122713380D01*
X220614880Y-122665761D01*
X220662500Y-122618142D01*
X220662500Y-122713380D01*
X209233943Y-98154761D02*
X209370848Y-98202380D01*
X209608943Y-98202380D01*
X209710133Y-98154761D01*
X209763705Y-98107142D01*
X209823229Y-98011904D01*
X209835133Y-97916666D01*
X209799419Y-97821428D01*
X209757752Y-97773809D01*
X209668467Y-97726190D01*
X209483943Y-97678571D01*
X209394657Y-97630952D01*
X209352991Y-97583333D01*
X209317276Y-97488095D01*
X209329181Y-97392857D01*
X209388705Y-97297619D01*
X209442276Y-97250000D01*
X209543467Y-97202380D01*
X209781562Y-97202380D01*
X209918467Y-97250000D01*
X210257752Y-97202380D02*
X210370848Y-98202380D01*
X210650610Y-97488095D01*
X210751800Y-98202380D01*
X211114895Y-97202380D01*
X211882752Y-97535714D02*
X211799419Y-98202380D01*
X211692276Y-97154761D02*
X211364895Y-97869047D01*
X211983943Y-97869047D01*
X212352991Y-97202380D02*
X212972038Y-97202380D01*
X212591086Y-97583333D01*
X212733943Y-97583333D01*
X212823229Y-97630952D01*
X212864895Y-97678571D01*
X212900610Y-97773809D01*
X212870848Y-98011904D01*
X212811324Y-98107142D01*
X212757752Y-98154761D01*
X212656562Y-98202380D01*
X212370848Y-98202380D01*
X212281562Y-98154761D01*
X212239895Y-98107142D01*
X211447023Y-103663380D02*
X210970833Y-103663380D01*
X210970833Y-102663380D01*
X204471443Y-79104761D02*
X204608348Y-79152380D01*
X204846443Y-79152380D01*
X204947633Y-79104761D01*
X205001205Y-79057142D01*
X205060729Y-78961904D01*
X205072633Y-78866666D01*
X205036919Y-78771428D01*
X204995252Y-78723809D01*
X204905967Y-78676190D01*
X204721443Y-78628571D01*
X204632157Y-78580952D01*
X204590491Y-78533333D01*
X204554776Y-78438095D01*
X204566681Y-78342857D01*
X204626205Y-78247619D01*
X204679776Y-78200000D01*
X204780967Y-78152380D01*
X205019062Y-78152380D01*
X205155967Y-78200000D01*
X205495252Y-78152380D02*
X205608348Y-79152380D01*
X205888110Y-78438095D01*
X205989300Y-79152380D01*
X206352395Y-78152380D01*
X207120252Y-78485714D02*
X207036919Y-79152380D01*
X206929776Y-78104761D02*
X206602395Y-78819047D01*
X207221443Y-78819047D01*
X207626205Y-78247619D02*
X207679776Y-78200000D01*
X207780967Y-78152380D01*
X208019062Y-78152380D01*
X208108348Y-78200000D01*
X208150014Y-78247619D01*
X208185729Y-78342857D01*
X208173824Y-78438095D01*
X208108348Y-78580952D01*
X207465491Y-79152380D01*
X208084538Y-79152380D01*
X206113095Y-84613380D02*
X206113095Y-83613380D01*
X206494047Y-83613380D01*
X206589285Y-83661000D01*
X206636904Y-83708619D01*
X206684523Y-83803857D01*
X206684523Y-83946714D01*
X206636904Y-84041952D01*
X206589285Y-84089571D01*
X206494047Y-84137190D01*
X206113095Y-84137190D01*
X194946443Y-60054761D02*
X195083348Y-60102380D01*
X195321443Y-60102380D01*
X195422633Y-60054761D01*
X195476205Y-60007142D01*
X195535729Y-59911904D01*
X195547633Y-59816666D01*
X195511919Y-59721428D01*
X195470252Y-59673809D01*
X195380967Y-59626190D01*
X195196443Y-59578571D01*
X195107157Y-59530952D01*
X195065491Y-59483333D01*
X195029776Y-59388095D01*
X195041681Y-59292857D01*
X195101205Y-59197619D01*
X195154776Y-59150000D01*
X195255967Y-59102380D01*
X195494062Y-59102380D01*
X195630967Y-59150000D01*
X195970252Y-59102380D02*
X196083348Y-60102380D01*
X196363110Y-59388095D01*
X196464300Y-60102380D01*
X196827395Y-59102380D01*
X197595252Y-59435714D02*
X197511919Y-60102380D01*
X197404776Y-59054761D02*
X197077395Y-59769047D01*
X197696443Y-59769047D01*
X198559538Y-60102380D02*
X197988110Y-60102380D01*
X198273824Y-60102380D02*
X198398824Y-59102380D01*
X198285729Y-59245238D01*
X198178586Y-59340476D01*
X198077395Y-59388095D01*
X196659523Y-65563380D02*
X196850000Y-65563380D01*
X196945238Y-65515761D01*
X196992857Y-65468142D01*
X197088095Y-65325285D01*
X197135714Y-65134809D01*
X197135714Y-64753857D01*
X197088095Y-64658619D01*
X197040476Y-64611000D01*
X196945238Y-64563380D01*
X196754761Y-64563380D01*
X196659523Y-64611000D01*
X196611904Y-64658619D01*
X196564285Y-64753857D01*
X196564285Y-64991952D01*
X196611904Y-65087190D01*
X196659523Y-65134809D01*
X196754761Y-65182428D01*
X196945238Y-65182428D01*
X197040476Y-65134809D01*
X197088095Y-65087190D01*
X197135714Y-64991952D01*
X199708943Y-117204761D02*
X199845848Y-117252380D01*
X200083943Y-117252380D01*
X200185133Y-117204761D01*
X200238705Y-117157142D01*
X200298229Y-117061904D01*
X200310133Y-116966666D01*
X200274419Y-116871428D01*
X200232752Y-116823809D01*
X200143467Y-116776190D01*
X199958943Y-116728571D01*
X199869657Y-116680952D01*
X199827991Y-116633333D01*
X199792276Y-116538095D01*
X199804181Y-116442857D01*
X199863705Y-116347619D01*
X199917276Y-116300000D01*
X200018467Y-116252380D01*
X200256562Y-116252380D01*
X200393467Y-116300000D01*
X200732752Y-116252380D02*
X200845848Y-117252380D01*
X201125610Y-116538095D01*
X201226800Y-117252380D01*
X201589895Y-116252380D01*
X202357752Y-116585714D02*
X202274419Y-117252380D01*
X202167276Y-116204761D02*
X201839895Y-116919047D01*
X202458943Y-116919047D01*
X203113705Y-116252380D02*
X203208943Y-116252380D01*
X203298229Y-116300000D01*
X203339895Y-116347619D01*
X203375610Y-116442857D01*
X203399419Y-116633333D01*
X203369657Y-116871428D01*
X203298229Y-117061904D01*
X203238705Y-117157142D01*
X203185133Y-117204761D01*
X203083943Y-117252380D01*
X202988705Y-117252380D01*
X202899419Y-117204761D01*
X202857752Y-117157142D01*
X202822038Y-117061904D01*
X202798229Y-116871428D01*
X202827991Y-116633333D01*
X202899419Y-116442857D01*
X202958943Y-116347619D01*
X203012514Y-116300000D01*
X203113705Y-116252380D01*
X201660119Y-122665761D02*
X201660119Y-122713380D01*
X201612500Y-122808619D01*
X201564880Y-122856238D01*
X190183943Y-98154761D02*
X190320848Y-98202380D01*
X190558943Y-98202380D01*
X190660133Y-98154761D01*
X190713705Y-98107142D01*
X190773229Y-98011904D01*
X190785133Y-97916666D01*
X190749419Y-97821428D01*
X190707752Y-97773809D01*
X190618467Y-97726190D01*
X190433943Y-97678571D01*
X190344657Y-97630952D01*
X190302991Y-97583333D01*
X190267276Y-97488095D01*
X190279181Y-97392857D01*
X190338705Y-97297619D01*
X190392276Y-97250000D01*
X190493467Y-97202380D01*
X190731562Y-97202380D01*
X190868467Y-97250000D01*
X191207752Y-97202380D02*
X191320848Y-98202380D01*
X191600610Y-97488095D01*
X191701800Y-98202380D01*
X192064895Y-97202380D01*
X192350610Y-97202380D02*
X192969657Y-97202380D01*
X192588705Y-97583333D01*
X192731562Y-97583333D01*
X192820848Y-97630952D01*
X192862514Y-97678571D01*
X192898229Y-97773809D01*
X192868467Y-98011904D01*
X192808943Y-98107142D01*
X192755372Y-98154761D01*
X192654181Y-98202380D01*
X192368467Y-98202380D01*
X192279181Y-98154761D01*
X192237514Y-98107142D01*
X193320848Y-98202380D02*
X193511324Y-98202380D01*
X193612514Y-98154761D01*
X193666086Y-98107142D01*
X193779181Y-97964285D01*
X193850610Y-97773809D01*
X193898229Y-97392857D01*
X193862514Y-97297619D01*
X193820848Y-97250000D01*
X193731562Y-97202380D01*
X193541086Y-97202380D01*
X193439895Y-97250000D01*
X193386324Y-97297619D01*
X193326800Y-97392857D01*
X193297038Y-97630952D01*
X193332752Y-97726190D01*
X193374419Y-97773809D01*
X193463705Y-97821428D01*
X193654181Y-97821428D01*
X193755372Y-97773809D01*
X193808943Y-97726190D01*
X193868467Y-97630952D01*
X191825595Y-103663380D02*
X191825595Y-102663380D01*
X192397023Y-103663380D02*
X191968452Y-103091952D01*
X192397023Y-102663380D02*
X191825595Y-103234809D01*
X185421443Y-79104761D02*
X185558348Y-79152380D01*
X185796443Y-79152380D01*
X185897633Y-79104761D01*
X185951205Y-79057142D01*
X186010729Y-78961904D01*
X186022633Y-78866666D01*
X185986919Y-78771428D01*
X185945252Y-78723809D01*
X185855967Y-78676190D01*
X185671443Y-78628571D01*
X185582157Y-78580952D01*
X185540491Y-78533333D01*
X185504776Y-78438095D01*
X185516681Y-78342857D01*
X185576205Y-78247619D01*
X185629776Y-78200000D01*
X185730967Y-78152380D01*
X185969062Y-78152380D01*
X186105967Y-78200000D01*
X186445252Y-78152380D02*
X186558348Y-79152380D01*
X186838110Y-78438095D01*
X186939300Y-79152380D01*
X187302395Y-78152380D01*
X187588110Y-78152380D02*
X188207157Y-78152380D01*
X187826205Y-78533333D01*
X187969062Y-78533333D01*
X188058348Y-78580952D01*
X188100014Y-78628571D01*
X188135729Y-78723809D01*
X188105967Y-78961904D01*
X188046443Y-79057142D01*
X187992872Y-79104761D01*
X187891681Y-79152380D01*
X187605967Y-79152380D01*
X187516681Y-79104761D01*
X187475014Y-79057142D01*
X188725014Y-78580952D02*
X188635729Y-78533333D01*
X188594062Y-78485714D01*
X188558348Y-78390476D01*
X188564300Y-78342857D01*
X188623824Y-78247619D01*
X188677395Y-78200000D01*
X188778586Y-78152380D01*
X188969062Y-78152380D01*
X189058348Y-78200000D01*
X189100014Y-78247619D01*
X189135729Y-78342857D01*
X189129776Y-78390476D01*
X189070252Y-78485714D01*
X189016681Y-78533333D01*
X188915491Y-78580952D01*
X188725014Y-78580952D01*
X188623824Y-78628571D01*
X188570252Y-78676190D01*
X188510729Y-78771428D01*
X188486919Y-78961904D01*
X188522633Y-79057142D01*
X188564300Y-79104761D01*
X188653586Y-79152380D01*
X188844062Y-79152380D01*
X188945252Y-79104761D01*
X188998824Y-79057142D01*
X189058348Y-78961904D01*
X189082157Y-78771428D01*
X189046443Y-78676190D01*
X189004776Y-78628571D01*
X188915491Y-78580952D01*
X187325000Y-84613380D02*
X187325000Y-83613380D01*
X175896443Y-60054761D02*
X176033348Y-60102380D01*
X176271443Y-60102380D01*
X176372633Y-60054761D01*
X176426205Y-60007142D01*
X176485729Y-59911904D01*
X176497633Y-59816666D01*
X176461919Y-59721428D01*
X176420252Y-59673809D01*
X176330967Y-59626190D01*
X176146443Y-59578571D01*
X176057157Y-59530952D01*
X176015491Y-59483333D01*
X175979776Y-59388095D01*
X175991681Y-59292857D01*
X176051205Y-59197619D01*
X176104776Y-59150000D01*
X176205967Y-59102380D01*
X176444062Y-59102380D01*
X176580967Y-59150000D01*
X176920252Y-59102380D02*
X177033348Y-60102380D01*
X177313110Y-59388095D01*
X177414300Y-60102380D01*
X177777395Y-59102380D01*
X178063110Y-59102380D02*
X178682157Y-59102380D01*
X178301205Y-59483333D01*
X178444062Y-59483333D01*
X178533348Y-59530952D01*
X178575014Y-59578571D01*
X178610729Y-59673809D01*
X178580967Y-59911904D01*
X178521443Y-60007142D01*
X178467872Y-60054761D01*
X178366681Y-60102380D01*
X178080967Y-60102380D01*
X177991681Y-60054761D01*
X177950014Y-60007142D01*
X179015491Y-59102380D02*
X179682157Y-59102380D01*
X179128586Y-60102380D01*
X177704761Y-64991952D02*
X177609523Y-64944333D01*
X177561904Y-64896714D01*
X177514285Y-64801476D01*
X177514285Y-64753857D01*
X177561904Y-64658619D01*
X177609523Y-64611000D01*
X177704761Y-64563380D01*
X177895238Y-64563380D01*
X177990476Y-64611000D01*
X178038095Y-64658619D01*
X178085714Y-64753857D01*
X178085714Y-64801476D01*
X178038095Y-64896714D01*
X177990476Y-64944333D01*
X177895238Y-64991952D01*
X177704761Y-64991952D01*
X177609523Y-65039571D01*
X177561904Y-65087190D01*
X177514285Y-65182428D01*
X177514285Y-65372904D01*
X177561904Y-65468142D01*
X177609523Y-65515761D01*
X177704761Y-65563380D01*
X177895238Y-65563380D01*
X177990476Y-65515761D01*
X178038095Y-65468142D01*
X178085714Y-65372904D01*
X178085714Y-65182428D01*
X178038095Y-65087190D01*
X177990476Y-65039571D01*
X177895238Y-64991952D01*
X180658943Y-117204761D02*
X180795848Y-117252380D01*
X181033943Y-117252380D01*
X181135133Y-117204761D01*
X181188705Y-117157142D01*
X181248229Y-117061904D01*
X181260133Y-116966666D01*
X181224419Y-116871428D01*
X181182752Y-116823809D01*
X181093467Y-116776190D01*
X180908943Y-116728571D01*
X180819657Y-116680952D01*
X180777991Y-116633333D01*
X180742276Y-116538095D01*
X180754181Y-116442857D01*
X180813705Y-116347619D01*
X180867276Y-116300000D01*
X180968467Y-116252380D01*
X181206562Y-116252380D01*
X181343467Y-116300000D01*
X181682752Y-116252380D02*
X181795848Y-117252380D01*
X182075610Y-116538095D01*
X182176800Y-117252380D01*
X182539895Y-116252380D01*
X182825610Y-116252380D02*
X183444657Y-116252380D01*
X183063705Y-116633333D01*
X183206562Y-116633333D01*
X183295848Y-116680952D01*
X183337514Y-116728571D01*
X183373229Y-116823809D01*
X183343467Y-117061904D01*
X183283943Y-117157142D01*
X183230372Y-117204761D01*
X183129181Y-117252380D01*
X182843467Y-117252380D01*
X182754181Y-117204761D01*
X182712514Y-117157142D01*
X184301800Y-116252380D02*
X184111324Y-116252380D01*
X184010133Y-116300000D01*
X183956562Y-116347619D01*
X183843467Y-116490476D01*
X183772038Y-116680952D01*
X183724419Y-117061904D01*
X183760133Y-117157142D01*
X183801800Y-117204761D01*
X183891086Y-117252380D01*
X184081562Y-117252380D01*
X184182752Y-117204761D01*
X184236324Y-117157142D01*
X184295848Y-117061904D01*
X184325610Y-116823809D01*
X184289895Y-116728571D01*
X184248229Y-116680952D01*
X184158943Y-116633333D01*
X183968467Y-116633333D01*
X183867276Y-116680952D01*
X183813705Y-116728571D01*
X183754181Y-116823809D01*
X182229166Y-122713380D02*
X182229166Y-121713380D01*
X182562500Y-122427666D01*
X182895833Y-121713380D01*
X182895833Y-122713380D01*
X166371443Y-79104761D02*
X166508348Y-79152380D01*
X166746443Y-79152380D01*
X166847633Y-79104761D01*
X166901205Y-79057142D01*
X166960729Y-78961904D01*
X166972633Y-78866666D01*
X166936919Y-78771428D01*
X166895252Y-78723809D01*
X166805967Y-78676190D01*
X166621443Y-78628571D01*
X166532157Y-78580952D01*
X166490491Y-78533333D01*
X166454776Y-78438095D01*
X166466681Y-78342857D01*
X166526205Y-78247619D01*
X166579776Y-78200000D01*
X166680967Y-78152380D01*
X166919062Y-78152380D01*
X167055967Y-78200000D01*
X167395252Y-78152380D02*
X167508348Y-79152380D01*
X167788110Y-78438095D01*
X167889300Y-79152380D01*
X168252395Y-78152380D01*
X168538110Y-78152380D02*
X169157157Y-78152380D01*
X168776205Y-78533333D01*
X168919062Y-78533333D01*
X169008348Y-78580952D01*
X169050014Y-78628571D01*
X169085729Y-78723809D01*
X169055967Y-78961904D01*
X168996443Y-79057142D01*
X168942872Y-79104761D01*
X168841681Y-79152380D01*
X168555967Y-79152380D01*
X168466681Y-79104761D01*
X168425014Y-79057142D01*
X169972633Y-78485714D02*
X169889300Y-79152380D01*
X169782157Y-78104761D02*
X169454776Y-78819047D01*
X170073824Y-78819047D01*
X167989285Y-83613380D02*
X167989285Y-84422904D01*
X168036904Y-84518142D01*
X168084523Y-84565761D01*
X168179761Y-84613380D01*
X168370238Y-84613380D01*
X168465476Y-84565761D01*
X168513095Y-84518142D01*
X168560714Y-84422904D01*
X168560714Y-83613380D01*
X156846443Y-60054761D02*
X156983348Y-60102380D01*
X157221443Y-60102380D01*
X157322633Y-60054761D01*
X157376205Y-60007142D01*
X157435729Y-59911904D01*
X157447633Y-59816666D01*
X157411919Y-59721428D01*
X157370252Y-59673809D01*
X157280967Y-59626190D01*
X157096443Y-59578571D01*
X157007157Y-59530952D01*
X156965491Y-59483333D01*
X156929776Y-59388095D01*
X156941681Y-59292857D01*
X157001205Y-59197619D01*
X157054776Y-59150000D01*
X157155967Y-59102380D01*
X157394062Y-59102380D01*
X157530967Y-59150000D01*
X157870252Y-59102380D02*
X157983348Y-60102380D01*
X158263110Y-59388095D01*
X158364300Y-60102380D01*
X158727395Y-59102380D01*
X159013110Y-59102380D02*
X159632157Y-59102380D01*
X159251205Y-59483333D01*
X159394062Y-59483333D01*
X159483348Y-59530952D01*
X159525014Y-59578571D01*
X159560729Y-59673809D01*
X159530967Y-59911904D01*
X159471443Y-60007142D01*
X159417872Y-60054761D01*
X159316681Y-60102380D01*
X159030967Y-60102380D01*
X158941681Y-60054761D01*
X158900014Y-60007142D01*
X159965491Y-59102380D02*
X160584538Y-59102380D01*
X160203586Y-59483333D01*
X160346443Y-59483333D01*
X160435729Y-59530952D01*
X160477395Y-59578571D01*
X160513110Y-59673809D01*
X160483348Y-59911904D01*
X160423824Y-60007142D01*
X160370252Y-60054761D01*
X160269062Y-60102380D01*
X159983348Y-60102380D01*
X159894062Y-60054761D01*
X159852395Y-60007142D01*
X158416666Y-64563380D02*
X159083333Y-64563380D01*
X158654761Y-65563380D01*
X161608943Y-117204761D02*
X161745848Y-117252380D01*
X161983943Y-117252380D01*
X162085133Y-117204761D01*
X162138705Y-117157142D01*
X162198229Y-117061904D01*
X162210133Y-116966666D01*
X162174419Y-116871428D01*
X162132752Y-116823809D01*
X162043467Y-116776190D01*
X161858943Y-116728571D01*
X161769657Y-116680952D01*
X161727991Y-116633333D01*
X161692276Y-116538095D01*
X161704181Y-116442857D01*
X161763705Y-116347619D01*
X161817276Y-116300000D01*
X161918467Y-116252380D01*
X162156562Y-116252380D01*
X162293467Y-116300000D01*
X162632752Y-116252380D02*
X162745848Y-117252380D01*
X163025610Y-116538095D01*
X163126800Y-117252380D01*
X163489895Y-116252380D01*
X163775610Y-116252380D02*
X164394657Y-116252380D01*
X164013705Y-116633333D01*
X164156562Y-116633333D01*
X164245848Y-116680952D01*
X164287514Y-116728571D01*
X164323229Y-116823809D01*
X164293467Y-117061904D01*
X164233943Y-117157142D01*
X164180372Y-117204761D01*
X164079181Y-117252380D01*
X163793467Y-117252380D01*
X163704181Y-117204761D01*
X163662514Y-117157142D01*
X164763705Y-116347619D02*
X164817276Y-116300000D01*
X164918467Y-116252380D01*
X165156562Y-116252380D01*
X165245848Y-116300000D01*
X165287514Y-116347619D01*
X165323229Y-116442857D01*
X165311324Y-116538095D01*
X165245848Y-116680952D01*
X164602991Y-117252380D01*
X165222038Y-117252380D01*
X163226785Y-122713380D02*
X163226785Y-121713380D01*
X163798214Y-122713380D01*
X163798214Y-121713380D01*
X137796443Y-60054761D02*
X137933348Y-60102380D01*
X138171443Y-60102380D01*
X138272633Y-60054761D01*
X138326205Y-60007142D01*
X138385729Y-59911904D01*
X138397633Y-59816666D01*
X138361919Y-59721428D01*
X138320252Y-59673809D01*
X138230967Y-59626190D01*
X138046443Y-59578571D01*
X137957157Y-59530952D01*
X137915491Y-59483333D01*
X137879776Y-59388095D01*
X137891681Y-59292857D01*
X137951205Y-59197619D01*
X138004776Y-59150000D01*
X138105967Y-59102380D01*
X138344062Y-59102380D01*
X138480967Y-59150000D01*
X138820252Y-59102380D02*
X138933348Y-60102380D01*
X139213110Y-59388095D01*
X139314300Y-60102380D01*
X139677395Y-59102380D01*
X139998824Y-59197619D02*
X140052395Y-59150000D01*
X140153586Y-59102380D01*
X140391681Y-59102380D01*
X140480967Y-59150000D01*
X140522633Y-59197619D01*
X140558348Y-59292857D01*
X140546443Y-59388095D01*
X140480967Y-59530952D01*
X139838110Y-60102380D01*
X140457157Y-60102380D01*
X140933348Y-60102380D02*
X141123824Y-60102380D01*
X141225014Y-60054761D01*
X141278586Y-60007142D01*
X141391681Y-59864285D01*
X141463110Y-59673809D01*
X141510729Y-59292857D01*
X141475014Y-59197619D01*
X141433348Y-59150000D01*
X141344062Y-59102380D01*
X141153586Y-59102380D01*
X141052395Y-59150000D01*
X140998824Y-59197619D01*
X140939300Y-59292857D01*
X140909538Y-59530952D01*
X140945252Y-59626190D01*
X140986919Y-59673809D01*
X141076205Y-59721428D01*
X141266681Y-59721428D01*
X141367872Y-59673809D01*
X141421443Y-59626190D01*
X141480967Y-59530952D01*
X139890476Y-64563380D02*
X139700000Y-64563380D01*
X139604761Y-64611000D01*
X139557142Y-64658619D01*
X139461904Y-64801476D01*
X139414285Y-64991952D01*
X139414285Y-65372904D01*
X139461904Y-65468142D01*
X139509523Y-65515761D01*
X139604761Y-65563380D01*
X139795238Y-65563380D01*
X139890476Y-65515761D01*
X139938095Y-65468142D01*
X139985714Y-65372904D01*
X139985714Y-65134809D01*
X139938095Y-65039571D01*
X139890476Y-64991952D01*
X139795238Y-64944333D01*
X139604761Y-64944333D01*
X139509523Y-64991952D01*
X139461904Y-65039571D01*
X139414285Y-65134809D01*
X144940193Y-136254761D02*
X145077098Y-136302380D01*
X145315193Y-136302380D01*
X145416383Y-136254761D01*
X145469955Y-136207142D01*
X145529479Y-136111904D01*
X145541383Y-136016666D01*
X145505669Y-135921428D01*
X145464002Y-135873809D01*
X145374717Y-135826190D01*
X145190193Y-135778571D01*
X145100907Y-135730952D01*
X145059241Y-135683333D01*
X145023526Y-135588095D01*
X145035431Y-135492857D01*
X145094955Y-135397619D01*
X145148526Y-135350000D01*
X145249717Y-135302380D01*
X145487812Y-135302380D01*
X145624717Y-135350000D01*
X145964002Y-135302380D02*
X146077098Y-136302380D01*
X146356860Y-135588095D01*
X146458050Y-136302380D01*
X146821145Y-135302380D01*
X147142574Y-135397619D02*
X147196145Y-135350000D01*
X147297336Y-135302380D01*
X147535431Y-135302380D01*
X147624717Y-135350000D01*
X147666383Y-135397619D01*
X147702098Y-135492857D01*
X147690193Y-135588095D01*
X147624717Y-135730952D01*
X146981860Y-136302380D01*
X147600907Y-136302380D01*
X148243764Y-135730952D02*
X148154479Y-135683333D01*
X148112812Y-135635714D01*
X148077098Y-135540476D01*
X148083050Y-135492857D01*
X148142574Y-135397619D01*
X148196145Y-135350000D01*
X148297336Y-135302380D01*
X148487812Y-135302380D01*
X148577098Y-135350000D01*
X148618764Y-135397619D01*
X148654479Y-135492857D01*
X148648526Y-135540476D01*
X148589002Y-135635714D01*
X148535431Y-135683333D01*
X148434241Y-135730952D01*
X148243764Y-135730952D01*
X148142574Y-135778571D01*
X148089002Y-135826190D01*
X148029479Y-135921428D01*
X148005669Y-136111904D01*
X148041383Y-136207142D01*
X148083050Y-136254761D01*
X148172336Y-136302380D01*
X148362812Y-136302380D01*
X148464002Y-136254761D01*
X148517574Y-136207142D01*
X148577098Y-136111904D01*
X148600907Y-135921428D01*
X148565193Y-135826190D01*
X148523526Y-135778571D01*
X148434241Y-135730952D01*
X142748511Y-141479761D02*
X142891369Y-141527380D01*
X143129464Y-141527380D01*
X143224702Y-141479761D01*
X143272321Y-141432142D01*
X143319940Y-141336904D01*
X143319940Y-141241666D01*
X143272321Y-141146428D01*
X143224702Y-141098809D01*
X143129464Y-141051190D01*
X142938988Y-141003571D01*
X142843750Y-140955952D01*
X142796130Y-140908333D01*
X142748511Y-140813095D01*
X142748511Y-140717857D01*
X142796130Y-140622619D01*
X142843750Y-140575000D01*
X142938988Y-140527380D01*
X143177083Y-140527380D01*
X143319940Y-140575000D01*
X143748511Y-140860714D02*
X143748511Y-141860714D01*
X143748511Y-140908333D02*
X143843750Y-140860714D01*
X144034226Y-140860714D01*
X144129464Y-140908333D01*
X144177083Y-140955952D01*
X144224702Y-141051190D01*
X144224702Y-141336904D01*
X144177083Y-141432142D01*
X144129464Y-141479761D01*
X144034226Y-141527380D01*
X143843750Y-141527380D01*
X143748511Y-141479761D01*
X145081845Y-141527380D02*
X145081845Y-141003571D01*
X145034226Y-140908333D01*
X144938988Y-140860714D01*
X144748511Y-140860714D01*
X144653273Y-140908333D01*
X145081845Y-141479761D02*
X144986607Y-141527380D01*
X144748511Y-141527380D01*
X144653273Y-141479761D01*
X144605654Y-141384523D01*
X144605654Y-141289285D01*
X144653273Y-141194047D01*
X144748511Y-141146428D01*
X144986607Y-141146428D01*
X145081845Y-141098809D01*
X145986607Y-141479761D02*
X145891369Y-141527380D01*
X145700892Y-141527380D01*
X145605654Y-141479761D01*
X145558035Y-141432142D01*
X145510416Y-141336904D01*
X145510416Y-141051190D01*
X145558035Y-140955952D01*
X145605654Y-140908333D01*
X145700892Y-140860714D01*
X145891369Y-140860714D01*
X145986607Y-140908333D01*
X146796130Y-141479761D02*
X146700892Y-141527380D01*
X146510416Y-141527380D01*
X146415178Y-141479761D01*
X146367559Y-141384523D01*
X146367559Y-141003571D01*
X146415178Y-140908333D01*
X146510416Y-140860714D01*
X146700892Y-140860714D01*
X146796130Y-140908333D01*
X146843750Y-141003571D01*
X146843750Y-141098809D01*
X146367559Y-141194047D01*
X148462797Y-140527380D02*
X148272321Y-140527380D01*
X148177083Y-140575000D01*
X148129464Y-140622619D01*
X148034226Y-140765476D01*
X147986607Y-140955952D01*
X147986607Y-141336904D01*
X148034226Y-141432142D01*
X148081845Y-141479761D01*
X148177083Y-141527380D01*
X148367559Y-141527380D01*
X148462797Y-141479761D01*
X148510416Y-141432142D01*
X148558035Y-141336904D01*
X148558035Y-141098809D01*
X148510416Y-141003571D01*
X148462797Y-140955952D01*
X148367559Y-140908333D01*
X148177083Y-140908333D01*
X148081845Y-140955952D01*
X148034226Y-141003571D01*
X147986607Y-141098809D01*
X148986607Y-141432142D02*
X149034226Y-141479761D01*
X148986607Y-141527380D01*
X148938988Y-141479761D01*
X148986607Y-141432142D01*
X148986607Y-141527380D01*
X149415178Y-140622619D02*
X149462797Y-140575000D01*
X149558035Y-140527380D01*
X149796130Y-140527380D01*
X149891369Y-140575000D01*
X149938988Y-140622619D01*
X149986607Y-140717857D01*
X149986607Y-140813095D01*
X149938988Y-140955952D01*
X149367559Y-141527380D01*
X149986607Y-141527380D01*
X150891369Y-140527380D02*
X150415178Y-140527380D01*
X150367559Y-141003571D01*
X150415178Y-140955952D01*
X150510416Y-140908333D01*
X150748511Y-140908333D01*
X150843750Y-140955952D01*
X150891369Y-141003571D01*
X150938988Y-141098809D01*
X150938988Y-141336904D01*
X150891369Y-141432142D01*
X150843750Y-141479761D01*
X150748511Y-141527380D01*
X150510416Y-141527380D01*
X150415178Y-141479761D01*
X150367559Y-141432142D01*
X142558943Y-117204761D02*
X142695848Y-117252380D01*
X142933943Y-117252380D01*
X143035133Y-117204761D01*
X143088705Y-117157142D01*
X143148229Y-117061904D01*
X143160133Y-116966666D01*
X143124419Y-116871428D01*
X143082752Y-116823809D01*
X142993467Y-116776190D01*
X142808943Y-116728571D01*
X142719657Y-116680952D01*
X142677991Y-116633333D01*
X142642276Y-116538095D01*
X142654181Y-116442857D01*
X142713705Y-116347619D01*
X142767276Y-116300000D01*
X142868467Y-116252380D01*
X143106562Y-116252380D01*
X143243467Y-116300000D01*
X143582752Y-116252380D02*
X143695848Y-117252380D01*
X143975610Y-116538095D01*
X144076800Y-117252380D01*
X144439895Y-116252380D01*
X144761324Y-116347619D02*
X144814895Y-116300000D01*
X144916086Y-116252380D01*
X145154181Y-116252380D01*
X145243467Y-116300000D01*
X145285133Y-116347619D01*
X145320848Y-116442857D01*
X145308943Y-116538095D01*
X145243467Y-116680952D01*
X144600610Y-117252380D01*
X145219657Y-117252380D01*
X145677991Y-116252380D02*
X146344657Y-116252380D01*
X145791086Y-117252380D01*
X144533928Y-122189571D02*
X144676785Y-122237190D01*
X144724404Y-122284809D01*
X144772023Y-122380047D01*
X144772023Y-122522904D01*
X144724404Y-122618142D01*
X144676785Y-122665761D01*
X144581547Y-122713380D01*
X144200595Y-122713380D01*
X144200595Y-121713380D01*
X144533928Y-121713380D01*
X144629166Y-121761000D01*
X144676785Y-121808619D01*
X144724404Y-121903857D01*
X144724404Y-121999095D01*
X144676785Y-122094333D01*
X144629166Y-122141952D01*
X144533928Y-122189571D01*
X144200595Y-122189571D01*
X133033943Y-98154761D02*
X133170848Y-98202380D01*
X133408943Y-98202380D01*
X133510133Y-98154761D01*
X133563705Y-98107142D01*
X133623229Y-98011904D01*
X133635133Y-97916666D01*
X133599419Y-97821428D01*
X133557752Y-97773809D01*
X133468467Y-97726190D01*
X133283943Y-97678571D01*
X133194657Y-97630952D01*
X133152991Y-97583333D01*
X133117276Y-97488095D01*
X133129181Y-97392857D01*
X133188705Y-97297619D01*
X133242276Y-97250000D01*
X133343467Y-97202380D01*
X133581562Y-97202380D01*
X133718467Y-97250000D01*
X134057752Y-97202380D02*
X134170848Y-98202380D01*
X134450610Y-97488095D01*
X134551800Y-98202380D01*
X134914895Y-97202380D01*
X135236324Y-97297619D02*
X135289895Y-97250000D01*
X135391086Y-97202380D01*
X135629181Y-97202380D01*
X135718467Y-97250000D01*
X135760133Y-97297619D01*
X135795848Y-97392857D01*
X135783943Y-97488095D01*
X135718467Y-97630952D01*
X135075610Y-98202380D01*
X135694657Y-98202380D01*
X136676800Y-97202380D02*
X136486324Y-97202380D01*
X136385133Y-97250000D01*
X136331562Y-97297619D01*
X136218467Y-97440476D01*
X136147038Y-97630952D01*
X136099419Y-98011904D01*
X136135133Y-98107142D01*
X136176800Y-98154761D01*
X136266086Y-98202380D01*
X136456562Y-98202380D01*
X136557752Y-98154761D01*
X136611324Y-98107142D01*
X136670848Y-98011904D01*
X136700610Y-97773809D01*
X136664895Y-97678571D01*
X136623229Y-97630952D01*
X136533943Y-97583333D01*
X136343467Y-97583333D01*
X136242276Y-97630952D01*
X136188705Y-97678571D01*
X136129181Y-97773809D01*
X135199404Y-102711000D02*
X135104166Y-102663380D01*
X134961309Y-102663380D01*
X134818452Y-102711000D01*
X134723214Y-102806238D01*
X134675595Y-102901476D01*
X134627976Y-103091952D01*
X134627976Y-103234809D01*
X134675595Y-103425285D01*
X134723214Y-103520523D01*
X134818452Y-103615761D01*
X134961309Y-103663380D01*
X135056547Y-103663380D01*
X135199404Y-103615761D01*
X135247023Y-103568142D01*
X135247023Y-103234809D01*
X135056547Y-103234809D01*
X128271443Y-79104761D02*
X128408348Y-79152380D01*
X128646443Y-79152380D01*
X128747633Y-79104761D01*
X128801205Y-79057142D01*
X128860729Y-78961904D01*
X128872633Y-78866666D01*
X128836919Y-78771428D01*
X128795252Y-78723809D01*
X128705967Y-78676190D01*
X128521443Y-78628571D01*
X128432157Y-78580952D01*
X128390491Y-78533333D01*
X128354776Y-78438095D01*
X128366681Y-78342857D01*
X128426205Y-78247619D01*
X128479776Y-78200000D01*
X128580967Y-78152380D01*
X128819062Y-78152380D01*
X128955967Y-78200000D01*
X129295252Y-78152380D02*
X129408348Y-79152380D01*
X129688110Y-78438095D01*
X129789300Y-79152380D01*
X130152395Y-78152380D01*
X130473824Y-78247619D02*
X130527395Y-78200000D01*
X130628586Y-78152380D01*
X130866681Y-78152380D01*
X130955967Y-78200000D01*
X130997633Y-78247619D01*
X131033348Y-78342857D01*
X131021443Y-78438095D01*
X130955967Y-78580952D01*
X130313110Y-79152380D01*
X130932157Y-79152380D01*
X131961919Y-78152380D02*
X131485729Y-78152380D01*
X131378586Y-78628571D01*
X131432157Y-78580952D01*
X131533348Y-78533333D01*
X131771443Y-78533333D01*
X131860729Y-78580952D01*
X131902395Y-78628571D01*
X131938110Y-78723809D01*
X131908348Y-78961904D01*
X131848824Y-79057142D01*
X131795252Y-79104761D01*
X131694062Y-79152380D01*
X131455967Y-79152380D01*
X131366681Y-79104761D01*
X131325014Y-79057142D01*
X129889285Y-83613380D02*
X130460714Y-83613380D01*
X130175000Y-84613380D02*
X130175000Y-83613380D01*
X118746443Y-60054761D02*
X118883348Y-60102380D01*
X119121443Y-60102380D01*
X119222633Y-60054761D01*
X119276205Y-60007142D01*
X119335729Y-59911904D01*
X119347633Y-59816666D01*
X119311919Y-59721428D01*
X119270252Y-59673809D01*
X119180967Y-59626190D01*
X118996443Y-59578571D01*
X118907157Y-59530952D01*
X118865491Y-59483333D01*
X118829776Y-59388095D01*
X118841681Y-59292857D01*
X118901205Y-59197619D01*
X118954776Y-59150000D01*
X119055967Y-59102380D01*
X119294062Y-59102380D01*
X119430967Y-59150000D01*
X119770252Y-59102380D02*
X119883348Y-60102380D01*
X120163110Y-59388095D01*
X120264300Y-60102380D01*
X120627395Y-59102380D01*
X120948824Y-59197619D02*
X121002395Y-59150000D01*
X121103586Y-59102380D01*
X121341681Y-59102380D01*
X121430967Y-59150000D01*
X121472633Y-59197619D01*
X121508348Y-59292857D01*
X121496443Y-59388095D01*
X121430967Y-59530952D01*
X120788110Y-60102380D01*
X121407157Y-60102380D01*
X122347633Y-59435714D02*
X122264300Y-60102380D01*
X122157157Y-59054761D02*
X121829776Y-59769047D01*
X122448824Y-59769047D01*
X120888095Y-64563380D02*
X120411904Y-64563380D01*
X120364285Y-65039571D01*
X120411904Y-64991952D01*
X120507142Y-64944333D01*
X120745238Y-64944333D01*
X120840476Y-64991952D01*
X120888095Y-65039571D01*
X120935714Y-65134809D01*
X120935714Y-65372904D01*
X120888095Y-65468142D01*
X120840476Y-65515761D01*
X120745238Y-65563380D01*
X120507142Y-65563380D01*
X120411904Y-65515761D01*
X120364285Y-65468142D01*
X123508943Y-117204761D02*
X123645848Y-117252380D01*
X123883943Y-117252380D01*
X123985133Y-117204761D01*
X124038705Y-117157142D01*
X124098229Y-117061904D01*
X124110133Y-116966666D01*
X124074419Y-116871428D01*
X124032752Y-116823809D01*
X123943467Y-116776190D01*
X123758943Y-116728571D01*
X123669657Y-116680952D01*
X123627991Y-116633333D01*
X123592276Y-116538095D01*
X123604181Y-116442857D01*
X123663705Y-116347619D01*
X123717276Y-116300000D01*
X123818467Y-116252380D01*
X124056562Y-116252380D01*
X124193467Y-116300000D01*
X124532752Y-116252380D02*
X124645848Y-117252380D01*
X124925610Y-116538095D01*
X125026800Y-117252380D01*
X125389895Y-116252380D01*
X125711324Y-116347619D02*
X125764895Y-116300000D01*
X125866086Y-116252380D01*
X126104181Y-116252380D01*
X126193467Y-116300000D01*
X126235133Y-116347619D01*
X126270848Y-116442857D01*
X126258943Y-116538095D01*
X126193467Y-116680952D01*
X125550610Y-117252380D01*
X126169657Y-117252380D01*
X126627991Y-116252380D02*
X127247038Y-116252380D01*
X126866086Y-116633333D01*
X127008943Y-116633333D01*
X127098229Y-116680952D01*
X127139895Y-116728571D01*
X127175610Y-116823809D01*
X127145848Y-117061904D01*
X127086324Y-117157142D01*
X127032752Y-117204761D01*
X126931562Y-117252380D01*
X126645848Y-117252380D01*
X126556562Y-117204761D01*
X126514895Y-117157142D01*
X125079166Y-121713380D02*
X125412500Y-122713380D01*
X125745833Y-121713380D01*
X113983943Y-98154761D02*
X114120848Y-98202380D01*
X114358943Y-98202380D01*
X114460133Y-98154761D01*
X114513705Y-98107142D01*
X114573229Y-98011904D01*
X114585133Y-97916666D01*
X114549419Y-97821428D01*
X114507752Y-97773809D01*
X114418467Y-97726190D01*
X114233943Y-97678571D01*
X114144657Y-97630952D01*
X114102991Y-97583333D01*
X114067276Y-97488095D01*
X114079181Y-97392857D01*
X114138705Y-97297619D01*
X114192276Y-97250000D01*
X114293467Y-97202380D01*
X114531562Y-97202380D01*
X114668467Y-97250000D01*
X115007752Y-97202380D02*
X115120848Y-98202380D01*
X115400610Y-97488095D01*
X115501800Y-98202380D01*
X115864895Y-97202380D01*
X116186324Y-97297619D02*
X116239895Y-97250000D01*
X116341086Y-97202380D01*
X116579181Y-97202380D01*
X116668467Y-97250000D01*
X116710133Y-97297619D01*
X116745848Y-97392857D01*
X116733943Y-97488095D01*
X116668467Y-97630952D01*
X116025610Y-98202380D01*
X116644657Y-98202380D01*
X117138705Y-97297619D02*
X117192276Y-97250000D01*
X117293467Y-97202380D01*
X117531562Y-97202380D01*
X117620848Y-97250000D01*
X117662514Y-97297619D01*
X117698229Y-97392857D01*
X117686324Y-97488095D01*
X117620848Y-97630952D01*
X116977991Y-98202380D01*
X117597038Y-98202380D01*
X116030357Y-103139571D02*
X115697023Y-103139571D01*
X115697023Y-103663380D02*
X115697023Y-102663380D01*
X116173214Y-102663380D01*
X109221443Y-79104761D02*
X109358348Y-79152380D01*
X109596443Y-79152380D01*
X109697633Y-79104761D01*
X109751205Y-79057142D01*
X109810729Y-78961904D01*
X109822633Y-78866666D01*
X109786919Y-78771428D01*
X109745252Y-78723809D01*
X109655967Y-78676190D01*
X109471443Y-78628571D01*
X109382157Y-78580952D01*
X109340491Y-78533333D01*
X109304776Y-78438095D01*
X109316681Y-78342857D01*
X109376205Y-78247619D01*
X109429776Y-78200000D01*
X109530967Y-78152380D01*
X109769062Y-78152380D01*
X109905967Y-78200000D01*
X110245252Y-78152380D02*
X110358348Y-79152380D01*
X110638110Y-78438095D01*
X110739300Y-79152380D01*
X111102395Y-78152380D01*
X111423824Y-78247619D02*
X111477395Y-78200000D01*
X111578586Y-78152380D01*
X111816681Y-78152380D01*
X111905967Y-78200000D01*
X111947633Y-78247619D01*
X111983348Y-78342857D01*
X111971443Y-78438095D01*
X111905967Y-78580952D01*
X111263110Y-79152380D01*
X111882157Y-79152380D01*
X112834538Y-79152380D02*
X112263110Y-79152380D01*
X112548824Y-79152380D02*
X112673824Y-78152380D01*
X112560729Y-78295238D01*
X112453586Y-78390476D01*
X112352395Y-78438095D01*
X111434523Y-84613380D02*
X111101190Y-84137190D01*
X110863095Y-84613380D02*
X110863095Y-83613380D01*
X111244047Y-83613380D01*
X111339285Y-83661000D01*
X111386904Y-83708619D01*
X111434523Y-83803857D01*
X111434523Y-83946714D01*
X111386904Y-84041952D01*
X111339285Y-84089571D01*
X111244047Y-84137190D01*
X110863095Y-84137190D01*
X99696443Y-60054761D02*
X99833348Y-60102380D01*
X100071443Y-60102380D01*
X100172633Y-60054761D01*
X100226205Y-60007142D01*
X100285729Y-59911904D01*
X100297633Y-59816666D01*
X100261919Y-59721428D01*
X100220252Y-59673809D01*
X100130967Y-59626190D01*
X99946443Y-59578571D01*
X99857157Y-59530952D01*
X99815491Y-59483333D01*
X99779776Y-59388095D01*
X99791681Y-59292857D01*
X99851205Y-59197619D01*
X99904776Y-59150000D01*
X100005967Y-59102380D01*
X100244062Y-59102380D01*
X100380967Y-59150000D01*
X100720252Y-59102380D02*
X100833348Y-60102380D01*
X101113110Y-59388095D01*
X101214300Y-60102380D01*
X101577395Y-59102380D01*
X101898824Y-59197619D02*
X101952395Y-59150000D01*
X102053586Y-59102380D01*
X102291681Y-59102380D01*
X102380967Y-59150000D01*
X102422633Y-59197619D01*
X102458348Y-59292857D01*
X102446443Y-59388095D01*
X102380967Y-59530952D01*
X101738110Y-60102380D01*
X102357157Y-60102380D01*
X103101205Y-59102380D02*
X103196443Y-59102380D01*
X103285729Y-59150000D01*
X103327395Y-59197619D01*
X103363110Y-59292857D01*
X103386919Y-59483333D01*
X103357157Y-59721428D01*
X103285729Y-59911904D01*
X103226205Y-60007142D01*
X103172633Y-60054761D01*
X103071443Y-60102380D01*
X102976205Y-60102380D01*
X102886919Y-60054761D01*
X102845252Y-60007142D01*
X102809538Y-59911904D01*
X102785729Y-59721428D01*
X102815491Y-59483333D01*
X102886919Y-59292857D01*
X102946443Y-59197619D01*
X103000014Y-59150000D01*
X103101205Y-59102380D01*
X101790476Y-64896714D02*
X101790476Y-65563380D01*
X101552380Y-64515761D02*
X101314285Y-65230047D01*
X101933333Y-65230047D01*
X104458943Y-117204761D02*
X104595848Y-117252380D01*
X104833943Y-117252380D01*
X104935133Y-117204761D01*
X104988705Y-117157142D01*
X105048229Y-117061904D01*
X105060133Y-116966666D01*
X105024419Y-116871428D01*
X104982752Y-116823809D01*
X104893467Y-116776190D01*
X104708943Y-116728571D01*
X104619657Y-116680952D01*
X104577991Y-116633333D01*
X104542276Y-116538095D01*
X104554181Y-116442857D01*
X104613705Y-116347619D01*
X104667276Y-116300000D01*
X104768467Y-116252380D01*
X105006562Y-116252380D01*
X105143467Y-116300000D01*
X105482752Y-116252380D02*
X105595848Y-117252380D01*
X105875610Y-116538095D01*
X105976800Y-117252380D01*
X106339895Y-116252380D01*
X107119657Y-117252380D02*
X106548229Y-117252380D01*
X106833943Y-117252380D02*
X106958943Y-116252380D01*
X106845848Y-116395238D01*
X106738705Y-116490476D01*
X106637514Y-116538095D01*
X107595848Y-117252380D02*
X107786324Y-117252380D01*
X107887514Y-117204761D01*
X107941086Y-117157142D01*
X108054181Y-117014285D01*
X108125610Y-116823809D01*
X108173229Y-116442857D01*
X108137514Y-116347619D01*
X108095848Y-116300000D01*
X108006562Y-116252380D01*
X107816086Y-116252380D01*
X107714895Y-116300000D01*
X107661324Y-116347619D01*
X107601800Y-116442857D01*
X107572038Y-116680952D01*
X107607752Y-116776190D01*
X107649419Y-116823809D01*
X107738705Y-116871428D01*
X107929181Y-116871428D01*
X108030372Y-116823809D01*
X108083943Y-116776190D01*
X108143467Y-116680952D01*
X106672023Y-122618142D02*
X106624404Y-122665761D01*
X106481547Y-122713380D01*
X106386309Y-122713380D01*
X106243452Y-122665761D01*
X106148214Y-122570523D01*
X106100595Y-122475285D01*
X106052976Y-122284809D01*
X106052976Y-122141952D01*
X106100595Y-121951476D01*
X106148214Y-121856238D01*
X106243452Y-121761000D01*
X106386309Y-121713380D01*
X106481547Y-121713380D01*
X106624404Y-121761000D01*
X106672023Y-121808619D01*
X94933943Y-98154761D02*
X95070848Y-98202380D01*
X95308943Y-98202380D01*
X95410133Y-98154761D01*
X95463705Y-98107142D01*
X95523229Y-98011904D01*
X95535133Y-97916666D01*
X95499419Y-97821428D01*
X95457752Y-97773809D01*
X95368467Y-97726190D01*
X95183943Y-97678571D01*
X95094657Y-97630952D01*
X95052991Y-97583333D01*
X95017276Y-97488095D01*
X95029181Y-97392857D01*
X95088705Y-97297619D01*
X95142276Y-97250000D01*
X95243467Y-97202380D01*
X95481562Y-97202380D01*
X95618467Y-97250000D01*
X95957752Y-97202380D02*
X96070848Y-98202380D01*
X96350610Y-97488095D01*
X96451800Y-98202380D01*
X96814895Y-97202380D01*
X97594657Y-98202380D02*
X97023229Y-98202380D01*
X97308943Y-98202380D02*
X97433943Y-97202380D01*
X97320848Y-97345238D01*
X97213705Y-97440476D01*
X97112514Y-97488095D01*
X98237514Y-97630952D02*
X98148229Y-97583333D01*
X98106562Y-97535714D01*
X98070848Y-97440476D01*
X98076800Y-97392857D01*
X98136324Y-97297619D01*
X98189895Y-97250000D01*
X98291086Y-97202380D01*
X98481562Y-97202380D01*
X98570848Y-97250000D01*
X98612514Y-97297619D01*
X98648229Y-97392857D01*
X98642276Y-97440476D01*
X98582752Y-97535714D01*
X98529181Y-97583333D01*
X98427991Y-97630952D01*
X98237514Y-97630952D01*
X98136324Y-97678571D01*
X98082752Y-97726190D01*
X98023229Y-97821428D01*
X97999419Y-98011904D01*
X98035133Y-98107142D01*
X98076800Y-98154761D01*
X98166086Y-98202380D01*
X98356562Y-98202380D01*
X98457752Y-98154761D01*
X98511324Y-98107142D01*
X98570848Y-98011904D01*
X98594657Y-97821428D01*
X98558943Y-97726190D01*
X98517276Y-97678571D01*
X98427991Y-97630952D01*
X96575595Y-103663380D02*
X96575595Y-102663380D01*
X96813690Y-102663380D01*
X96956547Y-102711000D01*
X97051785Y-102806238D01*
X97099404Y-102901476D01*
X97147023Y-103091952D01*
X97147023Y-103234809D01*
X97099404Y-103425285D01*
X97051785Y-103520523D01*
X96956547Y-103615761D01*
X96813690Y-103663380D01*
X96575595Y-103663380D01*
X90171443Y-79104761D02*
X90308348Y-79152380D01*
X90546443Y-79152380D01*
X90647633Y-79104761D01*
X90701205Y-79057142D01*
X90760729Y-78961904D01*
X90772633Y-78866666D01*
X90736919Y-78771428D01*
X90695252Y-78723809D01*
X90605967Y-78676190D01*
X90421443Y-78628571D01*
X90332157Y-78580952D01*
X90290491Y-78533333D01*
X90254776Y-78438095D01*
X90266681Y-78342857D01*
X90326205Y-78247619D01*
X90379776Y-78200000D01*
X90480967Y-78152380D01*
X90719062Y-78152380D01*
X90855967Y-78200000D01*
X91195252Y-78152380D02*
X91308348Y-79152380D01*
X91588110Y-78438095D01*
X91689300Y-79152380D01*
X92052395Y-78152380D01*
X92832157Y-79152380D02*
X92260729Y-79152380D01*
X92546443Y-79152380D02*
X92671443Y-78152380D01*
X92558348Y-78295238D01*
X92451205Y-78390476D01*
X92350014Y-78438095D01*
X93290491Y-78152380D02*
X93957157Y-78152380D01*
X93403586Y-79152380D01*
X91860714Y-84089571D02*
X92194047Y-84089571D01*
X92336904Y-84613380D02*
X91860714Y-84613380D01*
X91860714Y-83613380D01*
X92336904Y-83613380D01*
X80646443Y-60054761D02*
X80783348Y-60102380D01*
X81021443Y-60102380D01*
X81122633Y-60054761D01*
X81176205Y-60007142D01*
X81235729Y-59911904D01*
X81247633Y-59816666D01*
X81211919Y-59721428D01*
X81170252Y-59673809D01*
X81080967Y-59626190D01*
X80896443Y-59578571D01*
X80807157Y-59530952D01*
X80765491Y-59483333D01*
X80729776Y-59388095D01*
X80741681Y-59292857D01*
X80801205Y-59197619D01*
X80854776Y-59150000D01*
X80955967Y-59102380D01*
X81194062Y-59102380D01*
X81330967Y-59150000D01*
X81670252Y-59102380D02*
X81783348Y-60102380D01*
X82063110Y-59388095D01*
X82164300Y-60102380D01*
X82527395Y-59102380D01*
X83307157Y-60102380D02*
X82735729Y-60102380D01*
X83021443Y-60102380D02*
X83146443Y-59102380D01*
X83033348Y-59245238D01*
X82926205Y-59340476D01*
X82825014Y-59388095D01*
X84289300Y-59102380D02*
X84098824Y-59102380D01*
X83997633Y-59150000D01*
X83944062Y-59197619D01*
X83830967Y-59340476D01*
X83759538Y-59530952D01*
X83711919Y-59911904D01*
X83747633Y-60007142D01*
X83789300Y-60054761D01*
X83878586Y-60102380D01*
X84069062Y-60102380D01*
X84170252Y-60054761D01*
X84223824Y-60007142D01*
X84283348Y-59911904D01*
X84313110Y-59673809D01*
X84277395Y-59578571D01*
X84235729Y-59530952D01*
X84146443Y-59483333D01*
X83955967Y-59483333D01*
X83854776Y-59530952D01*
X83801205Y-59578571D01*
X83741681Y-59673809D01*
X82216666Y-64563380D02*
X82835714Y-64563380D01*
X82502380Y-64944333D01*
X82645238Y-64944333D01*
X82740476Y-64991952D01*
X82788095Y-65039571D01*
X82835714Y-65134809D01*
X82835714Y-65372904D01*
X82788095Y-65468142D01*
X82740476Y-65515761D01*
X82645238Y-65563380D01*
X82359523Y-65563380D01*
X82264285Y-65515761D01*
X82216666Y-65468142D01*
X73502693Y-136254761D02*
X73639598Y-136302380D01*
X73877693Y-136302380D01*
X73978883Y-136254761D01*
X74032455Y-136207142D01*
X74091979Y-136111904D01*
X74103883Y-136016666D01*
X74068169Y-135921428D01*
X74026502Y-135873809D01*
X73937217Y-135826190D01*
X73752693Y-135778571D01*
X73663407Y-135730952D01*
X73621741Y-135683333D01*
X73586026Y-135588095D01*
X73597931Y-135492857D01*
X73657455Y-135397619D01*
X73711026Y-135350000D01*
X73812217Y-135302380D01*
X74050312Y-135302380D01*
X74187217Y-135350000D01*
X74526502Y-135302380D02*
X74639598Y-136302380D01*
X74919360Y-135588095D01*
X75020550Y-136302380D01*
X75383645Y-135302380D01*
X76163407Y-136302380D02*
X75591979Y-136302380D01*
X75877693Y-136302380D02*
X76002693Y-135302380D01*
X75889598Y-135445238D01*
X75782455Y-135540476D01*
X75681264Y-135588095D01*
X77193169Y-135302380D02*
X76716979Y-135302380D01*
X76609836Y-135778571D01*
X76663407Y-135730952D01*
X76764598Y-135683333D01*
X77002693Y-135683333D01*
X77091979Y-135730952D01*
X77133645Y-135778571D01*
X77169360Y-135873809D01*
X77139598Y-136111904D01*
X77080074Y-136207142D01*
X77026502Y-136254761D01*
X76925312Y-136302380D01*
X76687217Y-136302380D01*
X76597931Y-136254761D01*
X76556264Y-136207142D01*
X72572916Y-141477666D02*
X73049107Y-141477666D01*
X72477678Y-141763380D02*
X72811011Y-140763380D01*
X73144345Y-141763380D01*
X73620535Y-141763380D02*
X73525297Y-141715761D01*
X73477678Y-141620523D01*
X73477678Y-140763380D01*
X73858630Y-141096714D02*
X74239583Y-141096714D01*
X74001488Y-140763380D02*
X74001488Y-141620523D01*
X74049107Y-141715761D01*
X74144345Y-141763380D01*
X74239583Y-141763380D01*
X75858630Y-141763380D02*
X75287202Y-141763380D01*
X75572916Y-141763380D02*
X75572916Y-140763380D01*
X75477678Y-140906238D01*
X75382440Y-141001476D01*
X75287202Y-141049095D01*
X76287202Y-141668142D02*
X76334821Y-141715761D01*
X76287202Y-141763380D01*
X76239583Y-141715761D01*
X76287202Y-141668142D01*
X76287202Y-141763380D01*
X76715773Y-140858619D02*
X76763392Y-140811000D01*
X76858630Y-140763380D01*
X77096726Y-140763380D01*
X77191964Y-140811000D01*
X77239583Y-140858619D01*
X77287202Y-140953857D01*
X77287202Y-141049095D01*
X77239583Y-141191952D01*
X76668154Y-141763380D01*
X77287202Y-141763380D01*
X78191964Y-140763380D02*
X77715773Y-140763380D01*
X77668154Y-141239571D01*
X77715773Y-141191952D01*
X77811011Y-141144333D01*
X78049107Y-141144333D01*
X78144345Y-141191952D01*
X78191964Y-141239571D01*
X78239583Y-141334809D01*
X78239583Y-141572904D01*
X78191964Y-141668142D01*
X78144345Y-141715761D01*
X78049107Y-141763380D01*
X77811011Y-141763380D01*
X77715773Y-141715761D01*
X77668154Y-141668142D01*
X75883943Y-98154761D02*
X76020848Y-98202380D01*
X76258943Y-98202380D01*
X76360133Y-98154761D01*
X76413705Y-98107142D01*
X76473229Y-98011904D01*
X76485133Y-97916666D01*
X76449419Y-97821428D01*
X76407752Y-97773809D01*
X76318467Y-97726190D01*
X76133943Y-97678571D01*
X76044657Y-97630952D01*
X76002991Y-97583333D01*
X75967276Y-97488095D01*
X75979181Y-97392857D01*
X76038705Y-97297619D01*
X76092276Y-97250000D01*
X76193467Y-97202380D01*
X76431562Y-97202380D01*
X76568467Y-97250000D01*
X76907752Y-97202380D02*
X77020848Y-98202380D01*
X77300610Y-97488095D01*
X77401800Y-98202380D01*
X77764895Y-97202380D01*
X78544657Y-98202380D02*
X77973229Y-98202380D01*
X78258943Y-98202380D02*
X78383943Y-97202380D01*
X78270848Y-97345238D01*
X78163705Y-97440476D01*
X78062514Y-97488095D01*
X79002991Y-97202380D02*
X79622038Y-97202380D01*
X79241086Y-97583333D01*
X79383943Y-97583333D01*
X79473229Y-97630952D01*
X79514895Y-97678571D01*
X79550610Y-97773809D01*
X79520848Y-98011904D01*
X79461324Y-98107142D01*
X79407752Y-98154761D01*
X79306562Y-98202380D01*
X79020848Y-98202380D01*
X78931562Y-98154761D01*
X78889895Y-98107142D01*
X77501785Y-103615761D02*
X77644642Y-103663380D01*
X77882738Y-103663380D01*
X77977976Y-103615761D01*
X78025595Y-103568142D01*
X78073214Y-103472904D01*
X78073214Y-103377666D01*
X78025595Y-103282428D01*
X77977976Y-103234809D01*
X77882738Y-103187190D01*
X77692261Y-103139571D01*
X77597023Y-103091952D01*
X77549404Y-103044333D01*
X77501785Y-102949095D01*
X77501785Y-102853857D01*
X77549404Y-102758619D01*
X77597023Y-102711000D01*
X77692261Y-102663380D01*
X77930357Y-102663380D01*
X78073214Y-102711000D01*
X61596443Y-60054761D02*
X61733348Y-60102380D01*
X61971443Y-60102380D01*
X62072633Y-60054761D01*
X62126205Y-60007142D01*
X62185729Y-59911904D01*
X62197633Y-59816666D01*
X62161919Y-59721428D01*
X62120252Y-59673809D01*
X62030967Y-59626190D01*
X61846443Y-59578571D01*
X61757157Y-59530952D01*
X61715491Y-59483333D01*
X61679776Y-59388095D01*
X61691681Y-59292857D01*
X61751205Y-59197619D01*
X61804776Y-59150000D01*
X61905967Y-59102380D01*
X62144062Y-59102380D01*
X62280967Y-59150000D01*
X62620252Y-59102380D02*
X62733348Y-60102380D01*
X63013110Y-59388095D01*
X63114300Y-60102380D01*
X63477395Y-59102380D01*
X64257157Y-60102380D02*
X63685729Y-60102380D01*
X63971443Y-60102380D02*
X64096443Y-59102380D01*
X63983348Y-59245238D01*
X63876205Y-59340476D01*
X63775014Y-59388095D01*
X65209538Y-60102380D02*
X64638110Y-60102380D01*
X64923824Y-60102380D02*
X65048824Y-59102380D01*
X64935729Y-59245238D01*
X64828586Y-59340476D01*
X64727395Y-59388095D01*
X63214285Y-64658619D02*
X63261904Y-64611000D01*
X63357142Y-64563380D01*
X63595238Y-64563380D01*
X63690476Y-64611000D01*
X63738095Y-64658619D01*
X63785714Y-64753857D01*
X63785714Y-64849095D01*
X63738095Y-64991952D01*
X63166666Y-65563380D01*
X63785714Y-65563380D01*
X66835133Y-117204761D02*
X66972038Y-117252380D01*
X67210133Y-117252380D01*
X67311324Y-117204761D01*
X67364895Y-117157142D01*
X67424419Y-117061904D01*
X67436324Y-116966666D01*
X67400610Y-116871428D01*
X67358943Y-116823809D01*
X67269657Y-116776190D01*
X67085133Y-116728571D01*
X66995848Y-116680952D01*
X66954181Y-116633333D01*
X66918467Y-116538095D01*
X66930372Y-116442857D01*
X66989895Y-116347619D01*
X67043467Y-116300000D01*
X67144657Y-116252380D01*
X67382752Y-116252380D01*
X67519657Y-116300000D01*
X67858943Y-116252380D02*
X67972038Y-117252380D01*
X68251800Y-116538095D01*
X68352991Y-117252380D01*
X68716086Y-116252380D01*
X69019657Y-117252380D02*
X69210133Y-117252380D01*
X69311324Y-117204761D01*
X69364895Y-117157142D01*
X69477991Y-117014285D01*
X69549419Y-116823809D01*
X69597038Y-116442857D01*
X69561324Y-116347619D01*
X69519657Y-116300000D01*
X69430372Y-116252380D01*
X69239895Y-116252380D01*
X69138705Y-116300000D01*
X69085133Y-116347619D01*
X69025610Y-116442857D01*
X68995848Y-116680952D01*
X69031562Y-116776190D01*
X69073229Y-116823809D01*
X69162514Y-116871428D01*
X69352991Y-116871428D01*
X69454181Y-116823809D01*
X69507752Y-116776190D01*
X69567276Y-116680952D01*
X67929166Y-121713380D02*
X68595833Y-121713380D01*
X67929166Y-122713380D01*
X68595833Y-122713380D01*
X57310133Y-98154761D02*
X57447038Y-98202380D01*
X57685133Y-98202380D01*
X57786324Y-98154761D01*
X57839895Y-98107142D01*
X57899419Y-98011904D01*
X57911324Y-97916666D01*
X57875610Y-97821428D01*
X57833943Y-97773809D01*
X57744657Y-97726190D01*
X57560133Y-97678571D01*
X57470848Y-97630952D01*
X57429181Y-97583333D01*
X57393467Y-97488095D01*
X57405372Y-97392857D01*
X57464895Y-97297619D01*
X57518467Y-97250000D01*
X57619657Y-97202380D01*
X57857752Y-97202380D01*
X57994657Y-97250000D01*
X58333943Y-97202380D02*
X58447038Y-98202380D01*
X58726800Y-97488095D01*
X58827991Y-98202380D01*
X59191086Y-97202380D01*
X59661324Y-97630952D02*
X59572038Y-97583333D01*
X59530372Y-97535714D01*
X59494657Y-97440476D01*
X59500610Y-97392857D01*
X59560133Y-97297619D01*
X59613705Y-97250000D01*
X59714895Y-97202380D01*
X59905372Y-97202380D01*
X59994657Y-97250000D01*
X60036324Y-97297619D01*
X60072038Y-97392857D01*
X60066086Y-97440476D01*
X60006562Y-97535714D01*
X59952991Y-97583333D01*
X59851800Y-97630952D01*
X59661324Y-97630952D01*
X59560133Y-97678571D01*
X59506562Y-97726190D01*
X59447038Y-97821428D01*
X59423229Y-98011904D01*
X59458943Y-98107142D01*
X59500610Y-98154761D01*
X59589895Y-98202380D01*
X59780372Y-98202380D01*
X59881562Y-98154761D01*
X59935133Y-98107142D01*
X59994657Y-98011904D01*
X60018467Y-97821428D01*
X59982752Y-97726190D01*
X59941086Y-97678571D01*
X59851800Y-97630952D01*
X58499404Y-103377666D02*
X58975595Y-103377666D01*
X58404166Y-103663380D02*
X58737500Y-102663380D01*
X59070833Y-103663380D01*
X52547633Y-79104761D02*
X52684538Y-79152380D01*
X52922633Y-79152380D01*
X53023824Y-79104761D01*
X53077395Y-79057142D01*
X53136919Y-78961904D01*
X53148824Y-78866666D01*
X53113110Y-78771428D01*
X53071443Y-78723809D01*
X52982157Y-78676190D01*
X52797633Y-78628571D01*
X52708348Y-78580952D01*
X52666681Y-78533333D01*
X52630967Y-78438095D01*
X52642872Y-78342857D01*
X52702395Y-78247619D01*
X52755967Y-78200000D01*
X52857157Y-78152380D01*
X53095252Y-78152380D01*
X53232157Y-78200000D01*
X53571443Y-78152380D02*
X53684538Y-79152380D01*
X53964300Y-78438095D01*
X54065491Y-79152380D01*
X54428586Y-78152380D01*
X54714300Y-78152380D02*
X55380967Y-78152380D01*
X54827395Y-79152380D01*
X54355952Y-84708619D02*
X54260714Y-84661000D01*
X54165476Y-84565761D01*
X54022619Y-84422904D01*
X53927380Y-84375285D01*
X53832142Y-84375285D01*
X53879761Y-84613380D02*
X53784523Y-84565761D01*
X53689285Y-84470523D01*
X53641666Y-84280047D01*
X53641666Y-83946714D01*
X53689285Y-83756238D01*
X53784523Y-83661000D01*
X53879761Y-83613380D01*
X54070238Y-83613380D01*
X54165476Y-83661000D01*
X54260714Y-83756238D01*
X54308333Y-83946714D01*
X54308333Y-84280047D01*
X54260714Y-84470523D01*
X54165476Y-84565761D01*
X54070238Y-84613380D01*
X53879761Y-84613380D01*
X43022633Y-60054761D02*
X43159538Y-60102380D01*
X43397633Y-60102380D01*
X43498824Y-60054761D01*
X43552395Y-60007142D01*
X43611919Y-59911904D01*
X43623824Y-59816666D01*
X43588110Y-59721428D01*
X43546443Y-59673809D01*
X43457157Y-59626190D01*
X43272633Y-59578571D01*
X43183348Y-59530952D01*
X43141681Y-59483333D01*
X43105967Y-59388095D01*
X43117872Y-59292857D01*
X43177395Y-59197619D01*
X43230967Y-59150000D01*
X43332157Y-59102380D01*
X43570252Y-59102380D01*
X43707157Y-59150000D01*
X44046443Y-59102380D02*
X44159538Y-60102380D01*
X44439300Y-59388095D01*
X44540491Y-60102380D01*
X44903586Y-59102380D01*
X45713110Y-59102380D02*
X45522633Y-59102380D01*
X45421443Y-59150000D01*
X45367872Y-59197619D01*
X45254776Y-59340476D01*
X45183348Y-59530952D01*
X45135729Y-59911904D01*
X45171443Y-60007142D01*
X45213110Y-60054761D01*
X45302395Y-60102380D01*
X45492872Y-60102380D01*
X45594062Y-60054761D01*
X45647633Y-60007142D01*
X45707157Y-59911904D01*
X45736919Y-59673809D01*
X45701205Y-59578571D01*
X45659538Y-59530952D01*
X45570252Y-59483333D01*
X45379776Y-59483333D01*
X45278586Y-59530952D01*
X45225014Y-59578571D01*
X45165491Y-59673809D01*
X44735714Y-65563380D02*
X44164285Y-65563380D01*
X44450000Y-65563380D02*
X44450000Y-64563380D01*
X44354761Y-64706238D01*
X44259523Y-64801476D01*
X44164285Y-64849095D01*
D13*
X31797619Y-40578571D02*
X31773809Y-40602380D01*
X31702380Y-40626190D01*
X31654761Y-40626190D01*
X31583333Y-40602380D01*
X31535714Y-40554761D01*
X31511904Y-40507142D01*
X31488095Y-40411904D01*
X31488095Y-40340476D01*
X31511904Y-40245238D01*
X31535714Y-40197619D01*
X31583333Y-40150000D01*
X31654761Y-40126190D01*
X31702380Y-40126190D01*
X31773809Y-40150000D01*
X31797619Y-40173809D01*
X32107142Y-40126190D02*
X32202380Y-40126190D01*
X32250000Y-40150000D01*
X32297619Y-40197619D01*
X32321428Y-40292857D01*
X32321428Y-40459523D01*
X32297619Y-40554761D01*
X32250000Y-40602380D01*
X32202380Y-40626190D01*
X32107142Y-40626190D01*
X32059523Y-40602380D01*
X32011904Y-40554761D01*
X31988095Y-40459523D01*
X31988095Y-40292857D01*
X32011904Y-40197619D01*
X32059523Y-40150000D01*
X32107142Y-40126190D01*
X32535714Y-40626190D02*
X32535714Y-40126190D01*
X32821428Y-40626190D01*
X32821428Y-40126190D01*
X33059523Y-40626190D02*
X33059523Y-40126190D01*
X33345238Y-40626190D01*
X33345238Y-40126190D01*
X33583333Y-40364285D02*
X33750000Y-40364285D01*
X33821428Y-40626190D02*
X33583333Y-40626190D01*
X33583333Y-40126190D01*
X33821428Y-40126190D01*
X34321428Y-40578571D02*
X34297619Y-40602380D01*
X34226190Y-40626190D01*
X34178571Y-40626190D01*
X34107142Y-40602380D01*
X34059523Y-40554761D01*
X34035714Y-40507142D01*
X34011904Y-40411904D01*
X34011904Y-40340476D01*
X34035714Y-40245238D01*
X34059523Y-40197619D01*
X34107142Y-40150000D01*
X34178571Y-40126190D01*
X34226190Y-40126190D01*
X34297619Y-40150000D01*
X34321428Y-40173809D01*
X34464285Y-40126190D02*
X34750000Y-40126190D01*
X34607142Y-40626190D02*
X34607142Y-40126190D01*
X35011904Y-40126190D02*
X35107142Y-40126190D01*
X35154761Y-40150000D01*
X35202380Y-40197619D01*
X35226190Y-40292857D01*
X35226190Y-40459523D01*
X35202380Y-40554761D01*
X35154761Y-40602380D01*
X35107142Y-40626190D01*
X35011904Y-40626190D01*
X34964285Y-40602380D01*
X34916666Y-40554761D01*
X34892857Y-40459523D01*
X34892857Y-40292857D01*
X34916666Y-40197619D01*
X34964285Y-40150000D01*
X35011904Y-40126190D01*
X35726190Y-40626190D02*
X35559523Y-40388095D01*
X35440476Y-40626190D02*
X35440476Y-40126190D01*
X35630952Y-40126190D01*
X35678571Y-40150000D01*
X35702380Y-40173809D01*
X35726190Y-40221428D01*
X35726190Y-40292857D01*
X35702380Y-40340476D01*
X35678571Y-40364285D01*
X35630952Y-40388095D01*
X35440476Y-40388095D01*
X36321428Y-40364285D02*
X36488095Y-40364285D01*
X36559523Y-40626190D02*
X36321428Y-40626190D01*
X36321428Y-40126190D01*
X36559523Y-40126190D01*
X36773809Y-40626190D02*
X36773809Y-40126190D01*
X36892857Y-40126190D01*
X36964285Y-40150000D01*
X37011904Y-40197619D01*
X37035714Y-40245238D01*
X37059523Y-40340476D01*
X37059523Y-40411904D01*
X37035714Y-40507142D01*
X37011904Y-40554761D01*
X36964285Y-40602380D01*
X36892857Y-40626190D01*
X36773809Y-40626190D01*
X37535714Y-40150000D02*
X37488095Y-40126190D01*
X37416666Y-40126190D01*
X37345238Y-40150000D01*
X37297619Y-40197619D01*
X37273809Y-40245238D01*
X37250000Y-40340476D01*
X37250000Y-40411904D01*
X37273809Y-40507142D01*
X37297619Y-40554761D01*
X37345238Y-40602380D01*
X37416666Y-40626190D01*
X37464285Y-40626190D01*
X37535714Y-40602380D01*
X37559523Y-40578571D01*
X37559523Y-40411904D01*
X37464285Y-40411904D01*
X37773809Y-40364285D02*
X37940476Y-40364285D01*
X38011904Y-40626190D02*
X37773809Y-40626190D01*
X37773809Y-40126190D01*
X38011904Y-40126190D01*
M02*
