G04 #@! TF.GenerationSoftware,KiCad,Pcbnew,(5.1.5)-3*
G04 #@! TF.CreationDate,2020-04-14T21:23:01-05:00*
G04 #@! TF.ProjectId,Without Led and Usb-c,57697468-6f75-4742-904c-656420616e64,rev?*
G04 #@! TF.SameCoordinates,Original*
G04 #@! TF.FileFunction,Other,Fab,Top*
%FSLAX46Y46*%
G04 Gerber Fmt 4.6, Leading zero omitted, Abs format (unit mm)*
G04 Created by KiCad (PCBNEW (5.1.5)-3) date 2020-04-14 21:23:01*
%MOMM*%
%LPD*%
G04 APERTURE LIST*
%ADD10C,0.050000*%
%ADD11C,0.150000*%
G04 APERTURE END LIST*
D10*
X9820000Y-147280000D02*
X9819976Y-41880000D01*
X326720000Y-39879976D02*
G75*
G02X328720024Y-41880000I0J-2000024D01*
G01*
X328720000Y-147280000D02*
G75*
G02X326720000Y-149280000I-2000000J0D01*
G01*
X11820000Y-149280000D02*
G75*
G02X9820000Y-147280000I0J2000000D01*
G01*
X9819976Y-41880000D02*
G75*
G02X11820000Y-39879976I2000024J0D01*
G01*
X11820000Y-39879976D02*
X15820000Y-39880000D01*
X326720000Y-149280000D02*
X11820000Y-149280000D01*
X328720024Y-41880000D02*
X328720000Y-147280000D01*
X15820000Y-39880000D02*
X326720000Y-39879976D01*
D11*
X5184883Y-149033940D02*
X5184883Y-148033940D01*
X5518217Y-148748226D01*
X5851550Y-148033940D01*
X5851550Y-149033940D01*
X6470598Y-149033940D02*
X6375359Y-148986321D01*
X6327740Y-148938702D01*
X6280121Y-148843464D01*
X6280121Y-148557750D01*
X6327740Y-148462512D01*
X6375359Y-148414893D01*
X6470598Y-148367274D01*
X6613455Y-148367274D01*
X6708693Y-148414893D01*
X6756312Y-148462512D01*
X6803931Y-148557750D01*
X6803931Y-148843464D01*
X6756312Y-148938702D01*
X6708693Y-148986321D01*
X6613455Y-149033940D01*
X6470598Y-149033940D01*
X7661074Y-148367274D02*
X7661074Y-149033940D01*
X7232502Y-148367274D02*
X7232502Y-148891083D01*
X7280121Y-148986321D01*
X7375359Y-149033940D01*
X7518217Y-149033940D01*
X7613455Y-148986321D01*
X7661074Y-148938702D01*
X8137264Y-148367274D02*
X8137264Y-149033940D01*
X8137264Y-148462512D02*
X8184883Y-148414893D01*
X8280121Y-148367274D01*
X8422979Y-148367274D01*
X8518217Y-148414893D01*
X8565836Y-148510131D01*
X8565836Y-149033940D01*
X8899169Y-148367274D02*
X9280121Y-148367274D01*
X9042026Y-148033940D02*
X9042026Y-148891083D01*
X9089645Y-148986321D01*
X9184883Y-149033940D01*
X9280121Y-149033940D01*
X9613455Y-149033940D02*
X9613455Y-148367274D01*
X9613455Y-148033940D02*
X9565836Y-148081560D01*
X9613455Y-148129179D01*
X9661074Y-148081560D01*
X9613455Y-148033940D01*
X9613455Y-148129179D01*
X10089645Y-148367274D02*
X10089645Y-149033940D01*
X10089645Y-148462512D02*
X10137264Y-148414893D01*
X10232502Y-148367274D01*
X10375359Y-148367274D01*
X10470598Y-148414893D01*
X10518217Y-148510131D01*
X10518217Y-149033940D01*
X11422979Y-148367274D02*
X11422979Y-149176798D01*
X11375359Y-149272036D01*
X11327740Y-149319655D01*
X11232502Y-149367274D01*
X11089645Y-149367274D01*
X10994407Y-149319655D01*
X11422979Y-148986321D02*
X11327740Y-149033940D01*
X11137264Y-149033940D01*
X11042026Y-148986321D01*
X10994407Y-148938702D01*
X10946788Y-148843464D01*
X10946788Y-148557750D01*
X10994407Y-148462512D01*
X11042026Y-148414893D01*
X11137264Y-148367274D01*
X11327740Y-148367274D01*
X11422979Y-148414893D01*
X11899169Y-149033940D02*
X11899169Y-148033940D01*
X11899169Y-148510131D02*
X12470598Y-148510131D01*
X12470598Y-149033940D02*
X12470598Y-148033940D01*
X13089645Y-149033940D02*
X12994407Y-148986321D01*
X12946788Y-148938702D01*
X12899169Y-148843464D01*
X12899169Y-148557750D01*
X12946788Y-148462512D01*
X12994407Y-148414893D01*
X13089645Y-148367274D01*
X13232502Y-148367274D01*
X13327740Y-148414893D01*
X13375359Y-148462512D01*
X13422979Y-148557750D01*
X13422979Y-148843464D01*
X13375359Y-148938702D01*
X13327740Y-148986321D01*
X13232502Y-149033940D01*
X13089645Y-149033940D01*
X13994407Y-149033940D02*
X13899169Y-148986321D01*
X13851550Y-148891083D01*
X13851550Y-148033940D01*
X14756312Y-148986321D02*
X14661074Y-149033940D01*
X14470598Y-149033940D01*
X14375359Y-148986321D01*
X14327740Y-148891083D01*
X14327740Y-148510131D01*
X14375359Y-148414893D01*
X14470598Y-148367274D01*
X14661074Y-148367274D01*
X14756312Y-148414893D01*
X14803931Y-148510131D01*
X14803931Y-148605369D01*
X14327740Y-148700607D01*
X14994407Y-149129179D02*
X15756312Y-149129179D01*
X15946788Y-148129179D02*
X15994407Y-148081560D01*
X16089645Y-148033940D01*
X16327740Y-148033940D01*
X16422979Y-148081560D01*
X16470598Y-148129179D01*
X16518217Y-148224417D01*
X16518217Y-148319655D01*
X16470598Y-148462512D01*
X15899169Y-149033940D01*
X16518217Y-149033940D01*
X16946788Y-148938702D02*
X16994407Y-148986321D01*
X16946788Y-149033940D01*
X16899169Y-148986321D01*
X16946788Y-148938702D01*
X16946788Y-149033940D01*
X17946788Y-149033940D02*
X17375359Y-149033940D01*
X17661074Y-149033940D02*
X17661074Y-148033940D01*
X17565836Y-148176798D01*
X17470598Y-148272036D01*
X17375359Y-148319655D01*
X18375359Y-149033940D02*
X18375359Y-148367274D01*
X18375359Y-148462512D02*
X18422979Y-148414893D01*
X18518217Y-148367274D01*
X18661074Y-148367274D01*
X18756312Y-148414893D01*
X18803931Y-148510131D01*
X18803931Y-149033940D01*
X18803931Y-148510131D02*
X18851550Y-148414893D01*
X18946788Y-148367274D01*
X19089645Y-148367274D01*
X19184883Y-148414893D01*
X19232502Y-148510131D01*
X19232502Y-149033940D01*
X19708693Y-149033940D02*
X19708693Y-148367274D01*
X19708693Y-148462512D02*
X19756312Y-148414893D01*
X19851550Y-148367274D01*
X19994407Y-148367274D01*
X20089645Y-148414893D01*
X20137264Y-148510131D01*
X20137264Y-149033940D01*
X20137264Y-148510131D02*
X20184883Y-148414893D01*
X20280121Y-148367274D01*
X20422979Y-148367274D01*
X20518217Y-148414893D01*
X20565836Y-148510131D01*
X20565836Y-149033940D01*
X11859646Y-145639120D02*
X11526313Y-145162930D01*
X11288218Y-145639120D02*
X11288218Y-144639120D01*
X11669170Y-144639120D01*
X11764408Y-144686740D01*
X11812027Y-144734359D01*
X11859646Y-144829597D01*
X11859646Y-144972454D01*
X11812027Y-145067692D01*
X11764408Y-145115311D01*
X11669170Y-145162930D01*
X11288218Y-145162930D01*
X12288218Y-145115311D02*
X12621551Y-145115311D01*
X12764408Y-145639120D02*
X12288218Y-145639120D01*
X12288218Y-144639120D01*
X12764408Y-144639120D01*
X13526313Y-145115311D02*
X13192980Y-145115311D01*
X13192980Y-145639120D02*
X13192980Y-144639120D01*
X13669170Y-144639120D01*
X14192980Y-144639120D02*
X14192980Y-144877216D01*
X13954884Y-144781978D02*
X14192980Y-144877216D01*
X14431075Y-144781978D01*
X14050122Y-145067692D02*
X14192980Y-144877216D01*
X14335837Y-145067692D01*
X14954884Y-144639120D02*
X14954884Y-144877216D01*
X14716789Y-144781978D02*
X14954884Y-144877216D01*
X15192980Y-144781978D01*
X14812027Y-145067692D02*
X14954884Y-144877216D01*
X15097741Y-145067692D01*
X160602243Y-47597260D02*
X160602243Y-46597260D01*
X160935577Y-47311546D01*
X161268910Y-46597260D01*
X161268910Y-47597260D01*
X161887958Y-47597260D02*
X161792720Y-47549641D01*
X161745100Y-47502022D01*
X161697481Y-47406784D01*
X161697481Y-47121070D01*
X161745100Y-47025832D01*
X161792720Y-46978213D01*
X161887958Y-46930594D01*
X162030815Y-46930594D01*
X162126053Y-46978213D01*
X162173672Y-47025832D01*
X162221291Y-47121070D01*
X162221291Y-47406784D01*
X162173672Y-47502022D01*
X162126053Y-47549641D01*
X162030815Y-47597260D01*
X161887958Y-47597260D01*
X163078434Y-46930594D02*
X163078434Y-47597260D01*
X162649862Y-46930594D02*
X162649862Y-47454403D01*
X162697481Y-47549641D01*
X162792720Y-47597260D01*
X162935577Y-47597260D01*
X163030815Y-47549641D01*
X163078434Y-47502022D01*
X163554624Y-46930594D02*
X163554624Y-47597260D01*
X163554624Y-47025832D02*
X163602243Y-46978213D01*
X163697481Y-46930594D01*
X163840339Y-46930594D01*
X163935577Y-46978213D01*
X163983196Y-47073451D01*
X163983196Y-47597260D01*
X164316529Y-46930594D02*
X164697481Y-46930594D01*
X164459386Y-46597260D02*
X164459386Y-47454403D01*
X164507005Y-47549641D01*
X164602243Y-47597260D01*
X164697481Y-47597260D01*
X165030815Y-47597260D02*
X165030815Y-46930594D01*
X165030815Y-46597260D02*
X164983196Y-46644880D01*
X165030815Y-46692499D01*
X165078434Y-46644880D01*
X165030815Y-46597260D01*
X165030815Y-46692499D01*
X165507005Y-46930594D02*
X165507005Y-47597260D01*
X165507005Y-47025832D02*
X165554624Y-46978213D01*
X165649862Y-46930594D01*
X165792720Y-46930594D01*
X165887958Y-46978213D01*
X165935577Y-47073451D01*
X165935577Y-47597260D01*
X166840339Y-46930594D02*
X166840339Y-47740118D01*
X166792720Y-47835356D01*
X166745100Y-47882975D01*
X166649862Y-47930594D01*
X166507005Y-47930594D01*
X166411767Y-47882975D01*
X166840339Y-47549641D02*
X166745100Y-47597260D01*
X166554624Y-47597260D01*
X166459386Y-47549641D01*
X166411767Y-47502022D01*
X166364148Y-47406784D01*
X166364148Y-47121070D01*
X166411767Y-47025832D01*
X166459386Y-46978213D01*
X166554624Y-46930594D01*
X166745100Y-46930594D01*
X166840339Y-46978213D01*
X167316529Y-47597260D02*
X167316529Y-46597260D01*
X167316529Y-47073451D02*
X167887958Y-47073451D01*
X167887958Y-47597260D02*
X167887958Y-46597260D01*
X168507005Y-47597260D02*
X168411767Y-47549641D01*
X168364148Y-47502022D01*
X168316529Y-47406784D01*
X168316529Y-47121070D01*
X168364148Y-47025832D01*
X168411767Y-46978213D01*
X168507005Y-46930594D01*
X168649862Y-46930594D01*
X168745100Y-46978213D01*
X168792720Y-47025832D01*
X168840339Y-47121070D01*
X168840339Y-47406784D01*
X168792720Y-47502022D01*
X168745100Y-47549641D01*
X168649862Y-47597260D01*
X168507005Y-47597260D01*
X169411767Y-47597260D02*
X169316529Y-47549641D01*
X169268910Y-47454403D01*
X169268910Y-46597260D01*
X170173672Y-47549641D02*
X170078434Y-47597260D01*
X169887958Y-47597260D01*
X169792720Y-47549641D01*
X169745100Y-47454403D01*
X169745100Y-47073451D01*
X169792720Y-46978213D01*
X169887958Y-46930594D01*
X170078434Y-46930594D01*
X170173672Y-46978213D01*
X170221291Y-47073451D01*
X170221291Y-47168689D01*
X169745100Y-47263927D01*
X170411767Y-47692499D02*
X171173672Y-47692499D01*
X171364148Y-46692499D02*
X171411767Y-46644880D01*
X171507005Y-46597260D01*
X171745100Y-46597260D01*
X171840339Y-46644880D01*
X171887958Y-46692499D01*
X171935577Y-46787737D01*
X171935577Y-46882975D01*
X171887958Y-47025832D01*
X171316529Y-47597260D01*
X171935577Y-47597260D01*
X172364148Y-47502022D02*
X172411767Y-47549641D01*
X172364148Y-47597260D01*
X172316529Y-47549641D01*
X172364148Y-47502022D01*
X172364148Y-47597260D01*
X173364148Y-47597260D02*
X172792720Y-47597260D01*
X173078434Y-47597260D02*
X173078434Y-46597260D01*
X172983196Y-46740118D01*
X172887958Y-46835356D01*
X172792720Y-46882975D01*
X173792720Y-47597260D02*
X173792720Y-46930594D01*
X173792720Y-47025832D02*
X173840339Y-46978213D01*
X173935577Y-46930594D01*
X174078434Y-46930594D01*
X174173672Y-46978213D01*
X174221291Y-47073451D01*
X174221291Y-47597260D01*
X174221291Y-47073451D02*
X174268910Y-46978213D01*
X174364148Y-46930594D01*
X174507005Y-46930594D01*
X174602243Y-46978213D01*
X174649862Y-47073451D01*
X174649862Y-47597260D01*
X175126053Y-47597260D02*
X175126053Y-46930594D01*
X175126053Y-47025832D02*
X175173672Y-46978213D01*
X175268910Y-46930594D01*
X175411767Y-46930594D01*
X175507005Y-46978213D01*
X175554624Y-47073451D01*
X175554624Y-47597260D01*
X175554624Y-47073451D02*
X175602243Y-46978213D01*
X175697481Y-46930594D01*
X175840339Y-46930594D01*
X175935577Y-46978213D01*
X175983196Y-47073451D01*
X175983196Y-47597260D01*
X167259386Y-44397260D02*
X166926053Y-43921070D01*
X166687958Y-44397260D02*
X166687958Y-43397260D01*
X167068910Y-43397260D01*
X167164148Y-43444880D01*
X167211767Y-43492499D01*
X167259386Y-43587737D01*
X167259386Y-43730594D01*
X167211767Y-43825832D01*
X167164148Y-43873451D01*
X167068910Y-43921070D01*
X166687958Y-43921070D01*
X167687958Y-43873451D02*
X168021291Y-43873451D01*
X168164148Y-44397260D02*
X167687958Y-44397260D01*
X167687958Y-43397260D01*
X168164148Y-43397260D01*
X168926053Y-43873451D02*
X168592720Y-43873451D01*
X168592720Y-44397260D02*
X168592720Y-43397260D01*
X169068910Y-43397260D01*
X169592720Y-43397260D02*
X169592720Y-43635356D01*
X169354624Y-43540118D02*
X169592720Y-43635356D01*
X169830815Y-43540118D01*
X169449862Y-43825832D02*
X169592720Y-43635356D01*
X169735577Y-43825832D01*
X170354624Y-43397260D02*
X170354624Y-43635356D01*
X170116529Y-43540118D02*
X170354624Y-43635356D01*
X170592720Y-43540118D01*
X170211767Y-43825832D02*
X170354624Y-43635356D01*
X170497481Y-43825832D01*
X160597163Y-148839120D02*
X160597163Y-147839120D01*
X160930497Y-148553406D01*
X161263830Y-147839120D01*
X161263830Y-148839120D01*
X161882878Y-148839120D02*
X161787640Y-148791501D01*
X161740020Y-148743882D01*
X161692401Y-148648644D01*
X161692401Y-148362930D01*
X161740020Y-148267692D01*
X161787640Y-148220073D01*
X161882878Y-148172454D01*
X162025735Y-148172454D01*
X162120973Y-148220073D01*
X162168592Y-148267692D01*
X162216211Y-148362930D01*
X162216211Y-148648644D01*
X162168592Y-148743882D01*
X162120973Y-148791501D01*
X162025735Y-148839120D01*
X161882878Y-148839120D01*
X163073354Y-148172454D02*
X163073354Y-148839120D01*
X162644782Y-148172454D02*
X162644782Y-148696263D01*
X162692401Y-148791501D01*
X162787640Y-148839120D01*
X162930497Y-148839120D01*
X163025735Y-148791501D01*
X163073354Y-148743882D01*
X163549544Y-148172454D02*
X163549544Y-148839120D01*
X163549544Y-148267692D02*
X163597163Y-148220073D01*
X163692401Y-148172454D01*
X163835259Y-148172454D01*
X163930497Y-148220073D01*
X163978116Y-148315311D01*
X163978116Y-148839120D01*
X164311449Y-148172454D02*
X164692401Y-148172454D01*
X164454306Y-147839120D02*
X164454306Y-148696263D01*
X164501925Y-148791501D01*
X164597163Y-148839120D01*
X164692401Y-148839120D01*
X165025735Y-148839120D02*
X165025735Y-148172454D01*
X165025735Y-147839120D02*
X164978116Y-147886740D01*
X165025735Y-147934359D01*
X165073354Y-147886740D01*
X165025735Y-147839120D01*
X165025735Y-147934359D01*
X165501925Y-148172454D02*
X165501925Y-148839120D01*
X165501925Y-148267692D02*
X165549544Y-148220073D01*
X165644782Y-148172454D01*
X165787640Y-148172454D01*
X165882878Y-148220073D01*
X165930497Y-148315311D01*
X165930497Y-148839120D01*
X166835259Y-148172454D02*
X166835259Y-148981978D01*
X166787640Y-149077216D01*
X166740020Y-149124835D01*
X166644782Y-149172454D01*
X166501925Y-149172454D01*
X166406687Y-149124835D01*
X166835259Y-148791501D02*
X166740020Y-148839120D01*
X166549544Y-148839120D01*
X166454306Y-148791501D01*
X166406687Y-148743882D01*
X166359068Y-148648644D01*
X166359068Y-148362930D01*
X166406687Y-148267692D01*
X166454306Y-148220073D01*
X166549544Y-148172454D01*
X166740020Y-148172454D01*
X166835259Y-148220073D01*
X167311449Y-148839120D02*
X167311449Y-147839120D01*
X167311449Y-148315311D02*
X167882878Y-148315311D01*
X167882878Y-148839120D02*
X167882878Y-147839120D01*
X168501925Y-148839120D02*
X168406687Y-148791501D01*
X168359068Y-148743882D01*
X168311449Y-148648644D01*
X168311449Y-148362930D01*
X168359068Y-148267692D01*
X168406687Y-148220073D01*
X168501925Y-148172454D01*
X168644782Y-148172454D01*
X168740020Y-148220073D01*
X168787640Y-148267692D01*
X168835259Y-148362930D01*
X168835259Y-148648644D01*
X168787640Y-148743882D01*
X168740020Y-148791501D01*
X168644782Y-148839120D01*
X168501925Y-148839120D01*
X169406687Y-148839120D02*
X169311449Y-148791501D01*
X169263830Y-148696263D01*
X169263830Y-147839120D01*
X170168592Y-148791501D02*
X170073354Y-148839120D01*
X169882878Y-148839120D01*
X169787640Y-148791501D01*
X169740020Y-148696263D01*
X169740020Y-148315311D01*
X169787640Y-148220073D01*
X169882878Y-148172454D01*
X170073354Y-148172454D01*
X170168592Y-148220073D01*
X170216211Y-148315311D01*
X170216211Y-148410549D01*
X169740020Y-148505787D01*
X170406687Y-148934359D02*
X171168592Y-148934359D01*
X171359068Y-147934359D02*
X171406687Y-147886740D01*
X171501925Y-147839120D01*
X171740020Y-147839120D01*
X171835259Y-147886740D01*
X171882878Y-147934359D01*
X171930497Y-148029597D01*
X171930497Y-148124835D01*
X171882878Y-148267692D01*
X171311449Y-148839120D01*
X171930497Y-148839120D01*
X172359068Y-148743882D02*
X172406687Y-148791501D01*
X172359068Y-148839120D01*
X172311449Y-148791501D01*
X172359068Y-148743882D01*
X172359068Y-148839120D01*
X173359068Y-148839120D02*
X172787640Y-148839120D01*
X173073354Y-148839120D02*
X173073354Y-147839120D01*
X172978116Y-147981978D01*
X172882878Y-148077216D01*
X172787640Y-148124835D01*
X173787640Y-148839120D02*
X173787640Y-148172454D01*
X173787640Y-148267692D02*
X173835259Y-148220073D01*
X173930497Y-148172454D01*
X174073354Y-148172454D01*
X174168592Y-148220073D01*
X174216211Y-148315311D01*
X174216211Y-148839120D01*
X174216211Y-148315311D02*
X174263830Y-148220073D01*
X174359068Y-148172454D01*
X174501925Y-148172454D01*
X174597163Y-148220073D01*
X174644782Y-148315311D01*
X174644782Y-148839120D01*
X175120973Y-148839120D02*
X175120973Y-148172454D01*
X175120973Y-148267692D02*
X175168592Y-148220073D01*
X175263830Y-148172454D01*
X175406687Y-148172454D01*
X175501925Y-148220073D01*
X175549544Y-148315311D01*
X175549544Y-148839120D01*
X175549544Y-148315311D02*
X175597163Y-148220073D01*
X175692401Y-148172454D01*
X175835259Y-148172454D01*
X175930497Y-148220073D01*
X175978116Y-148315311D01*
X175978116Y-148839120D01*
X167254306Y-145639120D02*
X166920973Y-145162930D01*
X166682878Y-145639120D02*
X166682878Y-144639120D01*
X167063830Y-144639120D01*
X167159068Y-144686740D01*
X167206687Y-144734359D01*
X167254306Y-144829597D01*
X167254306Y-144972454D01*
X167206687Y-145067692D01*
X167159068Y-145115311D01*
X167063830Y-145162930D01*
X166682878Y-145162930D01*
X167682878Y-145115311D02*
X168016211Y-145115311D01*
X168159068Y-145639120D02*
X167682878Y-145639120D01*
X167682878Y-144639120D01*
X168159068Y-144639120D01*
X168920973Y-145115311D02*
X168587640Y-145115311D01*
X168587640Y-145639120D02*
X168587640Y-144639120D01*
X169063830Y-144639120D01*
X169587640Y-144639120D02*
X169587640Y-144877216D01*
X169349544Y-144781978D02*
X169587640Y-144877216D01*
X169825735Y-144781978D01*
X169444782Y-145067692D02*
X169587640Y-144877216D01*
X169730497Y-145067692D01*
X170349544Y-144639120D02*
X170349544Y-144877216D01*
X170111449Y-144781978D02*
X170349544Y-144877216D01*
X170587640Y-144781978D01*
X170206687Y-145067692D02*
X170349544Y-144877216D01*
X170492401Y-145067692D01*
X315999443Y-148846740D02*
X315999443Y-147846740D01*
X316332777Y-148561026D01*
X316666110Y-147846740D01*
X316666110Y-148846740D01*
X317285158Y-148846740D02*
X317189920Y-148799121D01*
X317142300Y-148751502D01*
X317094681Y-148656264D01*
X317094681Y-148370550D01*
X317142300Y-148275312D01*
X317189920Y-148227693D01*
X317285158Y-148180074D01*
X317428015Y-148180074D01*
X317523253Y-148227693D01*
X317570872Y-148275312D01*
X317618491Y-148370550D01*
X317618491Y-148656264D01*
X317570872Y-148751502D01*
X317523253Y-148799121D01*
X317428015Y-148846740D01*
X317285158Y-148846740D01*
X318475634Y-148180074D02*
X318475634Y-148846740D01*
X318047062Y-148180074D02*
X318047062Y-148703883D01*
X318094681Y-148799121D01*
X318189920Y-148846740D01*
X318332777Y-148846740D01*
X318428015Y-148799121D01*
X318475634Y-148751502D01*
X318951824Y-148180074D02*
X318951824Y-148846740D01*
X318951824Y-148275312D02*
X318999443Y-148227693D01*
X319094681Y-148180074D01*
X319237539Y-148180074D01*
X319332777Y-148227693D01*
X319380396Y-148322931D01*
X319380396Y-148846740D01*
X319713729Y-148180074D02*
X320094681Y-148180074D01*
X319856586Y-147846740D02*
X319856586Y-148703883D01*
X319904205Y-148799121D01*
X319999443Y-148846740D01*
X320094681Y-148846740D01*
X320428015Y-148846740D02*
X320428015Y-148180074D01*
X320428015Y-147846740D02*
X320380396Y-147894360D01*
X320428015Y-147941979D01*
X320475634Y-147894360D01*
X320428015Y-147846740D01*
X320428015Y-147941979D01*
X320904205Y-148180074D02*
X320904205Y-148846740D01*
X320904205Y-148275312D02*
X320951824Y-148227693D01*
X321047062Y-148180074D01*
X321189920Y-148180074D01*
X321285158Y-148227693D01*
X321332777Y-148322931D01*
X321332777Y-148846740D01*
X322237539Y-148180074D02*
X322237539Y-148989598D01*
X322189920Y-149084836D01*
X322142300Y-149132455D01*
X322047062Y-149180074D01*
X321904205Y-149180074D01*
X321808967Y-149132455D01*
X322237539Y-148799121D02*
X322142300Y-148846740D01*
X321951824Y-148846740D01*
X321856586Y-148799121D01*
X321808967Y-148751502D01*
X321761348Y-148656264D01*
X321761348Y-148370550D01*
X321808967Y-148275312D01*
X321856586Y-148227693D01*
X321951824Y-148180074D01*
X322142300Y-148180074D01*
X322237539Y-148227693D01*
X322713729Y-148846740D02*
X322713729Y-147846740D01*
X322713729Y-148322931D02*
X323285158Y-148322931D01*
X323285158Y-148846740D02*
X323285158Y-147846740D01*
X323904205Y-148846740D02*
X323808967Y-148799121D01*
X323761348Y-148751502D01*
X323713729Y-148656264D01*
X323713729Y-148370550D01*
X323761348Y-148275312D01*
X323808967Y-148227693D01*
X323904205Y-148180074D01*
X324047062Y-148180074D01*
X324142300Y-148227693D01*
X324189920Y-148275312D01*
X324237539Y-148370550D01*
X324237539Y-148656264D01*
X324189920Y-148751502D01*
X324142300Y-148799121D01*
X324047062Y-148846740D01*
X323904205Y-148846740D01*
X324808967Y-148846740D02*
X324713729Y-148799121D01*
X324666110Y-148703883D01*
X324666110Y-147846740D01*
X325570872Y-148799121D02*
X325475634Y-148846740D01*
X325285158Y-148846740D01*
X325189920Y-148799121D01*
X325142300Y-148703883D01*
X325142300Y-148322931D01*
X325189920Y-148227693D01*
X325285158Y-148180074D01*
X325475634Y-148180074D01*
X325570872Y-148227693D01*
X325618491Y-148322931D01*
X325618491Y-148418169D01*
X325142300Y-148513407D01*
X325808967Y-148941979D02*
X326570872Y-148941979D01*
X326761348Y-147941979D02*
X326808967Y-147894360D01*
X326904205Y-147846740D01*
X327142300Y-147846740D01*
X327237539Y-147894360D01*
X327285158Y-147941979D01*
X327332777Y-148037217D01*
X327332777Y-148132455D01*
X327285158Y-148275312D01*
X326713729Y-148846740D01*
X327332777Y-148846740D01*
X327761348Y-148751502D02*
X327808967Y-148799121D01*
X327761348Y-148846740D01*
X327713729Y-148799121D01*
X327761348Y-148751502D01*
X327761348Y-148846740D01*
X328761348Y-148846740D02*
X328189920Y-148846740D01*
X328475634Y-148846740D02*
X328475634Y-147846740D01*
X328380396Y-147989598D01*
X328285158Y-148084836D01*
X328189920Y-148132455D01*
X329189920Y-148846740D02*
X329189920Y-148180074D01*
X329189920Y-148275312D02*
X329237539Y-148227693D01*
X329332777Y-148180074D01*
X329475634Y-148180074D01*
X329570872Y-148227693D01*
X329618491Y-148322931D01*
X329618491Y-148846740D01*
X329618491Y-148322931D02*
X329666110Y-148227693D01*
X329761348Y-148180074D01*
X329904205Y-148180074D01*
X329999443Y-148227693D01*
X330047062Y-148322931D01*
X330047062Y-148846740D01*
X330523253Y-148846740D02*
X330523253Y-148180074D01*
X330523253Y-148275312D02*
X330570872Y-148227693D01*
X330666110Y-148180074D01*
X330808967Y-148180074D01*
X330904205Y-148227693D01*
X330951824Y-148322931D01*
X330951824Y-148846740D01*
X330951824Y-148322931D02*
X330999443Y-148227693D01*
X331094681Y-148180074D01*
X331237539Y-148180074D01*
X331332777Y-148227693D01*
X331380396Y-148322931D01*
X331380396Y-148846740D01*
X322656586Y-145646740D02*
X322323253Y-145170550D01*
X322085158Y-145646740D02*
X322085158Y-144646740D01*
X322466110Y-144646740D01*
X322561348Y-144694360D01*
X322608967Y-144741979D01*
X322656586Y-144837217D01*
X322656586Y-144980074D01*
X322608967Y-145075312D01*
X322561348Y-145122931D01*
X322466110Y-145170550D01*
X322085158Y-145170550D01*
X323085158Y-145122931D02*
X323418491Y-145122931D01*
X323561348Y-145646740D02*
X323085158Y-145646740D01*
X323085158Y-144646740D01*
X323561348Y-144646740D01*
X324323253Y-145122931D02*
X323989920Y-145122931D01*
X323989920Y-145646740D02*
X323989920Y-144646740D01*
X324466110Y-144646740D01*
X324989920Y-144646740D02*
X324989920Y-144884836D01*
X324751824Y-144789598D02*
X324989920Y-144884836D01*
X325228015Y-144789598D01*
X324847062Y-145075312D02*
X324989920Y-144884836D01*
X325132777Y-145075312D01*
X325751824Y-144646740D02*
X325751824Y-144884836D01*
X325513729Y-144789598D02*
X325751824Y-144884836D01*
X325989920Y-144789598D01*
X325608967Y-145075312D02*
X325751824Y-144884836D01*
X325894681Y-145075312D01*
X315996903Y-47589640D02*
X315996903Y-46589640D01*
X316330237Y-47303926D01*
X316663570Y-46589640D01*
X316663570Y-47589640D01*
X317282618Y-47589640D02*
X317187380Y-47542021D01*
X317139760Y-47494402D01*
X317092141Y-47399164D01*
X317092141Y-47113450D01*
X317139760Y-47018212D01*
X317187380Y-46970593D01*
X317282618Y-46922974D01*
X317425475Y-46922974D01*
X317520713Y-46970593D01*
X317568332Y-47018212D01*
X317615951Y-47113450D01*
X317615951Y-47399164D01*
X317568332Y-47494402D01*
X317520713Y-47542021D01*
X317425475Y-47589640D01*
X317282618Y-47589640D01*
X318473094Y-46922974D02*
X318473094Y-47589640D01*
X318044522Y-46922974D02*
X318044522Y-47446783D01*
X318092141Y-47542021D01*
X318187380Y-47589640D01*
X318330237Y-47589640D01*
X318425475Y-47542021D01*
X318473094Y-47494402D01*
X318949284Y-46922974D02*
X318949284Y-47589640D01*
X318949284Y-47018212D02*
X318996903Y-46970593D01*
X319092141Y-46922974D01*
X319234999Y-46922974D01*
X319330237Y-46970593D01*
X319377856Y-47065831D01*
X319377856Y-47589640D01*
X319711189Y-46922974D02*
X320092141Y-46922974D01*
X319854046Y-46589640D02*
X319854046Y-47446783D01*
X319901665Y-47542021D01*
X319996903Y-47589640D01*
X320092141Y-47589640D01*
X320425475Y-47589640D02*
X320425475Y-46922974D01*
X320425475Y-46589640D02*
X320377856Y-46637260D01*
X320425475Y-46684879D01*
X320473094Y-46637260D01*
X320425475Y-46589640D01*
X320425475Y-46684879D01*
X320901665Y-46922974D02*
X320901665Y-47589640D01*
X320901665Y-47018212D02*
X320949284Y-46970593D01*
X321044522Y-46922974D01*
X321187380Y-46922974D01*
X321282618Y-46970593D01*
X321330237Y-47065831D01*
X321330237Y-47589640D01*
X322234999Y-46922974D02*
X322234999Y-47732498D01*
X322187380Y-47827736D01*
X322139760Y-47875355D01*
X322044522Y-47922974D01*
X321901665Y-47922974D01*
X321806427Y-47875355D01*
X322234999Y-47542021D02*
X322139760Y-47589640D01*
X321949284Y-47589640D01*
X321854046Y-47542021D01*
X321806427Y-47494402D01*
X321758808Y-47399164D01*
X321758808Y-47113450D01*
X321806427Y-47018212D01*
X321854046Y-46970593D01*
X321949284Y-46922974D01*
X322139760Y-46922974D01*
X322234999Y-46970593D01*
X322711189Y-47589640D02*
X322711189Y-46589640D01*
X322711189Y-47065831D02*
X323282618Y-47065831D01*
X323282618Y-47589640D02*
X323282618Y-46589640D01*
X323901665Y-47589640D02*
X323806427Y-47542021D01*
X323758808Y-47494402D01*
X323711189Y-47399164D01*
X323711189Y-47113450D01*
X323758808Y-47018212D01*
X323806427Y-46970593D01*
X323901665Y-46922974D01*
X324044522Y-46922974D01*
X324139760Y-46970593D01*
X324187380Y-47018212D01*
X324234999Y-47113450D01*
X324234999Y-47399164D01*
X324187380Y-47494402D01*
X324139760Y-47542021D01*
X324044522Y-47589640D01*
X323901665Y-47589640D01*
X324806427Y-47589640D02*
X324711189Y-47542021D01*
X324663570Y-47446783D01*
X324663570Y-46589640D01*
X325568332Y-47542021D02*
X325473094Y-47589640D01*
X325282618Y-47589640D01*
X325187380Y-47542021D01*
X325139760Y-47446783D01*
X325139760Y-47065831D01*
X325187380Y-46970593D01*
X325282618Y-46922974D01*
X325473094Y-46922974D01*
X325568332Y-46970593D01*
X325615951Y-47065831D01*
X325615951Y-47161069D01*
X325139760Y-47256307D01*
X325806427Y-47684879D02*
X326568332Y-47684879D01*
X326758808Y-46684879D02*
X326806427Y-46637260D01*
X326901665Y-46589640D01*
X327139760Y-46589640D01*
X327234999Y-46637260D01*
X327282618Y-46684879D01*
X327330237Y-46780117D01*
X327330237Y-46875355D01*
X327282618Y-47018212D01*
X326711189Y-47589640D01*
X327330237Y-47589640D01*
X327758808Y-47494402D02*
X327806427Y-47542021D01*
X327758808Y-47589640D01*
X327711189Y-47542021D01*
X327758808Y-47494402D01*
X327758808Y-47589640D01*
X328758808Y-47589640D02*
X328187380Y-47589640D01*
X328473094Y-47589640D02*
X328473094Y-46589640D01*
X328377856Y-46732498D01*
X328282618Y-46827736D01*
X328187380Y-46875355D01*
X329187380Y-47589640D02*
X329187380Y-46922974D01*
X329187380Y-47018212D02*
X329234999Y-46970593D01*
X329330237Y-46922974D01*
X329473094Y-46922974D01*
X329568332Y-46970593D01*
X329615951Y-47065831D01*
X329615951Y-47589640D01*
X329615951Y-47065831D02*
X329663570Y-46970593D01*
X329758808Y-46922974D01*
X329901665Y-46922974D01*
X329996903Y-46970593D01*
X330044522Y-47065831D01*
X330044522Y-47589640D01*
X330520713Y-47589640D02*
X330520713Y-46922974D01*
X330520713Y-47018212D02*
X330568332Y-46970593D01*
X330663570Y-46922974D01*
X330806427Y-46922974D01*
X330901665Y-46970593D01*
X330949284Y-47065831D01*
X330949284Y-47589640D01*
X330949284Y-47065831D02*
X330996903Y-46970593D01*
X331092141Y-46922974D01*
X331234999Y-46922974D01*
X331330237Y-46970593D01*
X331377856Y-47065831D01*
X331377856Y-47589640D01*
X322654046Y-44389640D02*
X322320713Y-43913450D01*
X322082618Y-44389640D02*
X322082618Y-43389640D01*
X322463570Y-43389640D01*
X322558808Y-43437260D01*
X322606427Y-43484879D01*
X322654046Y-43580117D01*
X322654046Y-43722974D01*
X322606427Y-43818212D01*
X322558808Y-43865831D01*
X322463570Y-43913450D01*
X322082618Y-43913450D01*
X323082618Y-43865831D02*
X323415951Y-43865831D01*
X323558808Y-44389640D02*
X323082618Y-44389640D01*
X323082618Y-43389640D01*
X323558808Y-43389640D01*
X324320713Y-43865831D02*
X323987380Y-43865831D01*
X323987380Y-44389640D02*
X323987380Y-43389640D01*
X324463570Y-43389640D01*
X324987380Y-43389640D02*
X324987380Y-43627736D01*
X324749284Y-43532498D02*
X324987380Y-43627736D01*
X325225475Y-43532498D01*
X324844522Y-43818212D02*
X324987380Y-43627736D01*
X325130237Y-43818212D01*
X325749284Y-43389640D02*
X325749284Y-43627736D01*
X325511189Y-43532498D02*
X325749284Y-43627736D01*
X325987380Y-43532498D01*
X325606427Y-43818212D02*
X325749284Y-43627736D01*
X325892141Y-43818212D01*
X5202503Y-47582020D02*
X5202503Y-46582020D01*
X5535837Y-47296306D01*
X5869170Y-46582020D01*
X5869170Y-47582020D01*
X6488218Y-47582020D02*
X6392979Y-47534401D01*
X6345360Y-47486782D01*
X6297741Y-47391544D01*
X6297741Y-47105830D01*
X6345360Y-47010592D01*
X6392979Y-46962973D01*
X6488218Y-46915354D01*
X6631075Y-46915354D01*
X6726313Y-46962973D01*
X6773932Y-47010592D01*
X6821551Y-47105830D01*
X6821551Y-47391544D01*
X6773932Y-47486782D01*
X6726313Y-47534401D01*
X6631075Y-47582020D01*
X6488218Y-47582020D01*
X7678694Y-46915354D02*
X7678694Y-47582020D01*
X7250122Y-46915354D02*
X7250122Y-47439163D01*
X7297741Y-47534401D01*
X7392979Y-47582020D01*
X7535837Y-47582020D01*
X7631075Y-47534401D01*
X7678694Y-47486782D01*
X8154884Y-46915354D02*
X8154884Y-47582020D01*
X8154884Y-47010592D02*
X8202503Y-46962973D01*
X8297741Y-46915354D01*
X8440599Y-46915354D01*
X8535837Y-46962973D01*
X8583456Y-47058211D01*
X8583456Y-47582020D01*
X8916789Y-46915354D02*
X9297741Y-46915354D01*
X9059646Y-46582020D02*
X9059646Y-47439163D01*
X9107265Y-47534401D01*
X9202503Y-47582020D01*
X9297741Y-47582020D01*
X9631075Y-47582020D02*
X9631075Y-46915354D01*
X9631075Y-46582020D02*
X9583456Y-46629640D01*
X9631075Y-46677259D01*
X9678694Y-46629640D01*
X9631075Y-46582020D01*
X9631075Y-46677259D01*
X10107265Y-46915354D02*
X10107265Y-47582020D01*
X10107265Y-47010592D02*
X10154884Y-46962973D01*
X10250122Y-46915354D01*
X10392979Y-46915354D01*
X10488218Y-46962973D01*
X10535837Y-47058211D01*
X10535837Y-47582020D01*
X11440599Y-46915354D02*
X11440599Y-47724878D01*
X11392979Y-47820116D01*
X11345360Y-47867735D01*
X11250122Y-47915354D01*
X11107265Y-47915354D01*
X11012027Y-47867735D01*
X11440599Y-47534401D02*
X11345360Y-47582020D01*
X11154884Y-47582020D01*
X11059646Y-47534401D01*
X11012027Y-47486782D01*
X10964408Y-47391544D01*
X10964408Y-47105830D01*
X11012027Y-47010592D01*
X11059646Y-46962973D01*
X11154884Y-46915354D01*
X11345360Y-46915354D01*
X11440599Y-46962973D01*
X11916789Y-47582020D02*
X11916789Y-46582020D01*
X11916789Y-47058211D02*
X12488218Y-47058211D01*
X12488218Y-47582020D02*
X12488218Y-46582020D01*
X13107265Y-47582020D02*
X13012027Y-47534401D01*
X12964408Y-47486782D01*
X12916789Y-47391544D01*
X12916789Y-47105830D01*
X12964408Y-47010592D01*
X13012027Y-46962973D01*
X13107265Y-46915354D01*
X13250122Y-46915354D01*
X13345360Y-46962973D01*
X13392979Y-47010592D01*
X13440599Y-47105830D01*
X13440599Y-47391544D01*
X13392979Y-47486782D01*
X13345360Y-47534401D01*
X13250122Y-47582020D01*
X13107265Y-47582020D01*
X14012027Y-47582020D02*
X13916789Y-47534401D01*
X13869170Y-47439163D01*
X13869170Y-46582020D01*
X14773932Y-47534401D02*
X14678694Y-47582020D01*
X14488218Y-47582020D01*
X14392979Y-47534401D01*
X14345360Y-47439163D01*
X14345360Y-47058211D01*
X14392979Y-46962973D01*
X14488218Y-46915354D01*
X14678694Y-46915354D01*
X14773932Y-46962973D01*
X14821551Y-47058211D01*
X14821551Y-47153449D01*
X14345360Y-47248687D01*
X15012027Y-47677259D02*
X15773932Y-47677259D01*
X15964408Y-46677259D02*
X16012027Y-46629640D01*
X16107265Y-46582020D01*
X16345360Y-46582020D01*
X16440599Y-46629640D01*
X16488218Y-46677259D01*
X16535837Y-46772497D01*
X16535837Y-46867735D01*
X16488218Y-47010592D01*
X15916789Y-47582020D01*
X16535837Y-47582020D01*
X16964408Y-47486782D02*
X17012027Y-47534401D01*
X16964408Y-47582020D01*
X16916789Y-47534401D01*
X16964408Y-47486782D01*
X16964408Y-47582020D01*
X17964408Y-47582020D02*
X17392979Y-47582020D01*
X17678694Y-47582020D02*
X17678694Y-46582020D01*
X17583456Y-46724878D01*
X17488218Y-46820116D01*
X17392979Y-46867735D01*
X18392979Y-47582020D02*
X18392979Y-46915354D01*
X18392979Y-47010592D02*
X18440599Y-46962973D01*
X18535837Y-46915354D01*
X18678694Y-46915354D01*
X18773932Y-46962973D01*
X18821551Y-47058211D01*
X18821551Y-47582020D01*
X18821551Y-47058211D02*
X18869170Y-46962973D01*
X18964408Y-46915354D01*
X19107265Y-46915354D01*
X19202503Y-46962973D01*
X19250122Y-47058211D01*
X19250122Y-47582020D01*
X19726313Y-47582020D02*
X19726313Y-46915354D01*
X19726313Y-47010592D02*
X19773932Y-46962973D01*
X19869170Y-46915354D01*
X20012027Y-46915354D01*
X20107265Y-46962973D01*
X20154884Y-47058211D01*
X20154884Y-47582020D01*
X20154884Y-47058211D02*
X20202503Y-46962973D01*
X20297741Y-46915354D01*
X20440599Y-46915354D01*
X20535837Y-46962973D01*
X20583456Y-47058211D01*
X20583456Y-47582020D01*
X11859646Y-44382020D02*
X11526313Y-43905830D01*
X11288218Y-44382020D02*
X11288218Y-43382020D01*
X11669170Y-43382020D01*
X11764408Y-43429640D01*
X11812027Y-43477259D01*
X11859646Y-43572497D01*
X11859646Y-43715354D01*
X11812027Y-43810592D01*
X11764408Y-43858211D01*
X11669170Y-43905830D01*
X11288218Y-43905830D01*
X12288218Y-43858211D02*
X12621551Y-43858211D01*
X12764408Y-44382020D02*
X12288218Y-44382020D01*
X12288218Y-43382020D01*
X12764408Y-43382020D01*
X13526313Y-43858211D02*
X13192980Y-43858211D01*
X13192980Y-44382020D02*
X13192980Y-43382020D01*
X13669170Y-43382020D01*
X14192980Y-43382020D02*
X14192980Y-43620116D01*
X13954884Y-43524878D02*
X14192980Y-43620116D01*
X14431075Y-43524878D01*
X14050122Y-43810592D02*
X14192980Y-43620116D01*
X14335837Y-43810592D01*
X14954884Y-43382020D02*
X14954884Y-43620116D01*
X14716789Y-43524878D02*
X14954884Y-43620116D01*
X15192980Y-43524878D01*
X14812027Y-43810592D02*
X14954884Y-43620116D01*
X15097741Y-43810592D01*
M02*
