M48
; DRILL file {KiCad (5.1.5)-3} date 4/14/2020 9:24:03 PM
; FORMAT={-:-/ absolute / inch / decimal}
; #@! TF.CreationDate,2020-04-14T21:24:03-05:00
; #@! TF.GenerationSoftware,Kicad,Pcbnew,(5.1.5)-3
FMAT,2
INCH
T1C0.0157
T2C0.0276
T3C0.0591
T4C0.0600
T5C0.0600
T6C0.0670
T7C0.0827
T8C0.1200
T9C0.1570
%
G90
G05
T1
X0.6004Y-1.8799
X0.6594Y-1.883
X0.7343Y-2.6074
X0.9055Y-1.7618
X0.9429Y-1.7494
X0.9813Y-1.7321
X1.0138Y-1.7044
X1.0348Y-1.6711
X1.2205Y-2.6476
X1.2992Y-2.5197
X1.3091Y-3.3465
X1.3386Y-2.4764
X1.3386Y-2.6476
X1.4331Y-2.4764
X1.437Y-3.3465
X1.5059Y-4.0945
X1.5748Y-4.8524
X1.6142Y-4.0945
X1.6732Y-1.8504
X1.6831Y-1.6535
X1.6831Y-1.6535
X1.6831Y-1.6929
X1.6898Y-1.7393
X1.6929Y-4.8524
X1.7224Y-1.8218
X1.7421Y-1.7215
X1.7913Y-1.8504
X2.0374Y-2.6083
X2.185Y-2.6083
X2.3425Y-3.3465
X2.4902Y-3.3465
X2.6969Y-4.0945
X2.815Y-4.8524
X2.8346Y-4.0945
X2.874Y-2.6083
X2.9232Y-4.8524
X3.0217Y-2.6083
X3.1004Y-3.3465
X3.2283Y-3.3465
X3.4744Y-4.0945
X3.5728Y-4.8524
X3.5925Y-4.0945
X3.6319Y-2.6083
X3.6811Y-4.8524
X3.75Y-2.6083
X3.8484Y-3.3465
X3.9665Y-3.3465
X4.1437Y-4.0945
X4.2717Y-2.6083
X4.311Y-4.0945
X4.4291Y-2.6083
X4.6063Y-3.3465
X4.7244Y-3.3465
X4.8524Y-4.0945
X4.9803Y-4.0945
X5.0689Y-2.6083
X5.2362Y-2.6083
X5.3445Y-3.3465
X5.4823Y-3.3465
X5.6004Y-4.0945
X5.7382Y-4.0945
X5.8169Y-4.8524
X5.9055Y-2.6083
X5.935Y-4.8524
X5.9547Y-5.0394
X6.0531Y-2.6083
X6.0827Y-3.3465
X6.2402Y-3.3465
X6.2992Y-5.0197
X6.3711Y-5.0325
X6.3858Y-5.437
X6.3937Y-5.1772
X6.4075Y-4.0945
X6.4862Y-5.3051
X6.4862Y-5.561
X6.4882Y-5.3976
X6.5157Y-5.1564
X6.5157Y-5.3642
X6.5197Y-5.4291
X6.5331Y-5.7498
X6.5354Y-4.0945
X6.6142Y-2.6083
X6.6437Y-4.8808
X6.6634Y-5.3642
X6.6732Y-5.6122
X6.6743Y-5.4893
X6.6772Y-5.185
X6.7323Y-2.6083
X6.7452Y-5.2657
X6.7618Y-4.7441
X6.8021Y-5.7453
X6.8406Y-3.3465
X6.9291Y-5.6496
X6.9685Y-3.3465
X6.9685Y-4.8819
X7.0768Y-5.6102
X7.1654Y-4.0945
X7.1949Y-5.5217
X7.1949Y-5.5828
X7.1949Y-5.6505
X7.1949Y-5.7078
X7.2146Y-3.3169
X7.2146Y-3.3957
X7.2933Y-4.0945
X7.3524Y-2.6083
X7.5197Y-2.6083
X7.5295Y-4.7736
X7.5491Y-4.7046
X7.5591Y-4.0354
X7.5591Y-4.124
X7.5689Y-4.7736
X7.5886Y-3.3465
X7.5886Y-4.7056
X7.5984Y-4.065
X7.5984Y-4.124
X7.5984Y-5.561
X7.5984Y-5.6299
X7.6092Y-4.7638
X7.628Y-4.7047
X7.6378Y-5.561
X7.6378Y-5.6299
X7.6772Y-5.561
X7.6772Y-5.6299
X7.7165Y-3.3465
X7.9331Y-4.0945
X7.9331Y-4.1339
X7.9626Y-5.6299
X7.9626Y-5.5709
X8.002Y-5.6299
X8.002Y-5.561
X8.0413Y-2.6083
X8.0413Y-5.561
X8.0413Y-5.6299
X8.0683Y-4.1318
X8.0807Y-4.0945
X8.0807Y-5.561
X8.0807Y-5.6299
X8.1398Y-5.561
X8.1398Y-5.6299
X8.1791Y-2.6083
X8.3366Y-3.3465
X8.4843Y-3.3465
X8.6909Y-4.0945
X8.7894Y-4.7343
X8.8583Y-4.0945
X8.8878Y-2.6083
X8.8878Y-4.7343
X9.0157Y-2.6083
X9.1142Y-3.3465
X9.2126Y-3.3465
X9.4488Y-4.0945
X9.5571Y-4.7343
X9.5866Y-4.0945
X9.6161Y-2.6083
X9.6949Y-4.7343
X9.7047Y-5.5709
X9.7047Y-5.6299
X9.7539Y-2.6083
X9.8425Y-3.3465
X9.9705Y-3.3465
X10.1772Y-4.0945
X10.3051Y-4.9213
X10.3051Y-4.9842
X10.3346Y-4.0945
X10.3445Y-2.5984
X10.3445Y-2.5984
X10.4823Y-2.5984
X10.7283Y-4.7343
X10.8858Y-4.7343
X10.9449Y-3.3465
X11.063Y-3.3465
X11.122Y-5.5718
X11.122Y-5.6299
X11.3386Y-2.5984
X11.4764Y-2.5984
X11.5354Y-4.0945
X11.6043Y-4.7343
X11.6535Y-4.0945
X11.6831Y-4.7343
X11.8701Y-5.5709
X11.8701Y-5.6594
X11.8996Y-3.3465
X12.0276Y-3.3465
T2
X5.561Y-2.9075
X5.561Y-3.2146
X11.1909Y-5.1516
X11.1909Y-5.4587
X9.311Y-2.9075
X9.311Y-3.2146
X8.189Y-2.1496
X8.189Y-2.4567
X10.1575Y-4.3839
X10.1575Y-4.6909
X1.8209Y-2.9075
X1.8209Y-3.2146
X3.6909Y-2.1496
X3.6909Y-2.4567
X5.1969Y-2.1496
X5.1969Y-2.4567
X1.998Y-3.6555
X1.998Y-3.9626
X5.0098Y-3.6555
X5.0098Y-3.9626
X5.748Y-3.6555
X5.748Y-3.9626
X11.939Y-2.9075
X11.939Y-3.2146
X10.4429Y-5.1516
X10.4429Y-5.4587
X8.9469Y-5.1516
X8.9469Y-5.4587
X9.1339Y-4.3937
X9.1339Y-4.7008
X4.065Y-2.9035
X4.065Y-3.2106
X0.7776Y-5.1516
X0.7776Y-5.4587
X6.6929Y-2.1496
X6.6929Y-2.4567
X2.5689Y-2.9006
X2.5689Y-3.2077
X5.374Y-4.4035
X5.374Y-4.7106
X6.122Y-4.4035
X6.122Y-4.7106
X10.8071Y-2.1496
X10.8071Y-2.4567
X11.0039Y-2.8976
X11.0039Y-3.2047
X10.7087Y-3.6457
X10.7087Y-3.9528
X7.8248Y-2.9075
X7.8248Y-3.2146
X2.1949Y-2.1496
X2.1949Y-2.4567
X3.3071Y-2.9075
X3.3071Y-3.2146
X4.439Y-2.1496
X4.439Y-2.4567
X3.878Y-4.4035
X3.878Y-4.7106
X6.4961Y-3.6555
X6.4961Y-3.9626
X5.9449Y-2.1496
X5.9449Y-2.4567
X11.939Y-3.6555
X11.939Y-3.9626
X7.4409Y-2.1496
X7.4409Y-2.4567
X8.002Y-3.6555
X8.002Y-3.9626
X3.1299Y-4.4035
X3.1299Y-4.7106
X3.5138Y-3.6486
X3.5138Y-3.9557
X7.0669Y-2.9075
X7.0669Y-3.2146
X7.2736Y-3.6358
X7.2736Y-3.9429
X11.939Y-4.3839
X11.939Y-4.6909
X0.876Y-2.9016
X0.876Y-3.2087
X0.689Y-2.1484
X0.689Y-2.4555
X9.498Y-3.6555
X9.498Y-3.9626
X8.563Y-2.9075
X8.563Y-3.2146
X2.9429Y-2.1496
X2.9429Y-2.4567
X2.6575Y-5.1516
X2.6575Y-5.4587
X8.2283Y-4.3839
X8.2283Y-4.6909
X5.4724Y-5.1516
X5.4724Y-5.4587
X1.7224Y-5.1516
X1.7224Y-5.4587
X11.939Y-2.1496
X11.939Y-2.4567
X11.939Y-5.1516
X11.939Y-5.4587
X8.376Y-4.3839
X8.376Y-4.6909
X0.9646Y-3.6555
X0.9646Y-3.9626
X10.0689Y-2.9075
X10.0689Y-3.2146
X8.75Y-3.6555
X8.75Y-3.9626
X2.7559Y-3.6555
X2.7559Y-3.9626
X4.252Y-3.6555
X4.252Y-3.9626
X4.813Y-2.9075
X4.813Y-3.2146
X6.3189Y-2.9075
X6.3189Y-3.2146
X11.1909Y-4.3839
X11.1909Y-4.6909
X10.3051Y-5.1516
X10.3051Y-5.4587
X8.937Y-2.1496
X8.937Y-2.4567
X8.1988Y-5.1516
X8.1988Y-5.4587
X9.6949Y-2.1496
X9.6949Y-2.4567
X2.3819Y-4.4035
X2.3819Y-4.7106
X1.1319Y-4.374
X1.1319Y-4.6811
X4.626Y-4.4035
X4.626Y-4.7106
X2.0571Y-2.1496
X2.0571Y-2.4567
X6.8799Y-4.315
X6.8799Y-4.622
T3
X5.5418Y-4.3711
X5.5891Y-4.3159
X2.8231Y-5.1211
X2.8703Y-5.0659
X9.1043Y-2.1211
X9.1516Y-2.0659
X7.4168Y-3.6211
X7.4641Y-3.5659
X7.7918Y-4.3711
X7.8391Y-4.3159
X12.1043Y-4.3711
X12.1516Y-4.3159
X5.7293Y-2.8711
X5.7766Y-2.8159
X1.6043Y-2.1211
X1.6516Y-2.0659
X6.6668Y-3.6211
X6.7141Y-3.5659
X5.6356Y-5.1211
X5.6828Y-5.0659
X3.1043Y-2.1211
X3.1516Y-2.0659
X9.8543Y-2.1211
X9.9016Y-2.0659
X8.7293Y-2.8711
X8.7766Y-2.8159
X8.9168Y-3.6211
X8.9641Y-3.5659
X10.2293Y-2.8711
X10.2766Y-2.8159
X1.0418Y-2.8711
X1.0891Y-2.8159
X4.9793Y-2.8711
X5.0266Y-2.8159
X4.0418Y-4.3711
X4.0891Y-4.3159
X4.4168Y-3.6211
X4.4641Y-3.5659
X10.6043Y-5.1211
X10.6516Y-5.0659
X9.6668Y-3.6211
X9.7141Y-3.5659
X12.1043Y-2.1211
X12.1516Y-2.0659
X1.8856Y-5.1211
X1.9328Y-5.0659
X2.3543Y-2.1211
X2.4016Y-2.0659
X9.8543Y-5.1211
X9.9016Y-5.0659
X6.2918Y-4.3711
X6.3391Y-4.3159
X4.7918Y-4.3711
X4.8391Y-4.3159
X3.4793Y-2.8711
X3.5266Y-2.8159
X6.8543Y-2.1211
X6.9016Y-2.0659
X7.6043Y-2.1211
X7.6516Y-2.0659
X0.9481Y-5.1211
X0.9953Y-5.0659
X11.3543Y-4.3711
X11.4016Y-4.3159
X2.9168Y-3.6211
X2.9641Y-3.5659
X4.2293Y-2.8711
X4.2766Y-2.8159
X5.1668Y-3.6211
X5.2141Y-3.5659
X3.6668Y-3.6211
X3.7141Y-3.5659
X8.5418Y-4.3711
X8.5891Y-4.3159
X10.3231Y-4.3711
X10.3703Y-4.3159
X8.3543Y-2.1211
X8.4016Y-2.0659
X11.3543Y-5.1211
X11.4016Y-5.0659
X11.1668Y-2.8711
X11.2141Y-2.8159
X1.1356Y-3.6211
X1.1828Y-3.5659
X4.6043Y-2.1211
X4.6516Y-2.0659
X5.3543Y-2.1211
X5.4016Y-2.0659
X3.8543Y-2.1211
X3.9016Y-2.0659
X7.2293Y-2.8711
X7.2766Y-2.8159
X8.1668Y-3.6211
X8.2141Y-3.5659
X7.0418Y-4.3711
X7.0891Y-4.3159
X5.9168Y-3.6211
X5.9641Y-3.5659
X12.1043Y-2.8711
X12.1516Y-2.8159
X1.9793Y-2.8711
X2.0266Y-2.8159
X2.7293Y-2.8711
X2.7766Y-2.8159
X12.1043Y-5.1211
X12.1516Y-5.0659
X6.4793Y-2.8711
X6.5266Y-2.8159
X6.1043Y-2.1211
X6.1516Y-2.0659
X7.9793Y-2.8711
X8.0266Y-2.8159
X9.2918Y-4.3711
X9.3391Y-4.3159
X9.4793Y-2.8711
X9.5266Y-2.8159
X2.1668Y-3.6211
X2.2141Y-3.5659
X12.1043Y-3.6211
X12.1516Y-3.5659
X2.5418Y-4.3711
X2.5891Y-4.3159
X3.2918Y-4.3711
X3.3391Y-4.3159
X0.8543Y-2.1211
X0.9016Y-2.0659
T4
X1.3231Y-4.3711
X1.3703Y-4.3159
X9.3812Y-5.1234
X9.6312Y-5.0234
X10.9793Y-2.1211
X11.0266Y-2.0659
X10.8856Y-3.6211
X10.9328Y-3.5659
X8.4437Y-5.1234
X8.6937Y-5.0234
T5
X8.35Y-5.1234
X8.6Y-5.0234
X9.1Y-5.1234
X9.35Y-5.0234
T6
X5.8625Y-3.7234
X6.2625Y-3.7234
X12.05Y-2.9734
X12.45Y-2.9734
X1.925Y-2.9734
X2.325Y-2.9734
X2.675Y-2.9734
X3.075Y-2.9734
X12.05Y-5.2234
X12.45Y-5.2234
X6.425Y-2.9734
X6.825Y-2.9734
X6.05Y-2.2234
X6.45Y-2.2234
X7.925Y-2.9734
X8.325Y-2.9734
X9.2375Y-4.4734
X9.6375Y-4.4734
X9.425Y-2.9734
X9.825Y-2.9734
X2.1125Y-3.7234
X2.5125Y-3.7234
X12.05Y-3.7234
X12.45Y-3.7234
X2.4875Y-4.4734
X2.8875Y-4.4734
X3.2375Y-4.4734
X3.6375Y-4.4734
X0.8Y-2.2234
X1.2Y-2.2234
X5.4875Y-4.4734
X5.8875Y-4.4734
X2.7687Y-5.2234
X3.1687Y-5.2234
X9.05Y-2.2234
X9.45Y-2.2234
X7.3625Y-3.7234
X7.7625Y-3.7234
X7.7375Y-4.4734
X8.1375Y-4.4734
X12.05Y-4.4734
X12.45Y-4.4734
X5.675Y-2.9734
X6.075Y-2.9734
X8.3Y-5.2234
X8.7Y-5.2234
X1.55Y-2.2234
X1.95Y-2.2234
X6.6125Y-3.7234
X7.0125Y-3.7234
X1.2688Y-4.4734
X1.6687Y-4.4734
X5.5812Y-5.2234
X5.9813Y-5.2234
X3.05Y-2.2234
X3.45Y-2.2234
X9.8Y-2.2234
X10.2Y-2.2234
X8.675Y-2.9734
X9.075Y-2.9734
X8.8625Y-3.7234
X9.2625Y-3.7234
X9.05Y-5.2234
X9.45Y-5.2234
X10.175Y-2.9734
X10.575Y-2.9734
X0.9875Y-2.9734
X1.3875Y-2.9734
X9.3312Y-5.2234
X9.7312Y-5.2234
X4.925Y-2.9734
X5.325Y-2.9734
X3.9875Y-4.4734
X4.3875Y-4.4734
X4.3625Y-3.7234
X4.7625Y-3.7234
X10.55Y-5.2234
X10.95Y-5.2234
X9.6125Y-3.7234
X10.0125Y-3.7234
X12.05Y-2.2234
X12.45Y-2.2234
X1.8313Y-5.2234
X2.2312Y-5.2234
X2.3Y-2.2234
X2.7Y-2.2234
X9.8Y-5.2234
X10.2Y-5.2234
X10.925Y-2.2234
X11.325Y-2.2234
X10.8312Y-3.7234
X11.2312Y-3.7234
X6.2375Y-4.4734
X6.6375Y-4.4734
X4.7375Y-4.4734
X5.1375Y-4.4734
X3.425Y-2.9734
X3.825Y-2.9734
X6.8Y-2.2234
X7.2Y-2.2234
X7.55Y-2.2234
X7.95Y-2.2234
X0.8937Y-5.2234
X1.2937Y-5.2234
X11.3Y-4.4734
X11.7Y-4.4734
X2.8625Y-3.7234
X3.2625Y-3.7234
X4.175Y-2.9734
X4.575Y-2.9734
X5.1125Y-3.7234
X5.5125Y-3.7234
X3.6125Y-3.7234
X4.0125Y-3.7234
X8.4875Y-4.4734
X8.8875Y-4.4734
X10.2687Y-4.4734
X10.6687Y-4.4734
X8.3Y-2.2234
X8.7Y-2.2234
X11.3Y-5.2234
X11.7Y-5.2234
X11.1125Y-2.9734
X11.5125Y-2.9734
X8.3937Y-5.2234
X8.7937Y-5.2234
X1.0813Y-3.7234
X1.4812Y-3.7234
X4.55Y-2.2234
X4.95Y-2.2234
X5.3Y-2.2234
X5.7Y-2.2234
X3.8Y-2.2234
X4.2Y-2.2234
X7.175Y-2.9734
X7.575Y-2.9734
X8.1125Y-3.7234
X8.5125Y-3.7234
X6.9875Y-4.4734
X7.3875Y-4.4734
T7
X12.7436Y-1.7298
X12.7437Y-5.7163
X6.6255Y-5.716
X6.6257Y-1.7301
X0.5076Y-5.716
X0.5076Y-1.7295
T8
X0.9988Y-4.7484
X1.9387Y-4.7484
X3.8112Y-5.4984
X7.7512Y-5.499
X10.655Y-2.4984
X11.595Y-2.4984
X10.5612Y-3.9984
X11.5012Y-3.9984
T9
X9.8125Y-3.7234
X12.25Y-2.2234
X2.0312Y-5.2234
X2.5Y-2.2234
X10.0Y-5.2234
X10.655Y-1.8984
X11.125Y-2.2234
X11.595Y-1.8984
X10.5612Y-3.3984
X11.0312Y-3.7234
X11.5012Y-3.3984
X6.4375Y-4.4734
X4.9375Y-4.4734
X3.625Y-2.9734
X7.0Y-2.2234
X7.75Y-2.2234
X1.0938Y-5.2234
X11.5Y-4.4734
X3.0625Y-3.7234
X4.375Y-2.9734
X5.3125Y-3.7234
X3.8125Y-3.7234
X8.6875Y-4.4734
X10.4688Y-4.4734
X8.5Y-2.2234
X11.5Y-5.2234
X11.3125Y-2.9734
X8.5938Y-5.2234
X1.2812Y-3.7234
X4.75Y-2.2234
X5.5Y-2.2234
X4.0Y-2.2234
X7.375Y-2.9734
X8.3125Y-3.7234
X7.1875Y-4.4734
X6.0625Y-3.7234
X12.25Y-2.9734
X2.125Y-2.9734
X2.875Y-2.9734
X12.25Y-5.2234
X6.625Y-2.9734
X6.25Y-2.2234
X8.125Y-2.9734
X9.4375Y-4.4734
X9.625Y-2.9734
X2.3125Y-3.7234
X12.25Y-3.7234
X2.6875Y-4.4734
X3.4375Y-4.4734
X1.0Y-2.2234
X5.6875Y-4.4734
X2.9688Y-5.2234
X9.25Y-2.2234
X7.5625Y-3.7234
X7.9375Y-4.4734
X12.25Y-4.4734
X5.875Y-2.9734
X8.5Y-5.2234
X1.75Y-2.2234
X6.8125Y-3.7234
X0.9988Y-4.1484
X1.4688Y-4.4734
X1.9387Y-4.1484
X3.8112Y-4.8984
X5.7812Y-5.2234
X7.7512Y-4.8984
X3.25Y-2.2234
X10.0Y-2.2234
X8.875Y-2.9734
X9.0625Y-3.7234
X9.25Y-5.2234
X10.375Y-2.9734
X1.1875Y-2.9734
X9.5312Y-5.2234
X5.125Y-2.9734
X4.1875Y-4.4734
X4.5625Y-3.7234
X10.75Y-5.2234
T2
G00X1.2244Y-1.6713
M15
G01X1.2244Y-1.7854
M16
G05
G00X1.5118Y-1.6713
M15
G01X1.5118Y-1.7854
M16
G05
T3
G00X5.7859Y-4.2943
M15
G01X5.7859Y-4.2746
M16
G05
G00X3.0672Y-5.0443
M15
G01X3.0672Y-5.0246
M16
G05
G00X9.3484Y-2.0443
M15
G01X9.3484Y-2.0246
M16
G05
G00X7.6609Y-3.5443
M15
G01X7.6609Y-3.5246
M16
G05
G00X8.0359Y-4.2943
M15
G01X8.0359Y-4.2746
M16
G05
G00X12.3484Y-4.2943
M15
G01X12.3484Y-4.2746
M16
G05
G00X5.9734Y-2.7943
M15
G01X5.9734Y-2.7746
M16
G05
G00X1.8484Y-2.0443
M15
G01X1.8484Y-2.0246
M16
G05
G00X6.9109Y-3.5443
M15
G01X6.9109Y-3.5246
M16
G05
G00X1.5672Y-4.2943
M15
G01X1.5672Y-4.2746
M16
G05
G00X5.8797Y-5.0443
M15
G01X5.8797Y-5.0246
M16
G05
G00X3.3484Y-2.0443
M15
G01X3.3484Y-2.0246
M16
G05
G00X10.0984Y-2.0443
M15
G01X10.0984Y-2.0246
M16
G05
G00X8.9734Y-2.7943
M15
G01X8.9734Y-2.7746
M16
G05
G00X9.1609Y-3.5443
M15
G01X9.1609Y-3.5246
M16
G05
G00X10.4734Y-2.7943
M15
G01X10.4734Y-2.7746
M16
G05
G00X1.2859Y-2.7943
M15
G01X1.2859Y-2.7746
M16
G05
G00X5.2234Y-2.7943
M15
G01X5.2234Y-2.7746
M16
G05
G00X4.2859Y-4.2943
M15
G01X4.2859Y-4.2746
M16
G05
G00X4.6609Y-3.5443
M15
G01X4.6609Y-3.5246
M16
G05
G00X10.8484Y-5.0443
M15
G01X10.8484Y-5.0246
M16
G05
G00X9.9109Y-3.5443
M15
G01X9.9109Y-3.5246
M16
G05
G00X12.3484Y-2.0443
M15
G01X12.3484Y-2.0246
M16
G05
G00X2.1297Y-5.0443
M15
G01X2.1297Y-5.0246
M16
G05
G00X2.5984Y-2.0443
M15
G01X2.5984Y-2.0246
M16
G05
G00X10.0984Y-5.0443
M15
G01X10.0984Y-5.0246
M16
G05
G00X11.2234Y-2.0443
M15
G01X11.2234Y-2.0246
M16
G05
G00X11.1297Y-3.5443
M15
G01X11.1297Y-3.5246
M16
G05
G00X6.5359Y-4.2943
M15
G01X6.5359Y-4.2746
M16
G05
G00X5.0359Y-4.2943
M15
G01X5.0359Y-4.2746
M16
G05
G00X3.7234Y-2.7943
M15
G01X3.7234Y-2.7746
M16
G05
G00X7.0984Y-2.0443
M15
G01X7.0984Y-2.0246
M16
G05
G00X7.8484Y-2.0443
M15
G01X7.8484Y-2.0246
M16
G05
G00X1.1922Y-5.0443
M15
G01X1.1922Y-5.0246
M16
G05
G00X11.5984Y-4.2943
M15
G01X11.5984Y-4.2746
M16
G05
G00X3.1609Y-3.5443
M15
G01X3.1609Y-3.5246
M16
G05
G00X4.4734Y-2.7943
M15
G01X4.4734Y-2.7746
M16
G05
G00X5.4109Y-3.5443
M15
G01X5.4109Y-3.5246
M16
G05
G00X3.9109Y-3.5443
M15
G01X3.9109Y-3.5246
M16
G05
G00X8.7859Y-4.2943
M15
G01X8.7859Y-4.2746
M16
G05
G00X10.5672Y-4.2943
M15
G01X10.5672Y-4.2746
M16
G05
G00X8.5984Y-2.0443
M15
G01X8.5984Y-2.0246
M16
G05
G00X11.5984Y-5.0443
M15
G01X11.5984Y-5.0246
M16
G05
G00X11.4109Y-2.7943
M15
G01X11.4109Y-2.7746
M16
G05
G00X1.3797Y-3.5443
M15
G01X1.3797Y-3.5246
M16
G05
G00X4.8484Y-2.0443
M15
G01X4.8484Y-2.0246
M16
G05
G00X5.5984Y-2.0443
M15
G01X5.5984Y-2.0246
M16
G05
G00X4.0984Y-2.0443
M15
G01X4.0984Y-2.0246
M16
G05
G00X7.4734Y-2.7943
M15
G01X7.4734Y-2.7746
M16
G05
G00X8.4109Y-3.5443
M15
G01X8.4109Y-3.5246
M16
G05
G00X7.2859Y-4.2943
M15
G01X7.2859Y-4.2746
M16
G05
G00X6.1609Y-3.5443
M15
G01X6.1609Y-3.5246
M16
G05
G00X12.3484Y-2.7943
M15
G01X12.3484Y-2.7746
M16
G05
G00X2.2234Y-2.7943
M15
G01X2.2234Y-2.7746
M16
G05
G00X2.9734Y-2.7943
M15
G01X2.9734Y-2.7746
M16
G05
G00X12.3484Y-5.0443
M15
G01X12.3484Y-5.0246
M16
G05
G00X6.7234Y-2.7943
M15
G01X6.7234Y-2.7746
M16
G05
G00X6.3484Y-2.0443
M15
G01X6.3484Y-2.0246
M16
G05
G00X8.2234Y-2.7943
M15
G01X8.2234Y-2.7746
M16
G05
G00X9.5359Y-4.2943
M15
G01X9.5359Y-4.2746
M16
G05
G00X9.7234Y-2.7943
M15
G01X9.7234Y-2.7746
M16
G05
G00X2.4109Y-3.5443
M15
G01X2.4109Y-3.5246
M16
G05
G00X12.3484Y-3.5443
M15
G01X12.3484Y-3.5246
M16
G05
G00X2.7859Y-4.2943
M15
G01X2.7859Y-4.2746
M16
G05
G00X3.5359Y-4.2943
M15
G01X3.5359Y-4.2746
M16
G05
G00X1.0984Y-2.0443
M15
G01X1.0984Y-2.0246
M16
G05
T0
M30
